ISO-10303-21;
HEADER;
FILE_DESCRIPTION (( 'STEP AP214' ),
    '1' );
FILE_NAME ('GripperSpacer 1 V2.step',
    '2026-08-28T16:12:13',
    ( '' ),
    ( '' ),
    'SwSTEP 2.0',
    'SolidWorks 2024',
    '' );
FILE_SCHEMA (( 'AUTOMOTIVE_DESIGN' ));
ENDSEC;

DATA;
#1 = CIRCLE ( 'NONE', #265, 1.699999999999999512 ) ;
#2 = ORIENTED_EDGE ( 'NONE', *, *, #178, .F. ) ;
#3 = DIRECTION ( 'NONE',  ( 0.000000000000000000, -0.000000000000000000, 1.000000000000000000 ) ) ;
#4 = ORIENTED_EDGE ( 'NONE', *, *, #178, .T. ) ;
#5 = ORIENTED_EDGE ( 'NONE', *, *, #24, .T. ) ;
#6 = LINE ( 'NONE', #295, #190 ) ;
#7 = VECTOR ( 'NONE', #13, 1000.000000000000000 ) ;
#8 = EDGE_CURVE ( 'NONE', #16, #132, #61, .T. ) ;
#9 = ORIENTED_EDGE ( 'NONE', *, *, #24, .F. ) ;
#10 = ORIENTED_EDGE ( 'NONE', *, *, #143, .T. ) ;
#11 = APPLICATION_CONTEXT ( 'automotive_design' ) ;
#12 = FACE_OUTER_BOUND ( 'NONE', #168, .T. ) ;
#13 = DIRECTION ( 'NONE',  ( -0.000000000000000000, -1.000000000000000000, -0.000000000000000000 ) ) ;
#14 = EDGE_CURVE ( 'NONE', #156, #286, #6, .T. ) ;
#15 = AXIS2_PLACEMENT_3D ( 'NONE', #92, #131, #41 ) ;
#16 = VERTEX_POINT ( 'NONE', #239 ) ;
#17 = CARTESIAN_POINT ( 'NONE',  ( -40.00000000000000000, 0.000000000000000000, 0.000000000000000000 ) ) ;
#18 = ORIENTED_EDGE ( 'NONE', *, *, #191, .F. ) ;
#19 = CARTESIAN_POINT ( 'NONE',  ( -40.00000000000000000, 0.000000000000000000, 10.00000000000000000 ) ) ;
#20 = DIRECTION ( 'NONE',  ( 0.000000000000000000, 0.000000000000000000, 1.000000000000000000 ) ) ;
#21 = LINE ( 'NONE', #42, #152 ) ;
#22 = PLANE ( 'NONE',  #208 ) ;
#23 = DIRECTION ( 'NONE',  ( -1.734723475976807094E-16, 0.000000000000000000, -1.000000000000000000 ) ) ;
#24 = EDGE_CURVE ( 'NONE', #234, #138, #294, .T. ) ;
#25 =( NAMED_UNIT ( * ) PLANE_ANGLE_UNIT ( ) SI_UNIT ( $, .RADIAN. ) );
#26 = PRESENTATION_LAYER_ASSIGNMENT (  '', '', ( #314 ) ) ;
#27 = LINE ( 'NONE', #174, #175 ) ;
#28 = APPLICATION_PROTOCOL_DEFINITION ( 'draft international standard', 'automotive_design', 1998, #142 ) ;
#29 = EDGE_LOOP ( 'NONE', ( #235, #189, #33, #318 ) ) ;
#30 = CARTESIAN_POINT ( 'NONE',  ( 40.00000000000000000, 20.00000000000000000, -1.469576158976823671E-14 ) ) ;
#31 = AXIS2_PLACEMENT_3D ( 'NONE', #214, #241, #259 ) ;
#32 = SHAPE_DEFINITION_REPRESENTATION ( #101, #325 ) ;
#33 = ORIENTED_EDGE ( 'NONE', *, *, #8, .T. ) ;
#34 = DIRECTION ( 'NONE',  ( 0.000000000000000000, 0.000000000000000000, -1.000000000000000000 ) ) ;
#35 = VERTEX_POINT ( 'NONE', #66 ) ;
#36 = DIRECTION ( 'NONE',  ( -1.000000000000000000, -0.000000000000000000, 1.734723475976807094E-16 ) ) ;
#37 = ADVANCED_FACE ( 'NONE', ( #219, #291, #212 ), #64, .F. ) ;
#38 = EDGE_LOOP ( 'NONE', ( #10, #160, #216, #258 ) ) ;
#39 = VERTEX_POINT ( 'NONE', #289 ) ;
#40 = EDGE_LOOP ( 'NONE', ( #264, #5, #266, #181 ) ) ;
#41 = DIRECTION ( 'NONE',  ( 0.000000000000000000, 0.000000000000000000, -1.000000000000000000 ) ) ;
#42 = CARTESIAN_POINT ( 'NONE',  ( -40.00000000000000000, 0.000000000000000000, 10.00000000000000000 ) ) ;
#43 = ADVANCED_FACE ( 'NONE', ( #293 ), #319, .F. ) ;
#44 = LINE ( 'NONE', #192, #7 ) ;
#45 = VECTOR ( 'NONE', #100, 1000.000000000000000 ) ;
#46 = FACE_OUTER_BOUND ( 'NONE', #38, .T. ) ;
#47 = DIRECTION ( 'NONE',  ( 0.000000000000000000, 0.000000000000000000, 1.000000000000000000 ) ) ;
#48 = ADVANCED_FACE ( 'NONE', ( #133 ), #161, .F. ) ;
#49 = DIRECTION ( 'NONE',  ( 0.000000000000000000, 1.000000000000000000, 0.000000000000000000 ) ) ;
#50 = CIRCLE ( 'NONE', #245, 1.699999999999999512 ) ;
#51 = LINE ( 'NONE', #153, #199 ) ;
#52 = DIRECTION ( 'NONE',  ( 0.000000000000000000, 0.000000000000000000, -1.000000000000000000 ) ) ;
#53 = EDGE_CURVE ( 'NONE', #132, #39, #323, .T. ) ;
#54 =( NAMED_UNIT ( * ) SI_UNIT ( $, .STERADIAN. ) SOLID_ANGLE_UNIT ( ) );
#55 = DIRECTION ( 'NONE',  ( -0.000000000000000000, -1.000000000000000000, -0.000000000000000000 ) ) ;
#56 =( GEOMETRIC_REPRESENTATION_CONTEXT ( 3 ) GLOBAL_UNCERTAINTY_ASSIGNED_CONTEXT ( ( #195 ) ) GLOBAL_UNIT_ASSIGNED_CONTEXT ( ( #230, #209, #54 ) ) REPRESENTATION_CONTEXT ( 'NONE', 'WORKASPACE' ) );
#57 = SURFACE_STYLE_USAGE ( .BOTH. , #227 ) ;
#58 = ORIENTED_EDGE ( 'NONE', *, *, #94, .T. ) ;
#59 = CIRCLE ( 'NONE', #278, 1.699999999999999512 ) ;
#60 = ORIENTED_EDGE ( 'NONE', *, *, #53, .T. ) ;
#61 = LINE ( 'NONE', #91, #144 ) ;
#62 = ADVANCED_FACE ( 'NONE', ( #12 ), #182, .T. ) ;
#63 = ORIENTED_EDGE ( 'NONE', *, *, #111, .F. ) ;
#64 = PLANE ( 'NONE',  #336 ) ;
#65 = ORIENTED_EDGE ( 'NONE', *, *, #8, .F. ) ;
#66 = CARTESIAN_POINT ( 'NONE',  ( 40.00000000000000000, 0.000000000000000000, -10.00000000000001421 ) ) ;
#67 = VECTOR ( 'NONE', #328, 1000.000000000000000 ) ;
#68 = ORIENTED_EDGE ( 'NONE', *, *, #320, .F. ) ;
#69 = EDGE_CURVE ( 'NONE', #158, #218, #287, .T. ) ;
#70 = CYLINDRICAL_SURFACE ( 'NONE', #82, 10.00000000000000000 ) ;
#71 = FILL_AREA_STYLE_COLOUR ( '', #273 ) ;
#72 = CIRCLE ( 'NONE', #121, 10.00000000000000000 ) ;
#73 = PRODUCT_DEFINITION_FORMATION_WITH_SPECIFIED_SOURCE ( 'ANY', '', #151, .NOT_KNOWN. ) ;
#74 = CARTESIAN_POINT ( 'NONE',  ( -40.00000000000000000, 0.000000000000000000, 0.000000000000000000 ) ) ;
#75 = EDGE_CURVE ( 'NONE', #327, #39, #185, .T. ) ;
#76 = CARTESIAN_POINT ( 'NONE',  ( -40.00000000000000000, 20.00000000000000000, -10.00000000000000000 ) ) ;
#77 = CYLINDRICAL_SURFACE ( 'NONE', #107, 1.699999999999999512 ) ;
#78 = ADVANCED_FACE ( 'NONE', ( #224 ), #97, .F. ) ;
#79 = LINE ( 'NONE', #106, #282 ) ;
#80 = CARTESIAN_POINT ( 'NONE',  ( 40.00000000000000000, 20.00000000000000000, -1.469576158976823671E-14 ) ) ;
#81 = CARTESIAN_POINT ( 'NONE',  ( -40.00000000000000000, 20.00000000000000000, 0.000000000000000000 ) ) ;
#82 = AXIS2_PLACEMENT_3D ( 'NONE', #179, #123, #52 ) ;
#83 = EDGE_LOOP ( 'NONE', ( #18, #311 ) ) ;
#84 = VERTEX_POINT ( 'NONE', #150 ) ;
#85 = DIRECTION ( 'NONE',  ( 0.000000000000000000, 0.000000000000000000, -1.000000000000000000 ) ) ;
#86 = APPLICATION_PROTOCOL_DEFINITION ( 'draft international standard', 'automotive_design', 1998, #11 ) ;
#87 = CARTESIAN_POINT ( 'NONE',  ( 40.00000000000000000, 20.00000000000000000, -1.469576158976823671E-14 ) ) ;
#88 = VECTOR ( 'NONE', #120, 1000.000000000000000 ) ;
#89 = VERTEX_POINT ( 'NONE', #95 ) ;
#90 = ORIENTED_EDGE ( 'NONE', *, *, #98, .T. ) ;
#91 = CARTESIAN_POINT ( 'NONE',  ( -40.00000000000000000, 20.00000000000000000, -1.699999999999999512 ) ) ;
#92 = CARTESIAN_POINT ( 'NONE',  ( 40.00000000000000000, 20.00000000000000000, -1.469576158976823671E-14 ) ) ;
#93 = AXIS2_PLACEMENT_3D ( 'NONE', #334, #305, #308 ) ;
#94 = EDGE_CURVE ( 'NONE', #39, #132, #116, .T. ) ;
#95 = CARTESIAN_POINT ( 'NONE',  ( 40.00000000000000000, 20.00000000000000000, 9.999999999999985789 ) ) ;
#96 = DIRECTION ( 'NONE',  ( 0.000000000000000000, 0.000000000000000000, 1.000000000000000000 ) ) ;
#97 = PLANE ( 'NONE',  #183 ) ;
#98 = EDGE_CURVE ( 'NONE', #234, #313, #44, .T. ) ;
#99 = VECTOR ( 'NONE', #270, 1000.000000000000000 ) ;
#100 = DIRECTION ( 'NONE',  ( -0.000000000000000000, -1.000000000000000000, -0.000000000000000000 ) ) ;
#101 = PRODUCT_DEFINITION_SHAPE ( 'NONE', 'NONE',  #326 ) ;
#102 = CARTESIAN_POINT ( 'NONE',  ( 40.00000000000000000, 0.000000000000000000, -1.469576158976823671E-14 ) ) ;
#103 = DIRECTION ( 'NONE',  ( -1.000000000000000000, 0.000000000000000000, 1.734723475976807094E-16 ) ) ;
#104 = CIRCLE ( 'NONE', #198, 10.00000000000000000 ) ;
#105 = PRESENTATION_STYLE_ASSIGNMENT (( #57 ) ) ;
#106 = CARTESIAN_POINT ( 'NONE',  ( 40.00000000000000000, 20.00000000000000000, 9.999999999999985789 ) ) ;
#107 = AXIS2_PLACEMENT_3D ( 'NONE', #81, #55, #206 ) ;
#108 = ORIENTED_EDGE ( 'NONE', *, *, #69, .F. ) ;
#109 = ORIENTED_EDGE ( 'NONE', *, *, #191, .T. ) ;
#110 = CARTESIAN_POINT ( 'NONE',  ( 40.00000000000000000, 20.00000000000000000, -1.469576158976823671E-14 ) ) ;
#111 = EDGE_CURVE ( 'NONE', #286, #292, #167, .T. ) ;
#112 = CARTESIAN_POINT ( 'NONE',  ( 0.000000000000000000, 0.000000000000000000, 0.000000000000000000 ) ) ;
#113 = CARTESIAN_POINT ( 'NONE',  ( -40.00000000000000000, 0.000000000000000000, 0.000000000000000000 ) ) ;
#114 = ORIENTED_EDGE ( 'NONE', *, *, #173, .T. ) ;
#115 = FACE_BOUND ( 'NONE', #180, .T. ) ;
#116 = CIRCLE ( 'NONE', #283, 1.699999999999999512 ) ;
#117 = CARTESIAN_POINT ( 'NONE',  ( -40.00000000000000000, 20.00000000000000000, -10.00000000000000000 ) ) ;
#118 = EDGE_CURVE ( 'NONE', #313, #130, #204, .T. ) ;
#119 = CARTESIAN_POINT ( 'NONE',  ( -40.00000000000000000, 20.00000000000000000, 10.00000000000000000 ) ) ;
#120 = DIRECTION ( 'NONE',  ( -0.000000000000000000, -1.000000000000000000, -0.000000000000000000 ) ) ;
#121 = AXIS2_PLACEMENT_3D ( 'NONE', #249, #172, #302 ) ;
#122 = DIRECTION ( 'NONE',  ( 0.000000000000000000, 1.000000000000000000, 0.000000000000000000 ) ) ;
#123 = DIRECTION ( 'NONE',  ( -0.000000000000000000, -1.000000000000000000, -0.000000000000000000 ) ) ;
#124 = DIRECTION ( 'NONE',  ( -1.000000000000000000, -0.000000000000000000, 1.734723475976807094E-16 ) ) ;
#125 = FACE_OUTER_BOUND ( 'NONE', #187, .T. ) ;
#126 = MECHANICAL_DESIGN_GEOMETRIC_PRESENTATION_REPRESENTATION (  '', ( #314 ), #56 ) ;
#127 = EDGE_LOOP ( 'NONE', ( #147, #68, #271, #290 ) ) ;
#128 = DIRECTION ( 'NONE',  ( -0.000000000000000000, -1.000000000000000000, -0.000000000000000000 ) ) ;
#129 = EDGE_CURVE ( 'NONE', #138, #130, #301, .T. ) ;
#130 = VERTEX_POINT ( 'NONE', #201 ) ;
#131 = DIRECTION ( 'NONE',  ( -0.000000000000000000, -1.000000000000000000, -0.000000000000000000 ) ) ;
#132 = VERTEX_POINT ( 'NONE', #197 ) ;
#133 = FACE_OUTER_BOUND ( 'NONE', #40, .T. ) ;
#134 = ORIENTED_EDGE ( 'NONE', *, *, #274, .F. ) ;
#135 = AXIS2_PLACEMENT_3D ( 'NONE', #17, #222, #96 ) ;
#136 =( GEOMETRIC_REPRESENTATION_CONTEXT ( 3 ) GLOBAL_UNCERTAINTY_ASSIGNED_CONTEXT ( ( #248 ) ) GLOBAL_UNIT_ASSIGNED_CONTEXT ( ( #253, #25, #335 ) ) REPRESENTATION_CONTEXT ( 'NONE', 'WORKASPACE' ) );
#137 = PRODUCT_RELATED_PRODUCT_CATEGORY ( 'part', '', ( #151 ) ) ;
#138 = VERTEX_POINT ( 'NONE', #243 ) ;
#139 = ORIENTED_EDGE ( 'NONE', *, *, #53, .F. ) ;
#140 = DIRECTION ( 'NONE',  ( 0.000000000000000000, -0.000000000000000000, 1.000000000000000000 ) ) ;
#141 = CARTESIAN_POINT ( 'NONE',  ( 40.00000000000000000, 20.00000000000000000, -10.00000000000001421 ) ) ;
#142 = APPLICATION_CONTEXT ( 'automotive_design' ) ;
#143 = EDGE_CURVE ( 'NONE', #286, #158, #72, .T. ) ;
#144 = VECTOR ( 'NONE', #164, 1000.000000000000000 ) ;
#145 = EDGE_LOOP ( 'NONE', ( #285, #108, #193, #211 ) ) ;
#146 = DIRECTION ( 'NONE',  ( 1.000000000000000000, 0.000000000000000000, -1.734723475976807094E-16 ) ) ;
#147 = ORIENTED_EDGE ( 'NONE', *, *, #202, .F. ) ;
#148 = CARTESIAN_POINT ( 'NONE',  ( -40.00000000000000000, 20.00000000000000000, 0.000000000000000000 ) ) ;
#149 = ORIENTED_EDGE ( 'NONE', *, *, #274, .T. ) ;
#150 = CARTESIAN_POINT ( 'NONE',  ( 40.00000000000000000, 0.000000000000000000, 9.999999999999985789 ) ) ;
#151 = PRODUCT ( 'GripperSpacer 1 V2', 'GripperSpacer 1 V2', '', ( #233 ) ) ;
#152 = VECTOR ( 'NONE', #146, 1000.000000000000000 ) ;
#153 = CARTESIAN_POINT ( 'NONE',  ( -40.00000000000000000, 0.000000000000000000, -10.00000000000000000 ) ) ;
#154 = EDGE_CURVE ( 'NONE', #327, #16, #59, .T. ) ;
#155 = VECTOR ( 'NONE', #261, 1000.000000000000000 ) ;
#156 = VERTEX_POINT ( 'NONE', #141 ) ;
#157 = AXIS2_PLACEMENT_3D ( 'NONE', #102, #225, #203 ) ;
#158 = VERTEX_POINT ( 'NONE', #119 ) ;
#159 = CARTESIAN_POINT ( 'NONE',  ( -40.00000000000000000, 20.00000000000000000, 10.00000000000000000 ) ) ;
#160 = ORIENTED_EDGE ( 'NONE', *, *, #303, .T. ) ;
#161 = CYLINDRICAL_SURFACE ( 'NONE', #15, 1.699999999999999512 ) ;
#162 = ADVANCED_FACE ( 'NONE', ( #275, #46, #115 ), #246, .T. ) ;
#163 = ORIENTED_EDGE ( 'NONE', *, *, #268, .T. ) ;
#164 = DIRECTION ( 'NONE',  ( -0.000000000000000000, -1.000000000000000000, -0.000000000000000000 ) ) ;
#165 = CIRCLE ( 'NONE', #93, 10.00000000000000000 ) ;
#166 = DIRECTION ( 'NONE',  ( 0.000000000000000000, 0.000000000000000000, 1.000000000000000000 ) ) ;
#167 = LINE ( 'NONE', #117, #99 ) ;
#168 = EDGE_LOOP ( 'NONE', ( #267, #321, #262, #163 ) ) ;
#169 = FILL_AREA_STYLE ('',( #71 ) ) ;
#170 = CIRCLE ( 'NONE', #232, 1.699999999999999512 ) ;
#171 = DIRECTION ( 'NONE',  ( 0.000000000000000000, 1.000000000000000000, 0.000000000000000000 ) ) ;
#172 = DIRECTION ( 'NONE',  ( 0.000000000000000000, 1.000000000000000000, 0.000000000000000000 ) ) ;
#173 = EDGE_CURVE ( 'NONE', #218, #84, #21, .T. ) ;
#174 = CARTESIAN_POINT ( 'NONE',  ( -40.00000000000000000, 20.00000000000000000, 10.00000000000000000 ) ) ;
#175 = VECTOR ( 'NONE', #176, 1000.000000000000000 ) ;
#176 = DIRECTION ( 'NONE',  ( 1.000000000000000000, 0.000000000000000000, -1.734723475976807094E-16 ) ) ;
#177 = CARTESIAN_POINT ( 'NONE',  ( -40.00000000000000000, 20.00000000000000000, 1.699999999999999512 ) ) ;
#178 = EDGE_CURVE ( 'NONE', #130, #313, #50, .T. ) ;
#179 = CARTESIAN_POINT ( 'NONE',  ( -40.00000000000000000, 20.00000000000000000, 0.000000000000000000 ) ) ;
#180 = EDGE_LOOP ( 'NONE', ( #134, #9 ) ) ;
#181 = ORIENTED_EDGE ( 'NONE', *, *, #118, .F. ) ;
#182 = CYLINDRICAL_SURFACE ( 'NONE', #300, 10.00000000000000000 ) ;
#183 = AXIS2_PLACEMENT_3D ( 'NONE', #76, #329, #331 ) ;
#184 = ORIENTED_EDGE ( 'NONE', *, *, #69, .T. ) ;
#185 = LINE ( 'NONE', #263, #67 ) ;
#186 = ORIENTED_EDGE ( 'NONE', *, *, #236, .T. ) ;
#187 = EDGE_LOOP ( 'NONE', ( #149, #90, #2, #238 ) ) ;
#188 = DIRECTION ( 'NONE',  ( -0.000000000000000000, -1.000000000000000000, -0.000000000000000000 ) ) ;
#189 = ORIENTED_EDGE ( 'NONE', *, *, #154, .T. ) ;
#190 = VECTOR ( 'NONE', #36, 1000.000000000000000 ) ;
#191 = EDGE_CURVE ( 'NONE', #16, #327, #170, .T. ) ;
#192 = CARTESIAN_POINT ( 'NONE',  ( 40.00000000000000000, 20.00000000000000000, 1.699999999999984635 ) ) ;
#193 = ORIENTED_EDGE ( 'NONE', *, *, #143, .F. ) ;
#194 = CARTESIAN_POINT ( 'NONE',  ( 40.00000000000000000, 20.00000000000000000, -1.700000000000014166 ) ) ;
#195 = UNCERTAINTY_MEASURE_WITH_UNIT (LENGTH_MEASURE( 1.000000000000000082E-05 ), #230, 'distance_accuracy_value', 'NONE');
#196 = ORIENTED_EDGE ( 'NONE', *, *, #14, .F. ) ;
#197 = CARTESIAN_POINT ( 'NONE',  ( -40.00000000000000000, 0.000000000000000000, -1.699999999999999512 ) ) ;
#198 = AXIS2_PLACEMENT_3D ( 'NONE', #110, #297, #20 ) ;
#199 = VECTOR ( 'NONE', #124, 1000.000000000000000 ) ;
#200 = ORIENTED_EDGE ( 'NONE', *, *, #268, .F. ) ;
#201 = CARTESIAN_POINT ( 'NONE',  ( 40.00000000000000000, 0.000000000000000000, -1.700000000000014166 ) ) ;
#202 = EDGE_CURVE ( 'NONE', #292, #218, #330, .T. ) ;
#203 = DIRECTION ( 'NONE',  ( 0.000000000000000000, 0.000000000000000000, 1.000000000000000000 ) ) ;
#204 = CIRCLE ( 'NONE', #157, 1.699999999999999512 ) ;
#205 = FACE_OUTER_BOUND ( 'NONE', #145, .T. ) ;
#206 = DIRECTION ( 'NONE',  ( 0.000000000000000000, 0.000000000000000000, -1.000000000000000000 ) ) ;
#207 = AXIS2_PLACEMENT_3D ( 'NONE', #87, #220, #317 ) ;
#208 = AXIS2_PLACEMENT_3D ( 'NONE', #251, #23, #103 ) ;
#209 =( NAMED_UNIT ( * ) PLANE_ANGLE_UNIT ( ) SI_UNIT ( $, .RADIAN. ) );
#210 = EDGE_LOOP ( 'NONE', ( #114, #200, #213, #184 ) ) ;
#211 = ORIENTED_EDGE ( 'NONE', *, *, #111, .T. ) ;
#212 = FACE_BOUND ( 'NONE', #223, .T. ) ;
#213 = ORIENTED_EDGE ( 'NONE', *, *, #303, .F. ) ;
#214 = CARTESIAN_POINT ( 'NONE',  ( -40.00000000000000000, 0.000000000000000000, 0.000000000000000000 ) ) ;
#215 = ORIENTED_EDGE ( 'NONE', *, *, #320, .T. ) ;
#216 = ORIENTED_EDGE ( 'NONE', *, *, #231, .T. ) ;
#217 = DIRECTION ( 'NONE',  ( 1.000000000000000000, 0.000000000000000000, 0.000000000000000000 ) ) ;
#218 = VERTEX_POINT ( 'NONE', #19 ) ;
#219 = FACE_OUTER_BOUND ( 'NONE', #127, .T. ) ;
#220 = DIRECTION ( 'NONE',  ( 0.000000000000000000, 1.000000000000000000, 0.000000000000000000 ) ) ;
#221 = DIRECTION ( 'NONE',  ( 0.000000000000000000, 1.000000000000000000, 0.000000000000000000 ) ) ;
#222 = DIRECTION ( 'NONE',  ( 0.000000000000000000, 1.000000000000000000, 0.000000000000000000 ) ) ;
#223 = EDGE_LOOP ( 'NONE', ( #4, #288 ) ) ;
#224 = FACE_OUTER_BOUND ( 'NONE', #240, .T. ) ;
#225 = DIRECTION ( 'NONE',  ( 0.000000000000000000, 1.000000000000000000, 0.000000000000000000 ) ) ;
#226 = SURFACE_STYLE_FILL_AREA ( #169 ) ;
#227 = SURFACE_SIDE_STYLE ('',( #226 ) ) ;
#228 = AXIS2_PLACEMENT_3D ( 'NONE', #244, #122, #140 ) ;
#229 = DIRECTION ( 'NONE',  ( 0.000000000000000000, 1.000000000000000000, 0.000000000000000000 ) ) ;
#230 =( LENGTH_UNIT ( ) NAMED_UNIT ( * ) SI_UNIT ( .MILLI., .METRE. ) );
#231 = EDGE_CURVE ( 'NONE', #89, #156, #104, .T. ) ;
#232 = AXIS2_PLACEMENT_3D ( 'NONE', #148, #221, #247 ) ;
#233 = PRODUCT_CONTEXT ( 'NONE', #142, 'mechanical' ) ;
#234 = VERTEX_POINT ( 'NONE', #269 ) ;
#235 = ORIENTED_EDGE ( 'NONE', *, *, #75, .F. ) ;
#236 = EDGE_CURVE ( 'NONE', #156, #35, #324, .T. ) ;
#237 = DIRECTION ( 'NONE',  ( 0.000000000000000000, 0.000000000000000000, 1.000000000000000000 ) ) ;
#238 = ORIENTED_EDGE ( 'NONE', *, *, #129, .F. ) ;
#239 = CARTESIAN_POINT ( 'NONE',  ( -40.00000000000000000, 20.00000000000000000, -1.699999999999999512 ) ) ;
#240 = EDGE_LOOP ( 'NONE', ( #215, #63, #196, #186 ) ) ;
#241 = DIRECTION ( 'NONE',  ( 0.000000000000000000, 1.000000000000000000, 0.000000000000000000 ) ) ;
#242 = MANIFOLD_SOLID_BREP ( 'Boss-Extrude1', #304 ) ;
#243 = CARTESIAN_POINT ( 'NONE',  ( 40.00000000000000000, 20.00000000000000000, -1.700000000000014166 ) ) ;
#244 = CARTESIAN_POINT ( 'NONE',  ( -40.00000000000000000, 20.00000000000000000, 0.000000000000000000 ) ) ;
#245 = AXIS2_PLACEMENT_3D ( 'NONE', #333, #49, #47 ) ;
#246 = PLANE ( 'NONE',  #228 ) ;
#247 = DIRECTION ( 'NONE',  ( 0.000000000000000000, 0.000000000000000000, 1.000000000000000000 ) ) ;
#248 = UNCERTAINTY_MEASURE_WITH_UNIT (LENGTH_MEASURE( 1.000000000000000082E-05 ), #253, 'distance_accuracy_value', 'NONE');
#249 = CARTESIAN_POINT ( 'NONE',  ( -40.00000000000000000, 20.00000000000000000, 0.000000000000000000 ) ) ;
#250 = AXIS2_PLACEMENT_3D ( 'NONE', #312, #188, #34 ) ;
#251 = CARTESIAN_POINT ( 'NONE',  ( -40.00000000000000000, 20.00000000000000000, 10.00000000000000000 ) ) ;
#252 = FACE_OUTER_BOUND ( 'NONE', #260, .T. ) ;
#253 =( LENGTH_UNIT ( ) NAMED_UNIT ( * ) SI_UNIT ( .MILLI., .METRE. ) );
#254 = DIRECTION ( 'NONE',  ( -0.000000000000000000, -1.000000000000000000, -0.000000000000000000 ) ) ;
#255 = ADVANCED_FACE ( 'NONE', ( #205 ), #70, .T. ) ;
#256 = CARTESIAN_POINT ( 'NONE',  ( -40.00000000000000000, 20.00000000000000000, -10.00000000000000000 ) ) ;
#257 = PRODUCT_DEFINITION_CONTEXT ( 'detailed design', #11, 'design' ) ;
#258 = ORIENTED_EDGE ( 'NONE', *, *, #14, .T. ) ;
#259 = DIRECTION ( 'NONE',  ( 0.000000000000000000, 0.000000000000000000, 1.000000000000000000 ) ) ;
#260 = EDGE_LOOP ( 'NONE', ( #109, #316, #139, #65 ) ) ;
#261 = DIRECTION ( 'NONE',  ( -0.000000000000000000, -1.000000000000000000, -0.000000000000000000 ) ) ;
#262 = ORIENTED_EDGE ( 'NONE', *, *, #231, .F. ) ;
#263 = CARTESIAN_POINT ( 'NONE',  ( -40.00000000000000000, 20.00000000000000000, 1.699999999999999512 ) ) ;
#264 = ORIENTED_EDGE ( 'NONE', *, *, #98, .F. ) ;
#265 = AXIS2_PLACEMENT_3D ( 'NONE', #306, #229, #284 ) ;
#266 = ORIENTED_EDGE ( 'NONE', *, *, #129, .T. ) ;
#267 = ORIENTED_EDGE ( 'NONE', *, *, #307, .T. ) ;
#268 = EDGE_CURVE ( 'NONE', #89, #84, #79, .T. ) ;
#269 = CARTESIAN_POINT ( 'NONE',  ( 40.00000000000000000, 20.00000000000000000, 1.699999999999984635 ) ) ;
#270 = DIRECTION ( 'NONE',  ( -0.000000000000000000, -1.000000000000000000, -0.000000000000000000 ) ) ;
#271 = ORIENTED_EDGE ( 'NONE', *, *, #307, .F. ) ;
#272 = DIRECTION ( 'NONE',  ( 0.000000000000000000, 1.000000000000000000, 0.000000000000000000 ) ) ;
#273 = COLOUR_RGB ( '',0.7921568627450980005, 0.8196078431372548767, 0.9333333333333333481 ) ;
#274 = EDGE_CURVE ( 'NONE', #138, #234, #1, .T. ) ;
#275 = FACE_BOUND ( 'NONE', #83, .T. ) ;
#276 = DIRECTION ( 'NONE',  ( 0.000000000000000000, 0.000000000000000000, 1.000000000000000000 ) ) ;
#277 = CARTESIAN_POINT ( 'NONE',  ( -40.00000000000000000, 0.000000000000000000, -10.00000000000000000 ) ) ;
#278 = AXIS2_PLACEMENT_3D ( 'NONE', #299, #171, #276 ) ;
#279 = CARTESIAN_POINT ( 'NONE',  ( 40.00000000000000000, 0.000000000000000000, 1.699999999999984635 ) ) ;
#280 = CYLINDRICAL_SURFACE ( 'NONE', #315, 1.699999999999999512 ) ;
#281 = DIRECTION ( 'NONE',  ( -0.000000000000000000, -1.000000000000000000, -0.000000000000000000 ) ) ;
#282 = VECTOR ( 'NONE', #281, 1000.000000000000000 ) ;
#283 = AXIS2_PLACEMENT_3D ( 'NONE', #74, #272, #166 ) ;
#284 = DIRECTION ( 'NONE',  ( 0.000000000000000000, 0.000000000000000000, 1.000000000000000000 ) ) ;
#285 = ORIENTED_EDGE ( 'NONE', *, *, #202, .T. ) ;
#286 = VERTEX_POINT ( 'NONE', #256 ) ;
#287 = LINE ( 'NONE', #159, #155 ) ;
#288 = ORIENTED_EDGE ( 'NONE', *, *, #118, .T. ) ;
#289 = CARTESIAN_POINT ( 'NONE',  ( -40.00000000000000000, 0.000000000000000000, 1.699999999999999512 ) ) ;
#290 = ORIENTED_EDGE ( 'NONE', *, *, #173, .F. ) ;
#291 = FACE_BOUND ( 'NONE', #309, .T. ) ;
#292 = VERTEX_POINT ( 'NONE', #277 ) ;
#293 = FACE_OUTER_BOUND ( 'NONE', #29, .T. ) ;
#294 = CIRCLE ( 'NONE', #207, 1.699999999999999512 ) ;
#295 = CARTESIAN_POINT ( 'NONE',  ( -40.00000000000000000, 20.00000000000000000, -10.00000000000000000 ) ) ;
#296 = CARTESIAN_POINT ( 'NONE',  ( 40.00000000000000000, 20.00000000000000000, -10.00000000000001421 ) ) ;
#297 = DIRECTION ( 'NONE',  ( 0.000000000000000000, 1.000000000000000000, 0.000000000000000000 ) ) ;
#298 = ADVANCED_FACE ( 'NONE', ( #252 ), #77, .F. ) ;
#299 = CARTESIAN_POINT ( 'NONE',  ( -40.00000000000000000, 20.00000000000000000, 0.000000000000000000 ) ) ;
#300 = AXIS2_PLACEMENT_3D ( 'NONE', #30, #128, #85 ) ;
#301 = LINE ( 'NONE', #194, #45 ) ;
#302 = DIRECTION ( 'NONE',  ( 0.000000000000000000, 0.000000000000000000, 1.000000000000000000 ) ) ;
#303 = EDGE_CURVE ( 'NONE', #158, #89, #27, .T. ) ;
#304 = CLOSED_SHELL ( 'NONE', ( #310, #298, #162, #37, #255, #337, #62, #78, #43, #48 ) ) ;
#305 = DIRECTION ( 'NONE',  ( 0.000000000000000000, 1.000000000000000000, 0.000000000000000000 ) ) ;
#306 = CARTESIAN_POINT ( 'NONE',  ( 40.00000000000000000, 20.00000000000000000, -1.469576158976823671E-14 ) ) ;
#307 = EDGE_CURVE ( 'NONE', #84, #35, #165, .T. ) ;
#308 = DIRECTION ( 'NONE',  ( 0.000000000000000000, 0.000000000000000000, 1.000000000000000000 ) ) ;
#309 = EDGE_LOOP ( 'NONE', ( #60, #58 ) ) ;
#310 = ADVANCED_FACE ( 'NONE', ( #125 ), #280, .F. ) ;
#311 = ORIENTED_EDGE ( 'NONE', *, *, #154, .F. ) ;
#312 = CARTESIAN_POINT ( 'NONE',  ( -40.00000000000000000, 20.00000000000000000, 0.000000000000000000 ) ) ;
#313 = VERTEX_POINT ( 'NONE', #279 ) ;
#314 = STYLED_ITEM ( 'NONE', ( #105 ), #242 ) ;
#315 = AXIS2_PLACEMENT_3D ( 'NONE', #80, #254, #339 ) ;
#316 = ORIENTED_EDGE ( 'NONE', *, *, #75, .T. ) ;
#317 = DIRECTION ( 'NONE',  ( 0.000000000000000000, 0.000000000000000000, 1.000000000000000000 ) ) ;
#318 = ORIENTED_EDGE ( 'NONE', *, *, #94, .F. ) ;
#319 = CYLINDRICAL_SURFACE ( 'NONE', #250, 1.699999999999999512 ) ;
#320 = EDGE_CURVE ( 'NONE', #35, #292, #51, .T. ) ;
#321 = ORIENTED_EDGE ( 'NONE', *, *, #236, .F. ) ;
#322 = DIRECTION ( 'NONE',  ( 0.000000000000000000, 1.000000000000000000, 0.000000000000000000 ) ) ;
#323 = CIRCLE ( 'NONE', #31, 1.699999999999999512 ) ;
#324 = LINE ( 'NONE', #296, #88 ) ;
#325 = ADVANCED_BREP_SHAPE_REPRESENTATION ( 'GripperSpacer 1 V2', ( #242, #332 ), #136 ) ;
#326 = PRODUCT_DEFINITION ( 'UNKNOWN', '', #73, #257 ) ;
#327 = VERTEX_POINT ( 'NONE', #177 ) ;
#328 = DIRECTION ( 'NONE',  ( -0.000000000000000000, -1.000000000000000000, -0.000000000000000000 ) ) ;
#329 = DIRECTION ( 'NONE',  ( 1.734723475976807094E-16, -0.000000000000000000, 1.000000000000000000 ) ) ;
#330 = CIRCLE ( 'NONE', #135, 10.00000000000000000 ) ;
#331 = DIRECTION ( 'NONE',  ( 1.000000000000000000, 0.000000000000000000, -1.734723475976807094E-16 ) ) ;
#332 = AXIS2_PLACEMENT_3D ( 'NONE', #112, #237, #217 ) ;
#333 = CARTESIAN_POINT ( 'NONE',  ( 40.00000000000000000, 0.000000000000000000, -1.469576158976823671E-14 ) ) ;
#334 = CARTESIAN_POINT ( 'NONE',  ( 40.00000000000000000, 0.000000000000000000, -1.469576158976823671E-14 ) ) ;
#335 =( NAMED_UNIT ( * ) SI_UNIT ( $, .STERADIAN. ) SOLID_ANGLE_UNIT ( ) );
#336 = AXIS2_PLACEMENT_3D ( 'NONE', #113, #322, #3 ) ;
#337 = ADVANCED_FACE ( 'NONE', ( #338 ), #22, .F. ) ;
#338 = FACE_OUTER_BOUND ( 'NONE', #210, .T. ) ;
#339 = DIRECTION ( 'NONE',  ( 0.000000000000000000, 0.000000000000000000, -1.000000000000000000 ) ) ;
ENDSEC;
END-ISO-10303-21;
