ISO-10303-21;
HEADER;
FILE_DESCRIPTION (( 'STEP AP214' ),
    '1' );
FILE_NAME ('GripperArm V2.step',
    '2026-08-28T16:10:35',
    ( '' ),
    ( '' ),
    'SwSTEP 2.0',
    'SolidWorks 2024',
    '' );
FILE_SCHEMA (( 'AUTOMOTIVE_DESIGN' ));
ENDSEC;

DATA;
#1 = ORIENTED_EDGE ( 'NONE', *, *, #863, .T. ) ;
#2 = VERTEX_POINT ( 'NONE', #1217 ) ;
#3 = CARTESIAN_POINT ( 'NONE',  ( 30.00000000000000000, 10.00000000000000000, -10.00000000000000000 ) ) ;
#4 = DIRECTION ( 'NONE',  ( 0.000000000000000000, -1.000000000000000000, 0.000000000000000000 ) ) ;
#5 = EDGE_CURVE ( 'NONE', #103, #926, #911, .T. ) ;
#6 =( LENGTH_UNIT ( ) NAMED_UNIT ( * ) SI_UNIT ( .MILLI., .METRE. ) );
#7 = PRODUCT_CONTEXT ( 'NONE', #1011, 'mechanical' ) ;
#8 = ORIENTED_EDGE ( 'NONE', *, *, #1245, .F. ) ;
#9 = VECTOR ( 'NONE', #542, 1000.000000000000000 ) ;
#10 = VERTEX_POINT ( 'NONE', #27 ) ;
#11 = AXIS2_PLACEMENT_3D ( 'NONE', #691, #1115, #121 ) ;
#12 = VECTOR ( 'NONE', #143, 1000.000000000000114 ) ;
#13 = EDGE_LOOP ( 'NONE', ( #23, #472, #261, #465 ) ) ;
#14 = DIRECTION ( 'NONE',  ( -0.000000000000000000, 1.000000000000000000, -0.000000000000000000 ) ) ;
#15 = CIRCLE ( 'NONE', #720, 1.600000000000004086 ) ;
#16 = CARTESIAN_POINT ( 'NONE',  ( 29.64466094067206114, 0.000000000000000000, -139.9999999999999716 ) ) ;
#17 = EDGE_LOOP ( 'NONE', ( #1308, #1166, #280, #170, #18, #480, #1179, #1379, #1314, #522 ) ) ;
#18 = ORIENTED_EDGE ( 'NONE', *, *, #150, .T. ) ;
#19 = CARTESIAN_POINT ( 'NONE',  ( 85.00000000000001421, 0.000000000000000000, -245.0000000000005400 ) ) ;
#20 = LINE ( 'NONE', #368, #1269 ) ;
#21 = ORIENTED_EDGE ( 'NONE', *, *, #989, .F. ) ;
#22 = EDGE_CURVE ( 'NONE', #132, #324, #462, .T. ) ;
#23 = ORIENTED_EDGE ( 'NONE', *, *, #391, .F. ) ;
#24 = ORIENTED_EDGE ( 'NONE', *, *, #1001, .T. ) ;
#25 = DIRECTION ( 'NONE',  ( 0.000000000000000000, 1.000000000000000000, 0.000000000000000000 ) ) ;
#26 = DIRECTION ( 'NONE',  ( 0.000000000000000000, 1.000000000000000000, 0.000000000000000000 ) ) ;
#27 = CARTESIAN_POINT ( 'NONE',  ( 69.99999999999998579, 0.000000000000000000, -242.6007839443163334 ) ) ;
#28 = CARTESIAN_POINT ( 'NONE',  ( 20.00000000000000000, 10.00000000000000000, -139.9999999999999716 ) ) ;
#29 = EDGE_CURVE ( 'NONE', #447, #736, #194, .T. ) ;
#30 = ORIENTED_EDGE ( 'NONE', *, *, #1229, .T. ) ;
#31 = CARTESIAN_POINT ( 'NONE',  ( 10.00000000000000000, 0.000000000000000000, -111.6000000000000085 ) ) ;
#32 = CIRCLE ( 'NONE', #1117, 10.00000000000000888 ) ;
#33 = DIRECTION ( 'NONE',  ( 0.000000000000000000, 0.000000000000000000, -1.000000000000000000 ) ) ;
#34 = AXIS2_PLACEMENT_3D ( 'NONE', #769, #164, #259 ) ;
#35 = ORIENTED_EDGE ( 'NONE', *, *, #677, .F. ) ;
#36 = DIRECTION ( 'NONE',  ( 1.000000000000000000, -0.000000000000000000, 0.000000000000000000 ) ) ;
#37 = ORIENTED_EDGE ( 'NONE', *, *, #1148, .F. ) ;
#38 = EDGE_CURVE ( 'NONE', #1087, #997, #251, .T. ) ;
#39 = ORIENTED_EDGE ( 'NONE', *, *, #323, .T. ) ;
#40 = ORIENTED_EDGE ( 'NONE', *, *, #1170, .T. ) ;
#41 = DIRECTION ( 'NONE',  ( 0.000000000000000000, 0.000000000000000000, 1.000000000000000000 ) ) ;
#42 = ADVANCED_FACE ( 'NONE', ( #1018 ), #147, .F. ) ;
#43 = DIRECTION ( 'NONE',  ( 0.000000000000000000, 1.000000000000000000, 0.000000000000000000 ) ) ;
#44 = PRODUCT_DEFINITION_CONTEXT ( 'detailed design', #142, 'design' ) ;
#45 = ORIENTED_EDGE ( 'NONE', *, *, #1347, .T. ) ;
#46 = FACE_OUTER_BOUND ( 'NONE', #163, .T. ) ;
#47 = ORIENTED_EDGE ( 'NONE', *, *, #888, .F. ) ;
#48 = DIRECTION ( 'NONE',  ( 0.000000000000000000, -1.000000000000000000, 0.000000000000000000 ) ) ;
#49 = DIRECTION ( 'NONE',  ( -0.000000000000000000, 1.000000000000000000, -0.000000000000000000 ) ) ;
#50 = EDGE_CURVE ( 'NONE', #1302, #883, #405, .T. ) ;
#51 = ORIENTED_EDGE ( 'NONE', *, *, #592, .T. ) ;
#52 = DIRECTION ( 'NONE',  ( 0.000000000000000000, 0.000000000000000000, -1.000000000000000000 ) ) ;
#53 = ORIENTED_EDGE ( 'NONE', *, *, #634, .F. ) ;
#54 = LINE ( 'NONE', #508, #57 ) ;
#55 = DIRECTION ( 'NONE',  ( 0.000000000000000000, 1.000000000000000000, 0.000000000000000000 ) ) ;
#56 = CIRCLE ( 'NONE', #854, 10.00000000000000888 ) ;
#57 = VECTOR ( 'NONE', #1328, 1000.000000000000000 ) ;
#58 = CARTESIAN_POINT ( 'NONE',  ( 30.00000000000000000, 10.00000000000000000, -108.3999999999999915 ) ) ;
#59 = CARTESIAN_POINT ( 'NONE',  ( 0.000000000000000000, 10.00000000000000000, -10.00000000000000000 ) ) ;
#60 = AXIS2_PLACEMENT_3D ( 'NONE', #1047, #413, #844 ) ;
#61 = VERTEX_POINT ( 'NONE', #603 ) ;
#62 = DIRECTION ( 'NONE',  ( 0.000000000000000000, 0.000000000000000000, 1.000000000000000000 ) ) ;
#63 = FACE_OUTER_BOUND ( 'NONE', #1193, .T. ) ;
#64 = DIRECTION ( 'NONE',  ( 0.3826834323650905589, 0.000000000000000000, -0.9238795325112864054 ) ) ;
#65 = CARTESIAN_POINT ( 'NONE',  ( 30.00000000000000000, 0.000000000000000000, -10.00000000000000000 ) ) ;
#66 = ADVANCED_FACE ( 'NONE', ( #1152 ), #623, .F. ) ;
#67 = EDGE_LOOP ( 'NONE', ( #529, #146, #35, #432 ) ) ;
#68 = DIRECTION ( 'NONE',  ( 1.000000000000000000, 0.000000000000000000, 0.000000000000000000 ) ) ;
#69 = CARTESIAN_POINT ( 'NONE',  ( 10.00000000000000000, 0.000000000000000000, -10.00000000000000000 ) ) ;
#70 = FACE_OUTER_BOUND ( 'NONE', #1067, .T. ) ;
#71 = DIRECTION ( 'NONE',  ( -0.000000000000000000, 1.000000000000000000, -0.000000000000000000 ) ) ;
#72 = EDGE_CURVE ( 'NONE', #2, #377, #330, .T. ) ;
#73 = VERTEX_POINT ( 'NONE', #383 ) ;
#74 = CARTESIAN_POINT ( 'NONE',  ( 80.00000000000001421, 0.000000000000000000, -174.1421356237314910 ) ) ;
#75 = CARTESIAN_POINT ( 'NONE',  ( 85.00000000000001421, 10.00000000000000000, -245.0000000000005400 ) ) ;
#76 = AXIS2_PLACEMENT_3D ( 'NONE', #455, #26, #249 ) ;
#77 = DIRECTION ( 'NONE',  ( 0.000000000000000000, -1.000000000000000000, 0.000000000000000000 ) ) ;
#78 = CIRCLE ( 'NONE', #1360, 5.000000000000004441 ) ;
#79 = AXIS2_PLACEMENT_3D ( 'NONE', #3, #1131, #52 ) ;
#80 = ADVANCED_FACE ( 'NONE', ( #1045 ), #940, .F. ) ;
#81 = AXIS2_PLACEMENT_3D ( 'NONE', #1105, #273, #384 ) ;
#82 = ORIENTED_EDGE ( 'NONE', *, *, #733, .F. ) ;
#83 = FACE_BOUND ( 'NONE', #544, .T. ) ;
#84 = CARTESIAN_POINT ( 'NONE',  ( 20.00000000000000000, 0.000000000000000000, -145.0000000000000000 ) ) ;
#85 = EDGE_CURVE ( 'NONE', #269, #1285, #611, .T. ) ;
#86 = PLANE ( 'NONE',  #1315 ) ;
#87 = PLANE ( 'NONE',  #242 ) ;
#88 = VERTEX_POINT ( 'NONE', #278 ) ;
#89 = FACE_OUTER_BOUND ( 'NONE', #932, .T. ) ;
#90 = LINE ( 'NONE', #541, #717 ) ;
#91 = ADVANCED_FACE ( 'NONE', ( #70 ), #950, .T. ) ;
#92 = DIRECTION ( 'NONE',  ( -0.3826834323650905589, -0.000000000000000000, 0.9238795325112864054 ) ) ;
#93 = ORIENTED_EDGE ( 'NONE', *, *, #207, .F. ) ;
#94 = VERTEX_POINT ( 'NONE', #1339 ) ;
#95 = CARTESIAN_POINT ( 'NONE',  ( 85.00000000000001421, 0.000000000000000000, -181.6000000000005343 ) ) ;
#96 = DIRECTION ( 'NONE',  ( -0.000000000000000000, 1.000000000000000000, -0.000000000000000000 ) ) ;
#97 = EDGE_CURVE ( 'NONE', #852, #1230, #722, .T. ) ;
#98 = DIRECTION ( 'NONE',  ( 0.000000000000000000, 0.000000000000000000, -1.000000000000000000 ) ) ;
#99 = AXIS2_PLACEMENT_3D ( 'NONE', #188, #294, #1146 ) ;
#100 = ORIENTED_EDGE ( 'NONE', *, *, #501, .T. ) ;
#101 = EDGE_CURVE ( 'NONE', #982, #893, #732, .T. ) ;
#102 = CIRCLE ( 'NONE', #424, 10.00000000000000000 ) ;
#103 = VERTEX_POINT ( 'NONE', #168 ) ;
#104 = CIRCLE ( 'NONE', #1296, 10.00000000000000000 ) ;
#105 = CYLINDRICAL_SURFACE ( 'NONE', #698, 1.599999999999990319 ) ;
#106 = VECTOR ( 'NONE', #629, 1000.000000000000000 ) ;
#107 = DIRECTION ( 'NONE',  ( -9.251858538542971581E-17, -0.000000000000000000, -1.000000000000000000 ) ) ;
#108 = CARTESIAN_POINT ( 'NONE',  ( 0.000000000000000000, 10.00000000000000000, -149.0159269600877110 ) ) ;
#109 = APPLICATION_PROTOCOL_DEFINITION ( 'draft international standard', 'automotive_design', 1998, #142 ) ;
#110 = ORIENTED_EDGE ( 'NONE', *, *, #1290, .T. ) ;
#111 = EDGE_CURVE ( 'NONE', #507, #61, #306, .T. ) ;
#112 = ORIENTED_EDGE ( 'NONE', *, *, #613, .T. ) ;
#113 = DIRECTION ( 'NONE',  ( -0.000000000000000000, 1.000000000000000000, -0.000000000000000000 ) ) ;
#114 = FACE_OUTER_BOUND ( 'NONE', #759, .T. ) ;
#115 = LINE ( 'NONE', #635, #1076 ) ;
#116 = DIRECTION ( 'NONE',  ( 0.000000000000000000, 0.000000000000000000, 1.000000000000000000 ) ) ;
#117 = VERTEX_POINT ( 'NONE', #1346 ) ;
#118 = VERTEX_POINT ( 'NONE', #1130 ) ;
#119 = EDGE_LOOP ( 'NONE', ( #659, #937, #1082, #233 ) ) ;
#120 = CARTESIAN_POINT ( 'NONE',  ( 42.92893218813448897, 0.000000000000000000, -122.9289321881345103 ) ) ;
#121 = DIRECTION ( 'NONE',  ( 0.000000000000000000, 0.000000000000000000, 1.000000000000000000 ) ) ;
#122 = ORIENTED_EDGE ( 'NONE', *, *, #1341, .T. ) ;
#123 = VECTOR ( 'NONE', #1255, 1000.000000000000000 ) ;
#124 = ORIENTED_EDGE ( 'NONE', *, *, #1216, .T. ) ;
#125 = EDGE_CURVE ( 'NONE', #94, #882, #874, .T. ) ;
#126 = AXIS2_PLACEMENT_3D ( 'NONE', #1059, #421, #1169 ) ;
#127 = DIRECTION ( 'NONE',  ( 0.000000000000000000, -1.000000000000000000, 0.000000000000000000 ) ) ;
#128 = VECTOR ( 'NONE', #924, 1000.000000000000000 ) ;
#129 = FACE_OUTER_BOUND ( 'NONE', #977, .T. ) ;
#130 = ADVANCED_FACE ( 'NONE', ( #836, #1039, #935, #1157, #628, #1246, #1356, #272, #1351 ), #1030, .T. ) ;
#131 = ORIENTED_EDGE ( 'NONE', *, *, #111, .F. ) ;
#132 = VERTEX_POINT ( 'NONE', #829 ) ;
#133 = EDGE_LOOP ( 'NONE', ( #919, #745, #290, #1291, #681, #1074, #246, #1257, #808, #678 ) ) ;
#134 = ORIENTED_EDGE ( 'NONE', *, *, #660, .T. ) ;
#135 = FACE_OUTER_BOUND ( 'NONE', #561, .T. ) ;
#136 = CARTESIAN_POINT ( 'NONE',  ( 87.07106781186553235, 0.000000000000000000, -167.0710678118660724 ) ) ;
#137 = ADVANCED_FACE ( 'NONE', ( #514 ), #86, .T. ) ;
#138 = VERTEX_POINT ( 'NONE', #58 ) ;
#139 = ORIENTED_EDGE ( 'NONE', *, *, #733, .T. ) ;
#140 = LINE ( 'NONE', #591, #289 ) ;
#141 = ORIENTED_EDGE ( 'NONE', *, *, #276, .F. ) ;
#142 = APPLICATION_CONTEXT ( 'automotive_design' ) ;
#143 = DIRECTION ( 'NONE',  ( -0.3826834323650905589, -0.000000000000000000, 0.9238795325112864054 ) ) ;
#144 = CARTESIAN_POINT ( 'NONE',  ( 10.00000000000000000, 0.000000000000000000, -10.00000000000000000 ) ) ;
#145 = EDGE_CURVE ( 'NONE', #103, #883, #755, .T. ) ;
#146 = ORIENTED_EDGE ( 'NONE', *, *, #1240, .T. ) ;
#147 = PLANE ( 'NONE',  #557 ) ;
#148 = LINE ( 'NONE', #473, #1014 ) ;
#149 = EDGE_LOOP ( 'NONE', ( #392, #944, #597, #528 ) ) ;
#150 = EDGE_CURVE ( 'NONE', #1081, #569, #329, .T. ) ;
#151 = ORIENTED_EDGE ( 'NONE', *, *, #175, .F. ) ;
#152 = DIRECTION ( 'NONE',  ( -0.000000000000000000, 1.000000000000000000, -0.000000000000000000 ) ) ;
#153 = AXIS2_PLACEMENT_3D ( 'NONE', #939, #596, #490 ) ;
#154 = DIRECTION ( 'NONE',  ( -1.000000000000000000, 0.000000000000000000, -0.000000000000000000 ) ) ;
#155 = CIRCLE ( 'NONE', #1382, 5.000000000000004441 ) ;
#156 = CIRCLE ( 'NONE', #81, 1.600000000000004086 ) ;
#157 = EDGE_LOOP ( 'NONE', ( #661, #1120, #1279, #1278 ) ) ;
#158 = CYLINDRICAL_SURFACE ( 'NONE', #1342, 1.599999999999990319 ) ;
#159 = ADVANCED_FACE ( 'NONE', ( #1300 ), #526, .F. ) ;
#160 = ORIENTED_EDGE ( 'NONE', *, *, #1281, .T. ) ;
#161 = DIRECTION ( 'NONE',  ( 0.000000000000000000, 0.000000000000000000, -1.000000000000000000 ) ) ;
#162 = CYLINDRICAL_SURFACE ( 'NONE', #487, 9.999999999999994671 ) ;
#163 = EDGE_LOOP ( 'NONE', ( #419, #1192, #1362, #53 ) ) ;
#164 = DIRECTION ( 'NONE',  ( 0.000000000000000000, 1.000000000000000000, 0.000000000000000000 ) ) ;
#165 = VERTEX_POINT ( 'NONE', #228 ) ;
#166 = CYLINDRICAL_SURFACE ( 'NONE', #380, 10.00000000000000888 ) ;
#167 = FACE_OUTER_BOUND ( 'NONE', #365, .T. ) ;
#168 = CARTESIAN_POINT ( 'NONE',  ( 60.38060233744354832, 0.000000000000000000, -244.5142011061417406 ) ) ;
#169 = LINE ( 'NONE', #1248, #1299 ) ;
#170 = ORIENTED_EDGE ( 'NONE', *, *, #943, .T. ) ;
#171 = CARTESIAN_POINT ( 'NONE',  ( 30.00000000000000000, 0.000000000000000000, -8.400000000000002132 ) ) ;
#172 = CLOSED_SHELL ( 'NONE', ( #402, #595, #630, #66, #949, #80, #648, #1072, #130, #361, #479, #811, #608, #159, #42, #354, #1209, #456, #91, #1369, #137, #1177, #1271, #339, #792, #753, #684, #443, #1101, #799, #996, #802, #1125, #385, #1380, #296, #499, #537, #756, #869 ) ) ;
#173 = CARTESIAN_POINT ( 'NONE',  ( 30.00000000000000000, 0.000000000000000000, -10.00000000000000000 ) ) ;
#174 = AXIS2_PLACEMENT_3D ( 'NONE', #571, #1000, #1345 ) ;
#175 = EDGE_CURVE ( 'NONE', #10, #103, #899, .T. ) ;
#176 = CIRCLE ( 'NONE', #990, 10.00000000000000888 ) ;
#177 = DIRECTION ( 'NONE',  ( 0.000000000000000000, 0.000000000000000000, -1.000000000000000000 ) ) ;
#178 = DIRECTION ( 'NONE',  ( 0.000000000000000000, 0.000000000000000000, -1.000000000000000000 ) ) ;
#179 = ORIENTED_EDGE ( 'NONE', *, *, #1187, .T. ) ;
#180 = CARTESIAN_POINT ( 'NONE',  ( 40.00000000000000711, 0.000000000000000000, -10.00000000000000000 ) ) ;
#181 = CARTESIAN_POINT ( 'NONE',  ( 64.99999999999998579, 0.000000000000000000, -180.3553390593279175 ) ) ;
#182 = DIRECTION ( 'NONE',  ( 0.3826834323650905589, 0.000000000000000000, -0.9238795325112864054 ) ) ;
#183 = FACE_OUTER_BOUND ( 'NONE', #778, .T. ) ;
#184 = EDGE_CURVE ( 'NONE', #1004, #839, #1277, .T. ) ;
#185 = ORIENTED_EDGE ( 'NONE', *, *, #427, .F. ) ;
#186 = DIRECTION ( 'NONE',  ( 0.000000000000000000, -1.000000000000000000, 0.000000000000000000 ) ) ;
#187 = DIRECTION ( 'NONE',  ( 0.000000000000000000, 0.000000000000000000, 1.000000000000000000 ) ) ;
#188 = CARTESIAN_POINT ( 'NONE',  ( 85.00000000000000000, 10.00000000000000000, -310.0000000000005684 ) ) ;
#189 = EDGE_CURVE ( 'NONE', #226, #1285, #215, .T. ) ;
#190 = EDGE_CURVE ( 'NONE', #1353, #447, #663, .T. ) ;
#191 = ORIENTED_EDGE ( 'NONE', *, *, #1341, .F. ) ;
#192 = LINE ( 'NONE', #1155, #788 ) ;
#193 = DIRECTION ( 'NONE',  ( 0.000000000000000000, 0.000000000000000000, -1.000000000000000000 ) ) ;
#194 = CIRCLE ( 'NONE', #422, 10.00000000000000888 ) ;
#195 = DIRECTION ( 'NONE',  ( 0.000000000000000000, 0.000000000000000000, 1.000000000000000000 ) ) ;
#196 = AXIS2_PLACEMENT_3D ( 'NONE', #1237, #1122, #293 ) ;
#197 = DIRECTION ( 'NONE',  ( -1.000000000000000000, 0.000000000000000000, 0.000000000000000000 ) ) ;
#198 = VECTOR ( 'NONE', #1354, 1000.000000000000000 ) ;
#199 = VECTOR ( 'NONE', #390, 1000.000000000000000 ) ;
#200 = ORIENTED_EDGE ( 'NONE', *, *, #184, .T. ) ;
#201 = CARTESIAN_POINT ( 'NONE',  ( 85.00000000000000000, 0.000000000000000000, -311.6000000000005343 ) ) ;
#202 = FACE_OUTER_BOUND ( 'NONE', #1112, .T. ) ;
#203 = DIRECTION ( 'NONE',  ( 0.000000000000000000, -1.000000000000000000, 0.000000000000000000 ) ) ;
#204 = ORIENTED_EDGE ( 'NONE', *, *, #5, .F. ) ;
#205 = VERTEX_POINT ( 'NONE', #437 ) ;
#206 = FACE_BOUND ( 'NONE', #803, .T. ) ;
#207 = EDGE_CURVE ( 'NONE', #569, #982, #464, .T. ) ;
#208 = CYLINDRICAL_SURFACE ( 'NONE', #310, 5.000000000000004441 ) ;
#209 = CARTESIAN_POINT ( 'NONE',  ( 20.00000000000000000, 0.000000000000000000, -147.0268032862910843 ) ) ;
#210 = ORIENTED_EDGE ( 'NONE', *, *, #1287, .F. ) ;
#211 = ORIENTED_EDGE ( 'NONE', *, *, #292, .T. ) ;
#212 = ORIENTED_EDGE ( 'NONE', *, *, #909, .F. ) ;
#213 = CARTESIAN_POINT ( 'NONE',  ( 90.00000000000000000, 10.00000000000000000, -310.0000000000005116 ) ) ;
#214 = LINE ( 'NONE', #416, #1295 ) ;
#215 = LINE ( 'NONE', #417, #1137 ) ;
#216 = PRESENTATION_LAYER_ASSIGNMENT (  '', '', ( #649 ) ) ;
#217 = ORIENTED_EDGE ( 'NONE', *, *, #111, .T. ) ;
#218 = AXIS2_PLACEMENT_3D ( 'NONE', #181, #647, #1385 ) ;
#219 = ORIENTED_EDGE ( 'NONE', *, *, #232, .T. ) ;
#220 = AXIS2_PLACEMENT_3D ( 'NONE', #1114, #152, #41 ) ;
#221 = DIRECTION ( 'NONE',  ( -0.000000000000000000, 1.000000000000000000, -0.000000000000000000 ) ) ;
#222 = CIRCLE ( 'NONE', #79, 1.599999999999997202 ) ;
#223 = CYLINDRICAL_SURFACE ( 'NONE', #534, 1.600000000000004086 ) ;
#224 = CARTESIAN_POINT ( 'NONE',  ( 67.44299105408011030, 10.00000000000000000, -313.8268343236514397 ) ) ;
#225 = VERTEX_POINT ( 'NONE', #340 ) ;
#226 = VERTEX_POINT ( 'NONE', #1185 ) ;
#227 = DIRECTION ( 'NONE',  ( 0.000000000000000000, 1.000000000000000000, 0.000000000000000000 ) ) ;
#228 = CARTESIAN_POINT ( 'NONE',  ( 90.00000000000001421, 0.000000000000000000, -174.1421356237314910 ) ) ;
#229 = EDGE_CURVE ( 'NONE', #117, #569, #115, .T. ) ;
#230 = VERTEX_POINT ( 'NONE', #849 ) ;
#231 = ORIENTED_EDGE ( 'NONE', *, *, #391, .T. ) ;
#232 = EDGE_CURVE ( 'NONE', #88, #1090, #738, .T. ) ;
#233 = ORIENTED_EDGE ( 'NONE', *, *, #101, .T. ) ;
#234 = DIRECTION ( 'NONE',  ( 0.000000000000000000, 0.000000000000000000, -1.000000000000000000 ) ) ;
#235 = CARTESIAN_POINT ( 'NONE',  ( 29.64466094067206470, 0.000000000000000000, -139.9999999999999716 ) ) ;
#236 = ORIENTED_EDGE ( 'NONE', *, *, #97, .T. ) ;
#237 = VECTOR ( 'NONE', #1136, 1000.000000000000000 ) ;
#238 = ORIENTED_EDGE ( 'NONE', *, *, #323, .F. ) ;
#239 = CIRCLE ( 'NONE', #925, 5.000000000000004441 ) ;
#240 = ORIENTED_EDGE ( 'NONE', *, *, #555, .T. ) ;
#241 = CARTESIAN_POINT ( 'NONE',  ( 90.00000000000001421, 10.00000000000000000, -170.0000000000005684 ) ) ;
#242 = AXIS2_PLACEMENT_3D ( 'NONE', #956, #197, #506 ) ;
#243 = FACE_OUTER_BOUND ( 'NONE', #1197, .T. ) ;
#244 = ORIENTED_EDGE ( 'NONE', *, *, #574, .F. ) ;
#245 = CARTESIAN_POINT ( 'NONE',  ( 85.00000000000001421, 10.00000000000000000, -180.0000000000005400 ) ) ;
#246 = ORIENTED_EDGE ( 'NONE', *, *, #735, .F. ) ;
#247 = EDGE_LOOP ( 'NONE', ( #766, #1235 ) ) ;
#248 = DIRECTION ( 'NONE',  ( 0.000000000000000000, -1.000000000000000000, 0.000000000000000000 ) ) ;
#249 = DIRECTION ( 'NONE',  ( 0.000000000000000000, 0.000000000000000000, 1.000000000000000000 ) ) ;
#250 = EDGE_CURVE ( 'NONE', #1104, #1149, #1266, .T. ) ;
#251 = LINE ( 'NONE', #1110, #1378 ) ;
#252 = DIRECTION ( 'NONE',  ( 0.000000000000000000, 0.000000000000000000, 1.000000000000000000 ) ) ;
#253 = EDGE_LOOP ( 'NONE', ( #433, #1026 ) ) ;
#254 = ORIENTED_EDGE ( 'NONE', *, *, #697, .F. ) ;
#255 = DIRECTION ( 'NONE',  ( 0.000000000000000000, 0.000000000000000000, -1.000000000000000000 ) ) ;
#256 = LINE ( 'NONE', #1318, #985 ) ;
#257 = MANIFOLD_SOLID_BREP ( 'Fillet3', #172 ) ;
#258 = CARTESIAN_POINT ( 'NONE',  ( 60.38060233744355543, 10.00000000000000000, -244.5142011061417691 ) ) ;
#259 = DIRECTION ( 'NONE',  ( 0.000000000000000000, 0.000000000000000000, 1.000000000000000000 ) ) ;
#260 = COLOUR_RGB ( '',0.7921568627450980005, 0.8196078431372548767, 0.9333333333333333481 ) ;
#261 = ORIENTED_EDGE ( 'NONE', *, *, #916, .T. ) ;
#262 = CIRCLE ( 'NONE', #785, 10.00000000000000000 ) ;
#263 = DIRECTION ( 'NONE',  ( 0.000000000000000000, 1.000000000000000000, 0.000000000000000000 ) ) ;
#264 = AXIS2_PLACEMENT_3D ( 'NONE', #1274, #625, #752 ) ;
#265 = LINE ( 'NONE', #702, #357 ) ;
#266 = VECTOR ( 'NONE', #810, 1000.000000000000000 ) ;
#267 = ORIENTED_EDGE ( 'NONE', *, *, #602, .T. ) ;
#268 = CARTESIAN_POINT ( 'NONE',  ( 0.000000000000000000, 0.000000000000000000, -120.0000000000000000 ) ) ;
#269 = VERTEX_POINT ( 'NONE', #108 ) ;
#270 = DIRECTION ( 'NONE',  ( -0.000000000000000000, 1.000000000000000000, -0.000000000000000000 ) ) ;
#271 = DIRECTION ( 'NONE',  ( 0.000000000000000000, 0.000000000000000000, -1.000000000000000000 ) ) ;
#272 = FACE_OUTER_BOUND ( 'NONE', #1213, .T. ) ;
#273 = DIRECTION ( 'NONE',  ( 0.000000000000000000, 1.000000000000000000, 0.000000000000000000 ) ) ;
#274 = ORIENTED_EDGE ( 'NONE', *, *, #721, .F. ) ;
#275 = DIRECTION ( 'NONE',  ( -9.251858538542971581E-17, -0.000000000000000000, -1.000000000000000000 ) ) ;
#276 = EDGE_CURVE ( 'NONE', #685, #138, #520, .T. ) ;
#277 = CARTESIAN_POINT ( 'NONE',  ( 50.00000000000000000, 10.00000000000000000, -115.8578643762690774 ) ) ;
#278 = CARTESIAN_POINT ( 'NONE',  ( 10.00000000000000000, 10.00000000000000000, -11.60000000000000320 ) ) ;
#279 = CARTESIAN_POINT ( 'NONE',  ( 67.44299105408008188, 10.00000000000000000, -313.8268343236513260 ) ) ;
#280 = ORIENTED_EDGE ( 'NONE', *, *, #145, .T. ) ;
#281 = CARTESIAN_POINT ( 'NONE',  ( 20.00000000000000000, 10.00000000000000000, -139.9999999999999716 ) ) ;
#282 = AXIS2_PLACEMENT_3D ( 'NONE', #572, #641, #316 ) ;
#283 = CARTESIAN_POINT ( 'NONE',  ( 85.00000000000000000, 10.00000000000000000, -308.4000000000005457 ) ) ;
#284 = EDGE_CURVE ( 'NONE', #132, #1149, #974, .T. ) ;
#285 = CIRCLE ( 'NONE', #196, 10.00000000000000888 ) ;
#286 = VECTOR ( 'NONE', #68, 1000.000000000000000 ) ;
#287 = DIRECTION ( 'NONE',  ( 0.000000000000000000, -0.000000000000000000, -1.000000000000000000 ) ) ;
#288 = DIRECTION ( 'NONE',  ( 0.000000000000000000, 0.000000000000000000, 1.000000000000000000 ) ) ;
#289 = VECTOR ( 'NONE', #1019, 1000.000000000000000 ) ;
#290 = ORIENTED_EDGE ( 'NONE', *, *, #328, .F. ) ;
#291 = LINE ( 'NONE', #1037, #198 ) ;
#292 = EDGE_CURVE ( 'NONE', #426, #320, #942, .T. ) ;
#293 = DIRECTION ( 'NONE',  ( 0.000000000000000000, 0.000000000000000000, -1.000000000000000000 ) ) ;
#294 = DIRECTION ( 'NONE',  ( 0.000000000000000000, -1.000000000000000000, 0.000000000000000000 ) ) ;
#295 = DIRECTION ( 'NONE',  ( 0.000000000000000000, 0.000000000000000000, 1.000000000000000000 ) ) ;
#296 = ADVANCED_FACE ( 'NONE', ( #1215 ), #346, .T. ) ;
#297 = ORIENTED_EDGE ( 'NONE', *, *, #483, .F. ) ;
#298 = CYLINDRICAL_SURFACE ( 'NONE', #34, 5.000000000000004441 ) ;
#299 = CARTESIAN_POINT ( 'NONE',  ( 0.7612046748871388324, 10.00000000000000000, -152.8427612837386107 ) ) ;
#300 = DIRECTION ( 'NONE',  ( -0.000000000000000000, 1.000000000000000000, -0.000000000000000000 ) ) ;
#301 = CARTESIAN_POINT ( 'NONE',  ( 10.00000000000000000, 0.000000000000000000, -11.60000000000000320 ) ) ;
#302 = EDGE_CURVE ( 'NONE', #896, #495, #509, .T. ) ;
#303 = ORIENTED_EDGE ( 'NONE', *, *, #780, .T. ) ;
#304 = DIRECTION ( 'NONE',  ( 0.000000000000000000, 0.000000000000000000, -1.000000000000000000 ) ) ;
#305 = CYLINDRICAL_SURFACE ( 'NONE', #378, 1.599999999999990319 ) ;
#306 = CIRCLE ( 'NONE', #99, 1.599999999999990319 ) ;
#307 = DIRECTION ( 'NONE',  ( -0.000000000000000000, 1.000000000000000000, -0.000000000000000000 ) ) ;
#308 = AXIS2_PLACEMENT_3D ( 'NONE', #69, #707, #921 ) ;
#309 = FACE_OUTER_BOUND ( 'NONE', #13, .T. ) ;
#310 = AXIS2_PLACEMENT_3D ( 'NONE', #770, #25, #1316 ) ;
#311 = EDGE_LOOP ( 'NONE', ( #815, #231, #37, #1263 ) ) ;
#312 = AXIS2_PLACEMENT_3D ( 'NONE', #618, #941, #744 ) ;
#313 = ORIENTED_EDGE ( 'NONE', *, *, #524, .T. ) ;
#314 = CARTESIAN_POINT ( 'NONE',  ( 85.00000000000001421, 0.000000000000000000, -180.0000000000005400 ) ) ;
#315 = LINE ( 'NONE', #1070, #403 ) ;
#316 = DIRECTION ( 'NONE',  ( 0.000000000000000000, 0.000000000000000000, -1.000000000000000000 ) ) ;
#317 = PRODUCT_DEFINITION_SHAPE ( 'NONE', 'NONE',  #619 ) ;
#318 = EDGE_LOOP ( 'NONE', ( #428, #1322, #93, #620 ) ) ;
#319 = VERTEX_POINT ( 'NONE', #16 ) ;
#320 = VERTEX_POINT ( 'NONE', #351 ) ;
#321 = CARTESIAN_POINT ( 'NONE',  ( 90.00000000000000000, 0.000000000000000000, -310.0000000000005116 ) ) ;
#322 = LINE ( 'NONE', #754, #1337 ) ;
#323 = EDGE_CURVE ( 'NONE', #230, #688, #256, .T. ) ;
#324 = VERTEX_POINT ( 'NONE', #801 ) ;
#325 = ORIENTED_EDGE ( 'NONE', *, *, #483, .T. ) ;
#326 = DIRECTION ( 'NONE',  ( 0.000000000000000000, -1.000000000000000000, 0.000000000000000000 ) ) ;
#327 = DIRECTION ( 'NONE',  ( 0.000000000000000000, 0.000000000000000000, 1.000000000000000000 ) ) ;
#328 = EDGE_CURVE ( 'NONE', #926, #1302, #20, .T. ) ;
#329 = LINE ( 'NONE', #533, #1159 ) ;
#330 = CIRCLE ( 'NONE', #532, 1.599999999999997202 ) ;
#331 =( GEOMETRIC_REPRESENTATION_CONTEXT ( 3 ) GLOBAL_UNCERTAINTY_ASSIGNED_CONTEXT ( ( #1243 ) ) GLOBAL_UNIT_ASSIGNED_CONTEXT ( ( #6, #771, #1283 ) ) REPRESENTATION_CONTEXT ( 'NONE', 'WORKASPACE' ) );
#332 = ORIENTED_EDGE ( 'NONE', *, *, #411, .T. ) ;
#333 = ORIENTED_EDGE ( 'NONE', *, *, #1048, .F. ) ;
#334 = ORIENTED_EDGE ( 'NONE', *, *, #983, .F. ) ;
#335 = AXIS2_PLACEMENT_3D ( 'NONE', #986, #1207, #667 ) ;
#336 = CARTESIAN_POINT ( 'NONE',  ( 68.53553390593272354, 0.000000000000000000, -176.8198051533951798 ) ) ;
#337 = AXIS2_PLACEMENT_3D ( 'NONE', #245, #364, #478 ) ;
#338 = DIRECTION ( 'NONE',  ( 0.000000000000000000, 0.000000000000000000, 1.000000000000000000 ) ) ;
#339 = ADVANCED_FACE ( 'NONE', ( #362 ), #683, .F. ) ;
#340 = CARTESIAN_POINT ( 'NONE',  ( 79.99999999999997158, 10.00000000000000000, -320.0000000000005116 ) ) ;
#341 = ORIENTED_EDGE ( 'NONE', *, *, #467, .T. ) ;
#342 = EDGE_CURVE ( 'NONE', #1230, #205, #1306, .T. ) ;
#343 = ORIENTED_EDGE ( 'NONE', *, *, #851, .F. ) ;
#344 = ORIENTED_EDGE ( 'NONE', *, *, #1281, .F. ) ;
#345 = DIRECTION ( 'NONE',  ( -0.000000000000000000, -0.000000000000000000, 1.000000000000000000 ) ) ;
#346 = CYLINDRICAL_SURFACE ( 'NONE', #694, 10.00000000000000000 ) ;
#347 = EDGE_LOOP ( 'NONE', ( #334, #204, #151, #1374 ) ) ;
#348 = EDGE_CURVE ( 'NONE', #484, #319, #451, .T. ) ;
#349 = ORIENTED_EDGE ( 'NONE', *, *, #1245, .T. ) ;
#350 = FACE_OUTER_BOUND ( 'NONE', #459, .T. ) ;
#351 = CARTESIAN_POINT ( 'NONE',  ( 30.00000000000000000, 0.000000000000000000, -11.59999999999999787 ) ) ;
#352 = VERTEX_POINT ( 'NONE', #136 ) ;
#353 = ORIENTED_EDGE ( 'NONE', *, *, #555, .F. ) ;
#354 = ADVANCED_FACE ( 'NONE', ( #129 ), #1310, .F. ) ;
#355 = VECTOR ( 'NONE', #762, 1000.000000000000000 ) ;
#356 = ORIENTED_EDGE ( 'NONE', *, *, #1148, .T. ) ;
#357 = VECTOR ( 'NONE', #776, 1000.000000000000000 ) ;
#358 = VECTOR ( 'NONE', #1150, 1000.000000000000000 ) ;
#359 = LINE ( 'NONE', #999, #585 ) ;
#360 = AXIS2_PLACEMENT_3D ( 'NONE', #632, #1168, #1069 ) ;
#361 = ADVANCED_FACE ( 'NONE', ( #471 ), #1109, .F. ) ;
#362 = FACE_OUTER_BOUND ( 'NONE', #474, .T. ) ;
#363 = CARTESIAN_POINT ( 'NONE',  ( 76.68178637919298524, 0.000000000000000000, -310.0000000000005116 ) ) ;
#364 = DIRECTION ( 'NONE',  ( 0.000000000000000000, -1.000000000000000000, 0.000000000000000000 ) ) ;
#365 = EDGE_LOOP ( 'NONE', ( #895, #1198, #212, #887 ) ) ;
#366 = ORIENTED_EDGE ( 'NONE', *, *, #328, .T. ) ;
#367 = DIRECTION ( 'NONE',  ( 0.000000000000000000, 0.000000000000000000, -1.000000000000000000 ) ) ;
#368 = CARTESIAN_POINT ( 'NONE',  ( 20.00000000000000000, 10.00000000000000000, -147.0268032862910843 ) ) ;
#369 = EDGE_CURVE ( 'NONE', #773, #226, #262, .T. ) ;
#370 = CARTESIAN_POINT ( 'NONE',  ( 0.000000000000000000, 10.00000000000000000, -151.0050506338842808 ) ) ;
#371 = DIRECTION ( 'NONE',  ( 0.000000000000000000, 0.000000000000000000, -1.000000000000000000 ) ) ;
#372 = CYLINDRICAL_SURFACE ( 'NONE', #425, 1.600000000000002531 ) ;
#373 = DIRECTION ( 'NONE',  ( 1.000000000000000000, -0.000000000000000000, 0.000000000000000000 ) ) ;
#374 = EDGE_LOOP ( 'NONE', ( #179, #100, #82, #750 ) ) ;
#375 = CARTESIAN_POINT ( 'NONE',  ( 10.00000000000000000, 0.000000000000000000, -11.60000000000000320 ) ) ;
#376 = VECTOR ( 'NONE', #92, 1000.000000000000227 ) ;
#377 = VERTEX_POINT ( 'NONE', #915 ) ;
#378 = AXIS2_PLACEMENT_3D ( 'NONE', #519, #954, #327 ) ;
#379 = DIRECTION ( 'NONE',  ( 1.000000000000000000, 0.000000000000000000, 0.000000000000000000 ) ) ;
#380 = AXIS2_PLACEMENT_3D ( 'NONE', #594, #186, #161 ) ;
#381 = CARTESIAN_POINT ( 'NONE',  ( 40.00000000000000711, 10.00000000000000000, 0.000000000000000000 ) ) ;
#382 = EDGE_CURVE ( 'NONE', #852, #645, #102, .T. ) ;
#383 = CARTESIAN_POINT ( 'NONE',  ( 79.99999999999997158, 0.000000000000000000, -320.0000000000005116 ) ) ;
#384 = DIRECTION ( 'NONE',  ( 0.000000000000000000, 0.000000000000000000, 1.000000000000000000 ) ) ;
#385 = ADVANCED_FACE ( 'NONE', ( #243 ), #807, .T. ) ;
#386 = ORIENTED_EDGE ( 'NONE', *, *, #845, .T. ) ;
#387 = DIRECTION ( 'NONE',  ( 6.938893903907222461E-16, 0.000000000000000000, -1.000000000000000000 ) ) ;
#388 = CARTESIAN_POINT ( 'NONE',  ( 25.00000000000000000, 10.00000000000000000, -145.0000000000000000 ) ) ;
#389 = CARTESIAN_POINT ( 'NONE',  ( 40.00000000000000711, 0.000000000000000000, 0.000000000000000000 ) ) ;
#390 = DIRECTION ( 'NONE',  ( 0.000000000000000000, -1.000000000000000000, 0.000000000000000000 ) ) ;
#391 = EDGE_CURVE ( 'NONE', #320, #2, #265, .T. ) ;
#392 = ORIENTED_EDGE ( 'NONE', *, *, #859, .F. ) ;
#393 = CARTESIAN_POINT ( 'NONE',  ( 25.00000000000000000, 10.00000000000000000, -145.0000000000000000 ) ) ;
#394 = DIRECTION ( 'NONE',  ( 0.000000000000000000, 0.000000000000000000, 1.000000000000000000 ) ) ;
#395 = CARTESIAN_POINT ( 'NONE',  ( 20.00000000000000000, 10.00000000000000000, -147.0268032862910843 ) ) ;
#396 = DIRECTION ( 'NONE',  ( -2.775557561562888984E-15, 0.000000000000000000, -1.000000000000000000 ) ) ;
#397 = EDGE_CURVE ( 'NONE', #636, #1302, #239, .T. ) ;
#398 = ORIENTED_EDGE ( 'NONE', *, *, #145, .F. ) ;
#399 = CARTESIAN_POINT ( 'NONE',  ( 25.00000000000000000, 10.00000000000000000, -139.9999999999999716 ) ) ;
#400 = AXIS2_PLACEMENT_3D ( 'NONE', #929, #1261, #843 ) ;
#401 = FACE_OUTER_BOUND ( 'NONE', #318, .T. ) ;
#402 = ADVANCED_FACE ( 'NONE', ( #566 ), #1103, .F. ) ;
#403 = VECTOR ( 'NONE', #96, 1000.000000000000000 ) ;
#404 = VECTOR ( 'NONE', #1334, 1000.000000000000000 ) ;
#405 = LINE ( 'NONE', #823, #715 ) ;
#406 = DIRECTION ( 'NONE',  ( -0.000000000000000000, 1.000000000000000000, -0.000000000000000000 ) ) ;
#407 = CIRCLE ( 'NONE', #653, 10.00000000000000888 ) ;
#408 = ORIENTED_EDGE ( 'NONE', *, *, #427, .T. ) ;
#409 = DIRECTION ( 'NONE',  ( 0.000000000000000000, 0.000000000000000000, 1.000000000000000000 ) ) ;
#410 = PLANE ( 'NONE',  #650 ) ;
#411 = EDGE_CURVE ( 'NONE', #890, #1068, #1033, .T. ) ;
#412 = DIRECTION ( 'NONE',  ( -0.000000000000000000, -0.000000000000000000, 1.000000000000000000 ) ) ;
#413 = DIRECTION ( 'NONE',  ( 0.000000000000000000, -1.000000000000000000, 0.000000000000000000 ) ) ;
#414 = ORIENTED_EDGE ( 'NONE', *, *, #677, .T. ) ;
#415 = FACE_BOUND ( 'NONE', #992, .T. ) ;
#416 = CARTESIAN_POINT ( 'NONE',  ( 87.07106781186553235, 10.00000000000000000, -167.0710678118660724 ) ) ;
#417 = CARTESIAN_POINT ( 'NONE',  ( 0.000000000000000000, 10.00000000000000000, -9.999999999999994671 ) ) ;
#418 = CARTESIAN_POINT ( 'NONE',  ( 90.00000000000001421, 0.000000000000000000, -170.0000000000005684 ) ) ;
#419 = ORIENTED_EDGE ( 'NONE', *, *, #1025, .F. ) ;
#420 = CARTESIAN_POINT ( 'NONE',  ( 30.00000000000000711, 10.00000000000000000, 0.000000000000000000 ) ) ;
#421 = DIRECTION ( 'NONE',  ( 0.000000000000000000, -1.000000000000000000, 0.000000000000000000 ) ) ;
#422 = AXIS2_PLACEMENT_3D ( 'NONE', #363, #795, #1210 ) ;
#423 = DIRECTION ( 'NONE',  ( -0.000000000000000000, -0.000000000000000000, 1.000000000000000000 ) ) ;
#424 = AXIS2_PLACEMENT_3D ( 'NONE', #886, #1007, #910 ) ;
#425 = AXIS2_PLACEMENT_3D ( 'NONE', #806, #1121, #920 ) ;
#426 = VERTEX_POINT ( 'NONE', #616 ) ;
#427 = EDGE_CURVE ( 'NONE', #1258, #1312, #1055, .T. ) ;
#428 = ORIENTED_EDGE ( 'NONE', *, *, #904, .F. ) ;
#429 = LINE ( 'NONE', #1280, #1080 ) ;
#430 = FACE_OUTER_BOUND ( 'NONE', #614, .T. ) ;
#431 =( NAMED_UNIT ( * ) SI_UNIT ( $, .STERADIAN. ) SOLID_ANGLE_UNIT ( ) );
#432 = ORIENTED_EDGE ( 'NONE', *, *, #1391, .F. ) ;
#433 = ORIENTED_EDGE ( 'NONE', *, *, #654, .T. ) ;
#434 = DIRECTION ( 'NONE',  ( 0.000000000000000000, -1.000000000000000000, 0.000000000000000000 ) ) ;
#435 = EDGE_CURVE ( 'NONE', #225, #805, #948, .T. ) ;
#436 = CARTESIAN_POINT ( 'NONE',  ( 85.00000000000001421, 0.000000000000000000, -181.6000000000005343 ) ) ;
#437 = CARTESIAN_POINT ( 'NONE',  ( 40.00000000000000000, 10.00000000000000000, -115.8578643762690774 ) ) ;
#438 = ORIENTED_EDGE ( 'NONE', *, *, #467, .F. ) ;
#439 = ORIENTED_EDGE ( 'NONE', *, *, #1240, .F. ) ;
#440 = CARTESIAN_POINT ( 'NONE',  ( 30.00000000000000711, 10.00000000000000000, 0.000000000000000000 ) ) ;
#441 = EDGE_CURVE ( 'NONE', #1333, #604, #605, .T. ) ;
#442 = DIRECTION ( 'NONE',  ( 0.000000000000000000, 0.000000000000000000, -1.000000000000000000 ) ) ;
#443 = ADVANCED_FACE ( 'NONE', ( #401 ), #1151, .F. ) ;
#444 = AXIS2_PLACEMENT_3D ( 'NONE', #793, #373, #33 ) ;
#445 = EDGE_LOOP ( 'NONE', ( #1388, #122 ) ) ;
#446 = AXIS2_PLACEMENT_3D ( 'NONE', #540, #972, #760 ) ;
#447 = VERTEX_POINT ( 'NONE', #1364 ) ;
#448 =( GEOMETRIC_REPRESENTATION_CONTEXT ( 3 ) GLOBAL_UNCERTAINTY_ASSIGNED_CONTEXT ( ( #589 ) ) GLOBAL_UNIT_ASSIGNED_CONTEXT ( ( #1053, #930, #431 ) ) REPRESENTATION_CONTEXT ( 'NONE', 'WORKASPACE' ) );
#449 = VERTEX_POINT ( 'NONE', #299 ) ;
#450 = CARTESIAN_POINT ( 'NONE',  ( 76.68178637919295682, 10.00000000000000000, -320.0000000000005116 ) ) ;
#451 = LINE ( 'NONE', #235, #945 ) ;
#452 = ORIENTED_EDGE ( 'NONE', *, *, #85, .T. ) ;
#453 = ORIENTED_EDGE ( 'NONE', *, *, #435, .T. ) ;
#454 = CARTESIAN_POINT ( 'NONE',  ( 80.00000000000000000, 10.00000000000000000, -310.0000000000005116 ) ) ;
#455 = CARTESIAN_POINT ( 'NONE',  ( 85.00000000000000000, 0.000000000000000000, -310.0000000000005684 ) ) ;
#456 = ADVANCED_FACE ( 'NONE', ( #1355 ), #410, .T. ) ;
#457 = VERTEX_POINT ( 'NONE', #1134 ) ;
#458 = ORIENTED_EDGE ( 'NONE', *, *, #841, .F. ) ;
#459 = EDGE_LOOP ( 'NONE', ( #1325, #39, #1167, #112 ) ) ;
#460 = CARTESIAN_POINT ( 'NONE',  ( 85.00000000000001421, 0.000000000000000000, -246.6000000000005343 ) ) ;
#461 = DIRECTION ( 'NONE',  ( 0.000000000000000000, -1.000000000000000000, 0.000000000000000000 ) ) ;
#462 = LINE ( 'NONE', #901, #784 ) ;
#463 = DIRECTION ( 'NONE',  ( -0.000000000000000000, -0.000000000000000000, 1.000000000000000000 ) ) ;
#464 = CIRCLE ( 'NONE', #282, 5.000000000000004441 ) ;
#465 = ORIENTED_EDGE ( 'NONE', *, *, #72, .F. ) ;
#466 = AXIS2_PLACEMENT_3D ( 'NONE', #1028, #504, #934 ) ;
#467 = EDGE_CURVE ( 'NONE', #269, #664, #842, .T. ) ;
#468 = CIRCLE ( 'NONE', #1250, 1.600000000000004086 ) ;
#469 = DIRECTION ( 'NONE',  ( -0.000000000000000000, 1.000000000000000000, -0.000000000000000000 ) ) ;
#470 = VECTOR ( 'NONE', #463, 1000.000000000000000 ) ;
#471 = FACE_OUTER_BOUND ( 'NONE', #1226, .T. ) ;
#472 = ORIENTED_EDGE ( 'NONE', *, *, #292, .F. ) ;
#473 = CARTESIAN_POINT ( 'NONE',  ( 30.00000000000000000, 0.000000000000000000, -111.6000000000000085 ) ) ;
#474 = EDGE_LOOP ( 'NONE', ( #439, #952, #998, #860 ) ) ;
#475 = CARTESIAN_POINT ( 'NONE',  ( 85.00000000000001421, 0.000000000000000000, -243.4000000000005741 ) ) ;
#476 = DIRECTION ( 'NONE',  ( 0.000000000000000000, -1.000000000000000000, 0.000000000000000000 ) ) ;
#477 = ORIENTED_EDGE ( 'NONE', *, *, #1223, .T. ) ;
#478 = DIRECTION ( 'NONE',  ( 0.000000000000000000, 0.000000000000000000, -1.000000000000000000 ) ) ;
#479 = ADVANCED_FACE ( 'NONE', ( #1129 ), #1336, .F. ) ;
#480 = ORIENTED_EDGE ( 'NONE', *, *, #207, .T. ) ;
#481 = DIRECTION ( 'NONE',  ( 0.000000000000000000, -1.000000000000000000, 0.000000000000000000 ) ) ;
#482 = DIRECTION ( 'NONE',  ( -8.673617379884027583E-16, 0.000000000000000000, -1.000000000000000000 ) ) ;
#483 = EDGE_CURVE ( 'NONE', #664, #1196, #285, .T. ) ;
#484 = VERTEX_POINT ( 'NONE', #1044 ) ;
#485 = FACE_OUTER_BOUND ( 'NONE', #710, .T. ) ;
#486 = ORIENTED_EDGE ( 'NONE', *, *, #721, .T. ) ;
#487 = AXIS2_PLACEMENT_3D ( 'NONE', #277, #1145, #187 ) ;
#488 = CARTESIAN_POINT ( 'NONE',  ( 25.00000000000000000, 0.000000000000000000, -146.0322414493928136 ) ) ;
#489 = CIRCLE ( 'NONE', #513, 1.599999999999990319 ) ;
#490 = DIRECTION ( 'NONE',  ( 0.000000000000000000, 0.000000000000000000, -1.000000000000000000 ) ) ;
#491 = VECTOR ( 'NONE', #1153, 1000.000000000000000 ) ;
#492 = DIRECTION ( 'NONE',  ( 0.000000000000000000, 0.000000000000000000, 1.000000000000000000 ) ) ;
#493 = LINE ( 'NONE', #1366, #106 ) ;
#494 = PRODUCT_RELATED_PRODUCT_CATEGORY ( 'part', '', ( #644 ) ) ;
#495 = VERTEX_POINT ( 'NONE', #601 ) ;
#496 = LINE ( 'NONE', #1127, #947 ) ;
#497 = CARTESIAN_POINT ( 'NONE',  ( 0.7612046748871386104, 10.00000000000000000, -152.8427612837386107 ) ) ;
#498 = DIRECTION ( 'NONE',  ( -0.000000000000000000, 1.000000000000000000, -0.000000000000000000 ) ) ;
#499 = ADVANCED_FACE ( 'NONE', ( #63 ), #162, .F. ) ;
#500 = CARTESIAN_POINT ( 'NONE',  ( 20.00000000000000000, 0.000000000000000000, -139.9999999999999716 ) ) ;
#501 = EDGE_CURVE ( 'NONE', #1196, #449, #622, .T. ) ;
#502 = ORIENTED_EDGE ( 'NONE', *, *, #1313, .F. ) ;
#503 = LINE ( 'NONE', #933, #1273 ) ;
#504 = DIRECTION ( 'NONE',  ( 0.000000000000000000, -1.000000000000000000, 0.000000000000000000 ) ) ;
#505 = DIRECTION ( 'NONE',  ( 0.000000000000000000, -1.000000000000000000, 0.000000000000000000 ) ) ;
#506 = DIRECTION ( 'NONE',  ( 0.000000000000000000, 0.000000000000000000, 1.000000000000000000 ) ) ;
#507 = VERTEX_POINT ( 'NONE', #283 ) ;
#508 = CARTESIAN_POINT ( 'NONE',  ( 69.99999999999998579, 0.000000000000000000, -320.0000000000005116 ) ) ;
#509 = CIRCLE ( 'NONE', #76, 1.599999999999990319 ) ;
#510 = AXIS2_PLACEMENT_3D ( 'NONE', #1370, #1282, #1064 ) ;
#511 = DIRECTION ( 'NONE',  ( 0.000000000000000000, -1.000000000000000000, 0.000000000000000000 ) ) ;
#512 = CIRCLE ( 'NONE', #1249, 1.600000000000004086 ) ;
#513 = AXIS2_PLACEMENT_3D ( 'NONE', #701, #1021, #62 ) ;
#514 = FACE_OUTER_BOUND ( 'NONE', #1092, .T. ) ;
#515 = DIRECTION ( 'NONE',  ( 1.000000000000000000, 0.000000000000000000, 0.000000000000000000 ) ) ;
#516 = VECTOR ( 'NONE', #918, 1000.000000000000114 ) ;
#517 = ORIENTED_EDGE ( 'NONE', *, *, #1041, .T. ) ;
#518 = CARTESIAN_POINT ( 'NONE',  ( 10.00000000000000000, 10.00000000000000000, -111.6000000000000085 ) ) ;
#519 = CARTESIAN_POINT ( 'NONE',  ( 85.00000000000001421, 0.000000000000000000, -180.0000000000005400 ) ) ;
#520 = LINE ( 'NONE', #1289, #9 ) ;
#521 = CYLINDRICAL_SURFACE ( 'NONE', #312, 10.00000000000000000 ) ;
#522 = ORIENTED_EDGE ( 'NONE', *, *, #547, .T. ) ;
#523 = FACE_BOUND ( 'NONE', #133, .T. ) ;
#524 = EDGE_CURVE ( 'NONE', #449, #269, #32, .T. ) ;
#525 = CARTESIAN_POINT ( 'NONE',  ( 85.00000000000000000, 10.00000000000000000, -310.0000000000005684 ) ) ;
#526 = PLANE ( 'NONE',  #1221 ) ;
#527 = EDGE_CURVE ( 'NONE', #832, #138, #512, .T. ) ;
#528 = ORIENTED_EDGE ( 'NONE', *, *, #411, .F. ) ;
#529 = ORIENTED_EDGE ( 'NONE', *, *, #441, .F. ) ;
#530 = DIRECTION ( 'NONE',  ( -0.000000000000000000, 1.000000000000000000, -0.000000000000000000 ) ) ;
#531 = CARTESIAN_POINT ( 'NONE',  ( 90.00000000000001421, 10.00000000000000000, -170.0000000000005684 ) ) ;
#532 = AXIS2_PLACEMENT_3D ( 'NONE', #617, #505, #177 ) ;
#533 = CARTESIAN_POINT ( 'NONE',  ( 20.00000000000000000, 0.000000000000000000, -139.9999999999999716 ) ) ;
#534 = AXIS2_PLACEMENT_3D ( 'NONE', #848, #1084, #548 ) ;
#535 = AXIS2_PLACEMENT_3D ( 'NONE', #1083, #747, #853 ) ;
#536 = EDGE_LOOP ( 'NONE', ( #971, #486, #502, #353 ) ) ;
#537 = ADVANCED_FACE ( 'NONE', ( #167 ), #712, .T. ) ;
#538 = CIRCLE ( 'NONE', #1098, 5.000000000000004441 ) ;
#539 = ORIENTED_EDGE ( 'NONE', *, *, #1025, .T. ) ;
#540 = CARTESIAN_POINT ( 'NONE',  ( 80.00000000000000000, 10.00000000000000000, -310.0000000000005116 ) ) ;
#541 = CARTESIAN_POINT ( 'NONE',  ( 10.00000000000000000, 0.000000000000000000, -108.3999999999999915 ) ) ;
#542 = DIRECTION ( 'NONE',  ( -0.000000000000000000, 1.000000000000000000, -0.000000000000000000 ) ) ;
#543 = EDGE_CURVE ( 'NONE', #320, #426, #1317, .T. ) ;
#544 = EDGE_LOOP ( 'NONE', ( #575, #1174 ) ) ;
#545 = ORIENTED_EDGE ( 'NONE', *, *, #50, .T. ) ;
#546 = CARTESIAN_POINT ( 'NONE',  ( 10.00000000000000000, 10.00000000000000000, -108.3999999999999915 ) ) ;
#547 = EDGE_CURVE ( 'NONE', #1149, #1106, #1116, .T. ) ;
#548 = DIRECTION ( 'NONE',  ( 0.000000000000000000, 0.000000000000000000, 1.000000000000000000 ) ) ;
#549 = CARTESIAN_POINT ( 'NONE',  ( 69.99999999999998579, 10.00000000000000000, -320.0000000000005116 ) ) ;
#550 = ORIENTED_EDGE ( 'NONE', *, *, #1183, .F. ) ;
#551 = ORIENTED_EDGE ( 'NONE', *, *, #640, .F. ) ;
#552 = ORIENTED_EDGE ( 'NONE', *, *, #72, .T. ) ;
#553 = ORIENTED_EDGE ( 'NONE', *, *, #501, .F. ) ;
#554 = FACE_OUTER_BOUND ( 'NONE', #149, .T. ) ;
#555 = EDGE_CURVE ( 'NONE', #882, #1206, #90, .T. ) ;
#556 = CARTESIAN_POINT ( 'NONE',  ( 30.00000000000000000, 0.000000000000000000, -10.00000000000000000 ) ) ;
#557 = AXIS2_PLACEMENT_3D ( 'NONE', #370, #579, #64 ) ;
#558 = AXIS2_PLACEMENT_3D ( 'NONE', #525, #855, #626 ) ;
#559 = ORIENTED_EDGE ( 'NONE', *, *, #1373, .F. ) ;
#560 = VECTOR ( 'NONE', #379, 1000.000000000000000 ) ;
#561 = EDGE_LOOP ( 'NONE', ( #1088, #567, #976, #913 ) ) ;
#562 = ORIENTED_EDGE ( 'NONE', *, *, #931, .F. ) ;
#563 = VECTOR ( 'NONE', #530, 1000.000000000000000 ) ;
#564 = ORIENTED_EDGE ( 'NONE', *, *, #369, .T. ) ;
#565 = CYLINDRICAL_SURFACE ( 'NONE', #1162, 5.000000000000004441 ) ;
#566 = FACE_OUTER_BOUND ( 'NONE', #872, .T. ) ;
#567 = ORIENTED_EDGE ( 'NONE', *, *, #38, .F. ) ;
#568 = VERTEX_POINT ( 'NONE', #436 ) ;
#569 = VERTEX_POINT ( 'NONE', #84 ) ;
#570 = CARTESIAN_POINT ( 'NONE',  ( 10.00000000000000000, 0.000000000000000000, 0.000000000000000000 ) ) ;
#571 = CARTESIAN_POINT ( 'NONE',  ( 85.00000000000000000, 0.000000000000000000, -310.0000000000005684 ) ) ;
#572 = CARTESIAN_POINT ( 'NONE',  ( 25.00000000000000000, 0.000000000000000000, -145.0000000000000000 ) ) ;
#573 = CARTESIAN_POINT ( 'NONE',  ( 85.00000000000000000, 0.000000000000000000, -310.0000000000005684 ) ) ;
#574 = EDGE_CURVE ( 'NONE', #205, #230, #1008, .T. ) ;
#575 = ORIENTED_EDGE ( 'NONE', *, *, #1313, .T. ) ;
#576 = ORIENTED_EDGE ( 'NONE', *, *, #97, .F. ) ;
#577 = LINE ( 'NONE', #1102, #12 ) ;
#578 = DIRECTION ( 'NONE',  ( 0.000000000000000000, 0.000000000000000000, -1.000000000000000000 ) ) ;
#579 = DIRECTION ( 'NONE',  ( 0.9238795325112865164, -0.000000000000000000, 0.3826834323650906144 ) ) ;
#580 = DIRECTION ( 'NONE',  ( 0.000000000000000000, 0.000000000000000000, 1.000000000000000000 ) ) ;
#581 = AXIS2_PLACEMENT_3D ( 'NONE', #1060, #300, #195 ) ;
#582 = EDGE_CURVE ( 'NONE', #624, #457, #315, .T. ) ;
#583 = ORIENTED_EDGE ( 'NONE', *, *, #125, .T. ) ;
#584 = AXIS2_PLACEMENT_3D ( 'NONE', #75, #511, #822 ) ;
#585 = VECTOR ( 'NONE', #1309, 999.9999999999998863 ) ;
#586 = FACE_OUTER_BOUND ( 'NONE', #1188, .T. ) ;
#587 = VECTOR ( 'NONE', #1147, 1000.000000000000000 ) ;
#588 = DIRECTION ( 'NONE',  ( 0.000000000000000000, -1.000000000000000000, 0.000000000000000000 ) ) ;
#589 = UNCERTAINTY_MEASURE_WITH_UNIT (LENGTH_MEASURE( 1.000000000000000082E-05 ), #1053, 'distance_accuracy_value', 'NONE');
#590 = ORIENTED_EDGE ( 'NONE', *, *, #189, .T. ) ;
#591 = CARTESIAN_POINT ( 'NONE',  ( 10.00000000000000000, 10.00000000000000000, 0.000000000000000000 ) ) ;
#592 = EDGE_CURVE ( 'NONE', #889, #997, #761, .T. ) ;
#593 = ORIENTED_EDGE ( 'NONE', *, *, #250, .F. ) ;
#594 = CARTESIAN_POINT ( 'NONE',  ( 76.68178637919298524, 10.00000000000000000, -310.0000000000005116 ) ) ;
#595 = ADVANCED_FACE ( 'NONE', ( #202 ), #868, .F. ) ;
#596 = DIRECTION ( 'NONE',  ( -0.000000000000000000, 1.000000000000000000, -0.000000000000000000 ) ) ;
#597 = ORIENTED_EDGE ( 'NONE', *, *, #1086, .T. ) ;
#598 = CARTESIAN_POINT ( 'NONE',  ( 40.00000000000000711, 10.00000000000000000, -10.00000000000000000 ) ) ;
#599 = ORIENTED_EDGE ( 'NONE', *, *, #1048, .T. ) ;
#600 = CARTESIAN_POINT ( 'NONE',  ( 10.00000000000000000, 0.000000000000000000, -108.3999999999999915 ) ) ;
#601 = CARTESIAN_POINT ( 'NONE',  ( 85.00000000000000000, 0.000000000000000000, -311.6000000000005343 ) ) ;
#602 = EDGE_CURVE ( 'NONE', #230, #703, #1176, .T. ) ;
#603 = CARTESIAN_POINT ( 'NONE',  ( 85.00000000000000000, 10.00000000000000000, -311.6000000000005343 ) ) ;
#604 = VERTEX_POINT ( 'NONE', #633 ) ;
#605 = CIRCLE ( 'NONE', #308, 1.600000000000002531 ) ;
#606 = CARTESIAN_POINT ( 'NONE',  ( 90.00000000000000000, 0.000000000000000000, -320.0000000000005684 ) ) ;
#607 = AXIS2_PLACEMENT_3D ( 'NONE', #1264, #1286, #638 ) ;
#608 = ADVANCED_FACE ( 'NONE', ( #430 ), #979, .F. ) ;
#609 = CARTESIAN_POINT ( 'NONE',  ( 20.00000000000000000, 10.00000000000000000, -139.9999999999999716 ) ) ;
#610 = CIRCLE ( 'NONE', #991, 1.599999999999990319 ) ;
#611 = LINE ( 'NONE', #727, #964 ) ;
#612 = DIRECTION ( 'NONE',  ( 0.000000000000000000, -1.000000000000000000, 0.000000000000000000 ) ) ;
#613 = EDGE_CURVE ( 'NONE', #352, #703, #214, .T. ) ;
#614 = EDGE_LOOP ( 'NONE', ( #1303, #665, #1, #1118 ) ) ;
#615 = DIRECTION ( 'NONE',  ( -0.7071067811865435759, 0.000000000000000000, 0.7071067811865515695 ) ) ;
#616 = CARTESIAN_POINT ( 'NONE',  ( 30.00000000000000000, 0.000000000000000000, -8.400000000000002132 ) ) ;
#617 = CARTESIAN_POINT ( 'NONE',  ( 30.00000000000000000, 10.00000000000000000, -10.00000000000000000 ) ) ;
#618 = CARTESIAN_POINT ( 'NONE',  ( 10.00000000000000000, 10.00000000000000000, -10.00000000000000000 ) ) ;
#619 = PRODUCT_DEFINITION ( 'UNKNOWN', '', #1035, #44 ) ;
#620 = ORIENTED_EDGE ( 'NONE', *, *, #229, .F. ) ;
#621 = CARTESIAN_POINT ( 'NONE',  ( 69.99999999999998579, 10.00000000000000000, -242.6007839443163334 ) ) ;
#622 = LINE ( 'NONE', #497, #696 ) ;
#623 = CYLINDRICAL_SURFACE ( 'NONE', #581, 1.600000000000004086 ) ;
#624 = VERTEX_POINT ( 'NONE', #1276 ) ;
#625 = DIRECTION ( 'NONE',  ( 0.000000000000000000, 1.000000000000000000, 0.000000000000000000 ) ) ;
#626 = DIRECTION ( 'NONE',  ( 0.000000000000000000, 0.000000000000000000, -1.000000000000000000 ) ) ;
#627 = AXIS2_PLACEMENT_3D ( 'NONE', #74, #481, #826 ) ;
#628 = FACE_BOUND ( 'NONE', #247, .T. ) ;
#629 = DIRECTION ( 'NONE',  ( -0.000000000000000000, 1.000000000000000000, -0.000000000000000000 ) ) ;
#630 = ADVANCED_FACE ( 'NONE', ( #114 ), #305, .F. ) ;
#631 = ORIENTED_EDGE ( 'NONE', *, *, #284, .F. ) ;
#632 = CARTESIAN_POINT ( 'NONE',  ( 64.99999999999998579, 10.00000000000000000, -180.3553390593279175 ) ) ;
#633 = CARTESIAN_POINT ( 'NONE',  ( 10.00000000000000000, 0.000000000000000000, -8.399999999999998579 ) ) ;
#634 = EDGE_CURVE ( 'NONE', #61, #507, #1160, .T. ) ;
#635 = CARTESIAN_POINT ( 'NONE',  ( 20.00000000000000000, 0.000000000000000000, -145.0000000000000000 ) ) ;
#636 = VERTEX_POINT ( 'NONE', #657 ) ;
#637 = EDGE_LOOP ( 'NONE', ( #1204, #751, #779, #593 ) ) ;
#638 = DIRECTION ( 'NONE',  ( 0.000000000000000000, 0.000000000000000000, -1.000000000000000000 ) ) ;
#639 = DIRECTION ( 'NONE',  ( 0.7071067811865435759, -0.000000000000000000, -0.7071067811865515695 ) ) ;
#640 = EDGE_CURVE ( 'NONE', #1312, #205, #322, .T. ) ;
#641 = DIRECTION ( 'NONE',  ( -0.000000000000000000, 1.000000000000000000, -0.000000000000000000 ) ) ;
#642 = ORIENTED_EDGE ( 'NONE', *, *, #859, .T. ) ;
#643 = ORIENTED_EDGE ( 'NONE', *, *, #1144, .F. ) ;
#644 = PRODUCT ( 'GripperArm V2', 'GripperArm V2', '', ( #7 ) ) ;
#645 = VERTEX_POINT ( 'NONE', #1182 ) ;
#646 = CARTESIAN_POINT ( 'NONE',  ( 69.99999999999998579, 10.00000000000000000, -180.3553390593279175 ) ) ;
#647 = DIRECTION ( 'NONE',  ( -0.000000000000000000, 1.000000000000000000, -0.000000000000000000 ) ) ;
#648 = ADVANCED_FACE ( 'NONE', ( #959 ), #223, .F. ) ;
#649 = STYLED_ITEM ( 'NONE', ( #1386 ), #257 ) ;
#650 = AXIS2_PLACEMENT_3D ( 'NONE', #609, #1022, #828 ) ;
#651 = VECTOR ( 'NONE', #469, 1000.000000000000000 ) ;
#652 = ORIENTED_EDGE ( 'NONE', *, *, #1183, .T. ) ;
#653 = AXIS2_PLACEMENT_3D ( 'NONE', #1239, #406, #396 ) ;
#654 = EDGE_CURVE ( 'NONE', #457, #1186, #1270, .T. ) ;
#655 = ORIENTED_EDGE ( 'NONE', *, *, #150, .F. ) ;
#656 = CARTESIAN_POINT ( 'NONE',  ( 0.000000000000000000, 10.00000000000000000, 0.000000000000000000 ) ) ;
#657 = CARTESIAN_POINT ( 'NONE',  ( 20.00000000000000000, 10.00000000000000000, -146.0322414493928136 ) ) ;
#658 = DIRECTION ( 'NONE',  ( 0.000000000000000000, -1.000000000000000000, 0.000000000000000000 ) ) ;
#659 = ORIENTED_EDGE ( 'NONE', *, *, #894, .T. ) ;
#660 = EDGE_CURVE ( 'NONE', #703, #889, #56, .T. ) ;
#661 = ORIENTED_EDGE ( 'NONE', *, *, #435, .F. ) ;
#662 = CARTESIAN_POINT ( 'NONE',  ( 10.00000000000000000, 10.00000000000000000, -10.00000000000000000 ) ) ;
#663 = LINE ( 'NONE', #224, #1031 ) ;
#664 = VERTEX_POINT ( 'NONE', #1376 ) ;
#665 = ORIENTED_EDGE ( 'NONE', *, *, #764, .T. ) ;
#666 = ORIENTED_EDGE ( 'NONE', *, *, #250, .T. ) ;
#667 = DIRECTION ( 'NONE',  ( 0.000000000000000000, 0.000000000000000000, 1.000000000000000000 ) ) ;
#668 = DIRECTION ( 'NONE',  ( 0.000000000000000000, -1.000000000000000000, 0.000000000000000000 ) ) ;
#669 = AXIS2_PLACEMENT_3D ( 'NONE', #748, #4, #442 ) ;
#670 = ORIENTED_EDGE ( 'NONE', *, *, #342, .T. ) ;
#671 = AXIS2_PLACEMENT_3D ( 'NONE', #454, #248, #367 ) ;
#672 = ORIENTED_EDGE ( 'NONE', *, *, #1005, .T. ) ;
#673 = CIRCLE ( 'NONE', #1203, 1.600000000000004086 ) ;
#674 = ORIENTED_EDGE ( 'NONE', *, *, #1170, .F. ) ;
#675 = CARTESIAN_POINT ( 'NONE',  ( 30.00000000000000000, 0.000000000000000000, -110.0000000000000000 ) ) ;
#676 = DIRECTION ( 'NONE',  ( 0.000000000000000000, 0.000000000000000000, -1.000000000000000000 ) ) ;
#677 = EDGE_CURVE ( 'NONE', #1090, #88, #699, .T. ) ;
#678 = ORIENTED_EDGE ( 'NONE', *, *, #904, .T. ) ;
#679 = CARTESIAN_POINT ( 'NONE',  ( 0.7612046748871388324, 0.000000000000000000, -152.8427612837386107 ) ) ;
#680 = ORIENTED_EDGE ( 'NONE', *, *, #909, .T. ) ;
#681 = ORIENTED_EDGE ( 'NONE', *, *, #184, .F. ) ;
#682 = DIRECTION ( 'NONE',  ( -0.000000000000000000, 1.000000000000000000, -0.000000000000000000 ) ) ;
#683 = CYLINDRICAL_SURFACE ( 'NONE', #11, 1.600000000000002531 ) ;
#684 = ADVANCED_FACE ( 'NONE', ( #966 ), #208, .F. ) ;
#685 = VERTEX_POINT ( 'NONE', #1194 ) ;
#686 = LINE ( 'NONE', #268, #470 ) ;
#687 = EDGE_LOOP ( 'NONE', ( #185, #333, #865, #8 ) ) ;
#688 = VERTEX_POINT ( 'NONE', #120 ) ;
#689 = FACE_OUTER_BOUND ( 'NONE', #1123, .T. ) ;
#690 = ADVANCED_BREP_SHAPE_REPRESENTATION ( 'GripperArm V2', ( #257, #857 ), #448 ) ;
#691 = CARTESIAN_POINT ( 'NONE',  ( 10.00000000000000000, 0.000000000000000000, -10.00000000000000000 ) ) ;
#692 = EDGE_CURVE ( 'NONE', #685, #774, #468, .T. ) ;
#693 = DIRECTION ( 'NONE',  ( -0.000000000000000000, 1.000000000000000000, -0.000000000000000000 ) ) ;
#694 = AXIS2_PLACEMENT_3D ( 'NONE', #1324, #988, #892 ) ;
#695 = CARTESIAN_POINT ( 'NONE',  ( 10.00000000000000000, 0.000000000000000000, -110.0000000000000000 ) ) ;
#696 = VECTOR ( 'NONE', #49, 1000.000000000000000 ) ;
#697 = EDGE_CURVE ( 'NONE', #1285, #118, #104, .T. ) ;
#698 = AXIS2_PLACEMENT_3D ( 'NONE', #314, #221, #1163 ) ;
#699 = CIRCLE ( 'NONE', #126, 1.600000000000002531 ) ;
#700 = VERTEX_POINT ( 'NONE', #460 ) ;
#701 = CARTESIAN_POINT ( 'NONE',  ( 85.00000000000001421, 0.000000000000000000, -245.0000000000005400 ) ) ;
#702 = CARTESIAN_POINT ( 'NONE',  ( 30.00000000000000000, 0.000000000000000000, -11.59999999999999787 ) ) ;
#703 = VERTEX_POINT ( 'NONE', #897 ) ;
#704 = CARTESIAN_POINT ( 'NONE',  ( 30.00000000000000000, 0.000000000000000000, -110.0000000000000000 ) ) ;
#705 = ORIENTED_EDGE ( 'NONE', *, *, #1144, .T. ) ;
#706 = LINE ( 'NONE', #1236, #404 ) ;
#707 = DIRECTION ( 'NONE',  ( 0.000000000000000000, 1.000000000000000000, 0.000000000000000000 ) ) ;
#708 = CARTESIAN_POINT ( 'NONE',  ( 0.000000000000000000, 0.000000000000000000, 0.000000000000000000 ) ) ;
#709 = LINE ( 'NONE', #375, #266 ) ;
#710 = EDGE_LOOP ( 'NONE', ( #274, #643, #240, #210 ) ) ;
#711 = LINE ( 'NONE', #281, #560 ) ;
#712 = CYLINDRICAL_SURFACE ( 'NONE', #466, 10.00000000000000888 ) ;
#713 = DIRECTION ( 'NONE',  ( 0.000000000000000000, 0.000000000000000000, 1.000000000000000000 ) ) ;
#714 = DIRECTION ( 'NONE',  ( -0.000000000000000000, 1.000000000000000000, -0.000000000000000000 ) ) ;
#715 = VECTOR ( 'NONE', #1233, 1000.000000000000000 ) ;
#716 = ORIENTED_EDGE ( 'NONE', *, *, #50, .F. ) ;
#717 = VECTOR ( 'NONE', #973, 1000.000000000000000 ) ;
#718 = LINE ( 'NONE', #171, #358 ) ;
#719 = CARTESIAN_POINT ( 'NONE',  ( 10.00000000000000000, 10.00000000000000000, -149.0159269600877110 ) ) ;
#720 = AXIS2_PLACEMENT_3D ( 'NONE', #1358, #936, #178 ) ;
#721 = EDGE_CURVE ( 'NONE', #94, #962, #884, .T. ) ;
#722 = LINE ( 'NONE', #389, #123 ) ;
#723 = CARTESIAN_POINT ( 'NONE',  ( 0.000000000000000000, 10.00000000000000000, 0.000000000000000000 ) ) ;
#724 = ORIENTED_EDGE ( 'NONE', *, *, #697, .T. ) ;
#725 = DIRECTION ( 'NONE',  ( 0.000000000000000000, 0.000000000000000000, -1.000000000000000000 ) ) ;
#726 = DIRECTION ( 'NONE',  ( -1.000000000000000000, 0.000000000000000000, 5.782411586589357392E-17 ) ) ;
#727 = CARTESIAN_POINT ( 'NONE',  ( 0.000000000000000000, 10.00000000000000000, 0.000000000000000000 ) ) ;
#728 = CARTESIAN_POINT ( 'NONE',  ( 10.00000000000000000, 10.00000000000000000, -110.0000000000000000 ) ) ;
#729 = ORIENTED_EDGE ( 'NONE', *, *, #1347, .F. ) ;
#730 = CARTESIAN_POINT ( 'NONE',  ( 85.00000000000001421, 10.00000000000000000, -243.4000000000005741 ) ) ;
#731 = DIRECTION ( 'NONE',  ( 0.000000000000000000, -1.000000000000000000, 0.000000000000000000 ) ) ;
#732 = LINE ( 'NONE', #1238, #237 ) ;
#733 = EDGE_CURVE ( 'NONE', #1353, #449, #577, .T. ) ;
#734 = LINE ( 'NONE', #500, #906 ) ;
#735 = EDGE_CURVE ( 'NONE', #324, #1104, #359, .T. ) ;
#736 = VERTEX_POINT ( 'NONE', #908 ) ;
#737 = DIRECTION ( 'NONE',  ( -0.000000000000000000, 1.000000000000000000, -0.000000000000000000 ) ) ;
#738 = CIRCLE ( 'NONE', #1247, 1.600000000000002531 ) ;
#739 = AXIS2_PLACEMENT_3D ( 'NONE', #1222, #588, #676 ) ;
#740 = DIRECTION ( 'NONE',  ( -0.000000000000000000, 1.000000000000000000, -0.000000000000000000 ) ) ;
#741 = AXIS2_PLACEMENT_3D ( 'NONE', #1253, #263, #1349 ) ;
#742 = AXIS2_PLACEMENT_3D ( 'NONE', #656, #434, #958 ) ;
#743 = DIRECTION ( 'NONE',  ( -2.775557561562888984E-15, 0.000000000000000000, -1.000000000000000000 ) ) ;
#744 = DIRECTION ( 'NONE',  ( 0.000000000000000000, 0.000000000000000000, -1.000000000000000000 ) ) ;
#745 = ORIENTED_EDGE ( 'NONE', *, *, #397, .T. ) ;
#746 = ORIENTED_EDGE ( 'NONE', *, *, #1229, .F. ) ;
#747 = DIRECTION ( 'NONE',  ( 0.000000000000000000, 1.000000000000000000, 0.000000000000000000 ) ) ;
#748 = CARTESIAN_POINT ( 'NONE',  ( 85.00000000000001421, 10.00000000000000000, -180.0000000000005400 ) ) ;
#749 = DIRECTION ( 'NONE',  ( 2.775557561562890957E-15, -0.000000000000000000, 1.000000000000000000 ) ) ;
#750 = ORIENTED_EDGE ( 'NONE', *, *, #190, .T. ) ;
#751 = ORIENTED_EDGE ( 'NONE', *, *, #1290, .F. ) ;
#752 = DIRECTION ( 'NONE',  ( 0.000000000000000000, 0.000000000000000000, 1.000000000000000000 ) ) ;
#753 = ADVANCED_FACE ( 'NONE', ( #586 ), #1016, .F. ) ;
#754 = CARTESIAN_POINT ( 'NONE',  ( 40.00000000000000711, 10.00000000000000000, 0.000000000000000000 ) ) ;
#755 = LINE ( 'NONE', #209, #376 ) ;
#756 = ADVANCED_FACE ( 'NONE', ( #135 ), #1189, .T. ) ;
#757 = DIRECTION ( 'NONE',  ( 1.000000000000000000, 0.000000000000000000, 0.000000000000000000 ) ) ;
#758 = EDGE_LOOP ( 'NONE', ( #21, #1013, #1066, #1015 ) ) ;
#759 = EDGE_LOOP ( 'NONE', ( #1381, #797, #838, #866 ) ) ;
#760 = DIRECTION ( 'NONE',  ( 8.326672684688666165E-15, 0.000000000000000000, -1.000000000000000000 ) ) ;
#761 = LINE ( 'NONE', #864, #1181 ) ;
#762 = DIRECTION ( 'NONE',  ( -0.000000000000000000, -0.000000000000000000, -1.000000000000000000 ) ) ;
#763 = VECTOR ( 'NONE', #1254, 1000.000000000000000 ) ;
#764 = EDGE_CURVE ( 'NONE', #889, #165, #1095, .T. ) ;
#765 = CIRCLE ( 'NONE', #607, 5.000000000000004441 ) ;
#766 = ORIENTED_EDGE ( 'NONE', *, *, #1029, .T. ) ;
#767 = CIRCLE ( 'NONE', #360, 5.000000000000004441 ) ;
#768 = ORIENTED_EDGE ( 'NONE', *, *, #863, .F. ) ;
#769 = CARTESIAN_POINT ( 'NONE',  ( 64.99999999999998579, 10.00000000000000000, -242.6007839443163334 ) ) ;
#770 = CARTESIAN_POINT ( 'NONE',  ( 29.64466094067206470, 10.00000000000000000, -145.0000000000000000 ) ) ;
#771 =( NAMED_UNIT ( * ) PLANE_ANGLE_UNIT ( ) SI_UNIT ( $, .RADIAN. ) );
#772 = ORIENTED_EDGE ( 'NONE', *, *, #397, .F. ) ;
#773 = VERTEX_POINT ( 'NONE', #570 ) ;
#774 = VERTEX_POINT ( 'NONE', #1305 ) ;
#775 = CARTESIAN_POINT ( 'NONE',  ( 50.00000000000000000, 0.000000000000000000, -115.8578643762690774 ) ) ;
#776 = DIRECTION ( 'NONE',  ( -0.000000000000000000, 1.000000000000000000, -0.000000000000000000 ) ) ;
#777 = EDGE_CURVE ( 'NONE', #636, #117, #800, .T. ) ;
#778 = EDGE_LOOP ( 'NONE', ( #254, #1023, #1062, #674 ) ) ;
#779 = ORIENTED_EDGE ( 'NONE', *, *, #547, .F. ) ;
#780 = EDGE_CURVE ( 'NONE', #688, #1230, #176, .T. ) ;
#781 = ORIENTED_EDGE ( 'NONE', *, *, #543, .T. ) ;
#782 = PLANE ( 'NONE',  #1012 ) ;
#783 = DIRECTION ( 'NONE',  ( 0.000000000000000000, 0.000000000000000000, -1.000000000000000000 ) ) ;
#784 = VECTOR ( 'NONE', #1320, 1000.000000000000000 ) ;
#785 = AXIS2_PLACEMENT_3D ( 'NONE', #144, #476, #578 ) ;
#786 = EDGE_LOOP ( 'NONE', ( #200, #957, #789, #110 ) ) ;
#787 = ORIENTED_EDGE ( 'NONE', *, *, #1387, .F. ) ;
#788 = VECTOR ( 'NONE', #847, 1000.000000000000000 ) ;
#789 = ORIENTED_EDGE ( 'NONE', *, *, #885, .F. ) ;
#790 = AXIS2_PLACEMENT_3D ( 'NONE', #728, #612, #951 ) ;
#791 = DIRECTION ( 'NONE',  ( -0.000000000000000000, 1.000000000000000000, -0.000000000000000000 ) ) ;
#792 = ADVANCED_FACE ( 'NONE', ( #689 ), #1108, .F. ) ;
#793 = CARTESIAN_POINT ( 'NONE',  ( 0.000000000000000000, 10.00000000000000000, -120.0000000000000000 ) ) ;
#794 = ORIENTED_EDGE ( 'NONE', *, *, #1128, .F. ) ;
#795 = DIRECTION ( 'NONE',  ( 0.000000000000000000, -1.000000000000000000, 0.000000000000000000 ) ) ;
#796 = DIRECTION ( 'NONE',  ( -0.000000000000000000, 1.000000000000000000, -0.000000000000000000 ) ) ;
#797 = ORIENTED_EDGE ( 'NONE', *, *, #970, .T. ) ;
#798 = VERTEX_POINT ( 'NONE', #475 ) ;
#799 = ADVANCED_FACE ( 'NONE', ( #1200 ), #565, .F. ) ;
#800 = LINE ( 'NONE', #1214, #1097 ) ;
#801 = CARTESIAN_POINT ( 'NONE',  ( 33.18019484660480600, 10.00000000000000000, -141.4644660940672622 ) ) ;
#802 = ADVANCED_FACE ( 'NONE', ( #554 ), #994, .F. ) ;
#803 = EDGE_LOOP ( 'NONE', ( #414, #219 ) ) ;
#804 = DIRECTION ( 'NONE',  ( 0.000000000000000000, 0.000000000000000000, 1.000000000000000000 ) ) ;
#805 = VERTEX_POINT ( 'NONE', #450 ) ;
#806 = CARTESIAN_POINT ( 'NONE',  ( 10.00000000000000000, 0.000000000000000000, -10.00000000000000000 ) ) ;
#807 = CYLINDRICAL_SURFACE ( 'NONE', #739, 10.00000000000000888 ) ;
#808 = ORIENTED_EDGE ( 'NONE', *, *, #894, .F. ) ;
#809 = AXIS2_PLACEMENT_3D ( 'NONE', #556, #43, #995 ) ;
#810 = DIRECTION ( 'NONE',  ( -0.000000000000000000, 1.000000000000000000, -0.000000000000000000 ) ) ;
#811 = ADVANCED_FACE ( 'NONE', ( #350 ), #782, .F. ) ;
#812 = VECTOR ( 'NONE', #639, 1000.000000000000000 ) ;
#813 = CIRCLE ( 'NONE', #535, 1.600000000000002531 ) ;
#814 = AXIS2_PLACEMENT_3D ( 'NONE', #946, #1363, #409 ) ;
#815 = ORIENTED_EDGE ( 'NONE', *, *, #543, .F. ) ;
#816 = CARTESIAN_POINT ( 'NONE',  ( 85.00000000000000000, 0.000000000000000000, -308.4000000000005457 ) ) ;
#817 = CARTESIAN_POINT ( 'NONE',  ( 30.00000000000000000, 10.00000000000000000, -110.0000000000000000 ) ) ;
#818 = DIRECTION ( 'NONE',  ( 0.000000000000000000, 1.000000000000000000, 0.000000000000000000 ) ) ;
#819 = DIRECTION ( 'NONE',  ( 0.000000000000000000, 0.000000000000000000, -1.000000000000000000 ) ) ;
#820 = ORIENTED_EDGE ( 'NONE', *, *, #29, .F. ) ;
#821 = FACE_OUTER_BOUND ( 'NONE', #67, .T. ) ;
#822 = DIRECTION ( 'NONE',  ( 0.000000000000000000, 0.000000000000000000, -1.000000000000000000 ) ) ;
#823 = CARTESIAN_POINT ( 'NONE',  ( 20.38060233744356964, 0.000000000000000000, -147.9456586112182492 ) ) ;
#824 = DIRECTION ( 'NONE',  ( 0.000000000000000000, 0.000000000000000000, -1.000000000000000000 ) ) ;
#825 = ORIENTED_EDGE ( 'NONE', *, *, #777, .T. ) ;
#826 = DIRECTION ( 'NONE',  ( 0.000000000000000000, 0.000000000000000000, -1.000000000000000000 ) ) ;
#827 = EDGE_CURVE ( 'NONE', #568, #624, #1140, .T. ) ;
#828 = DIRECTION ( 'NONE',  ( -1.000000000000000000, 0.000000000000000000, -0.000000000000000000 ) ) ;
#829 = CARTESIAN_POINT ( 'NONE',  ( 33.18019484660480600, 0.000000000000000000, -141.4644660940672622 ) ) ;
#830 = CARTESIAN_POINT ( 'NONE',  ( 40.00000000000000711, 10.00000000000000000, -10.00000000000000000 ) ) ;
#831 = VECTOR ( 'NONE', #658, 1000.000000000000000 ) ;
#832 = VERTEX_POINT ( 'NONE', #1231 ) ;
#833 = LINE ( 'NONE', #606, #1034 ) ;
#834 = DIRECTION ( 'NONE',  ( 0.000000000000000000, 0.000000000000000000, 1.000000000000000000 ) ) ;
#835 = CIRCLE ( 'NONE', #337, 1.599999999999990319 ) ;
#836 = FACE_BOUND ( 'NONE', #445, .T. ) ;
#837 = LINE ( 'NONE', #723, #587 ) ;
#838 = ORIENTED_EDGE ( 'NONE', *, *, #654, .F. ) ;
#839 = VERTEX_POINT ( 'NONE', #621 ) ;
#840 = CARTESIAN_POINT ( 'NONE',  ( 10.00000000000000000, 10.00000000000000000, -8.399999999999998579 ) ) ;
#841 = EDGE_CURVE ( 'NONE', #700, #798, #489, .T. ) ;
#842 = LINE ( 'NONE', #1038, #763 ) ;
#843 = DIRECTION ( 'NONE',  ( -0.7071067811865477948, 0.000000000000000000, 0.7071067811865473507 ) ) ;
#844 = DIRECTION ( 'NONE',  ( 0.000000000000000000, 0.000000000000000000, -1.000000000000000000 ) ) ;
#845 = EDGE_CURVE ( 'NONE', #773, #645, #1143, .T. ) ;
#846 = ORIENTED_EDGE ( 'NONE', *, *, #524, .F. ) ;
#847 = DIRECTION ( 'NONE',  ( -0.000000000000000000, 1.000000000000000000, -0.000000000000000000 ) ) ;
#848 = CARTESIAN_POINT ( 'NONE',  ( 10.00000000000000000, 0.000000000000000000, -110.0000000000000000 ) ) ;
#849 = CARTESIAN_POINT ( 'NONE',  ( 42.92893218813448897, 10.00000000000000000, -122.9289321881345103 ) ) ;
#850 = LINE ( 'NONE', #1268, #1361 ) ;
#851 = EDGE_CURVE ( 'NONE', #896, #507, #706, .T. ) ;
#852 = VERTEX_POINT ( 'NONE', #180 ) ;
#853 = DIRECTION ( 'NONE',  ( 0.000000000000000000, 0.000000000000000000, 1.000000000000000000 ) ) ;
#854 = AXIS2_PLACEMENT_3D ( 'NONE', #1297, #1156, #193 ) ;
#855 = DIRECTION ( 'NONE',  ( 0.000000000000000000, -1.000000000000000000, 0.000000000000000000 ) ) ;
#856 = CIRCLE ( 'NONE', #1225, 5.000000000000004441 ) ;
#857 = AXIS2_PLACEMENT_3D ( 'NONE', #1190, #116, #757 ) ;
#858 = DIRECTION ( 'NONE',  ( 1.000000000000000000, 0.000000000000000000, -2.775557561562890957E-15 ) ) ;
#859 = EDGE_CURVE ( 'NONE', #700, #890, #496, .T. ) ;
#860 = ORIENTED_EDGE ( 'NONE', *, *, #232, .F. ) ;
#861 = ORIENTED_EDGE ( 'NONE', *, *, #634, .T. ) ;
#862 = CARTESIAN_POINT ( 'NONE',  ( 29.64466094067206470, 10.00000000000000000, -145.0000000000000000 ) ) ;
#863 = EDGE_CURVE ( 'NONE', #165, #1087, #833, .T. ) ;
#864 = CARTESIAN_POINT ( 'NONE',  ( 90.00000000000000000, 10.00000000000000000, -320.0000000000005684 ) ) ;
#865 = ORIENTED_EDGE ( 'NONE', *, *, #382, .F. ) ;
#866 = ORIENTED_EDGE ( 'NONE', *, *, #582, .F. ) ;
#867 = CARTESIAN_POINT ( 'NONE',  ( 20.00000000000000000, 0.000000000000000000, -146.0322414493928136 ) ) ;
#868 = CYLINDRICAL_SURFACE ( 'NONE', #987, 1.599999999999990319 ) ;
#869 = ADVANCED_FACE ( 'NONE', ( #1133 ), #166, .T. ) ;
#870 = DIRECTION ( 'NONE',  ( 0.7071067811865477948, -0.000000000000000000, -0.7071067811865473507 ) ) ;
#871 = ORIENTED_EDGE ( 'NONE', *, *, #574, .T. ) ;
#872 = EDGE_LOOP ( 'NONE', ( #191, #539, #131, #343 ) ) ;
#873 = LINE ( 'NONE', #1294, #199 ) ;
#874 = CIRCLE ( 'NONE', #1357, 1.600000000000004086 ) ;
#875 = DIRECTION ( 'NONE',  ( 0.000000000000000000, 0.000000000000000000, 1.000000000000000000 ) ) ;
#876 = VECTOR ( 'NONE', #1017, 1000.000000000000000 ) ;
#877 = CARTESIAN_POINT ( 'NONE',  ( 68.53553390593272354, 0.000000000000000000, -176.8198051533951798 ) ) ;
#878 = CIRCLE ( 'NONE', #264, 1.599999999999990319 ) ;
#879 = CIRCLE ( 'NONE', #1275, 1.600000000000004086 ) ;
#880 = ORIENTED_EDGE ( 'NONE', *, *, #527, .F. ) ;
#881 = CIRCLE ( 'NONE', #814, 1.599999999999990319 ) ;
#882 = VERTEX_POINT ( 'NONE', #600 ) ;
#883 = VERTEX_POINT ( 'NONE', #1242 ) ;
#884 = LINE ( 'NONE', #31, #651 ) ;
#885 = EDGE_CURVE ( 'NONE', #1106, #10, #291, .T. ) ;
#886 = CARTESIAN_POINT ( 'NONE',  ( 30.00000000000000711, 0.000000000000000000, -10.00000000000000000 ) ) ;
#887 = ORIENTED_EDGE ( 'NONE', *, *, #764, .F. ) ;
#888 = EDGE_CURVE ( 'NONE', #736, #805, #503, .T. ) ;
#889 = VERTEX_POINT ( 'NONE', #938 ) ;
#890 = VERTEX_POINT ( 'NONE', #927 ) ;
#891 = DIRECTION ( 'NONE',  ( 0.000000000000000000, 0.000000000000000000, 1.000000000000000000 ) ) ;
#892 = DIRECTION ( 'NONE',  ( 0.000000000000000000, 0.000000000000000000, -1.000000000000000000 ) ) ;
#893 = VERTEX_POINT ( 'NONE', #399 ) ;
#894 = EDGE_CURVE ( 'NONE', #893, #484, #711, .T. ) ;
#895 = ORIENTED_EDGE ( 'NONE', *, *, #660, .F. ) ;
#896 = VERTEX_POINT ( 'NONE', #816 ) ;
#897 = CARTESIAN_POINT ( 'NONE',  ( 87.07106781186553235, 10.00000000000000000, -167.0710678118660724 ) ) ;
#898 = DIRECTION ( 'NONE',  ( -0.3826834323650905589, -0.000000000000000000, 0.9238795325112864054 ) ) ;
#899 = CIRCLE ( 'NONE', #1335, 5.000000000000004441 ) ;
#900 = AXIS2_PLACEMENT_3D ( 'NONE', #1392, #731, #1288 ) ;
#901 = CARTESIAN_POINT ( 'NONE',  ( 33.18019484660480600, 10.00000000000000000, -141.4644660940672622 ) ) ;
#902 = CARTESIAN_POINT ( 'NONE',  ( 30.00000000000000000, 10.00000000000000000, -110.0000000000000000 ) ) ;
#903 = VECTOR ( 'NONE', #127, 1000.000000000000000 ) ;
#904 = EDGE_CURVE ( 'NONE', #893, #117, #78, .T. ) ;
#905 = EDGE_LOOP ( 'NONE', ( #211, #781 ) ) ;
#906 = VECTOR ( 'NONE', #515, 1000.000000000000000 ) ;
#907 = ORIENTED_EDGE ( 'NONE', *, *, #5, .T. ) ;
#908 = CARTESIAN_POINT ( 'NONE',  ( 76.68178637919295682, 0.000000000000000000, -320.0000000000005116 ) ) ;
#909 = EDGE_CURVE ( 'NONE', #165, #352, #1338, .T. ) ;
#910 = DIRECTION ( 'NONE',  ( 0.000000000000000000, 0.000000000000000000, -1.000000000000000000 ) ) ;
#911 = LINE ( 'NONE', #258, #1292 ) ;
#912 = DIRECTION ( 'NONE',  ( -0.000000000000000000, 1.000000000000000000, -0.000000000000000000 ) ) ;
#913 = ORIENTED_EDGE ( 'NONE', *, *, #1267, .F. ) ;
#914 = CARTESIAN_POINT ( 'NONE',  ( 64.99999999999998579, 10.00000000000000000, -180.3553390593279175 ) ) ;
#915 = CARTESIAN_POINT ( 'NONE',  ( 30.00000000000000000, 10.00000000000000000, -8.400000000000002132 ) ) ;
#916 = EDGE_CURVE ( 'NONE', #426, #377, #718, .T. ) ;
#917 = ORIENTED_EDGE ( 'NONE', *, *, #229, .T. ) ;
#918 = DIRECTION ( 'NONE',  ( -0.3826834323650905589, -0.000000000000000000, 0.9238795325112864054 ) ) ;
#919 = ORIENTED_EDGE ( 'NONE', *, *, #777, .F. ) ;
#920 = DIRECTION ( 'NONE',  ( 0.000000000000000000, 0.000000000000000000, 1.000000000000000000 ) ) ;
#921 = DIRECTION ( 'NONE',  ( 0.000000000000000000, 0.000000000000000000, 1.000000000000000000 ) ) ;
#922 = DIRECTION ( 'NONE',  ( 0.9238795325112865164, -0.000000000000000000, 0.3826834323650906144 ) ) ;
#923 = MECHANICAL_DESIGN_GEOMETRIC_PRESENTATION_REPRESENTATION (  '', ( #649 ), #331 ) ;
#924 = DIRECTION ( 'NONE',  ( 0.000000000000000000, -1.000000000000000000, 0.000000000000000000 ) ) ;
#925 = AXIS2_PLACEMENT_3D ( 'NONE', #1195, #668, #1096 ) ;
#926 = VERTEX_POINT ( 'NONE', #1027 ) ;
#927 = CARTESIAN_POINT ( 'NONE',  ( 85.00000000000001421, 10.00000000000000000, -246.6000000000005343 ) ) ;
#928 = DIRECTION ( 'NONE',  ( -1.000000000000000000, -0.000000000000000000, 2.775557561562890957E-15 ) ) ;
#929 = CARTESIAN_POINT ( 'NONE',  ( 69.99999999999998579, 10.00000000000000000, -178.2842712474624420 ) ) ;
#930 =( NAMED_UNIT ( * ) PLANE_ANGLE_UNIT ( ) SI_UNIT ( $, .RADIAN. ) );
#931 = EDGE_CURVE ( 'NONE', #73, #736, #54, .T. ) ;
#932 = EDGE_LOOP ( 'NONE', ( #139, #313, #452, #724, #969, #408, #1272, #871, #267, #134, #51, #517, #453, #45 ) ) ;
#933 = CARTESIAN_POINT ( 'NONE',  ( 76.68178637919295682, 10.00000000000000000, -320.0000000000005116 ) ) ;
#934 = DIRECTION ( 'NONE',  ( 0.000000000000000000, 0.000000000000000000, -1.000000000000000000 ) ) ;
#935 = FACE_BOUND ( 'NONE', #1367, .T. ) ;
#936 = DIRECTION ( 'NONE',  ( 0.000000000000000000, -1.000000000000000000, 0.000000000000000000 ) ) ;
#937 = ORIENTED_EDGE ( 'NONE', *, *, #348, .T. ) ;
#938 = CARTESIAN_POINT ( 'NONE',  ( 90.00000000000001421, 10.00000000000000000, -174.1421356237314910 ) ) ;
#939 = CARTESIAN_POINT ( 'NONE',  ( 30.00000000000000711, 10.00000000000000000, -10.00000000000000000 ) ) ;
#940 = CYLINDRICAL_SURFACE ( 'NONE', #1199, 1.599999999999997202 ) ;
#941 = DIRECTION ( 'NONE',  ( 0.000000000000000000, -1.000000000000000000, 0.000000000000000000 ) ) ;
#942 = CIRCLE ( 'NONE', #809, 1.599999999999997202 ) ;
#943 = EDGE_CURVE ( 'NONE', #883, #1081, #856, .T. ) ;
#944 = ORIENTED_EDGE ( 'NONE', *, *, #1089, .F. ) ;
#945 = VECTOR ( 'NONE', #461, 1000.000000000000000 ) ;
#946 = CARTESIAN_POINT ( 'NONE',  ( 85.00000000000001421, 0.000000000000000000, -245.0000000000005400 ) ) ;
#947 = VECTOR ( 'NONE', #270, 1000.000000000000000 ) ;
#948 = LINE ( 'NONE', #1260, #1359 ) ;
#949 = ADVANCED_FACE ( 'NONE', ( #821 ), #372, .F. ) ;
#950 = PLANE ( 'NONE',  #400 ) ;
#951 = DIRECTION ( 'NONE',  ( 0.000000000000000000, 0.000000000000000000, -1.000000000000000000 ) ) ;
#952 = ORIENTED_EDGE ( 'NONE', *, *, #1029, .F. ) ;
#953 = LINE ( 'NONE', #95, #1202 ) ;
#954 = DIRECTION ( 'NONE',  ( -0.000000000000000000, 1.000000000000000000, -0.000000000000000000 ) ) ;
#955 = DIRECTION ( 'NONE',  ( 0.000000000000000000, -1.000000000000000000, 0.000000000000000000 ) ) ;
#956 = CARTESIAN_POINT ( 'NONE',  ( 69.99999999999998579, 10.00000000000000000, -267.7374814049455267 ) ) ;
#957 = ORIENTED_EDGE ( 'NONE', *, *, #1330, .T. ) ;
#958 = DIRECTION ( 'NONE',  ( 0.000000000000000000, -0.000000000000000000, -1.000000000000000000 ) ) ;
#959 = FACE_OUTER_BOUND ( 'NONE', #536, .T. ) ;
#960 = CARTESIAN_POINT ( 'NONE',  ( 64.99999999999998579, 0.000000000000000000, -242.6007839443163334 ) ) ;
#961 = ORIENTED_EDGE ( 'NONE', *, *, #1005, .F. ) ;
#962 = VERTEX_POINT ( 'NONE', #518 ) ;
#963 = FACE_OUTER_BOUND ( 'NONE', #1009, .T. ) ;
#964 = VECTOR ( 'NONE', #412, 1000.000000000000000 ) ;
#965 = AXIS2_PLACEMENT_3D ( 'NONE', #388, #55, #834 ) ;
#966 = FACE_OUTER_BOUND ( 'NONE', #758, .T. ) ;
#967 = AXIS2_PLACEMENT_3D ( 'NONE', #1040, #1158, #288 ) ;
#968 = SURFACE_STYLE_FILL_AREA ( #1377 ) ;
#969 = ORIENTED_EDGE ( 'NONE', *, *, #1373, .T. ) ;
#970 = EDGE_CURVE ( 'NONE', #568, #1186, #953, .T. ) ;
#971 = ORIENTED_EDGE ( 'NONE', *, *, #125, .F. ) ;
#972 = DIRECTION ( 'NONE',  ( -0.000000000000000000, 1.000000000000000000, -0.000000000000000000 ) ) ;
#973 = DIRECTION ( 'NONE',  ( -0.000000000000000000, 1.000000000000000000, -0.000000000000000000 ) ) ;
#974 = LINE ( 'NONE', #1393, #1094 ) ;
#975 = APPLICATION_PROTOCOL_DEFINITION ( 'draft international standard', 'automotive_design', 1998, #1011 ) ;
#976 = ORIENTED_EDGE ( 'NONE', *, *, #1327, .F. ) ;
#977 = EDGE_LOOP ( 'NONE', ( #1049, #341, #652, #590 ) ) ;
#978 = LINE ( 'NONE', #598, #128 ) ;
#979 = PLANE ( 'NONE',  #510 ) ;
#980 = SURFACE_STYLE_USAGE ( .BOTH. , #1085 ) ;
#981 = ORIENTED_EDGE ( 'NONE', *, *, #342, .F. ) ;
#982 = VERTEX_POINT ( 'NONE', #1175 ) ;
#983 = EDGE_CURVE ( 'NONE', #926, #839, #765, .T. ) ;
#984 = EDGE_LOOP ( 'NONE', ( #705, #583 ) ) ;
#985 = VECTOR ( 'NONE', #1201, 1000.000000000000000 ) ;
#986 = CARTESIAN_POINT ( 'NONE',  ( 25.00000000000000000, 10.00000000000000000, -146.0322414493928136 ) ) ;
#987 = AXIS2_PLACEMENT_3D ( 'NONE', #1164, #740, #875 ) ;
#988 = DIRECTION ( 'NONE',  ( 0.000000000000000000, -1.000000000000000000, 0.000000000000000000 ) ) ;
#989 = EDGE_CURVE ( 'NONE', #324, #484, #155, .T. ) ;
#990 = AXIS2_PLACEMENT_3D ( 'NONE', #775, #682, #255 ) ;
#991 = AXIS2_PLACEMENT_3D ( 'NONE', #1032, #1256, #824 ) ;
#992 = EDGE_LOOP ( 'NONE', ( #356, #552 ) ) ;
#993 = ORIENTED_EDGE ( 'NONE', *, *, #1216, .F. ) ;
#994 = CYLINDRICAL_SURFACE ( 'NONE', #1298, 1.599999999999990319 ) ;
#995 = DIRECTION ( 'NONE',  ( 0.000000000000000000, 0.000000000000000000, 1.000000000000000000 ) ) ;
#996 = ADVANCED_FACE ( 'NONE', ( #963 ), #105, .F. ) ;
#997 = VERTEX_POINT ( 'NONE', #213 ) ;
#998 = ORIENTED_EDGE ( 'NONE', *, *, #1391, .T. ) ;
#999 = CARTESIAN_POINT ( 'NONE',  ( 69.99999999999998579, 10.00000000000000000, -178.2842712474624420 ) ) ;
#1000 = DIRECTION ( 'NONE',  ( -0.000000000000000000, 1.000000000000000000, -0.000000000000000000 ) ) ;
#1001 = EDGE_CURVE ( 'NONE', #624, #568, #878, .T. ) ;
#1002 = DIRECTION ( 'NONE',  ( -0.000000000000000000, 1.000000000000000000, -0.000000000000000000 ) ) ;
#1003 = CARTESIAN_POINT ( 'NONE',  ( 0.000000000000000000, 0.000000000000000000, -151.0050506338842808 ) ) ;
#1004 = VERTEX_POINT ( 'NONE', #646 ) ;
#1005 = EDGE_CURVE ( 'NONE', #1081, #636, #192, .T. ) ;
#1006 = DIRECTION ( 'NONE',  ( 0.000000000000000000, 0.000000000000000000, 1.000000000000000000 ) ) ;
#1007 = DIRECTION ( 'NONE',  ( 0.000000000000000000, -1.000000000000000000, 0.000000000000000000 ) ) ;
#1008 = CIRCLE ( 'NONE', #900, 10.00000000000000888 ) ;
#1009 = EDGE_LOOP ( 'NONE', ( #1307, #1173, #1252, #794 ) ) ;
#1010 = LINE ( 'NONE', #1003, #516 ) ;
#1011 = APPLICATION_CONTEXT ( 'automotive_design' ) ;
#1012 = AXIS2_PLACEMENT_3D ( 'NONE', #241, #1220, #615 ) ;
#1013 = ORIENTED_EDGE ( 'NONE', *, *, #22, .F. ) ;
#1014 = VECTOR ( 'NONE', #912, 1000.000000000000000 ) ;
#1015 = ORIENTED_EDGE ( 'NONE', *, *, #348, .F. ) ;
#1016 = CYLINDRICAL_SURFACE ( 'NONE', #335, 5.000000000000004441 ) ;
#1017 = DIRECTION ( 'NONE',  ( -0.000000000000000000, 1.000000000000000000, -0.000000000000000000 ) ) ;
#1018 = FACE_OUTER_BOUND ( 'NONE', #374, .T. ) ;
#1019 = DIRECTION ( 'NONE',  ( 0.000000000000000000, -1.000000000000000000, 0.000000000000000000 ) ) ;
#1020 = EDGE_LOOP ( 'NONE', ( #1178, #30 ) ) ;
#1021 = DIRECTION ( 'NONE',  ( 0.000000000000000000, 1.000000000000000000, 0.000000000000000000 ) ) ;
#1022 = DIRECTION ( 'NONE',  ( 0.000000000000000000, 0.000000000000000000, -1.000000000000000000 ) ) ;
#1023 = ORIENTED_EDGE ( 'NONE', *, *, #189, .F. ) ;
#1024 = FACE_OUTER_BOUND ( 'NONE', #1056, .T. ) ;
#1025 = EDGE_CURVE ( 'NONE', #495, #61, #1075, .T. ) ;
#1026 = ORIENTED_EDGE ( 'NONE', *, *, #1128, .T. ) ;
#1027 = CARTESIAN_POINT ( 'NONE',  ( 60.38060233744354832, 10.00000000000000000, -244.5142011061417406 ) ) ;
#1028 = CARTESIAN_POINT ( 'NONE',  ( 80.00000000000001421, 10.00000000000000000, -174.1421356237314910 ) ) ;
#1029 = EDGE_CURVE ( 'NONE', #604, #1333, #813, .T. ) ;
#1030 = PLANE ( 'NONE',  #1054 ) ;
#1031 = VECTOR ( 'NONE', #203, 1000.000000000000000 ) ;
#1032 = CARTESIAN_POINT ( 'NONE',  ( 85.00000000000001421, 10.00000000000000000, -245.0000000000005400 ) ) ;
#1033 = CIRCLE ( 'NONE', #584, 1.599999999999990319 ) ;
#1034 = VECTOR ( 'NONE', #275, 1000.000000000000000 ) ;
#1035 = PRODUCT_DEFINITION_FORMATION_WITH_SPECIFIED_SOURCE ( 'ANY', '', #644, .NOT_KNOWN. ) ;
#1036 = ORIENTED_EDGE ( 'NONE', *, *, #527, .T. ) ;
#1037 = CARTESIAN_POINT ( 'NONE',  ( 69.99999999999998579, 0.000000000000000000, -267.7374814049455267 ) ) ;
#1038 = CARTESIAN_POINT ( 'NONE',  ( 0.000000000000000000, 10.00000000000000000, -149.0159269600877110 ) ) ;
#1039 = FACE_BOUND ( 'NONE', #1154, .T. ) ;
#1040 = CARTESIAN_POINT ( 'NONE',  ( 85.00000000000000000, 0.000000000000000000, -310.0000000000005684 ) ) ;
#1041 = EDGE_CURVE ( 'NONE', #997, #225, #1079, .T. ) ;
#1042 = ORIENTED_EDGE ( 'NONE', *, *, #190, .F. ) ;
#1043 = CARTESIAN_POINT ( 'NONE',  ( 0.000000000000000000, 0.000000000000000000, 0.000000000000000000 ) ) ;
#1044 = CARTESIAN_POINT ( 'NONE',  ( 29.64466094067206114, 10.00000000000000000, -139.9999999999999716 ) ) ;
#1045 = FACE_OUTER_BOUND ( 'NONE', #311, .T. ) ;
#1046 = EDGE_CURVE ( 'NONE', #1004, #1104, #767, .T. ) ;
#1047 = CARTESIAN_POINT ( 'NONE',  ( 80.00000000000000000, 0.000000000000000000, -310.0000000000005116 ) ) ;
#1048 = EDGE_CURVE ( 'NONE', #645, #1258, #1063, .T. ) ;
#1049 = ORIENTED_EDGE ( 'NONE', *, *, #85, .F. ) ;
#1050 = DIRECTION ( 'NONE',  ( -0.000000000000000000, 1.000000000000000000, -0.000000000000000000 ) ) ;
#1051 = DIRECTION ( 'NONE',  ( -0.000000000000000000, 1.000000000000000000, -0.000000000000000000 ) ) ;
#1052 = CARTESIAN_POINT ( 'NONE',  ( 10.00000000000000000, 0.000000000000000000, -110.0000000000000000 ) ) ;
#1053 =( LENGTH_UNIT ( ) NAMED_UNIT ( * ) SI_UNIT ( .MILLI., .METRE. ) );
#1054 = AXIS2_PLACEMENT_3D ( 'NONE', #708, #77, #287 ) ;
#1055 = CIRCLE ( 'NONE', #153, 10.00000000000000000 ) ;
#1056 = EDGE_LOOP ( 'NONE', ( #655, #672, #825, #917 ) ) ;
#1057 = VECTOR ( 'NONE', #737, 1000.000000000000000 ) ;
#1058 = FACE_BOUND ( 'NONE', #253, .T. ) ;
#1059 = CARTESIAN_POINT ( 'NONE',  ( 10.00000000000000000, 10.00000000000000000, -10.00000000000000000 ) ) ;
#1060 = CARTESIAN_POINT ( 'NONE',  ( 30.00000000000000000, 0.000000000000000000, -110.0000000000000000 ) ) ;
#1061 = CYLINDRICAL_SURFACE ( 'NONE', #1141, 1.599999999999997202 ) ;
#1062 = ORIENTED_EDGE ( 'NONE', *, *, #369, .F. ) ;
#1063 = LINE ( 'NONE', #420, #563 ) ;
#1064 = DIRECTION ( 'NONE',  ( 9.251858538542971581E-17, 0.000000000000000000, 1.000000000000000000 ) ) ;
#1065 = FILL_AREA_STYLE_COLOUR ( '', #260 ) ;
#1066 = ORIENTED_EDGE ( 'NONE', *, *, #1135, .F. ) ;
#1067 = EDGE_LOOP ( 'NONE', ( #631, #1191, #1126, #666 ) ) ;
#1068 = VERTEX_POINT ( 'NONE', #730 ) ;
#1069 = DIRECTION ( 'NONE',  ( 0.000000000000000000, 0.000000000000000000, -1.000000000000000000 ) ) ;
#1070 = CARTESIAN_POINT ( 'NONE',  ( 85.00000000000001421, 0.000000000000000000, -178.4000000000005457 ) ) ;
#1071 = CARTESIAN_POINT ( 'NONE',  ( 10.00000000000000000, 10.00000000000000000, -10.00000000000000000 ) ) ;
#1072 = ADVANCED_FACE ( 'NONE', ( #1383, #1180, #1058, #1390, #206, #415, #83, #89, #523 ), #1375, .F. ) ;
#1073 = EDGE_LOOP ( 'NONE', ( #124, #1036 ) ) ;
#1074 = ORIENTED_EDGE ( 'NONE', *, *, #1046, .T. ) ;
#1075 = LINE ( 'NONE', #201, #1057 ) ;
#1076 = VECTOR ( 'NONE', #1371, 1000.000000000000000 ) ;
#1077 = AXIS2_PLACEMENT_3D ( 'NONE', #381, #726, #1244 ) ;
#1078 = DIRECTION ( 'NONE',  ( -5.782411586589357392E-17, 0.000000000000000000, -1.000000000000000000 ) ) ;
#1079 = CIRCLE ( 'NONE', #446, 10.00000000000000888 ) ;
#1080 = VECTOR ( 'NONE', #113, 1000.000000000000000 ) ;
#1081 = VERTEX_POINT ( 'NONE', #867 ) ;
#1082 = ORIENTED_EDGE ( 'NONE', *, *, #1301, .F. ) ;
#1083 = CARTESIAN_POINT ( 'NONE',  ( 10.00000000000000000, 0.000000000000000000, -10.00000000000000000 ) ) ;
#1084 = DIRECTION ( 'NONE',  ( -0.000000000000000000, 1.000000000000000000, -0.000000000000000000 ) ) ;
#1085 = SURFACE_SIDE_STYLE ('',( #968 ) ) ;
#1086 = EDGE_CURVE ( 'NONE', #798, #1068, #429, .T. ) ;
#1087 = VERTEX_POINT ( 'NONE', #321 ) ;
#1088 = ORIENTED_EDGE ( 'NONE', *, *, #1041, .F. ) ;
#1089 = EDGE_CURVE ( 'NONE', #798, #700, #881, .T. ) ;
#1090 = VERTEX_POINT ( 'NONE', #840 ) ;
#1091 = DIRECTION ( 'NONE',  ( 0.000000000000000000, 1.000000000000000000, 0.000000000000000000 ) ) ;
#1092 = EDGE_LOOP ( 'NONE', ( #366, #545, #398, #907 ) ) ;
#1093 = EDGE_LOOP ( 'NONE', ( #746, #477, #993, #141 ) ) ;
#1094 = VECTOR ( 'NONE', #870, 999.9999999999998863 ) ;
#1095 = LINE ( 'NONE', #1323, #903 ) ;
#1096 = DIRECTION ( 'NONE',  ( 0.000000000000000000, 0.000000000000000000, -1.000000000000000000 ) ) ;
#1097 = VECTOR ( 'NONE', #345, 1000.000000000000000 ) ;
#1098 = AXIS2_PLACEMENT_3D ( 'NONE', #1227, #1111, #1340 ) ;
#1099 = ORIENTED_EDGE ( 'NONE', *, *, #827, .T. ) ;
#1100 = EDGE_LOOP ( 'NONE', ( #160, #332 ) ) ;
#1101 = ADVANCED_FACE ( 'NONE', ( #1259 ), #298, .F. ) ;
#1102 = CARTESIAN_POINT ( 'NONE',  ( 0.000000000000000000, 10.00000000000000000, -151.0050506338842808 ) ) ;
#1103 = CYLINDRICAL_SURFACE ( 'NONE', #174, 1.599999999999990319 ) ;
#1104 = VERTEX_POINT ( 'NONE', #1124 ) ;
#1105 = CARTESIAN_POINT ( 'NONE',  ( 10.00000000000000000, 0.000000000000000000, -110.0000000000000000 ) ) ;
#1106 = VERTEX_POINT ( 'NONE', #1211 ) ;
#1107 = ORIENTED_EDGE ( 'NONE', *, *, #1089, .T. ) ;
#1108 = CYLINDRICAL_SURFACE ( 'NONE', #220, 1.600000000000004086 ) ;
#1109 = PLANE ( 'NONE',  #1224 ) ;
#1110 = CARTESIAN_POINT ( 'NONE',  ( 90.00000000000000000, 10.00000000000000000, -310.0000000000005116 ) ) ;
#1111 = DIRECTION ( 'NONE',  ( -0.000000000000000000, 1.000000000000000000, -0.000000000000000000 ) ) ;
#1112 = EDGE_LOOP ( 'NONE', ( #458, #642, #344, #1311 ) ) ;
#1113 = ORIENTED_EDGE ( 'NONE', *, *, #845, .F. ) ;
#1114 = CARTESIAN_POINT ( 'NONE',  ( 30.00000000000000000, 0.000000000000000000, -110.0000000000000000 ) ) ;
#1115 = DIRECTION ( 'NONE',  ( -0.000000000000000000, 1.000000000000000000, -0.000000000000000000 ) ) ;
#1116 = CIRCLE ( 'NONE', #218, 5.000000000000004441 ) ;
#1117 = AXIS2_PLACEMENT_3D ( 'NONE', #719, #1051, #482 ) ;
#1118 = ORIENTED_EDGE ( 'NONE', *, *, #38, .T. ) ;
#1119 = DIRECTION ( 'NONE',  ( 0.000000000000000000, -1.000000000000000000, 0.000000000000000000 ) ) ;
#1120 = ORIENTED_EDGE ( 'NONE', *, *, #1267, .T. ) ;
#1121 = DIRECTION ( 'NONE',  ( -0.000000000000000000, 1.000000000000000000, -0.000000000000000000 ) ) ;
#1122 = DIRECTION ( 'NONE',  ( 0.000000000000000000, -1.000000000000000000, 0.000000000000000000 ) ) ;
#1123 = EDGE_LOOP ( 'NONE', ( #1293, #1142, #1212, #880 ) ) ;
#1124 = CARTESIAN_POINT ( 'NONE',  ( 68.53553390593272354, 10.00000000000000000, -176.8198051533951798 ) ) ;
#1125 = ADVANCED_FACE ( 'NONE', ( #46 ), #158, .F. ) ;
#1126 = ORIENTED_EDGE ( 'NONE', *, *, #735, .T. ) ;
#1127 = CARTESIAN_POINT ( 'NONE',  ( 85.00000000000001421, 0.000000000000000000, -246.6000000000005343 ) ) ;
#1128 = EDGE_CURVE ( 'NONE', #1186, #457, #835, .T. ) ;
#1129 = FACE_OUTER_BOUND ( 'NONE', #1343, .T. ) ;
#1130 = CARTESIAN_POINT ( 'NONE',  ( 10.00000000000000000, 10.00000000000000000, 0.000000000000000000 ) ) ;
#1131 = DIRECTION ( 'NONE',  ( 0.000000000000000000, -1.000000000000000000, 0.000000000000000000 ) ) ;
#1132 = ORIENTED_EDGE ( 'NONE', *, *, #780, .F. ) ;
#1133 = FACE_OUTER_BOUND ( 'NONE', #1219, .T. ) ;
#1134 = CARTESIAN_POINT ( 'NONE',  ( 85.00000000000001421, 10.00000000000000000, -178.4000000000005457 ) ) ;
#1135 = EDGE_CURVE ( 'NONE', #319, #132, #538, .T. ) ;
#1136 = DIRECTION ( 'NONE',  ( -0.000000000000000000, 1.000000000000000000, -0.000000000000000000 ) ) ;
#1137 = VECTOR ( 'NONE', #1165, 1000.000000000000000 ) ;
#1138 = CARTESIAN_POINT ( 'NONE',  ( 20.38060233744356964, 10.00000000000000000, -147.9456586112182492 ) ) ;
#1139 = AXIS2_PLACEMENT_3D ( 'NONE', #173, #1350, #394 ) ;
#1140 = CIRCLE ( 'NONE', #741, 1.599999999999990319 ) ;
#1141 = AXIS2_PLACEMENT_3D ( 'NONE', #65, #71, #295 ) ;
#1142 = ORIENTED_EDGE ( 'NONE', *, *, #692, .F. ) ;
#1143 = LINE ( 'NONE', #1043, #286 ) ;
#1144 = EDGE_CURVE ( 'NONE', #882, #94, #156, .T. ) ;
#1145 = DIRECTION ( 'NONE',  ( 0.000000000000000000, 1.000000000000000000, 0.000000000000000000 ) ) ;
#1146 = DIRECTION ( 'NONE',  ( 0.000000000000000000, 0.000000000000000000, -1.000000000000000000 ) ) ;
#1147 = DIRECTION ( 'NONE',  ( 1.000000000000000000, 0.000000000000000000, 0.000000000000000000 ) ) ;
#1148 = EDGE_CURVE ( 'NONE', #377, #2, #222, .T. ) ;
#1149 = VERTEX_POINT ( 'NONE', #336 ) ;
#1150 = DIRECTION ( 'NONE',  ( -0.000000000000000000, 1.000000000000000000, -0.000000000000000000 ) ) ;
#1151 = CYLINDRICAL_SURFACE ( 'NONE', #965, 5.000000000000004441 ) ;
#1152 = FACE_OUTER_BOUND ( 'NONE', #1093, .T. ) ;
#1153 = DIRECTION ( 'NONE',  ( 0.7071067811865435759, -0.000000000000000000, -0.7071067811865515695 ) ) ;
#1154 = EDGE_LOOP ( 'NONE', ( #1107, #1161 ) ) ;
#1155 = CARTESIAN_POINT ( 'NONE',  ( 20.00000000000000000, 10.00000000000000000, -146.0322414493928136 ) ) ;
#1156 = DIRECTION ( 'NONE',  ( -0.000000000000000000, 1.000000000000000000, -0.000000000000000000 ) ) ;
#1157 = FACE_BOUND ( 'NONE', #1020, .T. ) ;
#1158 = DIRECTION ( 'NONE',  ( 0.000000000000000000, 1.000000000000000000, 0.000000000000000000 ) ) ;
#1159 = VECTOR ( 'NONE', #423, 1000.000000000000000 ) ;
#1160 = CIRCLE ( 'NONE', #558, 1.599999999999990319 ) ;
#1161 = ORIENTED_EDGE ( 'NONE', *, *, #841, .T. ) ;
#1162 = AXIS2_PLACEMENT_3D ( 'NONE', #914, #1091, #338 ) ;
#1163 = DIRECTION ( 'NONE',  ( 0.000000000000000000, 0.000000000000000000, 1.000000000000000000 ) ) ;
#1164 = CARTESIAN_POINT ( 'NONE',  ( 85.00000000000001421, 0.000000000000000000, -245.0000000000005400 ) ) ;
#1165 = DIRECTION ( 'NONE',  ( 0.000000000000000000, 1.000000000000000000, -0.000000000000000000 ) ) ;
#1166 = ORIENTED_EDGE ( 'NONE', *, *, #175, .T. ) ;
#1167 = ORIENTED_EDGE ( 'NONE', *, *, #1387, .T. ) ;
#1168 = DIRECTION ( 'NONE',  ( 0.000000000000000000, -1.000000000000000000, 0.000000000000000000 ) ) ;
#1169 = DIRECTION ( 'NONE',  ( 0.000000000000000000, 0.000000000000000000, -1.000000000000000000 ) ) ;
#1170 = EDGE_CURVE ( 'NONE', #118, #773, #140, .T. ) ;
#1171 = CARTESIAN_POINT ( 'NONE',  ( 69.99999999999998579, 10.00000000000000000, -267.7374814049455267 ) ) ;
#1172 = SHAPE_DEFINITION_REPRESENTATION ( #317, #690 ) ;
#1173 = ORIENTED_EDGE ( 'NONE', *, *, #1001, .F. ) ;
#1174 = ORIENTED_EDGE ( 'NONE', *, *, #1287, .T. ) ;
#1175 = CARTESIAN_POINT ( 'NONE',  ( 25.00000000000000000, 0.000000000000000000, -139.9999999999999716 ) ) ;
#1176 = LINE ( 'NONE', #531, #812 ) ;
#1177 = ADVANCED_FACE ( 'NONE', ( #485 ), #1234, .F. ) ;
#1178 = ORIENTED_EDGE ( 'NONE', *, *, #692, .T. ) ;
#1179 = ORIENTED_EDGE ( 'NONE', *, *, #1301, .T. ) ;
#1180 = FACE_BOUND ( 'NONE', #1100, .T. ) ;
#1181 = VECTOR ( 'NONE', #107, 1000.000000000000000 ) ;
#1182 = CARTESIAN_POINT ( 'NONE',  ( 30.00000000000000711, 0.000000000000000000, 0.000000000000000000 ) ) ;
#1183 = EDGE_CURVE ( 'NONE', #664, #226, #686, .T. ) ;
#1184 = CIRCLE ( 'NONE', #790, 1.600000000000004086 ) ;
#1185 = CARTESIAN_POINT ( 'NONE',  ( 0.000000000000000000, 0.000000000000000000, -9.999999999999994671 ) ) ;
#1186 = VERTEX_POINT ( 'NONE', #1205 ) ;
#1187 = EDGE_CURVE ( 'NONE', #447, #1196, #1010, .T. ) ;
#1188 = EDGE_LOOP ( 'NONE', ( #772, #961, #1331, #716 ) ) ;
#1189 = CYLINDRICAL_SURFACE ( 'NONE', #671, 10.00000000000000888 ) ;
#1190 = CARTESIAN_POINT ( 'NONE',  ( 0.000000000000000000, 0.000000000000000000, 0.000000000000000000 ) ) ;
#1191 = ORIENTED_EDGE ( 'NONE', *, *, #22, .T. ) ;
#1192 = ORIENTED_EDGE ( 'NONE', *, *, #302, .F. ) ;
#1193 = EDGE_LOOP ( 'NONE', ( #244, #981, #1132, #238 ) ) ;
#1194 = CARTESIAN_POINT ( 'NONE',  ( 30.00000000000000000, 0.000000000000000000, -108.3999999999999915 ) ) ;
#1195 = CARTESIAN_POINT ( 'NONE',  ( 25.00000000000000000, 10.00000000000000000, -146.0322414493928136 ) ) ;
#1196 = VERTEX_POINT ( 'NONE', #679 ) ;
#1197 = EDGE_LOOP ( 'NONE', ( #846, #553, #297, #438 ) ) ;
#1198 = ORIENTED_EDGE ( 'NONE', *, *, #613, .F. ) ;
#1199 = AXIS2_PLACEMENT_3D ( 'NONE', #1365, #498, #492 ) ;
#1200 = FACE_OUTER_BOUND ( 'NONE', #637, .T. ) ;
#1201 = DIRECTION ( 'NONE',  ( 0.000000000000000000, -1.000000000000000000, 0.000000000000000000 ) ) ;
#1202 = VECTOR ( 'NONE', #1368, 1000.000000000000000 ) ;
#1203 = AXIS2_PLACEMENT_3D ( 'NONE', #902, #1119, #371 ) ;
#1204 = ORIENTED_EDGE ( 'NONE', *, *, #1046, .F. ) ;
#1205 = CARTESIAN_POINT ( 'NONE',  ( 85.00000000000001421, 10.00000000000000000, -181.6000000000005343 ) ) ;
#1206 = VERTEX_POINT ( 'NONE', #546 ) ;
#1207 = DIRECTION ( 'NONE',  ( 0.000000000000000000, 1.000000000000000000, 0.000000000000000000 ) ) ;
#1208 = CARTESIAN_POINT ( 'NONE',  ( 40.00000000000000000, 10.00000000000000000, -115.8578643762690774 ) ) ;
#1209 = ADVANCED_FACE ( 'NONE', ( #1024 ), #1326, .T. ) ;
#1210 = DIRECTION ( 'NONE',  ( 0.000000000000000000, 0.000000000000000000, -1.000000000000000000 ) ) ;
#1211 = CARTESIAN_POINT ( 'NONE',  ( 69.99999999999998579, 0.000000000000000000, -180.3553390593279175 ) ) ;
#1212 = ORIENTED_EDGE ( 'NONE', *, *, #276, .T. ) ;
#1213 = EDGE_LOOP ( 'NONE', ( #550, #325, #1241, #1284, #562, #1389, #768, #680, #787, #303, #576, #1304, #1113, #564 ) ) ;
#1214 = CARTESIAN_POINT ( 'NONE',  ( 20.00000000000000000, 10.00000000000000000, -139.9999999999999716 ) ) ;
#1215 = FACE_OUTER_BOUND ( 'NONE', #687, .T. ) ;
#1216 = EDGE_CURVE ( 'NONE', #138, #832, #673, .T. ) ;
#1217 = CARTESIAN_POINT ( 'NONE',  ( 30.00000000000000000, 10.00000000000000000, -11.59999999999999787 ) ) ;
#1218 = DIRECTION ( 'NONE',  ( 0.000000000000000000, 1.000000000000000000, 0.000000000000000000 ) ) ;
#1219 = EDGE_LOOP ( 'NONE', ( #729, #47, #820, #1042 ) ) ;
#1220 = DIRECTION ( 'NONE',  ( -0.7071067811865515695, 0.000000000000000000, -0.7071067811865435759 ) ) ;
#1221 = AXIS2_PLACEMENT_3D ( 'NONE', #549, #749, #858 ) ;
#1222 = CARTESIAN_POINT ( 'NONE',  ( 10.00000000000000000, 10.00000000000000000, -149.0159269600877110 ) ) ;
#1223 = EDGE_CURVE ( 'NONE', #774, #832, #148, .T. ) ;
#1224 = AXIS2_PLACEMENT_3D ( 'NONE', #1329, #783, #154 ) ;
#1225 = AXIS2_PLACEMENT_3D ( 'NONE', #488, #1344, #387 ) ;
#1226 = EDGE_LOOP ( 'NONE', ( #559, #40, #386, #599 ) ) ;
#1227 = CARTESIAN_POINT ( 'NONE',  ( 29.64466094067206470, 0.000000000000000000, -145.0000000000000000 ) ) ;
#1228 = AXIS2_PLACEMENT_3D ( 'NONE', #695, #796, #252 ) ;
#1229 = EDGE_CURVE ( 'NONE', #774, #685, #879, .T. ) ;
#1230 = VERTEX_POINT ( 'NONE', #1332 ) ;
#1231 = CARTESIAN_POINT ( 'NONE',  ( 30.00000000000000000, 10.00000000000000000, -111.6000000000000085 ) ) ;
#1232 = DIRECTION ( 'NONE',  ( 0.000000000000000000, -1.000000000000000000, 0.000000000000000000 ) ) ;
#1233 = DIRECTION ( 'NONE',  ( 0.000000000000000000, -1.000000000000000000, 0.000000000000000000 ) ) ;
#1234 = CYLINDRICAL_SURFACE ( 'NONE', #1228, 1.600000000000004086 ) ;
#1235 = ORIENTED_EDGE ( 'NONE', *, *, #441, .T. ) ;
#1236 = CARTESIAN_POINT ( 'NONE',  ( 85.00000000000000000, 0.000000000000000000, -308.4000000000005457 ) ) ;
#1237 = CARTESIAN_POINT ( 'NONE',  ( 10.00000000000000000, 0.000000000000000000, -149.0159269600877110 ) ) ;
#1238 = CARTESIAN_POINT ( 'NONE',  ( 25.00000000000000000, 10.00000000000000000, -139.9999999999999716 ) ) ;
#1239 = CARTESIAN_POINT ( 'NONE',  ( 76.68178637919298524, 10.00000000000000000, -310.0000000000005116 ) ) ;
#1240 = EDGE_CURVE ( 'NONE', #1333, #88, #709, .T. ) ;
#1241 = ORIENTED_EDGE ( 'NONE', *, *, #1187, .F. ) ;
#1242 = CARTESIAN_POINT ( 'NONE',  ( 20.38060233744356964, 0.000000000000000000, -147.9456586112182492 ) ) ;
#1243 = UNCERTAINTY_MEASURE_WITH_UNIT (LENGTH_MEASURE( 1.000000000000000082E-05 ), #6, 'distance_accuracy_value', 'NONE');
#1244 = DIRECTION ( 'NONE',  ( 5.782411586589357392E-17, 0.000000000000000000, 1.000000000000000000 ) ) ;
#1245 = EDGE_CURVE ( 'NONE', #1312, #852, #978, .T. ) ;
#1246 = FACE_BOUND ( 'NONE', #905, .T. ) ;
#1247 = AXIS2_PLACEMENT_3D ( 'NONE', #1071, #955, #98 ) ;
#1248 = CARTESIAN_POINT ( 'NONE',  ( 69.99999999999998579, 0.000000000000000000, -242.6007839443163334 ) ) ;
#1249 = AXIS2_PLACEMENT_3D ( 'NONE', #817, #1232, #271 ) ;
#1250 = AXIS2_PLACEMENT_3D ( 'NONE', #675, #227, #1006 ) ;
#1251 = CIRCLE ( 'NONE', #60, 10.00000000000000888 ) ;
#1252 = ORIENTED_EDGE ( 'NONE', *, *, #582, .T. ) ;
#1253 = CARTESIAN_POINT ( 'NONE',  ( 85.00000000000001421, 0.000000000000000000, -180.0000000000005400 ) ) ;
#1254 = DIRECTION ( 'NONE',  ( -0.000000000000000000, -1.000000000000000000, 0.000000000000000000 ) ) ;
#1255 = DIRECTION ( 'NONE',  ( -5.782411586589357392E-17, 0.000000000000000000, -1.000000000000000000 ) ) ;
#1256 = DIRECTION ( 'NONE',  ( 0.000000000000000000, -1.000000000000000000, 0.000000000000000000 ) ) ;
#1257 = ORIENTED_EDGE ( 'NONE', *, *, #989, .T. ) ;
#1258 = VERTEX_POINT ( 'NONE', #440 ) ;
#1259 = FACE_OUTER_BOUND ( 'NONE', #347, .T. ) ;
#1260 = CARTESIAN_POINT ( 'NONE',  ( 69.99999999999998579, 10.00000000000000000, -320.0000000000005116 ) ) ;
#1261 = DIRECTION ( 'NONE',  ( -0.7071067811865473507, 0.000000000000000000, -0.7071067811865477948 ) ) ;
#1262 = DIRECTION ( 'NONE',  ( 0.000000000000000000, -1.000000000000000000, 0.000000000000000000 ) ) ;
#1263 = ORIENTED_EDGE ( 'NONE', *, *, #916, .F. ) ;
#1264 = CARTESIAN_POINT ( 'NONE',  ( 64.99999999999998579, 10.00000000000000000, -242.6007839443163334 ) ) ;
#1265 = DIRECTION ( 'NONE',  ( -0.000000000000000000, 1.000000000000000000, -0.000000000000000000 ) ) ;
#1266 = LINE ( 'NONE', #877, #831 ) ;
#1267 = EDGE_CURVE ( 'NONE', #225, #73, #873, .T. ) ;
#1268 = CARTESIAN_POINT ( 'NONE',  ( 10.00000000000000000, 0.000000000000000000, -8.399999999999998579 ) ) ;
#1269 = VECTOR ( 'NONE', #898, 1000.000000000000227 ) ;
#1270 = CIRCLE ( 'NONE', #669, 1.599999999999990319 ) ;
#1271 = ADVANCED_FACE ( 'NONE', ( #309 ), #1061, .F. ) ;
#1272 = ORIENTED_EDGE ( 'NONE', *, *, #640, .T. ) ;
#1273 = VECTOR ( 'NONE', #1050, 1000.000000000000000 ) ;
#1274 = CARTESIAN_POINT ( 'NONE',  ( 85.00000000000001421, 0.000000000000000000, -180.0000000000005400 ) ) ;
#1275 = AXIS2_PLACEMENT_3D ( 'NONE', #704, #1218, #804 ) ;
#1276 = CARTESIAN_POINT ( 'NONE',  ( 85.00000000000001421, 0.000000000000000000, -178.4000000000005457 ) ) ;
#1277 = LINE ( 'NONE', #1171, #355 ) ;
#1278 = ORIENTED_EDGE ( 'NONE', *, *, #888, .T. ) ;
#1279 = ORIENTED_EDGE ( 'NONE', *, *, #931, .T. ) ;
#1280 = CARTESIAN_POINT ( 'NONE',  ( 85.00000000000001421, 0.000000000000000000, -243.4000000000005741 ) ) ;
#1281 = EDGE_CURVE ( 'NONE', #1068, #890, #610, .T. ) ;
#1282 = DIRECTION ( 'NONE',  ( -1.000000000000000000, 0.000000000000000000, 9.251858538542971581E-17 ) ) ;
#1283 =( NAMED_UNIT ( * ) SI_UNIT ( $, .STERADIAN. ) SOLID_ANGLE_UNIT ( ) );
#1284 = ORIENTED_EDGE ( 'NONE', *, *, #29, .T. ) ;
#1285 = VERTEX_POINT ( 'NONE', #59 ) ;
#1286 = DIRECTION ( 'NONE',  ( 0.000000000000000000, -1.000000000000000000, 0.000000000000000000 ) ) ;
#1287 = EDGE_CURVE ( 'NONE', #962, #1206, #15, .T. ) ;
#1288 = DIRECTION ( 'NONE',  ( 0.000000000000000000, 0.000000000000000000, -1.000000000000000000 ) ) ;
#1289 = CARTESIAN_POINT ( 'NONE',  ( 30.00000000000000000, 0.000000000000000000, -108.3999999999999915 ) ) ;
#1290 = EDGE_CURVE ( 'NONE', #1106, #1004, #493, .T. ) ;
#1291 = ORIENTED_EDGE ( 'NONE', *, *, #983, .T. ) ;
#1292 = VECTOR ( 'NONE', #1002, 1000.000000000000000 ) ;
#1293 = ORIENTED_EDGE ( 'NONE', *, *, #1223, .F. ) ;
#1294 = CARTESIAN_POINT ( 'NONE',  ( 79.99999999999997158, 10.00000000000000000, -320.0000000000005116 ) ) ;
#1295 = VECTOR ( 'NONE', #1265, 1000.000000000000000 ) ;
#1296 = AXIS2_PLACEMENT_3D ( 'NONE', #662, #791, #234 ) ;
#1297 = CARTESIAN_POINT ( 'NONE',  ( 80.00000000000001421, 10.00000000000000000, -174.1421356237314910 ) ) ;
#1298 = AXIS2_PLACEMENT_3D ( 'NONE', #19, #14, #891 ) ;
#1299 = VECTOR ( 'NONE', #1262, 1000.000000000000000 ) ;
#1300 = FACE_OUTER_BOUND ( 'NONE', #157, .T. ) ;
#1301 = EDGE_CURVE ( 'NONE', #982, #319, #734, .T. ) ;
#1302 = VERTEX_POINT ( 'NONE', #1138 ) ;
#1303 = ORIENTED_EDGE ( 'NONE', *, *, #592, .F. ) ;
#1304 = ORIENTED_EDGE ( 'NONE', *, *, #382, .T. ) ;
#1305 = CARTESIAN_POINT ( 'NONE',  ( 30.00000000000000000, 0.000000000000000000, -111.6000000000000085 ) ) ;
#1306 = LINE ( 'NONE', #1208, #876 ) ;
#1307 = ORIENTED_EDGE ( 'NONE', *, *, #970, .F. ) ;
#1308 = ORIENTED_EDGE ( 'NONE', *, *, #885, .T. ) ;
#1309 = DIRECTION ( 'NONE',  ( 0.7071067811865477948, -0.000000000000000000, -0.7071067811865473507 ) ) ;
#1310 = PLANE ( 'NONE',  #444 ) ;
#1311 = ORIENTED_EDGE ( 'NONE', *, *, #1086, .F. ) ;
#1312 = VERTEX_POINT ( 'NONE', #830 ) ;
#1313 = EDGE_CURVE ( 'NONE', #1206, #962, #1184, .T. ) ;
#1314 = ORIENTED_EDGE ( 'NONE', *, *, #284, .T. ) ;
#1315 = AXIS2_PLACEMENT_3D ( 'NONE', #395, #922, #182 ) ;
#1316 = DIRECTION ( 'NONE',  ( 0.000000000000000000, 0.000000000000000000, 1.000000000000000000 ) ) ;
#1317 = CIRCLE ( 'NONE', #1139, 1.599999999999997202 ) ;
#1318 = CARTESIAN_POINT ( 'NONE',  ( 42.92893218813448897, 0.000000000000000000, -122.9289321881345103 ) ) ;
#1319 = AXIS2_PLACEMENT_3D ( 'NONE', #28, #36, #819 ) ;
#1320 = DIRECTION ( 'NONE',  ( -0.000000000000000000, 1.000000000000000000, -0.000000000000000000 ) ) ;
#1321 = DIRECTION ( 'NONE',  ( -0.000000000000000000, 1.000000000000000000, -0.000000000000000000 ) ) ;
#1322 = ORIENTED_EDGE ( 'NONE', *, *, #101, .F. ) ;
#1323 = CARTESIAN_POINT ( 'NONE',  ( 90.00000000000001421, 10.00000000000000000, -174.1421356237314910 ) ) ;
#1324 = CARTESIAN_POINT ( 'NONE',  ( 30.00000000000000711, 10.00000000000000000, -10.00000000000000000 ) ) ;
#1325 = ORIENTED_EDGE ( 'NONE', *, *, #602, .F. ) ;
#1326 = PLANE ( 'NONE',  #1319 ) ;
#1327 = EDGE_CURVE ( 'NONE', #73, #1087, #1251, .T. ) ;
#1328 = DIRECTION ( 'NONE',  ( -1.000000000000000000, -0.000000000000000000, 2.775557561562890957E-15 ) ) ;
#1329 = CARTESIAN_POINT ( 'NONE',  ( 0.000000000000000000, 10.00000000000000000, 0.000000000000000000 ) ) ;
#1330 = EDGE_CURVE ( 'NONE', #839, #10, #169, .T. ) ;
#1331 = ORIENTED_EDGE ( 'NONE', *, *, #943, .F. ) ;
#1332 = CARTESIAN_POINT ( 'NONE',  ( 40.00000000000000000, 0.000000000000000000, -115.8578643762690774 ) ) ;
#1333 = VERTEX_POINT ( 'NONE', #301 ) ;
#1334 = DIRECTION ( 'NONE',  ( -0.000000000000000000, 1.000000000000000000, -0.000000000000000000 ) ) ;
#1335 = AXIS2_PLACEMENT_3D ( 'NONE', #960, #307, #743 ) ;
#1336 = PLANE ( 'NONE',  #1077 ) ;
#1337 = VECTOR ( 'NONE', #1078, 1000.000000000000000 ) ;
#1338 = CIRCLE ( 'NONE', #627, 10.00000000000000888 ) ;
#1339 = CARTESIAN_POINT ( 'NONE',  ( 10.00000000000000000, 0.000000000000000000, -111.6000000000000085 ) ) ;
#1340 = DIRECTION ( 'NONE',  ( -2.081668171172166541E-15, 0.000000000000000000, -1.000000000000000000 ) ) ;
#1341 = EDGE_CURVE ( 'NONE', #495, #896, #1384, .T. ) ;
#1342 = AXIS2_PLACEMENT_3D ( 'NONE', #573, #1321, #580 ) ;
#1343 = EDGE_LOOP ( 'NONE', ( #551, #349, #236, #670 ) ) ;
#1344 = DIRECTION ( 'NONE',  ( -0.000000000000000000, 1.000000000000000000, -0.000000000000000000 ) ) ;
#1345 = DIRECTION ( 'NONE',  ( 0.000000000000000000, 0.000000000000000000, 1.000000000000000000 ) ) ;
#1346 = CARTESIAN_POINT ( 'NONE',  ( 20.00000000000000000, 10.00000000000000000, -145.0000000000000000 ) ) ;
#1347 = EDGE_CURVE ( 'NONE', #805, #1353, #407, .T. ) ;
#1348 = EDGE_LOOP ( 'NONE', ( #217, #861 ) ) ;
#1349 = DIRECTION ( 'NONE',  ( 0.000000000000000000, 0.000000000000000000, 1.000000000000000000 ) ) ;
#1350 = DIRECTION ( 'NONE',  ( 0.000000000000000000, 1.000000000000000000, 0.000000000000000000 ) ) ;
#1351 = FACE_BOUND ( 'NONE', #17, .T. ) ;
#1352 = FACE_OUTER_BOUND ( 'NONE', #786, .T. ) ;
#1353 = VERTEX_POINT ( 'NONE', #279 ) ;
#1354 = DIRECTION ( 'NONE',  ( -0.000000000000000000, -0.000000000000000000, -1.000000000000000000 ) ) ;
#1355 = FACE_OUTER_BOUND ( 'NONE', #119, .T. ) ;
#1356 = FACE_BOUND ( 'NONE', #984, .T. ) ;
#1357 = AXIS2_PLACEMENT_3D ( 'NONE', #1052, #818, #713 ) ;
#1358 = CARTESIAN_POINT ( 'NONE',  ( 10.00000000000000000, 10.00000000000000000, -110.0000000000000000 ) ) ;
#1359 = VECTOR ( 'NONE', #928, 1000.000000000000000 ) ;
#1360 = AXIS2_PLACEMENT_3D ( 'NONE', #393, #48, #725 ) ;
#1361 = VECTOR ( 'NONE', #714, 1000.000000000000000 ) ;
#1362 = ORIENTED_EDGE ( 'NONE', *, *, #851, .T. ) ;
#1363 = DIRECTION ( 'NONE',  ( 0.000000000000000000, 1.000000000000000000, 0.000000000000000000 ) ) ;
#1364 = CARTESIAN_POINT ( 'NONE',  ( 67.44299105408008188, 0.000000000000000000, -313.8268343236513260 ) ) ;
#1365 = CARTESIAN_POINT ( 'NONE',  ( 30.00000000000000000, 0.000000000000000000, -10.00000000000000000 ) ) ;
#1366 = CARTESIAN_POINT ( 'NONE',  ( 69.99999999999998579, 10.00000000000000000, -180.3553390593279175 ) ) ;
#1367 = EDGE_LOOP ( 'NONE', ( #24, #1099 ) ) ;
#1368 = DIRECTION ( 'NONE',  ( -0.000000000000000000, 1.000000000000000000, -0.000000000000000000 ) ) ;
#1369 = ADVANCED_FACE ( 'NONE', ( #1352 ), #87, .T. ) ;
#1370 = CARTESIAN_POINT ( 'NONE',  ( 90.00000000000000000, 10.00000000000000000, -320.0000000000005684 ) ) ;
#1371 = DIRECTION ( 'NONE',  ( 0.000000000000000000, -1.000000000000000000, 0.000000000000000000 ) ) ;
#1372 = LINE ( 'NONE', #418, #491 ) ;
#1373 = EDGE_CURVE ( 'NONE', #118, #1258, #837, .T. ) ;
#1374 = ORIENTED_EDGE ( 'NONE', *, *, #1330, .F. ) ;
#1375 = PLANE ( 'NONE',  #742 ) ;
#1376 = CARTESIAN_POINT ( 'NONE',  ( 0.000000000000000000, 0.000000000000000000, -149.0159269600877110 ) ) ;
#1377 = FILL_AREA_STYLE ('',( #1065 ) ) ;
#1378 = VECTOR ( 'NONE', #693, 1000.000000000000000 ) ;
#1379 = ORIENTED_EDGE ( 'NONE', *, *, #1135, .T. ) ;
#1380 = ADVANCED_FACE ( 'NONE', ( #183 ), #521, .T. ) ;
#1381 = ORIENTED_EDGE ( 'NONE', *, *, #827, .F. ) ;
#1382 = AXIS2_PLACEMENT_3D ( 'NONE', #862, #326, #304 ) ;
#1383 = FACE_BOUND ( 'NONE', #1348, .T. ) ;
#1384 = CIRCLE ( 'NONE', #967, 1.599999999999990319 ) ;
#1385 = DIRECTION ( 'NONE',  ( 0.000000000000000000, 0.000000000000000000, -1.000000000000000000 ) ) ;
#1386 = PRESENTATION_STYLE_ASSIGNMENT (( #980 ) ) ;
#1387 = EDGE_CURVE ( 'NONE', #688, #352, #1372, .T. ) ;
#1388 = ORIENTED_EDGE ( 'NONE', *, *, #302, .T. ) ;
#1389 = ORIENTED_EDGE ( 'NONE', *, *, #1327, .T. ) ;
#1390 = FACE_BOUND ( 'NONE', #1073, .T. ) ;
#1391 = EDGE_CURVE ( 'NONE', #604, #1090, #850, .T. ) ;
#1392 = CARTESIAN_POINT ( 'NONE',  ( 50.00000000000000000, 10.00000000000000000, -115.8578643762690774 ) ) ;
#1393 = CARTESIAN_POINT ( 'NONE',  ( 69.99999999999998579, 0.000000000000000000, -178.2842712474624420 ) ) ;
ENDSEC;
END-ISO-10303-21;
