ISO-10303-21;
HEADER;
FILE_DESCRIPTION (( 'STEP AP214' ),
    '1' );
FILE_NAME ('Hex Column.step',
    '2026-08-28T16:12:33',
    ( '' ),
    ( '' ),
    'SwSTEP 2.0',
    'SolidWorks 2024',
    '' );
FILE_SCHEMA (( 'AUTOMOTIVE_DESIGN' ));
ENDSEC;

DATA;
#1 = VERTEX_POINT ( 'NONE', #134 ) ;
#2 = CARTESIAN_POINT ( 'NONE',  ( 2.713546265191240536, 0.000000000000000000, -2.626426216057322749E-15 ) ) ;
#3 = ORIENTED_EDGE ( 'NONE', *, *, #210, .T. ) ;
#4 = VERTEX_POINT ( 'NONE', #165 ) ;
#5 = EDGE_CURVE ( 'NONE', #27, #158, #59, .T. ) ;
#6 = ORIENTED_EDGE ( 'NONE', *, *, #320, .T. ) ;
#7 = AXIS2_PLACEMENT_3D ( 'NONE', #97, #245, #121 ) ;
#8 = VERTEX_POINT ( 'NONE', #139 ) ;
#9 = CARTESIAN_POINT ( 'NONE',  ( 1.356773132595620712, 30.00000000000000000, 2.350000000000000977 ) ) ;
#10 = EDGE_CURVE ( 'NONE', #1, #138, #161, .T. ) ;
#11 = ORIENTED_EDGE ( 'NONE', *, *, #29, .T. ) ;
#12 = AXIS2_PLACEMENT_3D ( 'NONE', #57, #87, #62 ) ;
#13 = FACE_OUTER_BOUND ( 'NONE', #156, .T. ) ;
#14 = DIRECTION ( 'NONE',  ( 1.000000000000000000, 0.000000000000000000, 0.000000000000000000 ) ) ;
#15 = APPLICATION_CONTEXT ( 'automotive_design' ) ;
#16 = LINE ( 'NONE', #198, #270 ) ;
#17 = APPLICATION_PROTOCOL_DEFINITION ( 'draft international standard', 'automotive_design', 1998, #15 ) ;
#18 = DIRECTION ( 'NONE',  ( -0.000000000000000000, -1.000000000000000000, -0.000000000000000000 ) ) ;
#19 = VECTOR ( 'NONE', #135, 1000.000000000000000 ) ;
#20 = CARTESIAN_POINT ( 'NONE',  ( 0.000000000000000000, 30.00000000000000000, 0.000000000000000000 ) ) ;
#21 = CARTESIAN_POINT ( 'NONE',  ( 0.000000000000000000, 0.000000000000000000, 0.000000000000000000 ) ) ;
#22 = SURFACE_SIDE_STYLE ('',( #130 ) ) ;
#23 = STYLED_ITEM ( 'NONE', ( #299 ), #192 ) ;
#24 = CARTESIAN_POINT ( 'NONE',  ( 0.000000000000000000, 30.00000000000000000, 0.000000000000000000 ) ) ;
#25 = ORIENTED_EDGE ( 'NONE', *, *, #127, .F. ) ;
#26 = CARTESIAN_POINT ( 'NONE',  ( 1.356773132595620712, 30.00000000000000000, 2.350000000000000977 ) ) ;
#27 = VERTEX_POINT ( 'NONE', #306 ) ;
#28 = CARTESIAN_POINT ( 'NONE',  ( -1.356773132595620268, 30.00000000000000000, -2.350000000000000533 ) ) ;
#29 = EDGE_CURVE ( 'NONE', #158, #138, #216, .T. ) ;
#30 = ORIENTED_EDGE ( 'NONE', *, *, #100, .T. ) ;
#31 = VECTOR ( 'NONE', #228, 1000.000000000000000 ) ;
#32 = ORIENTED_EDGE ( 'NONE', *, *, #127, .T. ) ;
#33 = EDGE_CURVE ( 'NONE', #34, #154, #259, .T. ) ;
#34 = VERTEX_POINT ( 'NONE', #60 ) ;
#35 = ORIENTED_EDGE ( 'NONE', *, *, #42, .T. ) ;
#36 = VECTOR ( 'NONE', #65, 1000.000000000000114 ) ;
#37 = LINE ( 'NONE', #81, #31 ) ;
#38 = ORIENTED_EDGE ( 'NONE', *, *, #208, .T. ) ;
#39 = ADVANCED_BREP_SHAPE_REPRESENTATION ( 'Hex Column', ( #192, #41 ), #185 ) ;
#40 = DIRECTION ( 'NONE',  ( -0.000000000000000000, -1.000000000000000000, -0.000000000000000000 ) ) ;
#41 = AXIS2_PLACEMENT_3D ( 'NONE', #291, #176, #14 ) ;
#42 = EDGE_CURVE ( 'NONE', #235, #27, #186, .T. ) ;
#43 = DIRECTION ( 'NONE',  ( -0.5000000000000002220, 0.000000000000000000, -0.8660254037844384856 ) ) ;
#44 = EDGE_CURVE ( 'NONE', #49, #286, #166, .T. ) ;
#45 = CARTESIAN_POINT ( 'NONE',  ( 0.000000000000000000, 0.000000000000000000, 0.000000000000000000 ) ) ;
#46 = DIRECTION ( 'NONE',  ( 0.000000000000000000, -0.000000000000000000, 1.000000000000000000 ) ) ;
#47 = VECTOR ( 'NONE', #254, 1000.000000000000000 ) ;
#48 = FACE_OUTER_BOUND ( 'NONE', #63, .T. ) ;
#49 = VERTEX_POINT ( 'NONE', #310 ) ;
#50 = CARTESIAN_POINT ( 'NONE',  ( 1.356773132595619824, 0.000000000000000000, -2.350000000000000533 ) ) ;
#51 = VECTOR ( 'NONE', #255, 1000.000000000000114 ) ;
#52 = CARTESIAN_POINT ( 'NONE',  ( 0.000000000000000000, 30.00000000000000000, -1.500000000000000222 ) ) ;
#53 = ORIENTED_EDGE ( 'NONE', *, *, #277, .T. ) ;
#54 = EDGE_CURVE ( 'NONE', #211, #282, #114, .T. ) ;
#55 = DIRECTION ( 'NONE',  ( 0.5000000000000003331, 0.000000000000000000, 0.8660254037844383745 ) ) ;
#56 = ORIENTED_EDGE ( 'NONE', *, *, #187, .T. ) ;
#57 = CARTESIAN_POINT ( 'NONE',  ( -1.356773132595620268, 30.00000000000000000, -2.350000000000000533 ) ) ;
#58 = VECTOR ( 'NONE', #272, 1000.000000000000114 ) ;
#59 = LINE ( 'NONE', #113, #64 ) ;
#60 = CARTESIAN_POINT ( 'NONE',  ( 2.713546265191240536, 30.00000000000000000, -2.626426216057322749E-15 ) ) ;
#61 = VERTEX_POINT ( 'NONE', #167 ) ;
#62 = DIRECTION ( 'NONE',  ( 0.4999999999999995559, 0.000000000000000000, -0.8660254037844389297 ) ) ;
#63 = EDGE_LOOP ( 'NONE', ( #38, #112, #175, #79 ) ) ;
#64 = VECTOR ( 'NONE', #212, 1000.000000000000114 ) ;
#65 = DIRECTION ( 'NONE',  ( -0.4999999999999995559, 0.000000000000000000, 0.8660254037844389297 ) ) ;
#66 =( NAMED_UNIT ( * ) PLANE_ANGLE_UNIT ( ) SI_UNIT ( $, .RADIAN. ) );
#67 = DIRECTION ( 'NONE',  ( 0.8660254037844385966, 0.000000000000000000, -0.5000000000000003331 ) ) ;
#68 = PLANE ( 'NONE',  #278 ) ;
#69 = EDGE_CURVE ( 'NONE', #49, #215, #293, .T. ) ;
#70 = CIRCLE ( 'NONE', #169, 1.500000000000000222 ) ;
#71 = APPLICATION_PROTOCOL_DEFINITION ( 'draft international standard', 'automotive_design', 1998, #177 ) ;
#72 = DIRECTION ( 'NONE',  ( 0.000000000000000000, 0.000000000000000000, -1.000000000000000000 ) ) ;
#73 = DIRECTION ( 'NONE',  ( 0.000000000000000000, 1.000000000000000000, 0.000000000000000000 ) ) ;
#74 = FACE_OUTER_BOUND ( 'NONE', #237, .T. ) ;
#75 = PRODUCT_CONTEXT ( 'NONE', #15, 'mechanical' ) ;
#76 = AXIS2_PLACEMENT_3D ( 'NONE', #143, #195, #290 ) ;
#77 = FACE_OUTER_BOUND ( 'NONE', #324, .T. ) ;
#78 = ADVANCED_FACE ( 'NONE', ( #48 ), #68, .F. ) ;
#79 = ORIENTED_EDGE ( 'NONE', *, *, #69, .T. ) ;
#80 = ORIENTED_EDGE ( 'NONE', *, *, #33, .T. ) ;
#81 = CARTESIAN_POINT ( 'NONE',  ( -1.356773132595618048, 30.00000000000000000, 2.350000000000001865 ) ) ;
#82 = PRODUCT_DEFINITION ( 'UNKNOWN', '', #88, #107 ) ;
#83 = VECTOR ( 'NONE', #209, 1000.000000000000114 ) ;
#84 = CARTESIAN_POINT ( 'NONE',  ( -1.356773132595620268, 0.000000000000000000, -2.350000000000000533 ) ) ;
#85 = EDGE_LOOP ( 'NONE', ( #32, #6, #265, #261 ) ) ;
#86 = DIRECTION ( 'NONE',  ( 1.000000000000000000, 0.000000000000000000, -3.196414039866299189E-16 ) ) ;
#87 = DIRECTION ( 'NONE',  ( 0.8660254037844389297, -0.000000000000000000, 0.4999999999999995559 ) ) ;
#88 = PRODUCT_DEFINITION_FORMATION_WITH_SPECIFIED_SOURCE ( 'ANY', '', #201, .NOT_KNOWN. ) ;
#89 = ORIENTED_EDGE ( 'NONE', *, *, #221, .T. ) ;
#90 = CARTESIAN_POINT ( 'NONE',  ( 1.836970198721030181E-16, 30.00000000000000000, 1.500000000000000222 ) ) ;
#91 = ORIENTED_EDGE ( 'NONE', *, *, #320, .F. ) ;
#92 = ORIENTED_EDGE ( 'NONE', *, *, #54, .F. ) ;
#93 = LINE ( 'NONE', #90, #105 ) ;
#94 = EDGE_LOOP ( 'NONE', ( #3, #256 ) ) ;
#95 = PRODUCT_DEFINITION_SHAPE ( 'NONE', 'NONE',  #82 ) ;
#96 =( GEOMETRIC_REPRESENTATION_CONTEXT ( 3 ) GLOBAL_UNCERTAINTY_ASSIGNED_CONTEXT ( ( #98 ) ) GLOBAL_UNIT_ASSIGNED_CONTEXT ( ( #297, #230, #178 ) ) REPRESENTATION_CONTEXT ( 'NONE', 'WORKASPACE' ) );
#97 = CARTESIAN_POINT ( 'NONE',  ( -1.356773132595618048, 30.00000000000000000, 2.350000000000001865 ) ) ;
#98 = UNCERTAINTY_MEASURE_WITH_UNIT (LENGTH_MEASURE( 1.000000000000000082E-05 ), #297, 'distance_accuracy_value', 'NONE');
#99 = FACE_BOUND ( 'NONE', #94, .T. ) ;
#100 = EDGE_CURVE ( 'NONE', #138, #154, #16, .T. ) ;
#101 = CARTESIAN_POINT ( 'NONE',  ( 0.000000000000000000, 30.00000000000000000, 0.000000000000000000 ) ) ;
#102 = FILL_AREA_STYLE_COLOUR ( '', #301 ) ;
#103 = DIRECTION ( 'NONE',  ( 0.000000000000000000, 1.000000000000000000, 0.000000000000000000 ) ) ;
#104 = FACE_OUTER_BOUND ( 'NONE', #236, .T. ) ;
#105 = VECTOR ( 'NONE', #164, 1000.000000000000000 ) ;
#106 = ORIENTED_EDGE ( 'NONE', *, *, #302, .F. ) ;
#107 = PRODUCT_DEFINITION_CONTEXT ( 'detailed design', #177, 'design' ) ;
#108 = CARTESIAN_POINT ( 'NONE',  ( -1.356773132595620268, 30.00000000000000000, -2.350000000000000533 ) ) ;
#109 = DIRECTION ( 'NONE',  ( 0.000000000000000000, 0.000000000000000000, 1.000000000000000000 ) ) ;
#110 = AXIS2_PLACEMENT_3D ( 'NONE', #171, #118, #269 ) ;
#111 = LINE ( 'NONE', #179, #51 ) ;
#112 = ORIENTED_EDGE ( 'NONE', *, *, #251, .F. ) ;
#113 = CARTESIAN_POINT ( 'NONE',  ( -2.713546265191240092, 0.000000000000000000, 8.894171290360014116E-16 ) ) ;
#114 = CIRCLE ( 'NONE', #207, 1.500000000000000222 ) ;
#115 = ORIENTED_EDGE ( 'NONE', *, *, #208, .F. ) ;
#116 = EDGE_LOOP ( 'NONE', ( #163, #202, #206, #253 ) ) ;
#117 = EDGE_LOOP ( 'NONE', ( #25, #188 ) ) ;
#118 = DIRECTION ( 'NONE',  ( -0.8660254037844391517, 0.000000000000000000, -0.4999999999999992784 ) ) ;
#119 = CIRCLE ( 'NONE', #191, 1.500000000000000222 ) ;
#120 = CYLINDRICAL_SURFACE ( 'NONE', #174, 1.500000000000000222 ) ;
#121 = DIRECTION ( 'NONE',  ( -1.000000000000000000, 0.000000000000000000, 3.196414039866299682E-16 ) ) ;
#122 = LINE ( 'NONE', #244, #197 ) ;
#123 = MECHANICAL_DESIGN_GEOMETRIC_PRESENTATION_REPRESENTATION (  '', ( #23 ), #96 ) ;
#124 = FACE_OUTER_BOUND ( 'NONE', #304, .T. ) ;
#125 = DIRECTION ( 'NONE',  ( -1.000000000000000000, 0.000000000000000000, 0.000000000000000000 ) ) ;
#126 = DIRECTION ( 'NONE',  ( -0.8660254037844384856, 0.000000000000000000, 0.5000000000000004441 ) ) ;
#127 = EDGE_CURVE ( 'NONE', #61, #4, #70, .T. ) ;
#128 = DIRECTION ( 'NONE',  ( 0.000000000000000000, 1.000000000000000000, 0.000000000000000000 ) ) ;
#129 = CARTESIAN_POINT ( 'NONE',  ( -1.356773132595620268, 30.00000000000000000, -2.350000000000000533 ) ) ;
#130 = SURFACE_STYLE_FILL_AREA ( #227 ) ;
#131 = ADVANCED_FACE ( 'NONE', ( #168 ), #266, .F. ) ;
#132 = AXIS2_PLACEMENT_3D ( 'NONE', #223, #67, #43 ) ;
#133 = ORIENTED_EDGE ( 'NONE', *, *, #243, .T. ) ;
#134 = CARTESIAN_POINT ( 'NONE',  ( 1.356773132595620712, 30.00000000000000000, 2.350000000000000977 ) ) ;
#135 = DIRECTION ( 'NONE',  ( -1.000000000000000000, 0.000000000000000000, 0.000000000000000000 ) ) ;
#136 = AXIS2_PLACEMENT_3D ( 'NONE', #20, #18, #72 ) ;
#137 = ADVANCED_FACE ( 'NONE', ( #124, #144 ), #145, .T. ) ;
#138 = VERTEX_POINT ( 'NONE', #294 ) ;
#139 = CARTESIAN_POINT ( 'NONE',  ( -1.356773132595618048, 30.00000000000000000, 2.350000000000001865 ) ) ;
#140 = CARTESIAN_POINT ( 'NONE',  ( 1.356773132595619824, 30.00000000000000000, -2.350000000000000533 ) ) ;
#141 = ADVANCED_FACE ( 'NONE', ( #142 ), #242, .F. ) ;
#142 = FACE_OUTER_BOUND ( 'NONE', #239, .T. ) ;
#143 = CARTESIAN_POINT ( 'NONE',  ( 0.000000000000000000, 0.000000000000000000, 0.000000000000000000 ) ) ;
#144 = FACE_BOUND ( 'NONE', #117, .T. ) ;
#145 = PLANE ( 'NONE',  #262 ) ;
#146 = ADVANCED_FACE ( 'NONE', ( #13 ), #120, .F. ) ;
#147 = PRESENTATION_LAYER_ASSIGNMENT (  '', '', ( #23 ) ) ;
#148 = DIRECTION ( 'NONE',  ( 0.000000000000000000, 0.000000000000000000, 1.000000000000000000 ) ) ;
#149 = ADVANCED_FACE ( 'NONE', ( #267 ), #247, .F. ) ;
#150 = DIRECTION ( 'NONE',  ( -0.5000000000000003331, 0.000000000000000000, -0.8660254037844383745 ) ) ;
#151 = ORIENTED_EDGE ( 'NONE', *, *, #226, .T. ) ;
#152 = LINE ( 'NONE', #108, #58 ) ;
#153 = EDGE_LOOP ( 'NONE', ( #30, #160, #240, #183 ) ) ;
#154 = VERTEX_POINT ( 'NONE', #316 ) ;
#155 = LINE ( 'NONE', #2, #241 ) ;
#156 = EDGE_LOOP ( 'NONE', ( #91, #264, #284, #92 ) ) ;
#157 = DIRECTION ( 'NONE',  ( 0.000000000000000000, 0.000000000000000000, 1.000000000000000000 ) ) ;
#158 = VERTEX_POINT ( 'NONE', #173 ) ;
#159 = VECTOR ( 'NONE', #296, 1000.000000000000227 ) ;
#160 = ORIENTED_EDGE ( 'NONE', *, *, #33, .F. ) ;
#161 = LINE ( 'NONE', #9, #217 ) ;
#162 = ADVANCED_FACE ( 'NONE', ( #74, #99 ), #194, .F. ) ;
#163 = ORIENTED_EDGE ( 'NONE', *, *, #5, .T. ) ;
#164 = DIRECTION ( 'NONE',  ( -0.000000000000000000, -1.000000000000000000, -0.000000000000000000 ) ) ;
#165 = CARTESIAN_POINT ( 'NONE',  ( 1.836970198721030181E-16, 30.00000000000000000, 1.500000000000000222 ) ) ;
#166 = LINE ( 'NONE', #140, #19 ) ;
#167 = CARTESIAN_POINT ( 'NONE',  ( 0.000000000000000000, 30.00000000000000000, -1.500000000000000222 ) ) ;
#168 = FACE_OUTER_BOUND ( 'NONE', #153, .T. ) ;
#169 = AXIS2_PLACEMENT_3D ( 'NONE', #196, #103, #321 ) ;
#170 = SHAPE_DEFINITION_REPRESENTATION ( #95, #39 ) ;
#171 = CARTESIAN_POINT ( 'NONE',  ( 1.356773132595620712, 30.00000000000000000, 2.350000000000000977 ) ) ;
#172 = CARTESIAN_POINT ( 'NONE',  ( 1.356773132595619824, 30.00000000000000000, -2.350000000000000533 ) ) ;
#173 = CARTESIAN_POINT ( 'NONE',  ( -1.356773132595618048, 0.000000000000000000, 2.350000000000001865 ) ) ;
#174 = AXIS2_PLACEMENT_3D ( 'NONE', #101, #219, #271 ) ;
#175 = ORIENTED_EDGE ( 'NONE', *, *, #44, .F. ) ;
#176 = DIRECTION ( 'NONE',  ( 0.000000000000000000, 0.000000000000000000, 1.000000000000000000 ) ) ;
#177 = APPLICATION_CONTEXT ( 'automotive_design' ) ;
#178 =( NAMED_UNIT ( * ) SI_UNIT ( $, .STERADIAN. ) SOLID_ANGLE_UNIT ( ) );
#179 = CARTESIAN_POINT ( 'NONE',  ( -2.713546265191240092, 30.00000000000000000, 8.894171290360014116E-16 ) ) ;
#180 = VECTOR ( 'NONE', #325, 1000.000000000000000 ) ;
#181 = ORIENTED_EDGE ( 'NONE', *, *, #10, .F. ) ;
#182 = LINE ( 'NONE', #322, #159 ) ;
#183 = ORIENTED_EDGE ( 'NONE', *, *, #10, .T. ) ;
#184 = VERTEX_POINT ( 'NONE', #268 ) ;
#185 =( GEOMETRIC_REPRESENTATION_CONTEXT ( 3 ) GLOBAL_UNCERTAINTY_ASSIGNED_CONTEXT ( ( #274 ) ) GLOBAL_UNIT_ASSIGNED_CONTEXT ( ( #238, #66, #312 ) ) REPRESENTATION_CONTEXT ( 'NONE', 'WORKASPACE' ) );
#186 = LINE ( 'NONE', #260, #36 ) ;
#187 = EDGE_CURVE ( 'NONE', #8, #1, #122, .T. ) ;
#188 = ORIENTED_EDGE ( 'NONE', *, *, #234, .F. ) ;
#189 = ORIENTED_EDGE ( 'NONE', *, *, #226, .F. ) ;
#190 = ADVANCED_FACE ( 'NONE', ( #317 ), #292, .F. ) ;
#191 = AXIS2_PLACEMENT_3D ( 'NONE', #24, #128, #109 ) ;
#192 = MANIFOLD_SOLID_BREP ( 'Boss-Extrude1', #287 ) ;
#193 = ORIENTED_EDGE ( 'NONE', *, *, #248, .T. ) ;
#194 = PLANE ( 'NONE',  #76 ) ;
#195 = DIRECTION ( 'NONE',  ( 0.000000000000000000, 1.000000000000000000, 0.000000000000000000 ) ) ;
#196 = CARTESIAN_POINT ( 'NONE',  ( 0.000000000000000000, 30.00000000000000000, 0.000000000000000000 ) ) ;
#197 = VECTOR ( 'NONE', #220, 1000.000000000000000 ) ;
#198 = CARTESIAN_POINT ( 'NONE',  ( 1.356773132595620712, 0.000000000000000000, 2.350000000000000977 ) ) ;
#199 = CARTESIAN_POINT ( 'NONE',  ( 1.356773132595619824, 30.00000000000000000, -2.350000000000000533 ) ) ;
#200 = LINE ( 'NONE', #26, #83 ) ;
#201 = PRODUCT ( 'Hex Column', 'Hex Column', '', ( #75 ) ) ;
#202 = ORIENTED_EDGE ( 'NONE', *, *, #248, .F. ) ;
#203 = LINE ( 'NONE', #52, #47 ) ;
#204 = ORIENTED_EDGE ( 'NONE', *, *, #298, .F. ) ;
#205 = LINE ( 'NONE', #300, #295 ) ;
#206 = ORIENTED_EDGE ( 'NONE', *, *, #243, .F. ) ;
#207 = AXIS2_PLACEMENT_3D ( 'NONE', #45, #73, #148 ) ;
#208 = EDGE_CURVE ( 'NONE', #215, #235, #224, .T. ) ;
#209 = DIRECTION ( 'NONE',  ( 0.4999999999999991673, 0.000000000000000000, -0.8660254037844390407 ) ) ;
#210 = EDGE_CURVE ( 'NONE', #282, #211, #318, .T. ) ;
#211 = VERTEX_POINT ( 'NONE', #323 ) ;
#212 = DIRECTION ( 'NONE',  ( 0.5000000000000002220, 0.000000000000000000, 0.8660254037844384856 ) ) ;
#213 = VECTOR ( 'NONE', #86, 1000.000000000000000 ) ;
#214 = DIRECTION ( 'NONE',  ( -0.000000000000000000, -1.000000000000000000, -0.000000000000000000 ) ) ;
#215 = VERTEX_POINT ( 'NONE', #50 ) ;
#216 = LINE ( 'NONE', #288, #213 ) ;
#217 = VECTOR ( 'NONE', #307, 1000.000000000000000 ) ;
#218 = CARTESIAN_POINT ( 'NONE',  ( 0.000000000000000000, 30.00000000000000000, 0.000000000000000000 ) ) ;
#219 = DIRECTION ( 'NONE',  ( -0.000000000000000000, -1.000000000000000000, -0.000000000000000000 ) ) ;
#220 = DIRECTION ( 'NONE',  ( 1.000000000000000000, 0.000000000000000000, -3.196414039866299189E-16 ) ) ;
#221 = EDGE_CURVE ( 'NONE', #286, #184, #152, .T. ) ;
#222 = AXIS2_PLACEMENT_3D ( 'NONE', #21, #250, #157 ) ;
#223 = CARTESIAN_POINT ( 'NONE',  ( -2.713546265191240092, 30.00000000000000000, 8.894171290360014116E-16 ) ) ;
#224 = LINE ( 'NONE', #275, #258 ) ;
#225 = LINE ( 'NONE', #28, #180 ) ;
#226 = EDGE_CURVE ( 'NONE', #154, #215, #155, .T. ) ;
#227 = FILL_AREA_STYLE ('',( #102 ) ) ;
#228 = DIRECTION ( 'NONE',  ( -0.000000000000000000, -1.000000000000000000, -0.000000000000000000 ) ) ;
#229 = ORIENTED_EDGE ( 'NONE', *, *, #302, .T. ) ;
#230 =( NAMED_UNIT ( * ) PLANE_ANGLE_UNIT ( ) SI_UNIT ( $, .RADIAN. ) );
#231 = ADVANCED_FACE ( 'NONE', ( #104 ), #327, .F. ) ;
#232 = ORIENTED_EDGE ( 'NONE', *, *, #221, .F. ) ;
#233 = SURFACE_STYLE_USAGE ( .BOTH. , #22 ) ;
#234 = EDGE_CURVE ( 'NONE', #4, #61, #119, .T. ) ;
#235 = VERTEX_POINT ( 'NONE', #84 ) ;
#236 = EDGE_LOOP ( 'NONE', ( #151, #279, #106, #80 ) ) ;
#237 = EDGE_LOOP ( 'NONE', ( #326, #276, #281, #257, #115, #189 ) ) ;
#238 =( LENGTH_UNIT ( ) NAMED_UNIT ( * ) SI_UNIT ( .MILLI., .METRE. ) );
#239 = EDGE_LOOP ( 'NONE', ( #11, #181, #311, #193 ) ) ;
#240 = ORIENTED_EDGE ( 'NONE', *, *, #277, .F. ) ;
#241 = VECTOR ( 'NONE', #150, 1000.000000000000227 ) ;
#242 = PLANE ( 'NONE',  #7 ) ;
#243 = EDGE_CURVE ( 'NONE', #184, #8, #111, .T. ) ;
#244 = CARTESIAN_POINT ( 'NONE',  ( -1.356773132595618048, 30.00000000000000000, 2.350000000000001865 ) ) ;
#245 = DIRECTION ( 'NONE',  ( -3.196414039866299682E-16, 0.000000000000000000, -1.000000000000000000 ) ) ;
#246 = VECTOR ( 'NONE', #214, 1000.000000000000000 ) ;
#247 = PLANE ( 'NONE',  #132 ) ;
#248 = EDGE_CURVE ( 'NONE', #8, #158, #37, .T. ) ;
#249 = DIRECTION ( 'NONE',  ( 1.000000000000000000, 0.000000000000000000, -0.000000000000000000 ) ) ;
#250 = DIRECTION ( 'NONE',  ( 0.000000000000000000, 1.000000000000000000, 0.000000000000000000 ) ) ;
#251 = EDGE_CURVE ( 'NONE', #286, #235, #225, .T. ) ;
#252 = CARTESIAN_POINT ( 'NONE',  ( 2.713546265191240536, 30.00000000000000000, -2.626426216057322749E-15 ) ) ;
#253 = ORIENTED_EDGE ( 'NONE', *, *, #298, .T. ) ;
#254 = DIRECTION ( 'NONE',  ( -0.000000000000000000, -1.000000000000000000, -0.000000000000000000 ) ) ;
#255 = DIRECTION ( 'NONE',  ( 0.5000000000000002220, 0.000000000000000000, 0.8660254037844384856 ) ) ;
#256 = ORIENTED_EDGE ( 'NONE', *, *, #54, .T. ) ;
#257 = ORIENTED_EDGE ( 'NONE', *, *, #42, .F. ) ;
#258 = VECTOR ( 'NONE', #125, 1000.000000000000000 ) ;
#259 = LINE ( 'NONE', #313, #246 ) ;
#260 = CARTESIAN_POINT ( 'NONE',  ( -1.356773132595620268, 0.000000000000000000, -2.350000000000000533 ) ) ;
#261 = ORIENTED_EDGE ( 'NONE', *, *, #263, .F. ) ;
#262 = AXIS2_PLACEMENT_3D ( 'NONE', #218, #315, #319 ) ;
#263 = EDGE_CURVE ( 'NONE', #61, #282, #203, .T. ) ;
#264 = ORIENTED_EDGE ( 'NONE', *, *, #234, .T. ) ;
#265 = ORIENTED_EDGE ( 'NONE', *, *, #210, .F. ) ;
#266 = PLANE ( 'NONE',  #110 ) ;
#267 = FACE_OUTER_BOUND ( 'NONE', #116, .T. ) ;
#268 = CARTESIAN_POINT ( 'NONE',  ( -2.713546265191240092, 30.00000000000000000, 8.894171290360014116E-16 ) ) ;
#269 = DIRECTION ( 'NONE',  ( -0.4999999999999992228, 0.000000000000000000, 0.8660254037844390407 ) ) ;
#270 = VECTOR ( 'NONE', #289, 1000.000000000000114 ) ;
#271 = DIRECTION ( 'NONE',  ( 0.000000000000000000, 0.000000000000000000, -1.000000000000000000 ) ) ;
#272 = DIRECTION ( 'NONE',  ( -0.4999999999999995559, 0.000000000000000000, 0.8660254037844389297 ) ) ;
#273 = ORIENTED_EDGE ( 'NONE', *, *, #44, .T. ) ;
#274 = UNCERTAINTY_MEASURE_WITH_UNIT (LENGTH_MEASURE( 1.000000000000000082E-05 ), #238, 'distance_accuracy_value', 'NONE');
#275 = CARTESIAN_POINT ( 'NONE',  ( 1.356773132595619824, 0.000000000000000000, -2.350000000000000533 ) ) ;
#276 = ORIENTED_EDGE ( 'NONE', *, *, #29, .F. ) ;
#277 = EDGE_CURVE ( 'NONE', #1, #34, #200, .T. ) ;
#278 = AXIS2_PLACEMENT_3D ( 'NONE', #172, #46, #249 ) ;
#279 = ORIENTED_EDGE ( 'NONE', *, *, #69, .F. ) ;
#280 = DIRECTION ( 'NONE',  ( -0.000000000000000000, -1.000000000000000000, -0.000000000000000000 ) ) ;
#281 = ORIENTED_EDGE ( 'NONE', *, *, #5, .F. ) ;
#282 = VERTEX_POINT ( 'NONE', #303 ) ;
#283 = ORIENTED_EDGE ( 'NONE', *, *, #251, .T. ) ;
#284 = ORIENTED_EDGE ( 'NONE', *, *, #263, .T. ) ;
#285 = PRODUCT_RELATED_PRODUCT_CATEGORY ( 'part', '', ( #201 ) ) ;
#286 = VERTEX_POINT ( 'NONE', #129 ) ;
#287 = CLOSED_SHELL ( 'NONE', ( #190, #137, #162, #131, #231, #78, #308, #149, #141, #146 ) ) ;
#288 = CARTESIAN_POINT ( 'NONE',  ( -1.356773132595618048, 0.000000000000000000, 2.350000000000001865 ) ) ;
#289 = DIRECTION ( 'NONE',  ( 0.4999999999999991673, 0.000000000000000000, -0.8660254037844390407 ) ) ;
#290 = DIRECTION ( 'NONE',  ( 0.000000000000000000, -0.000000000000000000, 1.000000000000000000 ) ) ;
#291 = CARTESIAN_POINT ( 'NONE',  ( 0.000000000000000000, 0.000000000000000000, 0.000000000000000000 ) ) ;
#292 = CYLINDRICAL_SURFACE ( 'NONE', #136, 1.500000000000000222 ) ;
#293 = LINE ( 'NONE', #199, #309 ) ;
#294 = CARTESIAN_POINT ( 'NONE',  ( 1.356773132595620712, 0.000000000000000000, 2.350000000000000977 ) ) ;
#295 = VECTOR ( 'NONE', #280, 1000.000000000000000 ) ;
#296 = DIRECTION ( 'NONE',  ( -0.5000000000000003331, 0.000000000000000000, -0.8660254037844383745 ) ) ;
#297 =( LENGTH_UNIT ( ) NAMED_UNIT ( * ) SI_UNIT ( .MILLI., .METRE. ) );
#298 = EDGE_CURVE ( 'NONE', #184, #27, #205, .T. ) ;
#299 = PRESENTATION_STYLE_ASSIGNMENT (( #233 ) ) ;
#300 = CARTESIAN_POINT ( 'NONE',  ( -2.713546265191240092, 30.00000000000000000, 8.894171290360014116E-16 ) ) ;
#301 = COLOUR_RGB ( '',0.7921568627450980005, 0.8196078431372548767, 0.9333333333333333481 ) ;
#302 = EDGE_CURVE ( 'NONE', #34, #49, #182, .T. ) ;
#303 = CARTESIAN_POINT ( 'NONE',  ( 0.000000000000000000, 0.000000000000000000, -1.500000000000000222 ) ) ;
#304 = EDGE_LOOP ( 'NONE', ( #53, #229, #273, #89, #133, #56 ) ) ;
#305 = PLANE ( 'NONE',  #12 ) ;
#306 = CARTESIAN_POINT ( 'NONE',  ( -2.713546265191240092, 0.000000000000000000, 8.894171290360014116E-16 ) ) ;
#307 = DIRECTION ( 'NONE',  ( -0.000000000000000000, -1.000000000000000000, -0.000000000000000000 ) ) ;
#308 = ADVANCED_FACE ( 'NONE', ( #77 ), #305, .F. ) ;
#309 = VECTOR ( 'NONE', #40, 1000.000000000000000 ) ;
#310 = CARTESIAN_POINT ( 'NONE',  ( 1.356773132595619824, 30.00000000000000000, -2.350000000000000533 ) ) ;
#311 = ORIENTED_EDGE ( 'NONE', *, *, #187, .F. ) ;
#312 =( NAMED_UNIT ( * ) SI_UNIT ( $, .STERADIAN. ) SOLID_ANGLE_UNIT ( ) );
#313 = CARTESIAN_POINT ( 'NONE',  ( 2.713546265191240536, 30.00000000000000000, -2.626426216057322749E-15 ) ) ;
#314 = AXIS2_PLACEMENT_3D ( 'NONE', #252, #126, #55 ) ;
#315 = DIRECTION ( 'NONE',  ( 0.000000000000000000, 1.000000000000000000, 0.000000000000000000 ) ) ;
#316 = CARTESIAN_POINT ( 'NONE',  ( 2.713546265191240536, 0.000000000000000000, -2.626426216057322749E-15 ) ) ;
#317 = FACE_OUTER_BOUND ( 'NONE', #85, .T. ) ;
#318 = CIRCLE ( 'NONE', #222, 1.500000000000000222 ) ;
#319 = DIRECTION ( 'NONE',  ( 0.000000000000000000, -0.000000000000000000, 1.000000000000000000 ) ) ;
#320 = EDGE_CURVE ( 'NONE', #4, #211, #93, .T. ) ;
#321 = DIRECTION ( 'NONE',  ( 0.000000000000000000, 0.000000000000000000, 1.000000000000000000 ) ) ;
#322 = CARTESIAN_POINT ( 'NONE',  ( 2.713546265191240536, 30.00000000000000000, -2.626426216057322749E-15 ) ) ;
#323 = CARTESIAN_POINT ( 'NONE',  ( 1.836970198721030181E-16, 0.000000000000000000, 1.500000000000000222 ) ) ;
#324 = EDGE_LOOP ( 'NONE', ( #35, #204, #232, #283 ) ) ;
#325 = DIRECTION ( 'NONE',  ( -0.000000000000000000, -1.000000000000000000, -0.000000000000000000 ) ) ;
#326 = ORIENTED_EDGE ( 'NONE', *, *, #100, .F. ) ;
#327 = PLANE ( 'NONE',  #314 ) ;
ENDSEC;
END-ISO-10303-21;
