ISO-10303-21;
HEADER;
FILE_DESCRIPTION (( 'STEP AP214' ),
    '1' );
FILE_NAME ('Shalf.step',
    '2026-08-28T16:13:58',
    ( '' ),
    ( '' ),
    'SwSTEP 2.0',
    'SolidWorks 2024',
    '' );
FILE_SCHEMA (( 'AUTOMOTIVE_DESIGN' ));
ENDSEC;

DATA;
#1 = FILL_AREA_STYLE_COLOUR ( '', #150 ) ;
#2 = DIRECTION ( 'NONE',  ( 0.000000000000000000, 1.000000000000000000, 0.000000000000000000 ) ) ;
#3 = DIRECTION ( 'NONE',  ( 0.000000000000000000, 0.000000000000000000, 1.000000000000000000 ) ) ;
#4 = SURFACE_SIDE_STYLE ('',( #172 ) ) ;
#5 = AXIS2_PLACEMENT_3D ( 'NONE', #181, #79, #116 ) ;
#6 = ORIENTED_EDGE ( 'NONE', *, *, #156, .F. ) ;
#7 = DIRECTION ( 'NONE',  ( -0.000000000000000000, -1.000000000000000000, -0.000000000000000000 ) ) ;
#8 = DIRECTION ( 'NONE',  ( 0.000000000000000000, 1.000000000000000000, 0.000000000000000000 ) ) ;
#9 = CONICAL_SURFACE ( 'NONE', #56, 4.000000000000000000, 0.7853981633974725929 ) ;
#10 = AXIS2_PLACEMENT_3D ( 'NONE', #37, #2, #66 ) ;
#11 = CARTESIAN_POINT ( 'NONE',  ( 4.592425496802559181E-16, 0.000000000000000000, -3.499999999999975131 ) ) ;
#12 = ORIENTED_EDGE ( 'NONE', *, *, #58, .T. ) ;
#13 = PRODUCT_CONTEXT ( 'NONE', #221, 'mechanical' ) ;
#14 = ORIENTED_EDGE ( 'NONE', *, *, #166, .T. ) ;
#15 = DIRECTION ( 'NONE',  ( 0.000000000000000000, 1.000000000000000000, 0.000000000000000000 ) ) ;
#16 = AXIS2_PLACEMENT_3D ( 'NONE', #125, #15, #174 ) ;
#17 = CARTESIAN_POINT ( 'NONE',  ( 4.898587196589412829E-16, 0.5000000000000004441, -4.000000000000000000 ) ) ;
#18 = CARTESIAN_POINT ( 'NONE',  ( 4.898587196589412829E-16, 199.5000000000000284, 4.000000000000000000 ) ) ;
#19 = ORIENTED_EDGE ( 'NONE', *, *, #38, .T. ) ;
#20 = DIRECTION ( 'NONE',  ( 0.000000000000000000, 0.000000000000000000, -1.000000000000000000 ) ) ;
#21 = FACE_OUTER_BOUND ( 'NONE', #28, .T. ) ;
#22 = FACE_OUTER_BOUND ( 'NONE', #49, .T. ) ;
#23 = CARTESIAN_POINT ( 'NONE',  ( 4.592425496802575944E-16, 200.0000000000000000, 3.500000000000003109 ) ) ;
#24 = CARTESIAN_POINT ( 'NONE',  ( 4.898587196589412829E-16, 0.5000000000000004441, 4.000000000000000000 ) ) ;
#25 = VECTOR ( 'NONE', #91, 1000.000000000000000 ) ;
#26 = PRODUCT_RELATED_PRODUCT_CATEGORY ( 'part', '', ( #43 ) ) ;
#27 = DIRECTION ( 'NONE',  ( 1.000000000000000000, 0.000000000000000000, 0.000000000000000000 ) ) ;
#28 = EDGE_LOOP ( 'NONE', ( #187, #19, #32, #151 ) ) ;
#29 = AXIS2_PLACEMENT_3D ( 'NONE', #184, #76, #95 ) ;
#30 = ORIENTED_EDGE ( 'NONE', *, *, #97, .F. ) ;
#31 = DIRECTION ( 'NONE',  ( -0.000000000000000000, 1.000000000000000000, -0.000000000000000000 ) ) ;
#32 = ORIENTED_EDGE ( 'NONE', *, *, #156, .T. ) ;
#33 = PLANE ( 'NONE',  #63 ) ;
#34 = EDGE_CURVE ( 'NONE', #162, #89, #202, .T. ) ;
#35 = VECTOR ( 'NONE', #182, 1000.000000000000000 ) ;
#36 = FACE_OUTER_BOUND ( 'NONE', #225, .T. ) ;
#37 = CARTESIAN_POINT ( 'NONE',  ( 0.000000000000000000, 200.0000000000000000, 0.000000000000000000 ) ) ;
#38 = EDGE_CURVE ( 'NONE', #222, #119, #218, .T. ) ;
#39 = ORIENTED_EDGE ( 'NONE', *, *, #166, .F. ) ;
#40 = AXIS2_PLACEMENT_3D ( 'NONE', #186, #201, #27 ) ;
#41 = DIRECTION ( 'NONE',  ( 0.000000000000000000, -0.000000000000000000, 1.000000000000000000 ) ) ;
#42 = CARTESIAN_POINT ( 'NONE',  ( 0.000000000000000000, 0.5000000000000004441, 0.000000000000000000 ) ) ;
#43 = PRODUCT ( 'Shalf', 'Shalf', '', ( #13 ) ) ;
#44 = EDGE_CURVE ( 'NONE', #152, #119, #205, .T. ) ;
#45 = CONICAL_SURFACE ( 'NONE', #134, 4.000000000000000000, 0.7853981633974725929 ) ;
#46 = ORIENTED_EDGE ( 'NONE', *, *, #220, .F. ) ;
#47 = DIRECTION ( 'NONE',  ( 0.000000000000000000, 0.000000000000000000, 1.000000000000000000 ) ) ;
#48 = ORIENTED_EDGE ( 'NONE', *, *, #34, .T. ) ;
#49 = EDGE_LOOP ( 'NONE', ( #60, #171, #219, #200 ) ) ;
#50 = CARTESIAN_POINT ( 'NONE',  ( 0.000000000000000000, 0.5000000000000004441, 0.000000000000000000 ) ) ;
#51 = CARTESIAN_POINT ( 'NONE',  ( 0.000000000000000000, 200.0000000000000000, 0.000000000000000000 ) ) ;
#52 = DIRECTION ( 'NONE',  ( -0.000000000000000000, -1.000000000000000000, -0.000000000000000000 ) ) ;
#53 = EDGE_CURVE ( 'NONE', #222, #155, #144, .T. ) ;
#54 = DIRECTION ( 'NONE',  ( 0.000000000000000000, 0.000000000000000000, 1.000000000000000000 ) ) ;
#55 = FACE_OUTER_BOUND ( 'NONE', #135, .T. ) ;
#56 = AXIS2_PLACEMENT_3D ( 'NONE', #67, #210, #54 ) ;
#57 = FACE_OUTER_BOUND ( 'NONE', #170, .T. ) ;
#58 = EDGE_CURVE ( 'NONE', #147, #152, #167, .T. ) ;
#59 = CONICAL_SURFACE ( 'NONE', #199, 3.500000000000003109, 0.7853981633974725929 ) ;
#60 = ORIENTED_EDGE ( 'NONE', *, *, #58, .F. ) ;
#61 = ORIENTED_EDGE ( 'NONE', *, *, #38, .F. ) ;
#62 = VERTEX_POINT ( 'NONE', #128 ) ;
#63 = AXIS2_PLACEMENT_3D ( 'NONE', #193, #175, #178 ) ;
#64 = ORIENTED_EDGE ( 'NONE', *, *, #214, .F. ) ;
#65 = DIRECTION ( 'NONE',  ( 0.000000000000000000, 0.000000000000000000, 1.000000000000000000 ) ) ;
#66 = DIRECTION ( 'NONE',  ( 0.000000000000000000, 0.000000000000000000, 1.000000000000000000 ) ) ;
#67 = CARTESIAN_POINT ( 'NONE',  ( 0.000000000000000000, 0.5000000000000004441, 0.000000000000000000 ) ) ;
#68 = ADVANCED_FACE ( 'NONE', ( #36 ), #142, .T. ) ;
#69 = CARTESIAN_POINT ( 'NONE',  ( 0.000000000000000000, 199.5000000000000284, 0.000000000000000000 ) ) ;
#70 =( GEOMETRIC_REPRESENTATION_CONTEXT ( 3 ) GLOBAL_UNCERTAINTY_ASSIGNED_CONTEXT ( ( #211 ) ) GLOBAL_UNIT_ASSIGNED_CONTEXT ( ( #160, #138, #223 ) ) REPRESENTATION_CONTEXT ( 'NONE', 'WORKASPACE' ) );
#71 = DIRECTION ( 'NONE',  ( 0.000000000000000000, 0.000000000000000000, -1.000000000000000000 ) ) ;
#72 = CARTESIAN_POINT ( 'NONE',  ( 0.000000000000000000, 0.000000000000000000, 0.000000000000000000 ) ) ;
#73 = CARTESIAN_POINT ( 'NONE',  ( 0.000000000000000000, 200.0000000000000000, 0.000000000000000000 ) ) ;
#74 = AXIS2_PLACEMENT_3D ( 'NONE', #127, #8, #41 ) ;
#75 = ADVANCED_FACE ( 'NONE', ( #213 ), #59, .T. ) ;
#76 = DIRECTION ( 'NONE',  ( -0.000000000000000000, 1.000000000000000000, -0.000000000000000000 ) ) ;
#77 = ADVANCED_BREP_SHAPE_REPRESENTATION ( 'Shalf', ( #196, #40 ), #112 ) ;
#78 = ADVANCED_FACE ( 'NONE', ( #55 ), #113, .T. ) ;
#79 = DIRECTION ( 'NONE',  ( -0.000000000000000000, -1.000000000000000000, -0.000000000000000000 ) ) ;
#80 = LINE ( 'NONE', #115, #35 ) ;
#81 = APPLICATION_PROTOCOL_DEFINITION ( 'draft international standard', 'automotive_design', 1998, #221 ) ;
#82 = STYLED_ITEM ( 'NONE', ( #110 ), #196 ) ;
#83 = ORIENTED_EDGE ( 'NONE', *, *, #53, .T. ) ;
#84 = DIRECTION ( 'NONE',  ( 0.000000000000000000, 0.000000000000000000, 1.000000000000000000 ) ) ;
#85 = ADVANCED_FACE ( 'NONE', ( #21 ), #209, .T. ) ;
#86 = CIRCLE ( 'NONE', #195, 4.000000000000000000 ) ;
#87 = DIRECTION ( 'NONE',  ( 0.000000000000000000, 0.000000000000000000, 1.000000000000000000 ) ) ;
#88 = ADVANCED_FACE ( 'NONE', ( #57 ), #33, .F. ) ;
#89 = VERTEX_POINT ( 'NONE', #159 ) ;
#90 = AXIS2_PLACEMENT_3D ( 'NONE', #130, #189, #3 ) ;
#91 = DIRECTION ( 'NONE',  ( -0.000000000000000000, -1.000000000000000000, -0.000000000000000000 ) ) ;
#92 = CARTESIAN_POINT ( 'NONE',  ( 0.000000000000000000, 200.0000000000000000, 0.000000000000000000 ) ) ;
#93 = CARTESIAN_POINT ( 'NONE',  ( 0.000000000000000000, 200.0000000000000000, -3.500000000000003109 ) ) ;
#94 = CIRCLE ( 'NONE', #154, 4.000000000000000000 ) ;
#95 = DIRECTION ( 'NONE',  ( 0.000000000000000000, 0.000000000000000000, 1.000000000000000000 ) ) ;
#96 = ADVANCED_FACE ( 'NONE', ( #22 ), #168, .T. ) ;
#97 = EDGE_CURVE ( 'NONE', #162, #62, #102, .T. ) ;
#98 = PRODUCT_DEFINITION ( 'UNKNOWN', '', #192, #106 ) ;
#99 = ORIENTED_EDGE ( 'NONE', *, *, #114, .T. ) ;
#100 = APPLICATION_CONTEXT ( 'automotive_design' ) ;
#101 = ORIENTED_EDGE ( 'NONE', *, *, #133, .T. ) ;
#102 = LINE ( 'NONE', #17, #224 ) ;
#103 = AXIS2_PLACEMENT_3D ( 'NONE', #73, #131, #71 ) ;
#104 = DIRECTION ( 'NONE',  ( 0.000000000000000000, -1.000000000000000000, 0.000000000000000000 ) ) ;
#105 = ADVANCED_FACE ( 'NONE', ( #143 ), #9, .T. ) ;
#106 = PRODUCT_DEFINITION_CONTEXT ( 'detailed design', #100, 'design' ) ;
#107 = DIRECTION ( 'NONE',  ( -0.000000000000000000, -1.000000000000000000, -0.000000000000000000 ) ) ;
#108 =( NAMED_UNIT ( * ) PLANE_ANGLE_UNIT ( ) SI_UNIT ( $, .RADIAN. ) );
#109 = DIRECTION ( 'NONE',  ( 0.000000000000000000, 0.000000000000000000, -1.000000000000000000 ) ) ;
#110 = PRESENTATION_STYLE_ASSIGNMENT (( #204 ) ) ;
#111 = CARTESIAN_POINT ( 'NONE',  ( 0.000000000000000000, 0.5000000000000004441, 4.000000000000000000 ) ) ;
#112 =( GEOMETRIC_REPRESENTATION_CONTEXT ( 3 ) GLOBAL_UNCERTAINTY_ASSIGNED_CONTEXT ( ( #208 ) ) GLOBAL_UNIT_ASSIGNED_CONTEXT ( ( #206, #108, #215 ) ) REPRESENTATION_CONTEXT ( 'NONE', 'WORKASPACE' ) );
#113 = CYLINDRICAL_SURFACE ( 'NONE', #146, 4.000000000000000000 ) ;
#114 = EDGE_CURVE ( 'NONE', #89, #155, #129, .T. ) ;
#115 = CARTESIAN_POINT ( 'NONE',  ( 0.000000000000000000, 200.0000000000000000, -4.000000000000000000 ) ) ;
#116 = DIRECTION ( 'NONE',  ( 0.000000000000000000, 0.000000000000000000, 1.000000000000000000 ) ) ;
#117 = CIRCLE ( 'NONE', #16, 3.500000000000003109 ) ;
#118 = ADVANCED_FACE ( 'NONE', ( #194 ), #45, .T. ) ;
#119 = VERTEX_POINT ( 'NONE', #149 ) ;
#120 = SHAPE_DEFINITION_REPRESENTATION ( #139, #77 ) ;
#121 = MECHANICAL_DESIGN_GEOMETRIC_PRESENTATION_REPRESENTATION (  '', ( #82 ), #70 ) ;
#122 = ORIENTED_EDGE ( 'NONE', *, *, #114, .F. ) ;
#123 = FILL_AREA_STYLE ('',( #1 ) ) ;
#124 = DIRECTION ( 'NONE',  ( 8.659560562355141167E-17, -0.7071067811865302533, 0.7071067811865646702 ) ) ;
#125 = CARTESIAN_POINT ( 'NONE',  ( 0.000000000000000000, 200.0000000000000000, 0.000000000000000000 ) ) ;
#126 = AXIS2_PLACEMENT_3D ( 'NONE', #72, #52, #87 ) ;
#127 = CARTESIAN_POINT ( 'NONE',  ( 0.000000000000000000, 200.0000000000000000, 0.000000000000000000 ) ) ;
#128 = CARTESIAN_POINT ( 'NONE',  ( 0.000000000000000000, 0.5000000000000004441, -4.000000000000000000 ) ) ;
#129 = LINE ( 'NONE', #111, #180 ) ;
#130 = CARTESIAN_POINT ( 'NONE',  ( 0.000000000000000000, 199.5000000000000284, 0.000000000000000000 ) ) ;
#131 = DIRECTION ( 'NONE',  ( 0.000000000000000000, -1.000000000000000000, 0.000000000000000000 ) ) ;
#132 = ORIENTED_EDGE ( 'NONE', *, *, #220, .T. ) ;
#133 = EDGE_CURVE ( 'NONE', #89, #162, #148, .T. ) ;
#134 = AXIS2_PLACEMENT_3D ( 'NONE', #42, #163, #47 ) ;
#135 = EDGE_LOOP ( 'NONE', ( #197, #83, #14, #6 ) ) ;
#136 = LINE ( 'NONE', #153, #185 ) ;
#137 = ORIENTED_EDGE ( 'NONE', *, *, #217, .F. ) ;
#138 =( NAMED_UNIT ( * ) PLANE_ANGLE_UNIT ( ) SI_UNIT ( $, .RADIAN. ) );
#139 = PRODUCT_DEFINITION_SHAPE ( 'NONE', 'NONE',  #98 ) ;
#140 = DIRECTION ( 'NONE',  ( 8.659560562355143632E-17, 0.7071067811865302533, -0.7071067811865647812 ) ) ;
#141 = VECTOR ( 'NONE', #177, 1000.000000000000114 ) ;
#142 = PLANE ( 'NONE',  #74 ) ;
#143 = FACE_OUTER_BOUND ( 'NONE', #212, .T. ) ;
#144 = LINE ( 'NONE', #190, #25 ) ;
#145 = CARTESIAN_POINT ( 'NONE',  ( 0.000000000000000000, 200.0000000000000000, -3.500000000000003109 ) ) ;
#146 = AXIS2_PLACEMENT_3D ( 'NONE', #51, #7, #176 ) ;
#147 = VERTEX_POINT ( 'NONE', #23 ) ;
#148 = CIRCLE ( 'NONE', #5, 3.499999999999975131 ) ;
#149 = CARTESIAN_POINT ( 'NONE',  ( 0.000000000000000000, 199.5000000000000284, -4.000000000000000000 ) ) ;
#150 = COLOUR_RGB ( '',0.7921568627450980005, 0.8196078431372548767, 0.9333333333333333481 ) ;
#151 = ORIENTED_EDGE ( 'NONE', *, *, #214, .T. ) ;
#152 = VERTEX_POINT ( 'NONE', #93 ) ;
#153 = CARTESIAN_POINT ( 'NONE',  ( 4.286263797015740046E-16, 200.0000000000000000, 3.500000000000003109 ) ) ;
#154 = AXIS2_PLACEMENT_3D ( 'NONE', #69, #104, #65 ) ;
#155 = VERTEX_POINT ( 'NONE', #24 ) ;
#156 = EDGE_CURVE ( 'NONE', #119, #62, #80, .T. ) ;
#157 = ORIENTED_EDGE ( 'NONE', *, *, #44, .T. ) ;
#158 = CARTESIAN_POINT ( 'NONE',  ( 0.000000000000000000, 200.0000000000000000, 0.000000000000000000 ) ) ;
#159 = CARTESIAN_POINT ( 'NONE',  ( 0.000000000000000000, 0.000000000000000000, 3.499999999999975131 ) ) ;
#160 =( LENGTH_UNIT ( ) NAMED_UNIT ( * ) SI_UNIT ( .MILLI., .METRE. ) );
#161 = DIRECTION ( 'NONE',  ( 0.000000000000000000, -1.000000000000000000, 0.000000000000000000 ) ) ;
#162 = VERTEX_POINT ( 'NONE', #11 ) ;
#163 = DIRECTION ( 'NONE',  ( -0.000000000000000000, 1.000000000000000000, -0.000000000000000000 ) ) ;
#164 = CLOSED_SHELL ( 'NONE', ( #96, #105, #78, #85, #68, #88, #118, #75 ) ) ;
#165 = EDGE_LOOP ( 'NONE', ( #30, #173, #99, #64 ) ) ;
#166 = EDGE_CURVE ( 'NONE', #155, #62, #188, .T. ) ;
#167 = CIRCLE ( 'NONE', #10, 3.500000000000003109 ) ;
#168 = CONICAL_SURFACE ( 'NONE', #103, 3.500000000000003109, 0.7853981633974725929 ) ;
#169 = APPLICATION_PROTOCOL_DEFINITION ( 'draft international standard', 'automotive_design', 1998, #100 ) ;
#170 = EDGE_LOOP ( 'NONE', ( #101, #48 ) ) ;
#171 = ORIENTED_EDGE ( 'NONE', *, *, #217, .T. ) ;
#172 = SURFACE_STYLE_FILL_AREA ( #123 ) ;
#173 = ORIENTED_EDGE ( 'NONE', *, *, #133, .F. ) ;
#174 = DIRECTION ( 'NONE',  ( 0.000000000000000000, 0.000000000000000000, 1.000000000000000000 ) ) ;
#175 = DIRECTION ( 'NONE',  ( 0.000000000000000000, 1.000000000000000000, 0.000000000000000000 ) ) ;
#176 = DIRECTION ( 'NONE',  ( 0.000000000000000000, 0.000000000000000000, -1.000000000000000000 ) ) ;
#177 = DIRECTION ( 'NONE',  ( 0.000000000000000000, -0.7071067811865302533, -0.7071067811865646702 ) ) ;
#178 = DIRECTION ( 'NONE',  ( 0.000000000000000000, -0.000000000000000000, 1.000000000000000000 ) ) ;
#179 = EDGE_CURVE ( 'NONE', #119, #222, #94, .T. ) ;
#180 = VECTOR ( 'NONE', #198, 1000.000000000000114 ) ;
#181 = CARTESIAN_POINT ( 'NONE',  ( 0.000000000000000000, 0.000000000000000000, 0.000000000000000000 ) ) ;
#182 = DIRECTION ( 'NONE',  ( -0.000000000000000000, -1.000000000000000000, -0.000000000000000000 ) ) ;
#183 = EDGE_LOOP ( 'NONE', ( #137, #46, #157, #61 ) ) ;
#184 = CARTESIAN_POINT ( 'NONE',  ( 0.000000000000000000, 0.5000000000000004441, 0.000000000000000000 ) ) ;
#185 = VECTOR ( 'NONE', #124, 1000.000000000000114 ) ;
#186 = CARTESIAN_POINT ( 'NONE',  ( 0.000000000000000000, 0.000000000000000000, 0.000000000000000000 ) ) ;
#187 = ORIENTED_EDGE ( 'NONE', *, *, #53, .F. ) ;
#188 = CIRCLE ( 'NONE', #29, 4.000000000000000000 ) ;
#189 = DIRECTION ( 'NONE',  ( 0.000000000000000000, -1.000000000000000000, 0.000000000000000000 ) ) ;
#190 = CARTESIAN_POINT ( 'NONE',  ( 4.898587196589412829E-16, 200.0000000000000000, 4.000000000000000000 ) ) ;
#191 = ORIENTED_EDGE ( 'NONE', *, *, #97, .T. ) ;
#192 = PRODUCT_DEFINITION_FORMATION_WITH_SPECIFIED_SOURCE ( 'ANY', '', #43, .NOT_KNOWN. ) ;
#193 = CARTESIAN_POINT ( 'NONE',  ( 0.000000000000000000, 0.000000000000000000, 0.000000000000000000 ) ) ;
#194 = FACE_OUTER_BOUND ( 'NONE', #165, .T. ) ;
#195 = AXIS2_PLACEMENT_3D ( 'NONE', #50, #31, #84 ) ;
#196 = MANIFOLD_SOLID_BREP ( 'Chamfer1', #164 ) ;
#197 = ORIENTED_EDGE ( 'NONE', *, *, #179, .T. ) ;
#198 = DIRECTION ( 'NONE',  ( 0.000000000000000000, 0.7071067811865302533, 0.7071067811865647812 ) ) ;
#199 = AXIS2_PLACEMENT_3D ( 'NONE', #92, #161, #109 ) ;
#200 = ORIENTED_EDGE ( 'NONE', *, *, #44, .F. ) ;
#201 = DIRECTION ( 'NONE',  ( 0.000000000000000000, 0.000000000000000000, 1.000000000000000000 ) ) ;
#202 = CIRCLE ( 'NONE', #126, 3.499999999999975131 ) ;
#203 = ORIENTED_EDGE ( 'NONE', *, *, #34, .F. ) ;
#204 = SURFACE_STYLE_USAGE ( .BOTH. , #4 ) ;
#205 = LINE ( 'NONE', #145, #141 ) ;
#206 =( LENGTH_UNIT ( ) NAMED_UNIT ( * ) SI_UNIT ( .MILLI., .METRE. ) );
#207 = PRESENTATION_LAYER_ASSIGNMENT (  '', '', ( #82 ) ) ;
#208 = UNCERTAINTY_MEASURE_WITH_UNIT (LENGTH_MEASURE( 1.000000000000000082E-05 ), #206, 'distance_accuracy_value', 'NONE');
#209 = CYLINDRICAL_SURFACE ( 'NONE', #216, 4.000000000000000000 ) ;
#210 = DIRECTION ( 'NONE',  ( -0.000000000000000000, 1.000000000000000000, -0.000000000000000000 ) ) ;
#211 = UNCERTAINTY_MEASURE_WITH_UNIT (LENGTH_MEASURE( 1.000000000000000082E-05 ), #160, 'distance_accuracy_value', 'NONE');
#212 = EDGE_LOOP ( 'NONE', ( #203, #191, #39, #122 ) ) ;
#213 = FACE_OUTER_BOUND ( 'NONE', #183, .T. ) ;
#214 = EDGE_CURVE ( 'NONE', #62, #155, #86, .T. ) ;
#215 =( NAMED_UNIT ( * ) SI_UNIT ( $, .STERADIAN. ) SOLID_ANGLE_UNIT ( ) );
#216 = AXIS2_PLACEMENT_3D ( 'NONE', #158, #107, #20 ) ;
#217 = EDGE_CURVE ( 'NONE', #147, #222, #136, .T. ) ;
#218 = CIRCLE ( 'NONE', #90, 4.000000000000000000 ) ;
#219 = ORIENTED_EDGE ( 'NONE', *, *, #179, .F. ) ;
#220 = EDGE_CURVE ( 'NONE', #152, #147, #117, .T. ) ;
#221 = APPLICATION_CONTEXT ( 'automotive_design' ) ;
#222 = VERTEX_POINT ( 'NONE', #18 ) ;
#223 =( NAMED_UNIT ( * ) SI_UNIT ( $, .STERADIAN. ) SOLID_ANGLE_UNIT ( ) );
#224 = VECTOR ( 'NONE', #140, 1000.000000000000114 ) ;
#225 = EDGE_LOOP ( 'NONE', ( #132, #12 ) ) ;
ENDSEC;
END-ISO-10303-21;
