ISO-10303-21;
HEADER;
FILE_DESCRIPTION (( 'STEP AP214' ),
    '1' );
FILE_NAME ('Bearing House.step',
    '2026-08-28T16:08:23',
    ( '' ),
    ( '' ),
    'SwSTEP 2.0',
    'SolidWorks 2024',
    '' );
FILE_SCHEMA (( 'AUTOMOTIVE_DESIGN' ));
ENDSEC;

DATA;
#1 = ORIENTED_EDGE ( 'NONE', *, *, #578, .T. ) ;
#2 = EDGE_LOOP ( 'NONE', ( #249, #602, #752, #275 ) ) ;
#3 = DIRECTION ( 'NONE',  ( -0.000000000000000000, 1.000000000000000000, -0.000000000000000000 ) ) ;
#4 = CARTESIAN_POINT ( 'NONE',  ( -30.00000000000000355, 0.000000000000000000, -9.999999999999998224 ) ) ;
#5 = EDGE_CURVE ( 'NONE', #548, #874, #165, .T. ) ;
#6 = VERTEX_POINT ( 'NONE', #814 ) ;
#7 = EDGE_LOOP ( 'NONE', ( #706, #868, #243, #878 ) ) ;
#8 = AXIS2_PLACEMENT_3D ( 'NONE', #257, #737, #957 ) ;
#9 = EDGE_CURVE ( 'NONE', #279, #6, #711, .T. ) ;
#10 = VERTEX_POINT ( 'NONE', #172 ) ;
#11 = ORIENTED_EDGE ( 'NONE', *, *, #9, .T. ) ;
#12 = VECTOR ( 'NONE', #431, 1000.000000000000000 ) ;
#13 = AXIS2_PLACEMENT_3D ( 'NONE', #744, #975, #594 ) ;
#14 = DIRECTION ( 'NONE',  ( -0.000000000000000000, -0.000000000000000000, 1.000000000000000000 ) ) ;
#15 = PRODUCT_CONTEXT ( 'NONE', #333, 'mechanical' ) ;
#16 = ORIENTED_EDGE ( 'NONE', *, *, #848, .F. ) ;
#17 = ORIENTED_EDGE ( 'NONE', *, *, #5, .F. ) ;
#18 = CARTESIAN_POINT ( 'NONE',  ( 0.000000000000000000, 0.000000000000000000, 0.000000000000000000 ) ) ;
#19 = ADVANCED_FACE ( 'NONE', ( #652 ), #99, .F. ) ;
#20 = ORIENTED_EDGE ( 'NONE', *, *, #394, .T. ) ;
#21 = DIRECTION ( 'NONE',  ( 0.000000000000000000, -1.000000000000000000, 0.000000000000000000 ) ) ;
#22 = AXIS2_PLACEMENT_3D ( 'NONE', #222, #284, #917 ) ;
#23 = AXIS2_PLACEMENT_3D ( 'NONE', #851, #779, #79 ) ;
#24 = ADVANCED_FACE ( 'NONE', ( #121 ), #254, .F. ) ;
#25 = CARTESIAN_POINT ( 'NONE',  ( -29.99999999999999289, 0.000000000000000000, 10.00000000000000000 ) ) ;
#26 = ORIENTED_EDGE ( 'NONE', *, *, #799, .F. ) ;
#27 = DIRECTION ( 'NONE',  ( 0.000000000000000000, 0.000000000000000000, -1.000000000000000000 ) ) ;
#28 = LINE ( 'NONE', #811, #846 ) ;
#29 = AXIS2_PLACEMENT_3D ( 'NONE', #734, #823, #268 ) ;
#30 = DIRECTION ( 'NONE',  ( 0.000000000000000000, 1.000000000000000000, 0.000000000000000000 ) ) ;
#31 = FACE_OUTER_BOUND ( 'NONE', #140, .T. ) ;
#32 = EDGE_LOOP ( 'NONE', ( #788, #882, #74, #804 ) ) ;
#33 = CARTESIAN_POINT ( 'NONE',  ( 0.000000000000000000, 10.00000000000000000, 15.00000000000000000 ) ) ;
#34 = CARTESIAN_POINT ( 'NONE',  ( 30.00000000000000711, 0.000000000000000000, -11.59999999999999787 ) ) ;
#35 = CYLINDRICAL_SURFACE ( 'NONE', #501, 5.000000000000000888 ) ;
#36 = VERTEX_POINT ( 'NONE', #647 ) ;
#37 = EDGE_CURVE ( 'NONE', #678, #385, #233, .T. ) ;
#38 = LINE ( 'NONE', #661, #625 ) ;
#39 = CIRCLE ( 'NONE', #22, 5.000000000000000888 ) ;
#40 = DIRECTION ( 'NONE',  ( -0.000000000000000000, -1.000000000000000000, -0.000000000000000000 ) ) ;
#41 = PLANE ( 'NONE',  #582 ) ;
#42 = VERTEX_POINT ( 'NONE', #883 ) ;
#43 = CARTESIAN_POINT ( 'NONE',  ( 30.00000000000000711, 10.00000000000000000, -8.400000000000002132 ) ) ;
#44 = CARTESIAN_POINT ( 'NONE',  ( 30.00000000000000000, 10.00000000000000000, 15.00000000000000000 ) ) ;
#45 = AXIS2_PLACEMENT_3D ( 'NONE', #349, #669, #185 ) ;
#46 = AXIS2_PLACEMENT_3D ( 'NONE', #514, #120, #673 ) ;
#47 = DIRECTION ( 'NONE',  ( -0.000000000000000000, -1.000000000000000000, -0.000000000000000000 ) ) ;
#48 = ORIENTED_EDGE ( 'NONE', *, *, #833, .T. ) ;
#49 = CARTESIAN_POINT ( 'NONE',  ( 1.836970198721029589E-15, 0.000000000000000000, -15.00000000000000000 ) ) ;
#50 = EDGE_CURVE ( 'NONE', #702, #94, #535, .T. ) ;
#51 = CARTESIAN_POINT ( 'NONE',  ( -29.99999999999999289, 10.00000000000000000, -11.60000000000000320 ) ) ;
#52 = DIRECTION ( 'NONE',  ( 0.000000000000000000, 0.000000000000000000, 1.000000000000000000 ) ) ;
#53 = ORIENTED_EDGE ( 'NONE', *, *, #676, .T. ) ;
#54 = CARTESIAN_POINT ( 'NONE',  ( 1.836970198721029589E-15, 10.00000000000000000, -15.00000000000000000 ) ) ;
#55 = FILL_AREA_STYLE ('',( #991 ) ) ;
#56 = CARTESIAN_POINT ( 'NONE',  ( 30.00000000000000000, 10.00000000000000000, -15.00000000000000000 ) ) ;
#57 = ADVANCED_FACE ( 'NONE', ( #174 ), #116, .F. ) ;
#58 = ORIENTED_EDGE ( 'NONE', *, *, #179, .T. ) ;
#59 = DIRECTION ( 'NONE',  ( 0.000000000000000000, 0.000000000000000000, 1.000000000000000000 ) ) ;
#60 = FACE_OUTER_BOUND ( 'NONE', #893, .T. ) ;
#61 = CARTESIAN_POINT ( 'NONE',  ( 0.000000000000000000, 0.000000000000000000, 0.000000000000000000 ) ) ;
#62 = CIRCLE ( 'NONE', #631, 15.00000000000000000 ) ;
#63 = EDGE_LOOP ( 'NONE', ( #81, #890, #547, #984 ) ) ;
#64 = DIRECTION ( 'NONE',  ( 0.000000000000000000, 1.000000000000000000, 0.000000000000000000 ) ) ;
#65 = DIRECTION ( 'NONE',  ( -0.000000000000000000, -1.000000000000000000, -0.000000000000000000 ) ) ;
#66 = CYLINDRICAL_SURFACE ( 'NONE', #980, 1.600000000000002531 ) ;
#67 = CARTESIAN_POINT ( 'NONE',  ( 30.00000000000000711, 10.00000000000000000, 10.00000000000000000 ) ) ;
#68 = PRODUCT_DEFINITION_SHAPE ( 'NONE', 'NONE',  #241 ) ;
#69 = ORIENTED_EDGE ( 'NONE', *, *, #833, .F. ) ;
#70 = PRODUCT_RELATED_PRODUCT_CATEGORY ( 'part', '', ( #404 ) ) ;
#71 = VERTEX_POINT ( 'NONE', #180 ) ;
#72 = LINE ( 'NONE', #209, #616 ) ;
#73 = FACE_OUTER_BOUND ( 'NONE', #777, .T. ) ;
#74 = ORIENTED_EDGE ( 'NONE', *, *, #494, .F. ) ;
#75 = EDGE_LOOP ( 'NONE', ( #682, #352 ) ) ;
#76 = AXIS2_PLACEMENT_3D ( 'NONE', #960, #570, #491 ) ;
#77 = CIRCLE ( 'NONE', #648, 5.000000000000000888 ) ;
#78 = EDGE_CURVE ( 'NONE', #279, #95, #500, .T. ) ;
#79 = DIRECTION ( 'NONE',  ( 2.775557561562890957E-15, 0.000000000000000000, -1.000000000000000000 ) ) ;
#80 = EDGE_CURVE ( 'NONE', #105, #363, #954, .T. ) ;
#81 = ORIENTED_EDGE ( 'NONE', *, *, #442, .F. ) ;
#82 = ORIENTED_EDGE ( 'NONE', *, *, #80, .T. ) ;
#83 = ORIENTED_EDGE ( 'NONE', *, *, #668, .T. ) ;
#84 = EDGE_LOOP ( 'NONE', ( #820, #798, #156, #902 ) ) ;
#85 = ORIENTED_EDGE ( 'NONE', *, *, #879, .F. ) ;
#86 = CIRCLE ( 'NONE', #166, 5.000000000000000888 ) ;
#87 = ORIENTED_EDGE ( 'NONE', *, *, #689, .F. ) ;
#88 = ORIENTED_EDGE ( 'NONE', *, *, #905, .F. ) ;
#89 = ADVANCED_FACE ( 'NONE', ( #510 ), #414, .F. ) ;
#90 = VECTOR ( 'NONE', #453, 1000.000000000000000 ) ;
#91 = DIRECTION ( 'NONE',  ( 0.000000000000000000, 1.000000000000000000, 0.000000000000000000 ) ) ;
#92 = AXIS2_PLACEMENT_3D ( 'NONE', #330, #650, #114 ) ;
#93 = CARTESIAN_POINT ( 'NONE',  ( 15.00000000000000355, 10.00000000000000000, -15.00000000000000000 ) ) ;
#94 = VERTEX_POINT ( 'NONE', #745 ) ;
#95 = VERTEX_POINT ( 'NONE', #808 ) ;
#96 = CARTESIAN_POINT ( 'NONE',  ( 30.00000000000000711, 0.000000000000000000, -10.00000000000000000 ) ) ;
#97 = ADVANCED_FACE ( 'NONE', ( #729 ), #735, .F. ) ;
#98 = DIRECTION ( 'NONE',  ( -0.000000000000000000, 1.000000000000000000, -0.000000000000000000 ) ) ;
#99 = CYLINDRICAL_SURFACE ( 'NONE', #76, 1.599999999999997202 ) ;
#100 = ORIENTED_EDGE ( 'NONE', *, *, #705, .F. ) ;
#101 = CIRCLE ( 'NONE', #677, 1.599999999999997202 ) ;
#102 = CARTESIAN_POINT ( 'NONE',  ( -29.99999999999999289, 0.000000000000000000, -10.00000000000000000 ) ) ;
#103 = FACE_BOUND ( 'NONE', #484, .T. ) ;
#104 = CARTESIAN_POINT ( 'NONE',  ( -15.00000000000000355, 10.00000000000000000, 20.00000000000000000 ) ) ;
#105 = VERTEX_POINT ( 'NONE', #420 ) ;
#106 = DIRECTION ( 'NONE',  ( 0.000000000000000000, 0.000000000000000000, -1.000000000000000000 ) ) ;
#107 = CIRCLE ( 'NONE', #170, 5.000000000000000888 ) ;
#108 = AXIS2_PLACEMENT_3D ( 'NONE', #183, #860, #495 ) ;
#109 = FACE_OUTER_BOUND ( 'NONE', #122, .T. ) ;
#110 = ADVANCED_FACE ( 'NONE', ( #31 ), #35, .T. ) ;
#111 = DIRECTION ( 'NONE',  ( 0.000000000000000000, 0.000000000000000000, -1.000000000000000000 ) ) ;
#112 = EDGE_CURVE ( 'NONE', #203, #474, #889, .T. ) ;
#113 = EDGE_LOOP ( 'NONE', ( #755, #53, #784, #929 ) ) ;
#114 = DIRECTION ( 'NONE',  ( 2.081668171172168513E-15, 0.000000000000000000, -1.000000000000000000 ) ) ;
#115 = FACE_OUTER_BOUND ( 'NONE', #356, .T. ) ;
#116 = CYLINDRICAL_SURFACE ( 'NONE', #859, 1.600000000000002531 ) ;
#117 = EDGE_LOOP ( 'NONE', ( #523, #731, #831, #83 ) ) ;
#118 = LINE ( 'NONE', #208, #574 ) ;
#119 = CIRCLE ( 'NONE', #963, 20.00000000000000000 ) ;
#120 = DIRECTION ( 'NONE',  ( -0.000000000000000000, 1.000000000000000000, -0.000000000000000000 ) ) ;
#121 = FACE_OUTER_BOUND ( 'NONE', #323, .T. ) ;
#122 = EDGE_LOOP ( 'NONE', ( #701, #175, #87, #390 ) ) ;
#123 = ADVANCED_FACE ( 'NONE', ( #425 ), #41, .F. ) ;
#124 = DIRECTION ( 'NONE',  ( 0.000000000000000000, 0.000000000000000000, 1.000000000000000000 ) ) ;
#125 = CYLINDRICAL_SURFACE ( 'NONE', #46, 1.600000000000002531 ) ;
#126 = AXIS2_PLACEMENT_3D ( 'NONE', #992, #595, #355 ) ;
#127 = CIRCLE ( 'NONE', #971, 1.600000000000002531 ) ;
#128 = DIRECTION ( 'NONE',  ( 0.000000000000000000, 0.000000000000000000, 1.000000000000000000 ) ) ;
#129 = ORIENTED_EDGE ( 'NONE', *, *, #190, .T. ) ;
#130 = FACE_OUTER_BOUND ( 'NONE', #303, .T. ) ;
#131 = FACE_OUTER_BOUND ( 'NONE', #943, .T. ) ;
#132 = EDGE_CURVE ( 'NONE', #379, #643, #182, .T. ) ;
#133 = DIRECTION ( 'NONE',  ( 0.000000000000000000, -1.000000000000000000, 0.000000000000000000 ) ) ;
#134 = PRODUCT_DEFINITION_CONTEXT ( 'detailed design', #487, 'design' ) ;
#135 = EDGE_LOOP ( 'NONE', ( #85, #192, #569, #710, #920, #468, #234, #328, #864, #88, #444, #622, #48, #511, #856, #935, #849 ) ) ;
#136 = DIRECTION ( 'NONE',  ( 0.000000000000000000, 0.000000000000000000, 1.000000000000000000 ) ) ;
#137 = CARTESIAN_POINT ( 'NONE',  ( 0.000000000000000000, 10.00000000000000000, 0.000000000000000000 ) ) ;
#138 = VECTOR ( 'NONE', #267, 1000.000000000000000 ) ;
#139 = CARTESIAN_POINT ( 'NONE',  ( 0.000000000000000000, 0.000000000000000000, 0.000000000000000000 ) ) ;
#140 = EDGE_LOOP ( 'NONE', ( #151, #773, #989, #557 ) ) ;
#141 = DIRECTION ( 'NONE',  ( -0.000000000000000000, -1.000000000000000000, 0.000000000000000000 ) ) ;
#142 = DIRECTION ( 'NONE',  ( 0.000000000000000000, -1.000000000000000000, 0.000000000000000000 ) ) ;
#143 = DIRECTION ( 'NONE',  ( -0.000000000000000000, 1.000000000000000000, -0.000000000000000000 ) ) ;
#144 = CARTESIAN_POINT ( 'NONE',  ( -35.00000000000000000, 0.000000000000000000, 15.00000000000000000 ) ) ;
#145 = UNCERTAINTY_MEASURE_WITH_UNIT (LENGTH_MEASURE( 1.000000000000000082E-05 ), #221, 'distance_accuracy_value', 'NONE');
#146 = EDGE_LOOP ( 'NONE', ( #399, #687 ) ) ;
#147 = ADVANCED_FACE ( 'NONE', ( #761, #830, #522, #900, #770, #448 ), #202, .T. ) ;
#148 = DIRECTION ( 'NONE',  ( 0.000000000000000000, 0.000000000000000000, 1.000000000000000000 ) ) ;
#149 = CARTESIAN_POINT ( 'NONE',  ( -15.00000000000000355, 0.000000000000000000, -15.00000000000000000 ) ) ;
#150 = DIRECTION ( 'NONE',  ( -0.000000000000000000, 1.000000000000000000, -0.000000000000000000 ) ) ;
#151 = ORIENTED_EDGE ( 'NONE', *, *, #179, .F. ) ;
#152 = VECTOR ( 'NONE', #462, 1000.000000000000000 ) ;
#153 = ORIENTED_EDGE ( 'NONE', *, *, #955, .F. ) ;
#154 = EDGE_CURVE ( 'NONE', #235, #571, #201, .T. ) ;
#155 = DIRECTION ( 'NONE',  ( 0.000000000000000000, 0.000000000000000000, 1.000000000000000000 ) ) ;
#156 = ORIENTED_EDGE ( 'NONE', *, *, #780, .F. ) ;
#157 = EDGE_LOOP ( 'NONE', ( #20, #260 ) ) ;
#158 = AXIS2_PLACEMENT_3D ( 'NONE', #691, #998, #919 ) ;
#159 = FACE_OUTER_BOUND ( 'NONE', #862, .T. ) ;
#160 = LINE ( 'NONE', #422, #665 ) ;
#161 = ORIENTED_EDGE ( 'NONE', *, *, #473, .T. ) ;
#162 = ORIENTED_EDGE ( 'NONE', *, *, #494, .T. ) ;
#163 = DIRECTION ( 'NONE',  ( -0.000000000000000000, -1.000000000000000000, -0.000000000000000000 ) ) ;
#164 = ORIENTED_EDGE ( 'NONE', *, *, #560, .T. ) ;
#165 = LINE ( 'NONE', #169, #664 ) ;
#166 = AXIS2_PLACEMENT_3D ( 'NONE', #950, #171, #564 ) ;
#167 = PRODUCT_DEFINITION_FORMATION_WITH_SPECIFIED_SOURCE ( 'ANY', '', #404, .NOT_KNOWN. ) ;
#168 = ORIENTED_EDGE ( 'NONE', *, *, #80, .F. ) ;
#169 = CARTESIAN_POINT ( 'NONE',  ( -29.99999999999999289, 0.000000000000000000, 11.60000000000000320 ) ) ;
#170 = AXIS2_PLACEMENT_3D ( 'NONE', #504, #817, #423 ) ;
#171 = DIRECTION ( 'NONE',  ( -0.000000000000000000, 1.000000000000000000, -0.000000000000000000 ) ) ;
#172 = CARTESIAN_POINT ( 'NONE',  ( 30.00000000000000000, 10.00000000000000000, -15.00000000000000000 ) ) ;
#173 = ORIENTED_EDGE ( 'NONE', *, *, #473, .F. ) ;
#174 = FACE_OUTER_BOUND ( 'NONE', #956, .T. ) ;
#175 = ORIENTED_EDGE ( 'NONE', *, *, #364, .F. ) ;
#176 = AXIS2_PLACEMENT_3D ( 'NONE', #524, #766, #904 ) ;
#177 = EDGE_CURVE ( 'NONE', #809, #534, #383, .T. ) ;
#178 = LINE ( 'NONE', #959, #466 ) ;
#179 = EDGE_CURVE ( 'NONE', #660, #10, #598, .T. ) ;
#180 = CARTESIAN_POINT ( 'NONE',  ( 12.00000000000000178, 10.00000000000000000, 16.00000000000000000 ) ) ;
#181 = ORIENTED_EDGE ( 'NONE', *, *, #1003, .T. ) ;
#182 = CIRCLE ( 'NONE', #433, 1.600000000000002531 ) ;
#183 = CARTESIAN_POINT ( 'NONE',  ( 15.00000000000000355, 10.00000000000000000, 20.00000000000000000 ) ) ;
#184 = STYLED_ITEM ( 'NONE', ( #772 ), #424 ) ;
#185 = DIRECTION ( 'NONE',  ( 0.000000000000000000, -0.000000000000000000, -1.000000000000000000 ) ) ;
#186 = DIRECTION ( 'NONE',  ( 0.000000000000000000, 0.000000000000000000, -1.000000000000000000 ) ) ;
#187 = ORIENTED_EDGE ( 'NONE', *, *, #717, .T. ) ;
#188 = CARTESIAN_POINT ( 'NONE',  ( -35.00000000000000000, 10.00000000000000000, 9.999999999999998224 ) ) ;
#189 = CYLINDRICAL_SURFACE ( 'NONE', #348, 5.000000000000000000 ) ;
#190 = EDGE_CURVE ( 'NONE', #714, #629, #565, .T. ) ;
#191 = DIRECTION ( 'NONE',  ( 0.000000000000000000, 0.000000000000000000, 1.000000000000000000 ) ) ;
#192 = ORIENTED_EDGE ( 'NONE', *, *, #540, .T. ) ;
#193 = CYLINDRICAL_SURFACE ( 'NONE', #427, 5.000000000000000000 ) ;
#194 = VECTOR ( 'NONE', #470, 1000.000000000000000 ) ;
#195 = FACE_BOUND ( 'NONE', #335, .T. ) ;
#196 = CARTESIAN_POINT ( 'NONE',  ( 12.00000000000000178, 10.00000000000000000, -16.00000000000000000 ) ) ;
#197 = ORIENTED_EDGE ( 'NONE', *, *, #750, .T. ) ;
#198 = EDGE_CURVE ( 'NONE', #993, #71, #312, .T. ) ;
#199 = LINE ( 'NONE', #49, #226 ) ;
#200 = DIRECTION ( 'NONE',  ( 0.000000000000000000, -1.000000000000000000, 0.000000000000000000 ) ) ;
#201 = CIRCLE ( 'NONE', #778, 20.00000000000000000 ) ;
#202 = PLANE ( 'NONE',  #970 ) ;
#203 = VERTEX_POINT ( 'NONE', #285 ) ;
#204 = DIRECTION ( 'NONE',  ( 0.000000000000000000, 1.000000000000000000, 0.000000000000000000 ) ) ;
#205 = CARTESIAN_POINT ( 'NONE',  ( 35.00000000000000000, 0.000000000000000000, 9.999999999999998224 ) ) ;
#206 = CARTESIAN_POINT ( 'NONE',  ( -12.00000000000000178, 0.000000000000000000, 16.00000000000000000 ) ) ;
#207 = ORIENTED_EDGE ( 'NONE', *, *, #50, .T. ) ;
#208 = CARTESIAN_POINT ( 'NONE',  ( -15.00000000000000355, 0.000000000000000000, -15.00000000000000000 ) ) ;
#209 = CARTESIAN_POINT ( 'NONE',  ( -35.00000000000000000, 10.00000000000000000, 15.00000000000000000 ) ) ;
#210 = AXIS2_PLACEMENT_3D ( 'NONE', #508, #974, #822 ) ;
#211 = EDGE_CURVE ( 'NONE', #293, #203, #952, .T. ) ;
#212 = DIRECTION ( 'NONE',  ( 0.000000000000000000, 0.000000000000000000, -1.000000000000000000 ) ) ;
#213 = EDGE_LOOP ( 'NONE', ( #942, #924, #666, #225 ) ) ;
#214 = DIRECTION ( 'NONE',  ( 0.000000000000000000, -1.000000000000000000, 0.000000000000000000 ) ) ;
#215 = CARTESIAN_POINT ( 'NONE',  ( 15.00000000000000000, 10.00000000000000000, -15.00000000000000000 ) ) ;
#216 = CARTESIAN_POINT ( 'NONE',  ( 35.00000000000000000, 10.00000000000000000, 9.999999999999998224 ) ) ;
#217 = CLOSED_SHELL ( 'NONE', ( #341, #406, #19, #863, #730, #270, #428, #123, #24, #789, #440, #763, #326, #147, #854, #486, #969, #925, #656, #89, #57, #296, #248, #635, #624, #526, #97, #110, #397 ) ) ;
#218 = DIRECTION ( 'NONE',  ( 0.000000000000000000, 0.000000000000000000, -1.000000000000000000 ) ) ;
#219 = AXIS2_PLACEMENT_3D ( 'NONE', #1002, #456, #148 ) ;
#220 = ORIENTED_EDGE ( 'NONE', *, *, #517, .F. ) ;
#221 =( LENGTH_UNIT ( ) NAMED_UNIT ( * ) SI_UNIT ( .MILLI., .METRE. ) );
#222 = CARTESIAN_POINT ( 'NONE',  ( 15.00000000000000355, 0.000000000000000000, 20.00000000000000000 ) ) ;
#223 = CYLINDRICAL_SURFACE ( 'NONE', #1001, 15.00000000000000000 ) ;
#224 = EDGE_CURVE ( 'NONE', #400, #660, #681, .T. ) ;
#225 = ORIENTED_EDGE ( 'NONE', *, *, #939, .F. ) ;
#226 = VECTOR ( 'NONE', #603, 1000.000000000000000 ) ;
#227 = ORIENTED_EDGE ( 'NONE', *, *, #837, .T. ) ;
#228 = EDGE_LOOP ( 'NONE', ( #845, #438 ) ) ;
#229 = EDGE_CURVE ( 'NONE', #10, #528, #754, .T. ) ;
#230 = DIRECTION ( 'NONE',  ( 0.000000000000000000, 0.000000000000000000, 1.000000000000000000 ) ) ;
#231 = DIRECTION ( 'NONE',  ( 0.000000000000000000, -1.000000000000000000, 0.000000000000000000 ) ) ;
#232 = DIRECTION ( 'NONE',  ( 0.000000000000000000, 1.000000000000000000, 0.000000000000000000 ) ) ;
#233 = CIRCLE ( 'NONE', #298, 5.000000000000000000 ) ;
#234 = ORIENTED_EDGE ( 'NONE', *, *, #780, .T. ) ;
#235 = VERTEX_POINT ( 'NONE', #206 ) ;
#236 = CIRCLE ( 'NONE', #552, 5.000000000000000888 ) ;
#237 = EDGE_LOOP ( 'NONE', ( #455, #266, #464, #715 ) ) ;
#238 = VERTEX_POINT ( 'NONE', #362 ) ;
#239 = CARTESIAN_POINT ( 'NONE',  ( -29.99999999999999289, 0.000000000000000000, -8.399999999999998579 ) ) ;
#240 = CARTESIAN_POINT ( 'NONE',  ( -29.99999999999999289, 0.000000000000000000, 8.399999999999998579 ) ) ;
#241 = PRODUCT_DEFINITION ( 'UNKNOWN', '', #167, #134 ) ;
#242 = ORIENTED_EDGE ( 'NONE', *, *, #821, .T. ) ;
#243 = ORIENTED_EDGE ( 'NONE', *, *, #813, .T. ) ;
#244 = CIRCLE ( 'NONE', #256, 15.00000000000000000 ) ;
#245 =( NAMED_UNIT ( * ) PLANE_ANGLE_UNIT ( ) SI_UNIT ( $, .RADIAN. ) );
#246 = ORIENTED_EDGE ( 'NONE', *, *, #589, .T. ) ;
#247 = DIRECTION ( 'NONE',  ( 0.000000000000000000, 0.000000000000000000, 1.000000000000000000 ) ) ;
#248 = ADVANCED_FACE ( 'NONE', ( #838 ), #278, .F. ) ;
#249 = ORIENTED_EDGE ( 'NONE', *, *, #653, .F. ) ;
#250 = CARTESIAN_POINT ( 'NONE',  ( -29.99999999999999289, 10.00000000000000000, 10.00000000000000000 ) ) ;
#251 = EDGE_CURVE ( 'NONE', #94, #702, #614, .T. ) ;
#252 = DIRECTION ( 'NONE',  ( 1.000000000000000000, 0.000000000000000000, 0.000000000000000000 ) ) ;
#253 = CARTESIAN_POINT ( 'NONE',  ( 35.00000000000000000, 0.000000000000000000, -9.999999999999998224 ) ) ;
#254 = PLANE ( 'NONE',  #683 ) ;
#255 = ORIENTED_EDGE ( 'NONE', *, *, #198, .T. ) ;
#256 = AXIS2_PLACEMENT_3D ( 'NONE', #530, #64, #59 ) ;
#257 = CARTESIAN_POINT ( 'NONE',  ( -35.00000000000000000, 10.00000000000000000, 15.00000000000000000 ) ) ;
#258 = CARTESIAN_POINT ( 'NONE',  ( 30.00000000000000711, 0.000000000000000000, 8.400000000000002132 ) ) ;
#259 = DIRECTION ( 'NONE',  ( 0.000000000000000000, -1.000000000000000000, 0.000000000000000000 ) ) ;
#260 = ORIENTED_EDGE ( 'NONE', *, *, #743, .T. ) ;
#261 = AXIS2_PLACEMENT_3D ( 'NONE', #844, #824, #751 ) ;
#262 = DIRECTION ( 'NONE',  ( -0.000000000000000000, 1.000000000000000000, -0.000000000000000000 ) ) ;
#263 = EDGE_CURVE ( 'NONE', #946, #467, #314, .T. ) ;
#264 = CARTESIAN_POINT ( 'NONE',  ( -12.00000000000000355, 10.00000000000000000, 16.00000000000000000 ) ) ;
#265 = DIRECTION ( 'NONE',  ( 0.000000000000000000, -1.000000000000000000, 0.000000000000000000 ) ) ;
#266 = ORIENTED_EDGE ( 'NONE', *, *, #653, .T. ) ;
#267 = DIRECTION ( 'NONE',  ( -1.000000000000000000, -0.000000000000000000, -0.000000000000000000 ) ) ;
#268 = DIRECTION ( 'NONE',  ( 0.000000000000000000, 0.000000000000000000, -1.000000000000000000 ) ) ;
#269 = DIRECTION ( 'NONE',  ( 0.000000000000000000, -1.000000000000000000, 0.000000000000000000 ) ) ;
#270 = ADVANCED_FACE ( 'NONE', ( #373 ), #274, .T. ) ;
#271 = EDGE_LOOP ( 'NONE', ( #181, #869 ) ) ;
#272 = DIRECTION ( 'NONE',  ( 0.000000000000000000, 0.000000000000000000, -1.000000000000000000 ) ) ;
#273 = DIRECTION ( 'NONE',  ( -1.000000000000000000, -0.000000000000000000, -0.000000000000000000 ) ) ;
#274 = CYLINDRICAL_SURFACE ( 'NONE', #158, 20.00000000000000000 ) ;
#275 = ORIENTED_EDGE ( 'NONE', *, *, #743, .F. ) ;
#276 = DIRECTION ( 'NONE',  ( 0.000000000000000000, -1.000000000000000000, 0.000000000000000000 ) ) ;
#277 = CARTESIAN_POINT ( 'NONE',  ( -12.00000000000000178, 10.00000000000000000, -16.00000000000000000 ) ) ;
#278 = CYLINDRICAL_SURFACE ( 'NONE', #825, 5.000000000000000888 ) ;
#279 = VERTEX_POINT ( 'NONE', #196 ) ;
#280 = EDGE_CURVE ( 'NONE', #534, #702, #515, .T. ) ;
#281 = DIRECTION ( 'NONE',  ( 0.000000000000000000, 0.000000000000000000, 1.000000000000000000 ) ) ;
#282 = EDGE_CURVE ( 'NONE', #42, #402, #178, .T. ) ;
#283 = SURFACE_STYLE_USAGE ( .BOTH. , #922 ) ;
#284 = DIRECTION ( 'NONE',  ( -0.000000000000000000, 1.000000000000000000, -0.000000000000000000 ) ) ;
#285 = CARTESIAN_POINT ( 'NONE',  ( -12.00000000000000178, 0.000000000000000000, -16.00000000000000000 ) ) ;
#286 = EDGE_LOOP ( 'NONE', ( #583, #966, #539, #187 ) ) ;
#287 = CARTESIAN_POINT ( 'NONE',  ( -29.99999999999999289, 10.00000000000000000, 10.00000000000000000 ) ) ;
#288 = CARTESIAN_POINT ( 'NONE',  ( -15.00000000000000355, 10.00000000000000000, 20.00000000000000000 ) ) ;
#289 = CARTESIAN_POINT ( 'NONE',  ( -35.00000000000000000, 0.000000000000000000, -15.00000000000000000 ) ) ;
#290 = AXIS2_PLACEMENT_3D ( 'NONE', #96, #405, #719 ) ;
#291 = CARTESIAN_POINT ( 'NONE',  ( -29.99999999999999289, 0.000000000000000000, -10.00000000000000000 ) ) ;
#292 = CARTESIAN_POINT ( 'NONE',  ( 0.000000000000000000, 0.000000000000000000, 0.000000000000000000 ) ) ;
#293 = VERTEX_POINT ( 'NONE', #651 ) ;
#294 = DIRECTION ( 'NONE',  ( -0.000000000000000000, -0.000000000000000000, 1.000000000000000000 ) ) ;
#295 = DIRECTION ( 'NONE',  ( 0.000000000000000000, 1.000000000000000000, 0.000000000000000000 ) ) ;
#296 = ADVANCED_FACE ( 'NONE', ( #968 ), #584, .F. ) ;
#297 = DIRECTION ( 'NONE',  ( -0.000000000000000000, 1.000000000000000000, -0.000000000000000000 ) ) ;
#298 = AXIS2_PLACEMENT_3D ( 'NONE', #338, #723, #186 ) ;
#299 = CIRCLE ( 'NONE', #13, 5.000000000000000888 ) ;
#300 = EDGE_LOOP ( 'NONE', ( #941, #403 ) ) ;
#301 = DIRECTION ( 'NONE',  ( 0.000000000000000000, 0.000000000000000000, -1.000000000000000000 ) ) ;
#302 = CARTESIAN_POINT ( 'NONE',  ( 0.000000000000000000, 0.000000000000000000, 0.000000000000000000 ) ) ;
#303 = EDGE_LOOP ( 'NONE', ( #391, #566, #386, #724 ) ) ;
#304 = EDGE_CURVE ( 'NONE', #238, #671, #588, .T. ) ;
#305 = ORIENTED_EDGE ( 'NONE', *, *, #382, .F. ) ;
#306 = DIRECTION ( 'NONE',  ( 0.000000000000000000, 0.000000000000000000, -1.000000000000000000 ) ) ;
#307 = CARTESIAN_POINT ( 'NONE',  ( -12.00000000000000178, 10.00000000000000000, 16.00000000000000000 ) ) ;
#308 = AXIS2_PLACEMENT_3D ( 'NONE', #321, #21, #106 ) ;
#309 = DIRECTION ( 'NONE',  ( 0.000000000000000000, -1.000000000000000000, 0.000000000000000000 ) ) ;
#310 = EDGE_LOOP ( 'NONE', ( #246, #908 ) ) ;
#311 = VERTEX_POINT ( 'NONE', #894 ) ;
#312 = CIRCLE ( 'NONE', #630, 20.00000000000000000 ) ;
#313 = VERTEX_POINT ( 'NONE', #253 ) ;
#314 = LINE ( 'NONE', #144, #90 ) ;
#315 = VECTOR ( 'NONE', #365, 1000.000000000000000 ) ;
#316 = DIRECTION ( 'NONE',  ( -0.000000000000000000, 1.000000000000000000, -0.000000000000000000 ) ) ;
#317 = EDGE_CURVE ( 'NONE', #809, #94, #499, .T. ) ;
#318 = LINE ( 'NONE', #93, #592 ) ;
#319 =( NAMED_UNIT ( * ) SI_UNIT ( $, .STERADIAN. ) SOLID_ANGLE_UNIT ( ) );
#320 = VERTEX_POINT ( 'NONE', #34 ) ;
#321 = CARTESIAN_POINT ( 'NONE',  ( 0.000000000000000000, 10.00000000000000000, 0.000000000000000000 ) ) ;
#322 = CARTESIAN_POINT ( 'NONE',  ( 0.000000000000000000, 0.000000000000000000, 15.00000000000000000 ) ) ;
#323 = EDGE_LOOP ( 'NONE', ( #168, #747, #696, #961 ) ) ;
#324 = AXIS2_PLACEMENT_3D ( 'NONE', #933, #232, #472 ) ;
#325 = PLANE ( 'NONE',  #8 ) ;
#326 = ADVANCED_FACE ( 'NONE', ( #331, #343, #103, #195, #354, #115 ), #412, .F. ) ;
#327 = DIRECTION ( 'NONE',  ( -0.000000000000000000, 1.000000000000000000, -0.000000000000000000 ) ) ;
#328 = ORIENTED_EDGE ( 'NONE', *, *, #506, .F. ) ;
#329 = CARTESIAN_POINT ( 'NONE',  ( 30.00000000000000711, 0.000000000000000000, 11.59999999999999787 ) ) ;
#330 = CARTESIAN_POINT ( 'NONE',  ( 30.00000000000000355, 10.00000000000000000, 9.999999999999998224 ) ) ;
#331 = FACE_BOUND ( 'NONE', #146, .T. ) ;
#332 = CARTESIAN_POINT ( 'NONE',  ( 30.00000000000000711, 0.000000000000000000, -10.00000000000000000 ) ) ;
#333 = APPLICATION_CONTEXT ( 'automotive_design' ) ;
#334 = EDGE_CURVE ( 'NONE', #71, #105, #107, .T. ) ;
#335 = EDGE_LOOP ( 'NONE', ( #161, #787 ) ) ;
#336 = LINE ( 'NONE', #716, #867 ) ;
#337 = DIRECTION ( 'NONE',  ( -0.000000000000000000, 1.000000000000000000, -0.000000000000000000 ) ) ;
#338 = CARTESIAN_POINT ( 'NONE',  ( -30.00000000000000355, 0.000000000000000000, 9.999999999999998224 ) ) ;
#339 = ORIENTED_EDGE ( 'NONE', *, *, #597, .F. ) ;
#340 = CIRCLE ( 'NONE', #308, 15.00000000000000000 ) ;
#341 = ADVANCED_FACE ( 'NONE', ( #727 ), #125, .F. ) ;
#342 = DIRECTION ( 'NONE',  ( 0.000000000000000000, 0.000000000000000000, -1.000000000000000000 ) ) ;
#343 = FACE_BOUND ( 'NONE', #228, .T. ) ;
#344 = ORIENTED_EDGE ( 'NONE', *, *, #471, .F. ) ;
#345 = CARTESIAN_POINT ( 'NONE',  ( -35.00000000000000000, 10.00000000000000000, 15.00000000000000000 ) ) ;
#346 = ORIENTED_EDGE ( 'NONE', *, *, #229, .T. ) ;
#347 = LINE ( 'NONE', #358, #774 ) ;
#348 = AXIS2_PLACEMENT_3D ( 'NONE', #419, #657, #964 ) ;
#349 = CARTESIAN_POINT ( 'NONE',  ( 0.000000000000000000, 10.00000000000000000, 0.000000000000000000 ) ) ;
#350 = EDGE_CURVE ( 'NONE', #993, #235, #739, .T. ) ;
#351 = DIRECTION ( 'NONE',  ( 0.000000000000000000, 0.000000000000000000, -1.000000000000000000 ) ) ;
#352 = ORIENTED_EDGE ( 'NONE', *, *, #597, .T. ) ;
#353 = CARTESIAN_POINT ( 'NONE',  ( -35.00000000000000000, 0.000000000000000000, -15.00000000000000000 ) ) ;
#354 = FACE_BOUND ( 'NONE', #157, .T. ) ;
#355 = DIRECTION ( 'NONE',  ( 6.938893903907228378E-16, 0.000000000000000000, -1.000000000000000000 ) ) ;
#356 = EDGE_LOOP ( 'NONE', ( #479, #369, #928, #129, #503, #591, #255, #563, #82, #781, #704, #58, #771, #632, #11, #949, #162 ) ) ;
#357 = AXIS2_PLACEMENT_3D ( 'NONE', #102, #493, #875 ) ;
#358 = CARTESIAN_POINT ( 'NONE',  ( -35.00000000000000000, 10.00000000000000000, -9.999999999999998224 ) ) ;
#359 = CARTESIAN_POINT ( 'NONE',  ( -35.00000000000000000, 0.000000000000000000, -9.999999999999998224 ) ) ;
#360 = DIRECTION ( 'NONE',  ( 0.000000000000000000, 0.000000000000000000, 1.000000000000000000 ) ) ;
#361 = EDGE_CURVE ( 'NONE', #571, #71, #436, .T. ) ;
#362 = CARTESIAN_POINT ( 'NONE',  ( 30.00000000000000711, 0.000000000000000000, -8.400000000000002132 ) ) ;
#363 = VERTEX_POINT ( 'NONE', #44 ) ;
#364 = EDGE_CURVE ( 'NONE', #467, #363, #899, .T. ) ;
#365 = DIRECTION ( 'NONE',  ( 0.000000000000000000, -1.000000000000000000, 0.000000000000000000 ) ) ;
#366 = VECTOR ( 'NONE', #252, 1000.000000000000000 ) ;
#367 = DIRECTION ( 'NONE',  ( 0.000000000000000000, 0.000000000000000000, 1.000000000000000000 ) ) ;
#368 = DIRECTION ( 'NONE',  ( 0.000000000000000000, 0.000000000000000000, 1.000000000000000000 ) ) ;
#369 = ORIENTED_EDGE ( 'NONE', *, *, #517, .T. ) ;
#370 = CARTESIAN_POINT ( 'NONE',  ( -30.00000000000000355, 0.000000000000000000, 15.00000000000000000 ) ) ;
#371 = DIRECTION ( 'NONE',  ( 0.000000000000000000, 0.000000000000000000, -1.000000000000000000 ) ) ;
#372 = DIRECTION ( 'NONE',  ( 0.000000000000000000, 1.000000000000000000, 0.000000000000000000 ) ) ;
#373 = FACE_OUTER_BOUND ( 'NONE', #396, .T. ) ;
#374 = ORIENTED_EDGE ( 'NONE', *, *, #251, .T. ) ;
#375 = EDGE_CURVE ( 'NONE', #528, #313, #299, .T. ) ;
#376 =( NAMED_UNIT ( * ) PLANE_ANGLE_UNIT ( ) SI_UNIT ( $, .RADIAN. ) );
#377 = CARTESIAN_POINT ( 'NONE',  ( -30.00000000000000355, 10.00000000000000000, -9.999999999999998224 ) ) ;
#378 = AXIS2_PLACEMENT_3D ( 'NONE', #910, #295, #360 ) ;
#379 = VERTEX_POINT ( 'NONE', #51 ) ;
#380 = CARTESIAN_POINT ( 'NONE',  ( -15.00000000000000355, 10.00000000000000000, 15.00000000000000000 ) ) ;
#381 = LINE ( 'NONE', #700, #981 ) ;
#382 = EDGE_CURVE ( 'NONE', #10, #507, #662, .T. ) ;
#383 = CIRCLE ( 'NONE', #790, 1.599999999999997202 ) ;
#384 = VECTOR ( 'NONE', #916, 1000.000000000000000 ) ;
#385 = VERTEX_POINT ( 'NONE', #891 ) ;
#386 = ORIENTED_EDGE ( 'NONE', *, *, #37, .F. ) ;
#387 = CARTESIAN_POINT ( 'NONE',  ( 0.000000000000000000, 10.00000000000000000, 0.000000000000000000 ) ) ;
#388 = CARTESIAN_POINT ( 'NONE',  ( 30.00000000000000711, 0.000000000000000000, -11.59999999999999787 ) ) ;
#389 = CARTESIAN_POINT ( 'NONE',  ( -29.99999999999999289, 0.000000000000000000, -11.60000000000000320 ) ) ;
#390 = ORIENTED_EDGE ( 'NONE', *, *, #837, .F. ) ;
#391 = ORIENTED_EDGE ( 'NONE', *, *, #190, .F. ) ;
#392 = CIRCLE ( 'NONE', #559, 1.599999999999997202 ) ;
#393 = CIRCLE ( 'NONE', #694, 15.00000000000000000 ) ;
#394 = EDGE_CURVE ( 'NONE', #736, #623, #62, .T. ) ;
#395 = EDGE_LOOP ( 'NONE', ( #16, #498, #26, #17 ) ) ;
#396 = EDGE_LOOP ( 'NONE', ( #884, #197, #483, #555 ) ) ;
#397 = ADVANCED_FACE ( 'NONE', ( #109 ), #189, .T. ) ;
#398 = VECTOR ( 'NONE', #443, 1000.000000000000000 ) ;
#399 = ORIENTED_EDGE ( 'NONE', *, *, #799, .T. ) ;
#400 = VERTEX_POINT ( 'NONE', #829 ) ;
#401 = CIRCLE ( 'NONE', #92, 5.000000000000000000 ) ;
#402 = VERTEX_POINT ( 'NONE', #380 ) ;
#403 = ORIENTED_EDGE ( 'NONE', *, *, #948, .T. ) ;
#404 = PRODUCT ( 'Bearing House', 'Bearing House', '', ( #15 ) ) ;
#405 = DIRECTION ( 'NONE',  ( 0.000000000000000000, 1.000000000000000000, 0.000000000000000000 ) ) ;
#406 = ADVANCED_FACE ( 'NONE', ( #60 ), #541, .F. ) ;
#407 = CIRCLE ( 'NONE', #210, 5.000000000000000000 ) ;
#408 = CARTESIAN_POINT ( 'NONE',  ( -35.00000000000000000, 10.00000000000000000, 15.00000000000000000 ) ) ;
#409 = VECTOR ( 'NONE', #558, 1000.000000000000000 ) ;
#410 = ORIENTED_EDGE ( 'NONE', *, *, #728, .T. ) ;
#411 = CARTESIAN_POINT ( 'NONE',  ( -35.00000000000000000, 10.00000000000000000, 15.00000000000000000 ) ) ;
#412 = PLANE ( 'NONE',  #45 ) ;
#413 = EDGE_CURVE ( 'NONE', #782, #714, #72, .T. ) ;
#414 = CYLINDRICAL_SURFACE ( 'NONE', #764, 1.599999999999997202 ) ;
#415 = VECTOR ( 'NONE', #505, 1000.000000000000000 ) ;
#416 = VECTOR ( 'NONE', #430, 1000.000000000000000 ) ;
#417 = ORIENTED_EDGE ( 'NONE', *, *, #334, .F. ) ;
#418 = CARTESIAN_POINT ( 'NONE',  ( -29.99999999999999289, 0.000000000000000000, 11.60000000000000320 ) ) ;
#419 = CARTESIAN_POINT ( 'NONE',  ( 30.00000000000000355, 10.00000000000000000, 9.999999999999998224 ) ) ;
#420 = CARTESIAN_POINT ( 'NONE',  ( 15.00000000000000000, 10.00000000000000000, 15.00000000000000000 ) ) ;
#421 = ORIENTED_EDGE ( 'NONE', *, *, #154, .T. ) ;
#422 = CARTESIAN_POINT ( 'NONE',  ( -35.00000000000000000, 0.000000000000000000, 15.00000000000000000 ) ) ;
#423 = DIRECTION ( 'NONE',  ( 0.000000000000000000, 0.000000000000000000, -1.000000000000000000 ) ) ;
#424 = MANIFOLD_SOLID_BREP ( 'Fillet1', #217 ) ;
#425 = FACE_OUTER_BOUND ( 'NONE', #576, .T. ) ;
#426 = VERTEX_POINT ( 'NONE', #359 ) ;
#427 = AXIS2_PLACEMENT_3D ( 'NONE', #816, #757, #841 ) ;
#428 = ADVANCED_FACE ( 'NONE', ( #600 ), #460, .F. ) ;
#429 = CYLINDRICAL_SURFACE ( 'NONE', #461, 1.599999999999997202 ) ;
#430 = DIRECTION ( 'NONE',  ( -0.000000000000000000, 1.000000000000000000, -0.000000000000000000 ) ) ;
#431 = DIRECTION ( 'NONE',  ( 1.000000000000000000, 0.000000000000000000, 0.000000000000000000 ) ) ;
#432 = ORIENTED_EDGE ( 'NONE', *, *, #540, .F. ) ;
#433 = AXIS2_PLACEMENT_3D ( 'NONE', #976, #269, #590 ) ;
#434 = CARTESIAN_POINT ( 'NONE',  ( -35.00000000000000000, 10.00000000000000000, -15.00000000000000000 ) ) ;
#435 = VECTOR ( 'NONE', #521, 1000.000000000000000 ) ;
#436 = LINE ( 'NONE', #812, #502 ) ;
#437 = DIRECTION ( 'NONE',  ( 0.000000000000000000, 1.000000000000000000, 0.000000000000000000 ) ) ;
#438 = ORIENTED_EDGE ( 'NONE', *, *, #939, .T. ) ;
#439 = CARTESIAN_POINT ( 'NONE',  ( 35.00000000000000000, 10.00000000000000000, -9.999999999999998224 ) ) ;
#440 = ADVANCED_FACE ( 'NONE', ( #131 ), #842, .F. ) ;
#441 = SURFACE_STYLE_FILL_AREA ( #55 ) ;
#442 = EDGE_CURVE ( 'NONE', #402, #993, #871, .T. ) ;
#443 = DIRECTION ( 'NONE',  ( 0.000000000000000000, 0.000000000000000000, -1.000000000000000000 ) ) ;
#444 = ORIENTED_EDGE ( 'NONE', *, *, #689, .T. ) ;
#445 = AXIS2_PLACEMENT_3D ( 'NONE', #287, #276, #272 ) ;
#446 = DIRECTION ( 'NONE',  ( -0.000000000000000000, -1.000000000000000000, 0.000000000000000000 ) ) ;
#447 = CARTESIAN_POINT ( 'NONE',  ( -29.99999999999999289, 0.000000000000000000, -10.00000000000000000 ) ) ;
#448 = FACE_OUTER_BOUND ( 'NONE', #135, .T. ) ;
#449 = ORIENTED_EDGE ( 'NONE', *, *, #198, .F. ) ;
#450 = AXIS2_PLACEMENT_3D ( 'NONE', #659, #265, #496 ) ;
#451 = LINE ( 'NONE', #996, #435 ) ;
#452 = AXIS2_PLACEMENT_3D ( 'NONE', #137, #65, #371 ) ;
#453 = DIRECTION ( 'NONE',  ( 1.000000000000000000, 0.000000000000000000, 0.000000000000000000 ) ) ;
#454 = EDGE_CURVE ( 'NONE', #629, #678, #847, .T. ) ;
#455 = ORIENTED_EDGE ( 'NONE', *, *, #948, .F. ) ;
#456 = DIRECTION ( 'NONE',  ( -0.000000000000000000, 1.000000000000000000, -0.000000000000000000 ) ) ;
#457 = ADVANCED_BREP_SHAPE_REPRESENTATION ( 'Bearing House', ( #424, #756 ), #561 ) ;
#458 = EDGE_LOOP ( 'NONE', ( #762, #638, #1, #596 ) ) ;
#459 = EDGE_CURVE ( 'NONE', #507, #279, #537, .T. ) ;
#460 = PLANE ( 'NONE',  #698 ) ;
#461 = AXIS2_PLACEMENT_3D ( 'NONE', #519, #679, #124 ) ;
#462 = DIRECTION ( 'NONE',  ( 0.000000000000000000, 0.000000000000000000, -1.000000000000000000 ) ) ;
#463 = ORIENTED_EDGE ( 'NONE', *, *, #5, .T. ) ;
#464 = ORIENTED_EDGE ( 'NONE', *, *, #394, .F. ) ;
#465 = CARTESIAN_POINT ( 'NONE',  ( 0.000000000000000000, 0.000000000000000000, 0.000000000000000000 ) ) ;
#466 = VECTOR ( 'NONE', #579, 1000.000000000000000 ) ;
#467 = VERTEX_POINT ( 'NONE', #926 ) ;
#468 = ORIENTED_EDGE ( 'NONE', *, *, #668, .F. ) ;
#469 = ORIENTED_EDGE ( 'NONE', *, *, #361, .T. ) ;
#470 = DIRECTION ( 'NONE',  ( -0.000000000000000000, 1.000000000000000000, -0.000000000000000000 ) ) ;
#471 = EDGE_CURVE ( 'NONE', #105, #946, #451, .T. ) ;
#472 = DIRECTION ( 'NONE',  ( 0.000000000000000000, 0.000000000000000000, 1.000000000000000000 ) ) ;
#473 = EDGE_CURVE ( 'NONE', #643, #379, #127, .T. ) ;
#474 = VERTEX_POINT ( 'NONE', #277 ) ;
#475 = VERTEX_POINT ( 'NONE', #205 ) ;
#476 = LINE ( 'NONE', #712, #895 ) ;
#477 = CARTESIAN_POINT ( 'NONE',  ( 0.000000000000000000, 0.000000000000000000, 0.000000000000000000 ) ) ;
#478 = AXIS2_PLACEMENT_3D ( 'NONE', #250, #866, #27 ) ;
#479 = ORIENTED_EDGE ( 'NONE', *, *, #621, .T. ) ;
#480 = DIRECTION ( 'NONE',  ( -0.000000000000000000, 1.000000000000000000, -0.000000000000000000 ) ) ;
#481 = LINE ( 'NONE', #239, #409 ) ;
#482 = APPLICATION_PROTOCOL_DEFINITION ( 'draft international standard', 'automotive_design', 1998, #333 ) ;
#483 = ORIENTED_EDGE ( 'NONE', *, *, #211, .T. ) ;
#484 = EDGE_LOOP ( 'NONE', ( #374, #207 ) ) ;
#485 = VECTOR ( 'NONE', #749, 1000.000000000000000 ) ;
#486 = ADVANCED_FACE ( 'NONE', ( #767 ), #525, .T. ) ;
#487 = APPLICATION_CONTEXT ( 'automotive_design' ) ;
#488 = DIRECTION ( 'NONE',  ( 0.000000000000000000, 0.000000000000000000, -1.000000000000000000 ) ) ;
#489 = CYLINDRICAL_SURFACE ( 'NONE', #544, 1.600000000000002531 ) ;
#490 =( LENGTH_UNIT ( ) NAMED_UNIT ( * ) SI_UNIT ( .MILLI., .METRE. ) );
#491 = DIRECTION ( 'NONE',  ( 0.000000000000000000, 0.000000000000000000, 1.000000000000000000 ) ) ;
#492 = ORIENTED_EDGE ( 'NONE', *, *, #611, .F. ) ;
#493 = DIRECTION ( 'NONE',  ( 0.000000000000000000, 1.000000000000000000, 0.000000000000000000 ) ) ;
#494 = EDGE_CURVE ( 'NONE', #474, #586, #1006, .T. ) ;
#495 = DIRECTION ( 'NONE',  ( 0.000000000000000000, 0.000000000000000000, -1.000000000000000000 ) ) ;
#496 = DIRECTION ( 'NONE',  ( 0.000000000000000000, 0.000000000000000000, -1.000000000000000000 ) ) ;
#497 = CIRCLE ( 'NONE', #23, 5.000000000000000888 ) ;
#498 = ORIENTED_EDGE ( 'NONE', *, *, #937, .T. ) ;
#499 = LINE ( 'NONE', #802, #858 ) ;
#500 = LINE ( 'NONE', #803, #646 ) ;
#501 = AXIS2_PLACEMENT_3D ( 'NONE', #892, #259, #351 ) ;
#502 = VECTOR ( 'NONE', #30, 1000.000000000000000 ) ;
#503 = ORIENTED_EDGE ( 'NONE', *, *, #549, .T. ) ;
#504 = CARTESIAN_POINT ( 'NONE',  ( 15.00000000000000355, 10.00000000000000000, 20.00000000000000000 ) ) ;
#505 = DIRECTION ( 'NONE',  ( 0.000000000000000000, 1.000000000000000000, 0.000000000000000000 ) ) ;
#506 = EDGE_CURVE ( 'NONE', #528, #311, #690, .T. ) ;
#507 = VERTEX_POINT ( 'NONE', #215 ) ;
#508 = CARTESIAN_POINT ( 'NONE',  ( 30.00000000000000355, 0.000000000000000000, 9.999999999999998224 ) ) ;
#509 = DIRECTION ( 'NONE',  ( -0.000000000000000000, 1.000000000000000000, -0.000000000000000000 ) ) ;
#510 = FACE_OUTER_BOUND ( 'NONE', #213, .T. ) ;
#511 = ORIENTED_EDGE ( 'NONE', *, *, #154, .F. ) ;
#512 = AXIS2_PLACEMENT_3D ( 'NONE', #720, #204, #281 ) ;
#513 = CARTESIAN_POINT ( 'NONE',  ( 0.000000000000000000, 0.000000000000000000, 0.000000000000000000 ) ) ;
#514 = CARTESIAN_POINT ( 'NONE',  ( -29.99999999999999289, 0.000000000000000000, 10.00000000000000000 ) ) ;
#515 = LINE ( 'NONE', #258, #921 ) ;
#516 = VERTEX_POINT ( 'NONE', #149 ) ;
#517 = EDGE_CURVE ( 'NONE', #793, #782, #77, .T. ) ;
#518 = VECTOR ( 'NONE', #612, 1000.000000000000000 ) ;
#519 = CARTESIAN_POINT ( 'NONE',  ( 30.00000000000000711, 0.000000000000000000, 10.00000000000000000 ) ) ;
#520 = AXIS2_PLACEMENT_3D ( 'NONE', #288, #758, #301 ) ;
#521 = DIRECTION ( 'NONE',  ( -0.000000000000000000, -1.000000000000000000, -0.000000000000000000 ) ) ;
#522 = FACE_BOUND ( 'NONE', #75, .T. ) ;
#523 = ORIENTED_EDGE ( 'NONE', *, *, #750, .F. ) ;
#524 = CARTESIAN_POINT ( 'NONE',  ( -30.00000000000000355, 10.00000000000000000, -9.999999999999998224 ) ) ;
#525 = CYLINDRICAL_SURFACE ( 'NONE', #452, 20.00000000000000000 ) ;
#526 = ADVANCED_FACE ( 'NONE', ( #967 ), #876, .F. ) ;
#527 = CARTESIAN_POINT ( 'NONE',  ( 0.000000000000000000, 10.00000000000000000, 0.000000000000000000 ) ) ;
#528 = VERTEX_POINT ( 'NONE', #951 ) ;
#529 = AXIS2_PLACEMENT_3D ( 'NONE', #18, #732, #639 ) ;
#530 = CARTESIAN_POINT ( 'NONE',  ( 0.000000000000000000, 0.000000000000000000, 0.000000000000000000 ) ) ;
#531 = CIRCLE ( 'NONE', #914, 1.600000000000002531 ) ;
#532 =( NAMED_UNIT ( * ) SI_UNIT ( $, .STERADIAN. ) SOLID_ANGLE_UNIT ( ) );
#533 = DIRECTION ( 'NONE',  ( 0.000000000000000000, -1.000000000000000000, 0.000000000000000000 ) ) ;
#534 = VERTEX_POINT ( 'NONE', #805 ) ;
#535 = CIRCLE ( 'NONE', #450, 1.599999999999997202 ) ;
#536 = DIRECTION ( 'NONE',  ( 0.000000000000000000, 0.000000000000000000, 1.000000000000000000 ) ) ;
#537 = CIRCLE ( 'NONE', #888, 5.000000000000000888 ) ;
#538 = CARTESIAN_POINT ( 'NONE',  ( 30.00000000000000711, 10.00000000000000000, -10.00000000000000000 ) ) ;
#539 = ORIENTED_EDGE ( 'NONE', *, *, #879, .T. ) ;
#540 = EDGE_CURVE ( 'NONE', #426, #562, #236, .T. ) ;
#541 = CYLINDRICAL_SURFACE ( 'NONE', #219, 1.599999999999997202 ) ;
#542 = CARTESIAN_POINT ( 'NONE',  ( 1.836970198721029589E-15, 0.000000000000000000, -15.00000000000000000 ) ) ;
#543 = ORIENTED_EDGE ( 'NONE', *, *, #280, .F. ) ;
#544 = AXIS2_PLACEMENT_3D ( 'NONE', #796, #931, #230 ) ;
#545 = DIRECTION ( 'NONE',  ( 0.000000000000000000, 0.000000000000000000, 1.000000000000000000 ) ) ;
#546 = CIRCLE ( 'NONE', #642, 1.599999999999997202 ) ;
#547 = ORIENTED_EDGE ( 'NONE', *, *, #982, .F. ) ;
#548 = VERTEX_POINT ( 'NONE', #418 ) ;
#549 = EDGE_CURVE ( 'NONE', #629, #402, #801, .T. ) ;
#550 = EDGE_CURVE ( 'NONE', #516, #203, #713, .T. ) ;
#551 = CARTESIAN_POINT ( 'NONE',  ( -29.99999999999999289, 0.000000000000000000, -11.60000000000000320 ) ) ;
#552 = AXIS2_PLACEMENT_3D ( 'NONE', #4, #309, #553 ) ;
#553 = DIRECTION ( 'NONE',  ( 0.000000000000000000, 0.000000000000000000, -1.000000000000000000 ) ) ;
#554 = VERTEX_POINT ( 'NONE', #389 ) ;
#555 = ORIENTED_EDGE ( 'NONE', *, *, #112, .T. ) ;
#556 = ORIENTED_EDGE ( 'NONE', *, *, #251, .F. ) ;
#557 = ORIENTED_EDGE ( 'NONE', *, *, #229, .F. ) ;
#558 = DIRECTION ( 'NONE',  ( -0.000000000000000000, 1.000000000000000000, -0.000000000000000000 ) ) ;
#559 = AXIS2_PLACEMENT_3D ( 'NONE', #828, #985, #795 ) ;
#560 = EDGE_CURVE ( 'NONE', #313, #660, #28, .T. ) ;
#561 =( GEOMETRIC_REPRESENTATION_CONTEXT ( 3 ) GLOBAL_UNCERTAINTY_ASSIGNED_CONTEXT ( ( #675 ) ) GLOBAL_UNIT_ASSIGNED_CONTEXT ( ( #490, #245, #319 ) ) REPRESENTATION_CONTEXT ( 'NONE', 'WORKASPACE' ) );
#562 = VERTEX_POINT ( 'NONE', #627 ) ;
#563 = ORIENTED_EDGE ( 'NONE', *, *, #334, .T. ) ;
#564 = DIRECTION ( 'NONE',  ( 0.000000000000000000, 0.000000000000000000, -1.000000000000000000 ) ) ;
#565 = CIRCLE ( 'NONE', #126, 5.000000000000000000 ) ;
#566 = ORIENTED_EDGE ( 'NONE', *, *, #717, .F. ) ;
#567 = VECTOR ( 'NONE', #40, 1000.000000000000000 ) ;
#568 = EDGE_CURVE ( 'NONE', #363, #400, #401, .T. ) ;
#569 = ORIENTED_EDGE ( 'NONE', *, *, #641, .F. ) ;
#570 = DIRECTION ( 'NONE',  ( -0.000000000000000000, 1.000000000000000000, -0.000000000000000000 ) ) ;
#571 = VERTEX_POINT ( 'NONE', #958 ) ;
#572 = DIRECTION ( 'NONE',  ( -0.000000000000000000, 1.000000000000000000, -0.000000000000000000 ) ) ;
#573 = CARTESIAN_POINT ( 'NONE',  ( 30.00000000000000000, 10.00000000000000000, 15.00000000000000000 ) ) ;
#574 = VECTOR ( 'NONE', #141, 1000.000000000000000 ) ;
#575 = DIRECTION ( 'NONE',  ( 0.000000000000000000, 0.000000000000000000, -1.000000000000000000 ) ) ;
#576 = EDGE_LOOP ( 'NONE', ( #785, #742, #305, #346 ) ) ;
#577 = DIRECTION ( 'NONE',  ( 0.000000000000000000, 0.000000000000000000, 1.000000000000000000 ) ) ;
#578 = EDGE_CURVE ( 'NONE', #678, #42, #160, .T. ) ;
#579 = DIRECTION ( 'NONE',  ( 0.000000000000000000, 1.000000000000000000, 0.000000000000000000 ) ) ;
#580 = EDGE_CURVE ( 'NONE', #861, #736, #38, .T. ) ;
#581 = CARTESIAN_POINT ( 'NONE',  ( -12.00000000000000355, 10.00000000000000000, -16.00000000000000000 ) ) ;
#582 = AXIS2_PLACEMENT_3D ( 'NONE', #663, #191, #670 ) ;
#583 = ORIENTED_EDGE ( 'NONE', *, *, #413, .F. ) ;
#584 = CYLINDRICAL_SURFACE ( 'NONE', #29, 5.000000000000000888 ) ;
#585 = DIRECTION ( 'NONE',  ( -0.000000000000000000, 1.000000000000000000, -0.000000000000000000 ) ) ;
#586 = VERTEX_POINT ( 'NONE', #703 ) ;
#587 = CYLINDRICAL_SURFACE ( 'NONE', #176, 5.000000000000000888 ) ;
#588 = LINE ( 'NONE', #886, #416 ) ;
#589 = EDGE_CURVE ( 'NONE', #548, #865, #999, .T. ) ;
#590 = DIRECTION ( 'NONE',  ( 0.000000000000000000, 0.000000000000000000, -1.000000000000000000 ) ) ;
#591 = ORIENTED_EDGE ( 'NONE', *, *, #442, .T. ) ;
#592 = VECTOR ( 'NONE', #636, 1000.000000000000000 ) ;
#593 = CARTESIAN_POINT ( 'NONE',  ( -35.00000000000000000, 10.00000000000000000, 9.999999999999998224 ) ) ;
#594 = DIRECTION ( 'NONE',  ( 0.000000000000000000, 0.000000000000000000, -1.000000000000000000 ) ) ;
#595 = DIRECTION ( 'NONE',  ( -0.000000000000000000, 1.000000000000000000, -0.000000000000000000 ) ) ;
#596 = ORIENTED_EDGE ( 'NONE', *, *, #282, .T. ) ;
#597 = EDGE_CURVE ( 'NONE', #534, #809, #693, .T. ) ;
#598 = CIRCLE ( 'NONE', #261, 5.000000000000000888 ) ;
#599 = LINE ( 'NONE', #434, #707 ) ;
#600 = FACE_OUTER_BOUND ( 'NONE', #113, .T. ) ;
#601 = DIRECTION ( 'NONE',  ( 0.000000000000000000, 0.000000000000000000, 1.000000000000000000 ) ) ;
#602 = ORIENTED_EDGE ( 'NONE', *, *, #699, .F. ) ;
#603 = DIRECTION ( 'NONE',  ( -0.000000000000000000, 1.000000000000000000, -0.000000000000000000 ) ) ;
#604 = CARTESIAN_POINT ( 'NONE',  ( -29.99999999999999289, 10.00000000000000000, -10.00000000000000000 ) ) ;
#605 = DIRECTION ( 'NONE',  ( 0.000000000000000000, 1.000000000000000000, 0.000000000000000000 ) ) ;
#606 = ORIENTED_EDGE ( 'NONE', *, *, #361, .F. ) ;
#607 = VECTOR ( 'NONE', #850, 1000.000000000000000 ) ;
#608 = LINE ( 'NONE', #188, #786 ) ;
#609 = CARTESIAN_POINT ( 'NONE',  ( -30.00000000000000355, 10.00000000000000000, 15.00000000000000000 ) ) ;
#610 = DIRECTION ( 'NONE',  ( -0.000000000000000000, 1.000000000000000000, -0.000000000000000000 ) ) ;
#611 = EDGE_CURVE ( 'NONE', #782, #426, #347, .T. ) ;
#612 = DIRECTION ( 'NONE',  ( 0.000000000000000000, -1.000000000000000000, 0.000000000000000000 ) ) ;
#613 = VERTEX_POINT ( 'NONE', #832 ) ;
#614 = CIRCLE ( 'NONE', #901, 1.599999999999997202 ) ;
#615 = CARTESIAN_POINT ( 'NONE',  ( 35.00000000000000000, 10.00000000000000000, 15.00000000000000000 ) ) ;
#616 = VECTOR ( 'NONE', #294, 1000.000000000000000 ) ;
#617 = CARTESIAN_POINT ( 'NONE',  ( 15.00000000000000000, 0.000000000000000000, 15.00000000000000000 ) ) ;
#618 = ORIENTED_EDGE ( 'NONE', *, *, #224, .F. ) ;
#619 = DIRECTION ( 'NONE',  ( 0.000000000000000000, 0.000000000000000000, -1.000000000000000000 ) ) ;
#620 = LINE ( 'NONE', #923, #722 ) ;
#621 = EDGE_CURVE ( 'NONE', #586, #793, #599, .T. ) ;
#622 = ORIENTED_EDGE ( 'NONE', *, *, #263, .F. ) ;
#623 = VERTEX_POINT ( 'NONE', #54 ) ;
#624 = ADVANCED_FACE ( 'NONE', ( #130 ), #193, .T. ) ;
#625 = VECTOR ( 'NONE', #572, 1000.000000000000000 ) ;
#626 = LINE ( 'NONE', #388, #721 ) ;
#627 = CARTESIAN_POINT ( 'NONE',  ( -30.00000000000000355, 0.000000000000000000, -15.00000000000000000 ) ) ;
#628 = ORIENTED_EDGE ( 'NONE', *, *, #918, .T. ) ;
#629 = VERTEX_POINT ( 'NONE', #748 ) ;
#630 = AXIS2_PLACEMENT_3D ( 'NONE', #527, #907, #601 ) ;
#631 = AXIS2_PLACEMENT_3D ( 'NONE', #881, #200, #806 ) ;
#632 = ORIENTED_EDGE ( 'NONE', *, *, #459, .T. ) ;
#633 = ORIENTED_EDGE ( 'NONE', *, *, #937, .F. ) ;
#634 = CARTESIAN_POINT ( 'NONE',  ( 0.000000000000000000, 10.00000000000000000, 0.000000000000000000 ) ) ;
#635 = ADVANCED_FACE ( 'NONE', ( #672 ), #587, .T. ) ;
#636 = DIRECTION ( 'NONE',  ( 0.000000000000000000, 1.000000000000000000, -0.000000000000000000 ) ) ;
#637 = ORIENTED_EDGE ( 'NONE', *, *, #317, .F. ) ;
#638 = ORIENTED_EDGE ( 'NONE', *, *, #454, .T. ) ;
#639 = DIRECTION ( 'NONE',  ( 0.000000000000000000, 0.000000000000000000, 1.000000000000000000 ) ) ;
#640 = CIRCLE ( 'NONE', #658, 20.00000000000000000 ) ;
#641 = EDGE_CURVE ( 'NONE', #516, #562, #685, .T. ) ;
#642 = AXIS2_PLACEMENT_3D ( 'NONE', #932, #231, #836 ) ;
#643 = VERTEX_POINT ( 'NONE', #990 ) ;
#644 = CARTESIAN_POINT ( 'NONE',  ( -35.00000000000000000, 10.00000000000000000, -9.999999999999998224 ) ) ;
#645 = SHAPE_DEFINITION_REPRESENTATION ( #68, #457 ) ;
#646 = VECTOR ( 'NONE', #965, 1000.000000000000000 ) ;
#647 = CARTESIAN_POINT ( 'NONE',  ( -29.99999999999999289, 10.00000000000000000, 8.399999999999998579 ) ) ;
#648 = AXIS2_PLACEMENT_3D ( 'NONE', #377, #316, #800 ) ;
#649 = ORIENTED_EDGE ( 'NONE', *, *, #304, .F. ) ;
#650 = DIRECTION ( 'NONE',  ( -0.000000000000000000, 1.000000000000000000, -0.000000000000000000 ) ) ;
#651 = CARTESIAN_POINT ( 'NONE',  ( 0.000000000000000000, 0.000000000000000000, -20.00000000000000000 ) ) ;
#652 = FACE_OUTER_BOUND ( 'NONE', #776, .T. ) ;
#653 = EDGE_CURVE ( 'NONE', #934, #623, #199, .T. ) ;
#654 = ORIENTED_EDGE ( 'NONE', *, *, #905, .T. ) ;
#655 = DIRECTION ( 'NONE',  ( -0.000000000000000000, -1.000000000000000000, -0.000000000000000000 ) ) ;
#656 = ADVANCED_FACE ( 'NONE', ( #688 ), #429, .F. ) ;
#657 = DIRECTION ( 'NONE',  ( 0.000000000000000000, -1.000000000000000000, 0.000000000000000000 ) ) ;
#658 = AXIS2_PLACEMENT_3D ( 'NONE', #513, #909, #136 ) ;
#659 = CARTESIAN_POINT ( 'NONE',  ( 30.00000000000000711, 10.00000000000000000, 10.00000000000000000 ) ) ;
#660 = VERTEX_POINT ( 'NONE', #439 ) ;
#661 = CARTESIAN_POINT ( 'NONE',  ( 0.000000000000000000, 0.000000000000000000, 15.00000000000000000 ) ) ;
#662 = LINE ( 'NONE', #979, #684 ) ;
#663 = CARTESIAN_POINT ( 'NONE',  ( -35.00000000000000000, 10.00000000000000000, -15.00000000000000000 ) ) ;
#664 = VECTOR ( 'NONE', #480, 1000.000000000000000 ) ;
#665 = VECTOR ( 'NONE', #738, 1000.000000000000000 ) ;
#666 = ORIENTED_EDGE ( 'NONE', *, *, #304, .T. ) ;
#667 = DIRECTION ( 'NONE',  ( -1.000000000000000000, -0.000000000000000000, -0.000000000000000000 ) ) ;
#668 = EDGE_CURVE ( 'NONE', #95, #293, #640, .T. ) ;
#669 = DIRECTION ( 'NONE',  ( 0.000000000000000000, -1.000000000000000000, 0.000000000000000000 ) ) ;
#670 = DIRECTION ( 'NONE',  ( 1.000000000000000000, 0.000000000000000000, -0.000000000000000000 ) ) ;
#671 = VERTEX_POINT ( 'NONE', #43 ) ;
#672 = FACE_OUTER_BOUND ( 'NONE', #977, .T. ) ;
#673 = DIRECTION ( 'NONE',  ( 0.000000000000000000, 0.000000000000000000, 1.000000000000000000 ) ) ;
#674 = DIRECTION ( 'NONE',  ( 0.000000000000000000, 1.000000000000000000, 0.000000000000000000 ) ) ;
#675 = UNCERTAINTY_MEASURE_WITH_UNIT (LENGTH_MEASURE( 1.000000000000000082E-05 ), #490, 'distance_accuracy_value', 'NONE');
#676 = EDGE_CURVE ( 'NONE', #586, #516, #118, .T. ) ;
#677 = AXIS2_PLACEMENT_3D ( 'NONE', #538, #1008, #769 ) ;
#678 = VERTEX_POINT ( 'NONE', #370 ) ;
#679 = DIRECTION ( 'NONE',  ( -0.000000000000000000, 1.000000000000000000, -0.000000000000000000 ) ) ;
#680 = CYLINDRICAL_SURFACE ( 'NONE', #853, 20.00000000000000000 ) ;
#681 = LINE ( 'NONE', #911, #398 ) ;
#682 = ORIENTED_EDGE ( 'NONE', *, *, #177, .T. ) ;
#683 = AXIS2_PLACEMENT_3D ( 'NONE', #408, #575, #877 ) ;
#684 = VECTOR ( 'NONE', #273, 1000.000000000000000 ) ;
#685 = LINE ( 'NONE', #353, #138 ) ;
#686 = CARTESIAN_POINT ( 'NONE',  ( 30.00000000000000711, 0.000000000000000000, 10.00000000000000000 ) ) ;
#687 = ORIENTED_EDGE ( 'NONE', *, *, #705, .T. ) ;
#688 = FACE_OUTER_BOUND ( 'NONE', #815, .T. ) ;
#689 = EDGE_CURVE ( 'NONE', #475, #467, #407, .T. ) ;
#690 = LINE ( 'NONE', #289, #384 ) ;
#691 = CARTESIAN_POINT ( 'NONE',  ( 0.000000000000000000, 10.00000000000000000, 0.000000000000000000 ) ) ;
#692 = VERTEX_POINT ( 'NONE', #978 ) ;
#693 = CIRCLE ( 'NONE', #512, 1.599999999999997202 ) ;
#694 = AXIS2_PLACEMENT_3D ( 'NONE', #302, #372, #997 ) ;
#695 = CARTESIAN_POINT ( 'NONE',  ( -35.00000000000000000, 10.00000000000000000, -15.00000000000000000 ) ) ;
#696 = ORIENTED_EDGE ( 'NONE', *, *, #263, .T. ) ;
#697 = DIRECTION ( 'NONE',  ( 1.000000000000000000, 0.000000000000000000, -0.000000000000000000 ) ) ;
#698 = AXIS2_PLACEMENT_3D ( 'NONE', #695, #834, #697 ) ;
#699 = EDGE_CURVE ( 'NONE', #861, #934, #244, .T. ) ;
#700 = CARTESIAN_POINT ( 'NONE',  ( -29.99999999999999289, 0.000000000000000000, 8.399999999999998579 ) ) ;
#701 = ORIENTED_EDGE ( 'NONE', *, *, #568, .F. ) ;
#702 = VERTEX_POINT ( 'NONE', #995 ) ;
#703 = CARTESIAN_POINT ( 'NONE',  ( -15.00000000000000355, 10.00000000000000000, -15.00000000000000000 ) ) ;
#704 = ORIENTED_EDGE ( 'NONE', *, *, #224, .T. ) ;
#705 = EDGE_CURVE ( 'NONE', #36, #874, #839, .T. ) ;
#706 = ORIENTED_EDGE ( 'NONE', *, *, #873, .F. ) ;
#707 = VECTOR ( 'NONE', #667, 1000.000000000000000 ) ;
#708 = DIRECTION ( 'NONE',  ( 0.000000000000000000, 0.000000000000000000, 1.000000000000000000 ) ) ;
#709 = ORIENTED_EDGE ( 'NONE', *, *, #280, .T. ) ;
#710 = ORIENTED_EDGE ( 'NONE', *, *, #550, .T. ) ;
#711 = CIRCLE ( 'NONE', #936, 20.00000000000000000 ) ;
#712 = CARTESIAN_POINT ( 'NONE',  ( -35.00000000000000000, 0.000000000000000000, 15.00000000000000000 ) ) ;
#713 = CIRCLE ( 'NONE', #938, 5.000000000000000888 ) ;
#714 = VERTEX_POINT ( 'NONE', #593 ) ;
#715 = ORIENTED_EDGE ( 'NONE', *, *, #580, .F. ) ;
#716 = CARTESIAN_POINT ( 'NONE',  ( 0.000000000000000000, 10.00000000000000000, -20.00000000000000000 ) ) ;
#717 = EDGE_CURVE ( 'NONE', #385, #714, #608, .T. ) ;
#718 = DIRECTION ( 'NONE',  ( 1.000000000000000000, 0.000000000000000000, 0.000000000000000000 ) ) ;
#719 = DIRECTION ( 'NONE',  ( 0.000000000000000000, 0.000000000000000000, 1.000000000000000000 ) ) ;
#720 = CARTESIAN_POINT ( 'NONE',  ( 30.00000000000000711, 0.000000000000000000, 10.00000000000000000 ) ) ;
#721 = VECTOR ( 'NONE', #297, 1000.000000000000000 ) ;
#722 = VECTOR ( 'NONE', #3, 1000.000000000000000 ) ;
#723 = DIRECTION ( 'NONE',  ( 0.000000000000000000, -1.000000000000000000, 0.000000000000000000 ) ) ;
#724 = ORIENTED_EDGE ( 'NONE', *, *, #454, .F. ) ;
#725 = DIRECTION ( 'NONE',  ( -1.000000000000000000, 0.000000000000000000, -0.000000000000000000 ) ) ;
#726 = CARTESIAN_POINT ( 'NONE',  ( -15.00000000000000355, 0.000000000000000000, -20.00000000000000000 ) ) ;
#727 = FACE_OUTER_BOUND ( 'NONE', #395, .T. ) ;
#728 = EDGE_CURVE ( 'NONE', #238, #320, #392, .T. ) ;
#729 = FACE_OUTER_BOUND ( 'NONE', #63, .T. ) ;
#730 = ADVANCED_FACE ( 'NONE', ( #947 ), #810, .F. ) ;
#731 = ORIENTED_EDGE ( 'NONE', *, *, #9, .F. ) ;
#732 = DIRECTION ( 'NONE',  ( -0.000000000000000000, 1.000000000000000000, -0.000000000000000000 ) ) ;
#733 = CARTESIAN_POINT ( 'NONE',  ( -35.00000000000000000, 10.00000000000000000, 15.00000000000000000 ) ) ;
#734 = CARTESIAN_POINT ( 'NONE',  ( -15.00000000000000355, 10.00000000000000000, -20.00000000000000000 ) ) ;
#735 = CYLINDRICAL_SURFACE ( 'NONE', #1005, 5.000000000000000888 ) ;
#736 = VERTEX_POINT ( 'NONE', #33 ) ;
#737 = DIRECTION ( 'NONE',  ( 1.000000000000000000, -0.000000000000000000, 0.000000000000000000 ) ) ;
#738 = DIRECTION ( 'NONE',  ( 1.000000000000000000, 0.000000000000000000, 0.000000000000000000 ) ) ;
#739 = LINE ( 'NONE', #264, #567 ) ;
#740 = CIRCLE ( 'NONE', #478, 1.600000000000002531 ) ;
#741 = DIRECTION ( 'NONE',  ( 0.000000000000000000, 0.000000000000000000, 1.000000000000000000 ) ) ;
#742 = ORIENTED_EDGE ( 'NONE', *, *, #903, .T. ) ;
#743 = EDGE_CURVE ( 'NONE', #623, #736, #340, .T. ) ;
#744 = CARTESIAN_POINT ( 'NONE',  ( 30.00000000000000000, 0.000000000000000000, -9.999999999999998224 ) ) ;
#745 = CARTESIAN_POINT ( 'NONE',  ( 30.00000000000000711, 10.00000000000000000, 11.59999999999999787 ) ) ;
#746 =( GEOMETRIC_REPRESENTATION_CONTEXT ( 3 ) GLOBAL_UNCERTAINTY_ASSIGNED_CONTEXT ( ( #145 ) ) GLOBAL_UNIT_ASSIGNED_CONTEXT ( ( #221, #376, #532 ) ) REPRESENTATION_CONTEXT ( 'NONE', 'WORKASPACE' ) );
#747 = ORIENTED_EDGE ( 'NONE', *, *, #471, .T. ) ;
#748 = CARTESIAN_POINT ( 'NONE',  ( -30.00000000000000355, 10.00000000000000000, 15.00000000000000000 ) ) ;
#749 = DIRECTION ( 'NONE',  ( -0.000000000000000000, 1.000000000000000000, -0.000000000000000000 ) ) ;
#750 = EDGE_CURVE ( 'NONE', #6, #293, #336, .T. ) ;
#751 = DIRECTION ( 'NONE',  ( 0.000000000000000000, 0.000000000000000000, -1.000000000000000000 ) ) ;
#752 = ORIENTED_EDGE ( 'NONE', *, *, #580, .T. ) ;
#753 = DIRECTION ( 'NONE',  ( 0.000000000000000000, -1.000000000000000000, 0.000000000000000000 ) ) ;
#754 = LINE ( 'NONE', #56, #518 ) ;
#755 = ORIENTED_EDGE ( 'NONE', *, *, #621, .F. ) ;
#756 = AXIS2_PLACEMENT_3D ( 'NONE', #477, #708, #718 ) ;
#757 = DIRECTION ( 'NONE',  ( 0.000000000000000000, -1.000000000000000000, 0.000000000000000000 ) ) ;
#758 = DIRECTION ( 'NONE',  ( 0.000000000000000000, -1.000000000000000000, 0.000000000000000000 ) ) ;
#759 = DIRECTION ( 'NONE',  ( 0.000000000000000000, 1.000000000000000000, 0.000000000000000000 ) ) ;
#760 = EDGE_CURVE ( 'NONE', #554, #692, #880, .T. ) ;
#761 = FACE_BOUND ( 'NONE', #310, .T. ) ;
#762 = ORIENTED_EDGE ( 'NONE', *, *, #549, .F. ) ;
#763 = ADVANCED_FACE ( 'NONE', ( #962 ), #325, .F. ) ;
#764 = AXIS2_PLACEMENT_3D ( 'NONE', #332, #585, #247 ) ;
#765 = AXIS2_PLACEMENT_3D ( 'NONE', #615, #1007, #536 ) ;
#766 = DIRECTION ( 'NONE',  ( -0.000000000000000000, -1.000000000000000000, 0.000000000000000000 ) ) ;
#767 = FACE_OUTER_BOUND ( 'NONE', #117, .T. ) ;
#768 = DIRECTION ( 'NONE',  ( 0.000000000000000000, 0.000000000000000000, -1.000000000000000000 ) ) ;
#769 = DIRECTION ( 'NONE',  ( 0.000000000000000000, 0.000000000000000000, -1.000000000000000000 ) ) ;
#770 = FACE_BOUND ( 'NONE', #300, .T. ) ;
#771 = ORIENTED_EDGE ( 'NONE', *, *, #382, .T. ) ;
#772 = PRESENTATION_STYLE_ASSIGNMENT (( #283 ) ) ;
#773 = ORIENTED_EDGE ( 'NONE', *, *, #560, .F. ) ;
#774 = VECTOR ( 'NONE', #446, 1000.000000000000000 ) ;
#775 = EDGE_CURVE ( 'NONE', #6, #474, #119, .T. ) ;
#776 = EDGE_LOOP ( 'NONE', ( #339, #709, #556, #637 ) ) ;
#777 = EDGE_LOOP ( 'NONE', ( #421, #469, #449, #794 ) ) ;
#778 = AXIS2_PLACEMENT_3D ( 'NONE', #61, #674, #368 ) ;
#779 = DIRECTION ( 'NONE',  ( -0.000000000000000000, 1.000000000000000000, -0.000000000000000000 ) ) ;
#780 = EDGE_CURVE ( 'NONE', #95, #311, #86, .T. ) ;
#781 = ORIENTED_EDGE ( 'NONE', *, *, #568, .T. ) ;
#782 = VERTEX_POINT ( 'NONE', #644 ) ;
#783 = CARTESIAN_POINT ( 'NONE',  ( -29.99999999999999289, 10.00000000000000000, 11.60000000000000320 ) ) ;
#784 = ORIENTED_EDGE ( 'NONE', *, *, #641, .T. ) ;
#785 = ORIENTED_EDGE ( 'NONE', *, *, #506, .T. ) ;
#786 = VECTOR ( 'NONE', #898, 1000.000000000000000 ) ;
#787 = ORIENTED_EDGE ( 'NONE', *, *, #132, .T. ) ;
#788 = ORIENTED_EDGE ( 'NONE', *, *, #550, .F. ) ;
#789 = ADVANCED_FACE ( 'NONE', ( #885 ), #944, .F. ) ;
#790 = AXIS2_PLACEMENT_3D ( 'NONE', #686, #437, #52 ) ;
#791 = APPLICATION_PROTOCOL_DEFINITION ( 'draft international standard', 'automotive_design', 1998, #487 ) ;
#792 = COLOUR_RGB ( '',0.7921568627450980005, 0.8196078431372548767, 0.9333333333333333481 ) ;
#793 = VERTEX_POINT ( 'NONE', #870 ) ;
#794 = ORIENTED_EDGE ( 'NONE', *, *, #350, .T. ) ;
#795 = DIRECTION ( 'NONE',  ( 0.000000000000000000, 0.000000000000000000, 1.000000000000000000 ) ) ;
#796 = CARTESIAN_POINT ( 'NONE',  ( -29.99999999999999289, 0.000000000000000000, -10.00000000000000000 ) ) ;
#797 = DIRECTION ( 'NONE',  ( 0.000000000000000000, 1.000000000000000000, 0.000000000000000000 ) ) ;
#798 = ORIENTED_EDGE ( 'NONE', *, *, #903, .F. ) ;
#799 = EDGE_CURVE ( 'NONE', #874, #36, #740, .T. ) ;
#800 = DIRECTION ( 'NONE',  ( 0.000000000000000000, 0.000000000000000000, -1.000000000000000000 ) ) ;
#801 = LINE ( 'NONE', #733, #366 ) ;
#802 = CARTESIAN_POINT ( 'NONE',  ( 30.00000000000000711, 0.000000000000000000, 11.59999999999999787 ) ) ;
#803 = CARTESIAN_POINT ( 'NONE',  ( 12.00000000000000355, 10.00000000000000000, -16.00000000000000000 ) ) ;
#804 = ORIENTED_EDGE ( 'NONE', *, *, #112, .F. ) ;
#805 = CARTESIAN_POINT ( 'NONE',  ( 30.00000000000000711, 0.000000000000000000, 8.400000000000002132 ) ) ;
#806 = DIRECTION ( 'NONE',  ( 0.000000000000000000, 0.000000000000000000, -1.000000000000000000 ) ) ;
#807 = ORIENTED_EDGE ( 'NONE', *, *, #317, .T. ) ;
#808 = CARTESIAN_POINT ( 'NONE',  ( 12.00000000000000178, 0.000000000000000000, -16.00000000000000000 ) ) ;
#809 = VERTEX_POINT ( 'NONE', #329 ) ;
#810 = CYLINDRICAL_SURFACE ( 'NONE', #529, 15.00000000000000000 ) ;
#811 = CARTESIAN_POINT ( 'NONE',  ( 35.00000000000000000, 10.00000000000000000, -9.999999999999998224 ) ) ;
#812 = CARTESIAN_POINT ( 'NONE',  ( 12.00000000000000355, 10.00000000000000000, 16.00000000000000000 ) ) ;
#813 = EDGE_CURVE ( 'NONE', #692, #643, #481, .T. ) ;
#814 = CARTESIAN_POINT ( 'NONE',  ( 0.000000000000000000, 10.00000000000000000, -20.00000000000000000 ) ) ;
#815 = EDGE_LOOP ( 'NONE', ( #543, #852, #807, #973 ) ) ;
#816 = CARTESIAN_POINT ( 'NONE',  ( -30.00000000000000355, 10.00000000000000000, 9.999999999999998224 ) ) ;
#817 = DIRECTION ( 'NONE',  ( 0.000000000000000000, -1.000000000000000000, 0.000000000000000000 ) ) ;
#818 = CIRCLE ( 'NONE', #290, 1.599999999999997202 ) ;
#819 = DIRECTION ( 'NONE',  ( 0.000000000000000000, 0.000000000000000000, 1.000000000000000000 ) ) ;
#820 = ORIENTED_EDGE ( 'NONE', *, *, #459, .F. ) ;
#821 = EDGE_CURVE ( 'NONE', #320, #238, #818, .T. ) ;
#822 = DIRECTION ( 'NONE',  ( 0.000000000000000000, 0.000000000000000000, -1.000000000000000000 ) ) ;
#823 = DIRECTION ( 'NONE',  ( -0.000000000000000000, -1.000000000000000000, -0.000000000000000000 ) ) ;
#824 = DIRECTION ( 'NONE',  ( -0.000000000000000000, 1.000000000000000000, -0.000000000000000000 ) ) ;
#825 = AXIS2_PLACEMENT_3D ( 'NONE', #983, #896, #212 ) ;
#826 = AXIS2_PLACEMENT_3D ( 'NONE', #915, #214, #768 ) ;
#827 = EDGE_LOOP ( 'NONE', ( #410, #242 ) ) ;
#828 = CARTESIAN_POINT ( 'NONE',  ( 30.00000000000000711, 0.000000000000000000, -10.00000000000000000 ) ) ;
#829 = CARTESIAN_POINT ( 'NONE',  ( 35.00000000000000000, 10.00000000000000000, 9.999999999999998224 ) ) ;
#830 = FACE_BOUND ( 'NONE', #827, .T. ) ;
#831 = ORIENTED_EDGE ( 'NONE', *, *, #78, .T. ) ;
#832 = CARTESIAN_POINT ( 'NONE',  ( 30.00000000000000711, 10.00000000000000000, -11.59999999999999787 ) ) ;
#833 = EDGE_CURVE ( 'NONE', #946, #571, #39, .T. ) ;
#834 = DIRECTION ( 'NONE',  ( 0.000000000000000000, 0.000000000000000000, 1.000000000000000000 ) ) ;
#835 = LINE ( 'NONE', #216, #607 ) ;
#836 = DIRECTION ( 'NONE',  ( 0.000000000000000000, 0.000000000000000000, -1.000000000000000000 ) ) ;
#837 = EDGE_CURVE ( 'NONE', #400, #475, #835, .T. ) ;
#838 = FACE_OUTER_BOUND ( 'NONE', #84, .T. ) ;
#839 = CIRCLE ( 'NONE', #445, 1.600000000000002531 ) ;
#840 = ORIENTED_EDGE ( 'NONE', *, *, #813, .F. ) ;
#841 = DIRECTION ( 'NONE',  ( 0.000000000000000000, 0.000000000000000000, -1.000000000000000000 ) ) ;
#842 = PLANE ( 'NONE',  #765 ) ;
#843 = FACE_OUTER_BOUND ( 'NONE', #7, .T. ) ;
#844 = CARTESIAN_POINT ( 'NONE',  ( 30.00000000000000000, 10.00000000000000000, -9.999999999999998224 ) ) ;
#845 = ORIENTED_EDGE ( 'NONE', *, *, #994, .T. ) ;
#846 = VECTOR ( 'NONE', #98, 1000.000000000000000 ) ;
#847 = LINE ( 'NONE', #609, #315 ) ;
#848 = EDGE_CURVE ( 'NONE', #865, #548, #930, .T. ) ;
#849 = ORIENTED_EDGE ( 'NONE', *, *, #37, .T. ) ;
#850 = DIRECTION ( 'NONE',  ( 0.000000000000000000, -1.000000000000000000, 0.000000000000000000 ) ) ;
#851 = CARTESIAN_POINT ( 'NONE',  ( -15.00000000000000355, 0.000000000000000000, 20.00000000000000000 ) ) ;
#852 = ORIENTED_EDGE ( 'NONE', *, *, #177, .F. ) ;
#853 = AXIS2_PLACEMENT_3D ( 'NONE', #387, #163, #306 ) ;
#854 = ADVANCED_FACE ( 'NONE', ( #73 ), #680, .T. ) ;
#855 = CARTESIAN_POINT ( 'NONE',  ( 35.00000000000000000, 0.000000000000000000, 15.00000000000000000 ) ) ;
#856 = ORIENTED_EDGE ( 'NONE', *, *, #982, .T. ) ;
#857 = ORIENTED_EDGE ( 'NONE', *, *, #760, .F. ) ;
#858 = VECTOR ( 'NONE', #337, 1000.000000000000000 ) ;
#859 = AXIS2_PLACEMENT_3D ( 'NONE', #25, #327, #741 ) ;
#860 = DIRECTION ( 'NONE',  ( -0.000000000000000000, -1.000000000000000000, -0.000000000000000000 ) ) ;
#861 = VERTEX_POINT ( 'NONE', #322 ) ;
#862 = EDGE_LOOP ( 'NONE', ( #857, #897, #173, #840 ) ) ;
#863 = ADVANCED_FACE ( 'NONE', ( #159 ), #489, .F. ) ;
#864 = ORIENTED_EDGE ( 'NONE', *, *, #375, .T. ) ;
#865 = VERTEX_POINT ( 'NONE', #240 ) ;
#866 = DIRECTION ( 'NONE',  ( 0.000000000000000000, -1.000000000000000000, 0.000000000000000000 ) ) ;
#867 = VECTOR ( 'NONE', #655, 1000.000000000000000 ) ;
#868 = ORIENTED_EDGE ( 'NONE', *, *, #1003, .F. ) ;
#869 = ORIENTED_EDGE ( 'NONE', *, *, #760, .T. ) ;
#870 = CARTESIAN_POINT ( 'NONE',  ( -30.00000000000000355, 10.00000000000000000, -15.00000000000000000 ) ) ;
#871 = CIRCLE ( 'NONE', #520, 5.000000000000000888 ) ;
#872 = ORIENTED_EDGE ( 'NONE', *, *, #821, .F. ) ;
#873 = EDGE_CURVE ( 'NONE', #554, #379, #940, .T. ) ;
#874 = VERTEX_POINT ( 'NONE', #783 ) ;
#875 = DIRECTION ( 'NONE',  ( 0.000000000000000000, 0.000000000000000000, 1.000000000000000000 ) ) ;
#876 = CYLINDRICAL_SURFACE ( 'NONE', #108, 5.000000000000000888 ) ;
#877 = DIRECTION ( 'NONE',  ( -1.000000000000000000, 0.000000000000000000, -0.000000000000000000 ) ) ;
#878 = ORIENTED_EDGE ( 'NONE', *, *, #132, .F. ) ;
#879 = EDGE_CURVE ( 'NONE', #426, #385, #476, .T. ) ;
#880 = CIRCLE ( 'NONE', #357, 1.600000000000002531 ) ;
#881 = CARTESIAN_POINT ( 'NONE',  ( 0.000000000000000000, 10.00000000000000000, 0.000000000000000000 ) ) ;
#882 = ORIENTED_EDGE ( 'NONE', *, *, #676, .F. ) ;
#883 = CARTESIAN_POINT ( 'NONE',  ( -15.00000000000000355, 0.000000000000000000, 15.00000000000000000 ) ) ;
#884 = ORIENTED_EDGE ( 'NONE', *, *, #775, .F. ) ;
#885 = FACE_OUTER_BOUND ( 'NONE', #458, .T. ) ;
#886 = CARTESIAN_POINT ( 'NONE',  ( 30.00000000000000711, 0.000000000000000000, -8.400000000000002132 ) ) ;
#887 = AXIS2_PLACEMENT_3D ( 'NONE', #139, #605, #128 ) ;
#888 = AXIS2_PLACEMENT_3D ( 'NONE', #906, #142, #619 ) ;
#889 = LINE ( 'NONE', #581, #415 ) ;
#890 = ORIENTED_EDGE ( 'NONE', *, *, #282, .F. ) ;
#891 = CARTESIAN_POINT ( 'NONE',  ( -35.00000000000000000, 0.000000000000000000, 9.999999999999998224 ) ) ;
#892 = CARTESIAN_POINT ( 'NONE',  ( 30.00000000000000000, 10.00000000000000000, -9.999999999999998224 ) ) ;
#893 = EDGE_LOOP ( 'NONE', ( #872, #628, #913, #649 ) ) ;
#894 = CARTESIAN_POINT ( 'NONE',  ( 15.00000000000000000, 0.000000000000000000, -15.00000000000000000 ) ) ;
#895 = VECTOR ( 'NONE', #14, 1000.000000000000000 ) ;
#896 = DIRECTION ( 'NONE',  ( -0.000000000000000000, -1.000000000000000000, -0.000000000000000000 ) ) ;
#897 = ORIENTED_EDGE ( 'NONE', *, *, #873, .T. ) ;
#898 = DIRECTION ( 'NONE',  ( 0.000000000000000000, 1.000000000000000000, -0.000000000000000000 ) ) ;
#899 = LINE ( 'NONE', #573, #485 ) ;
#900 = FACE_BOUND ( 'NONE', #271, .T. ) ;
#901 = AXIS2_PLACEMENT_3D ( 'NONE', #67, #533, #218 ) ;
#902 = ORIENTED_EDGE ( 'NONE', *, *, #78, .F. ) ;
#903 = EDGE_CURVE ( 'NONE', #311, #507, #318, .T. ) ;
#904 = DIRECTION ( 'NONE',  ( 0.000000000000000000, 0.000000000000000000, -1.000000000000000000 ) ) ;
#905 = EDGE_CURVE ( 'NONE', #475, #313, #945, .T. ) ;
#906 = CARTESIAN_POINT ( 'NONE',  ( 15.00000000000000355, 10.00000000000000000, -20.00000000000000000 ) ) ;
#907 = DIRECTION ( 'NONE',  ( 0.000000000000000000, 1.000000000000000000, 0.000000000000000000 ) ) ;
#908 = ORIENTED_EDGE ( 'NONE', *, *, #848, .T. ) ;
#909 = DIRECTION ( 'NONE',  ( 0.000000000000000000, 1.000000000000000000, 0.000000000000000000 ) ) ;
#910 = CARTESIAN_POINT ( 'NONE',  ( -29.99999999999999289, 0.000000000000000000, 10.00000000000000000 ) ) ;
#911 = CARTESIAN_POINT ( 'NONE',  ( 35.00000000000000000, 10.00000000000000000, 15.00000000000000000 ) ) ;
#912 = AXIS2_PLACEMENT_3D ( 'NONE', #411, #488, #725 ) ;
#913 = ORIENTED_EDGE ( 'NONE', *, *, #994, .F. ) ;
#914 = AXIS2_PLACEMENT_3D ( 'NONE', #447, #759, #367 ) ;
#915 = CARTESIAN_POINT ( 'NONE',  ( -15.00000000000000355, 10.00000000000000000, -20.00000000000000000 ) ) ;
#916 = DIRECTION ( 'NONE',  ( -1.000000000000000000, -0.000000000000000000, -0.000000000000000000 ) ) ;
#917 = DIRECTION ( 'NONE',  ( -1.040834085586084059E-15, 0.000000000000000000, -1.000000000000000000 ) ) ;
#918 = EDGE_CURVE ( 'NONE', #320, #613, #626, .T. ) ;
#919 = DIRECTION ( 'NONE',  ( 0.000000000000000000, 0.000000000000000000, -1.000000000000000000 ) ) ;
#920 = ORIENTED_EDGE ( 'NONE', *, *, #211, .F. ) ;
#921 = VECTOR ( 'NONE', #509, 1000.000000000000000 ) ;
#922 = SURFACE_SIDE_STYLE ('',( #441 ) ) ;
#923 = CARTESIAN_POINT ( 'NONE',  ( -30.00000000000000355, 10.00000000000000000, -15.00000000000000000 ) ) ;
#924 = ORIENTED_EDGE ( 'NONE', *, *, #728, .F. ) ;
#925 = ADVANCED_FACE ( 'NONE', ( #843 ), #66, .F. ) ;
#926 = CARTESIAN_POINT ( 'NONE',  ( 30.00000000000000000, 0.000000000000000000, 15.00000000000000000 ) ) ;
#927 = FACE_OUTER_BOUND ( 'NONE', #2, .T. ) ;
#928 = ORIENTED_EDGE ( 'NONE', *, *, #413, .T. ) ;
#929 = ORIENTED_EDGE ( 'NONE', *, *, #955, .T. ) ;
#930 = CIRCLE ( 'NONE', #378, 1.600000000000002531 ) ;
#931 = DIRECTION ( 'NONE',  ( -0.000000000000000000, 1.000000000000000000, -0.000000000000000000 ) ) ;
#932 = CARTESIAN_POINT ( 'NONE',  ( 30.00000000000000711, 10.00000000000000000, -10.00000000000000000 ) ) ;
#933 = CARTESIAN_POINT ( 'NONE',  ( -29.99999999999999289, 0.000000000000000000, 10.00000000000000000 ) ) ;
#934 = VERTEX_POINT ( 'NONE', #542 ) ;
#935 = ORIENTED_EDGE ( 'NONE', *, *, #578, .F. ) ;
#936 = AXIS2_PLACEMENT_3D ( 'NONE', #972, #797, #819 ) ;
#937 = EDGE_CURVE ( 'NONE', #865, #36, #381, .T. ) ;
#938 = AXIS2_PLACEMENT_3D ( 'NONE', #726, #262, #342 ) ;
#939 = EDGE_CURVE ( 'NONE', #613, #671, #101, .T. ) ;
#940 = LINE ( 'NONE', #551, #194 ) ;
#941 = ORIENTED_EDGE ( 'NONE', *, *, #699, .T. ) ;
#942 = ORIENTED_EDGE ( 'NONE', *, *, #918, .F. ) ;
#943 = EDGE_LOOP ( 'NONE', ( #654, #164, #618, #227 ) ) ;
#944 = PLANE ( 'NONE',  #912 ) ;
#945 = LINE ( 'NONE', #855, #152 ) ;
#946 = VERTEX_POINT ( 'NONE', #617 ) ;
#947 = FACE_OUTER_BOUND ( 'NONE', #237, .T. ) ;
#948 = EDGE_CURVE ( 'NONE', #934, #861, #393, .T. ) ;
#949 = ORIENTED_EDGE ( 'NONE', *, *, #775, .T. ) ;
#950 = CARTESIAN_POINT ( 'NONE',  ( 15.00000000000000355, 0.000000000000000000, -20.00000000000000000 ) ) ;
#951 = CARTESIAN_POINT ( 'NONE',  ( 30.00000000000000000, 0.000000000000000000, -15.00000000000000000 ) ) ;
#952 = CIRCLE ( 'NONE', #887, 20.00000000000000000 ) ;
#953 = MECHANICAL_DESIGN_GEOMETRIC_PRESENTATION_REPRESENTATION (  '', ( #184 ), #746 ) ;
#954 = LINE ( 'NONE', #345, #12 ) ;
#955 = EDGE_CURVE ( 'NONE', #562, #793, #620, .T. ) ;
#956 = EDGE_LOOP ( 'NONE', ( #633, #1004, #463, #100 ) ) ;
#957 = DIRECTION ( 'NONE',  ( 0.000000000000000000, 0.000000000000000000, -1.000000000000000000 ) ) ;
#958 = CARTESIAN_POINT ( 'NONE',  ( 12.00000000000000178, 0.000000000000000000, 16.00000000000000000 ) ) ;
#959 = CARTESIAN_POINT ( 'NONE',  ( -15.00000000000000355, 10.00000000000000000, 15.00000000000000000 ) ) ;
#960 = CARTESIAN_POINT ( 'NONE',  ( 30.00000000000000711, 0.000000000000000000, 10.00000000000000000 ) ) ;
#961 = ORIENTED_EDGE ( 'NONE', *, *, #364, .T. ) ;
#962 = FACE_OUTER_BOUND ( 'NONE', #286, .T. ) ;
#963 = AXIS2_PLACEMENT_3D ( 'NONE', #634, #91, #577 ) ;
#964 = DIRECTION ( 'NONE',  ( 0.000000000000000000, 0.000000000000000000, -1.000000000000000000 ) ) ;
#965 = DIRECTION ( 'NONE',  ( -0.000000000000000000, -1.000000000000000000, -0.000000000000000000 ) ) ;
#966 = ORIENTED_EDGE ( 'NONE', *, *, #611, .T. ) ;
#967 = FACE_OUTER_BOUND ( 'NONE', #1000, .T. ) ;
#968 = FACE_OUTER_BOUND ( 'NONE', #32, .T. ) ;
#969 = ADVANCED_FACE ( 'NONE', ( #927 ), #223, .F. ) ;
#970 = AXIS2_PLACEMENT_3D ( 'NONE', #292, #133, #987 ) ;
#971 = AXIS2_PLACEMENT_3D ( 'NONE', #604, #753, #986 ) ;
#972 = CARTESIAN_POINT ( 'NONE',  ( 0.000000000000000000, 10.00000000000000000, 0.000000000000000000 ) ) ;
#973 = ORIENTED_EDGE ( 'NONE', *, *, #50, .F. ) ;
#974 = DIRECTION ( 'NONE',  ( 0.000000000000000000, -1.000000000000000000, 0.000000000000000000 ) ) ;
#975 = DIRECTION ( 'NONE',  ( 0.000000000000000000, -1.000000000000000000, 0.000000000000000000 ) ) ;
#976 = CARTESIAN_POINT ( 'NONE',  ( -29.99999999999999289, 10.00000000000000000, -10.00000000000000000 ) ) ;
#977 = EDGE_LOOP ( 'NONE', ( #220, #153, #432, #492 ) ) ;
#978 = CARTESIAN_POINT ( 'NONE',  ( -29.99999999999999289, 0.000000000000000000, -8.399999999999998579 ) ) ;
#979 = CARTESIAN_POINT ( 'NONE',  ( -35.00000000000000000, 10.00000000000000000, -15.00000000000000000 ) ) ;
#980 = AXIS2_PLACEMENT_3D ( 'NONE', #291, #150, #155 ) ;
#981 = VECTOR ( 'NONE', #143, 1000.000000000000000 ) ;
#982 = EDGE_CURVE ( 'NONE', #235, #42, #497, .T. ) ;
#983 = CARTESIAN_POINT ( 'NONE',  ( 15.00000000000000355, 10.00000000000000000, -20.00000000000000000 ) ) ;
#984 = ORIENTED_EDGE ( 'NONE', *, *, #350, .F. ) ;
#985 = DIRECTION ( 'NONE',  ( 0.000000000000000000, 1.000000000000000000, 0.000000000000000000 ) ) ;
#986 = DIRECTION ( 'NONE',  ( 0.000000000000000000, 0.000000000000000000, -1.000000000000000000 ) ) ;
#987 = DIRECTION ( 'NONE',  ( 0.000000000000000000, -0.000000000000000000, -1.000000000000000000 ) ) ;
#988 = PRESENTATION_LAYER_ASSIGNMENT (  '', '', ( #184 ) ) ;
#989 = ORIENTED_EDGE ( 'NONE', *, *, #375, .F. ) ;
#990 = CARTESIAN_POINT ( 'NONE',  ( -29.99999999999999289, 10.00000000000000000, -8.399999999999998579 ) ) ;
#991 = FILL_AREA_STYLE_COLOUR ( '', #792 ) ;
#992 = CARTESIAN_POINT ( 'NONE',  ( -30.00000000000000355, 10.00000000000000000, 9.999999999999998224 ) ) ;
#993 = VERTEX_POINT ( 'NONE', #307 ) ;
#994 = EDGE_CURVE ( 'NONE', #671, #613, #546, .T. ) ;
#995 = CARTESIAN_POINT ( 'NONE',  ( 30.00000000000000711, 10.00000000000000000, 8.400000000000002132 ) ) ;
#996 = CARTESIAN_POINT ( 'NONE',  ( 15.00000000000000355, 0.000000000000000000, 15.00000000000000000 ) ) ;
#997 = DIRECTION ( 'NONE',  ( 0.000000000000000000, 0.000000000000000000, 1.000000000000000000 ) ) ;
#998 = DIRECTION ( 'NONE',  ( -0.000000000000000000, -1.000000000000000000, -0.000000000000000000 ) ) ;
#999 = CIRCLE ( 'NONE', #324, 1.600000000000002531 ) ;
#1000 = EDGE_LOOP ( 'NONE', ( #69, #344, #417, #606 ) ) ;
#1001 = AXIS2_PLACEMENT_3D ( 'NONE', #465, #610, #545 ) ;
#1002 = CARTESIAN_POINT ( 'NONE',  ( 30.00000000000000711, 0.000000000000000000, -10.00000000000000000 ) ) ;
#1003 = EDGE_CURVE ( 'NONE', #692, #554, #531, .T. ) ;
#1004 = ORIENTED_EDGE ( 'NONE', *, *, #589, .F. ) ;
#1005 = AXIS2_PLACEMENT_3D ( 'NONE', #104, #47, #111 ) ;
#1006 = CIRCLE ( 'NONE', #826, 5.000000000000000888 ) ;
#1007 = DIRECTION ( 'NONE',  ( -1.000000000000000000, 0.000000000000000000, 0.000000000000000000 ) ) ;
#1008 = DIRECTION ( 'NONE',  ( 0.000000000000000000, -1.000000000000000000, 0.000000000000000000 ) ) ;
ENDSEC;
END-ISO-10303-21;
