ISO-10303-21;
HEADER;
FILE_DESCRIPTION (( 'STEP AP214' ),
    '1' );
FILE_NAME ('Flange Coupling.step',
    '2026-08-28T16:09:17',
    ( '' ),
    ( '' ),
    'SwSTEP 2.0',
    'SolidWorks 2024',
    '' );
FILE_SCHEMA (( 'AUTOMOTIVE_DESIGN' ));
ENDSEC;

DATA;
#1 = B_SPLINE_CURVE_WITH_KNOTS ( 'NONE', 3,
 ( #878, #500, #127, #427, #852, #941, #734, #658, #563, #725, #51, #345, #39, #419 ),
 .UNSPECIFIED., .F., .F.,
 ( 4, 2, 2, 2, 2, 2, 4 ),
 ( 0.000000000000000000, 0.0002936346493901503514, 0.0005872692987803007029, 0.0008809039481704510543, 0.001174538597560601406, 0.001761807896340900591, 0.002349077195121199776 ),
 .UNSPECIFIED. ) ;
#2 = CYLINDRICAL_SURFACE ( 'NONE', #572, 6.999999999999999112 ) ;
#3 = EDGE_LOOP ( 'NONE', ( #157, #561 ) ) ;
#4 = FACE_OUTER_BOUND ( 'NONE', #664, .T. ) ;
#5 = FACE_OUTER_BOUND ( 'NONE', #914, .T. ) ;
#6 = DIRECTION ( 'NONE',  ( 0.000000000000000000, 0.000000000000000000, -1.000000000000000000 ) ) ;
#7 = ORIENTED_EDGE ( 'NONE', *, *, #170, .T. ) ;
#8 = CARTESIAN_POINT ( 'NONE',  ( -1.500000000000000444, 7.695983547209976905, 9.380831519646861238 ) ) ;
#9 = DIRECTION ( 'NONE',  ( 0.000000000000000000, 0.000000000000000000, -1.000000000000000000 ) ) ;
#10 = FILL_AREA_STYLE_COLOUR ( '', #623 ) ;
#11 = VECTOR ( 'NONE', #714, 1000.000000000000000 ) ;
#12 = EDGE_LOOP ( 'NONE', ( #713, #411, #536, #7, #210, #765, #468, #891, #19, #260 ) ) ;
#13 = CIRCLE ( 'NONE', #957, 9.500000000000000000 ) ;
#14 = CARTESIAN_POINT ( 'NONE',  ( -0.7553599202781925426, 6.189398519367658835, -6.961485709052587900 ) ) ;
#15 = EDGE_CURVE ( 'NONE', #278, #879, #198, .T. ) ;
#16 = CARTESIAN_POINT ( 'NONE',  ( 0.6652086621696633451, 8.848010023081771536, 9.477117064046398198 ) ) ;
#17 = EDGE_CURVE ( 'NONE', #140, #888, #493, .T. ) ;
#18 = CARTESIAN_POINT ( 'NONE',  ( 1.130020755156012191, 8.491249270510268232, -9.432808210696355999 ) ) ;
#19 = ORIENTED_EDGE ( 'NONE', *, *, #791, .T. ) ;
#20 = CARTESIAN_POINT ( 'NONE',  ( 0.000000000000000000, 2.999999999999998668, -16.00000000000000000 ) ) ;
#21 = DIRECTION ( 'NONE',  ( 0.000000000000000000, 0.000000000000000000, -1.000000000000000000 ) ) ;
#22 = FACE_OUTER_BOUND ( 'NONE', #213, .T. ) ;
#23 = EDGE_LOOP ( 'NONE', ( #358, #342, #710, #799 ) ) ;
#24 = CARTESIAN_POINT ( 'NONE',  ( 0.000000000000000000, 0.000000000000000000, -9.500000000000000000 ) ) ;
#25 = ADVANCED_FACE ( 'NONE', ( #912, #768 ), #143, .F. ) ;
#26 = LINE ( 'NONE', #407, #733 ) ;
#27 = B_SPLINE_CURVE_WITH_KNOTS ( 'NONE', 3,
 ( #115, #46, #703, #34, #413, #719, #645, #796, #120, #953, #853, #177 ),
 .UNSPECIFIED., .F., .F.,
 ( 4, 2, 2, 2, 2, 4 ),
 ( 0.007055034902211609199, 0.007348833072152694337, 0.007642631242093779476, 0.008230227581975948017, 0.008817823921858118294, 0.009405420261740286836 ),
 .UNSPECIFIED. ) ;
#28 = LINE ( 'NONE', #927, #368 ) ;
#29 = PRESENTATION_STYLE_ASSIGNMENT (( #921 ) ) ;
#30 = VERTEX_POINT ( 'NONE', #82 ) ;
#31 = DIRECTION ( 'NONE',  ( 0.000000000000000000, -0.000000000000000000, 1.000000000000000000 ) ) ;
#32 = DIRECTION ( 'NONE',  ( 0.000000000000000000, 0.000000000000000000, -1.000000000000000000 ) ) ;
#33 = FACE_OUTER_BOUND ( 'NONE', #963, .T. ) ;
#34 = CARTESIAN_POINT ( 'NONE',  ( 0.3887786197707162050, 6.047946371939399768, 6.989857667249061990 ) ) ;
#35 = DIRECTION ( 'NONE',  ( -0.000000000000000000, -1.000000000000000000, -0.000000000000000000 ) ) ;
#36 = ORIENTED_EDGE ( 'NONE', *, *, #761, .T. ) ;
#37 = LINE ( 'NONE', #717, #307 ) ;
#38 = FACE_BOUND ( 'NONE', #756, .T. ) ;
#39 = CARTESIAN_POINT ( 'NONE',  ( 0.1960660428291428614, 6.000000000000000888, 9.500000000000001776 ) ) ;
#40 = FACE_OUTER_BOUND ( 'NONE', #12, .T. ) ;
#41 = EDGE_CURVE ( 'NONE', #727, #540, #682, .T. ) ;
#42 = AXIS2_PLACEMENT_3D ( 'NONE', #504, #632, #641 ) ;
#43 = CIRCLE ( 'NONE', #639, 7.000000000000000000 ) ;
#44 = ORIENTED_EDGE ( 'NONE', *, *, #416, .T. ) ;
#45 = CARTESIAN_POINT ( 'NONE',  ( 0.000000000000000000, -1.301042606982605321E-15, -10.00000000000000000 ) ) ;
#46 = CARTESIAN_POINT ( 'NONE',  ( 0.09896757848060190599, 6.000000000000000888, 7.000000000000000888 ) ) ;
#47 = CARTESIAN_POINT ( 'NONE',  ( -1.500000000000000222, 7.303883634222123611, 6.837397165588671832 ) ) ;
#48 = ORIENTED_EDGE ( 'NONE', *, *, #174, .T. ) ;
#49 = CARTESIAN_POINT ( 'NONE',  ( 0.000000000000000000, 13.00000000000000000, -7.000000000000000000 ) ) ;
#50 = CARTESIAN_POINT ( 'NONE',  ( 1.500000000000000222, 7.500000000000000000, -9.380831519646857686 ) ) ;
#51 = CARTESIAN_POINT ( 'NONE',  ( 0.7547980016629675104, 6.189097937659362003, 9.471693979941251840 ) ) ;
#52 = CARTESIAN_POINT ( 'NONE',  ( 1.301540862921881203, 6.747957762074526578, -9.410579118101823681 ) ) ;
#53 = EDGE_LOOP ( 'NONE', ( #883, #524, #334, #331 ) ) ;
#54 = EDGE_CURVE ( 'NONE', #392, #672, #908, .T. ) ;
#55 = CARTESIAN_POINT ( 'NONE',  ( -0.7568914687562988686, 8.809927655751078390, 6.961352964985712433 ) ) ;
#56 = CARTESIAN_POINT ( 'NONE',  ( -0.1980463253730141981, 5.999999999999999112, 7.000000000000000000 ) ) ;
#57 = AXIS2_PLACEMENT_3D ( 'NONE', #111, #871, #564 ) ;
#58 = ORIENTED_EDGE ( 'NONE', *, *, #389, .T. ) ;
#59 = AXIS2_PLACEMENT_3D ( 'NONE', #688, #911, #472 ) ;
#60 = CARTESIAN_POINT ( 'NONE',  ( 0.09803218708347190280, 6.000000000000000888, -7.000000000000000000 ) ) ;
#61 = ORIENTED_EDGE ( 'NONE', *, *, #337, .F. ) ;
#62 = CARTESIAN_POINT ( 'NONE',  ( 1.310692849937889592, 8.255149796048495858, -6.876620909963727435 ) ) ;
#63 = EDGE_CURVE ( 'NONE', #585, #140, #159, .T. ) ;
#64 = VERTEX_POINT ( 'NONE', #296 ) ;
#65 = CARTESIAN_POINT ( 'NONE',  ( 1.451633582594487937, 7.109616911505458603, -6.847857156061532891 ) ) ;
#66 = ORIENTED_EDGE ( 'NONE', *, *, #370, .F. ) ;
#67 = CARTESIAN_POINT ( 'NONE',  ( 0.3893394968117581678, 8.951900130573568148, -6.989825700601190128 ) ) ;
#68 = ORIENTED_EDGE ( 'NONE', *, *, #667, .T. ) ;
#69 = CARTESIAN_POINT ( 'NONE',  ( -1.300973620352475768, 8.252986397854765954, 6.878263438247239847 ) ) ;
#70 = B_SPLINE_CURVE_WITH_KNOTS ( 'NONE', 3,
 ( #726, #704, #797, #634, #122, #484, #421, #52, #943, #555, #784, #490 ),
 .UNSPECIFIED., .F., .F.,
 ( 4, 2, 2, 2, 2, 4 ),
 ( 0.004697035741019463251, 0.005284253865980122720, 0.005871471990940781323, 0.006165081053421111491, 0.006458690115901440792, 0.007045908240862102864 ),
 .UNSPECIFIED. ) ;
#71 = ORIENTED_EDGE ( 'NONE', *, *, #54, .T. ) ;
#72 = CARTESIAN_POINT ( 'NONE',  ( 8.572527655298705451E-16, 9.000000000000000000, 6.999999999999999112 ) ) ;
#73 = CARTESIAN_POINT ( 'NONE',  ( -12.00000000000000000, -1.301042606982605321E-15, -4.189777606611760026E-14 ) ) ;
#74 = CIRCLE ( 'NONE', #414, 9.500000000000000000 ) ;
#75 = LINE ( 'NONE', #889, #92 ) ;
#76 = ORIENTED_EDGE ( 'NONE', *, *, #227, .T. ) ;
#77 = CARTESIAN_POINT ( 'NONE',  ( 0.000000000000000000, -1.301042606982605321E-15, -12.00000000000000000 ) ) ;
#78 = CARTESIAN_POINT ( 'NONE',  ( 12.00000000000000000, 2.999999999999998668, -1.999999999999874323 ) ) ;
#79 = CARTESIAN_POINT ( 'NONE',  ( -1.500000000000000222, 7.500000000000000000, -9.380831519646857686 ) ) ;
#80 = ORIENTED_EDGE ( 'NONE', *, *, #854, .T. ) ;
#81 = CARTESIAN_POINT ( 'NONE',  ( -12.00000000000000000, 2.999999999999998668, -4.189777606611760026E-14 ) ) ;
#82 = CARTESIAN_POINT ( 'NONE',  ( 12.00000000000000000, -1.301042606982605321E-15, 2.000000000000125677 ) ) ;
#83 = B_SPLINE_CURVE_WITH_KNOTS ( 'NONE', 3,
 ( #690, #374, #147, #609, #240, #16, #315, #916, #841, #675, #235, #532, #679, #163 ),
 .UNSPECIFIED., .F., .F.,
 ( 4, 2, 2, 2, 2, 2, 4 ),
 ( 0.007045895232035728241, 0.007339270405253027485, 0.007632645578470325862, 0.007926020751687624238, 0.008219395924904924350, 0.008806146271339521103, 0.009392896617774119591 ),
 .UNSPECIFIED. ) ;
#84 = CARTESIAN_POINT ( 'NONE',  ( -0.1974604235836107113, 6.009817089787622635, -9.498435897892404611 ) ) ;
#85 = EDGE_CURVE ( 'NONE', #118, #64, #607, .T. ) ;
#86 = ORIENTED_EDGE ( 'NONE', *, *, #813, .T. ) ;
#87 = CARTESIAN_POINT ( 'NONE',  ( -3.549479643041942618E-22, 5.999999999999999112, -6.999999999999999112 ) ) ;
#88 = DIRECTION ( 'NONE',  ( -0.000000000000000000, 1.000000000000000000, -0.000000000000000000 ) ) ;
#89 = CARTESIAN_POINT ( 'NONE',  ( -1.310328729163778849, 6.743861733392606084, -9.409507836637754252 ) ) ;
#90 = CIRCLE ( 'NONE', #306, 16.00000000000000000 ) ;
#91 = ORIENTED_EDGE ( 'NONE', *, *, #739, .F. ) ;
#92 = VECTOR ( 'NONE', #425, 1000.000000000000000 ) ;
#93 = DIRECTION ( 'NONE',  ( 0.000000000000000000, 0.000000000000000000, -1.000000000000000000 ) ) ;
#94 = CARTESIAN_POINT ( 'NONE',  ( 0.000000000000000000, 13.00000000000000000, 0.000000000000000000 ) ) ;
#95 = SURFACE_STYLE_FILL_AREA ( #769 ) ;
#96 = ORIENTED_EDGE ( 'NONE', *, *, #431, .T. ) ;
#97 = CARTESIAN_POINT ( 'NONE',  ( -1.460912769389294708, 7.106740136772556227, -6.846290615157476722 ) ) ;
#98 = EDGE_CURVE ( 'NONE', #502, #417, #83, .T. ) ;
#99 = CARTESIAN_POINT ( 'NONE',  ( 12.00000000000000000, -1.301042606982605321E-15, 1.256933281983528008E-13 ) ) ;
#100 = ORIENTED_EDGE ( 'NONE', *, *, #488, .F. ) ;
#101 = DIRECTION ( 'NONE',  ( -0.000000000000000000, -1.000000000000000000, -0.000000000000000000 ) ) ;
#102 = CARTESIAN_POINT ( 'NONE',  ( 0.000000000000000000, -1.301042606982605321E-15, 12.00000000000000000 ) ) ;
#103 = FACE_OUTER_BOUND ( 'NONE', #683, .T. ) ;
#104 = AXIS2_PLACEMENT_3D ( 'NONE', #946, #105, #557 ) ;
#105 = DIRECTION ( 'NONE',  ( -0.000000000000000000, -1.000000000000000000, -0.000000000000000000 ) ) ;
#106 = CARTESIAN_POINT ( 'NONE',  ( -1.451740466431846510, 7.110019225658104070, 9.388441198842858881 ) ) ;
#107 = CARTESIAN_POINT ( 'NONE',  ( 8.572527594031471218E-16, 0.000000000000000000, 6.999999999999998224 ) ) ;
#108 = DIRECTION ( 'NONE',  ( -0.000000000000000000, 1.000000000000000000, -0.000000000000000000 ) ) ;
#109 = FACE_BOUND ( 'NONE', #565, .T. ) ;
#110 = ADVANCED_FACE ( 'NONE', ( #836 ), #460, .F. ) ;
#111 = CARTESIAN_POINT ( 'NONE',  ( 12.00000000000000000, -1.301042606982605321E-15, 1.256933281983528008E-13 ) ) ;
#112 = EDGE_CURVE ( 'NONE', #968, #264, #972, .T. ) ;
#113 = ORIENTED_EDGE ( 'NONE', *, *, #54, .F. ) ;
#114 = LINE ( 'NONE', #705, #608 ) ;
#115 = CARTESIAN_POINT ( 'NONE',  ( 8.571058091089005552E-16, 5.999999999999999112, 6.999999999999999112 ) ) ;
#116 = AXIS2_PLACEMENT_3D ( 'NONE', #763, #383, #748 ) ;
#117 = CARTESIAN_POINT ( 'NONE',  ( 2.449293598294706414E-16, -1.301042606982605321E-15, -14.00000000000000000 ) ) ;
#118 = VERTEX_POINT ( 'NONE', #451 ) ;
#119 = DIRECTION ( 'NONE',  ( -0.000000000000000000, 1.000000000000000000, -0.000000000000000000 ) ) ;
#120 = CARTESIAN_POINT ( 'NONE',  ( 1.309841861199693591, 6.743381332061534117, 6.876785262155184597 ) ) ;
#121 = ORIENTED_EDGE ( 'NONE', *, *, #772, .F. ) ;
#122 = CARTESIAN_POINT ( 'NONE',  ( 0.9219572701804966686, 6.300727116176455311, -9.456182054847197094 ) ) ;
#123 = ADVANCED_FACE ( 'NONE', ( #5 ), #979, .T. ) ;
#124 = ORIENTED_EDGE ( 'NONE', *, *, #266, .T. ) ;
#125 = CARTESIAN_POINT ( 'NONE',  ( 0.000000000000000000, 0.000000000000000000, -16.00000000000000000 ) ) ;
#126 = DIRECTION ( 'NONE',  ( 0.000000000000000000, 1.000000000000000000, 0.000000000000000000 ) ) ;
#127 = CARTESIAN_POINT ( 'NONE',  ( 1.490237131168875795, 7.303091950212277084, 9.382407341456207917 ) ) ;
#128 = EDGE_LOOP ( 'NONE', ( #611, #44 ) ) ;
#129 = DIRECTION ( 'NONE',  ( 0.000000000000000000, 0.000000000000000000, -1.000000000000000000 ) ) ;
#130 = CARTESIAN_POINT ( 'NONE',  ( 0.1963706527478086272, 9.000000000000005329, 7.000000000000002665 ) ) ;
#131 = CLOSED_SHELL ( 'NONE', ( #298, #959, #798, #110, #473, #971, #236, #405, #741, #253, #574, #123, #707, #546, #25, #155, #551, #141, #215, #355, #343 ) ) ;
#132 = ORIENTED_EDGE ( 'NONE', *, *, #183, .T. ) ;
#133 = AXIS2_PLACEMENT_3D ( 'NONE', #158, #459, #541 ) ;
#134 = DIRECTION ( 'NONE',  ( 0.000000000000000000, 0.000000000000000000, 1.000000000000000000 ) ) ;
#135 = DIRECTION ( 'NONE',  ( 0.000000000000000000, 0.000000000000000000, -1.000000000000000000 ) ) ;
#136 = EDGE_LOOP ( 'NONE', ( #621, #730 ) ) ;
#137 = DIRECTION ( 'NONE',  ( -0.000000000000000000, -1.000000000000000000, -0.000000000000000000 ) ) ;
#138 = DIRECTION ( 'NONE',  ( 0.000000000000000000, 0.000000000000000000, -1.000000000000000000 ) ) ;
#139 = CARTESIAN_POINT ( 'NONE',  ( -0.9218300326810768830, 8.699591157601512137, 6.940465824693987429 ) ) ;
#140 = VERTEX_POINT ( 'NONE', #78 ) ;
#141 = ADVANCED_FACE ( 'NONE', ( #301 ), #228, .F. ) ;
#142 = DIRECTION ( 'NONE',  ( 0.000000000000000000, 0.000000000000000000, 1.000000000000000000 ) ) ;
#143 = PLANE ( 'NONE',  #116 ) ;
#144 = CARTESIAN_POINT ( 'NONE',  ( -0.09813610063422961716, 9.000000000000003553, 7.000000000000000888 ) ) ;
#145 = EDGE_LOOP ( 'NONE', ( #950, #176 ) ) ;
#146 = CARTESIAN_POINT ( 'NONE',  ( 1.959434878635765131E-15, -1.469576158976823750E-15, 16.00000000000000000 ) ) ;
#147 = CARTESIAN_POINT ( 'NONE',  ( 0.1965443244632336661, 8.990282070848019558, 9.498451741657184755 ) ) ;
#148 = CIRCLE ( 'NONE', #937, 6.999999999999998224 ) ;
#149 = CARTESIAN_POINT ( 'NONE',  ( 0.000000000000000000, 0.000000000000000000, -6.999999999999998224 ) ) ;
#150 = PRODUCT ( 'Flange Coupling', 'Flange Coupling', '', ( #277 ) ) ;
#151 = ORIENTED_EDGE ( 'NONE', *, *, #316, .T. ) ;
#152 = ADVANCED_BREP_SHAPE_REPRESENTATION ( 'Flange Coupling', ( #818, #624 ), #847 ) ;
#153 = CARTESIAN_POINT ( 'NONE',  ( -0.6659650327716669649, 8.847657827533872421, 9.477066411176167549 ) ) ;
#154 = CARTESIAN_POINT ( 'NONE',  ( -0.9233923032252213670, 8.698040158291354018, -6.940227222956748321 ) ) ;
#155 = ADVANCED_FACE ( 'NONE', ( #363 ), #743, .F. ) ;
#156 = CARTESIAN_POINT ( 'NONE',  ( 0.1984232304806052838, 9.000000000000001776, -9.500000000000003553 ) ) ;
#157 = ORIENTED_EDGE ( 'NONE', *, *, #945, .T. ) ;
#158 = CARTESIAN_POINT ( 'NONE',  ( 0.000000000000000000, -1.301042606982605321E-15, 12.00000000000000000 ) ) ;
#159 = LINE ( 'NONE', #614, #935 ) ;
#160 = CARTESIAN_POINT ( 'NONE',  ( -1.423334891563006854, 7.016477093992100400, -9.392846616602131604 ) ) ;
#161 = ORIENTED_EDGE ( 'NONE', *, *, #170, .F. ) ;
#162 = CARTESIAN_POINT ( 'NONE',  ( 1.500000000000000222, 7.500000000000000000, 9.380831519646859462 ) ) ;
#163 = CARTESIAN_POINT ( 'NONE',  ( 1.500000000000000222, 7.500000000000000000, 9.380831519646859462 ) ) ;
#164 = VECTOR ( 'NONE', #949, 1000.000000000000000 ) ;
#165 = CARTESIAN_POINT ( 'NONE',  ( -0.9906247198090479822, 6.369327081736772200, -9.448471047214358265 ) ) ;
#166 = CIRCLE ( 'NONE', #349, 2.000000000000000000 ) ;
#167 = ORIENTED_EDGE ( 'NONE', *, *, #445, .F. ) ;
#168 = AXIS2_PLACEMENT_3D ( 'NONE', #297, #599, #245 ) ;
#169 = CARTESIAN_POINT ( 'NONE',  ( -1.129511923602869006, 6.508149560034286907, -6.908625068872172648 ) ) ;
#170 = EDGE_CURVE ( 'NONE', #417, #381, #1, .T. ) ;
#171 = CARTESIAN_POINT ( 'NONE',  ( 0.000000000000000000, -1.469576158976823750E-15, 0.000000000000000000 ) ) ;
#172 = ORIENTED_EDGE ( 'NONE', *, *, #579, .F. ) ;
#173 = FACE_OUTER_BOUND ( 'NONE', #280, .T. ) ;
#174 = EDGE_CURVE ( 'NONE', #672, #392, #244, .T. ) ;
#175 = CARTESIAN_POINT ( 'NONE',  ( 8.572527655298705451E-16, 9.000000000000000000, 6.999999999999999112 ) ) ;
#176 = ORIENTED_EDGE ( 'NONE', *, *, #266, .F. ) ;
#177 = CARTESIAN_POINT ( 'NONE',  ( 1.500000000000000222, 7.500000000000000000, 6.837397165588670944 ) ) ;
#178 = CARTESIAN_POINT ( 'NONE',  ( 0.000000000000000000, 2.999999999999998668, 0.000000000000000000 ) ) ;
#179 = FACE_BOUND ( 'NONE', #633, .T. ) ;
#180 = AXIS2_PLACEMENT_3D ( 'NONE', #94, #820, #311 ) ;
#181 = MECHANICAL_DESIGN_GEOMETRIC_PRESENTATION_REPRESENTATION (  '', ( #830 ), #874 ) ;
#182 = CARTESIAN_POINT ( 'NONE',  ( 0.000000000000000000, 2.999999999999998668, 0.000000000000000000 ) ) ;
#183 = EDGE_CURVE ( 'NONE', #294, #313, #696, .T. ) ;
#184 = DIRECTION ( 'NONE',  ( -0.000000000000000000, -1.000000000000000000, -0.000000000000000000 ) ) ;
#185 = EDGE_CURVE ( 'NONE', #264, #902, #271, .T. ) ;
#186 = CYLINDRICAL_SURFACE ( 'NONE', #718, 1.500000000000000222 ) ;
#187 = B_SPLINE_CURVE_WITH_KNOTS ( 'NONE', 3,
 ( #545, #8, #626, #850, #762, #693, #775, #831, #153, #319, #455, #757 ),
 .UNSPECIFIED., .F., .F.,
 ( 4, 2, 2, 2, 2, 4 ),
 ( 0.004697029817418252144, 0.005284246171072622469, 0.005871462524726993662, 0.006165070701554177524, 0.006458678878381361385, 0.007045895232035728241 ),
 .UNSPECIFIED. ) ;
#188 = CARTESIAN_POINT ( 'NONE',  ( 0.000000000000000000, 2.999999999999998668, -9.500000000000000000 ) ) ;
#189 = EDGE_LOOP ( 'NONE', ( #933, #839, #698, #844 ) ) ;
#190 = DIRECTION ( 'NONE',  ( 0.000000000000000000, 1.000000000000000000, 0.000000000000000000 ) ) ;
#191 = CARTESIAN_POINT ( 'NONE',  ( -0.4835264928431977083, 6.076666167946173758, 9.488123653894556142 ) ) ;
#192 = CYLINDRICAL_SURFACE ( 'NONE', #398, 9.500000000000000000 ) ;
#193 = ORIENTED_EDGE ( 'NONE', *, *, #227, .F. ) ;
#194 = CARTESIAN_POINT ( 'NONE',  ( -0.09929955157032376023, 9.000000000000000000, -9.500000000000001776 ) ) ;
#195 = CARTESIAN_POINT ( 'NONE',  ( -1.423340861354013276, 7.016526725968126321, 9.392845414005829952 ) ) ;
#196 = VERTEX_POINT ( 'NONE', #629 ) ;
#197 = EDGE_CURVE ( 'NONE', #585, #30, #793, .T. ) ;
#198 = CIRCLE ( 'NONE', #809, 2.000000000000000000 ) ;
#199 = CARTESIAN_POINT ( 'NONE',  ( 0.000000000000000000, -1.469576158976823750E-15, -16.00000000000000000 ) ) ;
#200 = PRESENTATION_LAYER_ASSIGNMENT (  '', '', ( #830 ) ) ;
#201 = VERTEX_POINT ( 'NONE', #107 ) ;
#202 = DIRECTION ( 'NONE',  ( 0.000000000000000000, 0.000000000000000000, -1.000000000000000000 ) ) ;
#203 = CARTESIAN_POINT ( 'NONE',  ( 0.000000000000000000, 0.000000000000000000, 0.000000000000000000 ) ) ;
#204 = ORIENTED_EDGE ( 'NONE', *, *, #681, .F. ) ;
#205 =( NAMED_UNIT ( * ) SI_UNIT ( $, .STERADIAN. ) SOLID_ANGLE_UNIT ( ) );
#206 = CARTESIAN_POINT ( 'NONE',  ( 0.000000000000000000, 2.999999999999998668, 0.000000000000000000 ) ) ;
#207 = CARTESIAN_POINT ( 'NONE',  ( 1.500000000000000444, 7.599445052166149850, 6.837397165588673609 ) ) ;
#208 = ORIENTED_EDGE ( 'NONE', *, *, #896, .T. ) ;
#209 = CARTESIAN_POINT ( 'NONE',  ( 0.3904520863412956899, 6.048373977709860405, -6.989768449480981083 ) ) ;
#210 = ORIENTED_EDGE ( 'NONE', *, *, #739, .T. ) ;
#211 = CARTESIAN_POINT ( 'NONE',  ( 0.6663719744854719185, 8.847447078563737577, -6.968805248096437310 ) ) ;
#212 = APPLICATION_CONTEXT ( 'automotive_design' ) ;
#213 = EDGE_LOOP ( 'NONE', ( #309, #653, #788, #955, #76, #751, #547, #812, #361, #61 ) ) ;
#214 = VECTOR ( 'NONE', #470, 1000.000000000000000 ) ;
#215 = ADVANCED_FACE ( 'NONE', ( #802 ), #327, .F. ) ;
#216 = DIRECTION ( 'NONE',  ( -0.000000000000000000, -1.000000000000000000, -0.000000000000000000 ) ) ;
#217 = ORIENTED_EDGE ( 'NONE', *, *, #282, .T. ) ;
#218 = CARTESIAN_POINT ( 'NONE',  ( -0.7526125808518455695, 6.198805071449768889, 6.959903542883237648 ) ) ;
#219 = CARTESIAN_POINT ( 'NONE',  ( -1.541172057827495387E-16, 9.000000000000000000, -6.999999999999999112 ) ) ;
#220 = FACE_BOUND ( 'NONE', #3, .T. ) ;
#221 = ORIENTED_EDGE ( 'NONE', *, *, #452, .T. ) ;
#222 = DIRECTION ( 'NONE',  ( 0.000000000000000000, 0.000000000000000000, -1.000000000000000000 ) ) ;
#223 = CARTESIAN_POINT ( 'NONE',  ( -1.198792477857391736, 8.422415395343602285, -6.897992740425149982 ) ) ;
#224 = FACE_OUTER_BOUND ( 'NONE', #23, .T. ) ;
#225 = EDGE_LOOP ( 'NONE', ( #338, #687, #823, #970, #286, #366, #36, #193, #643, #744 ) ) ;
#226 = CARTESIAN_POINT ( 'NONE',  ( 1.422900971535566494, 7.984784578956617196, 6.853964804860823712 ) ) ;
#227 = EDGE_CURVE ( 'NONE', #583, #201, #268, .T. ) ;
#228 = CYLINDRICAL_SURFACE ( 'NONE', #671, 2.000000000000000000 ) ;
#229 = AXIS2_PLACEMENT_3D ( 'NONE', #259, #560, #864 ) ;
#230 = AXIS2_PLACEMENT_3D ( 'NONE', #102, #190, #711 ) ;
#231 = DIRECTION ( 'NONE',  ( 0.000000000000000000, 0.000000000000000000, -1.000000000000000000 ) ) ;
#232 = VERTEX_POINT ( 'NONE', #199 ) ;
#233 = FACE_OUTER_BOUND ( 'NONE', #395, .T. ) ;
#234 = B_SPLINE_CURVE_WITH_KNOTS ( 'NONE', 3,
 ( #415, #47, #520, #449, #287, #362, #578, #218, #444, #881, #56, #814 ),
 .UNSPECIFIED., .F., .F.,
 ( 4, 2, 2, 2, 2, 4 ),
 ( 0.004703329470940345765, 0.005291255828758161840, 0.005879182186575977916, 0.006173145365484885086, 0.006467108544393793124, 0.007055034902211609199 ),
 .UNSPECIFIED. ) ;
#235 = CARTESIAN_POINT ( 'NONE',  ( 1.310126771475988328, 8.256101389195730889, 9.409532796068967642 ) ) ;
#236 = ADVANCED_FACE ( 'NONE', ( #40 ), #192, .T. ) ;
#237 = CARTESIAN_POINT ( 'NONE',  ( 0.9230957813091051900, 8.698324777350176618, -9.456064972597488349 ) ) ;
#238 = ORIENTED_EDGE ( 'NONE', *, *, #754, .T. ) ;
#239 = DIRECTION ( 'NONE',  ( -0.000000000000000000, -1.000000000000000000, -0.000000000000000000 ) ) ;
#240 = CARTESIAN_POINT ( 'NONE',  ( 0.4838776605869052894, 8.923199211684513799, 9.488103752565628213 ) ) ;
#241 = LINE ( 'NONE', #45, #400 ) ;
#242 = ORIENTED_EDGE ( 'NONE', *, *, #808, .F. ) ;
#243 = DIRECTION ( 'NONE',  ( -0.000000000000000000, 1.000000000000000000, -0.000000000000000000 ) ) ;
#244 = CIRCLE ( 'NONE', #42, 2.000000000000000000 ) ;
#245 = DIRECTION ( 'NONE',  ( 0.000000000000000000, 0.000000000000000000, -1.000000000000000000 ) ) ;
#246 = VECTOR ( 'NONE', #329, 1000.000000000000000 ) ;
#247 = ORIENTED_EDGE ( 'NONE', *, *, #445, .T. ) ;
#248 = DIRECTION ( 'NONE',  ( 0.000000000000000000, 0.000000000000000000, -1.000000000000000000 ) ) ;
#249 = CARTESIAN_POINT ( 'NONE',  ( 0.000000000000000000, 0.000000000000000000, 0.000000000000000000 ) ) ;
#250 = DIRECTION ( 'NONE',  ( -0.000000000000000000, -1.000000000000000000, -0.000000000000000000 ) ) ;
#251 = CARTESIAN_POINT ( 'NONE',  ( -1.541172057827495387E-16, 9.000000000000000000, -6.999999999999999112 ) ) ;
#252 = CARTESIAN_POINT ( 'NONE',  ( 0.000000000000000000, 0.000000000000000000, 0.000000000000000000 ) ) ;
#253 = ADVANCED_FACE ( 'NONE', ( #480 ), #341, .F. ) ;
#254 = EDGE_CURVE ( 'NONE', #519, #515, #70, .T. ) ;
#255 = LINE ( 'NONE', #627, #478 ) ;
#256 = FACE_BOUND ( 'NONE', #491, .T. ) ;
#257 = AXIS2_PLACEMENT_3D ( 'NONE', #598, #832, #9 ) ;
#258 = CIRCLE ( 'NONE', #767, 6.999999999999998224 ) ;
#259 = CARTESIAN_POINT ( 'NONE',  ( -12.00000000000000000, -1.301042606982605321E-15, -4.189777606611760026E-14 ) ) ;
#260 = ORIENTED_EDGE ( 'NONE', *, *, #431, .F. ) ;
#261 = CARTESIAN_POINT ( 'NONE',  ( 2.449293598294706414E-16, -1.301042606982605321E-15, 10.00000000000000000 ) ) ;
#262 = CARTESIAN_POINT ( 'NONE',  ( -0.9211632929536132108, 6.299794415434432082, 9.456279151873749456 ) ) ;
#263 = CARTESIAN_POINT ( 'NONE',  ( 0.000000000000000000, 2.999999999999998668, 14.00000000000000000 ) ) ;
#264 = VERTEX_POINT ( 'NONE', #857 ) ;
#265 = CARTESIAN_POINT ( 'NONE',  ( -0.6659038171723759003, 8.847679700623457322, -9.477069681127826328 ) ) ;
#266 = EDGE_CURVE ( 'NONE', #922, #506, #90, .T. ) ;
#267 = DIRECTION ( 'NONE',  ( 0.000000000000000000, 1.000000000000000000, 0.000000000000000000 ) ) ;
#268 = LINE ( 'NONE', #410, #828 ) ;
#269 = ORIENTED_EDGE ( 'NONE', *, *, #619, .F. ) ;
#270 = CARTESIAN_POINT ( 'NONE',  ( 1.199622799098331249, 6.578212785196209111, -6.897881313617467036 ) ) ;
#271 = LINE ( 'NONE', #568, #164 ) ;
#272 = AXIS2_PLACEMENT_3D ( 'NONE', #340, #401, #932 ) ;
#273 = VERTEX_POINT ( 'NONE', #575 ) ;
#274 = CARTESIAN_POINT ( 'NONE',  ( -1.500000000000000222, 7.500000000000000000, 6.837397165588670944 ) ) ;
#275 = CARTESIAN_POINT ( 'NONE',  ( 0.4848000774890034448, 8.922896385116036555, -6.983786013269794424 ) ) ;
#276 = ORIENTED_EDGE ( 'NONE', *, *, #681, .T. ) ;
#277 = PRODUCT_CONTEXT ( 'NONE', #212, 'mechanical' ) ;
#278 = VERTEX_POINT ( 'NONE', #263 ) ;
#279 = DIRECTION ( 'NONE',  ( 0.000000000000000000, -1.000000000000000000, -0.000000000000000000 ) ) ;
#280 = EDGE_LOOP ( 'NONE', ( #646, #208, #965, #736, #167, #604 ) ) ;
#281 = CARTESIAN_POINT ( 'NONE',  ( 1.163414472405270515E-15, 5.999999999999999112, 9.500000000000000000 ) ) ;
#282 = EDGE_CURVE ( 'NONE', #463, #976, #872, .T. ) ;
#283 = ORIENTED_EDGE ( 'NONE', *, *, #98, .F. ) ;
#284 = PRODUCT_RELATED_PRODUCT_CATEGORY ( 'part', '', ( #150 ) ) ;
#285 = CARTESIAN_POINT ( 'NONE',  ( 0.6651813706405916848, 6.151980585253425282, -6.968916714329458806 ) ) ;
#286 = ORIENTED_EDGE ( 'NONE', *, *, #635, .T. ) ;
#287 = CARTESIAN_POINT ( 'NONE',  ( -1.199291485024075898, 6.578068002074528131, 6.897917469371350307 ) ) ;
#288 = AXIS2_PLACEMENT_3D ( 'NONE', #758, #379, #685 ) ;
#289 = VECTOR ( 'NONE', #393, 1000.000000000000000 ) ;
#290 = ORIENTED_EDGE ( 'NONE', *, *, #316, .F. ) ;
#291 = CIRCLE ( 'NONE', #846, 2.000000000000000000 ) ;
#292 = CYLINDRICAL_SURFACE ( 'NONE', #860, 1.500000000000000222 ) ;
#293 = CARTESIAN_POINT ( 'NONE',  ( 1.490133989707731255, 7.302162423649185108, -6.839582471222711568 ) ) ;
#294 = VERTEX_POINT ( 'NONE', #330 ) ;
#295 = CARTESIAN_POINT ( 'NONE',  ( 0.000000000000000000, 0.000000000000000000, -6.999999999999999112 ) ) ;
#296 = CARTESIAN_POINT ( 'NONE',  ( 1.163414459189985485E-15, 13.00000000000000000, 9.500000000000000000 ) ) ;
#297 = CARTESIAN_POINT ( 'NONE',  ( 0.000000000000000000, 2.999999999999998668, 12.00000000000000000 ) ) ;
#298 = ADVANCED_FACE ( 'NONE', ( #867 ), #934, .F. ) ;
#299 = VERTEX_POINT ( 'NONE', #188 ) ;
#300 = CARTESIAN_POINT ( 'NONE',  ( -12.00000000000000000, -1.301042606982605321E-15, -4.189777606611760026E-14 ) ) ;
#301 = FACE_OUTER_BOUND ( 'NONE', #952, .T. ) ;
#302 = DIRECTION ( 'NONE',  ( -0.000000000000000000, 1.000000000000000000, 0.000000000000000000 ) ) ;
#303 = ORIENTED_EDGE ( 'NONE', *, *, #41, .F. ) ;
#304 = LINE ( 'NONE', #617, #542 ) ;
#305 = CARTESIAN_POINT ( 'NONE',  ( -0.7566557087259037084, 8.809823207419992031, -6.961337912146257523 ) ) ;
#306 = AXIS2_PLACEMENT_3D ( 'NONE', #182, #346, #652 ) ;
#307 = VECTOR ( 'NONE', #119, 1000.000000000000000 ) ;
#308 = CARTESIAN_POINT ( 'NONE',  ( 1.193154337184902269, 8.414325258073683145, -9.424934818014037319 ) ) ;
#309 = ORIENTED_EDGE ( 'NONE', *, *, #667, .F. ) ;
#310 = CARTESIAN_POINT ( 'NONE',  ( -0.9219875214664640106, 6.300751513011146443, -6.940427156991165525 ) ) ;
#311 = DIRECTION ( 'NONE',  ( 0.000000000000000000, 0.000000000000000000, -1.000000000000000000 ) ) ;
#312 = CARTESIAN_POINT ( 'NONE',  ( -0.09795365668760200317, 5.999999999999999112, -9.500000000000001776 ) ) ;
#313 = VERTEX_POINT ( 'NONE', #792 ) ;
#314 = CARTESIAN_POINT ( 'NONE',  ( -0.3940819930694154372, 6.039539718808895508, -6.991248191077509944 ) ) ;
#315 = CARTESIAN_POINT ( 'NONE',  ( 0.7512849332740479946, 8.801990480404001005, 9.470600239149815636 ) ) ;
#316 = EDGE_CURVE ( 'NONE', #544, #417, #787, .T. ) ;
#317 = CARTESIAN_POINT ( 'NONE',  ( 1.500000000000000222, 7.500000000000000000, -9.380831519646857686 ) ) ;
#318 = VERTEX_POINT ( 'NONE', #117 ) ;
#319 = CARTESIAN_POINT ( 'NONE',  ( -0.3931994309150997347, 8.960875897357297504, 9.493607478424626933 ) ) ;
#320 = AXIS2_PLACEMENT_3D ( 'NONE', #73, #369, #538 ) ;
#321 = CARTESIAN_POINT ( 'NONE',  ( -1.310908266872749861, 8.254785843850845239, -9.409422809560545886 ) ) ;
#322 = CARTESIAN_POINT ( 'NONE',  ( 12.00000000000000000, -1.301042606982605321E-15, 1.256933281983528008E-13 ) ) ;
#323 = CARTESIAN_POINT ( 'NONE',  ( -1.460526870652547160, 7.893755526100684428, -9.387362747509845562 ) ) ;
#324 = ORIENTED_EDGE ( 'NONE', *, *, #397, .T. ) ;
#325 = CARTESIAN_POINT ( 'NONE',  ( -0.3899735492478623167, 6.048260225301752335, 9.492480602957686031 ) ) ;
#326 = EDGE_CURVE ( 'NONE', #294, #583, #234, .T. ) ;
#327 = CYLINDRICAL_SURFACE ( 'NONE', #57, 2.000000000000000000 ) ;
#328 = CARTESIAN_POINT ( 'NONE',  ( 12.00000000000000000, 2.999999999999998668, 2.000000000000125677 ) ) ;
#329 = DIRECTION ( 'NONE',  ( -0.000000000000000000, -1.000000000000000000, -0.000000000000000000 ) ) ;
#330 = CARTESIAN_POINT ( 'NONE',  ( -1.500000000000000222, 7.500000000000000000, 6.837397165588670944 ) ) ;
#331 = ORIENTED_EDGE ( 'NONE', *, *, #884, .F. ) ;
#332 = CARTESIAN_POINT ( 'NONE',  ( 0.000000000000000000, -1.301042606982605321E-15, -12.00000000000000000 ) ) ;
#333 = CARTESIAN_POINT ( 'NONE',  ( -0.1975312892401171472, 6.009829160020561112, 9.498434016005591118 ) ) ;
#334 = ORIENTED_EDGE ( 'NONE', *, *, #15, .F. ) ;
#335 = AXIS2_PLACEMENT_3D ( 'NONE', #171, #391, #907 ) ;
#336 = DIRECTION ( 'NONE',  ( -0.000000000000000000, -1.000000000000000000, -0.000000000000000000 ) ) ;
#337 = EDGE_CURVE ( 'NONE', #968, #540, #656, .T. ) ;
#338 = ORIENTED_EDGE ( 'NONE', *, *, #185, .F. ) ;
#339 = CARTESIAN_POINT ( 'NONE',  ( 2.449293598294706414E-16, 2.999999999999998668, 10.00000000000000000 ) ) ;
#340 = CARTESIAN_POINT ( 'NONE',  ( 0.000000000000000000, 0.000000000000000000, 0.000000000000000000 ) ) ;
#341 = CYLINDRICAL_SURFACE ( 'NONE', #384, 6.999999999999999112 ) ;
#342 = ORIENTED_EDGE ( 'NONE', *, *, #63, .T. ) ;
#343 = ADVANCED_FACE ( 'NONE', ( #819 ), #805, .F. ) ;
#344 = CARTESIAN_POINT ( 'NONE',  ( -1.130685126148061048, 6.509389097634986854, 9.432735046004387058 ) ) ;
#345 = CARTESIAN_POINT ( 'NONE',  ( 0.3937586461946430139, 6.039473256352246189, 9.493558921790956617 ) ) ;
#346 = DIRECTION ( 'NONE',  ( -0.000000000000000000, -1.000000000000000000, -0.000000000000000000 ) ) ;
#347 = ORIENTED_EDGE ( 'NONE', *, *, #462, .F. ) ;
#348 = CARTESIAN_POINT ( 'NONE',  ( -1.500000000000000222, 7.598031899275540901, 6.837397165588671832 ) ) ;
#349 = AXIS2_PLACEMENT_3D ( 'NONE', #81, #101, #93 ) ;
#350 = CARTESIAN_POINT ( 'NONE',  ( 1.347462535697295571, 8.166339236187706518, 6.869193943685093728 ) ) ;
#351 = AXIS2_PLACEMENT_3D ( 'NONE', #783, #267, #631 ) ;
#352 = ORIENTED_EDGE ( 'NONE', *, *, #17, .F. ) ;
#353 = CARTESIAN_POINT ( 'NONE',  ( 1.500000000000000222, 7.500000000000000000, -6.837397165588670944 ) ) ;
#354 = ORIENTED_EDGE ( 'NONE', *, *, #429, .T. ) ;
#355 = ADVANCED_FACE ( 'NONE', ( #4 ), #740, .F. ) ;
#356 = CARTESIAN_POINT ( 'NONE',  ( 1.500000000000000222, 7.696364777788637035, -6.837397165588670944 ) ) ;
#357 = EDGE_CURVE ( 'NONE', #760, #318, #924, .T. ) ;
#358 = ORIENTED_EDGE ( 'NONE', *, *, #197, .F. ) ;
#359 = DIRECTION ( 'NONE',  ( -0.000000000000000000, 1.000000000000000000, -0.000000000000000000 ) ) ;
#360 = CARTESIAN_POINT ( 'NONE',  ( 0.000000000000000000, 2.999999999999998668, 16.00000000000000000 ) ) ;
#361 = ORIENTED_EDGE ( 'NONE', *, *, #41, .T. ) ;
#362 = CARTESIAN_POINT ( 'NONE',  ( -0.9919007739442593508, 6.370532194632662737, 6.929720356892202560 ) ) ;
#363 = FACE_OUTER_BOUND ( 'NONE', #616, .T. ) ;
#364 = VERTEX_POINT ( 'NONE', #960 ) ;
#365 = FACE_BOUND ( 'NONE', #897, .T. ) ;
#366 = ORIENTED_EDGE ( 'NONE', *, *, #709, .T. ) ;
#367 = CARTESIAN_POINT ( 'NONE',  ( 1.451902327794460490, 7.889330256363271232, 6.847799897230388844 ) ) ;
#368 = VECTOR ( 'NONE', #378, 1000.000000000000000 ) ;
#369 = DIRECTION ( 'NONE',  ( 0.000000000000000000, 1.000000000000000000, 0.000000000000000000 ) ) ;
#370 = EDGE_CURVE ( 'NONE', #544, #902, #581, .T. ) ;
#371 = CARTESIAN_POINT ( 'NONE',  ( -0.3903899796174045700, 8.951631839526511314, 6.989769723906417376 ) ) ;
#372 = VERTEX_POINT ( 'NONE', #146 ) ;
#373 = CARTESIAN_POINT ( 'NONE',  ( -1.541172057827495387E-16, 9.000000000000000000, -6.999999999999999112 ) ) ;
#374 = CARTESIAN_POINT ( 'NONE',  ( 0.09906646551524660171, 9.000000000000000000, 9.500000000000000000 ) ) ;
#375 = CARTESIAN_POINT ( 'NONE',  ( 0.000000000000000000, 0.000000000000000000, 0.000000000000000000 ) ) ;
#376 = ORIENTED_EDGE ( 'NONE', *, *, #501, .T. ) ;
#377 = EDGE_CURVE ( 'NONE', #540, #273, #936, .T. ) ;
#378 = DIRECTION ( 'NONE',  ( -0.000000000000000000, -0.000000000000000000, 1.000000000000000000 ) ) ;
#379 = DIRECTION ( 'NONE',  ( -0.000000000000000000, -1.000000000000000000, -0.000000000000000000 ) ) ;
#380 = DIRECTION ( 'NONE',  ( 0.000000000000000000, 0.000000000000000000, 1.000000000000000000 ) ) ;
#381 = VERTEX_POINT ( 'NONE', #281 ) ;
#382 = DIRECTION ( 'NONE',  ( 0.000000000000000000, 0.000000000000000000, -1.000000000000000000 ) ) ;
#383 = DIRECTION ( 'NONE',  ( 0.000000000000000000, -1.000000000000000000, -0.000000000000000000 ) ) ;
#384 = AXIS2_PLACEMENT_3D ( 'NONE', #203, #708, #32 ) ;
#385 = AXIS2_PLACEMENT_3D ( 'NONE', #396, #388, #248 ) ;
#386 = DIRECTION ( 'NONE',  ( 0.000000000000000000, 0.000000000000000000, -1.000000000000000000 ) ) ;
#387 = EDGE_LOOP ( 'NONE', ( #354, #716 ) ) ;
#388 = DIRECTION ( 'NONE',  ( -0.000000000000000000, -1.000000000000000000, -0.000000000000000000 ) ) ;
#389 = EDGE_CURVE ( 'NONE', #976, #463, #779, .T. ) ;
#390 = DIRECTION ( 'NONE',  ( -0.000000000000000000, -1.000000000000000000, -0.000000000000000000 ) ) ;
#391 = DIRECTION ( 'NONE',  ( -0.000000000000000000, -1.000000000000000000, -0.000000000000000000 ) ) ;
#392 = VERTEX_POINT ( 'NONE', #665 ) ;
#393 = DIRECTION ( 'NONE',  ( -0.000000000000000000, -1.000000000000000000, -0.000000000000000000 ) ) ;
#394 = DIRECTION ( 'NONE',  ( -0.000000000000000000, -1.000000000000000000, -0.000000000000000000 ) ) ;
#395 = EDGE_LOOP ( 'NONE', ( #909, #238, #347, #815 ) ) ;
#396 = CARTESIAN_POINT ( 'NONE',  ( 0.000000000000000000, -1.469576158976823750E-15, 0.000000000000000000 ) ) ;
#397 = EDGE_CURVE ( 'NONE', #392, #364, #590, .T. ) ;
#398 = AXIS2_PLACEMENT_3D ( 'NONE', #252, #642, #402 ) ;
#399 = CARTESIAN_POINT ( 'NONE',  ( -0.1969083917978751153, 8.990237164686186944, -9.498444625713659661 ) ) ;
#400 = VECTOR ( 'NONE', #776, 1000.000000000000000 ) ;
#401 = DIRECTION ( 'NONE',  ( -0.000000000000000000, -1.000000000000000000, -0.000000000000000000 ) ) ;
#402 = DIRECTION ( 'NONE',  ( 0.000000000000000000, 0.000000000000000000, -1.000000000000000000 ) ) ;
#403 = CARTESIAN_POINT ( 'NONE',  ( 3.871188978971398630E-16, 9.000000000000000000, -9.500000000000000000 ) ) ;
#404 = CARTESIAN_POINT ( 'NONE',  ( -1.490182678179187592, 7.302538682555883121, 9.382416219272112556 ) ) ;
#405 = ADVANCED_FACE ( 'NONE', ( #233 ), #464, .T. ) ;
#406 = CARTESIAN_POINT ( 'NONE',  ( 0.000000000000000000, 2.999999999999998668, -12.00000000000000000 ) ) ;
#407 = CARTESIAN_POINT ( 'NONE',  ( -1.500000000000000222, 7.500000000000000000, -16.00000000000000000 ) ) ;
#408 = PRODUCT_DEFINITION_SHAPE ( 'NONE', 'NONE',  #636 ) ;
#409 = PLANE ( 'NONE',  #910 ) ;
#410 = CARTESIAN_POINT ( 'NONE',  ( 8.572527594031472204E-16, 0.000000000000000000, 6.999999999999999112 ) ) ;
#411 = ORIENTED_EDGE ( 'NONE', *, *, #882, .T. ) ;
#412 = CARTESIAN_POINT ( 'NONE',  ( -0.7520215419103442045, 8.801564402081778482, -9.470541444512784679 ) ) ;
#413 = CARTESIAN_POINT ( 'NONE',  ( 0.4844233736030041371, 6.076996218238984504, 6.983808714918660066 ) ) ;
#414 = AXIS2_PLACEMENT_3D ( 'NONE', #543, #453, #231 ) ;
#415 = CARTESIAN_POINT ( 'NONE',  ( -1.500000000000000222, 7.500000000000000000, 6.837397165588670944 ) ) ;
#416 = EDGE_CURVE ( 'NONE', #196, #364, #166, .T. ) ;
#417 = VERTEX_POINT ( 'NONE', #162 ) ;
#418 = CARTESIAN_POINT ( 'NONE',  ( 1.500000000000000222, 7.500000000000000000, 6.837397165588670944 ) ) ;
#419 = CARTESIAN_POINT ( 'NONE',  ( 1.163414472405270515E-15, 5.999999999999999112, 9.500000000000000000 ) ) ;
#420 = ORIENTED_EDGE ( 'NONE', *, *, #825, .T. ) ;
#421 = CARTESIAN_POINT ( 'NONE',  ( 1.192800537573686093, 6.585230617563468947, -9.424979301487805827 ) ) ;
#422 = UNCERTAINTY_MEASURE_WITH_UNIT (LENGTH_MEASURE( 1.000000000000000082E-05 ), #951, 'distance_accuracy_value', 'NONE');
#423 = ORIENTED_EDGE ( 'NONE', *, *, #650, .T. ) ;
#424 = FACE_OUTER_BOUND ( 'NONE', #834, .T. ) ;
#425 = DIRECTION ( 'NONE',  ( -0.000000000000000000, 1.000000000000000000, -0.000000000000000000 ) ) ;
#426 = CARTESIAN_POINT ( 'NONE',  ( 1.490209088409778282, 7.697168178963447183, 6.839565825020209822 ) ) ;
#427 = CARTESIAN_POINT ( 'NONE',  ( 1.452013888397792885, 7.111110356160558865, 9.388398686465420084 ) ) ;
#428 = ORIENTED_EDGE ( 'NONE', *, *, #85, .F. ) ;
#429 = EDGE_CURVE ( 'NONE', #888, #140, #587, .T. ) ;
#430 = CARTESIAN_POINT ( 'NONE',  ( 1.499999999999999778, 7.401867501185490639, -6.837397165588670944 ) ) ;
#431 = EDGE_CURVE ( 'NONE', #118, #863, #700, .T. ) ;
#432 = AXIS2_PLACEMENT_3D ( 'NONE', #406, #35, #877 ) ;
#433 = CARTESIAN_POINT ( 'NONE',  ( 0.1971693979283500320, 8.990209200568079595, -6.997883451236031505 ) ) ;
#434 = AXIS2_PLACEMENT_3D ( 'NONE', #926, #250, #855 ) ;
#435 = B_SPLINE_CURVE_WITH_KNOTS ( 'NONE', 3,
 ( #845, #840, #314, #14, #310, #169, #612, #469, #771, #97, #699, #862 ),
 .UNSPECIFIED., .F., .F.,
 ( 4, 2, 2, 2, 2, 4 ),
 ( 0.004703349837149206625, 0.005291281892503120997, 0.005879213947857036236, 0.006173179975533992989, 0.006467146003210949741, 0.007055078058564863246 ),
 .UNSPECIFIED. ) ;
#436 = AXIS2_PLACEMENT_3D ( 'NONE', #332, #108, #134 ) ;
#437 = VERTEX_POINT ( 'NONE', #920 ) ;
#438 = LINE ( 'NONE', #663, #511 ) ;
#439 = ORIENTED_EDGE ( 'NONE', *, *, #594, .F. ) ;
#440 = DIRECTION ( 'NONE',  ( 0.000000000000000000, 0.000000000000000000, 1.000000000000000000 ) ) ;
#441 = ORIENTED_EDGE ( 'NONE', *, *, #197, .T. ) ;
#442 = CARTESIAN_POINT ( 'NONE',  ( -0.4840110107258968619, 8.923176774399616207, 6.983843017361141214 ) ) ;
#443 = EDGE_LOOP ( 'NONE', ( #530, #668, #596, #352 ) ) ;
#444 = CARTESIAN_POINT ( 'NONE',  ( -0.6665746708805193599, 6.152628490398474703, 6.968790000491154935 ) ) ;
#445 = EDGE_CURVE ( 'NONE', #515, #273, #28, .T. ) ;
#446 = CARTESIAN_POINT ( 'NONE',  ( -0.3959264848988104379, 8.959933873433717721, -6.991136932372874924 ) ) ;
#447 = CARTESIAN_POINT ( 'NONE',  ( 0.9152333566239325702, 6.307578023679822010, -6.940390501797156553 ) ) ;
#448 = VERTEX_POINT ( 'NONE', #87 ) ;
#449 = CARTESIAN_POINT ( 'NONE',  ( -1.310619518040277764, 6.744675002597377400, 6.876635697429485994 ) ) ;
#450 = AXIS2_PLACEMENT_3D ( 'NONE', #300, #898, #142 ) ;
#451 = CARTESIAN_POINT ( 'NONE',  ( 0.000000000000000000, 13.00000000000000000, -9.500000000000000000 ) ) ;
#452 = EDGE_CURVE ( 'NONE', #30, #585, #291, .T. ) ;
#453 = DIRECTION ( 'NONE',  ( -0.000000000000000000, -1.000000000000000000, -0.000000000000000000 ) ) ;
#454 = ORIENTED_EDGE ( 'NONE', *, *, #917, .F. ) ;
#455 = CARTESIAN_POINT ( 'NONE',  ( -0.1982902916130537263, 9.000000000000000000, 9.499999999999998224 ) ) ;
#456 = CARTESIAN_POINT ( 'NONE',  ( -0.1987291945977090746, 9.000000000000000000, -6.999999999999999112 ) ) ;
#457 = CARTESIAN_POINT ( 'NONE',  ( -0.7527234873414720973, 6.198870188276720761, -9.470482790541119300 ) ) ;
#458 = ORIENTED_EDGE ( 'NONE', *, *, #501, .F. ) ;
#459 = DIRECTION ( 'NONE',  ( 0.000000000000000000, 1.000000000000000000, 0.000000000000000000 ) ) ;
#460 = CYLINDRICAL_SURFACE ( 'NONE', #509, 2.000000000000000000 ) ;
#461 = CARTESIAN_POINT ( 'NONE',  ( 0.3955262410696224196, 8.960028258478176966, -9.493481151069783408 ) ) ;
#462 = EDGE_CURVE ( 'NONE', #232, #372, #974, .T. ) ;
#463 = VERTEX_POINT ( 'NONE', #684 ) ;
#464 = CYLINDRICAL_SURFACE ( 'NONE', #589, 16.00000000000000000 ) ;
#465 = EDGE_CURVE ( 'NONE', #313, #502, #187, .T. ) ;
#466 = CARTESIAN_POINT ( 'NONE',  ( 0.000000000000000000, -1.301042606982605321E-15, 12.00000000000000000 ) ) ;
#467 = CARTESIAN_POINT ( 'NONE',  ( -0.3899832419672783490, 6.048260079850547477, -9.492480613424376656 ) ) ;
#468 = ORIENTED_EDGE ( 'NONE', *, *, #606, .F. ) ;
#469 = CARTESIAN_POINT ( 'NONE',  ( -1.301219546635561830, 6.747430787222902460, -6.878217009955753802 ) ) ;
#470 = DIRECTION ( 'NONE',  ( -0.000000000000000000, -1.000000000000000000, -0.000000000000000000 ) ) ;
#471 = EDGE_LOOP ( 'NONE', ( #944, #68 ) ) ;
#472 = DIRECTION ( 'NONE',  ( 1.000000000000000000, 0.000000000000000000, 0.000000000000000000 ) ) ;
#473 = ADVANCED_FACE ( 'NONE', ( #173 ), #915, .F. ) ;
#474 = CARTESIAN_POINT ( 'NONE',  ( -0.9920301939695609361, 8.629346465947490330, -9.448317634440432045 ) ) ;
#475 = ORIENTED_EDGE ( 'NONE', *, *, #896, .F. ) ;
#476 = LINE ( 'NONE', #778, #246 ) ;
#477 = AXIS2_PLACEMENT_3D ( 'NONE', #752, #516, #440 ) ;
#478 = VECTOR ( 'NONE', #486, 1000.000000000000000 ) ;
#479 = CARTESIAN_POINT ( 'NONE',  ( -0.09798609010384876083, 5.999999999999996447, 9.500000000000000000 ) ) ;
#480 = FACE_OUTER_BOUND ( 'NONE', #225, .T. ) ;
#481 = UNCERTAINTY_MEASURE_WITH_UNIT (LENGTH_MEASURE( 1.000000000000000082E-05 ), #785, 'distance_accuracy_value', 'NONE');
#482 = CYLINDRICAL_SURFACE ( 'NONE', #436, 2.000000000000000000 ) ;
#483 = DIRECTION ( 'NONE',  ( 1.000000000000000000, 0.000000000000000000, 0.000000000000000000 ) ) ;
#484 = CARTESIAN_POINT ( 'NONE',  ( 1.129493465598872204, 6.508128195960925844, -9.432872869745601463 ) ) ;
#485 = VERTEX_POINT ( 'NONE', #605 ) ;
#486 = DIRECTION ( 'NONE',  ( -0.000000000000000000, -1.000000000000000000, -0.000000000000000000 ) ) ;
#487 = CARTESIAN_POINT ( 'NONE',  ( -1.500000000000000222, 7.402046306966957090, 9.380831519646859462 ) ) ;
#488 = EDGE_CURVE ( 'NONE', #672, #196, #304, .T. ) ;
#489 = B_SPLINE_CURVE_WITH_KNOTS ( 'NONE', 3,
 ( #728, #144, #513, #371, #442, #55, #139, #745, #975, #69, #571, #822, #676, #498, #348, #274 ),
 .UNSPECIFIED., .F., .F.,
 ( 4, 2, 2, 2, 2, 2, 2, 4 ),
 ( 0.002352254393144488556, 0.002646138777868971195, 0.002940023162593453834, 0.003527791932042418678, 0.003821676316766901317, 0.004115560701491383089, 0.004409445086215865728, 0.004703329470940345765 ),
 .UNSPECIFIED. ) ;
#490 = CARTESIAN_POINT ( 'NONE',  ( 1.500000000000000222, 7.500000000000000000, -9.380831519646857686 ) ) ;
#491 = EDGE_LOOP ( 'NONE', ( #376, #80 ) ) ;
#492 = CARTESIAN_POINT ( 'NONE',  ( -1.199220751963264497, 8.421986427037914780, -9.425029957308465711 ) ) ;
#493 = CIRCLE ( 'NONE', #257, 2.000000000000000000 ) ;
#494 = CARTESIAN_POINT ( 'NONE',  ( 12.00000000000000000, -1.301042606982605321E-15, -1.999999999999874323 ) ) ;
#495 = AXIS2_PLACEMENT_3D ( 'NONE', #360, #279, #135 ) ;
#496 = DIRECTION ( 'NONE',  ( 0.000000000000000000, 1.000000000000000000, 0.000000000000000000 ) ) ;
#497 = ORIENTED_EDGE ( 'NONE', *, *, #825, .F. ) ;
#498 = CARTESIAN_POINT ( 'NONE',  ( -1.490177320036034425, 7.697588780535282282, 6.839573103019110256 ) ) ;
#499 = DIRECTION ( 'NONE',  ( 1.000000000000000000, 0.000000000000000000, 1.047444401652940322E-14 ) ) ;
#500 = CARTESIAN_POINT ( 'NONE',  ( 1.500000000000000222, 7.400700201983697823, 9.380831519646857686 ) ) ;
#501 = EDGE_CURVE ( 'NONE', #485, #868, #527, .T. ) ;
#502 = VERTEX_POINT ( 'NONE', #923 ) ;
#503 = LINE ( 'NONE', #804, #558 ) ;
#504 = CARTESIAN_POINT ( 'NONE',  ( -12.00000000000000000, -1.301042606982605321E-15, -4.189777606611760026E-14 ) ) ;
#505 = CARTESIAN_POINT ( 'NONE',  ( 1.192425483669460773, 8.415269773118277286, 6.897911592902258526 ) ) ;
#506 = VERTEX_POINT ( 'NONE', #20 ) ;
#507 = DIRECTION ( 'NONE',  ( -0.000000000000000000, -1.000000000000000000, -0.000000000000000000 ) ) ;
#508 = ORIENTED_EDGE ( 'NONE', *, *, #754, .F. ) ;
#509 = AXIS2_PLACEMENT_3D ( 'NONE', #466, #88, #517 ) ;
#510 = CARTESIAN_POINT ( 'NONE',  ( 0.000000000000000000, 2.999999999999998668, -12.00000000000000000 ) ) ;
#511 = VECTOR ( 'NONE', #216, 1000.000000000000000 ) ;
#512 = ORIENTED_EDGE ( 'NONE', *, *, #326, .F. ) ;
#513 = CARTESIAN_POINT ( 'NONE',  ( -0.1978414136656283517, 8.990133587552330496, 6.997867096799085473 ) ) ;
#514 = EDGE_CURVE ( 'NONE', #448, #727, #435, .T. ) ;
#515 = VERTEX_POINT ( 'NONE', #50 ) ;
#516 = DIRECTION ( 'NONE',  ( -0.000000000000000000, 1.000000000000000000, -0.000000000000000000 ) ) ;
#517 = DIRECTION ( 'NONE',  ( 0.000000000000000000, 0.000000000000000000, 1.000000000000000000 ) ) ;
#518 = FACE_BOUND ( 'NONE', #128, .T. ) ;
#519 = VERTEX_POINT ( 'NONE', #567 ) ;
#520 = CARTESIAN_POINT ( 'NONE',  ( -1.460461526436006796, 7.105929571561616420, 6.846378178718282470 ) ) ;
#521 = DIRECTION ( 'NONE',  ( 0.000000000000000000, 0.000000000000000000, 1.000000000000000000 ) ) ;
#522 = CARTESIAN_POINT ( 'NONE',  ( -1.310321173597988942, 8.255959802516949608, -6.876694860393874009 ) ) ;
#523 = CARTESIAN_POINT ( 'NONE',  ( 1.490281860430489713, 7.696545352676396057, -9.382400162375994057 ) ) ;
#524 = ORIENTED_EDGE ( 'NONE', *, *, #904, .T. ) ;
#525 = CARTESIAN_POINT ( 'NONE',  ( 0.09944421717328133514, 9.000000000000003553, -7.000000000000000888 ) ) ;
#526 = AXIS2_PLACEMENT_3D ( 'NONE', #753, #390, #21 ) ;
#527 = CIRCLE ( 'NONE', #133, 2.000000000000000000 ) ;
#528 = CARTESIAN_POINT ( 'NONE',  ( 0.000000000000000000, -1.301042606982605321E-15, 12.00000000000000000 ) ) ;
#529 = CARTESIAN_POINT ( 'NONE',  ( -1.500000000000000000, 7.402014934015057612, -9.380831519646857686 ) ) ;
#530 = ORIENTED_EDGE ( 'NONE', *, *, #63, .F. ) ;
#531 = DIRECTION ( 'NONE',  ( -0.000000000000000000, -1.000000000000000000, -0.000000000000000000 ) ) ;
#532 = CARTESIAN_POINT ( 'NONE',  ( 1.460027956570578933, 7.895524757902908419, 9.387441502543060423 ) ) ;
#533 = EDGE_CURVE ( 'NONE', #318, #760, #811, .T. ) ;
#534 = EDGE_CURVE ( 'NONE', #30, #888, #930, .T. ) ;
#535 = LINE ( 'NONE', #913, #214 ) ;
#536 = ORIENTED_EDGE ( 'NONE', *, *, #98, .T. ) ;
#537 = DIRECTION ( 'NONE',  ( 1.000000000000000000, 0.000000000000000000, 1.047444401652940322E-14 ) ) ;
#538 = DIRECTION ( 'NONE',  ( -1.000000000000000000, 0.000000000000000000, -3.491481338843133355E-15 ) ) ;
#539 = CARTESIAN_POINT ( 'NONE',  ( -1.490170975921351504, 7.302469947035566733, -9.382418065802754725 ) ) ;
#540 = VERTEX_POINT ( 'NONE', #251 ) ;
#541 = DIRECTION ( 'NONE',  ( 0.000000000000000000, 0.000000000000000000, 1.000000000000000000 ) ) ;
#542 = VECTOR ( 'NONE', #243, 1000.000000000000000 ) ;
#543 = CARTESIAN_POINT ( 'NONE',  ( 0.000000000000000000, 2.999999999999998668, 0.000000000000000000 ) ) ;
#544 = VERTEX_POINT ( 'NONE', #418 ) ;
#545 = CARTESIAN_POINT ( 'NONE',  ( -1.500000000000000222, 7.500000000000000000, 9.380831519646859462 ) ) ;
#546 = ADVANCED_FACE ( 'NONE', ( #103 ), #947, .T. ) ;
#547 = ORIENTED_EDGE ( 'NONE', *, *, #709, .F. ) ;
#548 = DIRECTION ( 'NONE',  ( -0.000000000000000000, 1.000000000000000000, -0.000000000000000000 ) ) ;
#549 = CARTESIAN_POINT ( 'NONE',  ( -0.7561477749717704366, 6.189676066994762138, 9.471609889871086096 ) ) ;
#550 = B_SPLINE_CURVE_WITH_KNOTS ( 'NONE', 3,
 ( #79, #529, #539, #842, #160, #89, #686, #165, #691, #457, #848, #759, #467, #84, #312, #615 ),
 .UNSPECIFIED., .F., .F.,
 ( 4, 2, 2, 2, 2, 2, 2, 4 ),
 ( 0.002349082372479246398, 0.002642576543546774209, 0.002936070714614301587, 0.003523059056749357210, 0.003816553227816883720, 0.004110047398884410230, 0.004403541569951936741, 0.004697035741019463251 ),
 .UNSPECIFIED. ) ;
#551 = ADVANCED_FACE ( 'NONE', ( #724 ), #186, .F. ) ;
#552 = PRODUCT_DEFINITION_CONTEXT ( 'detailed design', #837, 'design' ) ;
#553 = CARTESIAN_POINT ( 'NONE',  ( 1.163414459189985485E-15, 2.999999999999998668, 9.500000000000000000 ) ) ;
#554 = DIRECTION ( 'NONE',  ( -0.000000000000000000, 1.000000000000000000, 0.000000000000000000 ) ) ;
#555 = CARTESIAN_POINT ( 'NONE',  ( 1.460876182504582621, 7.106804356021043212, -9.387313839163217821 ) ) ;
#556 = VECTOR ( 'NONE', #824, 1000.000000000000000 ) ;
#557 = DIRECTION ( 'NONE',  ( 0.000000000000000000, 0.000000000000000000, -1.000000000000000000 ) ) ;
#558 = VECTOR ( 'NONE', #394, 1000.000000000000000 ) ;
#559 = DIRECTION ( 'NONE',  ( 0.000000000000000000, 1.000000000000000000, 0.000000000000000000 ) ) ;
#560 = DIRECTION ( 'NONE',  ( -0.000000000000000000, 1.000000000000000000, -0.000000000000000000 ) ) ;
#561 = ORIENTED_EDGE ( 'NONE', *, *, #808, .T. ) ;
#562 = CARTESIAN_POINT ( 'NONE',  ( 0.000000000000000000, 7.500000000000000000, -16.00000000000000000 ) ) ;
#563 = CARTESIAN_POINT ( 'NONE',  ( 1.129359078982701714, 6.507984229160199696, 9.432888513750059545 ) ) ;
#564 = DIRECTION ( 'NONE',  ( 0.000000000000000000, 0.000000000000000000, 1.000000000000000000 ) ) ;
#565 = EDGE_LOOP ( 'NONE', ( #580, #269 ) ) ;
#566 = CARTESIAN_POINT ( 'NONE',  ( -0.9149956500837239659, 8.692639615555172838, -9.456187107500538147 ) ) ;
#567 = CARTESIAN_POINT ( 'NONE',  ( 5.110438159248019728E-23, 5.999999999999999112, -9.500000000000000000 ) ) ;
#568 = CARTESIAN_POINT ( 'NONE',  ( 8.572527594031472204E-16, 0.000000000000000000, 6.999999999999999112 ) ) ;
#569 = ORIENTED_EDGE ( 'NONE', *, *, #884, .T. ) ;
#570 = VECTOR ( 'NONE', #137, 1000.000000000000000 ) ;
#571 = CARTESIAN_POINT ( 'NONE',  ( -1.348034443207299260, 8.165149578866666147, 6.869080883598805976 ) ) ;
#572 = AXIS2_PLACEMENT_3D ( 'NONE', #375, #610, #6 ) ;
#573 = PRODUCT_DEFINITION_FORMATION_WITH_SPECIFIED_SOURCE ( 'ANY', '', #150, .NOT_KNOWN. ) ;
#574 = ADVANCED_FACE ( 'NONE', ( #38, #179, #866, #256, #109, #856 ), #409, .F. ) ;
#575 = CARTESIAN_POINT ( 'NONE',  ( 1.500000000000000222, 7.500000000000000000, -6.837397165588670944 ) ) ;
#576 = ORIENTED_EDGE ( 'NONE', *, *, #781, .T. ) ;
#577 = CARTESIAN_POINT ( 'NONE',  ( -1.500000000000000222, 7.500000000000000000, -6.837397165588670944 ) ) ;
#578 = CARTESIAN_POINT ( 'NONE',  ( -0.9149481272705973778, 6.307354259075499847, 6.940428873455811498 ) ) ;
#579 = EDGE_CURVE ( 'NONE', #381, #313, #613, .T. ) ;
#580 = ORIENTED_EDGE ( 'NONE', *, *, #761, .F. ) ;
#581 = B_SPLINE_CURVE_WITH_KNOTS ( 'NONE', 3,
 ( #674, #207, #426, #367, #226, #350, #887, #505, #601, #969, #903, #597, #130, #72 ),
 .UNSPECIFIED., .F., .F.,
 ( 4, 2, 2, 2, 2, 2, 4 ),
 ( 0.000000000000000000, 0.0002940317991430601479, 0.0005880635982861202957, 0.0008820953974291804436, 0.001176127196572240591, 0.001764190794858364573, 0.002352254393144488556 ),
 .UNSPECIFIED. ) ;
#582 = CARTESIAN_POINT ( 'NONE',  ( 0.7530276871204566458, 6.199049743795541190, -6.959857880513315109 ) ) ;
#583 = VERTEX_POINT ( 'NONE', #790 ) ;
#584 = CARTESIAN_POINT ( 'NONE',  ( 1.460391789295948817, 7.894236963141936236, -6.846392240296029996 ) ) ;
#585 = VERTEX_POINT ( 'NONE', #494 ) ;
#586 = CARTESIAN_POINT ( 'NONE',  ( -12.00000000000000000, -1.301042606982605321E-15, -2.000000000000042188 ) ) ;
#587 = CIRCLE ( 'NONE', #715, 2.000000000000000000 ) ;
#588 = ORIENTED_EDGE ( 'NONE', *, *, #357, .F. ) ;
#589 = AXIS2_PLACEMENT_3D ( 'NONE', #249, #531, #766 ) ;
#590 = LINE ( 'NONE', #977, #556 ) ;
#591 = CIRCLE ( 'NONE', #689, 16.00000000000000000 ) ;
#592 = ORIENTED_EDGE ( 'NONE', *, *, #721, .F. ) ;
#593 = CARTESIAN_POINT ( 'NONE',  ( 0.000000000000000000, 7.500000000000000000, -16.00000000000000000 ) ) ;
#594 = EDGE_CURVE ( 'NONE', #583, #544, #27, .T. ) ;
#595 = CARTESIAN_POINT ( 'NONE',  ( -3.549479643041942618E-22, 5.999999999999999112, -6.999999999999999112 ) ) ;
#596 = ORIENTED_EDGE ( 'NONE', *, *, #534, .T. ) ;
#597 = CARTESIAN_POINT ( 'NONE',  ( 0.3942480161146356687, 8.960391266783121367, 6.991234488711588924 ) ) ;
#598 = CARTESIAN_POINT ( 'NONE',  ( 12.00000000000000000, 2.999999999999998668, 1.256933281983528008E-13 ) ) ;
#599 = DIRECTION ( 'NONE',  ( -0.000000000000000000, -1.000000000000000000, -0.000000000000000000 ) ) ;
#600 = ORIENTED_EDGE ( 'NONE', *, *, #606, .T. ) ;
#601 = CARTESIAN_POINT ( 'NONE',  ( 1.129234070441361926, 8.492143601165777156, 6.908668863926883397 ) ) ;
#602 = CARTESIAN_POINT ( 'NONE',  ( -1.452054926231267418, 7.888772698542198647, -6.847767451223147006 ) ) ;
#603 = CARTESIAN_POINT ( 'NONE',  ( 1.348013695839896497, 8.165200854311661871, -9.403951459257394063 ) ) ;
#604 = ORIENTED_EDGE ( 'NONE', *, *, #254, .F. ) ;
#605 = CARTESIAN_POINT ( 'NONE',  ( 0.000000000000000000, -1.301042606982605321E-15, 14.00000000000000000 ) ) ;
#606 = EDGE_CURVE ( 'NONE', #519, #299, #476, .T. ) ;
#607 = CIRCLE ( 'NONE', #288, 9.500000000000000000 ) ;
#608 = VECTOR ( 'NONE', #548, 1000.000000000000000 ) ;
#609 = CARTESIAN_POINT ( 'NONE',  ( 0.3884445538130944509, 8.952129867051397127, 9.492540544484498355 ) ) ;
#610 = DIRECTION ( 'NONE',  ( -0.000000000000000000, -1.000000000000000000, -0.000000000000000000 ) ) ;
#611 = ORIENTED_EDGE ( 'NONE', *, *, #928, .T. ) ;
#612 = CARTESIAN_POINT ( 'NONE',  ( -1.192683302630950903, 6.585101498420875998, -6.897865473044283213 ) ) ;
#613 = B_SPLINE_CURVE_WITH_KNOTS ( 'NONE', 3,
 ( #712, #479, #333, #325, #191, #549, #262, #344, #869, #640, #940, #195, #106, #404, #487, #651 ),
 .UNSPECIFIED., .F., .F.,
 ( 4, 2, 2, 2, 2, 2, 2, 4 ),
 ( 0.002349077195121199776, 0.002642571272908330725, 0.002936065350695461675, 0.003523053506269723141, 0.003816547584056855826, 0.004110041661843987643, 0.004403535739631120327, 0.004697029817418252144 ),
 .UNSPECIFIED. ) ;
#614 = CARTESIAN_POINT ( 'NONE',  ( 12.00000000000000000, -1.301042606982605321E-15, -1.999999999999874323 ) ) ;
#615 = CARTESIAN_POINT ( 'NONE',  ( 5.110438159248019728E-23, 5.999999999999999112, -9.500000000000000000 ) ) ;
#616 = EDGE_LOOP ( 'NONE', ( #948, #592, #66, #151, #283, #794 ) ) ;
#617 = CARTESIAN_POINT ( 'NONE',  ( -12.00000000000000000, -1.301042606982605321E-15, -2.000000000000042188 ) ) ;
#618 = CARTESIAN_POINT ( 'NONE',  ( -1.500000000000000222, 7.500000000000000000, -6.837397165588670944 ) ) ;
#619 = EDGE_CURVE ( 'NONE', #201, #803, #148, .T. ) ;
#620 = CARTESIAN_POINT ( 'NONE',  ( 3.871188978971398630E-16, 9.000000000000000000, -9.500000000000000000 ) ) ;
#621 = ORIENTED_EDGE ( 'NONE', *, *, #462, .T. ) ;
#622 = CARTESIAN_POINT ( 'NONE',  ( 12.00000000000000000, 2.999999999999998668, 1.256933281983528008E-13 ) ) ;
#623 = COLOUR_RGB ( '',0.7921568627450980005, 0.8196078431372548767, 0.9333333333333333481 ) ;
#624 = AXIS2_PLACEMENT_3D ( 'NONE', #723, #966, #821 ) ;
#625 = CARTESIAN_POINT ( 'NONE',  ( -1.500000000000000222, 7.500000000000000000, -9.380831519646857686 ) ) ;
#626 = CARTESIAN_POINT ( 'NONE',  ( -1.460554886045207557, 7.893695998258497326, 9.387358690746649970 ) ) ;
#627 = CARTESIAN_POINT ( 'NONE',  ( 1.163414459189985485E-15, 0.000000000000000000, 9.500000000000000000 ) ) ;
#628 = CARTESIAN_POINT ( 'NONE',  ( 12.00000000000000000, -1.301042606982605321E-15, 2.000000000000125677 ) ) ;
#629 = CARTESIAN_POINT ( 'NONE',  ( -12.00000000000000000, 2.999999999999998668, -2.000000000000042188 ) ) ;
#630 =( NAMED_UNIT ( * ) SI_UNIT ( $, .STERADIAN. ) SOLID_ANGLE_UNIT ( ) );
#631 = DIRECTION ( 'NONE',  ( 0.000000000000000000, 0.000000000000000000, -1.000000000000000000 ) ) ;
#632 = DIRECTION ( 'NONE',  ( 0.000000000000000000, 1.000000000000000000, 0.000000000000000000 ) ) ;
#633 = EDGE_LOOP ( 'NONE', ( #770, #648 ) ) ;
#634 = CARTESIAN_POINT ( 'NONE',  ( 0.7548993788571174424, 6.189143175956646203, -9.471687436783803093 ) ) ;
#635 = EDGE_CURVE ( 'NONE', #273, #448, #807, .T. ) ;
#636 = PRODUCT_DEFINITION ( 'UNKNOWN', '', #573, #552 ) ;
#637 = ORIENTED_EDGE ( 'NONE', *, *, #781, .F. ) ;
#638 = AXIS2_PLACEMENT_3D ( 'NONE', #931, #496, #499 ) ;
#639 = AXIS2_PLACEMENT_3D ( 'NONE', #958, #885, #202 ) ;
#640 = CARTESIAN_POINT ( 'NONE',  ( -1.301136566424033747, 6.747288448669404026, 9.410634446582033519 ) ) ;
#641 = DIRECTION ( 'NONE',  ( -1.000000000000000000, 0.000000000000000000, -3.491481338843133355E-15 ) ) ;
#642 = DIRECTION ( 'NONE',  ( -0.000000000000000000, -1.000000000000000000, -0.000000000000000000 ) ) ;
#643 = ORIENTED_EDGE ( 'NONE', *, *, #594, .T. ) ;
#644 = CARTESIAN_POINT ( 'NONE',  ( -0.4842745167240761761, 8.923076477793422612, -9.488084939919577465 ) ) ;
#645 = CARTESIAN_POINT ( 'NONE',  ( 0.9224632742574467859, 6.301243843308880876, 6.940352925741856360 ) ) ;
#646 = ORIENTED_EDGE ( 'NONE', *, *, #813, .F. ) ;
#647 = CARTESIAN_POINT ( 'NONE',  ( 1.500000000000000222, 7.500000000000000000, -16.00000000000000000 ) ) ;
#648 = ORIENTED_EDGE ( 'NONE', *, *, #533, .T. ) ;
#649 = DIRECTION ( 'NONE',  ( 1.000000000000000000, 0.000000000000000000, 0.000000000000000000 ) ) ;
#650 = EDGE_CURVE ( 'NONE', #506, #232, #967, .T. ) ;
#651 = CARTESIAN_POINT ( 'NONE',  ( -1.500000000000000222, 7.500000000000000000, 9.380831519646859462 ) ) ;
#652 = DIRECTION ( 'NONE',  ( 0.000000000000000000, 0.000000000000000000, -1.000000000000000000 ) ) ;
#653 = ORIENTED_EDGE ( 'NONE', *, *, #185, .T. ) ;
#654 = PLANE ( 'NONE',  #495 ) ;
#655 = CIRCLE ( 'NONE', #230, 2.000000000000000000 ) ;
#656 = LINE ( 'NONE', #295, #570 ) ;
#657 = FACE_BOUND ( 'NONE', #873, .T. ) ;
#658 = CARTESIAN_POINT ( 'NONE',  ( 1.192649738188943820, 6.585017733749977786, 9.424998916040316033 ) ) ;
#659 = EDGE_LOOP ( 'NONE', ( #428, #919 ) ) ;
#660 = DIRECTION ( 'NONE',  ( -0.000000000000000000, -1.000000000000000000, -0.000000000000000000 ) ) ;
#661 = ORIENTED_EDGE ( 'NONE', *, *, #389, .F. ) ;
#662 = DIRECTION ( 'NONE',  ( -0.000000000000000000, -0.000000000000000000, 1.000000000000000000 ) ) ;
#663 = CARTESIAN_POINT ( 'NONE',  ( 0.000000000000000000, 0.000000000000000000, -6.999999999999999112 ) ) ;
#664 = EDGE_LOOP ( 'NONE', ( #204, #588, #420, #661 ) ) ;
#665 = CARTESIAN_POINT ( 'NONE',  ( -12.00000000000000000, -1.301042606982605321E-15, 1.999999999999958034 ) ) ;
#666 = CARTESIAN_POINT ( 'NONE',  ( 0.000000000000000000, 7.500000000000000000, -16.00000000000000000 ) ) ;
#667 = EDGE_CURVE ( 'NONE', #264, #968, #43, .T. ) ;
#668 = ORIENTED_EDGE ( 'NONE', *, *, #452, .F. ) ;
#669 = SHAPE_DEFINITION_REPRESENTATION ( #408, #152 ) ;
#670 = DIRECTION ( 'NONE',  ( -0.000000000000000000, -1.000000000000000000, -0.000000000000000000 ) ) ;
#671 = AXIS2_PLACEMENT_3D ( 'NONE', #528, #359, #521 ) ;
#672 = VERTEX_POINT ( 'NONE', #586 ) ;
#673 = VECTOR ( 'NONE', #670, 1000.000000000000000 ) ;
#674 = CARTESIAN_POINT ( 'NONE',  ( 1.500000000000000222, 7.500000000000000000, 6.837397165588670944 ) ) ;
#675 = CARTESIAN_POINT ( 'NONE',  ( 1.198336674346451414, 8.423080621167011728, 9.425141235566599107 ) ) ;
#676 = CARTESIAN_POINT ( 'NONE',  ( -1.451627871554722171, 7.890443714085275673, 6.847858438900276568 ) ) ;
#677 = ORIENTED_EDGE ( 'NONE', *, *, #882, .F. ) ;
#678 = CARTESIAN_POINT ( 'NONE',  ( 0.9921937561067706302, 8.629190181978792396, -6.929676648238130454 ) ) ;
#679 = CARTESIAN_POINT ( 'NONE',  ( 1.500000000000000222, 7.698424099499015405, 9.380831519646861238 ) ) ;
#680 = CARTESIAN_POINT ( 'NONE',  ( 0.000000000000000000, -1.301042606982605321E-15, -10.00000000000000000 ) ) ;
#681 = EDGE_CURVE ( 'NONE', #318, #976, #75, .T. ) ;
#682 = B_SPLINE_CURVE_WITH_KNOTS ( 'NONE', 3,
 ( #618, #695, #900, #602, #905, #522, #223, #154, #305, #446, #456, #219 ),
 .UNSPECIFIED., .F., .F.,
 ( 4, 2, 2, 2, 2, 4 ),
 ( 0.007055078058564863246, 0.007348876710175037547, 0.007642675361785214450, 0.008230272665005568256, 0.008817869968225922062, 0.009405467271446275868 ),
 .UNSPECIFIED. ) ;
#683 = EDGE_LOOP ( 'NONE', ( #677, #938, #96, #774, #86, #600, #242, #91, #893, #886 ) ) ;
#684 = CARTESIAN_POINT ( 'NONE',  ( 0.000000000000000000, 2.999999999999998668, -10.00000000000000000 ) ) ;
#685 = DIRECTION ( 'NONE',  ( 0.000000000000000000, 0.000000000000000000, -1.000000000000000000 ) ) ;
#686 = CARTESIAN_POINT ( 'NONE',  ( -1.200214516283544031, 6.578848845593286754, -9.424927319458825892 ) ) ;
#687 = ORIENTED_EDGE ( 'NONE', *, *, #112, .F. ) ;
#688 = CARTESIAN_POINT ( 'NONE',  ( 0.000000000000000000, 7.500000000000000000, -16.00000000000000000 ) ) ;
#689 = AXIS2_PLACEMENT_3D ( 'NONE', #206, #816, #876 ) ;
#690 = CARTESIAN_POINT ( 'NONE',  ( 1.163414457891215935E-15, 9.000000000000000000, 9.500000000000000000 ) ) ;
#691 = CARTESIAN_POINT ( 'NONE',  ( -0.9150293552672403852, 6.307417627855507192, -9.456180952865178568 ) ) ;
#692 = EDGE_LOOP ( 'NONE', ( #221, #441 ) ) ;
#693 = CARTESIAN_POINT ( 'NONE',  ( -0.9918866870916380751, 8.629480408327802721, 9.448333214098717292 ) ) ;
#694 = EDGE_CURVE ( 'NONE', #506, #922, #591, .T. ) ;
#695 = CARTESIAN_POINT ( 'NONE',  ( -1.500000000000001554, 7.598970852050728197, -6.837397165588678050 ) ) ;
#696 = LINE ( 'NONE', #720, #701 ) ;
#697 = SURFACE_SIDE_STYLE ('',( #95 ) ) ;
#698 = ORIENTED_EDGE ( 'NONE', *, *, #928, .F. ) ;
#699 = CARTESIAN_POINT ( 'NONE',  ( -1.500000000000001554, 7.301945529200319029, -6.837397165588678050 ) ) ;
#700 = LINE ( 'NONE', #24, #289 ) ;
#701 = VECTOR ( 'NONE', #954, 1000.000000000000000 ) ;
#702 = CARTESIAN_POINT ( 'NONE',  ( -0.3888922975812773020, 8.952013258429241560, -9.492522636443442963 ) ) ;
#703 = CARTESIAN_POINT ( 'NONE',  ( 0.1964992235705837753, 6.009699154837878865, 6.997903048680190530 ) ) ;
#704 = CARTESIAN_POINT ( 'NONE',  ( 0.1959840033753162403, 5.999999999999999112, -9.499999999999998224 ) ) ;
#705 = CARTESIAN_POINT ( 'NONE',  ( 0.000000000000000000, -1.301042606982605321E-15, 14.00000000000000000 ) ) ;
#706 = CARTESIAN_POINT ( 'NONE',  ( 0.000000000000000000, -7.347880794884118750E-16, 6.999999999999998224 ) ) ;
#707 = ADVANCED_FACE ( 'NONE', ( #518, #657, #895, #365, #962, #220 ), #654, .F. ) ;
#708 = DIRECTION ( 'NONE',  ( -0.000000000000000000, -1.000000000000000000, -0.000000000000000000 ) ) ;
#709 = EDGE_CURVE ( 'NONE', #448, #803, #438, .T. ) ;
#710 = ORIENTED_EDGE ( 'NONE', *, *, #429, .F. ) ;
#711 = DIRECTION ( 'NONE',  ( 0.000000000000000000, 0.000000000000000000, 1.000000000000000000 ) ) ;
#712 = CARTESIAN_POINT ( 'NONE',  ( 1.163414472405270515E-15, 5.999999999999999112, 9.500000000000000000 ) ) ;
#713 = ORIENTED_EDGE ( 'NONE', *, *, #85, .T. ) ;
#714 = DIRECTION ( 'NONE',  ( -0.000000000000000000, -0.000000000000000000, 1.000000000000000000 ) ) ;
#715 = AXIS2_PLACEMENT_3D ( 'NONE', #622, #239, #382 ) ;
#716 = ORIENTED_EDGE ( 'NONE', *, *, #17, .T. ) ;
#717 = CARTESIAN_POINT ( 'NONE',  ( 2.449293598294706414E-16, -1.301042606982605321E-15, 10.00000000000000000 ) ) ;
#718 = AXIS2_PLACEMENT_3D ( 'NONE', #562, #786, #483 ) ;
#719 = CARTESIAN_POINT ( 'NONE',  ( 0.7559940406115481792, 6.189696187231494839, 6.961427561673438014 ) ) ;
#720 = CARTESIAN_POINT ( 'NONE',  ( -1.500000000000000222, 7.500000000000000000, -16.00000000000000000 ) ) ;
#721 = EDGE_CURVE ( 'NONE', #902, #294, #489, .T. ) ;
#722 = EDGE_LOOP ( 'NONE', ( #475, #454, #865, #247, #870, #303 ) ) ;
#723 = CARTESIAN_POINT ( 'NONE',  ( 0.000000000000000000, 0.000000000000000000, 0.000000000000000000 ) ) ;
#724 = FACE_OUTER_BOUND ( 'NONE', #722, .T. ) ;
#725 = CARTESIAN_POINT ( 'NONE',  ( 0.9220031498039472639, 6.300792316880116317, 9.456175799985174990 ) ) ;
#726 = CARTESIAN_POINT ( 'NONE',  ( 5.110438159248019728E-23, 5.999999999999999112, -9.500000000000000000 ) ) ;
#727 = VERTEX_POINT ( 'NONE', #577 ) ;
#728 = CARTESIAN_POINT ( 'NONE',  ( 8.572527655298705451E-16, 9.000000000000000000, 6.999999999999999112 ) ) ;
#729 = DIRECTION ( 'NONE',  ( 0.000000000000000000, 0.000000000000000000, -1.000000000000000000 ) ) ;
#730 = ORIENTED_EDGE ( 'NONE', *, *, #772, .T. ) ;
#731 = AXIS2_PLACEMENT_3D ( 'NONE', #77, #126, #222 ) ;
#732 = CARTESIAN_POINT ( 'NONE',  ( 1.309944453481671101, 6.743141821706070793, -6.876770804968900919 ) ) ;
#733 = VECTOR ( 'NONE', #789, 1000.000000000000000 ) ;
#734 = CARTESIAN_POINT ( 'NONE',  ( 1.301570931124492070, 6.747989988892498125, 9.410575491255304570 ) ) ;
#735 = CARTESIAN_POINT ( 'NONE',  ( 0.9153160967097988543, 8.692390430354771880, -6.940383565378152042 ) ) ;
#736 = ORIENTED_EDGE ( 'NONE', *, *, #635, .F. ) ;
#737 = CARTESIAN_POINT ( 'NONE',  ( 0.1975855636242604407, 6.009821861197310433, -6.997876517496955273 ) ) ;
#738 = ORIENTED_EDGE ( 'NONE', *, *, #533, .F. ) ;
#739 = EDGE_CURVE ( 'NONE', #381, #849, #503, .T. ) ;
#740 = CYLINDRICAL_SURFACE ( 'NONE', #477, 2.000000000000000000 ) ;
#741 = ADVANCED_FACE ( 'NONE', ( #22 ), #2, .F. ) ;
#742 = B_SPLINE_CURVE_WITH_KNOTS ( 'NONE', 3,
 ( #317, #764, #523, #833, #901, #603, #773, #308, #18, #237, #838, #461, #156, #620 ),
 .UNSPECIFIED., .F., .F.,
 ( 4, 2, 2, 2, 2, 2, 4 ),
 ( 0.007045908240862102864, 0.007339283503917971851, 0.007632658766973840839, 0.007926034030029709826, 0.008219409293085580548, 0.008806159819197315053, 0.009392910345309049558 ),
 .UNSPECIFIED. ) ;
#743 = CYLINDRICAL_SURFACE ( 'NONE', #750, 1.500000000000000222 ) ;
#744 = ORIENTED_EDGE ( 'NONE', *, *, #370, .T. ) ;
#745 = CARTESIAN_POINT ( 'NONE',  ( -1.130651978861829443, 8.490617732191878986, 6.908443038841697970 ) ) ;
#746 = ORIENTED_EDGE ( 'NONE', *, *, #15, .T. ) ;
#747 = CARTESIAN_POINT ( 'NONE',  ( 1.199064485314128126, 8.422127988403252274, -6.897949837106310156 ) ) ;
#748 = DIRECTION ( 'NONE',  ( 0.000000000000000000, 0.000000000000000000, -1.000000000000000000 ) ) ;
#749 = CARTESIAN_POINT ( 'NONE',  ( 0.000000000000000000, 0.000000000000000000, 0.000000000000000000 ) ) ;
#750 = AXIS2_PLACEMENT_3D ( 'NONE', #666, #978, #899 ) ;
#751 = ORIENTED_EDGE ( 'NONE', *, *, #619, .T. ) ;
#752 = CARTESIAN_POINT ( 'NONE',  ( 0.000000000000000000, -1.301042606982605321E-15, -12.00000000000000000 ) ) ;
#753 = CARTESIAN_POINT ( 'NONE',  ( 0.000000000000000000, 0.000000000000000000, 0.000000000000000000 ) ) ;
#754 = EDGE_CURVE ( 'NONE', #922, #372, #535, .T. ) ;
#755 = CARTESIAN_POINT ( 'NONE',  ( 0.000000000000000000, 0.000000000000000000, 0.000000000000000000 ) ) ;
#756 = EDGE_LOOP ( 'NONE', ( #71, #48 ) ) ;
#757 = CARTESIAN_POINT ( 'NONE',  ( 1.163414457891215935E-15, 9.000000000000000000, 9.500000000000000000 ) ) ;
#758 = CARTESIAN_POINT ( 'NONE',  ( 0.000000000000000000, 13.00000000000000000, 0.000000000000000000 ) ) ;
#759 = CARTESIAN_POINT ( 'NONE',  ( -0.4834780286621855883, 6.076660575285897536, -9.488124774990961185 ) ) ;
#760 = VERTEX_POINT ( 'NONE', #680 ) ;
#761 = EDGE_CURVE ( 'NONE', #803, #201, #258, .T. ) ;
#762 = CARTESIAN_POINT ( 'NONE',  ( -1.199285320692969670, 8.421941153693794035, 9.425023799346764264 ) ) ;
#763 = CARTESIAN_POINT ( 'NONE',  ( 0.000000000000000000, 13.00000000000000000, 9.500000000000000000 ) ) ;
#764 = CARTESIAN_POINT ( 'NONE',  ( 1.500000000000000000, 7.599067625691507288, -9.380831519646859462 ) ) ;
#765 = ORIENTED_EDGE ( 'NONE', *, *, #945, .F. ) ;
#766 = DIRECTION ( 'NONE',  ( 0.000000000000000000, 0.000000000000000000, -1.000000000000000000 ) ) ;
#767 = AXIS2_PLACEMENT_3D ( 'NONE', #755, #918, #386 ) ;
#768 = FACE_BOUND ( 'NONE', #471, .T. ) ;
#769 = FILL_AREA_STYLE ('',( #10 ) ) ;
#770 = ORIENTED_EDGE ( 'NONE', *, *, #357, .T. ) ;
#771 = CARTESIAN_POINT ( 'NONE',  ( -1.347388834800626434, 6.833461788190481556, -6.869209099641246929 ) ) ;
#772 = EDGE_CURVE ( 'NONE', #372, #232, #795, .T. ) ;
#773 = CARTESIAN_POINT ( 'NONE',  ( 1.301995945708429359, 8.251275253987156333, -9.410516465822443166 ) ) ;
#774 = ORIENTED_EDGE ( 'NONE', *, *, #917, .T. ) ;
#775 = CARTESIAN_POINT ( 'NONE',  ( -0.9147838001505551597, 8.692789627422703447, 9.456206539744608008 ) ) ;
#776 = DIRECTION ( 'NONE',  ( -0.000000000000000000, 1.000000000000000000, -0.000000000000000000 ) ) ;
#777 = ORIENTED_EDGE ( 'NONE', *, *, #904, .F. ) ;
#778 = CARTESIAN_POINT ( 'NONE',  ( 0.000000000000000000, 0.000000000000000000, -9.500000000000000000 ) ) ;
#779 = CIRCLE ( 'NONE', #858, 2.000000000000000000 ) ;
#780 = VECTOR ( 'NONE', #554, 1000.000000000000000 ) ;
#781 = EDGE_CURVE ( 'NONE', #879, #278, #890, .T. ) ;
#782 = DIRECTION ( 'NONE',  ( 0.000000000000000000, 0.000000000000000000, -1.000000000000000000 ) ) ;
#783 = CARTESIAN_POINT ( 'NONE',  ( 0.000000000000000000, -1.301042606982605321E-15, -12.00000000000000000 ) ) ;
#784 = CARTESIAN_POINT ( 'NONE',  ( 1.500000000000000222, 7.301706848774794700, -9.380831519646861238 ) ) ;
#785 =( LENGTH_UNIT ( ) NAMED_UNIT ( * ) SI_UNIT ( .MILLI., .METRE. ) );
#786 = DIRECTION ( 'NONE',  ( -0.000000000000000000, -0.000000000000000000, 1.000000000000000000 ) ) ;
#787 = LINE ( 'NONE', #647, #11 ) ;
#788 = ORIENTED_EDGE ( 'NONE', *, *, #721, .T. ) ;
#789 = DIRECTION ( 'NONE',  ( -0.000000000000000000, -0.000000000000000000, 1.000000000000000000 ) ) ;
#790 = CARTESIAN_POINT ( 'NONE',  ( 8.571058091089005552E-16, 5.999999999999999112, 6.999999999999999112 ) ) ;
#791 = EDGE_CURVE ( 'NONE', #515, #863, #742, .T. ) ;
#792 = CARTESIAN_POINT ( 'NONE',  ( -1.500000000000000222, 7.500000000000000000, 9.380831519646859462 ) ) ;
#793 = CIRCLE ( 'NONE', #638, 2.000000000000000000 ) ;
#794 = ORIENTED_EDGE ( 'NONE', *, *, #465, .F. ) ;
#795 = CIRCLE ( 'NONE', #335, 16.00000000000000000 ) ;
#796 = CARTESIAN_POINT ( 'NONE',  ( 1.198081051646316286, 6.576660079253210611, 6.898118513036246569 ) ) ;
#797 = CARTESIAN_POINT ( 'NONE',  ( 0.3936994991595199611, 6.039445519776329263, -9.493562907396178474 ) ) ;
#798 = ADVANCED_FACE ( 'NONE', ( #224 ), #827, .F. ) ;
#799 = ORIENTED_EDGE ( 'NONE', *, *, #534, .F. ) ;
#800 = APPLICATION_PROTOCOL_DEFINITION ( 'draft international standard', 'automotive_design', 1998, #837 ) ;
#801 = CARTESIAN_POINT ( 'NONE',  ( 1.423180435925518239, 7.016001404843667189, -6.853906932590990486 ) ) ;
#802 = FACE_OUTER_BOUND ( 'NONE', #443, .T. ) ;
#803 = VERTEX_POINT ( 'NONE', #149 ) ;
#804 = CARTESIAN_POINT ( 'NONE',  ( 1.163414459189985485E-15, 0.000000000000000000, 9.500000000000000000 ) ) ;
#805 = CYLINDRICAL_SURFACE ( 'NONE', #450, 2.000000000000000000 ) ;
#806 = DIRECTION ( 'NONE',  ( -0.000000000000000000, -1.000000000000000000, -0.000000000000000000 ) ) ;
#807 = B_SPLINE_CURVE_WITH_KNOTS ( 'NONE', 3,
 ( #353, #430, #293, #65, #801, #732, #270, #880, #447, #582, #285, #810, #209, #737, #60, #595 ),
 .UNSPECIFIED., .F., .F.,
 ( 4, 2, 2, 2, 2, 2, 2, 4 ),
 ( 0.002352272556638355938, 0.002646157216702211840, 0.002940041876766067742, 0.003527811196893781281, 0.003821695856957637617, 0.004115580517021493953, 0.004409465177085350289, 0.004703349837149206625 ),
 .UNSPECIFIED. ) ;
#808 = EDGE_CURVE ( 'NONE', #849, #299, #74, .T. ) ;
#809 = AXIS2_PLACEMENT_3D ( 'NONE', #961, #806, #138 ) ;
#810 = CARTESIAN_POINT ( 'NONE',  ( 0.4839551745235585178, 6.076831005314944356, -6.983842339010787548 ) ) ;
#811 = CIRCLE ( 'NONE', #351, 2.000000000000000000 ) ;
#812 = ORIENTED_EDGE ( 'NONE', *, *, #514, .T. ) ;
#813 = EDGE_CURVE ( 'NONE', #437, #519, #550, .T. ) ;
#814 = CARTESIAN_POINT ( 'NONE',  ( 8.571058091089005552E-16, 5.999999999999999112, 6.999999999999999112 ) ) ;
#815 = ORIENTED_EDGE ( 'NONE', *, *, #650, .F. ) ;
#816 = DIRECTION ( 'NONE',  ( -0.000000000000000000, -1.000000000000000000, -0.000000000000000000 ) ) ;
#817 = EDGE_LOOP ( 'NONE', ( #100, #113, #324, #829 ) ) ;
#818 = MANIFOLD_SOLID_BREP ( 'CirPattern1', #131 ) ;
#819 = FACE_OUTER_BOUND ( 'NONE', #817, .T. ) ;
#820 = DIRECTION ( 'NONE',  ( -0.000000000000000000, -1.000000000000000000, -0.000000000000000000 ) ) ;
#821 = DIRECTION ( 'NONE',  ( 1.000000000000000000, 0.000000000000000000, 0.000000000000000000 ) ) ;
#822 = CARTESIAN_POINT ( 'NONE',  ( -1.423173938163906582, 7.983938801989210354, 6.853907278861218089 ) ) ;
#823 = ORIENTED_EDGE ( 'NONE', *, *, #337, .T. ) ;
#824 = DIRECTION ( 'NONE',  ( -0.000000000000000000, 1.000000000000000000, -0.000000000000000000 ) ) ;
#825 = EDGE_CURVE ( 'NONE', #760, #463, #241, .T. ) ;
#826 = DIRECTION ( 'NONE',  ( -0.000000000000000000, 1.000000000000000000, 0.000000000000000000 ) ) ;
#827 = CYLINDRICAL_SURFACE ( 'NONE', #925, 2.000000000000000000 ) ;
#828 = VECTOR ( 'NONE', #336, 1000.000000000000000 ) ;
#829 = ORIENTED_EDGE ( 'NONE', *, *, #416, .F. ) ;
#830 = STYLED_ITEM ( 'NONE', ( #29 ), #818 ) ;
#831 = CARTESIAN_POINT ( 'NONE',  ( -0.7520548534252118333, 8.801533708262933686, 9.470537736621198022 ) ) ;
#832 = DIRECTION ( 'NONE',  ( -0.000000000000000000, -1.000000000000000000, -0.000000000000000000 ) ) ;
#833 = CARTESIAN_POINT ( 'NONE',  ( 1.452130112633909897, 7.888443348724980986, -9.388380636002302992 ) ) ;
#834 = EDGE_LOOP ( 'NONE', ( #512, #132, #172, #161, #290, #439 ) ) ;
#835 = DIRECTION ( 'NONE',  ( 0.000000000000000000, 1.000000000000000000, 0.000000000000000000 ) ) ;
#836 = FACE_OUTER_BOUND ( 'NONE', #53, .T. ) ;
#837 = APPLICATION_CONTEXT ( 'automotive_design' ) ;
#838 = CARTESIAN_POINT ( 'NONE',  ( 0.7561119390817103714, 8.810121467081422963, -9.471584878396544838 ) ) ;
#839 = ORIENTED_EDGE ( 'NONE', *, *, #488, .T. ) ;
#840 = CARTESIAN_POINT ( 'NONE',  ( -0.1961186583549531237, 6.000000000000000000, -7.000000000000000000 ) ) ;
#841 = CARTESIAN_POINT ( 'NONE',  ( 0.9912621947215263241, 8.630009476013501768, 9.448397948074649833 ) ) ;
#842 = CARTESIAN_POINT ( 'NONE',  ( -1.451740290175365322, 7.110028476444660406, -9.388441214006817859 ) ) ;
#843 = EDGE_CURVE ( 'NONE', #64, #118, #956, .T. ) ;
#844 = ORIENTED_EDGE ( 'NONE', *, *, #397, .F. ) ;
#845 = CARTESIAN_POINT ( 'NONE',  ( -3.549479643041942618E-22, 5.999999999999999112, -6.999999999999999112 ) ) ;
#846 = AXIS2_PLACEMENT_3D ( 'NONE', #322, #835, #537 ) ;
#847 =( GEOMETRIC_REPRESENTATION_CONTEXT ( 3 ) GLOBAL_UNCERTAINTY_ASSIGNED_CONTEXT ( ( #422 ) ) GLOBAL_UNIT_ASSIGNED_CONTEXT ( ( #951, #894, #205 ) ) REPRESENTATION_CONTEXT ( 'NONE', 'WORKASPACE' ) );
#848 = CARTESIAN_POINT ( 'NONE',  ( -0.6649449723346368968, 6.151855235550930168, -9.477136220070025985 ) ) ;
#849 = VERTEX_POINT ( 'NONE', #553 ) ;
#850 = CARTESIAN_POINT ( 'NONE',  ( -1.310862090673315938, 8.254889192816314392, 9.409429543979953792 ) ) ;
#851 = CARTESIAN_POINT ( 'NONE',  ( -1.499999999999999778, 7.696064363420086707, -9.380831519646855909 ) ) ;
#852 = CARTESIAN_POINT ( 'NONE',  ( 1.423077782696470228, 7.015729912021725134, 9.392885688171331182 ) ) ;
#853 = CARTESIAN_POINT ( 'NONE',  ( 1.499999999999999778, 7.301267928018255304, 6.837397165588669168 ) ) ;
#854 = EDGE_CURVE ( 'NONE', #868, #485, #655, .T. ) ;
#855 = DIRECTION ( 'NONE',  ( 0.000000000000000000, 0.000000000000000000, -1.000000000000000000 ) ) ;
#856 = FACE_OUTER_BOUND ( 'NONE', #136, .T. ) ;
#857 = CARTESIAN_POINT ( 'NONE',  ( 8.572527594031474176E-16, 13.00000000000000000, 7.000000000000000888 ) ) ;
#858 = AXIS2_PLACEMENT_3D ( 'NONE', #510, #660, #729 ) ;
#859 = CIRCLE ( 'NONE', #434, 2.000000000000000000 ) ;
#860 = AXIS2_PLACEMENT_3D ( 'NONE', #593, #662, #649 ) ;
#861 = CARTESIAN_POINT ( 'NONE',  ( 3.871188978971398630E-16, 9.000000000000000000, -9.500000000000000000 ) ) ;
#862 = CARTESIAN_POINT ( 'NONE',  ( -1.500000000000000222, 7.500000000000000000, -6.837397165588670944 ) ) ;
#863 = VERTEX_POINT ( 'NONE', #403 ) ;
#864 = DIRECTION ( 'NONE',  ( 0.000000000000000000, 0.000000000000000000, 1.000000000000000000 ) ) ;
#865 = ORIENTED_EDGE ( 'NONE', *, *, #791, .F. ) ;
#866 = FACE_BOUND ( 'NONE', #692, .T. ) ;
#867 = FACE_OUTER_BOUND ( 'NONE', #189, .T. ) ;
#868 = VERTEX_POINT ( 'NONE', #261 ) ;
#869 = CARTESIAN_POINT ( 'NONE',  ( -1.192593052055828551, 6.584984778170111852, 9.425004979514344683 ) ) ;
#870 = ORIENTED_EDGE ( 'NONE', *, *, #377, .F. ) ;
#871 = DIRECTION ( 'NONE',  ( -0.000000000000000000, 1.000000000000000000, 0.000000000000000000 ) ) ;
#872 = CIRCLE ( 'NONE', #432, 2.000000000000000000 ) ;
#873 = EDGE_LOOP ( 'NONE', ( #217, #58 ) ) ;
#874 =( GEOMETRIC_REPRESENTATION_CONTEXT ( 3 ) GLOBAL_UNCERTAINTY_ASSIGNED_CONTEXT ( ( #481 ) ) GLOBAL_UNIT_ASSIGNED_CONTEXT ( ( #785, #939, #630 ) ) REPRESENTATION_CONTEXT ( 'NONE', 'WORKASPACE' ) );
#875 = CARTESIAN_POINT ( 'NONE',  ( 2.449293598294706414E-16, 2.999999999999998668, -14.00000000000000000 ) ) ;
#876 = DIRECTION ( 'NONE',  ( 0.000000000000000000, 0.000000000000000000, -1.000000000000000000 ) ) ;
#877 = DIRECTION ( 'NONE',  ( 0.000000000000000000, 0.000000000000000000, -1.000000000000000000 ) ) ;
#878 = CARTESIAN_POINT ( 'NONE',  ( 1.500000000000000222, 7.500000000000000000, 9.380831519646859462 ) ) ;
#879 = VERTEX_POINT ( 'NONE', #339 ) ;
#880 = CARTESIAN_POINT ( 'NONE',  ( 0.9906659207541681500, 6.369390577684161059, -6.929902337167074933 ) ) ;
#881 = CARTESIAN_POINT ( 'NONE',  ( -0.3932717216882480327, 6.039087798701862297, 6.991334694043775499 ) ) ;
#882 = EDGE_CURVE ( 'NONE', #64, #502, #255, .T. ) ;
#883 = ORIENTED_EDGE ( 'NONE', *, *, #854, .F. ) ;
#884 = EDGE_CURVE ( 'NONE', #485, #278, #114, .T. ) ;
#885 = DIRECTION ( 'NONE',  ( -0.000000000000000000, -1.000000000000000000, -0.000000000000000000 ) ) ;
#886 = ORIENTED_EDGE ( 'NONE', *, *, #465, .T. ) ;
#887 = CARTESIAN_POINT ( 'NONE',  ( 1.301341886220261035, 8.252400549479478542, 6.878195415424629644 ) ) ;
#888 = VERTEX_POINT ( 'NONE', #328 ) ;
#889 = CARTESIAN_POINT ( 'NONE',  ( 2.449293598294706414E-16, -1.301042606982605321E-15, -14.00000000000000000 ) ) ;
#890 = CIRCLE ( 'NONE', #168, 2.000000000000000000 ) ;
#891 = ORIENTED_EDGE ( 'NONE', *, *, #254, .T. ) ;
#892 = CARTESIAN_POINT ( 'NONE',  ( 1.500000000000000222, 7.500000000000000000, -6.837397165588670944 ) ) ;
#893 = ORIENTED_EDGE ( 'NONE', *, *, #579, .T. ) ;
#894 =( NAMED_UNIT ( * ) PLANE_ANGLE_UNIT ( ) SI_UNIT ( $, .RADIAN. ) );
#895 = FACE_BOUND ( 'NONE', #387, .T. ) ;
#896 = EDGE_CURVE ( 'NONE', #437, #727, #26, .T. ) ;
#897 = EDGE_LOOP ( 'NONE', ( #746, #576 ) ) ;
#898 = DIRECTION ( 'NONE',  ( -0.000000000000000000, 1.000000000000000000, -0.000000000000000000 ) ) ;
#899 = DIRECTION ( 'NONE',  ( 1.000000000000000000, 0.000000000000000000, 0.000000000000000000 ) ) ;
#900 = CARTESIAN_POINT ( 'NONE',  ( -1.490300251809398402, 7.696501601472148124, -6.839545871933347065 ) ) ;
#901 = CARTESIAN_POINT ( 'NONE',  ( 1.423200245830436472, 7.983874116911704455, -9.392866710036361866 ) ) ;
#902 = VERTEX_POINT ( 'NONE', #175 ) ;
#903 = CARTESIAN_POINT ( 'NONE',  ( 0.7551919620427585134, 8.810671297760327647, 6.961499570841524154 ) ) ;
#904 = EDGE_CURVE ( 'NONE', #868, #879, #37, .T. ) ;
#905 = CARTESIAN_POINT ( 'NONE',  ( -1.423007912615738224, 7.984409620964704857, -6.853941707212696244 ) ) ;
#906 = B_SPLINE_CURVE_WITH_KNOTS ( 'NONE', 3,
 ( #861, #194, #399, #702, #644, #265, #412, #566, #474, #492, #321, #323, #851, #625 ),
 .UNSPECIFIED., .F., .F.,
 ( 4, 2, 2, 2, 2, 2, 4 ),
 ( 3.761177302552246227E-19, 0.0002936352965599062334, 0.0005872705931198120332, 0.0008809058896797179955, 0.001174541186239623849, 0.001761811779359435124, 0.002349082372479246398 ),
 .UNSPECIFIED. ) ;
#907 = DIRECTION ( 'NONE',  ( 0.000000000000000000, 0.000000000000000000, -1.000000000000000000 ) ) ;
#908 = CIRCLE ( 'NONE', #320, 2.000000000000000000 ) ;
#909 = ORIENTED_EDGE ( 'NONE', *, *, #694, .T. ) ;
#910 = AXIS2_PLACEMENT_3D ( 'NONE', #706, #559, #31 ) ;
#911 = DIRECTION ( 'NONE',  ( -0.000000000000000000, -0.000000000000000000, 1.000000000000000000 ) ) ;
#912 = FACE_OUTER_BOUND ( 'NONE', #659, .T. ) ;
#913 = CARTESIAN_POINT ( 'NONE',  ( 1.959434878635765131E-15, 0.000000000000000000, 16.00000000000000000 ) ) ;
#914 = EDGE_LOOP ( 'NONE', ( #508, #124, #423, #121 ) ) ;
#915 = CYLINDRICAL_SURFACE ( 'NONE', #59, 1.500000000000000222 ) ;
#916 = CARTESIAN_POINT ( 'NONE',  ( 0.9143366659615778103, 8.693145725930195411, 9.456251181204279987 ) ) ;
#917 = EDGE_CURVE ( 'NONE', #863, #437, #906, .T. ) ;
#918 = DIRECTION ( 'NONE',  ( -0.000000000000000000, -1.000000000000000000, -0.000000000000000000 ) ) ;
#919 = ORIENTED_EDGE ( 'NONE', *, *, #843, .F. ) ;
#920 = CARTESIAN_POINT ( 'NONE',  ( -1.500000000000000222, 7.500000000000000000, -9.380831519646857686 ) ) ;
#921 = SURFACE_STYLE_USAGE ( .BOTH. , #697 ) ;
#922 = VERTEX_POINT ( 'NONE', #929 ) ;
#923 = CARTESIAN_POINT ( 'NONE',  ( 1.163414457891215935E-15, 9.000000000000000000, 9.500000000000000000 ) ) ;
#924 = CIRCLE ( 'NONE', #731, 2.000000000000000000 ) ;
#925 = AXIS2_PLACEMENT_3D ( 'NONE', #99, #302, #380 ) ;
#926 = CARTESIAN_POINT ( 'NONE',  ( -12.00000000000000000, 2.999999999999998668, -4.189777606611760026E-14 ) ) ;
#927 = CARTESIAN_POINT ( 'NONE',  ( 1.500000000000000222, 7.500000000000000000, -16.00000000000000000 ) ) ;
#928 = EDGE_CURVE ( 'NONE', #364, #196, #859, .T. ) ;
#929 = CARTESIAN_POINT ( 'NONE',  ( 1.959434878635765131E-15, 2.999999999999998668, 16.00000000000000000 ) ) ;
#930 = LINE ( 'NONE', #628, #780 ) ;
#931 = CARTESIAN_POINT ( 'NONE',  ( 12.00000000000000000, -1.301042606982605321E-15, 1.256933281983528008E-13 ) ) ;
#932 = DIRECTION ( 'NONE',  ( 0.000000000000000000, 0.000000000000000000, -1.000000000000000000 ) ) ;
#933 = ORIENTED_EDGE ( 'NONE', *, *, #174, .F. ) ;
#934 = CYLINDRICAL_SURFACE ( 'NONE', #229, 2.000000000000000000 ) ;
#935 = VECTOR ( 'NONE', #826, 1000.000000000000000 ) ;
#936 = B_SPLINE_CURVE_WITH_KNOTS ( 'NONE', 3,
 ( #373, #525, #433, #67, #275, #211, #964, #735, #678, #747, #62, #584, #356, #892 ),
 .UNSPECIFIED., .F., .F.,
 ( 4, 2, 2, 2, 2, 2, 4 ),
 ( 1.497079487921733929E-19, 0.0002940340695797936249, 0.0005880681391595870330, 0.0008821022087393805495, 0.001176136278319174283, 0.001764204417478765436, 0.002352272556638355938 ),
 .UNSPECIFIED. ) ;
#937 = AXIS2_PLACEMENT_3D ( 'NONE', #749, #507, #129 ) ;
#938 = ORIENTED_EDGE ( 'NONE', *, *, #843, .T. ) ;
#939 =( NAMED_UNIT ( * ) PLANE_ANGLE_UNIT ( ) SI_UNIT ( $, .RADIAN. ) );
#940 = CARTESIAN_POINT ( 'NONE',  ( -1.348149091186747750, 6.835064181867581468, 9.403932060948905658 ) ) ;
#941 = CARTESIAN_POINT ( 'NONE',  ( 1.347684159604681575, 6.834105639259940190, 9.403999113813695132 ) ) ;
#942 = ORIENTED_EDGE ( 'NONE', *, *, #282, .F. ) ;
#943 = CARTESIAN_POINT ( 'NONE',  ( 1.347662891392680029, 6.834045617233093672, -9.404002329596249155 ) ) ;
#944 = ORIENTED_EDGE ( 'NONE', *, *, #112, .T. ) ;
#945 = EDGE_CURVE ( 'NONE', #299, #849, #13, .T. ) ;
#946 = CARTESIAN_POINT ( 'NONE',  ( 0.000000000000000000, 13.00000000000000000, 0.000000000000000000 ) ) ;
#947 = CYLINDRICAL_SURFACE ( 'NONE', #272, 9.500000000000000000 ) ;
#948 = ORIENTED_EDGE ( 'NONE', *, *, #183, .F. ) ;
#949 = DIRECTION ( 'NONE',  ( -0.000000000000000000, -1.000000000000000000, -0.000000000000000000 ) ) ;
#950 = ORIENTED_EDGE ( 'NONE', *, *, #694, .F. ) ;
#951 =( LENGTH_UNIT ( ) NAMED_UNIT ( * ) SI_UNIT ( .MILLI., .METRE. ) );
#952 = EDGE_LOOP ( 'NONE', ( #777, #458, #569, #637 ) ) ;
#953 = CARTESIAN_POINT ( 'NONE',  ( 1.459932870224585955, 7.104078891113575267, 6.846492332397928315 ) ) ;
#954 = DIRECTION ( 'NONE',  ( -0.000000000000000000, -0.000000000000000000, 1.000000000000000000 ) ) ;
#955 = ORIENTED_EDGE ( 'NONE', *, *, #326, .T. ) ;
#956 = CIRCLE ( 'NONE', #104, 9.500000000000000000 ) ;
#957 = AXIS2_PLACEMENT_3D ( 'NONE', #178, #184, #782 ) ;
#958 = CARTESIAN_POINT ( 'NONE',  ( 0.000000000000000000, 13.00000000000000000, 0.000000000000000000 ) ) ;
#959 = ADVANCED_FACE ( 'NONE', ( #33 ), #482, .F. ) ;
#960 = CARTESIAN_POINT ( 'NONE',  ( -12.00000000000000000, 2.999999999999998668, 1.999999999999958034 ) ) ;
#961 = CARTESIAN_POINT ( 'NONE',  ( 0.000000000000000000, 2.999999999999998668, 12.00000000000000000 ) ) ;
#962 = FACE_OUTER_BOUND ( 'NONE', #145, .T. ) ;
#963 = EDGE_LOOP ( 'NONE', ( #738, #276, #942, #497 ) ) ;
#964 = CARTESIAN_POINT ( 'NONE',  ( 0.7524404257614156766, 8.801319292478858358, -6.959925358590218991 ) ) ;
#965 = ORIENTED_EDGE ( 'NONE', *, *, #514, .F. ) ;
#966 = DIRECTION ( 'NONE',  ( 0.000000000000000000, 0.000000000000000000, 1.000000000000000000 ) ) ;
#967 = LINE ( 'NONE', #125, #673 ) ;
#968 = VERTEX_POINT ( 'NONE', #49 ) ;
#969 = CARTESIAN_POINT ( 'NONE',  ( 0.9221857453498075730, 8.699019389248013212, 6.940394346146846694 ) ) ;
#970 = ORIENTED_EDGE ( 'NONE', *, *, #377, .T. ) ;
#971 = ADVANCED_FACE ( 'NONE', ( #424 ), #292, .F. ) ;
#972 = CIRCLE ( 'NONE', #180, 7.000000000000000000 ) ;
#973 = APPLICATION_PROTOCOL_DEFINITION ( 'draft international standard', 'automotive_design', 1998, #212 ) ;
#974 = CIRCLE ( 'NONE', #385, 16.00000000000000000 ) ;
#975 = CARTESIAN_POINT ( 'NONE',  ( -1.192459150610749585, 8.415184161976167587, 6.897904135381013546 ) ) ;
#976 = VERTEX_POINT ( 'NONE', #875 ) ;
#977 = CARTESIAN_POINT ( 'NONE',  ( -12.00000000000000000, -1.301042606982605321E-15, 1.999999999999958034 ) ) ;
#978 = DIRECTION ( 'NONE',  ( -0.000000000000000000, -0.000000000000000000, 1.000000000000000000 ) ) ;
#979 = CYLINDRICAL_SURFACE ( 'NONE', #526, 16.00000000000000000 ) ;
ENDSEC;
END-ISO-10303-21;
