ISO-10303-21;
HEADER;
FILE_DESCRIPTION (( 'STEP AP214' ),
    '1' );
FILE_NAME ('GripperRing 1.step',
    '2026-08-28T16:11:52',
    ( '' ),
    ( '' ),
    'SwSTEP 2.0',
    'SolidWorks 2024',
    '' );
FILE_SCHEMA (( 'AUTOMOTIVE_DESIGN' ));
ENDSEC;

DATA;
#1 = LINE ( 'NONE', #229, #443 ) ;
#2 = CARTESIAN_POINT ( 'NONE',  ( -35.00000000000000000, -30.00000000000000000, -24.99999999999999289 ) ) ;
#3 = ORIENTED_EDGE ( 'NONE', *, *, #639, .T. ) ;
#4 = DIRECTION ( 'NONE',  ( -1.156482317317871478E-16, -0.000000000000000000, -1.000000000000000000 ) ) ;
#5 = VECTOR ( 'NONE', #365, 1000.000000000000000 ) ;
#6 = CIRCLE ( 'NONE', #321, 30.00000000000000000 ) ;
#7 = VECTOR ( 'NONE', #96, 1000.000000000000000 ) ;
#8 = LINE ( 'NONE', #533, #515 ) ;
#9 = DIRECTION ( 'NONE',  ( 0.000000000000000000, 1.000000000000000000, -0.000000000000000000 ) ) ;
#10 = EDGE_CURVE ( 'NONE', #310, #751, #418, .T. ) ;
#11 = DIRECTION ( 'NONE',  ( -1.000000000000000000, -0.000000000000000000, -0.000000000000000000 ) ) ;
#12 = DIRECTION ( 'NONE',  ( 1.387778780781446464E-15, 0.000000000000000000, -1.000000000000000000 ) ) ;
#13 = CARTESIAN_POINT ( 'NONE',  ( -50.00000000000000711, 30.00000000000000000, -49.99999999999999289 ) ) ;
#14 = DIRECTION ( 'NONE',  ( 0.000000000000000000, 0.000000000000000000, -1.000000000000000000 ) ) ;
#15 = ORIENTED_EDGE ( 'NONE', *, *, #239, .F. ) ;
#16 = ORIENTED_EDGE ( 'NONE', *, *, #659, .F. ) ;
#17 = CARTESIAN_POINT ( 'NONE',  ( -55.00000000000000000, 0.000000000000000000, 0.000000000000000000 ) ) ;
#18 =( LENGTH_UNIT ( ) NAMED_UNIT ( * ) SI_UNIT ( .MILLI., .METRE. ) );
#19 = EDGE_LOOP ( 'NONE', ( #26, #615, #629, #97 ) ) ;
#20 = CIRCLE ( 'NONE', #431, 30.00000000000000000 ) ;
#21 = ORIENTED_EDGE ( 'NONE', *, *, #264, .F. ) ;
#22 = CARTESIAN_POINT ( 'NONE',  ( 35.00000000000000000, 0.000000000000000000, 30.00000000000000000 ) ) ;
#23 = CARTESIAN_POINT ( 'NONE',  ( 55.00000000000000000, 0.000000000000000000, 0.000000000000000000 ) ) ;
#24 =( NAMED_UNIT ( * ) SI_UNIT ( $, .STERADIAN. ) SOLID_ANGLE_UNIT ( ) );
#25 = CARTESIAN_POINT ( 'NONE',  ( 35.00000000000000000, 30.00000000000000000, 0.000000000000000000 ) ) ;
#26 = ORIENTED_EDGE ( 'NONE', *, *, #753, .F. ) ;
#27 = DIRECTION ( 'NONE',  ( -0.000000000000000000, -1.000000000000000000, -0.000000000000000000 ) ) ;
#28 =( GEOMETRIC_REPRESENTATION_CONTEXT ( 3 ) GLOBAL_UNCERTAINTY_ASSIGNED_CONTEXT ( ( #63 ) ) GLOBAL_UNIT_ASSIGNED_CONTEXT ( ( #18, #537, #493 ) ) REPRESENTATION_CONTEXT ( 'NONE', 'WORKASPACE' ) );
#29 = CARTESIAN_POINT ( 'NONE',  ( 55.00000000000000000, 0.000000000000000000, 0.000000000000000000 ) ) ;
#30 = VERTEX_POINT ( 'NONE', #75 ) ;
#31 = EDGE_CURVE ( 'NONE', #30, #190, #82, .T. ) ;
#32 = DIRECTION ( 'NONE',  ( 1.000000000000000000, 0.000000000000000000, 0.000000000000000000 ) ) ;
#33 = LINE ( 'NONE', #679, #374 ) ;
#34 = ORIENTED_EDGE ( 'NONE', *, *, #744, .T. ) ;
#35 = CYLINDRICAL_SURFACE ( 'NONE', #408, 15.00000000000000000 ) ;
#36 = FACE_OUTER_BOUND ( 'NONE', #242, .T. ) ;
#37 = ORIENTED_EDGE ( 'NONE', *, *, #121, .T. ) ;
#38 = ADVANCED_FACE ( 'NONE', ( #464 ), #304, .F. ) ;
#39 = DIRECTION ( 'NONE',  ( -1.000000000000000000, -0.000000000000000000, -0.000000000000000000 ) ) ;
#40 = VERTEX_POINT ( 'NONE', #123 ) ;
#41 = CIRCLE ( 'NONE', #233, 15.00000000000000000 ) ;
#42 = VECTOR ( 'NONE', #586, 1000.000000000000000 ) ;
#43 = VECTOR ( 'NONE', #647, 1000.000000000000000 ) ;
#44 = EDGE_CURVE ( 'NONE', #674, #646, #480, .T. ) ;
#45 = DIRECTION ( 'NONE',  ( 0.000000000000000000, 0.000000000000000000, 1.000000000000000000 ) ) ;
#46 = VERTEX_POINT ( 'NONE', #300 ) ;
#47 = CYLINDRICAL_SURFACE ( 'NONE', #562, 4.999999999999997335 ) ;
#48 = LINE ( 'NONE', #506, #725 ) ;
#49 = ORIENTED_EDGE ( 'NONE', *, *, #176, .T. ) ;
#50 = ADVANCED_FACE ( 'NONE', ( #714 ), #179, .T. ) ;
#51 = DIRECTION ( 'NONE',  ( 0.000000000000000000, 0.000000000000000000, 1.000000000000000000 ) ) ;
#52 = DIRECTION ( 'NONE',  ( 1.000000000000000000, 0.000000000000000000, -1.156482317317871478E-16 ) ) ;
#53 = ORIENTED_EDGE ( 'NONE', *, *, #356, .F. ) ;
#54 = CIRCLE ( 'NONE', #256, 5.000000000000000888 ) ;
#55 = EDGE_CURVE ( 'NONE', #743, #699, #353, .T. ) ;
#56 = DIRECTION ( 'NONE',  ( -1.000000000000000000, -0.000000000000000000, -0.000000000000000000 ) ) ;
#57 = AXIS2_PLACEMENT_3D ( 'NONE', #528, #366, #702 ) ;
#58 = FACE_BOUND ( 'NONE', #238, .T. ) ;
#59 = VERTEX_POINT ( 'NONE', #293 ) ;
#60 = DIRECTION ( 'NONE',  ( 1.000000000000000000, 0.000000000000000000, 0.000000000000000000 ) ) ;
#61 = FACE_BOUND ( 'NONE', #623, .T. ) ;
#62 = ORIENTED_EDGE ( 'NONE', *, *, #158, .F. ) ;
#63 = UNCERTAINTY_MEASURE_WITH_UNIT (LENGTH_MEASURE( 1.000000000000000082E-05 ), #18, 'distance_accuracy_value', 'NONE');
#64 = EDGE_CURVE ( 'NONE', #46, #310, #534, .T. ) ;
#65 = LINE ( 'NONE', #644, #635 ) ;
#66 = CARTESIAN_POINT ( 'NONE',  ( 35.00000000000000000, 0.000000000000000000, 0.000000000000000000 ) ) ;
#67 = ORIENTED_EDGE ( 'NONE', *, *, #264, .T. ) ;
#68 = COLOUR_RGB ( '',0.7921568627450980005, 0.8196078431372548767, 0.9333333333333333481 ) ;
#69 = DIRECTION ( 'NONE',  ( -1.000000000000000000, -0.000000000000000000, -0.000000000000000000 ) ) ;
#70 = VECTOR ( 'NONE', #554, 1000.000000000000000 ) ;
#71 = CIRCLE ( 'NONE', #530, 30.00000000000000000 ) ;
#72 = DIRECTION ( 'NONE',  ( -0.000000000000000000, -0.000000000000000000, 1.000000000000000000 ) ) ;
#73 = ORIENTED_EDGE ( 'NONE', *, *, #231, .T. ) ;
#74 = DIRECTION ( 'NONE',  ( 1.000000000000000000, 0.000000000000000000, -1.156482317317871478E-16 ) ) ;
#75 = CARTESIAN_POINT ( 'NONE',  ( 30.00000000000000000, 30.00000000000000000, -29.99999999999999645 ) ) ;
#76 = CARTESIAN_POINT ( 'NONE',  ( -55.00000000000000000, 0.000000000000000000, 0.000000000000000000 ) ) ;
#77 = VERTEX_POINT ( 'NONE', #249 ) ;
#78 = ORIENTED_EDGE ( 'NONE', *, *, #472, .T. ) ;
#79 = CARTESIAN_POINT ( 'NONE',  ( 55.00000000000000000, 0.000000000000000000, 15.00000000000000000 ) ) ;
#80 = EDGE_CURVE ( 'NONE', #328, #59, #484, .T. ) ;
#81 = DIRECTION ( 'NONE',  ( 1.000000000000000000, 0.000000000000000000, 0.000000000000000000 ) ) ;
#82 = LINE ( 'NONE', #477, #663 ) ;
#83 = CIRCLE ( 'NONE', #529, 30.00000000000000000 ) ;
#84 = ORIENTED_EDGE ( 'NONE', *, *, #55, .T. ) ;
#85 = DIRECTION ( 'NONE',  ( 0.000000000000000000, 0.000000000000000000, 1.000000000000000000 ) ) ;
#86 = DIRECTION ( 'NONE',  ( 0.000000000000000000, 0.000000000000000000, 1.000000000000000000 ) ) ;
#87 = ORIENTED_EDGE ( 'NONE', *, *, #373, .F. ) ;
#88 = SURFACE_SIDE_STYLE ('',( #425 ) ) ;
#89 = DIRECTION ( 'NONE',  ( -1.000000000000000000, 0.000000000000000000, 1.156482317317871478E-16 ) ) ;
#90 = PRODUCT_RELATED_PRODUCT_CATEGORY ( 'part', '', ( #118 ) ) ;
#91 = ORIENTED_EDGE ( 'NONE', *, *, #639, .F. ) ;
#92 = DIRECTION ( 'NONE',  ( -1.000000000000000000, -0.000000000000000000, -0.000000000000000000 ) ) ;
#93 = CIRCLE ( 'NONE', #686, 15.00000000000000000 ) ;
#94 = EDGE_LOOP ( 'NONE', ( #569, #620, #214, #345 ) ) ;
#95 = LINE ( 'NONE', #487, #70 ) ;
#96 = DIRECTION ( 'NONE',  ( -0.000000000000000000, -0.000000000000000000, -1.000000000000000000 ) ) ;
#97 = ORIENTED_EDGE ( 'NONE', *, *, #584, .F. ) ;
#98 = DIRECTION ( 'NONE',  ( -0.000000000000000000, -0.000000000000000000, 1.000000000000000000 ) ) ;
#99 = ORIENTED_EDGE ( 'NONE', *, *, #482, .T. ) ;
#100 = ADVANCED_FACE ( 'NONE', ( #258 ), #147, .T. ) ;
#101 = AXIS2_PLACEMENT_3D ( 'NONE', #413, #590, #113 ) ;
#102 = CARTESIAN_POINT ( 'NONE',  ( 0.000000000000000000, 0.000000000000000000, -49.99999999999999289 ) ) ;
#103 = ORIENTED_EDGE ( 'NONE', *, *, #398, .T. ) ;
#104 = AXIS2_PLACEMENT_3D ( 'NONE', #446, #207, #455 ) ;
#105 = CARTESIAN_POINT ( 'NONE',  ( 55.00000000000000000, 30.00000000000000000, 0.000000000000000000 ) ) ;
#106 = EDGE_CURVE ( 'NONE', #114, #376, #331, .T. ) ;
#107 = CARTESIAN_POINT ( 'NONE',  ( 30.00000000000000000, -30.00000000000000000, -24.99999999999999289 ) ) ;
#108 = ORIENTED_EDGE ( 'NONE', *, *, #389, .T. ) ;
#109 = UNCERTAINTY_MEASURE_WITH_UNIT (LENGTH_MEASURE( 1.000000000000000082E-05 ), #548, 'distance_accuracy_value', 'NONE');
#110 = LINE ( 'NONE', #227, #442 ) ;
#111 = EDGE_CURVE ( 'NONE', #170, #517, #93, .T. ) ;
#112 = ORIENTED_EDGE ( 'NONE', *, *, #610, .T. ) ;
#113 = DIRECTION ( 'NONE',  ( 1.156482317317871478E-16, 0.000000000000000000, 1.000000000000000000 ) ) ;
#114 = VERTEX_POINT ( 'NONE', #25 ) ;
#115 = AXIS2_PLACEMENT_3D ( 'NONE', #519, #169, #292 ) ;
#116 = LINE ( 'NONE', #338, #712 ) ;
#117 = CIRCLE ( 'NONE', #544, 15.00000000000000000 ) ;
#118 = PRODUCT ( 'GripperRing 1', 'GripperRing 1', '', ( #656 ) ) ;
#119 = DIRECTION ( 'NONE',  ( 0.000000000000000000, 0.000000000000000000, -1.000000000000000000 ) ) ;
#120 = EDGE_LOOP ( 'NONE', ( #595, #103, #73, #703, #267 ) ) ;
#121 = EDGE_CURVE ( 'NONE', #155, #380, #454, .T. ) ;
#122 = DIRECTION ( 'NONE',  ( -1.000000000000000000, 0.000000000000000000, -0.000000000000000000 ) ) ;
#123 = CARTESIAN_POINT ( 'NONE',  ( -55.00000000000000000, -30.00000000000000000, 0.000000000000000000 ) ) ;
#124 = CARTESIAN_POINT ( 'NONE',  ( -34.99999999999999289, 0.000000000000000000, 15.00000000000000000 ) ) ;
#125 = ADVANCED_FACE ( 'NONE', ( #437 ), #35, .F. ) ;
#126 = DIRECTION ( 'NONE',  ( 0.000000000000000000, -1.000000000000000000, -0.000000000000000000 ) ) ;
#127 = ORIENTED_EDGE ( 'NONE', *, *, #453, .F. ) ;
#128 = CARTESIAN_POINT ( 'NONE',  ( -55.00000000000000000, 0.000000000000000000, 0.000000000000000000 ) ) ;
#129 = VECTOR ( 'NONE', #740, 1000.000000000000000 ) ;
#130 = DIRECTION ( 'NONE',  ( 0.000000000000000000, -1.000000000000000000, 0.000000000000000000 ) ) ;
#131 = ADVANCED_FACE ( 'NONE', ( #152 ), #253, .F. ) ;
#132 = CARTESIAN_POINT ( 'NONE',  ( 55.00000000000000000, 1.836970198721029589E-15, -15.00000000000000000 ) ) ;
#133 = DIRECTION ( 'NONE',  ( 0.000000000000000000, 0.000000000000000000, 1.000000000000000000 ) ) ;
#134 = ORIENTED_EDGE ( 'NONE', *, *, #393, .F. ) ;
#135 = EDGE_CURVE ( 'NONE', #707, #212, #95, .T. ) ;
#136 = VERTEX_POINT ( 'NONE', #317 ) ;
#137 = CARTESIAN_POINT ( 'NONE',  ( 35.00000000000000000, 30.00000000000000000, 2.312964634635742267E-15 ) ) ;
#138 = ORIENTED_EDGE ( 'NONE', *, *, #744, .F. ) ;
#139 = ORIENTED_EDGE ( 'NONE', *, *, #64, .F. ) ;
#140 = CARTESIAN_POINT ( 'NONE',  ( 30.00000000000000000, 30.00000000000000000, -24.99999999999999289 ) ) ;
#141 = AXIS2_PLACEMENT_3D ( 'NONE', #701, #523, #122 ) ;
#142 = CIRCLE ( 'NONE', #503, 5.000000000000000888 ) ;
#143 = DIRECTION ( 'NONE',  ( 1.000000000000000000, 0.000000000000000000, 0.000000000000000000 ) ) ;
#144 = VECTOR ( 'NONE', #700, 1000.000000000000000 ) ;
#145 = VERTEX_POINT ( 'NONE', #669 ) ;
#146 = APPLICATION_PROTOCOL_DEFINITION ( 'draft international standard', 'automotive_design', 1998, #423 ) ;
#147 = CYLINDRICAL_SURFACE ( 'NONE', #617, 30.00000000000000000 ) ;
#148 = ORIENTED_EDGE ( 'NONE', *, *, #329, .F. ) ;
#149 = DIRECTION ( 'NONE',  ( 0.000000000000000000, 0.000000000000000000, 1.000000000000000000 ) ) ;
#150 = VERTEX_POINT ( 'NONE', #324 ) ;
#151 = AXIS2_PLACEMENT_3D ( 'NONE', #107, #311, #547 ) ;
#152 = FACE_OUTER_BOUND ( 'NONE', #360, .T. ) ;
#153 = DIRECTION ( 'NONE',  ( -1.000000000000000000, 0.000000000000000000, 1.156482317317871478E-16 ) ) ;
#154 = VECTOR ( 'NONE', #375, 1000.000000000000000 ) ;
#155 = VERTEX_POINT ( 'NONE', #384 ) ;
#156 = DIRECTION ( 'NONE',  ( -1.000000000000000000, -0.000000000000000000, -0.000000000000000000 ) ) ;
#157 = ORIENTED_EDGE ( 'NONE', *, *, #164, .T. ) ;
#158 = EDGE_CURVE ( 'NONE', #232, #190, #142, .T. ) ;
#159 = CYLINDRICAL_SURFACE ( 'NONE', #209, 30.00000000000000000 ) ;
#160 = VERTEX_POINT ( 'NONE', #731 ) ;
#161 = DIRECTION ( 'NONE',  ( 0.000000000000000000, 0.000000000000000000, 1.000000000000000000 ) ) ;
#162 = EDGE_LOOP ( 'NONE', ( #470, #112, #286, #471, #688, #566, #670, #724, #633, #108, #680, #21 ) ) ;
#163 = VECTOR ( 'NONE', #4, 1000.000000000000000 ) ;
#164 = EDGE_CURVE ( 'NONE', #638, #445, #6, .T. ) ;
#165 = DIRECTION ( 'NONE',  ( 1.000000000000000000, 0.000000000000000000, 0.000000000000000000 ) ) ;
#166 = VERTEX_POINT ( 'NONE', #206 ) ;
#167 = FACE_OUTER_BOUND ( 'NONE', #678, .T. ) ;
#168 = ORIENTED_EDGE ( 'NONE', *, *, #335, .F. ) ;
#169 = DIRECTION ( 'NONE',  ( 0.000000000000000000, 0.000000000000000000, 1.000000000000000000 ) ) ;
#170 = VERTEX_POINT ( 'NONE', #439 ) ;
#171 = ADVANCED_FACE ( 'NONE', ( #434 ), #618, .F. ) ;
#172 = AXIS2_PLACEMENT_3D ( 'NONE', #339, #52, #692 ) ;
#173 = VECTOR ( 'NONE', #717, 1000.000000000000000 ) ;
#174 = CARTESIAN_POINT ( 'NONE',  ( 55.00000000000000000, 0.000000000000000000, 30.00000000000000000 ) ) ;
#175 = DIRECTION ( 'NONE',  ( -1.000000000000000000, -0.000000000000000000, -0.000000000000000000 ) ) ;
#176 = EDGE_CURVE ( 'NONE', #691, #646, #265, .T. ) ;
#177 = DIRECTION ( 'NONE',  ( -1.000000000000000000, -0.000000000000000000, -0.000000000000000000 ) ) ;
#178 = DIRECTION ( 'NONE',  ( 0.000000000000000000, -1.000000000000000000, -0.000000000000000000 ) ) ;
#179 = CYLINDRICAL_SURFACE ( 'NONE', #723, 4.999999999999997335 ) ;
#180 = ORIENTED_EDGE ( 'NONE', *, *, #239, .T. ) ;
#181 = DIRECTION ( 'NONE',  ( 1.000000000000000000, 0.000000000000000000, 0.000000000000000000 ) ) ;
#182 = EDGE_CURVE ( 'NONE', #751, #535, #196, .T. ) ;
#183 = PLANE ( 'NONE',  #101 ) ;
#184 = ORIENTED_EDGE ( 'NONE', *, *, #568, .F. ) ;
#185 = CIRCLE ( 'NONE', #172, 15.00000000000000000 ) ;
#186 = DIRECTION ( 'NONE',  ( -1.000000000000000000, 0.000000000000000000, 1.156482317317871478E-16 ) ) ;
#187 = AXIS2_PLACEMENT_3D ( 'NONE', #667, #556, #143 ) ;
#188 = ADVANCED_FACE ( 'NONE', ( #608 ), #47, .T. ) ;
#189 = FILL_AREA_STYLE ('',( #316 ) ) ;
#190 = VERTEX_POINT ( 'NONE', #745 ) ;
#191 = DIRECTION ( 'NONE',  ( 0.000000000000000000, 0.000000000000000000, -1.000000000000000000 ) ) ;
#192 = DIRECTION ( 'NONE',  ( 1.000000000000000000, 0.000000000000000000, 0.000000000000000000 ) ) ;
#193 = ORIENTED_EDGE ( 'NONE', *, *, #288, .F. ) ;
#194 = EDGE_LOOP ( 'NONE', ( #668, #326, #309, #139 ) ) ;
#195 = CARTESIAN_POINT ( 'NONE',  ( 35.00000000000000000, -30.00000000000000000, -29.99999999999999645 ) ) ;
#196 = LINE ( 'NONE', #661, #154 ) ;
#197 = AXIS2_PLACEMENT_3D ( 'NONE', #452, #685, #749 ) ;
#198 = CARTESIAN_POINT ( 'NONE',  ( 0.000000000000000000, 0.000000000000000000, 0.000000000000000000 ) ) ;
#199 = DIRECTION ( 'NONE',  ( 0.000000000000000000, 0.000000000000000000, 1.000000000000000000 ) ) ;
#200 = CIRCLE ( 'NONE', #396, 30.00000000000000000 ) ;
#201 = ORIENTED_EDGE ( 'NONE', *, *, #715, .F. ) ;
#202 = EDGE_CURVE ( 'NONE', #150, #30, #116, .T. ) ;
#203 = DIRECTION ( 'NONE',  ( 0.000000000000000000, 0.000000000000000000, -1.000000000000000000 ) ) ;
#204 = EDGE_LOOP ( 'NONE', ( #447, #245 ) ) ;
#205 = EDGE_CURVE ( 'NONE', #380, #462, #570, .T. ) ;
#206 = CARTESIAN_POINT ( 'NONE',  ( 15.00000000000000000, 0.000000000000000000, -49.99999999999999289 ) ) ;
#207 = DIRECTION ( 'NONE',  ( 0.000000000000000000, 1.000000000000000000, 0.000000000000000000 ) ) ;
#208 = EDGE_LOOP ( 'NONE', ( #441, #694 ) ) ;
#209 = AXIS2_PLACEMENT_3D ( 'NONE', #332, #509, #85 ) ;
#210 = ADVANCED_FACE ( 'NONE', ( #401 ), #348, .T. ) ;
#211 = CARTESIAN_POINT ( 'NONE',  ( 55.00000000000000000, -30.00000000000000000, -49.99999999999999289 ) ) ;
#212 = VERTEX_POINT ( 'NONE', #449 ) ;
#213 = FACE_OUTER_BOUND ( 'NONE', #613, .T. ) ;
#214 = ORIENTED_EDGE ( 'NONE', *, *, #393, .T. ) ;
#215 = CARTESIAN_POINT ( 'NONE',  ( 55.00000000000000000, 0.000000000000000000, 0.000000000000000000 ) ) ;
#216 = CARTESIAN_POINT ( 'NONE',  ( 30.00000000000000000, -30.00000000000000000, -24.99999999999999289 ) ) ;
#217 = ORIENTED_EDGE ( 'NONE', *, *, #106, .F. ) ;
#218 = ADVANCED_FACE ( 'NONE', ( #573, #578 ), #275, .F. ) ;
#219 = FACE_OUTER_BOUND ( 'NONE', #386, .T. ) ;
#220 = DIRECTION ( 'NONE',  ( -1.000000000000000000, -0.000000000000000000, -0.000000000000000000 ) ) ;
#221 = ORIENTED_EDGE ( 'NONE', *, *, #436, .F. ) ;
#222 = CLOSED_SHELL ( 'NONE', ( #522, #312, #38, #100, #499, #540, #210, #458, #244, #422, #672, #318, #621, #218, #705, #125, #131, #50, #564, #596, #188, #171 ) ) ;
#223 = CARTESIAN_POINT ( 'NONE',  ( -55.00000000000000000, 30.00000000000000000, 0.000000000000000000 ) ) ;
#224 = DIRECTION ( 'NONE',  ( -0.000000000000000000, 1.000000000000000000, -0.000000000000000000 ) ) ;
#225 = EDGE_LOOP ( 'NONE', ( #184, #729, #91, #274 ) ) ;
#226 = CARTESIAN_POINT ( 'NONE',  ( -50.00000000000000711, 30.00000000000000000, -45.00000000000000000 ) ) ;
#227 = CARTESIAN_POINT ( 'NONE',  ( 55.00000000000000000, 30.00000000000000000, -45.00000000000000000 ) ) ;
#228 = ORIENTED_EDGE ( 'NONE', *, *, #182, .T. ) ;
#229 = CARTESIAN_POINT ( 'NONE',  ( 55.00000000000000000, 30.00000000000000000, 0.000000000000000000 ) ) ;
#230 = CARTESIAN_POINT ( 'NONE',  ( 50.00000000000000000, -30.00000000000000000, -45.00000000000000000 ) ) ;
#231 = EDGE_CURVE ( 'NONE', #232, #380, #283, .T. ) ;
#232 = VERTEX_POINT ( 'NONE', #583 ) ;
#233 = AXIS2_PLACEMENT_3D ( 'NONE', #248, #420, #133 ) ;
#234 = AXIS2_PLACEMENT_3D ( 'NONE', #66, #591, #538 ) ;
#235 = CARTESIAN_POINT ( 'NONE',  ( -15.00000000000000000, 1.836970198721029589E-15, -49.99999999999999289 ) ) ;
#236 = VECTOR ( 'NONE', #39, 1000.000000000000000 ) ;
#237 = FACE_OUTER_BOUND ( 'NONE', #263, .T. ) ;
#238 = EDGE_LOOP ( 'NONE', ( #3, #277 ) ) ;
#239 = EDGE_CURVE ( 'NONE', #59, #638, #83, .T. ) ;
#240 = LINE ( 'NONE', #428, #492 ) ;
#241 = FACE_OUTER_BOUND ( 'NONE', #417, .T. ) ;
#242 = EDGE_LOOP ( 'NONE', ( #259, #306, #582, #168 ) ) ;
#243 = CARTESIAN_POINT ( 'NONE',  ( -50.00000000000000711, 30.00000000000000000, -49.99999999999999289 ) ) ;
#244 = ADVANCED_FACE ( 'NONE', ( #392, #219 ), #514, .F. ) ;
#245 = ORIENTED_EDGE ( 'NONE', *, *, #568, .T. ) ;
#246 = CARTESIAN_POINT ( 'NONE',  ( 35.00000000000000000, 30.00000000000000000, -24.99999999999999289 ) ) ;
#247 = PRODUCT_DEFINITION_SHAPE ( 'NONE', 'NONE',  #693 ) ;
#248 = CARTESIAN_POINT ( 'NONE',  ( 55.00000000000000000, 0.000000000000000000, 0.000000000000000000 ) ) ;
#249 = CARTESIAN_POINT ( 'NONE',  ( 35.00000000000000000, -30.00000000000000000, 0.000000000000000000 ) ) ;
#250 = CARTESIAN_POINT ( 'NONE',  ( -55.00000000000000000, -30.00000000000000000, -49.99999999999999289 ) ) ;
#251 = CARTESIAN_POINT ( 'NONE',  ( 50.00000000000000000, 30.00000000000000000, -49.99999999999999289 ) ) ;
#252 = CARTESIAN_POINT ( 'NONE',  ( 55.00000000000000000, 1.836970198721029589E-15, -15.00000000000000000 ) ) ;
#253 = CYLINDRICAL_SURFACE ( 'NONE', #361, 15.00000000000000000 ) ;
#254 = EDGE_CURVE ( 'NONE', #751, #462, #287, .T. ) ;
#255 = ORIENTED_EDGE ( 'NONE', *, *, #135, .T. ) ;
#256 = AXIS2_PLACEMENT_3D ( 'NONE', #325, #746, #440 ) ;
#257 = AXIS2_PLACEMENT_3D ( 'NONE', #358, #175, #411 ) ;
#258 = FACE_OUTER_BOUND ( 'NONE', #94, .T. ) ;
#259 = ORIENTED_EDGE ( 'NONE', *, *, #260, .T. ) ;
#260 = EDGE_CURVE ( 'NONE', #212, #155, #20, .T. ) ;
#261 = DIRECTION ( 'NONE',  ( -1.000000000000000000, -0.000000000000000000, -0.000000000000000000 ) ) ;
#262 = LINE ( 'NONE', #732, #236 ) ;
#263 = EDGE_LOOP ( 'NONE', ( #221, #520, #404, #382 ) ) ;
#264 = EDGE_CURVE ( 'NONE', #59, #114, #1, .T. ) ;
#265 = LINE ( 'NONE', #252, #282 ) ;
#266 = CARTESIAN_POINT ( 'NONE',  ( 55.00000000000000000, 30.00000000000000000, -49.99999999999999289 ) ) ;
#267 = ORIENTED_EDGE ( 'NONE', *, *, #260, .F. ) ;
#268 = AXIS2_PLACEMENT_3D ( 'NONE', #230, #463, #352 ) ;
#269 = AXIS2_PLACEMENT_3D ( 'NONE', #76, #643, #607 ) ;
#270 = DIRECTION ( 'NONE',  ( 0.000000000000000000, 0.000000000000000000, 1.000000000000000000 ) ) ;
#271 = AXIS2_PLACEMENT_3D ( 'NONE', #677, #619, #557 ) ;
#272 = VERTEX_POINT ( 'NONE', #79 ) ;
#273 = PLANE ( 'NONE',  #104 ) ;
#274 = ORIENTED_EDGE ( 'NONE', *, *, #580, .F. ) ;
#275 = PLANE ( 'NONE',  #575 ) ;
#276 = DIRECTION ( 'NONE',  ( -1.000000000000000000, -0.000000000000000000, -0.000000000000000000 ) ) ;
#277 = ORIENTED_EDGE ( 'NONE', *, *, #584, .T. ) ;
#278 = CARTESIAN_POINT ( 'NONE',  ( 35.00000000000000000, -30.00000000000000000, -29.99999999999999645 ) ) ;
#279 = VECTOR ( 'NONE', #156, 1000.000000000000000 ) ;
#280 = FACE_BOUND ( 'NONE', #334, .T. ) ;
#281 = ORIENTED_EDGE ( 'NONE', *, *, #64, .T. ) ;
#282 = VECTOR ( 'NONE', #486, 1000.000000000000000 ) ;
#283 = LINE ( 'NONE', #409, #676 ) ;
#284 = EDGE_CURVE ( 'NONE', #296, #136, #117, .T. ) ;
#285 = CARTESIAN_POINT ( 'NONE',  ( 50.00000000000000000, 30.00000000000000000, -45.00000000000000000 ) ) ;
#286 = ORIENTED_EDGE ( 'NONE', *, *, #505, .T. ) ;
#287 = LINE ( 'NONE', #223, #346 ) ;
#288 = EDGE_CURVE ( 'NONE', #272, #674, #424, .T. ) ;
#289 = CARTESIAN_POINT ( 'NONE',  ( 35.00000000000000000, 1.836970198721029589E-15, -15.00000000000000000 ) ) ;
#290 = ORIENTED_EDGE ( 'NONE', *, *, #55, .F. ) ;
#291 = DIRECTION ( 'NONE',  ( 0.000000000000000000, 0.000000000000000000, -1.000000000000000000 ) ) ;
#292 = DIRECTION ( 'NONE',  ( 1.000000000000000000, 0.000000000000000000, 0.000000000000000000 ) ) ;
#293 = CARTESIAN_POINT ( 'NONE',  ( 55.00000000000000000, 30.00000000000000000, 0.000000000000000000 ) ) ;
#294 = EDGE_CURVE ( 'NONE', #136, #517, #364, .T. ) ;
#295 =( GEOMETRIC_REPRESENTATION_CONTEXT ( 3 ) GLOBAL_UNCERTAINTY_ASSIGNED_CONTEXT ( ( #109 ) ) GLOBAL_UNIT_ASSIGNED_CONTEXT ( ( #548, #598, #24 ) ) REPRESENTATION_CONTEXT ( 'NONE', 'WORKASPACE' ) );
#296 = VERTEX_POINT ( 'NONE', #124 ) ;
#297 = DIRECTION ( 'NONE',  ( 0.000000000000000000, 0.000000000000000000, 1.000000000000000000 ) ) ;
#298 = VECTOR ( 'NONE', #742, 1000.000000000000000 ) ;
#299 = DIRECTION ( 'NONE',  ( 0.000000000000000000, 0.000000000000000000, -1.000000000000000000 ) ) ;
#300 = CARTESIAN_POINT ( 'NONE',  ( -50.00000000000000711, -30.00000000000000000, -49.99999999999999289 ) ) ;
#301 = EDGE_CURVE ( 'NONE', #155, #683, #532, .T. ) ;
#302 = ORIENTED_EDGE ( 'NONE', *, *, #659, .T. ) ;
#303 = FACE_OUTER_BOUND ( 'NONE', #716, .T. ) ;
#304 = CYLINDRICAL_SURFACE ( 'NONE', #257, 15.00000000000000000 ) ;
#305 = FACE_OUTER_BOUND ( 'NONE', #650, .T. ) ;
#306 = ORIENTED_EDGE ( 'NONE', *, *, #301, .T. ) ;
#307 = EDGE_LOOP ( 'NONE', ( #53, #600, #577, #134, #217 ) ) ;
#308 = DIRECTION ( 'NONE',  ( 1.000000000000000000, 0.000000000000000000, 0.000000000000000000 ) ) ;
#309 = ORIENTED_EDGE ( 'NONE', *, *, #10, .F. ) ;
#310 = VERTEX_POINT ( 'NONE', #243 ) ;
#311 = DIRECTION ( 'NONE',  ( 0.000000000000000000, -1.000000000000000000, 0.000000000000000000 ) ) ;
#312 = ADVANCED_FACE ( 'NONE', ( #305 ), #372, .F. ) ;
#313 = CARTESIAN_POINT ( 'NONE',  ( -55.00000000000000000, 30.00000000000000000, -44.99999999999998579 ) ) ;
#314 = CARTESIAN_POINT ( 'NONE',  ( 55.00000000000000000, 0.000000000000000000, 0.000000000000000000 ) ) ;
#315 = ORIENTED_EDGE ( 'NONE', *, *, #432, .T. ) ;
#316 = FILL_AREA_STYLE_COLOUR ( '', #68 ) ;
#317 = CARTESIAN_POINT ( 'NONE',  ( -34.99999999999999289, 1.836970198721029589E-15, -15.00000000000000000 ) ) ;
#318 = ADVANCED_FACE ( 'NONE', ( #468, #303 ), #362, .F. ) ;
#319 = ORIENTED_EDGE ( 'NONE', *, *, #472, .F. ) ;
#320 = AXIS2_PLACEMENT_3D ( 'NONE', #285, #224, #12 ) ;
#321 = AXIS2_PLACEMENT_3D ( 'NONE', #29, #494, #203 ) ;
#322 = CARTESIAN_POINT ( 'NONE',  ( -34.99999999999999289, 0.000000000000000000, 0.000000000000000000 ) ) ;
#323 = ORIENTED_EDGE ( 'NONE', *, *, #377, .T. ) ;
#324 = CARTESIAN_POINT ( 'NONE',  ( 30.00000000000000000, -30.00000000000000000, -29.99999999999999645 ) ) ;
#325 = CARTESIAN_POINT ( 'NONE',  ( -30.00000000000000355, -30.00000000000000000, -24.99999999999999289 ) ) ;
#326 = ORIENTED_EDGE ( 'NONE', *, *, #182, .F. ) ;
#327 = CARTESIAN_POINT ( 'NONE',  ( -55.00000000000000000, -30.00000000000000000, -45.00000000000000000 ) ) ;
#328 = VERTEX_POINT ( 'NONE', #713 ) ;
#329 = EDGE_CURVE ( 'NONE', #683, #40, #71, .T. ) ;
#330 = AXIS2_PLACEMENT_3D ( 'NONE', #630, #637, #754 ) ;
#331 = CIRCLE ( 'NONE', #465, 30.00000000000000000 ) ;
#332 = CARTESIAN_POINT ( 'NONE',  ( 55.00000000000000000, 0.000000000000000000, 0.000000000000000000 ) ) ;
#333 = CIRCLE ( 'NONE', #563, 30.00000000000000000 ) ;
#334 = EDGE_LOOP ( 'NONE', ( #658, #34 ) ) ;
#335 = EDGE_CURVE ( 'NONE', #212, #40, #240, .T. ) ;
#336 = FACE_OUTER_BOUND ( 'NONE', #162, .T. ) ;
#337 = ORIENTED_EDGE ( 'NONE', *, *, #610, .F. ) ;
#338 = CARTESIAN_POINT ( 'NONE',  ( 30.00000000000000000, 30.00000000000000000, -29.99999999999999645 ) ) ;
#339 = CARTESIAN_POINT ( 'NONE',  ( 35.00000000000000000, 0.000000000000000000, 0.000000000000000000 ) ) ;
#340 = ORIENTED_EDGE ( 'NONE', *, *, #335, .T. ) ;
#341 = EDGE_CURVE ( 'NONE', #77, #524, #476, .T. ) ;
#342 = DIRECTION ( 'NONE',  ( 1.000000000000000000, 0.000000000000000000, -1.156482317317871478E-16 ) ) ;
#343 = AXIS2_PLACEMENT_3D ( 'NONE', #102, #98, #165 ) ;
#344 = FACE_OUTER_BOUND ( 'NONE', #120, .T. ) ;
#345 = ORIENTED_EDGE ( 'NONE', *, *, #432, .F. ) ;
#346 = VECTOR ( 'NONE', #457, 1000.000000000000000 ) ;
#347 = EDGE_CURVE ( 'NONE', #166, #369, #697, .T. ) ;
#348 = CYLINDRICAL_SURFACE ( 'NONE', #491, 30.00000000000000000 ) ;
#349 = CARTESIAN_POINT ( 'NONE',  ( 50.00000000000000000, -30.00000000000000000, -49.99999999999999289 ) ) ;
#350 = ORIENTED_EDGE ( 'NONE', *, *, #482, .F. ) ;
#351 = DIRECTION ( 'NONE',  ( 1.156482317317871478E-16, 0.000000000000000000, 1.000000000000000000 ) ) ;
#352 = DIRECTION ( 'NONE',  ( 0.000000000000000000, 0.000000000000000000, 1.000000000000000000 ) ) ;
#353 = LINE ( 'NONE', #542, #42 ) ;
#354 = VERTEX_POINT ( 'NONE', #246 ) ;
#355 = LINE ( 'NONE', #588, #7 ) ;
#356 = EDGE_CURVE ( 'NONE', #354, #114, #655, .T. ) ;
#357 = CARTESIAN_POINT ( 'NONE',  ( 0.000000000000000000, 0.000000000000000000, -29.99999999999999645 ) ) ;
#358 = CARTESIAN_POINT ( 'NONE',  ( 55.00000000000000000, 0.000000000000000000, 0.000000000000000000 ) ) ;
#359 = AXIS2_PLACEMENT_3D ( 'NONE', #750, #402, #119 ) ;
#360 = EDGE_LOOP ( 'NONE', ( #642, #513, #609, #546 ) ) ;
#361 = AXIS2_PLACEMENT_3D ( 'NONE', #612, #496, #149 ) ;
#362 = PLANE ( 'NONE',  #269 ) ;
#363 = ORIENTED_EDGE ( 'NONE', *, *, #80, .T. ) ;
#364 = LINE ( 'NONE', #132, #173 ) ;
#365 = DIRECTION ( 'NONE',  ( -0.000000000000000000, -0.000000000000000000, 1.000000000000000000 ) ) ;
#366 = DIRECTION ( 'NONE',  ( -0.000000000000000000, 1.000000000000000000, -0.000000000000000000 ) ) ;
#367 = DIRECTION ( 'NONE',  ( 1.156482317317871478E-16, 0.000000000000000000, 1.000000000000000000 ) ) ;
#368 = CARTESIAN_POINT ( 'NONE',  ( -55.00000000000000000, 0.000000000000000000, 0.000000000000000000 ) ) ;
#369 = VERTEX_POINT ( 'NONE', #235 ) ;
#370 = ORIENTED_EDGE ( 'NONE', *, *, #398, .F. ) ;
#371 = APPLICATION_CONTEXT ( 'automotive_design' ) ;
#372 = CYLINDRICAL_SURFACE ( 'NONE', #696, 15.00000000000000000 ) ;
#373 = EDGE_CURVE ( 'NONE', #462, #683, #200, .T. ) ;
#374 = VECTOR ( 'NONE', #385, 1000.000000000000000 ) ;
#375 = DIRECTION ( 'NONE',  ( -0.000000000000000000, -1.000000000000000000, -0.000000000000000000 ) ) ;
#376 = VERTEX_POINT ( 'NONE', #22 ) ;
#377 = EDGE_CURVE ( 'NONE', #40, #535, #708, .T. ) ;
#378 = DIRECTION ( 'NONE',  ( 0.000000000000000000, 0.000000000000000000, 1.000000000000000000 ) ) ;
#379 = DIRECTION ( 'NONE',  ( 0.000000000000000000, 0.000000000000000000, -1.000000000000000000 ) ) ;
#380 = VERTEX_POINT ( 'NONE', #660 ) ;
#381 = CARTESIAN_POINT ( 'NONE',  ( -55.00000000000000000, 0.000000000000000000, 0.000000000000000000 ) ) ;
#382 = ORIENTED_EDGE ( 'NONE', *, *, #726, .T. ) ;
#383 = CIRCLE ( 'NONE', #430, 15.00000000000000000 ) ;
#384 = CARTESIAN_POINT ( 'NONE',  ( -34.99999999999999289, 0.000000000000000000, 30.00000000000000000 ) ) ;
#385 = DIRECTION ( 'NONE',  ( -1.000000000000000000, -0.000000000000000000, -0.000000000000000000 ) ) ;
#386 = EDGE_LOOP ( 'NONE', ( #555, #84, #415, #281 ) ) ;
#387 = FACE_OUTER_BOUND ( 'NONE', #225, .T. ) ;
#388 = EDGE_LOOP ( 'NONE', ( #498, #302 ) ) ;
#389 = EDGE_CURVE ( 'NONE', #30, #354, #606, .T. ) ;
#390 = PLANE ( 'NONE',  #271 ) ;
#391 = ORIENTED_EDGE ( 'NONE', *, *, #634, .F. ) ;
#392 = FACE_BOUND ( 'NONE', #204, .T. ) ;
#393 = EDGE_CURVE ( 'NONE', #376, #77, #333, .T. ) ;
#394 = VECTOR ( 'NONE', #426, 1000.000000000000000 ) ;
#395 = FACE_OUTER_BOUND ( 'NONE', #510, .T. ) ;
#396 = AXIS2_PLACEMENT_3D ( 'NONE', #128, #181, #416 ) ;
#397 = ORIENTED_EDGE ( 'NONE', *, *, #254, .F. ) ;
#398 = EDGE_CURVE ( 'NONE', #707, #232, #525, .T. ) ;
#399 = CARTESIAN_POINT ( 'NONE',  ( 35.00000000000000000, -30.00000000000000000, -24.99999999999999289 ) ) ;
#400 = ORIENTED_EDGE ( 'NONE', *, *, #377, .F. ) ;
#401 = FACE_OUTER_BOUND ( 'NONE', #427, .T. ) ;
#402 = DIRECTION ( 'NONE',  ( 1.000000000000000000, 0.000000000000000000, 0.000000000000000000 ) ) ;
#403 = EDGE_CURVE ( 'NONE', #445, #160, #355, .T. ) ;
#404 = ORIENTED_EDGE ( 'NONE', *, *, #31, .T. ) ;
#405 = STYLED_ITEM ( 'NONE', ( #666 ), #741 ) ;
#406 = PLANE ( 'NONE',  #359 ) ;
#407 = ORIENTED_EDGE ( 'NONE', *, *, #448, .T. ) ;
#408 = AXIS2_PLACEMENT_3D ( 'NONE', #728, #261, #86 ) ;
#409 = CARTESIAN_POINT ( 'NONE',  ( -35.00000000000000000, 30.00000000000000000, -29.99999999999999645 ) ) ;
#410 = CARTESIAN_POINT ( 'NONE',  ( 55.00000000000000000, 1.836970198721029589E-15, -15.00000000000000000 ) ) ;
#411 = DIRECTION ( 'NONE',  ( 0.000000000000000000, 0.000000000000000000, 1.000000000000000000 ) ) ;
#412 = CARTESIAN_POINT ( 'NONE',  ( -34.99999999999999289, 0.000000000000000000, 0.000000000000000000 ) ) ;
#413 = CARTESIAN_POINT ( 'NONE',  ( -35.00000000000000000, -30.00000000000000000, -29.99999999999999645 ) ) ;
#414 = CARTESIAN_POINT ( 'NONE',  ( 50.00000000000000000, 0.000000000000000000, -45.00000000000000000 ) ) ;
#415 = ORIENTED_EDGE ( 'NONE', *, *, #490, .T. ) ;
#416 = DIRECTION ( 'NONE',  ( 0.000000000000000000, 0.000000000000000000, -1.000000000000000000 ) ) ;
#417 = EDGE_LOOP ( 'NONE', ( #350, #495, #62, #370 ) ) ;
#418 = CIRCLE ( 'NONE', #57, 4.999999999999997335 ) ;
#419 = DIRECTION ( 'NONE',  ( -1.000000000000000000, -0.000000000000000000, -0.000000000000000000 ) ) ;
#420 = DIRECTION ( 'NONE',  ( -1.000000000000000000, 0.000000000000000000, 0.000000000000000000 ) ) ;
#421 = ORIENTED_EDGE ( 'NONE', *, *, #288, .T. ) ;
#422 = ADVANCED_FACE ( 'NONE', ( #336 ), #390, .F. ) ;
#423 = APPLICATION_CONTEXT ( 'automotive_design' ) ;
#424 = LINE ( 'NONE', #481, #504 ) ;
#425 = SURFACE_STYLE_FILL_AREA ( #189 ) ;
#426 = DIRECTION ( 'NONE',  ( -0.000000000000000000, -0.000000000000000000, 1.000000000000000000 ) ) ;
#427 = EDGE_LOOP ( 'NONE', ( #127, #15, #67, #625 ) ) ;
#428 = CARTESIAN_POINT ( 'NONE',  ( 55.00000000000000000, -30.00000000000000000, 0.000000000000000000 ) ) ;
#429 = CARTESIAN_POINT ( 'NONE',  ( 35.00000000000000000, 0.000000000000000000, 0.000000000000000000 ) ) ;
#430 = AXIS2_PLACEMENT_3D ( 'NONE', #459, #641, #571 ) ;
#431 = AXIS2_PLACEMENT_3D ( 'NONE', #518, #752, #521 ) ;
#432 = EDGE_CURVE ( 'NONE', #445, #77, #565, .T. ) ;
#433 = AXIS2_PLACEMENT_3D ( 'NONE', #216, #673, #270 ) ;
#434 = FACE_OUTER_BOUND ( 'NONE', #19, .T. ) ;
#435 = ORIENTED_EDGE ( 'NONE', *, *, #389, .F. ) ;
#436 = EDGE_CURVE ( 'NONE', #150, #605, #33, .T. ) ;
#437 = FACE_OUTER_BOUND ( 'NONE', #501, .T. ) ;
#438 = VERTEX_POINT ( 'NONE', #512 ) ;
#439 = CARTESIAN_POINT ( 'NONE',  ( -55.00000000000000000, 0.000000000000000000, 15.00000000000000000 ) ) ;
#440 = DIRECTION ( 'NONE',  ( 0.000000000000000000, 0.000000000000000000, 1.000000000000000000 ) ) ;
#441 = ORIENTED_EDGE ( 'NONE', *, *, #111, .T. ) ;
#442 = VECTOR ( 'NONE', #461, 1000.000000000000000 ) ;
#443 = VECTOR ( 'NONE', #69, 1000.000000000000000 ) ;
#444 = LINE ( 'NONE', #266, #279 ) ;
#445 = VERTEX_POINT ( 'NONE', #737 ) ;
#446 = CARTESIAN_POINT ( 'NONE',  ( 55.00000000000000000, -30.00000000000000000, -49.99999999999999289 ) ) ;
#447 = ORIENTED_EDGE ( 'NONE', *, *, #347, .T. ) ;
#448 = EDGE_CURVE ( 'NONE', #524, #150, #466, .T. ) ;
#449 = CARTESIAN_POINT ( 'NONE',  ( -35.00000000000000000, -30.00000000000000000, 0.000000000000000000 ) ) ;
#450 = CARTESIAN_POINT ( 'NONE',  ( 55.00000000000000000, 0.000000000000000000, 0.000000000000000000 ) ) ;
#451 = ORIENTED_EDGE ( 'NONE', *, *, #176, .F. ) ;
#452 = CARTESIAN_POINT ( 'NONE',  ( 55.00000000000000000, 30.00000000000000000, -49.99999999999999289 ) ) ;
#453 = EDGE_CURVE ( 'NONE', #638, #376, #262, .T. ) ;
#454 = CIRCLE ( 'NONE', #651, 30.00000000000000000 ) ;
#455 = DIRECTION ( 'NONE',  ( 0.000000000000000000, -0.000000000000000000, 1.000000000000000000 ) ) ;
#456 = EDGE_LOOP ( 'NONE', ( #488, #657, #602, #315, #735, #407, #531, #99, #255, #340, #323, #755 ) ) ;
#457 = DIRECTION ( 'NONE',  ( -0.000000000000000000, -0.000000000000000000, 1.000000000000000000 ) ) ;
#458 = ADVANCED_FACE ( 'NONE', ( #500 ), #273, .F. ) ;
#459 = CARTESIAN_POINT ( 'NONE',  ( 55.00000000000000000, 0.000000000000000000, 0.000000000000000000 ) ) ;
#460 = ORIENTED_EDGE ( 'NONE', *, *, #284, .T. ) ;
#461 = DIRECTION ( 'NONE',  ( 0.000000000000000000, 1.000000000000000000, -0.000000000000000000 ) ) ;
#462 = VERTEX_POINT ( 'NONE', #567 ) ;
#463 = DIRECTION ( 'NONE',  ( -0.000000000000000000, -1.000000000000000000, -0.000000000000000000 ) ) ;
#464 = FACE_OUTER_BOUND ( 'NONE', #560, .T. ) ;
#465 = AXIS2_PLACEMENT_3D ( 'NONE', #429, #671, #379 ) ;
#466 = CIRCLE ( 'NONE', #433, 5.000000000000000888 ) ;
#467 = EDGE_CURVE ( 'NONE', #296, #170, #48, .T. ) ;
#468 = FACE_BOUND ( 'NONE', #208, .T. ) ;
#469 = PLANE ( 'NONE',  #141 ) ;
#470 = ORIENTED_EDGE ( 'NONE', *, *, #80, .F. ) ;
#471 = ORIENTED_EDGE ( 'NONE', *, *, #10, .T. ) ;
#472 = EDGE_CURVE ( 'NONE', #136, #296, #626, .T. ) ;
#473 = CARTESIAN_POINT ( 'NONE',  ( 0.000000000000000000, 0.000000000000000000, -49.99999999999999289 ) ) ;
#474 = DIRECTION ( 'NONE',  ( -1.000000000000000000, 0.000000000000000000, 0.000000000000000000 ) ) ;
#475 = ORIENTED_EDGE ( 'NONE', *, *, #44, .F. ) ;
#476 = LINE ( 'NONE', #195, #163 ) ;
#477 = CARTESIAN_POINT ( 'NONE',  ( -35.00000000000000000, 30.00000000000000000, -29.99999999999999645 ) ) ;
#478 = PRODUCT_DEFINITION_FORMATION_WITH_SPECIFIED_SOURCE ( 'ANY', '', #118, .NOT_KNOWN. ) ;
#479 = ORIENTED_EDGE ( 'NONE', *, *, #649, .F. ) ;
#480 = CIRCLE ( 'NONE', #234, 15.00000000000000000 ) ;
#481 = CARTESIAN_POINT ( 'NONE',  ( 55.00000000000000000, 0.000000000000000000, 15.00000000000000000 ) ) ;
#482 = EDGE_CURVE ( 'NONE', #605, #707, #54, .T. ) ;
#483 = APPLICATION_PROTOCOL_DEFINITION ( 'draft international standard', 'automotive_design', 1998, #371 ) ;
#484 = LINE ( 'NONE', #645, #394 ) ;
#485 = DIRECTION ( 'NONE',  ( 0.000000000000000000, 0.000000000000000000, 1.000000000000000000 ) ) ;
#486 = DIRECTION ( 'NONE',  ( -1.000000000000000000, -0.000000000000000000, -0.000000000000000000 ) ) ;
#487 = CARTESIAN_POINT ( 'NONE',  ( -35.00000000000000000, -30.00000000000000000, -29.99999999999999645 ) ) ;
#488 = ORIENTED_EDGE ( 'NONE', *, *, #490, .F. ) ;
#489 = AXIS2_PLACEMENT_3D ( 'NONE', #198, #378, #192 ) ;
#490 = EDGE_CURVE ( 'NONE', #699, #46, #559, .T. ) ;
#491 = AXIS2_PLACEMENT_3D ( 'NONE', #215, #56, #51 ) ;
#492 = VECTOR ( 'NONE', #539, 1000.000000000000000 ) ;
#493 =( NAMED_UNIT ( * ) SI_UNIT ( $, .STERADIAN. ) SOLID_ANGLE_UNIT ( ) );
#494 = DIRECTION ( 'NONE',  ( 1.000000000000000000, 0.000000000000000000, 0.000000000000000000 ) ) ;
#495 = ORIENTED_EDGE ( 'NONE', *, *, #726, .F. ) ;
#496 = DIRECTION ( 'NONE',  ( -1.000000000000000000, -0.000000000000000000, -0.000000000000000000 ) ) ;
#497 = CARTESIAN_POINT ( 'NONE',  ( 55.00000000000000000, -30.00000000000000000, 0.000000000000000000 ) ) ;
#498 = ORIENTED_EDGE ( 'NONE', *, *, #44, .T. ) ;
#499 = ADVANCED_FACE ( 'NONE', ( #36 ), #734, .T. ) ;
#500 = FACE_OUTER_BOUND ( 'NONE', #456, .T. ) ;
#501 = EDGE_LOOP ( 'NONE', ( #451, #479, #421, #16 ) ) ;
#502 = MECHANICAL_DESIGN_GEOMETRIC_PRESENTATION_REPRESENTATION (  '', ( #405 ), #28 ) ;
#503 = AXIS2_PLACEMENT_3D ( 'NONE', #614, #719, #722 ) ;
#504 = VECTOR ( 'NONE', #11, 1000.000000000000000 ) ;
#505 = EDGE_CURVE ( 'NONE', #743, #310, #444, .T. ) ;
#506 = CARTESIAN_POINT ( 'NONE',  ( 55.00000000000000000, 0.000000000000000000, 15.00000000000000000 ) ) ;
#507 = ORIENTED_EDGE ( 'NONE', *, *, #448, .F. ) ;
#508 = DIRECTION ( 'NONE',  ( 0.000000000000000000, 0.000000000000000000, 1.000000000000000000 ) ) ;
#509 = DIRECTION ( 'NONE',  ( -1.000000000000000000, -0.000000000000000000, -0.000000000000000000 ) ) ;
#510 = EDGE_LOOP ( 'NONE', ( #507, #664, #435, #654 ) ) ;
#511 = DIRECTION ( 'NONE',  ( 0.000000000000000000, 1.000000000000000000, -0.000000000000000000 ) ) ;
#512 = CARTESIAN_POINT ( 'NONE',  ( -15.00000000000000000, 1.836970198721029589E-15, -29.99999999999999645 ) ) ;
#513 = ORIENTED_EDGE ( 'NONE', *, *, #284, .F. ) ;
#514 = PLANE ( 'NONE',  #197 ) ;
#515 = VECTOR ( 'NONE', #72, 1000.000000000000000 ) ;
#516 = DIRECTION ( 'NONE',  ( 0.000000000000000000, 0.000000000000000000, -1.000000000000000000 ) ) ;
#517 = VERTEX_POINT ( 'NONE', #687 ) ;
#518 = CARTESIAN_POINT ( 'NONE',  ( -34.99999999999999289, 0.000000000000000000, 0.000000000000000000 ) ) ;
#519 = CARTESIAN_POINT ( 'NONE',  ( 0.000000000000000000, 0.000000000000000000, -49.99999999999999289 ) ) ;
#520 = ORIENTED_EDGE ( 'NONE', *, *, #202, .T. ) ;
#521 = DIRECTION ( 'NONE',  ( 2.312964634635742957E-16, 0.000000000000000000, 1.000000000000000000 ) ) ;
#522 = ADVANCED_FACE ( 'NONE', ( #387 ), #622, .F. ) ;
#523 = DIRECTION ( 'NONE',  ( 0.000000000000000000, 0.000000000000000000, -1.000000000000000000 ) ) ;
#524 = VERTEX_POINT ( 'NONE', #399 ) ;
#525 = LINE ( 'NONE', #652, #144 ) ;
#526 = CIRCLE ( 'NONE', #695, 15.00000000000000000 ) ;
#527 = CARTESIAN_POINT ( 'NONE',  ( 35.00000000000000000, -30.00000000000000000, -24.99999999999999289 ) ) ;
#528 = CARTESIAN_POINT ( 'NONE',  ( -50.00000000000000711, 30.00000000000000000, -45.00000000000000000 ) ) ;
#529 = AXIS2_PLACEMENT_3D ( 'NONE', #23, #60, #681 ) ;
#530 = AXIS2_PLACEMENT_3D ( 'NONE', #17, #308, #191 ) ;
#531 = ORIENTED_EDGE ( 'NONE', *, *, #436, .T. ) ;
#532 = LINE ( 'NONE', #536, #604 ) ;
#533 = CARTESIAN_POINT ( 'NONE',  ( 15.00000000000000000, 0.000000000000000000, -49.99999999999999289 ) ) ;
#534 = LINE ( 'NONE', #13, #636 ) ;
#535 = VERTEX_POINT ( 'NONE', #327 ) ;
#536 = CARTESIAN_POINT ( 'NONE',  ( 55.00000000000000000, 0.000000000000000000, 30.00000000000000000 ) ) ;
#537 =( NAMED_UNIT ( * ) PLANE_ANGLE_UNIT ( ) SI_UNIT ( $, .RADIAN. ) );
#538 = DIRECTION ( 'NONE',  ( 0.000000000000000000, 0.000000000000000000, -1.000000000000000000 ) ) ;
#539 = DIRECTION ( 'NONE',  ( -1.000000000000000000, -0.000000000000000000, -0.000000000000000000 ) ) ;
#540 = ADVANCED_FACE ( 'NONE', ( #213 ), #159, .T. ) ;
#541 = DIRECTION ( 'NONE',  ( 0.000000000000000000, 0.000000000000000000, -1.000000000000000000 ) ) ;
#542 = CARTESIAN_POINT ( 'NONE',  ( 50.00000000000000000, -30.00000000000000000, -49.99999999999999289 ) ) ;
#543 = CIRCLE ( 'NONE', #561, 4.999999999999997335 ) ;
#544 = AXIS2_PLACEMENT_3D ( 'NONE', #412, #186, #545 ) ;
#545 = DIRECTION ( 'NONE',  ( 0.000000000000000000, 0.000000000000000000, 1.000000000000000000 ) ) ;
#546 = ORIENTED_EDGE ( 'NONE', *, *, #730, .F. ) ;
#547 = DIRECTION ( 'NONE',  ( 0.000000000000000000, 0.000000000000000000, -1.000000000000000000 ) ) ;
#548 =( LENGTH_UNIT ( ) NAMED_UNIT ( * ) SI_UNIT ( .MILLI., .METRE. ) );
#549 = DIRECTION ( 'NONE',  ( 0.000000000000000000, 0.000000000000000000, -1.000000000000000000 ) ) ;
#550 = ORIENTED_EDGE ( 'NONE', *, *, #294, .T. ) ;
#551 = PRODUCT_DEFINITION_CONTEXT ( 'detailed design', #423, 'design' ) ;
#552 = DIRECTION ( 'NONE',  ( 2.312964634635742957E-16, 0.000000000000000000, 1.000000000000000000 ) ) ;
#553 = ORIENTED_EDGE ( 'NONE', *, *, #373, .T. ) ;
#554 = DIRECTION ( 'NONE',  ( 1.156482317317871478E-16, 0.000000000000000000, 1.000000000000000000 ) ) ;
#555 = ORIENTED_EDGE ( 'NONE', *, *, #505, .F. ) ;
#556 = DIRECTION ( 'NONE',  ( -0.000000000000000000, -0.000000000000000000, 1.000000000000000000 ) ) ;
#557 = DIRECTION ( 'NONE',  ( 0.000000000000000000, -0.000000000000000000, -1.000000000000000000 ) ) ;
#558 = EDGE_LOOP ( 'NONE', ( #201, #290, #337, #391 ) ) ;
#559 = LINE ( 'NONE', #211, #736 ) ;
#560 = EDGE_LOOP ( 'NONE', ( #138, #49, #475, #193 ) ) ;
#561 = AXIS2_PLACEMENT_3D ( 'NONE', #710, #27, #611 ) ;
#562 = AXIS2_PLACEMENT_3D ( 'NONE', #226, #511, #508 ) ;
#563 = AXIS2_PLACEMENT_3D ( 'NONE', #593, #74, #14 ) ;
#564 = ADVANCED_FACE ( 'NONE', ( #395 ), #628, .F. ) ;
#565 = LINE ( 'NONE', #497, #298 ) ;
#566 = ORIENTED_EDGE ( 'NONE', *, *, #205, .F. ) ;
#567 = CARTESIAN_POINT ( 'NONE',  ( -55.00000000000000000, 30.00000000000000000, 0.000000000000000000 ) ) ;
#568 = EDGE_CURVE ( 'NONE', #369, #166, #709, .T. ) ;
#569 = ORIENTED_EDGE ( 'NONE', *, *, #164, .F. ) ;
#570 = LINE ( 'NONE', #105, #129 ) ;
#571 = DIRECTION ( 'NONE',  ( 0.000000000000000000, 0.000000000000000000, 1.000000000000000000 ) ) ;
#572 = ORIENTED_EDGE ( 'NONE', *, *, #634, .T. ) ;
#573 = FACE_BOUND ( 'NONE', #388, .T. ) ;
#574 = AXIS2_PLACEMENT_3D ( 'NONE', #357, #299, #474 ) ;
#575 = AXIS2_PLACEMENT_3D ( 'NONE', #278, #342, #640 ) ;
#576 = CARTESIAN_POINT ( 'NONE',  ( -55.00000000000000000, 0.000000000000000000, 30.00000000000000000 ) ) ;
#577 = ORIENTED_EDGE ( 'NONE', *, *, #341, .F. ) ;
#578 = FACE_OUTER_BOUND ( 'NONE', #307, .T. ) ;
#579 = ADVANCED_BREP_SHAPE_REPRESENTATION ( 'GripperRing 1', ( #741, #489 ), #295 ) ;
#580 = EDGE_CURVE ( 'NONE', #166, #145, #8, .T. ) ;
#581 = CARTESIAN_POINT ( 'NONE',  ( -30.00000000000000355, -30.00000000000000000, -29.99999999999999645 ) ) ;
#582 = ORIENTED_EDGE ( 'NONE', *, *, #329, .T. ) ;
#583 = CARTESIAN_POINT ( 'NONE',  ( -35.00000000000000000, 30.00000000000000000, -24.99999999999999289 ) ) ;
#584 = EDGE_CURVE ( 'NONE', #438, #145, #662, .T. ) ;
#585 = LINE ( 'NONE', #527, #616 ) ;
#586 = DIRECTION ( 'NONE',  ( -0.000000000000000000, -1.000000000000000000, 0.000000000000000000 ) ) ;
#587 = ORIENTED_EDGE ( 'NONE', *, *, #467, .F. ) ;
#588 = CARTESIAN_POINT ( 'NONE',  ( 55.00000000000000000, -30.00000000000000000, -49.99999999999999289 ) ) ;
#589 = CIRCLE ( 'NONE', #330, 15.00000000000000000 ) ;
#590 = DIRECTION ( 'NONE',  ( -1.000000000000000000, 0.000000000000000000, 1.156482317317871478E-16 ) ) ;
#591 = DIRECTION ( 'NONE',  ( 1.000000000000000000, 0.000000000000000000, -1.156482317317871478E-16 ) ) ;
#592 = AXIS2_PLACEMENT_3D ( 'NONE', #473, #485, #704 ) ;
#593 = CARTESIAN_POINT ( 'NONE',  ( 35.00000000000000000, 0.000000000000000000, 0.000000000000000000 ) ) ;
#594 = SURFACE_STYLE_USAGE ( .BOTH. , #88 ) ;
#595 = ORIENTED_EDGE ( 'NONE', *, *, #135, .F. ) ;
#596 = ADVANCED_FACE ( 'NONE', ( #241 ), #632, .F. ) ;
#597 = CARTESIAN_POINT ( 'NONE',  ( 55.00000000000000000, 0.000000000000000000, 0.000000000000000000 ) ) ;
#598 =( NAMED_UNIT ( * ) PLANE_ANGLE_UNIT ( ) SI_UNIT ( $, .RADIAN. ) );
#599 = DIRECTION ( 'NONE',  ( -1.000000000000000000, -0.000000000000000000, -0.000000000000000000 ) ) ;
#600 = ORIENTED_EDGE ( 'NONE', *, *, #720, .T. ) ;
#601 = DIRECTION ( 'NONE',  ( 0.000000000000000000, -1.000000000000000000, 0.000000000000000000 ) ) ;
#602 = ORIENTED_EDGE ( 'NONE', *, *, #403, .F. ) ;
#603 = AXIS2_PLACEMENT_3D ( 'NONE', #624, #153, #45 ) ;
#604 = VECTOR ( 'NONE', #419, 1000.000000000000000 ) ;
#605 = VERTEX_POINT ( 'NONE', #581 ) ;
#606 = CIRCLE ( 'NONE', #627, 5.000000000000000888 ) ;
#607 = DIRECTION ( 'NONE',  ( 0.000000000000000000, 0.000000000000000000, -1.000000000000000000 ) ) ;
#608 = FACE_OUTER_BOUND ( 'NONE', #194, .T. ) ;
#609 = ORIENTED_EDGE ( 'NONE', *, *, #467, .T. ) ;
#610 = EDGE_CURVE ( 'NONE', #328, #743, #648, .T. ) ;
#611 = DIRECTION ( 'NONE',  ( 0.000000000000000000, 0.000000000000000000, 1.000000000000000000 ) ) ;
#612 = CARTESIAN_POINT ( 'NONE',  ( 55.00000000000000000, 0.000000000000000000, 0.000000000000000000 ) ) ;
#613 = EDGE_LOOP ( 'NONE', ( #733, #37, #631, #553 ) ) ;
#614 = CARTESIAN_POINT ( 'NONE',  ( -30.00000000000000355, 30.00000000000000000, -24.99999999999999289 ) ) ;
#615 = ORIENTED_EDGE ( 'NONE', *, *, #347, .F. ) ;
#616 = VECTOR ( 'NONE', #178, 1000.000000000000000 ) ;
#617 = AXIS2_PLACEMENT_3D ( 'NONE', #314, #92, #199 ) ;
#618 = CYLINDRICAL_SURFACE ( 'NONE', #187, 15.00000000000000000 ) ;
#619 = DIRECTION ( 'NONE',  ( 0.000000000000000000, -1.000000000000000000, 0.000000000000000000 ) ) ;
#620 = ORIENTED_EDGE ( 'NONE', *, *, #453, .T. ) ;
#621 = ADVANCED_FACE ( 'NONE', ( #61, #344 ), #183, .F. ) ;
#622 = CYLINDRICAL_SURFACE ( 'NONE', #343, 15.00000000000000000 ) ;
#623 = EDGE_LOOP ( 'NONE', ( #460, #78 ) ) ;
#624 = CARTESIAN_POINT ( 'NONE',  ( -34.99999999999999289, 0.000000000000000000, 0.000000000000000000 ) ) ;
#625 = ORIENTED_EDGE ( 'NONE', *, *, #106, .T. ) ;
#626 = CIRCLE ( 'NONE', #603, 15.00000000000000000 ) ;
#627 = AXIS2_PLACEMENT_3D ( 'NONE', #140, #601, #291 ) ;
#628 = CYLINDRICAL_SURFACE ( 'NONE', #151, 5.000000000000000888 ) ;
#629 = ORIENTED_EDGE ( 'NONE', *, *, #580, .T. ) ;
#630 = CARTESIAN_POINT ( 'NONE',  ( 0.000000000000000000, 0.000000000000000000, -29.99999999999999645 ) ) ;
#631 = ORIENTED_EDGE ( 'NONE', *, *, #205, .T. ) ;
#632 = CYLINDRICAL_SURFACE ( 'NONE', #684, 5.000000000000000888 ) ;
#633 = ORIENTED_EDGE ( 'NONE', *, *, #31, .F. ) ;
#634 = EDGE_CURVE ( 'NONE', #160, #328, #110, .T. ) ;
#635 = VECTOR ( 'NONE', #126, 1000.000000000000000 ) ;
#636 = VECTOR ( 'NONE', #9, 1000.000000000000000 ) ;
#637 = DIRECTION ( 'NONE',  ( 0.000000000000000000, 0.000000000000000000, -1.000000000000000000 ) ) ;
#638 = VERTEX_POINT ( 'NONE', #174 ) ;
#639 = EDGE_CURVE ( 'NONE', #145, #438, #589, .T. ) ;
#640 = DIRECTION ( 'NONE',  ( -1.156482317317871478E-16, 0.000000000000000000, -1.000000000000000000 ) ) ;
#641 = DIRECTION ( 'NONE',  ( -1.000000000000000000, 0.000000000000000000, 0.000000000000000000 ) ) ;
#642 = ORIENTED_EDGE ( 'NONE', *, *, #294, .F. ) ;
#643 = DIRECTION ( 'NONE',  ( 1.000000000000000000, 0.000000000000000000, 0.000000000000000000 ) ) ;
#644 = CARTESIAN_POINT ( 'NONE',  ( -30.00000000000000355, -30.00000000000000000, -29.99999999999999645 ) ) ;
#645 = CARTESIAN_POINT ( 'NONE',  ( 55.00000000000000000, 30.00000000000000000, 0.000000000000000000 ) ) ;
#646 = VERTEX_POINT ( 'NONE', #289 ) ;
#647 = DIRECTION ( 'NONE',  ( -0.000000000000000000, -0.000000000000000000, -1.000000000000000000 ) ) ;
#648 = CIRCLE ( 'NONE', #320, 4.999999999999997335 ) ;
#649 = EDGE_CURVE ( 'NONE', #272, #691, #383, .T. ) ;
#650 = EDGE_LOOP ( 'NONE', ( #319, #550, #747, #587 ) ) ;
#651 = AXIS2_PLACEMENT_3D ( 'NONE', #322, #89, #552 ) ;
#652 = CARTESIAN_POINT ( 'NONE',  ( -35.00000000000000000, 30.00000000000000000, -24.99999999999999289 ) ) ;
#653 = CARTESIAN_POINT ( 'NONE',  ( -15.00000000000000000, 1.836970198721029589E-15, -49.99999999999999289 ) ) ;
#654 = ORIENTED_EDGE ( 'NONE', *, *, #202, .F. ) ;
#655 = LINE ( 'NONE', #137, #665 ) ;
#656 = PRODUCT_CONTEXT ( 'NONE', #371, 'mechanical' ) ;
#657 = ORIENTED_EDGE ( 'NONE', *, *, #715, .T. ) ;
#658 = ORIENTED_EDGE ( 'NONE', *, *, #649, .T. ) ;
#659 = EDGE_CURVE ( 'NONE', #646, #674, #185, .T. ) ;
#660 = CARTESIAN_POINT ( 'NONE',  ( -35.00000000000000000, 30.00000000000000000, 0.000000000000000000 ) ) ;
#661 = CARTESIAN_POINT ( 'NONE',  ( -55.00000000000000000, 0.000000000000000000, -45.00000000000000000 ) ) ;
#662 = CIRCLE ( 'NONE', #574, 15.00000000000000000 ) ;
#663 = VECTOR ( 'NONE', #599, 1000.000000000000000 ) ;
#664 = ORIENTED_EDGE ( 'NONE', *, *, #720, .F. ) ;
#665 = VECTOR ( 'NONE', #367, 1000.000000000000000 ) ;
#666 = PRESENTATION_STYLE_ASSIGNMENT (( #594 ) ) ;
#667 = CARTESIAN_POINT ( 'NONE',  ( 0.000000000000000000, 0.000000000000000000, -49.99999999999999289 ) ) ;
#668 = ORIENTED_EDGE ( 'NONE', *, *, #738, .F. ) ;
#669 = CARTESIAN_POINT ( 'NONE',  ( 15.00000000000000000, 0.000000000000000000, -29.99999999999999645 ) ) ;
#670 = ORIENTED_EDGE ( 'NONE', *, *, #231, .F. ) ;
#671 = DIRECTION ( 'NONE',  ( 1.000000000000000000, 0.000000000000000000, -1.156482317317871478E-16 ) ) ;
#672 = ADVANCED_FACE ( 'NONE', ( #280, #167 ), #406, .T. ) ;
#673 = DIRECTION ( 'NONE',  ( 0.000000000000000000, 1.000000000000000000, 0.000000000000000000 ) ) ;
#674 = VERTEX_POINT ( 'NONE', #690 ) ;
#675 = AXIS2_PLACEMENT_3D ( 'NONE', #450, #682, #161 ) ;
#676 = VECTOR ( 'NONE', #351, 1000.000000000000000 ) ;
#677 = CARTESIAN_POINT ( 'NONE',  ( 55.00000000000000000, 30.00000000000000000, 0.000000000000000000 ) ) ;
#678 = EDGE_LOOP ( 'NONE', ( #739, #572, #363, #180, #157 ) ) ;
#679 = CARTESIAN_POINT ( 'NONE',  ( -35.00000000000000000, -30.00000000000000000, -29.99999999999999645 ) ) ;
#680 = ORIENTED_EDGE ( 'NONE', *, *, #356, .T. ) ;
#681 = DIRECTION ( 'NONE',  ( 0.000000000000000000, 0.000000000000000000, -1.000000000000000000 ) ) ;
#682 = DIRECTION ( 'NONE',  ( -1.000000000000000000, -0.000000000000000000, -0.000000000000000000 ) ) ;
#683 = VERTEX_POINT ( 'NONE', #576 ) ;
#684 = AXIS2_PLACEMENT_3D ( 'NONE', #706, #698, #516 ) ;
#685 = DIRECTION ( 'NONE',  ( -0.000000000000000000, 0.000000000000000000, 1.000000000000000000 ) ) ;
#686 = AXIS2_PLACEMENT_3D ( 'NONE', #381, #32, #549 ) ;
#687 = CARTESIAN_POINT ( 'NONE',  ( -55.00000000000000000, 1.836970198721029589E-15, -15.00000000000000000 ) ) ;
#688 = ORIENTED_EDGE ( 'NONE', *, *, #254, .T. ) ;
#689 = DIRECTION ( 'NONE',  ( -0.000000000000000000, 1.000000000000000000, 0.000000000000000000 ) ) ;
#690 = CARTESIAN_POINT ( 'NONE',  ( 35.00000000000000000, 0.000000000000000000, 15.00000000000000000 ) ) ;
#691 = VERTEX_POINT ( 'NONE', #410 ) ;
#692 = DIRECTION ( 'NONE',  ( 0.000000000000000000, 0.000000000000000000, -1.000000000000000000 ) ) ;
#693 = PRODUCT_DEFINITION ( 'UNKNOWN', '', #478, #551 ) ;
#694 = ORIENTED_EDGE ( 'NONE', *, *, #730, .T. ) ;
#695 = AXIS2_PLACEMENT_3D ( 'NONE', #368, #81, #541 ) ;
#696 = AXIS2_PLACEMENT_3D ( 'NONE', #597, #177, #297 ) ;
#697 = CIRCLE ( 'NONE', #592, 15.00000000000000000 ) ;
#698 = DIRECTION ( 'NONE',  ( 0.000000000000000000, -1.000000000000000000, 0.000000000000000000 ) ) ;
#699 = VERTEX_POINT ( 'NONE', #349 ) ;
#700 = DIRECTION ( 'NONE',  ( 0.000000000000000000, 1.000000000000000000, 0.000000000000000000 ) ) ;
#701 = CARTESIAN_POINT ( 'NONE',  ( -35.00000000000000000, -30.00000000000000000, -29.99999999999999645 ) ) ;
#702 = DIRECTION ( 'NONE',  ( 0.000000000000000000, 0.000000000000000000, -1.000000000000000000 ) ) ;
#703 = ORIENTED_EDGE ( 'NONE', *, *, #121, .F. ) ;
#704 = DIRECTION ( 'NONE',  ( 1.000000000000000000, 0.000000000000000000, 0.000000000000000000 ) ) ;
#705 = ADVANCED_FACE ( 'NONE', ( #58, #237 ), #469, .F. ) ;
#706 = CARTESIAN_POINT ( 'NONE',  ( -30.00000000000000355, -30.00000000000000000, -24.99999999999999289 ) ) ;
#707 = VERTEX_POINT ( 'NONE', #2 ) ;
#708 = LINE ( 'NONE', #250, #43 ) ;
#709 = CIRCLE ( 'NONE', #115, 15.00000000000000000 ) ;
#710 = CARTESIAN_POINT ( 'NONE',  ( -50.00000000000000711, -30.00000000000000000, -45.00000000000000000 ) ) ;
#711 = DIRECTION ( 'NONE',  ( 0.000000000000000000, 0.000000000000000000, -1.000000000000000000 ) ) ;
#712 = VECTOR ( 'NONE', #689, 1000.000000000000000 ) ;
#713 = CARTESIAN_POINT ( 'NONE',  ( 55.00000000000000000, 30.00000000000000000, -44.99999999999998579 ) ) ;
#714 = FACE_OUTER_BOUND ( 'NONE', #558, .T. ) ;
#715 = EDGE_CURVE ( 'NONE', #699, #160, #721, .T. ) ;
#716 = EDGE_LOOP ( 'NONE', ( #397, #228, #400, #148, #87 ) ) ;
#717 = DIRECTION ( 'NONE',  ( -1.000000000000000000, -0.000000000000000000, -0.000000000000000000 ) ) ;
#718 = SHAPE_DEFINITION_REPRESENTATION ( #247, #579 ) ;
#719 = DIRECTION ( 'NONE',  ( 0.000000000000000000, -1.000000000000000000, 0.000000000000000000 ) ) ;
#720 = EDGE_CURVE ( 'NONE', #354, #524, #585, .T. ) ;
#721 = CIRCLE ( 'NONE', #268, 4.999999999999997335 ) ;
#722 = DIRECTION ( 'NONE',  ( 0.000000000000000000, 0.000000000000000000, -1.000000000000000000 ) ) ;
#723 = AXIS2_PLACEMENT_3D ( 'NONE', #414, #130, #711 ) ;
#724 = ORIENTED_EDGE ( 'NONE', *, *, #158, .T. ) ;
#725 = VECTOR ( 'NONE', #276, 1000.000000000000000 ) ;
#726 = EDGE_CURVE ( 'NONE', #190, #605, #65, .T. ) ;
#727 = LINE ( 'NONE', #653, #5 ) ;
#728 = CARTESIAN_POINT ( 'NONE',  ( 55.00000000000000000, 0.000000000000000000, 0.000000000000000000 ) ) ;
#729 = ORIENTED_EDGE ( 'NONE', *, *, #753, .T. ) ;
#730 = EDGE_CURVE ( 'NONE', #517, #170, #526, .T. ) ;
#731 = CARTESIAN_POINT ( 'NONE',  ( 55.00000000000000000, -30.00000000000000000, -45.00000000000000000 ) ) ;
#732 = CARTESIAN_POINT ( 'NONE',  ( 55.00000000000000000, 0.000000000000000000, 30.00000000000000000 ) ) ;
#733 = ORIENTED_EDGE ( 'NONE', *, *, #301, .F. ) ;
#734 = CYLINDRICAL_SURFACE ( 'NONE', #675, 30.00000000000000000 ) ;
#735 = ORIENTED_EDGE ( 'NONE', *, *, #341, .T. ) ;
#736 = VECTOR ( 'NONE', #220, 1000.000000000000000 ) ;
#737 = CARTESIAN_POINT ( 'NONE',  ( 55.00000000000000000, -30.00000000000000000, 0.000000000000000000 ) ) ;
#738 = EDGE_CURVE ( 'NONE', #535, #46, #543, .T. ) ;
#739 = ORIENTED_EDGE ( 'NONE', *, *, #403, .T. ) ;
#740 = DIRECTION ( 'NONE',  ( -1.000000000000000000, -0.000000000000000000, -0.000000000000000000 ) ) ;
#741 = MANIFOLD_SOLID_BREP ( 'Cut-Extrude5', #222 ) ;
#742 = DIRECTION ( 'NONE',  ( -1.000000000000000000, -0.000000000000000000, -0.000000000000000000 ) ) ;
#743 = VERTEX_POINT ( 'NONE', #251 ) ;
#744 = EDGE_CURVE ( 'NONE', #691, #272, #41, .T. ) ;
#745 = CARTESIAN_POINT ( 'NONE',  ( -30.00000000000000355, 30.00000000000000000, -29.99999999999999645 ) ) ;
#746 = DIRECTION ( 'NONE',  ( 0.000000000000000000, 1.000000000000000000, 0.000000000000000000 ) ) ;
#747 = ORIENTED_EDGE ( 'NONE', *, *, #111, .F. ) ;
#748 = PRESENTATION_LAYER_ASSIGNMENT (  '', '', ( #405 ) ) ;
#749 = DIRECTION ( 'NONE',  ( 1.000000000000000000, 0.000000000000000000, 0.000000000000000000 ) ) ;
#750 = CARTESIAN_POINT ( 'NONE',  ( 55.00000000000000000, 0.000000000000000000, 0.000000000000000000 ) ) ;
#751 = VERTEX_POINT ( 'NONE', #313 ) ;
#752 = DIRECTION ( 'NONE',  ( -1.000000000000000000, 0.000000000000000000, 1.156482317317871478E-16 ) ) ;
#753 = EDGE_CURVE ( 'NONE', #369, #438, #727, .T. ) ;
#754 = DIRECTION ( 'NONE',  ( -1.000000000000000000, 0.000000000000000000, 0.000000000000000000 ) ) ;
#755 = ORIENTED_EDGE ( 'NONE', *, *, #738, .T. ) ;
ENDSEC;
END-ISO-10303-21;
