ISO-10303-21;
HEADER;
FILE_DESCRIPTION (( 'STEP AP214' ),
    '1' );
FILE_NAME ('socket head cap screw_iso.step',
    '2026-08-28T16:14:18',
    ( '' ),
    ( '' ),
    'SwSTEP 2.0',
    'SolidWorks 2024',
    '' );
FILE_SCHEMA (( 'AUTOMOTIVE_DESIGN' ));
ENDSEC;

DATA;
#1 = PLANE ( 'NONE',  #13 ) ;
#2 = CARTESIAN_POINT ( 'NONE',  ( 0.000000000000000000, -0.7390083445627199099, 1.280000000000001581 ) ) ;
#3 = CARTESIAN_POINT ( 'NONE',  ( 3.000000000000000000, 0.000000000000000000, 0.000000000000000000 ) ) ;
#4 = DIRECTION ( 'NONE',  ( 0.000000000000000000, 0.000000000000000000, 1.000000000000000000 ) ) ;
#5 = EDGE_CURVE ( 'NONE', #541, #54, #712, .T. ) ;
#6 = ORIENTED_EDGE ( 'NONE', *, *, #490, .T. ) ;
#7 = LINE ( 'NONE', #402, #533 ) ;
#8 = ORIENTED_EDGE ( 'NONE', *, *, #277, .T. ) ;
#9 = CARTESIAN_POINT ( 'NONE',  ( 1.300000000000000044, 0.7390083445627229075, 1.280000000000000027 ) ) ;
#10 = AXIS2_PLACEMENT_3D ( 'NONE', #588, #90, #34 ) ;
#11 = ORIENTED_EDGE ( 'NONE', *, *, #479, .F. ) ;
#12 = EDGE_CURVE ( 'NONE', #601, #54, #540, .T. ) ;
#13 = AXIS2_PLACEMENT_3D ( 'NONE', #682, #410, #360 ) ;
#14 = DIRECTION ( 'NONE',  ( -1.000000000000000000, 0.000000000000000000, 0.000000000000000000 ) ) ;
#15 = ORIENTED_EDGE ( 'NONE', *, *, #64, .F. ) ;
#16 = LINE ( 'NONE', #80, #664 ) ;
#17 = CARTESIAN_POINT ( 'NONE',  ( -31.74999999999995737, 0.000000000000000000, 0.000000000000000000 ) ) ;
#18 = CARTESIAN_POINT ( 'NONE',  ( 3.099999999999998757, 1.836970198721030427E-16, -1.500000000000000444 ) ) ;
#19 = CARTESIAN_POINT ( 'NONE',  ( 1.300000000000000044, -1.502314598737159031E-15, -1.279999999999999805 ) ) ;
#20 = ORIENTED_EDGE ( 'NONE', *, *, #534, .F. ) ;
#21 = DIRECTION ( 'NONE',  ( 0.000000000000000000, -0.4999999999999985012, 0.8660254037844394848 ) ) ;
#22 = ORIENTED_EDGE ( 'NONE', *, *, #722, .F. ) ;
#23 = DIRECTION ( 'NONE',  ( 0.000000000000000000, 0.000000000000000000, -1.000000000000000000 ) ) ;
#24 = EDGE_CURVE ( 'NONE', #460, #699, #146, .T. ) ;
#25 = ORIENTED_EDGE ( 'NONE', *, *, #203, .T. ) ;
#26 = VECTOR ( 'NONE', #115, 1000.000000000000000 ) ;
#27 = CARTESIAN_POINT ( 'NONE',  ( 1.300000000000000044, -0.7390083445627233516, -1.279999999999998916 ) ) ;
#28 = PLANE ( 'NONE',  #598 ) ;
#29 = VERTEX_POINT ( 'NONE', #18 ) ;
#30 = DIRECTION ( 'NONE',  ( -0.5000000000000034417, 0.000000000000000000, 0.8660254037844367092 ) ) ;
#31 = CARTESIAN_POINT ( 'NONE',  ( 2.999999999999999112, 0.000000000000000000, -1.600000000000000533 ) ) ;
#32 = VERTEX_POINT ( 'NONE', #75 ) ;
#33 = ADVANCED_FACE ( 'NONE', ( #208 ), #378, .T. ) ;
#34 = DIRECTION ( 'NONE',  ( 0.000000000000000000, 0.000000000000000000, 1.000000000000000000 ) ) ;
#35 = VERTEX_POINT ( 'NONE', #311 ) ;
#36 = VECTOR ( 'NONE', #317, 999.9999999999998863 ) ;
#37 = LINE ( 'NONE', #100, #430 ) ;
#38 = CIRCLE ( 'NONE', #462, 1.500000000000000444 ) ;
#39 = AXIS2_PLACEMENT_3D ( 'NONE', #291, #339, #733 ) ;
#40 = VERTEX_POINT ( 'NONE', #254 ) ;
#41 = CARTESIAN_POINT ( 'NONE',  ( -31.74999999999995737, 1.836970198721030427E-16, -1.500000000000000444 ) ) ;
#42 = ADVANCED_FACE ( 'NONE', ( #373 ), #567, .T. ) ;
#43 = ORIENTED_EDGE ( 'NONE', *, *, #5, .T. ) ;
#44 = DIRECTION ( 'NONE',  ( 0.000000000000000000, -0.5000000000000011102, -0.8660254037844380415 ) ) ;
#45 = DIRECTION ( 'NONE',  ( -1.000000000000000000, 0.000000000000000000, 0.000000000000000000 ) ) ;
#46 = DIRECTION ( 'NONE',  ( -1.000000000000000000, -0.000000000000000000, -0.000000000000000000 ) ) ;
#47 = ORIENTED_EDGE ( 'NONE', *, *, #646, .F. ) ;
#48 =( NAMED_UNIT ( * ) SI_UNIT ( $, .STERADIAN. ) SOLID_ANGLE_UNIT ( ) );
#49 = VECTOR ( 'NONE', #30, 999.9999999999998863 ) ;
#50 = DIRECTION ( 'NONE',  ( -1.000000000000000000, -0.000000000000000000, -0.000000000000000000 ) ) ;
#51 = AXIS2_PLACEMENT_3D ( 'NONE', #17, #370, #553 ) ;
#52 = ORIENTED_EDGE ( 'NONE', *, *, #358, .F. ) ;
#53 = APPLICATION_PROTOCOL_DEFINITION ( 'draft international standard', 'automotive_design', 1998, #138 ) ;
#54 = VERTEX_POINT ( 'NONE', #27 ) ;
#55 = EDGE_CURVE ( 'NONE', #633, #517, #715, .T. ) ;
#56 = DIRECTION ( 'NONE',  ( -1.000000000000000000, 0.000000000000000000, 0.000000000000000000 ) ) ;
#57 = CARTESIAN_POINT ( 'NONE',  ( 0.1499999999999973577, 0.000000000000000000, 2.750000000000000000 ) ) ;
#58 = PRODUCT_RELATED_PRODUCT_CATEGORY ( 'part', '', ( #169 ) ) ;
#59 = DIRECTION ( 'NONE',  ( 1.000000000000000000, 0.000000000000000000, 0.000000000000000000 ) ) ;
#60 = CARTESIAN_POINT ( 'NONE',  ( 1.300000000000000044, 1.108512516844082585, 0.6399999999999981259 ) ) ;
#61 = CIRCLE ( 'NONE', #354, 1.600000000000000533 ) ;
#62 = DIRECTION ( 'NONE',  ( 0.000000000000000000, 0.000000000000000000, 1.000000000000000000 ) ) ;
#63 = CARTESIAN_POINT ( 'NONE',  ( 0.000000000000000000, 0.000000000000000000, 0.000000000000000000 ) ) ;
#64 = EDGE_CURVE ( 'NONE', #40, #435, #364, .T. ) ;
#65 = LINE ( 'NONE', #171, #248 ) ;
#66 = ORIENTED_EDGE ( 'NONE', *, *, #428, .F. ) ;
#67 = PLANE ( 'NONE',  #642 ) ;
#68 = DIRECTION ( 'NONE',  ( 0.000000000000000000, 0.000000000000000000, -1.000000000000000000 ) ) ;
#69 = VERTEX_POINT ( 'NONE', #701 ) ;
#70 = DIRECTION ( 'NONE',  ( 0.000000000000000000, 0.000000000000000000, 1.000000000000000000 ) ) ;
#71 = VECTOR ( 'NONE', #483, 1000.000000000000000 ) ;
#72 = VERTEX_POINT ( 'NONE', #268 ) ;
#73 = AXIS2_PLACEMENT_3D ( 'NONE', #662, #400, #239 ) ;
#74 = DIRECTION ( 'NONE',  ( 0.000000000000000000, -0.5000000000000011102, -0.8660254037844380415 ) ) ;
#75 = CARTESIAN_POINT ( 'NONE',  ( 3.000000000000002665, 0.000000000000000000, 2.750000000000000000 ) ) ;
#76 = DIRECTION ( 'NONE',  ( -0.5000000000000034417, 1.060575238724904696E-16, -0.8660254037844367092 ) ) ;
#77 = ORIENTED_EDGE ( 'NONE', *, *, #177, .T. ) ;
#78 = ADVANCED_FACE ( 'NONE', ( #131 ), #643, .T. ) ;
#79 = PLANE ( 'NONE',  #273 ) ;
#80 = CARTESIAN_POINT ( 'NONE',  ( 1.300000000000000044, 1.567547902908612085E-16, -1.280000000000000027 ) ) ;
#81 = DIRECTION ( 'NONE',  ( 0.000000000000000000, 0.000000000000000000, 1.000000000000000000 ) ) ;
#82 = DIRECTION ( 'NONE',  ( 0.000000000000000000, -0.4999999999999986677, 0.8660254037844392627 ) ) ;
#83 = LINE ( 'NONE', #477, #249 ) ;
#84 = AXIS2_PLACEMENT_3D ( 'NONE', #214, #375, #82 ) ;
#85 = VECTOR ( 'NONE', #21, 1000.000000000000114 ) ;
#86 = LINE ( 'NONE', #523, #36 ) ;
#87 = DIRECTION ( 'NONE',  ( -1.000000000000000000, -0.000000000000000000, -0.000000000000000000 ) ) ;
#88 = EDGE_CURVE ( 'NONE', #608, #164, #149, .T. ) ;
#89 = ORIENTED_EDGE ( 'NONE', *, *, #619, .T. ) ;
#90 = DIRECTION ( 'NONE',  ( -1.000000000000000000, -0.000000000000000000, -0.000000000000000000 ) ) ;
#91 = ADVANCED_FACE ( 'NONE', ( #271 ), #516, .F. ) ;
#92 = ORIENTED_EDGE ( 'NONE', *, *, #314, .T. ) ;
#93 = ORIENTED_EDGE ( 'NONE', *, *, #740, .F. ) ;
#94 = EDGE_CURVE ( 'NONE', #369, #411, #86, .T. ) ;
#95 = VECTOR ( 'NONE', #144, 1000.000000000000000 ) ;
#96 = PLANE ( 'NONE',  #719 ) ;
#97 = VECTOR ( 'NONE', #571, 1000.000000000000000 ) ;
#98 = VECTOR ( 'NONE', #709, 999.9999999999998863 ) ;
#99 = EDGE_LOOP ( 'NONE', ( #688, #501 ) ) ;
#100 = CARTESIAN_POINT ( 'NONE',  ( 1.300000000000000044, 1.478016689125441596, -1.409462824231155764E-15 ) ) ;
#101 = EDGE_LOOP ( 'NONE', ( #713, #575, #723 ) ) ;
#102 = DIRECTION ( 'NONE',  ( 0.000000000000000000, 0.000000000000000000, 1.000000000000000000 ) ) ;
#103 = CARTESIAN_POINT ( 'NONE',  ( 10.71950000000000713, 0.000000000000000000, 0.000000000000000000 ) ) ;
#104 = CARTESIAN_POINT ( 'NONE',  ( 3.099999999999998757, 0.000000000000000000, 0.000000000000000000 ) ) ;
#105 = ORIENTED_EDGE ( 'NONE', *, *, #619, .F. ) ;
#106 =( NAMED_UNIT ( * ) PLANE_ANGLE_UNIT ( ) SI_UNIT ( $, .RADIAN. ) );
#107 = LINE ( 'NONE', #489, #531 ) ;
#108 = CONICAL_SURFACE ( 'NONE', #211, 1.219500000000000028, 0.7853981633974683740 ) ;
#109 = DIRECTION ( 'NONE',  ( -0.000000000000000000, 0.000000000000000000, 1.000000000000000000 ) ) ;
#110 = CIRCLE ( 'NONE', #680, 2.750000000000000000 ) ;
#111 = PRODUCT_DEFINITION_FORMATION_WITH_SPECIFIED_SOURCE ( 'ANY', '', #169, .NOT_KNOWN. ) ;
#112 = ADVANCED_FACE ( 'NONE', ( #194 ), #581, .F. ) ;
#113 = EDGE_LOOP ( 'NONE', ( #135, #512, #325, #385 ) ) ;
#114 = FACE_BOUND ( 'NONE', #520, .T. ) ;
#115 = DIRECTION ( 'NONE',  ( -1.000000000000000000, -0.000000000000000000, -0.000000000000000000 ) ) ;
#116 = FACE_OUTER_BOUND ( 'NONE', #151, .T. ) ;
#117 = DIRECTION ( 'NONE',  ( 0.000000000000000000, 1.000000000000000000, -1.026972870230479595E-15 ) ) ;
#118 = DIRECTION ( 'NONE',  ( 0.000000000000000000, 1.000000000000000000, -1.026972870230479595E-15 ) ) ;
#119 = ADVANCED_FACE ( 'NONE', ( #258 ), #79, .F. ) ;
#120 = CARTESIAN_POINT ( 'NONE',  ( -31.74999999999995737, 0.000000000000000000, 1.500000000000000444 ) ) ;
#121 = AXIS2_PLACEMENT_3D ( 'NONE', #371, #454, #353 ) ;
#122 = DIRECTION ( 'NONE',  ( 0.000000000000000000, 0.000000000000000000, -1.000000000000000000 ) ) ;
#123 = EDGE_CURVE ( 'NONE', #54, #517, #139, .T. ) ;
#124 = ORIENTED_EDGE ( 'NONE', *, *, #196, .F. ) ;
#125 = LINE ( 'NONE', #201, #731 ) ;
#126 = CARTESIAN_POINT ( 'NONE',  ( 10.99999999999999645, 1.665213485140613873E-16, -1.219500000000000028 ) ) ;
#127 = EDGE_LOOP ( 'NONE', ( #15, #272, #6, #25, #218 ) ) ;
#128 = DIRECTION ( 'NONE',  ( -1.000000000000000000, -0.000000000000000000, -0.000000000000000000 ) ) ;
#129 = ORIENTED_EDGE ( 'NONE', *, *, #419, .F. ) ;
#130 = LINE ( 'NONE', #363, #85 ) ;
#131 = FACE_OUTER_BOUND ( 'NONE', #738, .T. ) ;
#132 = CARTESIAN_POINT ( 'NONE',  ( 1.300000000000000044, 0.7390083445627187997, -1.280000000000000693 ) ) ;
#133 = EDGE_CURVE ( 'NONE', #243, #711, #296, .T. ) ;
#134 = AXIS2_PLACEMENT_3D ( 'NONE', #564, #46, #504 ) ;
#135 = ORIENTED_EDGE ( 'NONE', *, *, #672, .F. ) ;
#136 = ORIENTED_EDGE ( 'NONE', *, *, #703, .T. ) ;
#137 = PLANE ( 'NONE',  #519 ) ;
#138 = APPLICATION_CONTEXT ( 'automotive_design' ) ;
#139 = LINE ( 'NONE', #650, #95 ) ;
#140 = FACE_OUTER_BOUND ( 'NONE', #113, .T. ) ;
#141 = ORIENTED_EDGE ( 'NONE', *, *, #177, .F. ) ;
#142 = LINE ( 'NONE', #705, #236 ) ;
#143 = EDGE_CURVE ( 'NONE', #411, #29, #613, .T. ) ;
#144 = DIRECTION ( 'NONE',  ( -1.000000000000000000, -0.000000000000000000, -0.000000000000000000 ) ) ;
#145 = ORIENTED_EDGE ( 'NONE', *, *, #419, .T. ) ;
#146 = CIRCLE ( 'NONE', #386, 2.750000000000000000 ) ;
#147 = AXIS2_PLACEMENT_3D ( 'NONE', #219, #216, #549 ) ;
#148 = AXIS2_PLACEMENT_3D ( 'NONE', #696, #578, #632 ) ;
#149 = LINE ( 'NONE', #425, #484 ) ;
#150 = EDGE_CURVE ( 'NONE', #188, #435, #365, .T. ) ;
#151 = EDGE_LOOP ( 'NONE', ( #587, #732, #465 ) ) ;
#152 = FACE_OUTER_BOUND ( 'NONE', #573, .T. ) ;
#153 = ORIENTED_EDGE ( 'NONE', *, *, #668, .T. ) ;
#154 = SURFACE_STYLE_USAGE ( .BOTH. , #444 ) ;
#155 = ORIENTED_EDGE ( 'NONE', *, *, #562, .T. ) ;
#156 = ADVANCED_FACE ( 'NONE', ( #618 ), #495, .T. ) ;
#157 = CARTESIAN_POINT ( 'NONE',  ( -31.74999999999995737, 0.000000000000000000, 0.000000000000000000 ) ) ;
#158 = DIRECTION ( 'NONE',  ( -1.000000000000000000, -0.000000000000000000, -0.000000000000000000 ) ) ;
#159 = AXIS2_PLACEMENT_3D ( 'NONE', #350, #295, #505 ) ;
#160 = AXIS2_PLACEMENT_3D ( 'NONE', #157, #557, #102 ) ;
#161 = ORIENTED_EDGE ( 'NONE', *, *, #277, .F. ) ;
#162 = CARTESIAN_POINT ( 'NONE',  ( 3.099999999999998757, 1.959434878635765723E-16, 1.600000000000000533 ) ) ;
#163 = CARTESIAN_POINT ( 'NONE',  ( 1.300000000000000044, 0.000000000000000000, 0.000000000000000000 ) ) ;
#164 = VERTEX_POINT ( 'NONE', #604 ) ;
#165 = DIRECTION ( 'NONE',  ( 0.000000000000000000, -0.5000000000000011102, -0.8660254037844380415 ) ) ;
#166 = SURFACE_STYLE_FILL_AREA ( #436 ) ;
#167 = EDGE_CURVE ( 'NONE', #69, #633, #107, .T. ) ;
#168 = DIRECTION ( 'NONE',  ( 0.000000000000000000, 0.000000000000000000, 1.000000000000000000 ) ) ;
#169 = PRODUCT ( 'socket head cap screw_iso', 'socket head cap screw_iso', '', ( #499 ) ) ;
#170 = ORIENTED_EDGE ( 'NONE', *, *, #502, .T. ) ;
#171 = CARTESIAN_POINT ( 'NONE',  ( 0.000000000000000000, -0.7390083445627199099, 1.280000000000001581 ) ) ;
#172 = LINE ( 'NONE', #451, #197 ) ;
#173 = VECTOR ( 'NONE', #393, 1000.000000000000114 ) ;
#174 = CARTESIAN_POINT ( 'NONE',  ( 1.300000000000000044, 0.7390083445627187997, -1.280000000000000693 ) ) ;
#175 = LINE ( 'NONE', #623, #26 ) ;
#176 = APPLICATION_CONTEXT ( 'automotive_design' ) ;
#177 = EDGE_CURVE ( 'NONE', #411, #432, #543, .T. ) ;
#178 = CARTESIAN_POINT ( 'NONE',  ( 1.300000000000000044, -1.478016689125442484, 2.059984127722458425E-15 ) ) ;
#179 = MANIFOLD_SOLID_BREP ( 'Hex', #582 ) ;
#180 = CARTESIAN_POINT ( 'NONE',  ( 1.300000000000000044, 0.7390083445627229075, 1.280000000000000027 ) ) ;
#181 = ORIENTED_EDGE ( 'NONE', *, *, #314, .F. ) ;
#182 = PLANE ( 'NONE',  #185 ) ;
#183 = PRESENTATION_LAYER_ASSIGNMENT (  '', '', ( #318 ) ) ;
#184 = CIRCLE ( 'NONE', #387, 1.219500000000000028 ) ;
#185 = AXIS2_PLACEMENT_3D ( 'NONE', #357, #242, #409 ) ;
#186 = EDGE_LOOP ( 'NONE', ( #380, #215, #124 ) ) ;
#187 = DIRECTION ( 'NONE',  ( 0.000000000000000000, 0.000000000000000000, 1.000000000000000000 ) ) ;
#188 = VERTEX_POINT ( 'NONE', #231 ) ;
#189 = DIRECTION ( 'NONE',  ( -1.000000000000000000, -0.000000000000000000, -0.000000000000000000 ) ) ;
#190 = ORIENTED_EDGE ( 'NONE', *, *, #554, .T. ) ;
#191 = ORIENTED_EDGE ( 'NONE', *, *, #637, .F. ) ;
#192 = CARTESIAN_POINT ( 'NONE',  ( 11.00000000000000000, 1.219500000000000028, 0.000000000000000000 ) ) ;
#193 = ADVANCED_FACE ( 'NONE', ( #152 ), #108, .T. ) ;
#194 = FACE_OUTER_BOUND ( 'NONE', #645, .T. ) ;
#195 = CARTESIAN_POINT ( 'NONE',  ( 1.300000000000000044, -0.7390083445627199099, 1.280000000000001581 ) ) ;
#196 = EDGE_CURVE ( 'NONE', #525, #616, #37, .T. ) ;
#197 = VECTOR ( 'NONE', #117, 1000.000000000000000 ) ;
#198 = ORIENTED_EDGE ( 'NONE', *, *, #251, .T. ) ;
#199 = AXIS2_PLACEMENT_3D ( 'NONE', #667, #651, #269 ) ;
#200 = DIRECTION ( 'NONE',  ( -0.000000000000000000, 1.026972870230479595E-15, 1.000000000000000000 ) ) ;
#201 = CARTESIAN_POINT ( 'NONE',  ( 1.300000000000000044, 0.7390083445627225744, 1.280000000000000027 ) ) ;
#202 = ORIENTED_EDGE ( 'NONE', *, *, #684, .T. ) ;
#203 = EDGE_CURVE ( 'NONE', #541, #188, #730, .T. ) ;
#204 = CARTESIAN_POINT ( 'NONE',  ( 10.71950000000000713, 1.836970198721030427E-16, -1.500000000000000444 ) ) ;
#205 = DIRECTION ( 'NONE',  ( 0.000000000000000000, 0.000000000000000000, 1.000000000000000000 ) ) ;
#206 = SHAPE_DEFINITION_REPRESENTATION ( #560, #352 ) ;
#207 = ORIENTED_EDGE ( 'NONE', *, *, #382, .T. ) ;
#208 = FACE_OUTER_BOUND ( 'NONE', #186, .T. ) ;
#209 = APPLICATION_PROTOCOL_DEFINITION ( 'draft international standard', 'automotive_design', 1998, #176 ) ;
#210 = ORIENTED_EDGE ( 'NONE', *, *, #502, .F. ) ;
#211 = AXIS2_PLACEMENT_3D ( 'NONE', #327, #336, #542 ) ;
#212 = CIRCLE ( 'NONE', #544, 0.1499999999999999667 ) ;
#213 = VECTOR ( 'NONE', #592, 1000.000000000000114 ) ;
#214 = CARTESIAN_POINT ( 'NONE',  ( 1.300000000000000044, -1.478016689125442484, 2.059984127722458425E-15 ) ) ;
#215 = ORIENTED_EDGE ( 'NONE', *, *, #500, .T. ) ;
#216 = DIRECTION ( 'NONE',  ( -1.000000000000000000, -0.000000000000000000, -0.000000000000000000 ) ) ;
#217 = ADVANCED_FACE ( 'NONE', ( #487 ), #344, .F. ) ;
#218 = ORIENTED_EDGE ( 'NONE', *, *, #150, .T. ) ;
#219 = CARTESIAN_POINT ( 'NONE',  ( 1.300000000000000044, 0.000000000000000000, 0.000000000000000000 ) ) ;
#220 = ORIENTED_EDGE ( 'NONE', *, *, #579, .T. ) ;
#221 = AXIS2_PLACEMENT_3D ( 'NONE', #536, #530, #718 ) ;
#222 = CARTESIAN_POINT ( 'NONE',  ( 0.000000000000000000, 1.478016689125441596, -1.409462824231155764E-15 ) ) ;
#223 = CIRCLE ( 'NONE', #485, 1.500000000000000444 ) ;
#224 = CYLINDRICAL_SURFACE ( 'NONE', #134, 1.500000000000000444 ) ;
#225 = ORIENTED_EDGE ( 'NONE', *, *, #550, .F. ) ;
#226 = CARTESIAN_POINT ( 'NONE',  ( 1.300000000000000044, 1.478016689125441596, -1.409462824231155764E-15 ) ) ;
#227 = ADVANCED_FACE ( 'NONE', ( #384 ), #96, .T. ) ;
#228 = DIRECTION ( 'NONE',  ( 0.000000000000000000, 0.000000000000000000, -1.000000000000000000 ) ) ;
#229 = FACE_OUTER_BOUND ( 'NONE', #726, .T. ) ;
#230 = ORIENTED_EDGE ( 'NONE', *, *, #428, .T. ) ;
#231 = CARTESIAN_POINT ( 'NONE',  ( 1.300000000000000044, -1.108512516844081475, 0.6400000000000016787 ) ) ;
#232 = DIRECTION ( 'NONE',  ( -1.000000000000000000, -0.000000000000000000, -0.000000000000000000 ) ) ;
#233 = VERTEX_POINT ( 'NONE', #222 ) ;
#234 = CARTESIAN_POINT ( 'NONE',  ( 3.099999999999998757, 0.000000000000000000, 0.000000000000000000 ) ) ;
#235 = UNCERTAINTY_MEASURE_WITH_UNIT (LENGTH_MEASURE( 1.000000000000000082E-05 ), #617, 'distance_accuracy_value', 'NONE');
#236 = VECTOR ( 'NONE', #74, 1000.000000000000114 ) ;
#237 = CARTESIAN_POINT ( 'NONE',  ( 1.300000000000000044, -0.7390083445627199099, 1.280000000000001581 ) ) ;
#238 = ADVANCED_FACE ( 'NONE', ( #669 ), #691, .T. ) ;
#239 = DIRECTION ( 'NONE',  ( 0.000000000000000000, 0.000000000000000000, 1.000000000000000000 ) ) ;
#240 = LINE ( 'NONE', #120, #289 ) ;
#241 = DIRECTION ( 'NONE',  ( 0.000000000000000000, -1.173683280263405561E-15, -1.000000000000000000 ) ) ;
#242 = DIRECTION ( 'NONE',  ( 0.000000000000000000, -0.8660254037844394848, -0.4999999999999985012 ) ) ;
#243 = VERTEX_POINT ( 'NONE', #547 ) ;
#244 = CARTESIAN_POINT ( 'NONE',  ( 3.000000000000002665, 0.000000000000000000, 0.000000000000000000 ) ) ;
#245 = ORIENTED_EDGE ( 'NONE', *, *, #55, .T. ) ;
#246 = CYLINDRICAL_SURFACE ( 'NONE', #345, 2.750000000000000000 ) ;
#247 =( GEOMETRIC_REPRESENTATION_CONTEXT ( 3 ) GLOBAL_UNCERTAINTY_ASSIGNED_CONTEXT ( ( #614 ) ) GLOBAL_UNIT_ASSIGNED_CONTEXT ( ( #552, #657, #48 ) ) REPRESENTATION_CONTEXT ( 'NONE', 'WORKASPACE' ) );
#248 = VECTOR ( 'NONE', #503, 1000.000000000000000 ) ;
#249 = VECTOR ( 'NONE', #288, 1000.000000000000000 ) ;
#250 = ORIENTED_EDGE ( 'NONE', *, *, #637, .T. ) ;
#251 = EDGE_CURVE ( 'NONE', #292, #29, #38, .T. ) ;
#252 = ORIENTED_EDGE ( 'NONE', *, *, #508, .F. ) ;
#253 = CARTESIAN_POINT ( 'NONE',  ( 1.300000000000000044, 0.000000000000000000, 0.000000000000000000 ) ) ;
#254 = CARTESIAN_POINT ( 'NONE',  ( 2.039008344562727615, 0.000000000000000000, 0.000000000000000000 ) ) ;
#255 = DIRECTION ( 'NONE',  ( 0.000000000000000000, 0.4999999999999986677, -0.8660254037844393737 ) ) ;
#256 = ORIENTED_EDGE ( 'NONE', *, *, #94, .T. ) ;
#257 = CARTESIAN_POINT ( 'NONE',  ( 0.000000000000000000, 3.275930187719169848E-16, -2.600000000000000089 ) ) ;
#258 = FACE_OUTER_BOUND ( 'NONE', #639, .T. ) ;
#259 = LINE ( 'NONE', #528, #298 ) ;
#260 = ADVANCED_FACE ( 'NONE', ( #627 ), #1, .T. ) ;
#261 = AXIS2_PLACEMENT_3D ( 'NONE', #476, #315, #527 ) ;
#262 = CIRCLE ( 'NONE', #309, 1.500000000000000444 ) ;
#263 = ORIENTED_EDGE ( 'NONE', *, *, #196, .T. ) ;
#264 = CARTESIAN_POINT ( 'NONE',  ( 1.300000000000000044, 0.000000000000000000, 0.000000000000000000 ) ) ;
#265 = DIRECTION ( 'NONE',  ( 0.000000000000000000, 0.000000000000000000, 1.000000000000000000 ) ) ;
#266 = FACE_OUTER_BOUND ( 'NONE', #529, .T. ) ;
#267 = ORIENTED_EDGE ( 'NONE', *, *, #703, .F. ) ;
#268 = CARTESIAN_POINT ( 'NONE',  ( 0.000000000000000000, 0.7390083445627225744, 1.280000000000000027 ) ) ;
#269 = DIRECTION ( 'NONE',  ( 0.000000000000000000, -1.224646799147353207E-16, 1.000000000000000000 ) ) ;
#270 = ORIENTED_EDGE ( 'NONE', *, *, #326, .F. ) ;
#271 = FACE_OUTER_BOUND ( 'NONE', #127, .T. ) ;
#272 = ORIENTED_EDGE ( 'NONE', *, *, #570, .T. ) ;
#273 = AXIS2_PLACEMENT_3D ( 'NONE', #473, #200, #421 ) ;
#274 = CIRCLE ( 'NONE', #655, 1.280000000000000027 ) ;
#275 = AXIS2_PLACEMENT_3D ( 'NONE', #457, #398, #511 ) ;
#276 = CIRCLE ( 'NONE', #199, 0.1499999999999999667 ) ;
#277 = EDGE_CURVE ( 'NONE', #608, #435, #302, .T. ) ;
#278 = DIRECTION ( 'NONE',  ( -1.000000000000000000, -0.000000000000000000, -0.000000000000000000 ) ) ;
#279 = PRODUCT_DEFINITION_CONTEXT ( 'detailed design', #176, 'design' ) ;
#280 = EDGE_LOOP ( 'NONE', ( #328, #361, #250, #141 ) ) ;
#281 = DIRECTION ( 'NONE',  ( -1.000000000000000000, -0.000000000000000000, -0.000000000000000000 ) ) ;
#282 = ORIENTED_EDGE ( 'NONE', *, *, #286, .T. ) ;
#283 = LINE ( 'NONE', #671, #693 ) ;
#284 = DIRECTION ( 'NONE',  ( 0.000000000000000000, 0.000000000000000000, 1.000000000000000000 ) ) ;
#285 = PLANE ( 'NONE',  #641 ) ;
#286 = EDGE_CURVE ( 'NONE', #32, #394, #706, .T. ) ;
#287 = ORIENTED_EDGE ( 'NONE', *, *, #55, .F. ) ;
#288 = DIRECTION ( 'NONE',  ( -1.000000000000000000, -0.000000000000000000, -0.000000000000000000 ) ) ;
#289 = VECTOR ( 'NONE', #497, 1000.000000000000000 ) ;
#290 = ORIENTED_EDGE ( 'NONE', *, *, #133, .F. ) ;
#291 = CARTESIAN_POINT ( 'NONE',  ( 0.000000000000000000, 0.000000000000000000, 0.000000000000000000 ) ) ;
#292 = VERTEX_POINT ( 'NONE', #404 ) ;
#293 = FACE_OUTER_BOUND ( 'NONE', #656, .T. ) ;
#294 = DIRECTION ( 'NONE',  ( 1.000000000000000000, 0.000000000000000000, 0.000000000000000000 ) ) ;
#295 = DIRECTION ( 'NONE',  ( 1.000000000000000000, 0.000000000000000000, 0.000000000000000000 ) ) ;
#296 = CIRCLE ( 'NONE', #416, 1.600000000000000533 ) ;
#297 = EDGE_CURVE ( 'NONE', #699, #460, #110, .T. ) ;
#298 = VECTOR ( 'NONE', #255, 1000.000000000000114 ) ;
#299 = CIRCLE ( 'NONE', #148, 0.1000000000000000472 ) ;
#300 = DIRECTION ( 'NONE',  ( -1.000000000000000000, -0.000000000000000000, -0.000000000000000000 ) ) ;
#301 = DIRECTION ( 'NONE',  ( -1.000000000000000000, -0.000000000000000000, -0.000000000000000000 ) ) ;
#302 = LINE ( 'NONE', #348, #556 ) ;
#303 = ORIENTED_EDGE ( 'NONE', *, *, #534, .T. ) ;
#304 = EDGE_CURVE ( 'NONE', #435, #525, #330, .T. ) ;
#305 = ORIENTED_EDGE ( 'NONE', *, *, #522, .T. ) ;
#306 = FACE_OUTER_BOUND ( 'NONE', #721, .T. ) ;
#307 = ORIENTED_EDGE ( 'NONE', *, *, #722, .T. ) ;
#308 = CARTESIAN_POINT ( 'NONE',  ( 1.300000000000000044, -0.7390083445627199099, 1.280000000000001581 ) ) ;
#309 = AXIS2_PLACEMENT_3D ( 'NONE', #104, #294, #729 ) ;
#310 = PRODUCT_DEFINITION ( 'UNKNOWN', '', #111, #279 ) ;
#311 = CARTESIAN_POINT ( 'NONE',  ( 1.300000000000000044, 1.108512516844080587, -0.6400000000000012346 ) ) ;
#312 = LINE ( 'NONE', #132, #97 ) ;
#313 = ORIENTED_EDGE ( 'NONE', *, *, #379, .F. ) ;
#314 = EDGE_CURVE ( 'NONE', #320, #233, #7, .T. ) ;
#315 = DIRECTION ( 'NONE',  ( 1.000000000000000000, 0.000000000000000000, 0.000000000000000000 ) ) ;
#316 = CARTESIAN_POINT ( 'NONE',  ( 1.300000000000000044, 0.7390083445627225744, 1.280000000000000027 ) ) ;
#317 = DIRECTION ( 'NONE',  ( -0.7071067811865334729, 8.659560562355107887E-17, -0.7071067811865617836 ) ) ;
#318 = STYLED_ITEM ( 'NONE', ( #340 ), #179 ) ;
#319 = VECTOR ( 'NONE', #576, 1000.000000000000114 ) ;
#320 = VERTEX_POINT ( 'NONE', #565 ) ;
#321 = CARTESIAN_POINT ( 'NONE',  ( 1.300000000000000044, 0.7390083445627187997, -1.280000000000000693 ) ) ;
#322 = DIRECTION ( 'NONE',  ( 0.000000000000000000, 0.5000000000000011102, 0.8660254037844380415 ) ) ;
#323 = ORIENTED_EDGE ( 'NONE', *, *, #382, .F. ) ;
#324 = CARTESIAN_POINT ( 'NONE',  ( 0.000000000000000000, 0.7390083445627187997, -1.280000000000000693 ) ) ;
#325 = ORIENTED_EDGE ( 'NONE', *, *, #508, .T. ) ;
#326 = EDGE_CURVE ( 'NONE', #432, #411, #223, .T. ) ;
#327 = CARTESIAN_POINT ( 'NONE',  ( 10.99999999999999645, 0.000000000000000000, 0.000000000000000000 ) ) ;
#328 = ORIENTED_EDGE ( 'NONE', *, *, #94, .F. ) ;
#329 = AXIS2_PLACEMENT_3D ( 'NONE', #103, #559, #381 ) ;
#330 = CIRCLE ( 'NONE', #275, 1.280000000000000027 ) ;
#331 = ADVANCED_FACE ( 'NONE', ( #509 ), #685, .F. ) ;
#332 = VECTOR ( 'NONE', #596, 1000.000000000000114 ) ;
#333 = DIRECTION ( 'NONE',  ( 0.000000000000000000, 0.000000000000000000, 1.000000000000000000 ) ) ;
#334 = ORIENTED_EDGE ( 'NONE', *, *, #358, .T. ) ;
#335 = FACE_OUTER_BOUND ( 'NONE', #548, .T. ) ;
#336 = DIRECTION ( 'NONE',  ( -1.000000000000000000, -0.000000000000000000, -0.000000000000000000 ) ) ;
#337 = EDGE_CURVE ( 'NONE', #394, #32, #629, .T. ) ;
#338 = ORIENTED_EDGE ( 'NONE', *, *, #297, .F. ) ;
#339 = DIRECTION ( 'NONE',  ( 0.000000000000000000, 0.000000000000000000, 1.000000000000000000 ) ) ;
#340 = PRESENTATION_STYLE_ASSIGNMENT (( #154 ) ) ;
#341 = DIRECTION ( 'NONE',  ( 0.000000000000000000, 0.000000000000000000, 1.000000000000000000 ) ) ;
#342 = ORIENTED_EDGE ( 'NONE', *, *, #123, .T. ) ;
#343 = DIRECTION ( 'NONE',  ( 0.000000000000000000, 0.000000000000000000, 1.000000000000000000 ) ) ;
#344 = CONICAL_SURFACE ( 'NONE', #147, 1.280000000000000027, 1.047197551196593857 ) ;
#345 = AXIS2_PLACEMENT_3D ( 'NONE', #464, #189, #70 ) ;
#346 = CARTESIAN_POINT ( 'NONE',  ( 1.300000000000000044, 0.000000000000000000, 0.000000000000000000 ) ) ;
#347 = ORIENTED_EDGE ( 'NONE', *, *, #326, .T. ) ;
#348 = CARTESIAN_POINT ( 'NONE',  ( 1.300000000000000044, -0.7390083445627199099, 1.280000000000001581 ) ) ;
#349 = ADVANCED_FACE ( 'NONE', ( #116 ), #634, .T. ) ;
#350 = CARTESIAN_POINT ( 'NONE',  ( 3.000000000000000000, 2.750000000000000000, 0.000000000000000000 ) ) ;
#351 = DIRECTION ( 'NONE',  ( 0.000000000000000000, 0.000000000000000000, 1.000000000000000000 ) ) ;
#352 = ADVANCED_BREP_SHAPE_REPRESENTATION ( 'socket head cap screw_iso', ( #179, #39 ), #720 ) ;
#353 = DIRECTION ( 'NONE',  ( 0.000000000000000000, 0.000000000000000000, 1.000000000000000000 ) ) ;
#354 = AXIS2_PLACEMENT_3D ( 'NONE', #3, #687, #68 ) ;
#355 = DIRECTION ( 'NONE',  ( 0.000000000000000000, 0.000000000000000000, 1.000000000000000000 ) ) ;
#356 = ORIENTED_EDGE ( 'NONE', *, *, #64, .T. ) ;
#357 = CARTESIAN_POINT ( 'NONE',  ( 1.300000000000000044, 1.478016689125441596, -1.409462824231155764E-15 ) ) ;
#358 = EDGE_CURVE ( 'NONE', #440, #541, #572, .T. ) ;
#359 = EDGE_LOOP ( 'NONE', ( #245, #423, #635, #397, #420 ) ) ;
#360 = DIRECTION ( 'NONE',  ( 0.000000000000000000, 0.5000000000000009992, 0.8660254037844380415 ) ) ;
#361 = ORIENTED_EDGE ( 'NONE', *, *, #456, .T. ) ;
#362 = LINE ( 'NONE', #308, #332 ) ;
#363 = CARTESIAN_POINT ( 'NONE',  ( 1.300000000000000044, 1.478016689125441596, -1.409462824231155764E-15 ) ) ;
#364 = LINE ( 'NONE', #468, #49 ) ;
#365 = CIRCLE ( 'NONE', #441, 1.280000000000000027 ) ;
#366 = CARTESIAN_POINT ( 'NONE',  ( 0.000000000000000000, 0.7390083445627187997, -1.280000000000000693 ) ) ;
#367 = CIRCLE ( 'NONE', #399, 1.280000000000000027 ) ;
#368 = TOROIDAL_SURFACE ( 'NONE', #607, 1.600000000000000533, 0.1000000000000000056 ) ;
#369 = VERTEX_POINT ( 'NONE', #126 ) ;
#370 = DIRECTION ( 'NONE',  ( -1.000000000000000000, -0.000000000000000000, -0.000000000000000000 ) ) ;
#371 = CARTESIAN_POINT ( 'NONE',  ( 3.000000000000002665, 0.000000000000000000, 0.000000000000000000 ) ) ;
#372 = DIRECTION ( 'NONE',  ( 1.000000000000000000, 0.000000000000000000, 0.000000000000000000 ) ) ;
#373 = FACE_OUTER_BOUND ( 'NONE', #280, .T. ) ;
#374 = CARTESIAN_POINT ( 'NONE',  ( 1.300000000000000044, 1.314525273895014867E-15, 1.280000000000000915 ) ) ;
#375 = DIRECTION ( 'NONE',  ( -0.000000000000000000, 0.8660254037844393737, 0.4999999999999987232 ) ) ;
#376 = CIRCLE ( 'NONE', #442, 1.280000000000000027 ) ;
#377 = EDGE_LOOP ( 'NONE', ( #538, #675, #313, #105 ) ) ;
#378 = PLANE ( 'NONE',  #221 ) ;
#379 = EDGE_CURVE ( 'NONE', #711, #243, #61, .T. ) ;
#380 = ORIENTED_EDGE ( 'NONE', *, *, #304, .F. ) ;
#381 = DIRECTION ( 'NONE',  ( 0.000000000000000000, 0.000000000000000000, 1.000000000000000000 ) ) ;
#382 = EDGE_CURVE ( 'NONE', #164, #72, #65, .T. ) ;
#383 = ORIENTED_EDGE ( 'NONE', *, *, #297, .T. ) ;
#384 = FACE_OUTER_BOUND ( 'NONE', #426, .T. ) ;
#385 = ORIENTED_EDGE ( 'NONE', *, *, #24, .T. ) ;
#386 = AXIS2_PLACEMENT_3D ( 'NONE', #653, #480, #205 ) ;
#387 = AXIS2_PLACEMENT_3D ( 'NONE', #524, #301, #4 ) ;
#388 = LINE ( 'NONE', #537, #213 ) ;
#389 = ADVANCED_FACE ( 'NONE', ( #306 ), #515, .T. ) ;
#390 = DIRECTION ( 'NONE',  ( 0.000000000000000000, 0.000000000000000000, 1.000000000000000000 ) ) ;
#391 = ORIENTED_EDGE ( 'NONE', *, *, #437, .F. ) ;
#392 =( NAMED_UNIT ( * ) SI_UNIT ( $, .STERADIAN. ) SOLID_ANGLE_UNIT ( ) );
#393 = DIRECTION ( 'NONE',  ( 0.000000000000000000, -0.5000000000000009992, -0.8660254037844380415 ) ) ;
#394 = VERTEX_POINT ( 'NONE', #677 ) ;
#395 = CARTESIAN_POINT ( 'NONE',  ( -31.74999999999995737, 3.367778697655221012E-16, -2.750000000000000000 ) ) ;
#396 = FACE_BOUND ( 'NONE', #414, .T. ) ;
#397 = ORIENTED_EDGE ( 'NONE', *, *, #554, .F. ) ;
#398 = DIRECTION ( 'NONE',  ( -1.000000000000000000, -0.000000000000000000, -0.000000000000000000 ) ) ;
#399 = AXIS2_PLACEMENT_3D ( 'NONE', #346, #678, #341 ) ;
#400 = DIRECTION ( 'NONE',  ( -1.000000000000000000, -0.000000000000000000, -0.000000000000000000 ) ) ;
#401 = CARTESIAN_POINT ( 'NONE',  ( 0.000000000000000000, 0.000000000000000000, 0.000000000000000000 ) ) ;
#402 = CARTESIAN_POINT ( 'NONE',  ( 1.300000000000000044, 1.478016689125441596, -1.409462824231155764E-15 ) ) ;
#403 = DIRECTION ( 'NONE',  ( 0.000000000000000000, -0.5000000000000009992, -0.8660254037844380415 ) ) ;
#404 = CARTESIAN_POINT ( 'NONE',  ( 3.099999999999998757, 0.000000000000000000, 1.500000000000000444 ) ) ;
#405 = ADVANCED_FACE ( 'NONE', ( #114, #293 ), #739, .T. ) ;
#406 = VECTOR ( 'NONE', #594, 1000.000000000000114 ) ;
#407 = AXIS2_PLACEMENT_3D ( 'NONE', #180, #56, #461 ) ;
#408 = ORIENTED_EDGE ( 'NONE', *, *, #143, .F. ) ;
#409 = DIRECTION ( 'NONE',  ( 0.000000000000000000, 0.4999999999999985012, -0.8660254037844394848 ) ) ;
#410 = DIRECTION ( 'NONE',  ( 0.000000000000000000, 0.8660254037844380415, -0.5000000000000009992 ) ) ;
#411 = VERTEX_POINT ( 'NONE', #204 ) ;
#412 = DIRECTION ( 'NONE',  ( -1.000000000000000000, 0.000000000000000000, 0.000000000000000000 ) ) ;
#413 = ORIENTED_EDGE ( 'NONE', *, *, #203, .F. ) ;
#414 = EDGE_LOOP ( 'NONE', ( #136, #323, #561, #155, #287, #486 ) ) ;
#415 = FACE_OUTER_BOUND ( 'NONE', #458, .T. ) ;
#416 = AXIS2_PLACEMENT_3D ( 'NONE', #492, #158, #228 ) ;
#417 = CARTESIAN_POINT ( 'NONE',  ( 1.300000000000000044, 0.7390083445627229075, 1.280000000000000027 ) ) ;
#418 = AXIS2_PLACEMENT_3D ( 'NONE', #63, #128, #469 ) ;
#419 = EDGE_CURVE ( 'NONE', #35, #601, #274, .T. ) ;
#420 = ORIENTED_EDGE ( 'NONE', *, *, #167, .T. ) ;
#421 = DIRECTION ( 'NONE',  ( 0.000000000000000000, -1.000000000000000000, 1.026972870230479595E-15 ) ) ;
#422 = FACE_OUTER_BOUND ( 'NONE', #593, .T. ) ;
#423 = ORIENTED_EDGE ( 'NONE', *, *, #123, .F. ) ;
#424 = DIRECTION ( 'NONE',  ( 0.000000000000000000, -1.000000000000000000, 0.000000000000000000 ) ) ;
#425 = CARTESIAN_POINT ( 'NONE',  ( 1.300000000000000044, -0.7390083445627199099, 1.280000000000001581 ) ) ;
#426 = EDGE_LOOP ( 'NONE', ( #463, #210, #8 ) ) ;
#427 = DIRECTION ( 'NONE',  ( -1.000000000000000000, -0.000000000000000000, -0.000000000000000000 ) ) ;
#428 = EDGE_CURVE ( 'NONE', #460, #535, #212, .T. ) ;
#429 = ORIENTED_EDGE ( 'NONE', *, *, #566, .T. ) ;
#430 = VECTOR ( 'NONE', #728, 1000.000000000000114 ) ;
#431 = AXIS2_PLACEMENT_3D ( 'NONE', #174, #241, #630 ) ;
#432 = VERTEX_POINT ( 'NONE', #714 ) ;
#433 = CARTESIAN_POINT ( 'NONE',  ( 1.300000000000000044, -1.478016689125442484, 2.059984127722458425E-15 ) ) ;
#434 = EDGE_CURVE ( 'NONE', #320, #525, #130, .T. ) ;
#435 = VERTEX_POINT ( 'NONE', #374 ) ;
#436 = FILL_AREA_STYLE ('',( #673 ) ) ;
#437 = EDGE_CURVE ( 'NONE', #320, #35, #142, .T. ) ;
#438 = ORIENTED_EDGE ( 'NONE', *, *, #479, .T. ) ;
#439 = CARTESIAN_POINT ( 'NONE',  ( 1.300000000000000044, 0.7390083445627229075, 1.280000000000000027 ) ) ;
#440 = VERTEX_POINT ( 'NONE', #467 ) ;
#441 = AXIS2_PLACEMENT_3D ( 'NONE', #163, #610, #390 ) ;
#442 = AXIS2_PLACEMENT_3D ( 'NONE', #253, #466, #644 ) ;
#443 = CARTESIAN_POINT ( 'NONE',  ( 0.1499999999999973577, 3.367778697655221012E-16, -2.750000000000000000 ) ) ;
#444 = SURFACE_SIDE_STYLE ('',( #166 ) ) ;
#445 = ORIENTED_EDGE ( 'NONE', *, *, #167, .F. ) ;
#446 = DIRECTION ( 'NONE',  ( 0.000000000000000000, 1.224646799147353207E-16, 1.000000000000000000 ) ) ;
#447 = DIRECTION ( 'NONE',  ( -1.000000000000000000, 0.000000000000000000, -0.000000000000000000 ) ) ;
#448 = VERTEX_POINT ( 'NONE', #257 ) ;
#449 = DIRECTION ( 'NONE',  ( 0.000000000000000000, 0.000000000000000000, 1.000000000000000000 ) ) ;
#450 = ADVANCED_FACE ( 'NONE', ( #521 ), #472, .T. ) ;
#451 = CARTESIAN_POINT ( 'NONE',  ( 1.300000000000000044, -0.7390083445627199099, 1.280000000000001581 ) ) ;
#452 = VECTOR ( 'NONE', #403, 1000.000000000000114 ) ;
#453 = DIRECTION ( 'NONE',  ( -1.000000000000000000, -0.000000000000000000, -0.000000000000000000 ) ) ;
#454 = DIRECTION ( 'NONE',  ( -1.000000000000000000, -0.000000000000000000, -0.000000000000000000 ) ) ;
#455 = LINE ( 'NONE', #237, #452 ) ;
#456 = EDGE_CURVE ( 'NONE', #369, #716, #568, .T. ) ;
#457 = CARTESIAN_POINT ( 'NONE',  ( 1.300000000000000044, 0.000000000000000000, 0.000000000000000000 ) ) ;
#458 = EDGE_LOOP ( 'NONE', ( #267, #181, #611, #263, #555 ) ) ;
#459 = CARTESIAN_POINT ( 'NONE',  ( 3.099999999999998757, 0.000000000000000000, 0.000000000000000000 ) ) ;
#460 = VERTEX_POINT ( 'NONE', #57 ) ;
#461 = DIRECTION ( 'NONE',  ( 0.000000000000000000, 0.000000000000000000, 1.000000000000000000 ) ) ;
#462 = AXIS2_PLACEMENT_3D ( 'NONE', #234, #692, #122 ) ;
#463 = ORIENTED_EDGE ( 'NONE', *, *, #150, .F. ) ;
#464 = CARTESIAN_POINT ( 'NONE',  ( -31.74999999999995737, 0.000000000000000000, 0.000000000000000000 ) ) ;
#465 = ORIENTED_EDGE ( 'NONE', *, *, #5, .F. ) ;
#466 = DIRECTION ( 'NONE',  ( -1.000000000000000000, -0.000000000000000000, -0.000000000000000000 ) ) ;
#467 = CARTESIAN_POINT ( 'NONE',  ( 1.300000000000000044, -1.478016689125442484, 2.059984127722458425E-15 ) ) ;
#468 = CARTESIAN_POINT ( 'NONE',  ( 1.300000000000000044, 0.000000000000000000, 1.280000000000000027 ) ) ;
#469 = DIRECTION ( 'NONE',  ( 0.000000000000000000, 0.000000000000000000, 1.000000000000000000 ) ) ;
#470 = EDGE_CURVE ( 'NONE', #164, #666, #625, .T. ) ;
#471 = ORIENTED_EDGE ( 'NONE', *, *, #286, .F. ) ;
#472 = CYLINDRICAL_SURFACE ( 'NONE', #51, 2.750000000000000000 ) ;
#473 = CARTESIAN_POINT ( 'NONE',  ( 1.300000000000000044, -0.7390083445627199099, 1.280000000000001581 ) ) ;
#474 = CARTESIAN_POINT ( 'NONE',  ( 10.99999999999999645, 0.000000000000000000, 1.219500000000000028 ) ) ;
#475 = AXIS2_PLACEMENT_3D ( 'NONE', #563, #14, #449 ) ;
#476 = CARTESIAN_POINT ( 'NONE',  ( 3.099999999999998757, 0.000000000000000000, 0.000000000000000000 ) ) ;
#477 = CARTESIAN_POINT ( 'NONE',  ( 1.300000000000000044, -1.478016689125442484, 2.059984127722458425E-15 ) ) ;
#478 = ORIENTED_EDGE ( 'NONE', *, *, #379, .T. ) ;
#479 = EDGE_CURVE ( 'NONE', #29, #292, #262, .T. ) ;
#480 = DIRECTION ( 'NONE',  ( 1.000000000000000000, 0.000000000000000000, 0.000000000000000000 ) ) ;
#481 = DIRECTION ( 'NONE',  ( 0.000000000000000000, 1.000000000000000000, -1.224646799147353207E-16 ) ) ;
#482 = ORIENTED_EDGE ( 'NONE', *, *, #710, .F. ) ;
#483 = DIRECTION ( 'NONE',  ( 0.000000000000000000, -1.000000000000000000, 1.173683280263405561E-15 ) ) ;
#484 = VECTOR ( 'NONE', #600, 1000.000000000000000 ) ;
#485 = AXIS2_PLACEMENT_3D ( 'NONE', #569, #300, #62 ) ;
#486 = ORIENTED_EDGE ( 'NONE', *, *, #725, .F. ) ;
#487 = FACE_OUTER_BOUND ( 'NONE', #661, .T. ) ;
#488 = ORIENTED_EDGE ( 'NONE', *, *, #668, .F. ) ;
#489 = CARTESIAN_POINT ( 'NONE',  ( 1.300000000000000044, 0.7390083445627187997, -1.280000000000000693 ) ) ;
#490 = EDGE_CURVE ( 'NONE', #601, #541, #367, .T. ) ;
#491 = ORIENTED_EDGE ( 'NONE', *, *, #304, .T. ) ;
#492 = CARTESIAN_POINT ( 'NONE',  ( 3.000000000000000000, 0.000000000000000000, 0.000000000000000000 ) ) ;
#493 = CARTESIAN_POINT ( 'NONE',  ( 0.000000000000000000, 0.000000000000000000, 0.000000000000000000 ) ) ;
#494 = ORIENTED_EDGE ( 'NONE', *, *, #710, .T. ) ;
#495 = TOROIDAL_SURFACE ( 'NONE', #704, 2.600000000000000089, 0.1499999999999999944 ) ;
#496 = DIRECTION ( 'NONE',  ( -1.000000000000000000, -0.000000000000000000, -0.000000000000000000 ) ) ;
#497 = DIRECTION ( 'NONE',  ( -1.000000000000000000, -0.000000000000000000, -0.000000000000000000 ) ) ;
#498 = ORIENTED_EDGE ( 'NONE', *, *, #562, .F. ) ;
#499 = PRODUCT_CONTEXT ( 'NONE', #138, 'mechanical' ) ;
#500 = EDGE_CURVE ( 'NONE', #435, #616, #172, .T. ) ;
#501 = ORIENTED_EDGE ( 'NONE', *, *, #456, .F. ) ;
#502 = EDGE_CURVE ( 'NONE', #608, #188, #455, .T. ) ;
#503 = DIRECTION ( 'NONE',  ( 0.000000000000000000, 1.000000000000000000, -1.026972870230479595E-15 ) ) ;
#504 = DIRECTION ( 'NONE',  ( 0.000000000000000000, 0.000000000000000000, 1.000000000000000000 ) ) ;
#505 = DIRECTION ( 'NONE',  ( 0.000000000000000000, 0.000000000000000000, -1.000000000000000000 ) ) ;
#506 = AXIS2_PLACEMENT_3D ( 'NONE', #417, #640, #513 ) ;
#507 = FACE_OUTER_BOUND ( 'NONE', #631, .T. ) ;
#508 = EDGE_CURVE ( 'NONE', #32, #460, #175, .T. ) ;
#509 = FACE_OUTER_BOUND ( 'NONE', #359, .T. ) ;
#510 = LINE ( 'NONE', #474, #98 ) ;
#511 = DIRECTION ( 'NONE',  ( 0.000000000000000000, 0.000000000000000000, 1.000000000000000000 ) ) ;
#512 = ORIENTED_EDGE ( 'NONE', *, *, #337, .T. ) ;
#513 = DIRECTION ( 'NONE',  ( 0.000000000000000000, 0.000000000000000000, 1.000000000000000000 ) ) ;
#514 = ORIENTED_EDGE ( 'NONE', *, *, #725, .T. ) ;
#515 = PLANE ( 'NONE',  #475 ) ;
#516 = CONICAL_SURFACE ( 'NONE', #679, 1.280000000000000027, 1.047197551196593857 ) ;
#517 = VERTEX_POINT ( 'NONE', #674 ) ;
#518 = FACE_OUTER_BOUND ( 'NONE', #377, .T. ) ;
#519 = AXIS2_PLACEMENT_3D ( 'NONE', #192, #372, #23 ) ;
#520 = EDGE_LOOP ( 'NONE', ( #478, #545 ) ) ;
#521 = FACE_OUTER_BOUND ( 'NONE', #580, .T. ) ;
#522 = EDGE_CURVE ( 'NONE', #448, #535, #597, .T. ) ;
#523 = CARTESIAN_POINT ( 'NONE',  ( 10.99999999999999645, 1.493456771560197319E-16, -1.219500000000000028 ) ) ;
#524 = CARTESIAN_POINT ( 'NONE',  ( 10.99999999999999645, 0.000000000000000000, 0.000000000000000000 ) ) ;
#525 = VERTEX_POINT ( 'NONE', #60 ) ;
#526 = ADVANCED_FACE ( 'NONE', ( #507 ), #224, .T. ) ;
#527 = DIRECTION ( 'NONE',  ( 0.000000000000000000, 0.000000000000000000, -1.000000000000000000 ) ) ;
#528 = CARTESIAN_POINT ( 'NONE',  ( 0.000000000000000000, -1.478016689125442484, 2.059984127722458425E-15 ) ) ;
#529 = EDGE_LOOP ( 'NONE', ( #408, #77, #303, #198 ) ) ;
#530 = DIRECTION ( 'NONE',  ( -1.000000000000000000, 0.000000000000000000, 0.000000000000000000 ) ) ;
#531 = VECTOR ( 'NONE', #734, 1000.000000000000000 ) ;
#532 = CYLINDRICAL_SURFACE ( 'NONE', #160, 1.500000000000000444 ) ;
#533 = VECTOR ( 'NONE', #453, 1000.000000000000000 ) ;
#534 = EDGE_CURVE ( 'NONE', #432, #292, #240, .T. ) ;
#535 = VERTEX_POINT ( 'NONE', #735 ) ;
#536 = CARTESIAN_POINT ( 'NONE',  ( 1.300000000000000044, 0.7390083445627229075, 1.280000000000000027 ) ) ;
#537 = CARTESIAN_POINT ( 'NONE',  ( 0.000000000000000000, 1.478016689125441596, -1.409462824231155764E-15 ) ) ;
#538 = ORIENTED_EDGE ( 'NONE', *, *, #251, .F. ) ;
#539 = CARTESIAN_POINT ( 'NONE',  ( 0.1499999999999973577, 0.000000000000000000, 2.600000000000000089 ) ) ;
#540 = LINE ( 'NONE', #321, #71 ) ;
#541 = VERTEX_POINT ( 'NONE', #686 ) ;
#542 = DIRECTION ( 'NONE',  ( 0.000000000000000000, 0.000000000000000000, 1.000000000000000000 ) ) ;
#543 = CIRCLE ( 'NONE', #329, 1.500000000000000444 ) ;
#544 = AXIS2_PLACEMENT_3D ( 'NONE', #539, #424, #698 ) ;
#545 = ORIENTED_EDGE ( 'NONE', *, *, #133, .T. ) ;
#546 = ADVANCED_FACE ( 'NONE', ( #396, #229 ), #285, .T. ) ;
#547 = CARTESIAN_POINT ( 'NONE',  ( 2.999999999999999112, 1.959434878635765723E-16, 1.600000000000000533 ) ) ;
#548 = EDGE_LOOP ( 'NONE', ( #514, #445, #652, #391, #92 ) ) ;
#549 = DIRECTION ( 'NONE',  ( 0.000000000000000000, 0.000000000000000000, 1.000000000000000000 ) ) ;
#550 = EDGE_CURVE ( 'NONE', #535, #448, #741, .T. ) ;
#551 = ORIENTED_EDGE ( 'NONE', *, *, #337, .F. ) ;
#552 =( LENGTH_UNIT ( ) NAMED_UNIT ( * ) SI_UNIT ( .MILLI., .METRE. ) );
#553 = DIRECTION ( 'NONE',  ( 0.000000000000000000, 0.000000000000000000, 1.000000000000000000 ) ) ;
#554 = EDGE_CURVE ( 'NONE', #69, #601, #312, .T. ) ;
#555 = ORIENTED_EDGE ( 'NONE', *, *, #646, .T. ) ;
#556 = VECTOR ( 'NONE', #118, 1000.000000000000000 ) ;
#557 = DIRECTION ( 'NONE',  ( -1.000000000000000000, -0.000000000000000000, -0.000000000000000000 ) ) ;
#558 = VECTOR ( 'NONE', #87, 1000.000000000000000 ) ;
#559 = DIRECTION ( 'NONE',  ( -1.000000000000000000, -0.000000000000000000, -0.000000000000000000 ) ) ;
#560 = PRODUCT_DEFINITION_SHAPE ( 'NONE', 'NONE',  #310 ) ;
#561 = ORIENTED_EDGE ( 'NONE', *, *, #470, .T. ) ;
#562 = EDGE_CURVE ( 'NONE', #666, #517, #259, .T. ) ;
#563 = CARTESIAN_POINT ( 'NONE',  ( 1.300000000000000044, 0.7390083445627229075, 1.280000000000000027 ) ) ;
#564 = CARTESIAN_POINT ( 'NONE',  ( -31.74999999999995737, 0.000000000000000000, 0.000000000000000000 ) ) ;
#565 = CARTESIAN_POINT ( 'NONE',  ( 1.300000000000000044, 1.478016689125441596, -1.409462824231155764E-15 ) ) ;
#566 = EDGE_CURVE ( 'NONE', #716, #369, #184, .T. ) ;
#567 = CONICAL_SURFACE ( 'NONE', #10, 1.219500000000000028, 0.7853981633974683740 ) ;
#568 = CIRCLE ( 'NONE', #621, 1.219500000000000028 ) ;
#569 = CARTESIAN_POINT ( 'NONE',  ( 10.71950000000000713, 0.000000000000000000, 0.000000000000000000 ) ) ;
#570 = EDGE_CURVE ( 'NONE', #40, #601, #16, .T. ) ;
#571 = DIRECTION ( 'NONE',  ( 0.000000000000000000, -1.000000000000000000, 1.173683280263405561E-15 ) ) ;
#572 = LINE ( 'NONE', #178, #319 ) ;
#573 = EDGE_LOOP ( 'NONE', ( #429, #256, #270, #191 ) ) ;
#574 = DIRECTION ( 'NONE',  ( -1.000000000000000000, -0.000000000000000000, -0.000000000000000000 ) ) ;
#575 = ORIENTED_EDGE ( 'NONE', *, *, #434, .F. ) ;
#576 = DIRECTION ( 'NONE',  ( 0.000000000000000000, 0.4999999999999986677, -0.8660254037844393737 ) ) ;
#577 = ORIENTED_EDGE ( 'NONE', *, *, #500, .F. ) ;
#578 = DIRECTION ( 'NONE',  ( 0.000000000000000000, -1.000000000000000000, 0.000000000000000000 ) ) ;
#579 = EDGE_CURVE ( 'NONE', #525, #35, #376, .T. ) ;
#580 = EDGE_LOOP ( 'NONE', ( #282, #690, #383, #252 ) ) ;
#581 = TOROIDAL_SURFACE ( 'NONE', #261, 1.600000000000000533, 0.1000000000000000056 ) ;
#582 = CLOSED_SHELL ( 'NONE', ( #91, #238, #603, #193, #526, #450, #546, #660, #405, #694, #42, #590, #112, #156, #615, #119, #260, #78, #331, #717, #227, #658, #349, #389, #626, #33, #217 ) ) ;
#583 = AXIS2_PLACEMENT_3D ( 'NONE', #724, #278, #284 ) ;
#584 = CARTESIAN_POINT ( 'NONE',  ( 1.300000000000000044, 0.000000000000000000, 0.000000000000000000 ) ) ;
#585 = PLANE ( 'NONE',  #506 ) ;
#586 = VECTOR ( 'NONE', #44, 1000.000000000000114 ) ;
#587 = ORIENTED_EDGE ( 'NONE', *, *, #490, .F. ) ;
#588 = CARTESIAN_POINT ( 'NONE',  ( 10.99999999999999645, 0.000000000000000000, 0.000000000000000000 ) ) ;
#589 = FACE_OUTER_BOUND ( 'NONE', #101, .T. ) ;
#590 = ADVANCED_FACE ( 'NONE', ( #700 ), #137, .T. ) ;
#591 = DIRECTION ( 'NONE',  ( 0.000000000000000000, -1.000000000000000000, 1.173683280263405561E-15 ) ) ;
#592 = DIRECTION ( 'NONE',  ( 0.000000000000000000, -0.4999999999999985012, 0.8660254037844394848 ) ) ;
#593 = EDGE_LOOP ( 'NONE', ( #413, #52, #488 ) ) ;
#594 = DIRECTION ( 'NONE',  ( 0.000000000000000000, 0.4999999999999986677, -0.8660254037844393737 ) ) ;
#595 = MECHANICAL_DESIGN_GEOMETRIC_PRESENTATION_REPRESENTATION (  '', ( #318 ), #247 ) ;
#596 = DIRECTION ( 'NONE',  ( 0.000000000000000000, -0.5000000000000009992, -0.8660254037844380415 ) ) ;
#597 = CIRCLE ( 'NONE', #606, 2.600000000000000089 ) ;
#598 = AXIS2_PLACEMENT_3D ( 'NONE', #226, #727, #322 ) ;
#599 = EDGE_LOOP ( 'NONE', ( #22, #659, #230, #736 ) ) ;
#600 = DIRECTION ( 'NONE',  ( -1.000000000000000000, -0.000000000000000000, -0.000000000000000000 ) ) ;
#601 = VERTEX_POINT ( 'NONE', #19 ) ;
#602 = ORIENTED_EDGE ( 'NONE', *, *, #88, .F. ) ;
#603 = ADVANCED_FACE ( 'NONE', ( #518 ), #368, .F. ) ;
#604 = CARTESIAN_POINT ( 'NONE',  ( 0.000000000000000000, -0.7390083445627199099, 1.280000000000001581 ) ) ;
#605 = VECTOR ( 'NONE', #591, 1000.000000000000000 ) ;
#606 = AXIS2_PLACEMENT_3D ( 'NONE', #401, #50, #168 ) ;
#607 = AXIS2_PLACEMENT_3D ( 'NONE', #459, #702, #689 ) ;
#608 = VERTEX_POINT ( 'NONE', #195 ) ;
#609 = CARTESIAN_POINT ( 'NONE',  ( 10.99999999999999645, 0.000000000000000000, 1.219500000000000028 ) ) ;
#610 = DIRECTION ( 'NONE',  ( -1.000000000000000000, -0.000000000000000000, -0.000000000000000000 ) ) ;
#611 = ORIENTED_EDGE ( 'NONE', *, *, #434, .T. ) ;
#612 = LINE ( 'NONE', #395, #558 ) ;
#613 = LINE ( 'NONE', #41, #663 ) ;
#614 = UNCERTAINTY_MEASURE_WITH_UNIT (LENGTH_MEASURE( 1.000000000000000082E-05 ), #552, 'distance_accuracy_value', 'NONE');
#615 = ADVANCED_FACE ( 'NONE', ( #415 ), #182, .T. ) ;
#616 = VERTEX_POINT ( 'NONE', #316 ) ;
#617 =( LENGTH_UNIT ( ) NAMED_UNIT ( * ) SI_UNIT ( .MILLI., .METRE. ) );
#618 = FACE_OUTER_BOUND ( 'NONE', #599, .T. ) ;
#619 = EDGE_CURVE ( 'NONE', #29, #711, #299, .T. ) ;
#620 = EDGE_LOOP ( 'NONE', ( #338, #307, #225, #66 ) ) ;
#621 = AXIS2_PLACEMENT_3D ( 'NONE', #683, #232, #351 ) ;
#622 = DIRECTION ( 'NONE',  ( -1.000000000000000000, -0.000000000000000000, -0.000000000000000000 ) ) ;
#623 = CARTESIAN_POINT ( 'NONE',  ( -31.74999999999995737, 0.000000000000000000, 2.750000000000000000 ) ) ;
#624 = CARTESIAN_POINT ( 'NONE',  ( 0.1499999999999973577, 0.000000000000000000, 0.000000000000000000 ) ) ;
#625 = LINE ( 'NONE', #2, #173 ) ;
#626 = ADVANCED_FACE ( 'NONE', ( #589 ), #585, .T. ) ;
#627 = FACE_OUTER_BOUND ( 'NONE', #695, .T. ) ;
#628 = COLOUR_RGB ( '',0.7921568627450980005, 0.8196078431372548767, 0.9333333333333333481 ) ;
#629 = CIRCLE ( 'NONE', #681, 2.750000000000000000 ) ;
#630 = DIRECTION ( 'NONE',  ( 0.000000000000000000, 1.000000000000000000, -1.173683280263405561E-15 ) ) ;
#631 = EDGE_LOOP ( 'NONE', ( #347, #638, #438, #20 ) ) ;
#632 = DIRECTION ( 'NONE',  ( 0.000000000000000000, 0.000000000000000000, -1.000000000000000000 ) ) ;
#633 = VERTEX_POINT ( 'NONE', #366 ) ;
#634 = PLANE ( 'NONE',  #407 ) ;
#635 = ORIENTED_EDGE ( 'NONE', *, *, #12, .F. ) ;
#636 = CARTESIAN_POINT ( 'NONE',  ( 0.000000000000000000, -1.478016689125442484, 2.059984127722458425E-15 ) ) ;
#637 = EDGE_CURVE ( 'NONE', #716, #432, #510, .T. ) ;
#638 = ORIENTED_EDGE ( 'NONE', *, *, #143, .T. ) ;
#639 = EDGE_LOOP ( 'NONE', ( #207, #47, #577, #161, #697 ) ) ;
#640 = DIRECTION ( 'NONE',  ( -1.000000000000000000, 0.000000000000000000, 0.000000000000000000 ) ) ;
#641 = AXIS2_PLACEMENT_3D ( 'NONE', #493, #447, #109 ) ;
#642 = AXIS2_PLACEMENT_3D ( 'NONE', #9, #412, #648 ) ;
#643 = PLANE ( 'NONE',  #84 ) ;
#644 = DIRECTION ( 'NONE',  ( 0.000000000000000000, 0.000000000000000000, 1.000000000000000000 ) ) ;
#645 = EDGE_LOOP ( 'NONE', ( #93, #11, #89, #290 ) ) ;
#646 = EDGE_CURVE ( 'NONE', #616, #72, #125, .T. ) ;
#647 = DIRECTION ( 'NONE',  ( -1.000000000000000000, -0.000000000000000000, -0.000000000000000000 ) ) ;
#648 = DIRECTION ( 'NONE',  ( 0.000000000000000000, 0.000000000000000000, 1.000000000000000000 ) ) ;
#649 = ORIENTED_EDGE ( 'NONE', *, *, #470, .F. ) ;
#650 = CARTESIAN_POINT ( 'NONE',  ( 1.300000000000000044, -0.7390083445627233516, -1.279999999999998916 ) ) ;
#651 = DIRECTION ( 'NONE',  ( -0.000000000000000000, 1.000000000000000000, 1.224646799147353207E-16 ) ) ;
#652 = ORIENTED_EDGE ( 'NONE', *, *, #684, .F. ) ;
#653 = CARTESIAN_POINT ( 'NONE',  ( 0.1499999999999973577, 0.000000000000000000, 0.000000000000000000 ) ) ;
#654 = LINE ( 'NONE', #676, #586 ) ;
#655 = AXIS2_PLACEMENT_3D ( 'NONE', #264, #427, #81 ) ;
#656 = EDGE_LOOP ( 'NONE', ( #471, #551 ) ) ;
#657 =( NAMED_UNIT ( * ) PLANE_ANGLE_UNIT ( ) SI_UNIT ( $, .RADIAN. ) );
#658 = ADVANCED_FACE ( 'NONE', ( #422 ), #67, .T. ) ;
#659 = ORIENTED_EDGE ( 'NONE', *, *, #24, .F. ) ;
#660 = ADVANCED_FACE ( 'NONE', ( #140 ), #246, .T. ) ;
#661 = EDGE_LOOP ( 'NONE', ( #670, #356, #491, #220, #145 ) ) ;
#662 = CARTESIAN_POINT ( 'NONE',  ( 0.1499999999999973577, 0.000000000000000000, 0.000000000000000000 ) ) ;
#663 = VECTOR ( 'NONE', #281, 1000.000000000000000 ) ;
#664 = VECTOR ( 'NONE', #76, 999.9999999999998863 ) ;
#665 = CIRCLE ( 'NONE', #707, 0.1000000000000000472 ) ;
#666 = VERTEX_POINT ( 'NONE', #636 ) ;
#667 = CARTESIAN_POINT ( 'NONE',  ( 0.1499999999999973577, 3.184081677783118191E-16, -2.600000000000000089 ) ) ;
#668 = EDGE_CURVE ( 'NONE', #188, #440, #362, .T. ) ;
#669 = FACE_OUTER_BOUND ( 'NONE', #620, .T. ) ;
#670 = ORIENTED_EDGE ( 'NONE', *, *, #570, .F. ) ;
#671 = CARTESIAN_POINT ( 'NONE',  ( 0.000000000000000000, 1.478016689125441596, -1.409462824231155764E-15 ) ) ;
#672 = EDGE_CURVE ( 'NONE', #394, #699, #612, .T. ) ;
#673 = FILL_AREA_STYLE_COLOUR ( '', #628 ) ;
#674 = CARTESIAN_POINT ( 'NONE',  ( 0.000000000000000000, -0.7390083445627233516, -1.279999999999998916 ) ) ;
#675 = ORIENTED_EDGE ( 'NONE', *, *, #740, .T. ) ;
#676 = CARTESIAN_POINT ( 'NONE',  ( 1.300000000000000044, 1.478016689125441596, -1.409462824231155764E-15 ) ) ;
#677 = CARTESIAN_POINT ( 'NONE',  ( 3.000000000000002665, 3.367778697655221012E-16, -2.750000000000000000 ) ) ;
#678 = DIRECTION ( 'NONE',  ( -1.000000000000000000, -0.000000000000000000, -0.000000000000000000 ) ) ;
#679 = AXIS2_PLACEMENT_3D ( 'NONE', #584, #647, #265 ) ;
#680 = AXIS2_PLACEMENT_3D ( 'NONE', #624, #59, #355 ) ;
#681 = AXIS2_PLACEMENT_3D ( 'NONE', #244, #622, #187 ) ;
#682 = CARTESIAN_POINT ( 'NONE',  ( 1.300000000000000044, -0.7390083445627199099, 1.280000000000001581 ) ) ;
#683 = CARTESIAN_POINT ( 'NONE',  ( 10.99999999999999645, 0.000000000000000000, 0.000000000000000000 ) ) ;
#684 = EDGE_CURVE ( 'NONE', #35, #69, #654, .T. ) ;
#685 = PLANE ( 'NONE',  #431 ) ;
#686 = CARTESIAN_POINT ( 'NONE',  ( 1.300000000000000044, -1.108512516844083029, -0.6399999999999986811 ) ) ;
#687 = DIRECTION ( 'NONE',  ( -1.000000000000000000, -0.000000000000000000, -0.000000000000000000 ) ) ;
#688 = ORIENTED_EDGE ( 'NONE', *, *, #566, .F. ) ;
#689 = DIRECTION ( 'NONE',  ( 0.000000000000000000, 0.000000000000000000, -1.000000000000000000 ) ) ;
#690 = ORIENTED_EDGE ( 'NONE', *, *, #672, .T. ) ;
#691 = TOROIDAL_SURFACE ( 'NONE', #73, 2.600000000000000089, 0.1499999999999999944 ) ;
#692 = DIRECTION ( 'NONE',  ( 1.000000000000000000, 0.000000000000000000, 0.000000000000000000 ) ) ;
#693 = VECTOR ( 'NONE', #165, 1000.000000000000114 ) ;
#694 = ADVANCED_FACE ( 'NONE', ( #266 ), #532, .T. ) ;
#695 = EDGE_LOOP ( 'NONE', ( #649, #602, #170, #153, #494 ) ) ;
#696 = CARTESIAN_POINT ( 'NONE',  ( 3.099999999999998757, 0.000000000000000000, -1.600000000000000533 ) ) ;
#697 = ORIENTED_EDGE ( 'NONE', *, *, #88, .T. ) ;
#698 = DIRECTION ( 'NONE',  ( 0.000000000000000000, 0.000000000000000000, -1.000000000000000000 ) ) ;
#699 = VERTEX_POINT ( 'NONE', #443 ) ;
#700 = FACE_OUTER_BOUND ( 'NONE', #99, .T. ) ;
#701 = CARTESIAN_POINT ( 'NONE',  ( 1.300000000000000044, 0.7390083445627187997, -1.280000000000000693 ) ) ;
#702 = DIRECTION ( 'NONE',  ( 1.000000000000000000, 0.000000000000000000, 0.000000000000000000 ) ) ;
#703 = EDGE_CURVE ( 'NONE', #233, #72, #388, .T. ) ;
#704 = AXIS2_PLACEMENT_3D ( 'NONE', #737, #496, #343 ) ;
#705 = CARTESIAN_POINT ( 'NONE',  ( 1.300000000000000044, 1.478016689125441596, -1.409462824231155764E-15 ) ) ;
#706 = CIRCLE ( 'NONE', #121, 2.750000000000000000 ) ;
#707 = AXIS2_PLACEMENT_3D ( 'NONE', #162, #481, #446 ) ;
#708 = ORIENTED_EDGE ( 'NONE', *, *, #550, .T. ) ;
#709 = DIRECTION ( 'NONE',  ( -0.7071067811865334729, 0.000000000000000000, 0.7071067811865617836 ) ) ;
#710 = EDGE_CURVE ( 'NONE', #440, #666, #83, .T. ) ;
#711 = VERTEX_POINT ( 'NONE', #31 ) ;
#712 = LINE ( 'NONE', #433, #406 ) ;
#713 = ORIENTED_EDGE ( 'NONE', *, *, #579, .F. ) ;
#714 = CARTESIAN_POINT ( 'NONE',  ( 10.71950000000000713, 0.000000000000000000, 1.500000000000000444 ) ) ;
#715 = LINE ( 'NONE', #324, #605 ) ;
#716 = VERTEX_POINT ( 'NONE', #609 ) ;
#717 = ADVANCED_FACE ( 'NONE', ( #335 ), #28, .F. ) ;
#718 = DIRECTION ( 'NONE',  ( 0.000000000000000000, 0.000000000000000000, 1.000000000000000000 ) ) ;
#719 = AXIS2_PLACEMENT_3D ( 'NONE', #439, #45, #333 ) ;
#720 =( GEOMETRIC_REPRESENTATION_CONTEXT ( 3 ) GLOBAL_UNCERTAINTY_ASSIGNED_CONTEXT ( ( #235 ) ) GLOBAL_UNIT_ASSIGNED_CONTEXT ( ( #617, #106, #392 ) ) REPRESENTATION_CONTEXT ( 'NONE', 'WORKASPACE' ) );
#721 = EDGE_LOOP ( 'NONE', ( #129, #202, #190 ) ) ;
#722 = EDGE_CURVE ( 'NONE', #699, #448, #276, .T. ) ;
#723 = ORIENTED_EDGE ( 'NONE', *, *, #437, .T. ) ;
#724 = CARTESIAN_POINT ( 'NONE',  ( 1.300000000000000044, 0.000000000000000000, 0.000000000000000000 ) ) ;
#725 = EDGE_CURVE ( 'NONE', #233, #633, #283, .T. ) ;
#726 = EDGE_LOOP ( 'NONE', ( #708, #305 ) ) ;
#727 = DIRECTION ( 'NONE',  ( 0.000000000000000000, 0.8660254037844380415, -0.5000000000000011102 ) ) ;
#728 = DIRECTION ( 'NONE',  ( 0.000000000000000000, -0.4999999999999985012, 0.8660254037844394848 ) ) ;
#729 = DIRECTION ( 'NONE',  ( 0.000000000000000000, 0.000000000000000000, -1.000000000000000000 ) ) ;
#730 = CIRCLE ( 'NONE', #583, 1.280000000000000027 ) ;
#731 = VECTOR ( 'NONE', #574, 1000.000000000000000 ) ;
#732 = ORIENTED_EDGE ( 'NONE', *, *, #12, .T. ) ;
#733 = DIRECTION ( 'NONE',  ( 1.000000000000000000, 0.000000000000000000, 0.000000000000000000 ) ) ;
#734 = DIRECTION ( 'NONE',  ( -1.000000000000000000, -0.000000000000000000, -0.000000000000000000 ) ) ;
#735 = CARTESIAN_POINT ( 'NONE',  ( 0.000000000000000000, 0.000000000000000000, 2.600000000000000089 ) ) ;
#736 = ORIENTED_EDGE ( 'NONE', *, *, #522, .F. ) ;
#737 = CARTESIAN_POINT ( 'NONE',  ( 0.1499999999999973577, 0.000000000000000000, 0.000000000000000000 ) ) ;
#738 = EDGE_LOOP ( 'NONE', ( #498, #482, #334, #43, #342 ) ) ;
#739 = PLANE ( 'NONE',  #159 ) ;
#740 = EDGE_CURVE ( 'NONE', #292, #243, #665, .T. ) ;
#741 = CIRCLE ( 'NONE', #418, 2.600000000000000089 ) ;
ENDSEC;
END-ISO-10303-21;
