ISO-10303-21;
HEADER;
FILE_DESCRIPTION (( 'STEP AP214' ),
    '1' );
FILE_NAME ('Spacer 2.step',
    '2026-08-28T16:14:23',
    ( '' ),
    ( '' ),
    'SwSTEP 2.0',
    'SolidWorks 2024',
    '' );
FILE_SCHEMA (( 'AUTOMOTIVE_DESIGN' ));
ENDSEC;

DATA;
#1 = CARTESIAN_POINT ( 'NONE',  ( -10.00000000000000000, 10.00000000000000000, -1.600000000000000089 ) ) ;
#2 = ADVANCED_FACE ( 'NONE', ( #313 ), #124, .F. ) ;
#3 = DIRECTION ( 'NONE',  ( 0.000000000000000000, 0.000000000000000000, 1.000000000000000000 ) ) ;
#4 =( GEOMETRIC_REPRESENTATION_CONTEXT ( 3 ) GLOBAL_UNCERTAINTY_ASSIGNED_CONTEXT ( ( #238 ) ) GLOBAL_UNIT_ASSIGNED_CONTEXT ( ( #248, #82, #183 ) ) REPRESENTATION_CONTEXT ( 'NONE', 'WORKASPACE' ) );
#5 = FACE_OUTER_BOUND ( 'NONE', #67, .T. ) ;
#6 = DIRECTION ( 'NONE',  ( 0.000000000000000000, 0.000000000000000000, 1.000000000000000000 ) ) ;
#7 = EDGE_CURVE ( 'NONE', #153, #174, #111, .T. ) ;
#8 = DIRECTION ( 'NONE',  ( 0.000000000000000000, 1.000000000000000000, 0.000000000000000000 ) ) ;
#9 = AXIS2_PLACEMENT_3D ( 'NONE', #245, #324, #322 ) ;
#10 = DIRECTION ( 'NONE',  ( 0.000000000000000000, 1.000000000000000000, 0.000000000000000000 ) ) ;
#11 = EDGE_CURVE ( 'NONE', #327, #262, #155, .T. ) ;
#12 = ORIENTED_EDGE ( 'NONE', *, *, #107, .T. ) ;
#13 = SURFACE_STYLE_USAGE ( .BOTH. , #32 ) ;
#14 = VECTOR ( 'NONE', #212, 1000.000000000000000 ) ;
#15 = CARTESIAN_POINT ( 'NONE',  ( -10.00000000000000000, 10.00000000000000000, 1.600000000000000089 ) ) ;
#16 = DIRECTION ( 'NONE',  ( -0.000000000000000000, -1.000000000000000000, -0.000000000000000000 ) ) ;
#17 = LINE ( 'NONE', #123, #297 ) ;
#18 = ORIENTED_EDGE ( 'NONE', *, *, #11, .T. ) ;
#19 = ORIENTED_EDGE ( 'NONE', *, *, #336, .F. ) ;
#20 = ADVANCED_FACE ( 'NONE', ( #263 ), #151, .F. ) ;
#21 = ORIENTED_EDGE ( 'NONE', *, *, #150, .T. ) ;
#22 = ORIENTED_EDGE ( 'NONE', *, *, #186, .T. ) ;
#23 = CIRCLE ( 'NONE', #329, 1.599999999999999867 ) ;
#24 = ORIENTED_EDGE ( 'NONE', *, *, #240, .F. ) ;
#25 = DIRECTION ( 'NONE',  ( 1.000000000000000000, 0.000000000000000000, -1.734723475976807587E-16 ) ) ;
#26 = DIRECTION ( 'NONE',  ( -0.000000000000000000, -1.000000000000000000, -0.000000000000000000 ) ) ;
#27 = LINE ( 'NONE', #325, #76 ) ;
#28 = AXIS2_PLACEMENT_3D ( 'NONE', #190, #56, #160 ) ;
#29 = CARTESIAN_POINT ( 'NONE',  ( 10.00000000000000000, 10.00000000000000000, 1.599999999999996092 ) ) ;
#30 = CARTESIAN_POINT ( 'NONE',  ( -10.00000000000000000, 0.000000000000000000, 9.999999999999998224 ) ) ;
#31 = FILL_AREA_STYLE ('',( #221 ) ) ;
#32 = SURFACE_SIDE_STYLE ('',( #247 ) ) ;
#33 = AXIS2_PLACEMENT_3D ( 'NONE', #268, #136, #292 ) ;
#34 = ORIENTED_EDGE ( 'NONE', *, *, #312, .T. ) ;
#35 = EDGE_CURVE ( 'NONE', #174, #153, #225, .T. ) ;
#36 = DIRECTION ( 'NONE',  ( 0.000000000000000000, -0.000000000000000000, 1.000000000000000000 ) ) ;
#37 = FACE_BOUND ( 'NONE', #281, .T. ) ;
#38 = VECTOR ( 'NONE', #55, 1000.000000000000000 ) ;
#39 = CARTESIAN_POINT ( 'NONE',  ( -10.00000000000000000, 10.00000000000000000, 0.000000000000000000 ) ) ;
#40 = EDGE_LOOP ( 'NONE', ( #299, #276, #24, #128 ) ) ;
#41 = PRODUCT_DEFINITION ( 'UNKNOWN', '', #226, #232 ) ;
#42 = DIRECTION ( 'NONE',  ( -0.000000000000000000, -1.000000000000000000, -0.000000000000000000 ) ) ;
#43 = EDGE_LOOP ( 'NONE', ( #314, #100 ) ) ;
#44 = ORIENTED_EDGE ( 'NONE', *, *, #63, .F. ) ;
#45 = AXIS2_PLACEMENT_3D ( 'NONE', #172, #16, #121 ) ;
#46 = EDGE_CURVE ( 'NONE', #339, #169, #70, .T. ) ;
#47 = ORIENTED_EDGE ( 'NONE', *, *, #204, .F. ) ;
#48 = ORIENTED_EDGE ( 'NONE', *, *, #210, .F. ) ;
#49 = EDGE_LOOP ( 'NONE', ( #18, #116, #296, #203 ) ) ;
#50 = CLOSED_SHELL ( 'NONE', ( #20, #73, #267, #53, #217, #2, #228, #80, #279, #294 ) ) ;
#51 = FACE_OUTER_BOUND ( 'NONE', #49, .T. ) ;
#52 = CARTESIAN_POINT ( 'NONE',  ( 9.999999999999996447, 10.00000000000000000, -10.00000000000000178 ) ) ;
#53 = ADVANCED_FACE ( 'NONE', ( #5, #185, #215 ), #113, .F. ) ;
#54 = FACE_OUTER_BOUND ( 'NONE', #180, .T. ) ;
#55 = DIRECTION ( 'NONE',  ( -0.000000000000000000, -1.000000000000000000, -0.000000000000000000 ) ) ;
#56 = DIRECTION ( 'NONE',  ( 0.000000000000000000, 0.000000000000000000, 1.000000000000000000 ) ) ;
#57 = CARTESIAN_POINT ( 'NONE',  ( 9.999999999999996447, 10.00000000000000000, -10.00000000000000178 ) ) ;
#58 = DIRECTION ( 'NONE',  ( 1.000000000000000000, 0.000000000000000000, -1.734723475976806848E-16 ) ) ;
#59 = PLANE ( 'NONE',  #135 ) ;
#60 = CARTESIAN_POINT ( 'NONE',  ( 10.00000000000000355, 10.00000000000000000, 9.999999999999994671 ) ) ;
#61 = EDGE_CURVE ( 'NONE', #338, #153, #265, .T. ) ;
#62 = EDGE_LOOP ( 'NONE', ( #90, #71, #175, #287 ) ) ;
#63 = EDGE_CURVE ( 'NONE', #209, #338, #264, .T. ) ;
#64 = EDGE_LOOP ( 'NONE', ( #310, #256, #69, #122 ) ) ;
#65 = VECTOR ( 'NONE', #271, 1000.000000000000000 ) ;
#66 = DIRECTION ( 'NONE',  ( 0.000000000000000000, 0.000000000000000000, -1.000000000000000000 ) ) ;
#67 = EDGE_LOOP ( 'NONE', ( #127, #251, #48, #147 ) ) ;
#68 = CARTESIAN_POINT ( 'NONE',  ( -10.00000000000000000, 10.00000000000000000, 9.999999999999998224 ) ) ;
#69 = ORIENTED_EDGE ( 'NONE', *, *, #35, .F. ) ;
#70 = CIRCLE ( 'NONE', #129, 1.600000000000000089 ) ;
#71 = ORIENTED_EDGE ( 'NONE', *, *, #125, .T. ) ;
#72 = DIRECTION ( 'NONE',  ( -1.000000000000000000, 0.000000000000000000, 1.734723475976806848E-16 ) ) ;
#73 = ADVANCED_FACE ( 'NONE', ( #54 ), #293, .F. ) ;
#74 = ORIENTED_EDGE ( 'NONE', *, *, #102, .T. ) ;
#75 = CARTESIAN_POINT ( 'NONE',  ( -10.00000000000000000, 10.00000000000000000, -9.999999999999998224 ) ) ;
#76 = VECTOR ( 'NONE', #214, 1000.000000000000000 ) ;
#77 = CARTESIAN_POINT ( 'NONE',  ( -10.00000000000000000, 0.000000000000000000, 0.000000000000000000 ) ) ;
#78 = CARTESIAN_POINT ( 'NONE',  ( -10.00000000000000000, 0.000000000000000000, 1.600000000000000089 ) ) ;
#79 = LINE ( 'NONE', #132, #303 ) ;
#80 = ADVANCED_FACE ( 'NONE', ( #51 ), #59, .F. ) ;
#81 = DIRECTION ( 'NONE',  ( -1.000000000000000000, -0.000000000000000000, 1.734723475976807341E-16 ) ) ;
#82 =( NAMED_UNIT ( * ) PLANE_ANGLE_UNIT ( ) SI_UNIT ( $, .RADIAN. ) );
#83 = COLOUR_RGB ( '',0.7921568627450980005, 0.8196078431372548767, 0.9333333333333333481 ) ;
#84 = CARTESIAN_POINT ( 'NONE',  ( 10.00000000000000000, 10.00000000000000000, 1.599999999999996092 ) ) ;
#85 = CARTESIAN_POINT ( 'NONE',  ( -10.00000000000000000, 10.00000000000000000, 9.999999999999998224 ) ) ;
#86 = CARTESIAN_POINT ( 'NONE',  ( 10.00000000000000000, 10.00000000000000000, -3.673940397442059178E-15 ) ) ;
#87 = PRESENTATION_STYLE_ASSIGNMENT (( #13 ) ) ;
#88 = PRODUCT_RELATED_PRODUCT_CATEGORY ( 'part', '', ( #311 ) ) ;
#89 = CIRCLE ( 'NONE', #167, 1.600000000000000089 ) ;
#90 = ORIENTED_EDGE ( 'NONE', *, *, #61, .F. ) ;
#91 = DIRECTION ( 'NONE',  ( -0.000000000000000000, -1.000000000000000000, -0.000000000000000000 ) ) ;
#92 = ORIENTED_EDGE ( 'NONE', *, *, #312, .F. ) ;
#93 = DIRECTION ( 'NONE',  ( 0.000000000000000000, 0.000000000000000000, 1.000000000000000000 ) ) ;
#94 = VERTEX_POINT ( 'NONE', #321 ) ;
#95 = CARTESIAN_POINT ( 'NONE',  ( -10.00000000000000000, 0.000000000000000000, -9.999999999999998224 ) ) ;
#96 = DIRECTION ( 'NONE',  ( -0.000000000000000000, -1.000000000000000000, -0.000000000000000000 ) ) ;
#97 = ORIENTED_EDGE ( 'NONE', *, *, #240, .T. ) ;
#98 = VECTOR ( 'NONE', #246, 1000.000000000000000 ) ;
#99 = EDGE_LOOP ( 'NONE', ( #307, #202, #22, #131 ) ) ;
#100 = ORIENTED_EDGE ( 'NONE', *, *, #46, .T. ) ;
#101 = DIRECTION ( 'NONE',  ( 0.000000000000000000, 1.000000000000000000, 0.000000000000000000 ) ) ;
#102 = EDGE_CURVE ( 'NONE', #302, #262, #266, .T. ) ;
#103 = APPLICATION_PROTOCOL_DEFINITION ( 'draft international standard', 'automotive_design', 1998, #308 ) ;
#104 = VECTOR ( 'NONE', #334, 1000.000000000000000 ) ;
#105 = AXIS2_PLACEMENT_3D ( 'NONE', #201, #42, #66 ) ;
#106 = DIRECTION ( 'NONE',  ( 0.000000000000000000, 0.000000000000000000, -1.000000000000000000 ) ) ;
#107 = EDGE_CURVE ( 'NONE', #182, #330, #27, .T. ) ;
#108 = CARTESIAN_POINT ( 'NONE',  ( 10.00000000000000000, 0.000000000000000000, -3.673940397442059178E-15 ) ) ;
#109 = APPLICATION_PROTOCOL_DEFINITION ( 'draft international standard', 'automotive_design', 1998, #179 ) ;
#110 = DIRECTION ( 'NONE',  ( 0.000000000000000000, 1.000000000000000000, 0.000000000000000000 ) ) ;
#111 = CIRCLE ( 'NONE', #257, 1.599999999999999867 ) ;
#112 = VECTOR ( 'NONE', #26, 1000.000000000000000 ) ;
#113 = PLANE ( 'NONE',  #269 ) ;
#114 = EDGE_CURVE ( 'NONE', #169, #339, #89, .T. ) ;
#115 =( NAMED_UNIT ( * ) SI_UNIT ( $, .STERADIAN. ) SOLID_ANGLE_UNIT ( ) );
#116 = ORIENTED_EDGE ( 'NONE', *, *, #102, .F. ) ;
#117 = AXIS2_PLACEMENT_3D ( 'NONE', #108, #244, #315 ) ;
#118 = CYLINDRICAL_SURFACE ( 'NONE', #145, 9.999999999999998224 ) ;
#119 = DIRECTION ( 'NONE',  ( -0.000000000000000000, -1.000000000000000000, -0.000000000000000000 ) ) ;
#120 = UNCERTAINTY_MEASURE_WITH_UNIT (LENGTH_MEASURE( 1.000000000000000082E-05 ), #298, 'distance_accuracy_value', 'NONE');
#121 = DIRECTION ( 'NONE',  ( 0.000000000000000000, 0.000000000000000000, -1.000000000000000000 ) ) ;
#122 = ORIENTED_EDGE ( 'NONE', *, *, #332, .F. ) ;
#123 = CARTESIAN_POINT ( 'NONE',  ( -10.00000000000000000, 10.00000000000000000, 9.999999999999998224 ) ) ;
#124 = PLANE ( 'NONE',  #177 ) ;
#125 = EDGE_CURVE ( 'NONE', #338, #209, #23, .T. ) ;
#126 = CARTESIAN_POINT ( 'NONE',  ( 10.00000000000000000, 0.000000000000000000, -3.673940397442059178E-15 ) ) ;
#127 = ORIENTED_EDGE ( 'NONE', *, *, #286, .F. ) ;
#128 = ORIENTED_EDGE ( 'NONE', *, *, #328, .T. ) ;
#129 = AXIS2_PLACEMENT_3D ( 'NONE', #288, #101, #164 ) ;
#130 = AXIS2_PLACEMENT_3D ( 'NONE', #39, #91, #229 ) ;
#131 = ORIENTED_EDGE ( 'NONE', *, *, #46, .F. ) ;
#132 = CARTESIAN_POINT ( 'NONE',  ( -10.00000000000000000, 10.00000000000000000, -9.999999999999998224 ) ) ;
#133 = CARTESIAN_POINT ( 'NONE',  ( -10.00000000000000000, 10.00000000000000000, -9.999999999999998224 ) ) ;
#134 = SHAPE_DEFINITION_REPRESENTATION ( #260, #320 ) ;
#135 = AXIS2_PLACEMENT_3D ( 'NONE', #133, #211, #25 ) ;
#136 = DIRECTION ( 'NONE',  ( 0.000000000000000000, 1.000000000000000000, 0.000000000000000000 ) ) ;
#137 = DIRECTION ( 'NONE',  ( 0.000000000000000000, 0.000000000000000000, 1.000000000000000000 ) ) ;
#138 = CARTESIAN_POINT ( 'NONE',  ( 10.00000000000000000, 10.00000000000000000, -1.600000000000003642 ) ) ;
#139 = CARTESIAN_POINT ( 'NONE',  ( 10.00000000000000000, 0.000000000000000000, -3.673940397442059178E-15 ) ) ;
#140 = CARTESIAN_POINT ( 'NONE',  ( 10.00000000000000355, 10.00000000000000000, 9.999999999999994671 ) ) ;
#141 = DIRECTION ( 'NONE',  ( 0.000000000000000000, 0.000000000000000000, 1.000000000000000000 ) ) ;
#142 = DIRECTION ( 'NONE',  ( 0.000000000000000000, 1.000000000000000000, 0.000000000000000000 ) ) ;
#143 = EDGE_LOOP ( 'NONE', ( #198, #261, #47, #74 ) ) ;
#144 = CARTESIAN_POINT ( 'NONE',  ( 10.00000000000000000, 10.00000000000000000, -1.600000000000003642 ) ) ;
#145 = AXIS2_PLACEMENT_3D ( 'NONE', #168, #170, #195 ) ;
#146 = CARTESIAN_POINT ( 'NONE',  ( -10.00000000000000000, 10.00000000000000000, 9.999999999999998224 ) ) ;
#147 = ORIENTED_EDGE ( 'NONE', *, *, #107, .F. ) ;
#148 = DIRECTION ( 'NONE',  ( 0.000000000000000000, 1.000000000000000000, 0.000000000000000000 ) ) ;
#149 = ORIENTED_EDGE ( 'NONE', *, *, #186, .F. ) ;
#150 = EDGE_CURVE ( 'NONE', #197, #302, #79, .T. ) ;
#151 = CYLINDRICAL_SURFACE ( 'NONE', #280, 1.599999999999999867 ) ;
#152 = CIRCLE ( 'NONE', #9, 1.600000000000000089 ) ;
#153 = VERTEX_POINT ( 'NONE', #161 ) ;
#154 = ORIENTED_EDGE ( 'NONE', *, *, #300, .T. ) ;
#155 = LINE ( 'NONE', #95, #104 ) ;
#156 = CIRCLE ( 'NONE', #184, 9.999999999999998224 ) ;
#157 = DIRECTION ( 'NONE',  ( 0.000000000000000000, 1.000000000000000000, 0.000000000000000000 ) ) ;
#158 = PRODUCT_CONTEXT ( 'NONE', #308, 'mechanical' ) ;
#159 = DIRECTION ( 'NONE',  ( -0.000000000000000000, -1.000000000000000000, -0.000000000000000000 ) ) ;
#160 = DIRECTION ( 'NONE',  ( 1.000000000000000000, 0.000000000000000000, 0.000000000000000000 ) ) ;
#161 = CARTESIAN_POINT ( 'NONE',  ( 10.00000000000000000, 0.000000000000000000, 1.599999999999996092 ) ) ;
#162 = CIRCLE ( 'NONE', #258, 9.999999999999998224 ) ;
#163 = CARTESIAN_POINT ( 'NONE',  ( -10.00000000000000000, 10.00000000000000000, 0.000000000000000000 ) ) ;
#164 = DIRECTION ( 'NONE',  ( 0.000000000000000000, 0.000000000000000000, 1.000000000000000000 ) ) ;
#165 = LINE ( 'NONE', #140, #14 ) ;
#166 = DIRECTION ( 'NONE',  ( 0.000000000000000000, 0.000000000000000000, 1.000000000000000000 ) ) ;
#167 = AXIS2_PLACEMENT_3D ( 'NONE', #318, #8, #137 ) ;
#168 = CARTESIAN_POINT ( 'NONE',  ( 10.00000000000000000, 10.00000000000000000, -3.673940397442059178E-15 ) ) ;
#169 = VERTEX_POINT ( 'NONE', #241 ) ;
#170 = DIRECTION ( 'NONE',  ( -0.000000000000000000, -1.000000000000000000, -0.000000000000000000 ) ) ;
#171 = EDGE_LOOP ( 'NONE', ( #200, #235, #97, #21 ) ) ;
#172 = CARTESIAN_POINT ( 'NONE',  ( -10.00000000000000000, 10.00000000000000000, 0.000000000000000000 ) ) ;
#173 = DIRECTION ( 'NONE',  ( -0.000000000000000000, -1.000000000000000000, -0.000000000000000000 ) ) ;
#174 = VERTEX_POINT ( 'NONE', #323 ) ;
#175 = ORIENTED_EDGE ( 'NONE', *, *, #332, .T. ) ;
#176 = DIRECTION ( 'NONE',  ( 0.000000000000000000, 0.000000000000000000, -1.000000000000000000 ) ) ;
#177 = AXIS2_PLACEMENT_3D ( 'NONE', #68, #233, #72 ) ;
#178 = STYLED_ITEM ( 'NONE', ( #87 ), #208 ) ;
#179 = APPLICATION_CONTEXT ( 'automotive_design' ) ;
#180 = EDGE_LOOP ( 'NONE', ( #34, #239, #207, #149 ) ) ;
#181 = DIRECTION ( 'NONE',  ( 0.000000000000000000, 0.000000000000000000, 1.000000000000000000 ) ) ;
#182 = VERTEX_POINT ( 'NONE', #30 ) ;
#183 =( NAMED_UNIT ( * ) SI_UNIT ( $, .STERADIAN. ) SOLID_ANGLE_UNIT ( ) );
#184 = AXIS2_PLACEMENT_3D ( 'NONE', #163, #110, #218 ) ;
#185 = FACE_BOUND ( 'NONE', #43, .T. ) ;
#186 = EDGE_CURVE ( 'NONE', #205, #169, #189, .T. ) ;
#187 = CARTESIAN_POINT ( 'NONE',  ( -10.00000000000000000, 10.00000000000000000, 0.000000000000000000 ) ) ;
#188 = DIRECTION ( 'NONE',  ( -0.000000000000000000, -1.000000000000000000, -0.000000000000000000 ) ) ;
#189 = LINE ( 'NONE', #1, #98 ) ;
#190 = CARTESIAN_POINT ( 'NONE',  ( 0.000000000000000000, 0.000000000000000000, 0.000000000000000000 ) ) ;
#191 = AXIS2_PLACEMENT_3D ( 'NONE', #252, #10, #36 ) ;
#192 = EDGE_CURVE ( 'NONE', #94, #205, #213, .T. ) ;
#193 = DIRECTION ( 'NONE',  ( 0.000000000000000000, 1.000000000000000000, 0.000000000000000000 ) ) ;
#194 = LINE ( 'NONE', #138, #243 ) ;
#195 = DIRECTION ( 'NONE',  ( 0.000000000000000000, 0.000000000000000000, -1.000000000000000000 ) ) ;
#196 = ORIENTED_EDGE ( 'NONE', *, *, #328, .F. ) ;
#197 = VERTEX_POINT ( 'NONE', #57 ) ;
#198 = ORIENTED_EDGE ( 'NONE', *, *, #286, .T. ) ;
#199 = FACE_OUTER_BOUND ( 'NONE', #99, .T. ) ;
#200 = ORIENTED_EDGE ( 'NONE', *, *, #204, .T. ) ;
#201 = CARTESIAN_POINT ( 'NONE',  ( 10.00000000000000000, 10.00000000000000000, -3.673940397442059178E-15 ) ) ;
#202 = ORIENTED_EDGE ( 'NONE', *, *, #192, .T. ) ;
#203 = ORIENTED_EDGE ( 'NONE', *, *, #306, .T. ) ;
#204 = EDGE_CURVE ( 'NONE', #302, #259, #156, .T. ) ;
#205 = VERTEX_POINT ( 'NONE', #272 ) ;
#206 = VECTOR ( 'NONE', #58, 1000.000000000000000 ) ;
#207 = ORIENTED_EDGE ( 'NONE', *, *, #114, .F. ) ;
#208 = MANIFOLD_SOLID_BREP ( 'Boss-Extrude1', #50 ) ;
#209 = VERTEX_POINT ( 'NONE', #144 ) ;
#210 = EDGE_CURVE ( 'NONE', #330, #327, #337, .T. ) ;
#211 = DIRECTION ( 'NONE',  ( 1.734723475976807587E-16, -0.000000000000000000, 1.000000000000000000 ) ) ;
#212 = DIRECTION ( 'NONE',  ( -0.000000000000000000, -1.000000000000000000, -0.000000000000000000 ) ) ;
#213 = CIRCLE ( 'NONE', #33, 1.600000000000000089 ) ;
#214 = DIRECTION ( 'NONE',  ( 1.000000000000000000, 0.000000000000000000, -1.734723475976806848E-16 ) ) ;
#215 = FACE_BOUND ( 'NONE', #285, .T. ) ;
#216 = LINE ( 'NONE', #52, #65 ) ;
#217 = ADVANCED_FACE ( 'NONE', ( #331 ), #227, .T. ) ;
#218 = DIRECTION ( 'NONE',  ( 0.000000000000000000, 0.000000000000000000, 1.000000000000000000 ) ) ;
#219 = CARTESIAN_POINT ( 'NONE',  ( 9.999999999999996447, 0.000000000000000000, -10.00000000000000178 ) ) ;
#220 =( GEOMETRIC_REPRESENTATION_CONTEXT ( 3 ) GLOBAL_UNCERTAINTY_ASSIGNED_CONTEXT ( ( #120 ) ) GLOBAL_UNIT_ASSIGNED_CONTEXT ( ( #298, #326, #115 ) ) REPRESENTATION_CONTEXT ( 'NONE', 'WORKASPACE' ) );
#221 = FILL_AREA_STYLE_COLOUR ( '', #83 ) ;
#222 = CARTESIAN_POINT ( 'NONE',  ( -10.00000000000000000, 0.000000000000000000, 0.000000000000000000 ) ) ;
#223 = FACE_OUTER_BOUND ( 'NONE', #40, .T. ) ;
#224 = VERTEX_POINT ( 'NONE', #60 ) ;
#225 = CIRCLE ( 'NONE', #117, 1.599999999999999867 ) ;
#226 = PRODUCT_DEFINITION_FORMATION_WITH_SPECIFIED_SOURCE ( 'ANY', '', #311, .NOT_KNOWN. ) ;
#227 = CYLINDRICAL_SURFACE ( 'NONE', #130, 9.999999999999998224 ) ;
#228 = ADVANCED_FACE ( 'NONE', ( #223 ), #118, .T. ) ;
#229 = DIRECTION ( 'NONE',  ( 0.000000000000000000, 0.000000000000000000, -1.000000000000000000 ) ) ;
#230 = ORIENTED_EDGE ( 'NONE', *, *, #192, .F. ) ;
#231 = CIRCLE ( 'NONE', #275, 9.999999999999998224 ) ;
#232 = PRODUCT_DEFINITION_CONTEXT ( 'detailed design', #179, 'design' ) ;
#233 = DIRECTION ( 'NONE',  ( -1.734723475976806848E-16, 0.000000000000000000, -1.000000000000000000 ) ) ;
#234 = CARTESIAN_POINT ( 'NONE',  ( 10.00000000000000000, 10.00000000000000000, -3.673940397442059178E-15 ) ) ;
#235 = ORIENTED_EDGE ( 'NONE', *, *, #336, .T. ) ;
#236 = EDGE_LOOP ( 'NONE', ( #12, #196, #19, #154 ) ) ;
#237 = AXIS2_PLACEMENT_3D ( 'NONE', #139, #295, #141 ) ;
#238 = UNCERTAINTY_MEASURE_WITH_UNIT (LENGTH_MEASURE( 1.000000000000000082E-05 ), #248, 'distance_accuracy_value', 'NONE');
#239 = ORIENTED_EDGE ( 'NONE', *, *, #274, .T. ) ;
#240 = EDGE_CURVE ( 'NONE', #224, #197, #231, .T. ) ;
#241 = CARTESIAN_POINT ( 'NONE',  ( -10.00000000000000000, 0.000000000000000000, -1.600000000000000089 ) ) ;
#242 = CARTESIAN_POINT ( 'NONE',  ( -10.00000000000000000, 10.00000000000000000, -9.999999999999998224 ) ) ;
#243 = VECTOR ( 'NONE', #188, 1000.000000000000000 ) ;
#244 = DIRECTION ( 'NONE',  ( 0.000000000000000000, 1.000000000000000000, 0.000000000000000000 ) ) ;
#245 = CARTESIAN_POINT ( 'NONE',  ( -10.00000000000000000, 10.00000000000000000, 0.000000000000000000 ) ) ;
#246 = DIRECTION ( 'NONE',  ( -0.000000000000000000, -1.000000000000000000, -0.000000000000000000 ) ) ;
#247 = SURFACE_STYLE_FILL_AREA ( #31 ) ;
#248 =( LENGTH_UNIT ( ) NAMED_UNIT ( * ) SI_UNIT ( .MILLI., .METRE. ) );
#249 = PRESENTATION_LAYER_ASSIGNMENT (  '', '', ( #178 ) ) ;
#250 = FACE_OUTER_BOUND ( 'NONE', #171, .T. ) ;
#251 = ORIENTED_EDGE ( 'NONE', *, *, #11, .F. ) ;
#252 = CARTESIAN_POINT ( 'NONE',  ( -10.00000000000000000, 10.00000000000000000, 0.000000000000000000 ) ) ;
#253 = LINE ( 'NONE', #15, #283 ) ;
#254 = FACE_BOUND ( 'NONE', #282, .T. ) ;
#255 = FACE_OUTER_BOUND ( 'NONE', #62, .T. ) ;
#256 = ORIENTED_EDGE ( 'NONE', *, *, #61, .T. ) ;
#257 = AXIS2_PLACEMENT_3D ( 'NONE', #126, #333, #181 ) ;
#258 = AXIS2_PLACEMENT_3D ( 'NONE', #222, #148, #93 ) ;
#259 = VERTEX_POINT ( 'NONE', #146 ) ;
#260 = PRODUCT_DEFINITION_SHAPE ( 'NONE', 'NONE',  #41 ) ;
#261 = ORIENTED_EDGE ( 'NONE', *, *, #300, .F. ) ;
#262 = VERTEX_POINT ( 'NONE', #278 ) ;
#263 = FACE_OUTER_BOUND ( 'NONE', #64, .T. ) ;
#264 = CIRCLE ( 'NONE', #289, 1.599999999999999867 ) ;
#265 = LINE ( 'NONE', #84, #112 ) ;
#266 = LINE ( 'NONE', #242, #38 ) ;
#267 = ADVANCED_FACE ( 'NONE', ( #254, #250, #37 ), #273, .T. ) ;
#268 = CARTESIAN_POINT ( 'NONE',  ( -10.00000000000000000, 10.00000000000000000, 0.000000000000000000 ) ) ;
#269 = AXIS2_PLACEMENT_3D ( 'NONE', #77, #157, #270 ) ;
#270 = DIRECTION ( 'NONE',  ( 0.000000000000000000, -0.000000000000000000, 1.000000000000000000 ) ) ;
#271 = DIRECTION ( 'NONE',  ( -0.000000000000000000, -1.000000000000000000, -0.000000000000000000 ) ) ;
#272 = CARTESIAN_POINT ( 'NONE',  ( -10.00000000000000000, 10.00000000000000000, -1.600000000000000089 ) ) ;
#273 = PLANE ( 'NONE',  #191 ) ;
#274 = EDGE_CURVE ( 'NONE', #94, #339, #253, .T. ) ;
#275 = AXIS2_PLACEMENT_3D ( 'NONE', #277, #142, #166 ) ;
#276 = ORIENTED_EDGE ( 'NONE', *, *, #306, .F. ) ;
#277 = CARTESIAN_POINT ( 'NONE',  ( 10.00000000000000000, 10.00000000000000000, -3.673940397442059178E-15 ) ) ;
#278 = CARTESIAN_POINT ( 'NONE',  ( -10.00000000000000000, 0.000000000000000000, -9.999999999999998224 ) ) ;
#279 = ADVANCED_FACE ( 'NONE', ( #199 ), #301, .F. ) ;
#280 = AXIS2_PLACEMENT_3D ( 'NONE', #234, #96, #176 ) ;
#281 = EDGE_LOOP ( 'NONE', ( #44, #305 ) ) ;
#282 = EDGE_LOOP ( 'NONE', ( #92, #230 ) ) ;
#283 = VECTOR ( 'NONE', #119, 1000.000000000000000 ) ;
#284 = ORIENTED_EDGE ( 'NONE', *, *, #35, .T. ) ;
#285 = EDGE_LOOP ( 'NONE', ( #284, #335 ) ) ;
#286 = EDGE_CURVE ( 'NONE', #262, #182, #162, .T. ) ;
#287 = ORIENTED_EDGE ( 'NONE', *, *, #7, .F. ) ;
#288 = CARTESIAN_POINT ( 'NONE',  ( -10.00000000000000000, 0.000000000000000000, 0.000000000000000000 ) ) ;
#289 = AXIS2_PLACEMENT_3D ( 'NONE', #290, #193, #3 ) ;
#290 = CARTESIAN_POINT ( 'NONE',  ( 10.00000000000000000, 10.00000000000000000, -3.673940397442059178E-15 ) ) ;
#291 = DIRECTION ( 'NONE',  ( 0.000000000000000000, 1.000000000000000000, 0.000000000000000000 ) ) ;
#292 = DIRECTION ( 'NONE',  ( 0.000000000000000000, 0.000000000000000000, 1.000000000000000000 ) ) ;
#293 = CYLINDRICAL_SURFACE ( 'NONE', #316, 1.600000000000000089 ) ;
#294 = ADVANCED_FACE ( 'NONE', ( #255 ), #304, .F. ) ;
#295 = DIRECTION ( 'NONE',  ( 0.000000000000000000, 1.000000000000000000, 0.000000000000000000 ) ) ;
#296 = ORIENTED_EDGE ( 'NONE', *, *, #150, .F. ) ;
#297 = VECTOR ( 'NONE', #173, 1000.000000000000000 ) ;
#298 =( LENGTH_UNIT ( ) NAMED_UNIT ( * ) SI_UNIT ( .MILLI., .METRE. ) );
#299 = ORIENTED_EDGE ( 'NONE', *, *, #210, .T. ) ;
#300 = EDGE_CURVE ( 'NONE', #259, #182, #17, .T. ) ;
#301 = CYLINDRICAL_SURFACE ( 'NONE', #45, 1.600000000000000089 ) ;
#302 = VERTEX_POINT ( 'NONE', #75 ) ;
#303 = VECTOR ( 'NONE', #81, 1000.000000000000000 ) ;
#304 = CYLINDRICAL_SURFACE ( 'NONE', #105, 1.599999999999999867 ) ;
#305 = ORIENTED_EDGE ( 'NONE', *, *, #125, .F. ) ;
#306 = EDGE_CURVE ( 'NONE', #197, #327, #216, .T. ) ;
#307 = ORIENTED_EDGE ( 'NONE', *, *, #274, .F. ) ;
#308 = APPLICATION_CONTEXT ( 'automotive_design' ) ;
#309 = MECHANICAL_DESIGN_GEOMETRIC_PRESENTATION_REPRESENTATION (  '', ( #178 ), #220 ) ;
#310 = ORIENTED_EDGE ( 'NONE', *, *, #63, .T. ) ;
#311 = PRODUCT ( 'Spacer 2', 'Spacer 2', '', ( #158 ) ) ;
#312 = EDGE_CURVE ( 'NONE', #205, #94, #152, .T. ) ;
#313 = FACE_OUTER_BOUND ( 'NONE', #236, .T. ) ;
#314 = ORIENTED_EDGE ( 'NONE', *, *, #114, .T. ) ;
#315 = DIRECTION ( 'NONE',  ( 0.000000000000000000, 0.000000000000000000, 1.000000000000000000 ) ) ;
#316 = AXIS2_PLACEMENT_3D ( 'NONE', #187, #159, #106 ) ;
#317 = LINE ( 'NONE', #85, #206 ) ;
#318 = CARTESIAN_POINT ( 'NONE',  ( -10.00000000000000000, 0.000000000000000000, 0.000000000000000000 ) ) ;
#319 = CARTESIAN_POINT ( 'NONE',  ( 10.00000000000000355, 0.000000000000000000, 9.999999999999994671 ) ) ;
#320 = ADVANCED_BREP_SHAPE_REPRESENTATION ( 'Spacer 2', ( #208, #28 ), #4 ) ;
#321 = CARTESIAN_POINT ( 'NONE',  ( -10.00000000000000000, 10.00000000000000000, 1.600000000000000089 ) ) ;
#322 = DIRECTION ( 'NONE',  ( 0.000000000000000000, 0.000000000000000000, 1.000000000000000000 ) ) ;
#323 = CARTESIAN_POINT ( 'NONE',  ( 10.00000000000000000, 0.000000000000000000, -1.600000000000003642 ) ) ;
#324 = DIRECTION ( 'NONE',  ( 0.000000000000000000, 1.000000000000000000, 0.000000000000000000 ) ) ;
#325 = CARTESIAN_POINT ( 'NONE',  ( -10.00000000000000000, 0.000000000000000000, 9.999999999999998224 ) ) ;
#326 =( NAMED_UNIT ( * ) PLANE_ANGLE_UNIT ( ) SI_UNIT ( $, .RADIAN. ) );
#327 = VERTEX_POINT ( 'NONE', #219 ) ;
#328 = EDGE_CURVE ( 'NONE', #224, #330, #165, .T. ) ;
#329 = AXIS2_PLACEMENT_3D ( 'NONE', #86, #291, #6 ) ;
#330 = VERTEX_POINT ( 'NONE', #319 ) ;
#331 = FACE_OUTER_BOUND ( 'NONE', #143, .T. ) ;
#332 = EDGE_CURVE ( 'NONE', #209, #174, #194, .T. ) ;
#333 = DIRECTION ( 'NONE',  ( 0.000000000000000000, 1.000000000000000000, 0.000000000000000000 ) ) ;
#334 = DIRECTION ( 'NONE',  ( -1.000000000000000000, -0.000000000000000000, 1.734723475976807341E-16 ) ) ;
#335 = ORIENTED_EDGE ( 'NONE', *, *, #7, .T. ) ;
#336 = EDGE_CURVE ( 'NONE', #259, #224, #317, .T. ) ;
#337 = CIRCLE ( 'NONE', #237, 9.999999999999998224 ) ;
#338 = VERTEX_POINT ( 'NONE', #29 ) ;
#339 = VERTEX_POINT ( 'NONE', #78 ) ;
ENDSEC;
END-ISO-10303-21;
