ISO-10303-21;
HEADER;
FILE_DESCRIPTION (( 'STEP AP214' ),
    '1' );
FILE_NAME ('thrust ball bearing_68_iso.step',
    '2026-08-28T16:15:07',
    ( '' ),
    ( '' ),
    'SwSTEP 2.0',
    'SolidWorks 2024',
    '' );
FILE_SCHEMA (( 'AUTOMOTIVE_DESIGN' ));
ENDSEC;

DATA;
#1 = FACE_OUTER_BOUND ( 'NONE', #632, .T. ) ;
#2 = CARTESIAN_POINT ( 'NONE',  ( 6.400000000000000355, -3.135095805817224368E-15, 25.60000000000000142 ) ) ;
#3 = ORIENTED_EDGE ( 'NONE', *, *, #149, .F. ) ;
#4 = CARTESIAN_POINT ( 'NONE',  ( -2.856000000000000316, 3.936259741819422320E-15, -32.14199999999999591 ) ) ;
#5 = EDGE_CURVE ( 'NONE', #34, #16, #604, .T. ) ;
#6 = ORIENTED_EDGE ( 'NONE', *, *, #325, .T. ) ;
#7 = ADVANCED_FACE ( 'NONE', ( #454 ), #268, .T. ) ;
#8 = DIRECTION ( 'NONE',  ( 1.000000000000000000, 0.000000000000000000, 0.000000000000000000 ) ) ;
#9 = DIRECTION ( 'NONE',  ( -1.000000000000000000, 0.000000000000000000, 0.000000000000000000 ) ) ;
#10 = AXIS2_PLACEMENT_3D ( 'NONE', #173, #47, #484 ) ;
#11 = AXIS2_PLACEMENT_3D ( 'NONE', #283, #44, #157 ) ;
#12 = DIRECTION ( 'NONE',  ( 1.000000000000000000, 0.000000000000000000, 0.000000000000000000 ) ) ;
#13 = EDGE_LOOP ( 'NONE', ( #680, #666, #184, #497 ) ) ;
#14 = DIRECTION ( 'NONE',  ( 0.000000000000000000, 1.000000000000000000, -1.224646799147353207E-16 ) ) ;
#15 = DIRECTION ( 'NONE',  ( 1.000000000000000000, 0.000000000000000000, 0.000000000000000000 ) ) ;
#16 = VERTEX_POINT ( 'NONE', #508 ) ;
#17 = ORIENTED_EDGE ( 'NONE', *, *, #685, .F. ) ;
#18 = FACE_OUTER_BOUND ( 'NONE', #617, .T. ) ;
#19 = EDGE_LOOP ( 'NONE', ( #510, #591, #390, #421 ) ) ;
#20 = ORIENTED_EDGE ( 'NONE', *, *, #420, .F. ) ;
#21 = CARTESIAN_POINT ( 'NONE',  ( 6.400000000000000355, 0.000000000000000000, -34.39999999999999858 ) ) ;
#22 = AXIS2_PLACEMENT_3D ( 'NONE', #367, #231, #246 ) ;
#23 = EDGE_CURVE ( 'NONE', #610, #507, #45, .T. ) ;
#24 = APPLICATION_PROTOCOL_DEFINITION ( 'draft international standard', 'automotive_design', 1998, #627 ) ;
#25 = AXIS2_PLACEMENT_3D ( 'NONE', #257, #438, #735 ) ;
#26 = VERTEX_POINT ( 'NONE', #702 ) ;
#27 = AXIS2_PLACEMENT_3D ( 'NONE', #652, #119, #301 ) ;
#28 = EDGE_CURVE ( 'NONE', #16, #603, #580, .T. ) ;
#29 = EDGE_LOOP ( 'NONE', ( #261, #556, #213, #120 ) ) ;
#30 = CARTESIAN_POINT ( 'NONE',  ( -34.92499999999999716, 3.061616997868383043E-15, 25.00000000000000000 ) ) ;
#31 = ORIENTED_EDGE ( 'NONE', *, *, #23, .T. ) ;
#32 = DIRECTION ( 'NONE',  ( 1.000000000000000000, 0.000000000000000000, 0.000000000000000000 ) ) ;
#33 = DIRECTION ( 'NONE',  ( 1.000000000000000000, 0.000000000000000000, 0.000000000000000000 ) ) ;
#34 = VERTEX_POINT ( 'NONE', #762 ) ;
#35 = DIRECTION ( 'NONE',  ( 0.000000000000000000, 0.000000000000000000, -1.000000000000000000 ) ) ;
#36 = PRESENTATION_LAYER_ASSIGNMENT (  '', '', ( #730 ) ) ;
#37 = CARTESIAN_POINT ( 'NONE',  ( -2.855999999999997208, 0.000000000000000000, -25.00000000000000000 ) ) ;
#38 = CARTESIAN_POINT ( 'NONE',  ( 6.399999999999999467, 0.000000000000000000, 0.000000000000000000 ) ) ;
#39 = EDGE_CURVE ( 'NONE', #546, #85, #647, .T. ) ;
#40 = CARTESIAN_POINT ( 'NONE',  ( 2.856000000000000316, 35.00000000000000000, 0.000000000000000000 ) ) ;
#41 = CARTESIAN_POINT ( 'NONE',  ( -2.855999999999997208, 4.286263797015736496E-15, 35.00000000000000000 ) ) ;
#42 = PLANE ( 'NONE',  #167 ) ;
#43 = DIRECTION ( 'NONE',  ( 0.000000000000000000, 1.000000000000000000, -1.224646799147353207E-16 ) ) ;
#44 = DIRECTION ( 'NONE',  ( 1.000000000000000000, -0.000000000000000000, -0.000000000000000000 ) ) ;
#45 = CIRCLE ( 'NONE', #227, 35.00000000000000000 ) ;
#46 = VECTOR ( 'NONE', #543, 1000.000000000000000 ) ;
#47 = DIRECTION ( 'NONE',  ( 1.000000000000000000, 0.000000000000000000, 0.000000000000000000 ) ) ;
#48 = CIRCLE ( 'NONE', #165, 0.6000000000000033085 ) ;
#49 = EDGE_CURVE ( 'NONE', #435, #445, #302, .T. ) ;
#50 = CARTESIAN_POINT ( 'NONE',  ( 2.855999999999997208, 0.000000000000000000, -35.00000000000000000 ) ) ;
#51 = DIRECTION ( 'NONE',  ( 0.000000000000000000, -1.000000000000000000, 0.000000000000000000 ) ) ;
#52 = FACE_OUTER_BOUND ( 'NONE', #256, .T. ) ;
#53 = CARTESIAN_POINT ( 'NONE',  ( 34.92499999999999716, 0.000000000000000000, 0.000000000000000000 ) ) ;
#54 = EDGE_LOOP ( 'NONE', ( #58, #77 ) ) ;
#55 = CARTESIAN_POINT ( 'NONE',  ( 2.855999999999998540, 27.89993119160347135, 0.000000000000000000 ) ) ;
#56 = EDGE_CURVE ( 'NONE', #205, #687, #538, .T. ) ;
#57 = FILL_AREA_STYLE_COLOUR ( '', #535 ) ;
#58 = ORIENTED_EDGE ( 'NONE', *, *, #427, .F. ) ;
#59 = CARTESIAN_POINT ( 'NONE',  ( 2.855999999999997208, 0.000000000000000000, 0.000000000000000000 ) ) ;
#60 = CIRCLE ( 'NONE', #551, 32.14199999999999591 ) ;
#61 =( GEOMETRIC_REPRESENTATION_CONTEXT ( 3 ) GLOBAL_UNCERTAINTY_ASSIGNED_CONTEXT ( ( #469 ) ) GLOBAL_UNIT_ASSIGNED_CONTEXT ( ( #324, #553, #328 ) ) REPRESENTATION_CONTEXT ( 'NONE', 'WORKASPACE' ) );
#62 = TOROIDAL_SURFACE ( 'NONE', #704, 30.00000000000000000, 3.570000000000000284 ) ;
#63 = DIRECTION ( 'NONE',  ( 1.000000000000000000, 0.000000000000000000, 0.000000000000000000 ) ) ;
#64 = ORIENTED_EDGE ( 'NONE', *, *, #250, .T. ) ;
#65 = EDGE_CURVE ( 'NONE', #625, #259, #523, .T. ) ;
#66 = DIRECTION ( 'NONE',  ( 1.000000000000000000, 0.000000000000000000, 0.000000000000000000 ) ) ;
#67 = CYLINDRICAL_SURFACE ( 'NONE', #601, 25.00000000000000000 ) ;
#68 = ORIENTED_EDGE ( 'NONE', *, *, #189, .F. ) ;
#69 = CARTESIAN_POINT ( 'NONE',  ( 6.399999999999999467, 0.000000000000000000, -24.99999999999999645 ) ) ;
#70 = EDGE_LOOP ( 'NONE', ( #384, #716, #456, #675 ) ) ;
#71 = CARTESIAN_POINT ( 'NONE',  ( -2.855999999999998540, 0.000000000000000000, 0.000000000000000000 ) ) ;
#72 = CIRCLE ( 'NONE', #465, 0.6000000000000033085 ) ;
#73 = ADVANCED_FACE ( 'NONE', ( #463, #348 ), #271, .T. ) ;
#74 = AXIS2_PLACEMENT_3D ( 'NONE', #569, #403, #292 ) ;
#75 = VERTEX_POINT ( 'NONE', #575 ) ;
#76 = DIRECTION ( 'NONE',  ( 0.000000000000000000, 0.000000000000000000, -1.000000000000000000 ) ) ;
#77 = ORIENTED_EDGE ( 'NONE', *, *, #56, .F. ) ;
#78 = ORIENTED_EDGE ( 'NONE', *, *, #524, .F. ) ;
#79 = DIRECTION ( 'NONE',  ( 0.000000000000000000, 0.000000000000000000, -1.000000000000000000 ) ) ;
#80 = EDGE_CURVE ( 'NONE', #571, #371, #230, .T. ) ;
#81 = ORIENTED_EDGE ( 'NONE', *, *, #288, .F. ) ;
#82 = ORIENTED_EDGE ( 'NONE', *, *, #694, .F. ) ;
#83 = AXIS2_PLACEMENT_3D ( 'NONE', #40, #88, #696 ) ;
#84 = EDGE_LOOP ( 'NONE', ( #329, #550, #3, #542 ) ) ;
#85 = VERTEX_POINT ( 'NONE', #750 ) ;
#86 = AXIS2_PLACEMENT_3D ( 'NONE', #747, #653, #117 ) ;
#87 = PRODUCT_DEFINITION ( 'UNKNOWN', '', #758, #349 ) ;
#88 = DIRECTION ( 'NONE',  ( -1.000000000000000000, 0.000000000000000000, 0.000000000000000000 ) ) ;
#89 = EDGE_LOOP ( 'NONE', ( #258, #20, #645, #64 ) ) ;
#90 = VERTEX_POINT ( 'NONE', #214 ) ;
#91 = DIRECTION ( 'NONE',  ( 0.000000000000000000, 0.000000000000000000, -1.000000000000000000 ) ) ;
#92 = DIRECTION ( 'NONE',  ( 1.000000000000000000, 0.000000000000000000, 0.000000000000000000 ) ) ;
#93 = ORIENTED_EDGE ( 'NONE', *, *, #572, .T. ) ;
#94 = CARTESIAN_POINT ( 'NONE',  ( 0.000000000000000000, 0.000000000000000000, 30.00000000000000000 ) ) ;
#95 = CARTESIAN_POINT ( 'NONE',  ( 6.400000000000000355, 0.000000000000000000, 0.000000000000000000 ) ) ;
#96 = ADVANCED_FACE ( 'NONE', ( #212 ), #626, .T. ) ;
#97 = ORIENTED_EDGE ( 'NONE', *, *, #23, .F. ) ;
#98 = AXIS2_PLACEMENT_3D ( 'NONE', #616, #736, #79 ) ;
#99 = DIRECTION ( 'NONE',  ( 0.000000000000000000, 0.000000000000000000, -1.000000000000000000 ) ) ;
#100 = CIRCLE ( 'NONE', #745, 35.00000000000000000 ) ;
#101 = CARTESIAN_POINT ( 'NONE',  ( 34.92499999999999716, -4.286263797015736496E-15, 35.00000000000000000 ) ) ;
#102 = FACE_OUTER_BOUND ( 'NONE', #89, .T. ) ;
#103 = DIRECTION ( 'NONE',  ( -1.000000000000000000, 0.000000000000000000, 0.000000000000000000 ) ) ;
#104 = EDGE_CURVE ( 'NONE', #272, #90, #669, .T. ) ;
#105 = CYLINDRICAL_SURFACE ( 'NONE', #549, 25.00000000000000000 ) ;
#106 = DIRECTION ( 'NONE',  ( 0.000000000000000000, 0.000000000000000000, 1.000000000000000000 ) ) ;
#107 = DIRECTION ( 'NONE',  ( 0.000000000000000000, 0.000000000000000000, -1.000000000000000000 ) ) ;
#108 = CIRCLE ( 'NONE', #431, 24.99999999999999645 ) ;
#109 = CIRCLE ( 'NONE', #215, 0.6000000000000033085 ) ;
#110 = PLANE ( 'NONE',  #125 ) ;
#111 = DIRECTION ( 'NONE',  ( 1.000000000000000000, 0.000000000000000000, 0.000000000000000000 ) ) ;
#112 = VERTEX_POINT ( 'NONE', #148 ) ;
#113 = CARTESIAN_POINT ( 'NONE',  ( -2.855999999999998540, 3.411621053064695642E-15, -27.85799999999999699 ) ) ;
#114 = DIRECTION ( 'NONE',  ( 1.000000000000000000, 0.000000000000000000, 0.000000000000000000 ) ) ;
#115 = CARTESIAN_POINT ( 'NONE',  ( 34.92499999999999716, 0.000000000000000000, -35.00000000000000000 ) ) ;
#116 = EDGE_LOOP ( 'NONE', ( #315, #537, #181, #566 ) ) ;
#117 = DIRECTION ( 'NONE',  ( 0.000000000000000000, 1.224646799147346305E-16, -1.000000000000000000 ) ) ;
#118 = EDGE_CURVE ( 'NONE', #323, #683, #444, .T. ) ;
#119 = DIRECTION ( 'NONE',  ( -1.000000000000000000, 0.000000000000000000, 0.000000000000000000 ) ) ;
#120 = ORIENTED_EDGE ( 'NONE', *, *, #264, .T. ) ;
#121 = CLOSED_SHELL ( 'NONE', ( #593, #166, #729, #128, #7, #545, #470, #740, #760, #174, #700, #388, #169, #378, #146, #351, #548, #211, #96, #539, #132, #183, #73, #609, #509, #588, #512, #709 ) ) ;
#122 = FACE_BOUND ( 'NONE', #778, .T. ) ;
#123 = CIRCLE ( 'NONE', #281, 0.6000000000000033085 ) ;
#124 = AXIS2_PLACEMENT_3D ( 'NONE', #498, #731, #560 ) ;
#125 = AXIS2_PLACEMENT_3D ( 'NONE', #241, #359, #426 ) ;
#126 = ORIENTED_EDGE ( 'NONE', *, *, #485, .F. ) ;
#127 = CARTESIAN_POINT ( 'NONE',  ( 4.371989072956051376E-16, 0.000000000000000000, 0.000000000000000000 ) ) ;
#128 = ADVANCED_FACE ( 'NONE', ( #513 ), #204, .T. ) ;
#129 = APPLICATION_PROTOCOL_DEFINITION ( 'draft international standard', 'automotive_design', 1998, #338 ) ;
#130 = VERTEX_POINT ( 'NONE', #37 ) ;
#131 = DIRECTION ( 'NONE',  ( 0.000000000000000000, 0.000000000000000000, 1.000000000000000000 ) ) ;
#132 = ADVANCED_FACE ( 'NONE', ( #634 ), #644, .T. ) ;
#133 = ORIENTED_EDGE ( 'NONE', *, *, #49, .T. ) ;
#134 = EDGE_LOOP ( 'NONE', ( #554, #743 ) ) ;
#135 = DIRECTION ( 'NONE',  ( -0.000000000000000000, 1.000000000000000000, 1.224646799147353207E-16 ) ) ;
#136 = AXIS2_PLACEMENT_3D ( 'NONE', #188, #674, #547 ) ;
#137 =( GEOMETRIC_REPRESENTATION_CONTEXT ( 3 ) GLOBAL_UNCERTAINTY_ASSIGNED_CONTEXT ( ( #242 ) ) GLOBAL_UNIT_ASSIGNED_CONTEXT ( ( #478, #365, #236 ) ) REPRESENTATION_CONTEXT ( 'NONE', 'WORKASPACE' ) );
#138 = EDGE_LOOP ( 'NONE', ( #203, #31 ) ) ;
#139 = ORIENTED_EDGE ( 'NONE', *, *, #412, .F. ) ;
#140 = EDGE_CURVE ( 'NONE', #237, #112, #265, .T. ) ;
#141 = CARTESIAN_POINT ( 'NONE',  ( 0.000000000000000000, 0.000000000000000000, 30.00000000000000000 ) ) ;
#142 = VERTEX_POINT ( 'NONE', #306 ) ;
#143 = ORIENTED_EDGE ( 'NONE', *, *, #650, .T. ) ;
#144 = ORIENTED_EDGE ( 'NONE', *, *, #501, .T. ) ;
#145 = SHAPE_DEFINITION_REPRESENTATION ( #360, #270 ) ;
#146 = ADVANCED_FACE ( 'NONE', ( #122, #658 ), #110, .T. ) ;
#147 = ORIENTED_EDGE ( 'NONE', *, *, #685, .T. ) ;
#148 = CARTESIAN_POINT ( 'NONE',  ( -6.399999999999999467, 0.000000000000000000, -35.00000000000000000 ) ) ;
#149 = EDGE_CURVE ( 'NONE', #142, #383, #150, .T. ) ;
#150 = CIRCLE ( 'NONE', #307, 32.14199999999999591 ) ;
#151 = ORIENTED_EDGE ( 'NONE', *, *, #380, .F. ) ;
#152 = TOROIDAL_SURFACE ( 'NONE', #255, 30.00000000000000000, 3.570000000000000284 ) ;
#153 = ORIENTED_EDGE ( 'NONE', *, *, #460, .F. ) ;
#154 = DIRECTION ( 'NONE',  ( 0.000000000000000000, 0.000000000000000000, 1.000000000000000000 ) ) ;
#155 = DIRECTION ( 'NONE',  ( -1.000000000000000000, 0.000000000000000000, 0.000000000000000000 ) ) ;
#156 = ORIENTED_EDGE ( 'NONE', *, *, #325, .F. ) ;
#157 = DIRECTION ( 'NONE',  ( 0.000000000000000000, 0.000000000000000000, -1.000000000000000000 ) ) ;
#158 = CARTESIAN_POINT ( 'NONE',  ( 2.855999999999997208, 0.000000000000000000, 0.000000000000000000 ) ) ;
#159 = ORIENTED_EDGE ( 'NONE', *, *, #239, .T. ) ;
#160 = DIRECTION ( 'NONE',  ( -1.000000000000000000, -0.000000000000000000, -0.000000000000000000 ) ) ;
#161 = CARTESIAN_POINT ( 'NONE',  ( -6.400000000000000355, 0.000000000000000000, 0.000000000000000000 ) ) ;
#162 = AXIS2_PLACEMENT_3D ( 'NONE', #398, #155, #637 ) ;
#163 = AXIS2_PLACEMENT_3D ( 'NONE', #260, #605, #496 ) ;
#164 = DIRECTION ( 'NONE',  ( 0.000000000000000000, 0.000000000000000000, 1.000000000000000000 ) ) ;
#165 = AXIS2_PLACEMENT_3D ( 'NONE', #357, #656, #298 ) ;
#166 = ADVANCED_FACE ( 'NONE', ( #182 ), #62, .T. ) ;
#167 = AXIS2_PLACEMENT_3D ( 'NONE', #722, #422, #294 ) ;
#168 = DIRECTION ( 'NONE',  ( 1.000000000000000000, -0.000000000000000000, -0.000000000000000000 ) ) ;
#169 = ADVANCED_FACE ( 'NONE', ( #770 ), #370, .T. ) ;
#170 = CARTESIAN_POINT ( 'NONE',  ( 34.92499999999999716, 0.000000000000000000, 0.000000000000000000 ) ) ;
#171 = DIRECTION ( 'NONE',  ( -1.000000000000000000, -0.000000000000000000, -0.000000000000000000 ) ) ;
#172 = FACE_OUTER_BOUND ( 'NONE', #248, .T. ) ;
#173 = CARTESIAN_POINT ( 'NONE',  ( -2.855999999999998540, 0.000000000000000000, 0.000000000000000000 ) ) ;
#174 = ADVANCED_FACE ( 'NONE', ( #598 ), #693, .T. ) ;
#175 = CARTESIAN_POINT ( 'NONE',  ( 2.855999999999998540, 3.411621053064695642E-15, -27.85799999999999699 ) ) ;
#176 = ORIENTED_EDGE ( 'NONE', *, *, #284, .F. ) ;
#177 = AXIS2_PLACEMENT_3D ( 'NONE', #479, #781, #665 ) ;
#178 = DIRECTION ( 'NONE',  ( 0.000000000000000000, 0.000000000000000000, -1.000000000000000000 ) ) ;
#179 = DIRECTION ( 'NONE',  ( 0.000000000000000000, 0.000000000000000000, -1.000000000000000000 ) ) ;
#180 = LINE ( 'NONE', #115, #641 ) ;
#181 = ORIENTED_EDGE ( 'NONE', *, *, #394, .F. ) ;
#182 = FACE_OUTER_BOUND ( 'NONE', #29, .T. ) ;
#183 = ADVANCED_FACE ( 'NONE', ( #592, #52 ), #417, .T. ) ;
#184 = ORIENTED_EDGE ( 'NONE', *, *, #671, .T. ) ;
#185 = DIRECTION ( 'NONE',  ( 1.000000000000000000, -0.000000000000000000, -0.000000000000000000 ) ) ;
#186 = DIRECTION ( 'NONE',  ( 0.000000000000000000, 0.000000000000000000, -1.000000000000000000 ) ) ;
#187 = EDGE_LOOP ( 'NONE', ( #753, #277, #334, #559 ) ) ;
#188 = CARTESIAN_POINT ( 'NONE',  ( -6.399999999999999467, 0.000000000000000000, 0.000000000000000000 ) ) ;
#189 = EDGE_CURVE ( 'NONE', #546, #451, #375, .T. ) ;
#190 = CIRCLE ( 'NONE', #628, 27.85799999999999699 ) ;
#191 = CIRCLE ( 'NONE', #630, 35.00000000000000000 ) ;
#192 = EDGE_CURVE ( 'NONE', #726, #26, #768, .T. ) ;
#193 = EDGE_LOOP ( 'NONE', ( #749, #631, #362, #151 ) ) ;
#194 = CYLINDRICAL_SURFACE ( 'NONE', #728, 35.00000000000000000 ) ;
#195 = VERTEX_POINT ( 'NONE', #481 ) ;
#196 = ORIENTED_EDGE ( 'NONE', *, *, #774, .F. ) ;
#197 = CARTESIAN_POINT ( 'NONE',  ( 2.856000000000000316, 0.000000000000000000, 0.000000000000000000 ) ) ;
#198 = DIRECTION ( 'NONE',  ( -1.000000000000000000, -0.000000000000000000, -0.000000000000000000 ) ) ;
#199 = EDGE_LOOP ( 'NONE', ( #366, #400, #93, #531 ) ) ;
#200 = PLANE ( 'NONE',  #585 ) ;
#201 = EDGE_CURVE ( 'NONE', #195, #435, #355, .T. ) ;
#202 = CIRCLE ( 'NONE', #455, 3.570000000000000284 ) ;
#203 = ORIENTED_EDGE ( 'NONE', *, *, #712, .T. ) ;
#204 = TOROIDAL_SURFACE ( 'NONE', #162, 25.60000000000000142, 0.6000000000000019762 ) ;
#205 = VERTEX_POINT ( 'NONE', #528 ) ;
#206 = CARTESIAN_POINT ( 'NONE',  ( -7.000000000000002665, 0.000000000000000000, 0.000000000000000000 ) ) ;
#207 = EDGE_CURVE ( 'NONE', #85, #430, #100, .T. ) ;
#208 = ORIENTED_EDGE ( 'NONE', *, *, #140, .F. ) ;
#209 = DIRECTION ( 'NONE',  ( 0.000000000000000000, 0.000000000000000000, -1.000000000000000000 ) ) ;
#210 = ORIENTED_EDGE ( 'NONE', *, *, #149, .T. ) ;
#211 = ADVANCED_FACE ( 'NONE', ( #667, #234 ), #42, .T. ) ;
#212 = FACE_OUTER_BOUND ( 'NONE', #620, .T. ) ;
#213 = ORIENTED_EDGE ( 'NONE', *, *, #288, .T. ) ;
#214 = CARTESIAN_POINT ( 'NONE',  ( 7.000000000000002665, -3.135095805817224368E-15, 25.60000000000000497 ) ) ;
#215 = AXIS2_PLACEMENT_3D ( 'NONE', #224, #408, #279 ) ;
#216 = EDGE_LOOP ( 'NONE', ( #678, #483, #156, #133 ) ) ;
#217 = CIRCLE ( 'NONE', #565, 32.14199999999999591 ) ;
#218 = DIRECTION ( 'NONE',  ( 1.000000000000000000, -0.000000000000000000, -0.000000000000000000 ) ) ;
#219 = DIRECTION ( 'NONE',  ( -1.000000000000000000, -0.000000000000000000, -0.000000000000000000 ) ) ;
#220 = ORIENTED_EDGE ( 'NONE', *, *, #65, .F. ) ;
#221 = CARTESIAN_POINT ( 'NONE',  ( 6.399999999999999467, -4.286263797015736496E-15, 35.00000000000000000 ) ) ;
#222 = DIRECTION ( 'NONE',  ( 0.000000000000000000, -1.224646799147353207E-16, 1.000000000000000000 ) ) ;
#223 = EDGE_CURVE ( 'NONE', #130, #603, #466, .T. ) ;
#224 = CARTESIAN_POINT ( 'NONE',  ( 6.400000000000000355, 0.000000000000000000, -25.60000000000000142 ) ) ;
#225 = CARTESIAN_POINT ( 'NONE',  ( -2.855999999999997208, 0.000000000000000000, -35.00000000000000000 ) ) ;
#226 = DIRECTION ( 'NONE',  ( 0.000000000000000000, 0.000000000000000000, -1.000000000000000000 ) ) ;
#227 = AXIS2_PLACEMENT_3D ( 'NONE', #699, #578, #754 ) ;
#228 = CIRCLE ( 'NONE', #98, 25.00000000000000000 ) ;
#229 = CYLINDRICAL_SURFACE ( 'NONE', #404, 35.00000000000000000 ) ;
#230 = CIRCLE ( 'NONE', #330, 25.60000000000000497 ) ;
#231 = DIRECTION ( 'NONE',  ( 1.000000000000000000, -0.000000000000000000, -0.000000000000000000 ) ) ;
#232 = EDGE_CURVE ( 'NONE', #726, #546, #434, .T. ) ;
#233 = CARTESIAN_POINT ( 'NONE',  ( -34.92499999999999716, 0.000000000000000000, 0.000000000000000000 ) ) ;
#234 = FACE_OUTER_BOUND ( 'NONE', #446, .T. ) ;
#235 = CARTESIAN_POINT ( 'NONE',  ( 34.92499999999999716, -3.061616997868383043E-15, 25.00000000000000000 ) ) ;
#236 =( NAMED_UNIT ( * ) SI_UNIT ( $, .STERADIAN. ) SOLID_ANGLE_UNIT ( ) );
#237 = VERTEX_POINT ( 'NONE', #296 ) ;
#238 = CIRCLE ( 'NONE', #11, 25.60000000000000497 ) ;
#239 = EDGE_CURVE ( 'NONE', #625, #323, #374, .T. ) ;
#240 = CIRCLE ( 'NONE', #373, 35.00000000000000000 ) ;
#241 = CARTESIAN_POINT ( 'NONE',  ( -2.856000000000000316, 35.00000000000000000, 0.000000000000000000 ) ) ;
#242 = UNCERTAINTY_MEASURE_WITH_UNIT (LENGTH_MEASURE( 1.000000000000000082E-05 ), #478, 'distance_accuracy_value', 'NONE');
#243 = LINE ( 'NONE', #581, #533 ) ;
#244 = CARTESIAN_POINT ( 'NONE',  ( 0.000000000000000000, 3.673940397442059178E-15, -30.00000000000000000 ) ) ;
#245 = ORIENTED_EDGE ( 'NONE', *, *, #207, .T. ) ;
#246 = DIRECTION ( 'NONE',  ( 0.000000000000000000, 0.000000000000000000, -1.000000000000000000 ) ) ;
#247 = DIRECTION ( 'NONE',  ( -1.000000000000000000, 0.000000000000000000, 0.000000000000000000 ) ) ;
#248 = EDGE_LOOP ( 'NONE', ( #391, #159, #313, #614 ) ) ;
#249 = CARTESIAN_POINT ( 'NONE',  ( -6.400000000000000355, 4.212784989066894776E-15, 34.39999999999999858 ) ) ;
#250 = EDGE_CURVE ( 'NONE', #430, #85, #191, .T. ) ;
#251 = CARTESIAN_POINT ( 'NONE',  ( 0.000000000000000000, 0.000000000000000000, 30.00000000000000000 ) ) ;
#252 = EDGE_LOOP ( 'NONE', ( #82, #299, #303, #17 ) ) ;
#253 = AXIS2_PLACEMENT_3D ( 'NONE', #540, #583, #363 ) ;
#254 = CARTESIAN_POINT ( 'NONE',  ( -7.000000000000002665, 0.000000000000000000, -25.60000000000000497 ) ) ;
#255 = AXIS2_PLACEMENT_3D ( 'NONE', #382, #552, #746 ) ;
#256 = EDGE_LOOP ( 'NONE', ( #514, #392 ) ) ;
#257 = CARTESIAN_POINT ( 'NONE',  ( 6.399999999999999467, 0.000000000000000000, 0.000000000000000000 ) ) ;
#258 = ORIENTED_EDGE ( 'NONE', *, *, #39, .F. ) ;
#259 = VERTEX_POINT ( 'NONE', #69 ) ;
#260 = CARTESIAN_POINT ( 'NONE',  ( 2.855999999999997208, 0.000000000000000000, 0.000000000000000000 ) ) ;
#261 = ORIENTED_EDGE ( 'NONE', *, *, #668, .F. ) ;
#262 = ORIENTED_EDGE ( 'NONE', *, *, #39, .T. ) ;
#263 = DIRECTION ( 'NONE',  ( 0.000000000000000000, 1.000000000000000000, 0.000000000000000000 ) ) ;
#264 = EDGE_CURVE ( 'NONE', #751, #75, #345, .T. ) ;
#265 = CIRCLE ( 'NONE', #490, 35.00000000000000000 ) ;
#266 = AXIS2_PLACEMENT_3D ( 'NONE', #127, #198, #379 ) ;
#267 = AXIS2_PLACEMENT_3D ( 'NONE', #660, #63, #107 ) ;
#268 = TOROIDAL_SURFACE ( 'NONE', #464, 34.39999999999999858, 0.6000000000000019762 ) ;
#269 = VERTEX_POINT ( 'NONE', #314 ) ;
#270 = ADVANCED_BREP_SHAPE_REPRESENTATION ( 'thrust ball bearing_68_iso', ( #676, #124 ), #61 ) ;
#271 = PLANE ( 'NONE',  #83 ) ;
#272 = VERTEX_POINT ( 'NONE', #436 ) ;
#273 = FACE_OUTER_BOUND ( 'NONE', #499, .T. ) ;
#274 = ORIENTED_EDGE ( 'NONE', *, *, #118, .F. ) ;
#275 = EDGE_CURVE ( 'NONE', #112, #507, #681, .T. ) ;
#276 = DIRECTION ( 'NONE',  ( 0.000000000000000000, 0.000000000000000000, -1.000000000000000000 ) ) ;
#277 = ORIENTED_EDGE ( 'NONE', *, *, #368, .T. ) ;
#278 = EDGE_CURVE ( 'NONE', #75, #751, #492, .T. ) ;
#279 = DIRECTION ( 'NONE',  ( 0.000000000000000000, 0.000000000000000000, 1.000000000000000000 ) ) ;
#280 = CARTESIAN_POINT ( 'NONE',  ( 2.856000000000000316, 0.000000000000000000, 0.000000000000000000 ) ) ;
#281 = AXIS2_PLACEMENT_3D ( 'NONE', #594, #43, #586 ) ;
#282 = AXIS2_PLACEMENT_3D ( 'NONE', #295, #114, #536 ) ;
#283 = CARTESIAN_POINT ( 'NONE',  ( 7.000000000000002665, 0.000000000000000000, 0.000000000000000000 ) ) ;
#284 = EDGE_CURVE ( 'NONE', #603, #130, #228, .T. ) ;
#285 = FACE_OUTER_BOUND ( 'NONE', #13, .T. ) ;
#286 = CARTESIAN_POINT ( 'NONE',  ( -7.000000000000002665, 0.000000000000000000, 0.000000000000000000 ) ) ;
#287 = CARTESIAN_POINT ( 'NONE',  ( 4.371989072956051376E-16, 0.000000000000000000, 0.000000000000000000 ) ) ;
#288 = EDGE_CURVE ( 'NONE', #445, #751, #719, .T. ) ;
#289 = DIRECTION ( 'NONE',  ( -1.000000000000000000, 0.000000000000000000, 0.000000000000000000 ) ) ;
#290 = AXIS2_PLACEMENT_3D ( 'NONE', #489, #15, #226 ) ;
#291 = AXIS2_PLACEMENT_3D ( 'NONE', #739, #733, #611 ) ;
#292 = DIRECTION ( 'NONE',  ( 0.000000000000000000, 0.000000000000000000, -1.000000000000000000 ) ) ;
#293 = AXIS2_PLACEMENT_3D ( 'NONE', #521, #767, #186 ) ;
#294 = DIRECTION ( 'NONE',  ( -0.000000000000000000, 0.000000000000000000, 1.000000000000000000 ) ) ;
#295 = CARTESIAN_POINT ( 'NONE',  ( -6.999999999999999112, 0.000000000000000000, 0.000000000000000000 ) ) ;
#296 = CARTESIAN_POINT ( 'NONE',  ( -6.399999999999999467, 4.286263797015736496E-15, 35.00000000000000000 ) ) ;
#297 = CARTESIAN_POINT ( 'NONE',  ( 4.371989072956051376E-16, 0.000000000000000000, 26.42999999999999972 ) ) ;
#298 = DIRECTION ( 'NONE',  ( 0.000000000000000000, 0.000000000000000000, -1.000000000000000000 ) ) ;
#299 = ORIENTED_EDGE ( 'NONE', *, *, #56, .T. ) ;
#300 = CARTESIAN_POINT ( 'NONE',  ( 0.000000000000000000, 0.000000000000000000, 0.000000000000000000 ) ) ;
#301 = DIRECTION ( 'NONE',  ( 0.000000000000000000, 0.000000000000000000, -1.000000000000000000 ) ) ;
#302 = CIRCLE ( 'NONE', #599, 3.570000000000000284 ) ;
#303 = ORIENTED_EDGE ( 'NONE', *, *, #648, .T. ) ;
#304 = CIRCLE ( 'NONE', #742, 34.39999999999999858 ) ;
#305 = CIRCLE ( 'NONE', #332, 3.570000000000000284 ) ;
#306 = CARTESIAN_POINT ( 'NONE',  ( -2.856000000000000316, 0.000000000000000000, 32.14199999999999591 ) ) ;
#307 = AXIS2_PLACEMENT_3D ( 'NONE', #589, #476, #472 ) ;
#308 = DIRECTION ( 'NONE',  ( -1.000000000000000000, -0.000000000000000000, -0.000000000000000000 ) ) ;
#309 = ORIENTED_EDGE ( 'NONE', *, *, #275, .T. ) ;
#310 = DIRECTION ( 'NONE',  ( 0.000000000000000000, 1.224646799147346305E-16, 1.000000000000000000 ) ) ;
#311 = DIRECTION ( 'NONE',  ( 0.000000000000000000, 0.000000000000000000, -1.000000000000000000 ) ) ;
#312 = CARTESIAN_POINT ( 'NONE',  ( -2.855999999999997208, 0.000000000000000000, 0.000000000000000000 ) ) ;
#313 = ORIENTED_EDGE ( 'NONE', *, *, #316, .F. ) ;
#314 = CARTESIAN_POINT ( 'NONE',  ( -6.999999999999999112, 0.000000000000000000, -34.39999999999999858 ) ) ;
#315 = ORIENTED_EDGE ( 'NONE', *, *, #5, .T. ) ;
#316 = EDGE_CURVE ( 'NONE', #683, #323, #682, .T. ) ;
#317 = AXIS2_PLACEMENT_3D ( 'NONE', #462, #340, #517 ) ;
#318 = DIRECTION ( 'NONE',  ( 0.000000000000000000, 0.000000000000000000, 1.000000000000000000 ) ) ;
#319 = CIRCLE ( 'NONE', #282, 34.39999999999999858 ) ;
#320 = CARTESIAN_POINT ( 'NONE',  ( -34.92499999999999716, 4.286263797015736496E-15, 35.00000000000000000 ) ) ;
#321 = ORIENTED_EDGE ( 'NONE', *, *, #412, .T. ) ;
#322 = DIRECTION ( 'NONE',  ( 0.000000000000000000, 0.000000000000000000, -1.000000000000000000 ) ) ;
#323 = VERTEX_POINT ( 'NONE', #386 ) ;
#324 =( LENGTH_UNIT ( ) NAMED_UNIT ( * ) SI_UNIT ( .MILLI., .METRE. ) );
#325 = EDGE_CURVE ( 'NONE', #435, #195, #190, .T. ) ;
#326 = ORIENTED_EDGE ( 'NONE', *, *, #49, .F. ) ;
#327 = DIRECTION ( 'NONE',  ( 1.000000000000000000, 0.000000000000000000, 0.000000000000000000 ) ) ;
#328 =( NAMED_UNIT ( * ) SI_UNIT ( $, .STERADIAN. ) SOLID_ANGLE_UNIT ( ) );
#329 = ORIENTED_EDGE ( 'NONE', *, *, #427, .T. ) ;
#330 = AXIS2_PLACEMENT_3D ( 'NONE', #286, #33, #409 ) ;
#331 = AXIS2_PLACEMENT_3D ( 'NONE', #757, #582, #577 ) ;
#332 = AXIS2_PLACEMENT_3D ( 'NONE', #251, #51, #777 ) ;
#333 = AXIS2_PLACEMENT_3D ( 'NONE', #161, #519, #450 ) ;
#334 = ORIENTED_EDGE ( 'NONE', *, *, #405, .F. ) ;
#335 = EDGE_CURVE ( 'NONE', #195, #511, #202, .T. ) ;
#336 = DIRECTION ( 'NONE',  ( -0.000000000000000000, 1.000000000000000000, 1.224646799147353207E-16 ) ) ;
#337 = ORIENTED_EDGE ( 'NONE', *, *, #752, .T. ) ;
#338 = APPLICATION_CONTEXT ( 'automotive_design' ) ;
#339 = ORIENTED_EDGE ( 'NONE', *, *, #278, .T. ) ;
#340 = DIRECTION ( 'NONE',  ( 1.000000000000000000, 0.000000000000000000, -0.000000000000000000 ) ) ;
#341 = DIRECTION ( 'NONE',  ( 1.000000000000000000, 0.000000000000000000, 0.000000000000000000 ) ) ;
#342 = ORIENTED_EDGE ( 'NONE', *, *, #394, .T. ) ;
#343 = CARTESIAN_POINT ( 'NONE',  ( 6.999999999999999112, 0.000000000000000000, 0.000000000000000000 ) ) ;
#344 = DIRECTION ( 'NONE',  ( -1.000000000000000000, 0.000000000000000000, 0.000000000000000000 ) ) ;
#345 = CIRCLE ( 'NONE', #525, 27.85799999999999699 ) ;
#346 = CIRCLE ( 'NONE', #432, 3.570000000000000284 ) ;
#347 = CARTESIAN_POINT ( 'NONE',  ( -6.400000000000000355, 0.000000000000000000, 0.000000000000000000 ) ) ;
#348 = FACE_OUTER_BOUND ( 'NONE', #134, .T. ) ;
#349 = PRODUCT_DEFINITION_CONTEXT ( 'detailed design', #338, 'design' ) ;
#350 = FACE_OUTER_BOUND ( 'NONE', #690, .T. ) ;
#351 = ADVANCED_FACE ( 'NONE', ( #18 ), #194, .T. ) ;
#352 = DIRECTION ( 'NONE',  ( 0.000000000000000000, 0.000000000000000000, -1.000000000000000000 ) ) ;
#353 = DIRECTION ( 'NONE',  ( 0.000000000000000000, 0.000000000000000000, -1.000000000000000000 ) ) ;
#354 = CARTESIAN_POINT ( 'NONE',  ( 6.399999999999999467, 0.000000000000000000, 0.000000000000000000 ) ) ;
#355 = CIRCLE ( 'NONE', #10, 27.85799999999999699 ) ;
#356 = TOROIDAL_SURFACE ( 'NONE', #670, 34.39999999999999858, 0.6000000000000019762 ) ;
#357 = CARTESIAN_POINT ( 'NONE',  ( -6.400000000000000355, 0.000000000000000000, -25.60000000000000142 ) ) ;
#358 = MECHANICAL_DESIGN_GEOMETRIC_PRESENTATION_REPRESENTATION (  '', ( #730 ), #137 ) ;
#359 = DIRECTION ( 'NONE',  ( 1.000000000000000000, 0.000000000000000000, 0.000000000000000000 ) ) ;
#360 = PRODUCT_DEFINITION_SHAPE ( 'NONE', 'NONE',  #87 ) ;
#361 = CARTESIAN_POINT ( 'NONE',  ( -34.92499999999999716, 0.000000000000000000, -25.00000000000000000 ) ) ;
#362 = ORIENTED_EDGE ( 'NONE', *, *, #189, .T. ) ;
#363 = DIRECTION ( 'NONE',  ( 0.000000000000000000, 0.000000000000000000, -1.000000000000000000 ) ) ;
#364 = DIRECTION ( 'NONE',  ( -1.000000000000000000, 0.000000000000000000, 0.000000000000000000 ) ) ;
#365 =( NAMED_UNIT ( * ) PLANE_ANGLE_UNIT ( ) SI_UNIT ( $, .RADIAN. ) );
#366 = ORIENTED_EDGE ( 'NONE', *, *, #501, .F. ) ;
#367 = CARTESIAN_POINT ( 'NONE',  ( 6.999999999999999112, 0.000000000000000000, 0.000000000000000000 ) ) ;
#368 = EDGE_CURVE ( 'NONE', #399, #237, #600, .T. ) ;
#369 = FACE_OUTER_BOUND ( 'NONE', #19, .T. ) ;
#370 = TOROIDAL_SURFACE ( 'NONE', #584, 30.00000000000000000, 3.570000000000000284 ) ;
#371 = VERTEX_POINT ( 'NONE', #254 ) ;
#372 = TOROIDAL_SURFACE ( 'NONE', #177, 30.00000000000000000, 3.570000000000000284 ) ;
#373 = AXIS2_PLACEMENT_3D ( 'NONE', #312, #590, #530 ) ;
#374 = LINE ( 'NONE', #235, #527 ) ;
#375 = CIRCLE ( 'NONE', #708, 35.00000000000000000 ) ;
#376 = SURFACE_STYLE_USAGE ( .BOTH. , #587 ) ;
#377 = ORIENTED_EDGE ( 'NONE', *, *, #765, .F. ) ;
#378 = ADVANCED_FACE ( 'NONE', ( #677, #447 ), #200, .T. ) ;
#379 = DIRECTION ( 'NONE',  ( 0.000000000000000000, 0.000000000000000000, 1.000000000000000000 ) ) ;
#380 = EDGE_CURVE ( 'NONE', #26, #451, #72, .T. ) ;
#381 = ORIENTED_EDGE ( 'NONE', *, *, #201, .T. ) ;
#382 = CARTESIAN_POINT ( 'NONE',  ( 0.000000000000000000, 0.000000000000000000, 0.000000000000000000 ) ) ;
#383 = VERTEX_POINT ( 'NONE', #4 ) ;
#384 = ORIENTED_EDGE ( 'NONE', *, *, #405, .T. ) ;
#385 = TOROIDAL_SURFACE ( 'NONE', #331, 25.60000000000000142, 0.6000000000000019762 ) ;
#386 = CARTESIAN_POINT ( 'NONE',  ( 2.855999999999997208, -3.061616997868383043E-15, 25.00000000000000000 ) ) ;
#387 = CIRCLE ( 'NONE', #744, 3.570000000000000284 ) ;
#388 = ADVANCED_FACE ( 'NONE', ( #505 ), #152, .T. ) ;
#389 = CARTESIAN_POINT ( 'NONE',  ( -34.92499999999999716, 0.000000000000000000, 0.000000000000000000 ) ) ;
#390 = ORIENTED_EDGE ( 'NONE', *, *, #284, .T. ) ;
#391 = ORIENTED_EDGE ( 'NONE', *, *, #518, .T. ) ;
#392 = ORIENTED_EDGE ( 'NONE', *, *, #264, .F. ) ;
#393 = ORIENTED_EDGE ( 'NONE', *, *, #564, .F. ) ;
#394 = EDGE_CURVE ( 'NONE', #371, #571, #397, .T. ) ;
#395 = AXIS2_PLACEMENT_3D ( 'NONE', #158, #396, #276 ) ;
#396 = DIRECTION ( 'NONE',  ( 1.000000000000000000, -0.000000000000000000, -0.000000000000000000 ) ) ;
#397 = CIRCLE ( 'NONE', #441, 25.60000000000000497 ) ;
#398 = CARTESIAN_POINT ( 'NONE',  ( 6.400000000000000355, 0.000000000000000000, 0.000000000000000000 ) ) ;
#399 = VERTEX_POINT ( 'NONE', #727 ) ;
#400 = ORIENTED_EDGE ( 'NONE', *, *, #518, .F. ) ;
#401 = FACE_OUTER_BOUND ( 'NONE', #618, .T. ) ;
#402 = CARTESIAN_POINT ( 'NONE',  ( 7.000000000000002665, 0.000000000000000000, 0.000000000000000000 ) ) ;
#403 = DIRECTION ( 'NONE',  ( -1.000000000000000000, 0.000000000000000000, 0.000000000000000000 ) ) ;
#404 = AXIS2_PLACEMENT_3D ( 'NONE', #170, #646, #698 ) ;
#405 = EDGE_CURVE ( 'NONE', #112, #237, #695, .T. ) ;
#406 = CIRCLE ( 'NONE', #576, 24.99999999999999645 ) ;
#407 = AXIS2_PLACEMENT_3D ( 'NONE', #55, #714, #532 ) ;
#408 = DIRECTION ( 'NONE',  ( 0.000000000000000000, 1.000000000000000000, 0.000000000000000000 ) ) ;
#409 = DIRECTION ( 'NONE',  ( 0.000000000000000000, 0.000000000000000000, -1.000000000000000000 ) ) ;
#410 = PLANE ( 'NONE',  #317 ) ;
#411 = CYLINDRICAL_SURFACE ( 'NONE', #27, 25.00000000000000000 ) ;
#412 = EDGE_CURVE ( 'NONE', #445, #511, #574, .T. ) ;
#413 = CARTESIAN_POINT ( 'NONE',  ( -2.855999999999997208, 0.000000000000000000, 0.000000000000000000 ) ) ;
#414 = AXIS2_PLACEMENT_3D ( 'NONE', #772, #160, #154 ) ;
#415 = CARTESIAN_POINT ( 'NONE',  ( -2.856000000000000316, 0.000000000000000000, 0.000000000000000000 ) ) ;
#416 = ORIENTED_EDGE ( 'NONE', *, *, #368, .F. ) ;
#417 = PLANE ( 'NONE',  #407 ) ;
#418 = DIRECTION ( 'NONE',  ( 0.000000000000000000, 0.000000000000000000, 1.000000000000000000 ) ) ;
#419 = PRESENTATION_STYLE_ASSIGNMENT (( #376 ) ) ;
#420 = EDGE_CURVE ( 'NONE', #451, #546, #705, .T. ) ;
#421 = ORIENTED_EDGE ( 'NONE', *, *, #671, .F. ) ;
#422 = DIRECTION ( 'NONE',  ( -1.000000000000000000, 0.000000000000000000, -0.000000000000000000 ) ) ;
#423 = CARTESIAN_POINT ( 'NONE',  ( 6.399999999999999467, 0.000000000000000000, -35.00000000000000000 ) ) ;
#424 = EDGE_LOOP ( 'NONE', ( #342, #597 ) ) ;
#425 = DIRECTION ( 'NONE',  ( -0.000000000000000000, -1.000000000000000000, -1.224646799147353207E-16 ) ) ;
#426 = DIRECTION ( 'NONE',  ( 0.000000000000000000, 0.000000000000000000, -1.000000000000000000 ) ) ;
#427 = EDGE_CURVE ( 'NONE', #687, #205, #60, .T. ) ;
#428 = DIRECTION ( 'NONE',  ( 0.000000000000000000, 0.000000000000000000, -1.000000000000000000 ) ) ;
#429 = AXIS2_PLACEMENT_3D ( 'NONE', #759, #219, #461 ) ;
#430 = VERTEX_POINT ( 'NONE', #50 ) ;
#431 = AXIS2_PLACEMENT_3D ( 'NONE', #38, #218, #99 ) ;
#432 = AXIS2_PLACEMENT_3D ( 'NONE', #244, #482, #723 ) ;
#433 = CARTESIAN_POINT ( 'NONE',  ( 0.000000000000000000, 3.673940397442059178E-15, -30.00000000000000000 ) ) ;
#434 = CIRCLE ( 'NONE', #86, 0.6000000000000033085 ) ;
#435 = VERTEX_POINT ( 'NONE', #113 ) ;
#436 = CARTESIAN_POINT ( 'NONE',  ( 7.000000000000002665, 0.000000000000000000, -25.60000000000000497 ) ) ;
#437 = ORIENTED_EDGE ( 'NONE', *, *, #439, .T. ) ;
#438 = DIRECTION ( 'NONE',  ( 1.000000000000000000, -0.000000000000000000, -0.000000000000000000 ) ) ;
#439 = EDGE_CURVE ( 'NONE', #259, #683, #243, .T. ) ;
#440 = ORIENTED_EDGE ( 'NONE', *, *, #564, .T. ) ;
#441 = AXIS2_PLACEMENT_3D ( 'NONE', #206, #66, #488 ) ;
#442 = DIRECTION ( 'NONE',  ( 0.000000000000000000, -1.224646799147353207E-16, 1.000000000000000000 ) ) ;
#443 = CIRCLE ( 'NONE', #615, 34.39999999999999858 ) ;
#444 = CIRCLE ( 'NONE', #395, 25.00000000000000000 ) ;
#445 = VERTEX_POINT ( 'NONE', #651 ) ;
#446 = EDGE_LOOP ( 'NONE', ( #377, #732 ) ) ;
#447 = FACE_OUTER_BOUND ( 'NONE', #724, .T. ) ;
#448 = DIRECTION ( 'NONE',  ( 1.000000000000000000, 0.000000000000000000, 0.000000000000000000 ) ) ;
#449 = ORIENTED_EDGE ( 'NONE', *, *, #232, .F. ) ;
#450 = DIRECTION ( 'NONE',  ( 0.000000000000000000, 0.000000000000000000, -1.000000000000000000 ) ) ;
#451 = VERTEX_POINT ( 'NONE', #423 ) ;
#452 = ORIENTED_EDGE ( 'NONE', *, *, #420, .T. ) ;
#453 = VECTOR ( 'NONE', #344, 1000.000000000000000 ) ;
#454 = FACE_OUTER_BOUND ( 'NONE', #193, .T. ) ;
#455 = AXIS2_PLACEMENT_3D ( 'NONE', #141, #500, #76 ) ;
#456 = ORIENTED_EDGE ( 'NONE', *, *, #712, .F. ) ;
#457 = DIRECTION ( 'NONE',  ( 1.000000000000000000, -0.000000000000000000, -0.000000000000000000 ) ) ;
#458 = CARTESIAN_POINT ( 'NONE',  ( 0.000000000000000000, 3.673940397442059178E-15, -30.00000000000000000 ) ) ;
#459 = DIRECTION ( 'NONE',  ( 0.000000000000000000, 0.000000000000000000, -1.000000000000000000 ) ) ;
#460 = EDGE_CURVE ( 'NONE', #16, #571, #123, .T. ) ;
#461 = DIRECTION ( 'NONE',  ( 0.000000000000000000, 0.000000000000000000, 1.000000000000000000 ) ) ;
#462 = CARTESIAN_POINT ( 'NONE',  ( 7.000000000000001776, 25.60000000000000497, 0.000000000000000000 ) ) ;
#463 = FACE_BOUND ( 'NONE', #54, .T. ) ;
#464 = AXIS2_PLACEMENT_3D ( 'NONE', #95, #103, #706 ) ;
#465 = AXIS2_PLACEMENT_3D ( 'NONE', #21, #263, #131 ) ;
#466 = CIRCLE ( 'NONE', #771, 25.00000000000000000 ) ;
#467 = FACE_BOUND ( 'NONE', #755, .T. ) ;
#468 = CARTESIAN_POINT ( 'NONE',  ( 2.855999999999997208, 0.000000000000000000, 0.000000000000000000 ) ) ;
#469 = UNCERTAINTY_MEASURE_WITH_UNIT (LENGTH_MEASURE( 1.000000000000000082E-05 ), #324, 'distance_accuracy_value', 'NONE');
#470 = ADVANCED_FACE ( 'NONE', ( #534 ), #372, .T. ) ;
#471 = FACE_OUTER_BOUND ( 'NONE', #474, .T. ) ;
#472 = DIRECTION ( 'NONE',  ( 0.000000000000000000, 0.000000000000000000, -1.000000000000000000 ) ) ;
#473 = DIRECTION ( 'NONE',  ( 0.000000000000000000, 0.000000000000000000, -1.000000000000000000 ) ) ;
#474 = EDGE_LOOP ( 'NONE', ( #81, #321, #623, #339 ) ) ;
#475 = PRODUCT ( 'thrust ball bearing_68_iso', 'thrust ball bearing_68_iso', '', ( #748 ) ) ;
#476 = DIRECTION ( 'NONE',  ( -1.000000000000000000, -0.000000000000000000, -0.000000000000000000 ) ) ;
#477 = VECTOR ( 'NONE', #111, 1000.000000000000000 ) ;
#478 =( LENGTH_UNIT ( ) NAMED_UNIT ( * ) SI_UNIT ( .MILLI., .METRE. ) );
#479 = CARTESIAN_POINT ( 'NONE',  ( 0.000000000000000000, 0.000000000000000000, 0.000000000000000000 ) ) ;
#480 = ORIENTED_EDGE ( 'NONE', *, *, #118, .T. ) ;
#481 = CARTESIAN_POINT ( 'NONE',  ( -2.855999999999998540, 0.000000000000000000, 27.85799999999999699 ) ) ;
#482 = DIRECTION ( 'NONE',  ( -0.000000000000000000, 1.000000000000000000, 1.224646799147353207E-16 ) ) ;
#483 = ORIENTED_EDGE ( 'NONE', *, *, #335, .F. ) ;
#484 = DIRECTION ( 'NONE',  ( 0.000000000000000000, 0.000000000000000000, 1.000000000000000000 ) ) ;
#485 = EDGE_CURVE ( 'NONE', #451, #430, #180, .T. ) ;
#486 = LINE ( 'NONE', #361, #477 ) ;
#487 = ORIENTED_EDGE ( 'NONE', *, *, #380, .T. ) ;
#488 = DIRECTION ( 'NONE',  ( 0.000000000000000000, 0.000000000000000000, -1.000000000000000000 ) ) ;
#489 = CARTESIAN_POINT ( 'NONE',  ( -6.399999999999999467, 0.000000000000000000, 0.000000000000000000 ) ) ;
#490 = AXIS2_PLACEMENT_3D ( 'NONE', #642, #92, #711 ) ;
#491 = ORIENTED_EDGE ( 'NONE', *, *, #659, .T. ) ;
#492 = CIRCLE ( 'NONE', #291, 27.85799999999999699 ) ;
#493 = AXIS2_PLACEMENT_3D ( 'NONE', #287, #515, #164 ) ;
#494 = CARTESIAN_POINT ( 'NONE',  ( -34.92499999999999716, 0.000000000000000000, -35.00000000000000000 ) ) ;
#495 = ORIENTED_EDGE ( 'NONE', *, *, #316, .T. ) ;
#496 = DIRECTION ( 'NONE',  ( 0.000000000000000000, 0.000000000000000000, -1.000000000000000000 ) ) ;
#497 = ORIENTED_EDGE ( 'NONE', *, *, #223, .T. ) ;
#498 = CARTESIAN_POINT ( 'NONE',  ( 0.000000000000000000, 0.000000000000000000, 0.000000000000000000 ) ) ;
#499 = EDGE_LOOP ( 'NONE', ( #449, #78, #487, #452 ) ) ;
#500 = DIRECTION ( 'NONE',  ( 0.000000000000000000, -1.000000000000000000, 0.000000000000000000 ) ) ;
#501 = EDGE_CURVE ( 'NONE', #625, #90, #613, .T. ) ;
#502 = ORIENTED_EDGE ( 'NONE', *, *, #201, .F. ) ;
#503 = AXIS2_PLACEMENT_3D ( 'NONE', #402, #691, #352 ) ;
#504 = AXIS2_PLACEMENT_3D ( 'NONE', #347, #573, #353 ) ;
#505 = FACE_OUTER_BOUND ( 'NONE', #84, .T. ) ;
#506 = AXIS2_PLACEMENT_3D ( 'NONE', #664, #725, #179 ) ;
#507 = VERTEX_POINT ( 'NONE', #225 ) ;
#508 = CARTESIAN_POINT ( 'NONE',  ( -6.399999999999999467, 3.098356401842803903E-15, 24.99999999999999645 ) ) ;
#509 = ADVANCED_FACE ( 'NONE', ( #273 ), #356, .T. ) ;
#510 = ORIENTED_EDGE ( 'NONE', *, *, #622, .F. ) ;
#511 = VERTEX_POINT ( 'NONE', #297 ) ;
#512 = ADVANCED_FACE ( 'NONE', ( #639 ), #385, .T. ) ;
#513 = FACE_OUTER_BOUND ( 'NONE', #721, .T. ) ;
#514 = ORIENTED_EDGE ( 'NONE', *, *, #278, .F. ) ;
#515 = DIRECTION ( 'NONE',  ( -1.000000000000000000, -0.000000000000000000, -0.000000000000000000 ) ) ;
#516 = AXIS2_PLACEMENT_3D ( 'NONE', #433, #135, #442 ) ;
#517 = DIRECTION ( 'NONE',  ( 0.000000000000000000, 0.000000000000000000, 1.000000000000000000 ) ) ;
#518 = EDGE_CURVE ( 'NONE', #259, #625, #108, .T. ) ;
#519 = DIRECTION ( 'NONE',  ( 1.000000000000000000, 0.000000000000000000, 0.000000000000000000 ) ) ;
#520 = FACE_OUTER_BOUND ( 'NONE', #557, .T. ) ;
#521 = CARTESIAN_POINT ( 'NONE',  ( -6.400000000000000355, 0.000000000000000000, -34.39999999999999858 ) ) ;
#522 = DIRECTION ( 'NONE',  ( -1.000000000000000000, -0.000000000000000000, -0.000000000000000000 ) ) ;
#523 = CIRCLE ( 'NONE', #673, 24.99999999999999645 ) ;
#524 = EDGE_CURVE ( 'NONE', #26, #726, #304, .T. ) ;
#525 = AXIS2_PLACEMENT_3D ( 'NONE', #684, #619, #322 ) ;
#526 = CIRCLE ( 'NONE', #493, 26.42999999999999972 ) ;
#527 = VECTOR ( 'NONE', #289, 1000.000000000000000 ) ;
#528 = CARTESIAN_POINT ( 'NONE',  ( 2.856000000000000316, 3.936259741819422320E-15, -32.14199999999999591 ) ) ;
#529 = DIRECTION ( 'NONE',  ( 1.000000000000000000, -0.000000000000000000, -0.000000000000000000 ) ) ;
#530 = DIRECTION ( 'NONE',  ( 0.000000000000000000, 0.000000000000000000, -1.000000000000000000 ) ) ;
#531 = ORIENTED_EDGE ( 'NONE', *, *, #104, .T. ) ;
#532 = DIRECTION ( 'NONE',  ( 0.000000000000000000, 0.000000000000000000, -1.000000000000000000 ) ) ;
#533 = VECTOR ( 'NONE', #364, 1000.000000000000000 ) ;
#534 = FACE_OUTER_BOUND ( 'NONE', #216, .T. ) ;
#535 = COLOUR_RGB ( '',0.7921568627450980005, 0.8196078431372548767, 0.9333333333333333481 ) ;
#536 = DIRECTION ( 'NONE',  ( 0.000000000000000000, 0.000000000000000000, -1.000000000000000000 ) ) ;
#537 = ORIENTED_EDGE ( 'NONE', *, *, #460, .T. ) ;
#538 = CIRCLE ( 'NONE', #741, 32.14199999999999591 ) ;
#539 = ADVANCED_FACE ( 'NONE', ( #285 ), #105, .F. ) ;
#540 = CARTESIAN_POINT ( 'NONE',  ( -6.400000000000000355, 0.000000000000000000, 0.000000000000000000 ) ) ;
#541 = DIRECTION ( 'NONE',  ( -1.000000000000000000, 0.000000000000000000, 0.000000000000000000 ) ) ;
#542 = ORIENTED_EDGE ( 'NONE', *, *, #648, .F. ) ;
#543 = DIRECTION ( 'NONE',  ( 1.000000000000000000, 0.000000000000000000, 0.000000000000000000 ) ) ;
#544 = CARTESIAN_POINT ( 'NONE',  ( 6.999999999999999112, -4.249524393041315636E-15, 34.39999999999999858 ) ) ;
#545 = ADVANCED_FACE ( 'NONE', ( #520 ), #229, .T. ) ;
#546 = VERTEX_POINT ( 'NONE', #221 ) ;
#547 = DIRECTION ( 'NONE',  ( 0.000000000000000000, 0.000000000000000000, -1.000000000000000000 ) ) ;
#548 = ADVANCED_FACE ( 'NONE', ( #350 ), #654, .T. ) ;
#549 = AXIS2_PLACEMENT_3D ( 'NONE', #233, #763, #710 ) ;
#550 = ORIENTED_EDGE ( 'NONE', *, *, #694, .T. ) ;
#551 = AXIS2_PLACEMENT_3D ( 'NONE', #197, #541, #418 ) ;
#552 = DIRECTION ( 'NONE',  ( -1.000000000000000000, -0.000000000000000000, -0.000000000000000000 ) ) ;
#553 =( NAMED_UNIT ( * ) PLANE_ANGLE_UNIT ( ) SI_UNIT ( $, .RADIAN. ) );
#554 = ORIENTED_EDGE ( 'NONE', *, *, #250, .F. ) ;
#555 = DIRECTION ( 'NONE',  ( 0.000000000000000000, 0.000000000000000000, -1.000000000000000000 ) ) ;
#556 = ORIENTED_EDGE ( 'NONE', *, *, #640, .T. ) ;
#557 = EDGE_LOOP ( 'NONE', ( #68, #262, #245, #126 ) ) ;
#558 = DIRECTION ( 'NONE',  ( 0.000000000000000000, 0.000000000000000000, -1.000000000000000000 ) ) ;
#559 = ORIENTED_EDGE ( 'NONE', *, *, #650, .F. ) ;
#560 = DIRECTION ( 'NONE',  ( 1.000000000000000000, 0.000000000000000000, 0.000000000000000000 ) ) ;
#561 = EDGE_LOOP ( 'NONE', ( #495, #480 ) ) ;
#562 = VECTOR ( 'NONE', #341, 1000.000000000000000 ) ;
#563 = AXIS2_PLACEMENT_3D ( 'NONE', #2, #425, #764 ) ;
#564 = EDGE_CURVE ( 'NONE', #90, #272, #238, .T. ) ;
#565 = AXIS2_PLACEMENT_3D ( 'NONE', #415, #308, #473 ) ;
#566 = ORIENTED_EDGE ( 'NONE', *, *, #752, .F. ) ;
#567 = CARTESIAN_POINT ( 'NONE',  ( 6.399999999999999467, 0.000000000000000000, 0.000000000000000000 ) ) ;
#568 = EDGE_LOOP ( 'NONE', ( #139, #326, #502, #638 ) ) ;
#569 = CARTESIAN_POINT ( 'NONE',  ( 34.92499999999999716, 0.000000000000000000, 0.000000000000000000 ) ) ;
#570 = DIRECTION ( 'NONE',  ( 0.000000000000000000, 0.000000000000000000, 1.000000000000000000 ) ) ;
#571 = VERTEX_POINT ( 'NONE', #701 ) ;
#572 = EDGE_CURVE ( 'NONE', #259, #272, #109, .T. ) ;
#573 = DIRECTION ( 'NONE',  ( 1.000000000000000000, 0.000000000000000000, 0.000000000000000000 ) ) ;
#574 = CIRCLE ( 'NONE', #266, 26.42999999999999972 ) ;
#575 = CARTESIAN_POINT ( 'NONE',  ( 2.855999999999998540, 0.000000000000000000, 27.85799999999999699 ) ) ;
#576 = AXIS2_PLACEMENT_3D ( 'NONE', #636, #32, #35 ) ;
#577 = DIRECTION ( 'NONE',  ( 0.000000000000000000, 0.000000000000000000, -1.000000000000000000 ) ) ;
#578 = DIRECTION ( 'NONE',  ( 1.000000000000000000, 0.000000000000000000, 0.000000000000000000 ) ) ;
#579 = CYLINDRICAL_SURFACE ( 'NONE', #74, 35.00000000000000000 ) ;
#580 = LINE ( 'NONE', #30, #562 ) ;
#581 = CARTESIAN_POINT ( 'NONE',  ( 34.92499999999999716, 0.000000000000000000, -25.00000000000000000 ) ) ;
#582 = DIRECTION ( 'NONE',  ( -1.000000000000000000, 0.000000000000000000, 0.000000000000000000 ) ) ;
#583 = DIRECTION ( 'NONE',  ( 1.000000000000000000, 0.000000000000000000, 0.000000000000000000 ) ) ;
#584 = AXIS2_PLACEMENT_3D ( 'NONE', #300, #171, #106 ) ;
#585 = AXIS2_PLACEMENT_3D ( 'NONE', #688, #8, #558 ) ;
#586 = DIRECTION ( 'NONE',  ( 0.000000000000000000, 1.224646799147352714E-16, 1.000000000000000000 ) ) ;
#587 = SURFACE_SIDE_STYLE ('',( #775 ) ) ;
#588 = ADVANCED_FACE ( 'NONE', ( #467, #401 ), #410, .T. ) ;
#589 = CARTESIAN_POINT ( 'NONE',  ( -2.856000000000000316, 0.000000000000000000, 0.000000000000000000 ) ) ;
#590 = DIRECTION ( 'NONE',  ( 1.000000000000000000, 0.000000000000000000, 0.000000000000000000 ) ) ;
#591 = ORIENTED_EDGE ( 'NONE', *, *, #28, .T. ) ;
#592 = FACE_BOUND ( 'NONE', #561, .T. ) ;
#593 = ADVANCED_FACE ( 'NONE', ( #471 ), #756, .T. ) ;
#594 = CARTESIAN_POINT ( 'NONE',  ( -6.400000000000000355, 3.135095805817224368E-15, 25.60000000000000142 ) ) ;
#595 = FILL_AREA_STYLE ('',( #57 ) ) ;
#596 = DIRECTION ( 'NONE',  ( -1.000000000000000000, 0.000000000000000000, 0.000000000000000000 ) ) ;
#597 = ORIENTED_EDGE ( 'NONE', *, *, #80, .T. ) ;
#598 = FACE_OUTER_BOUND ( 'NONE', #187, .T. ) ;
#599 = AXIS2_PLACEMENT_3D ( 'NONE', #458, #336, #222 ) ;
#600 = CIRCLE ( 'NONE', #769, 0.6000000000000033085 ) ;
#601 = AXIS2_PLACEMENT_3D ( 'NONE', #53, #247, #428 ) ;
#602 = CYLINDRICAL_SURFACE ( 'NONE', #267, 25.00000000000000000 ) ;
#603 = VERTEX_POINT ( 'NONE', #633 ) ;
#604 = CIRCLE ( 'NONE', #290, 24.99999999999999645 ) ;
#605 = DIRECTION ( 'NONE',  ( 1.000000000000000000, -0.000000000000000000, -0.000000000000000000 ) ) ;
#606 = CARTESIAN_POINT ( 'NONE',  ( 2.856000000000000316, 0.000000000000000000, 32.14199999999999591 ) ) ;
#607 = ORIENTED_EDGE ( 'NONE', *, *, #524, .T. ) ;
#608 = DIRECTION ( 'NONE',  ( 1.000000000000000000, 0.000000000000000000, 0.000000000000000000 ) ) ;
#609 = ADVANCED_FACE ( 'NONE', ( #102 ), #579, .T. ) ;
#610 = VERTEX_POINT ( 'NONE', #41 ) ;
#611 = DIRECTION ( 'NONE',  ( 0.000000000000000000, 0.000000000000000000, -1.000000000000000000 ) ) ;
#612 = DIRECTION ( 'NONE',  ( 0.000000000000000000, 0.000000000000000000, -1.000000000000000000 ) ) ;
#613 = CIRCLE ( 'NONE', #563, 0.6000000000000033085 ) ;
#614 = ORIENTED_EDGE ( 'NONE', *, *, #439, .F. ) ;
#615 = AXIS2_PLACEMENT_3D ( 'NONE', #737, #12, #209 ) ;
#616 = CARTESIAN_POINT ( 'NONE',  ( -2.855999999999997208, 0.000000000000000000, 0.000000000000000000 ) ) ;
#617 = EDGE_LOOP ( 'NONE', ( #196, #686, #309, #97 ) ) ;
#618 = EDGE_LOOP ( 'NONE', ( #607, #672 ) ) ;
#619 = DIRECTION ( 'NONE',  ( 1.000000000000000000, -0.000000000000000000, -0.000000000000000000 ) ) ;
#620 = EDGE_LOOP ( 'NONE', ( #153, #635, #337, #692 ) ) ;
#621 = FACE_OUTER_BOUND ( 'NONE', #116, .T. ) ;
#622 = EDGE_CURVE ( 'NONE', #16, #34, #406, .T. ) ;
#623 = ORIENTED_EDGE ( 'NONE', *, *, #668, .T. ) ;
#624 = DIRECTION ( 'NONE',  ( 1.000000000000000000, 0.000000000000000000, 0.000000000000000000 ) ) ;
#625 = VERTEX_POINT ( 'NONE', #703 ) ;
#626 = TOROIDAL_SURFACE ( 'NONE', #333, 25.60000000000000142, 0.6000000000000019762 ) ;
#627 = APPLICATION_CONTEXT ( 'automotive_design' ) ;
#628 = AXIS2_PLACEMENT_3D ( 'NONE', #71, #608, #318 ) ;
#629 = DIRECTION ( 'NONE',  ( 0.000000000000000000, 0.000000000000000000, -1.000000000000000000 ) ) ;
#630 = AXIS2_PLACEMENT_3D ( 'NONE', #59, #718, #178 ) ;
#631 = ORIENTED_EDGE ( 'NONE', *, *, #232, .T. ) ;
#632 = EDGE_LOOP ( 'NONE', ( #734, #661, #437, #274 ) ) ;
#633 = CARTESIAN_POINT ( 'NONE',  ( -2.855999999999997208, 3.061616997868383043E-15, 25.00000000000000000 ) ) ;
#634 = FACE_OUTER_BOUND ( 'NONE', #568, .T. ) ;
#635 = ORIENTED_EDGE ( 'NONE', *, *, #622, .T. ) ;
#636 = CARTESIAN_POINT ( 'NONE',  ( -6.399999999999999467, 0.000000000000000000, 0.000000000000000000 ) ) ;
#637 = DIRECTION ( 'NONE',  ( 0.000000000000000000, 0.000000000000000000, -1.000000000000000000 ) ) ;
#638 = ORIENTED_EDGE ( 'NONE', *, *, #335, .T. ) ;
#639 = FACE_OUTER_BOUND ( 'NONE', #199, .T. ) ;
#640 = EDGE_CURVE ( 'NONE', #511, #445, #526, .T. ) ;
#641 = VECTOR ( 'NONE', #596, 1000.000000000000000 ) ;
#642 = CARTESIAN_POINT ( 'NONE',  ( -6.399999999999999467, 0.000000000000000000, 0.000000000000000000 ) ) ;
#643 = TOROIDAL_SURFACE ( 'NONE', #780, 25.60000000000000142, 0.6000000000000019762 ) ;
#644 = TOROIDAL_SURFACE ( 'NONE', #429, 30.00000000000000000, 3.570000000000000284 ) ;
#645 = ORIENTED_EDGE ( 'NONE', *, *, #485, .T. ) ;
#646 = DIRECTION ( 'NONE',  ( -1.000000000000000000, 0.000000000000000000, 0.000000000000000000 ) ) ;
#647 = LINE ( 'NONE', #101, #453 ) ;
#648 = EDGE_CURVE ( 'NONE', #687, #142, #387, .T. ) ;
#649 = CARTESIAN_POINT ( 'NONE',  ( 0.000000000000000000, 0.000000000000000000, 0.000000000000000000 ) ) ;
#650 = EDGE_CURVE ( 'NONE', #269, #112, #655, .T. ) ;
#651 = CARTESIAN_POINT ( 'NONE',  ( 4.371989072956051376E-16, 3.236741490146453942E-15, -26.42999999999999972 ) ) ;
#652 = CARTESIAN_POINT ( 'NONE',  ( 34.92499999999999716, 0.000000000000000000, 0.000000000000000000 ) ) ;
#653 = DIRECTION ( 'NONE',  ( -0.000000000000000000, -1.000000000000000000, -1.224646799147353207E-16 ) ) ;
#654 = TOROIDAL_SURFACE ( 'NONE', #504, 34.39999999999999858, 0.6000000000000019762 ) ;
#655 = CIRCLE ( 'NONE', #293, 0.6000000000000033085 ) ;
#656 = DIRECTION ( 'NONE',  ( 0.000000000000000000, -1.000000000000000000, 0.000000000000000000 ) ) ;
#657 = ORIENTED_EDGE ( 'NONE', *, *, #572, .F. ) ;
#658 = FACE_OUTER_BOUND ( 'NONE', #138, .T. ) ;
#659 = EDGE_CURVE ( 'NONE', #399, #269, #319, .T. ) ;
#660 = CARTESIAN_POINT ( 'NONE',  ( -34.92499999999999716, 0.000000000000000000, 0.000000000000000000 ) ) ;
#661 = ORIENTED_EDGE ( 'NONE', *, *, #65, .T. ) ;
#662 = DIRECTION ( 'NONE',  ( 0.000000000000000000, 0.000000000000000000, -1.000000000000000000 ) ) ;
#663 = CARTESIAN_POINT ( 'NONE',  ( 6.400000000000000355, 0.000000000000000000, 0.000000000000000000 ) ) ;
#664 = CARTESIAN_POINT ( 'NONE',  ( -34.92499999999999716, 0.000000000000000000, 0.000000000000000000 ) ) ;
#665 = DIRECTION ( 'NONE',  ( 0.000000000000000000, 0.000000000000000000, 1.000000000000000000 ) ) ;
#666 = ORIENTED_EDGE ( 'NONE', *, *, #5, .F. ) ;
#667 = FACE_BOUND ( 'NONE', #424, .T. ) ;
#668 = EDGE_CURVE ( 'NONE', #511, #75, #305, .T. ) ;
#669 = CIRCLE ( 'NONE', #503, 25.60000000000000497 ) ;
#670 = AXIS2_PLACEMENT_3D ( 'NONE', #663, #9, #311 ) ;
#671 = EDGE_CURVE ( 'NONE', #34, #130, #486, .T. ) ;
#672 = ORIENTED_EDGE ( 'NONE', *, *, #192, .T. ) ;
#673 = AXIS2_PLACEMENT_3D ( 'NONE', #567, #168, #629 ) ;
#674 = DIRECTION ( 'NONE',  ( 1.000000000000000000, 0.000000000000000000, 0.000000000000000000 ) ) ;
#675 = ORIENTED_EDGE ( 'NONE', *, *, #275, .F. ) ;
#676 = MANIFOLD_SOLID_BREP ( 'Mirror1', #121 ) ;
#677 = FACE_BOUND ( 'NONE', #697, .T. ) ;
#678 = ORIENTED_EDGE ( 'NONE', *, *, #640, .F. ) ;
#679 = LINE ( 'NONE', #320, #707 ) ;
#680 = ORIENTED_EDGE ( 'NONE', *, *, #28, .F. ) ;
#681 = LINE ( 'NONE', #494, #46 ) ;
#682 = CIRCLE ( 'NONE', #163, 25.00000000000000000 ) ;
#683 = VERTEX_POINT ( 'NONE', #720 ) ;
#684 = CARTESIAN_POINT ( 'NONE',  ( 2.855999999999998540, 0.000000000000000000, 0.000000000000000000 ) ) ;
#685 = EDGE_CURVE ( 'NONE', #383, #142, #217, .T. ) ;
#686 = ORIENTED_EDGE ( 'NONE', *, *, #140, .T. ) ;
#687 = VERTEX_POINT ( 'NONE', #606 ) ;
#688 = CARTESIAN_POINT ( 'NONE',  ( -2.855999999999998540, 27.89993119160347135, 0.000000000000000000 ) ) ;
#689 = CARTESIAN_POINT ( 'NONE',  ( -6.400000000000000355, 0.000000000000000000, 0.000000000000000000 ) ) ;
#690 = EDGE_LOOP ( 'NONE', ( #416, #491, #143, #208 ) ) ;
#691 = DIRECTION ( 'NONE',  ( 1.000000000000000000, -0.000000000000000000, -0.000000000000000000 ) ) ;
#692 = ORIENTED_EDGE ( 'NONE', *, *, #80, .F. ) ;
#693 = TOROIDAL_SURFACE ( 'NONE', #253, 34.39999999999999858, 0.6000000000000019762 ) ;
#694 = EDGE_CURVE ( 'NONE', #205, #383, #346, .T. ) ;
#695 = CIRCLE ( 'NONE', #136, 35.00000000000000000 ) ;
#696 = DIRECTION ( 'NONE',  ( 0.000000000000000000, 0.000000000000000000, -1.000000000000000000 ) ) ;
#697 = EDGE_LOOP ( 'NONE', ( #738, #176 ) ) ;
#698 = DIRECTION ( 'NONE',  ( 0.000000000000000000, 0.000000000000000000, -1.000000000000000000 ) ) ;
#699 = CARTESIAN_POINT ( 'NONE',  ( -2.855999999999997208, 0.000000000000000000, 0.000000000000000000 ) ) ;
#700 = ADVANCED_FACE ( 'NONE', ( #715 ), #713, .T. ) ;
#701 = CARTESIAN_POINT ( 'NONE',  ( -7.000000000000002665, 3.135095805817224368E-15, 25.60000000000000497 ) ) ;
#702 = CARTESIAN_POINT ( 'NONE',  ( 6.999999999999999112, 0.000000000000000000, -34.39999999999999858 ) ) ;
#703 = CARTESIAN_POINT ( 'NONE',  ( 6.399999999999999467, -3.098356401842803903E-15, 24.99999999999999645 ) ) ;
#704 = AXIS2_PLACEMENT_3D ( 'NONE', #649, #522, #783 ) ;
#705 = CIRCLE ( 'NONE', #25, 35.00000000000000000 ) ;
#706 = DIRECTION ( 'NONE',  ( 0.000000000000000000, 0.000000000000000000, -1.000000000000000000 ) ) ;
#707 = VECTOR ( 'NONE', #448, 1000.000000000000000 ) ;
#708 = AXIS2_PLACEMENT_3D ( 'NONE', #354, #529, #779 ) ;
#709 = ADVANCED_FACE ( 'NONE', ( #1 ), #67, .F. ) ;
#710 = DIRECTION ( 'NONE',  ( 0.000000000000000000, 0.000000000000000000, -1.000000000000000000 ) ) ;
#711 = DIRECTION ( 'NONE',  ( 0.000000000000000000, 0.000000000000000000, -1.000000000000000000 ) ) ;
#712 = EDGE_CURVE ( 'NONE', #507, #610, #240, .T. ) ;
#713 = CYLINDRICAL_SURFACE ( 'NONE', #506, 35.00000000000000000 ) ;
#714 = DIRECTION ( 'NONE',  ( -1.000000000000000000, 0.000000000000000000, 0.000000000000000000 ) ) ;
#715 = FACE_OUTER_BOUND ( 'NONE', #70, .T. ) ;
#716 = ORIENTED_EDGE ( 'NONE', *, *, #774, .T. ) ;
#717 = PRODUCT_RELATED_PRODUCT_CATEGORY ( 'part', '', ( #475 ) ) ;
#718 = DIRECTION ( 'NONE',  ( 1.000000000000000000, -0.000000000000000000, -0.000000000000000000 ) ) ;
#719 = CIRCLE ( 'NONE', #516, 3.570000000000000284 ) ;
#720 = CARTESIAN_POINT ( 'NONE',  ( 2.855999999999997208, 0.000000000000000000, -25.00000000000000000 ) ) ;
#721 = EDGE_LOOP ( 'NONE', ( #220, #144, #440, #657 ) ) ;
#722 = CARTESIAN_POINT ( 'NONE',  ( -7.000000000000001776, 25.60000000000000497, 0.000000000000000000 ) ) ;
#723 = DIRECTION ( 'NONE',  ( 0.000000000000000000, -1.224646799147353207E-16, 1.000000000000000000 ) ) ;
#724 = EDGE_LOOP ( 'NONE', ( #381, #6 ) ) ;
#725 = DIRECTION ( 'NONE',  ( 1.000000000000000000, 0.000000000000000000, 0.000000000000000000 ) ) ;
#726 = VERTEX_POINT ( 'NONE', #544 ) ;
#727 = CARTESIAN_POINT ( 'NONE',  ( -6.999999999999999112, 4.249524393041315636E-15, 34.39999999999999858 ) ) ;
#728 = AXIS2_PLACEMENT_3D ( 'NONE', #389, #327, #555 ) ;
#729 = ADVANCED_FACE ( 'NONE', ( #172 ), #411, .F. ) ;
#730 = STYLED_ITEM ( 'NONE', ( #419 ), #676 ) ;
#731 = DIRECTION ( 'NONE',  ( 0.000000000000000000, 0.000000000000000000, 1.000000000000000000 ) ) ;
#732 = ORIENTED_EDGE ( 'NONE', *, *, #659, .F. ) ;
#733 = DIRECTION ( 'NONE',  ( 1.000000000000000000, -0.000000000000000000, -0.000000000000000000 ) ) ;
#734 = ORIENTED_EDGE ( 'NONE', *, *, #239, .F. ) ;
#735 = DIRECTION ( 'NONE',  ( 0.000000000000000000, 0.000000000000000000, -1.000000000000000000 ) ) ;
#736 = DIRECTION ( 'NONE',  ( 1.000000000000000000, 0.000000000000000000, 0.000000000000000000 ) ) ;
#737 = CARTESIAN_POINT ( 'NONE',  ( -6.999999999999999112, 0.000000000000000000, 0.000000000000000000 ) ) ;
#738 = ORIENTED_EDGE ( 'NONE', *, *, #223, .F. ) ;
#739 = CARTESIAN_POINT ( 'NONE',  ( 2.855999999999998540, 0.000000000000000000, 0.000000000000000000 ) ) ;
#740 = ADVANCED_FACE ( 'NONE', ( #369 ), #602, .F. ) ;
#741 = AXIS2_PLACEMENT_3D ( 'NONE', #280, #766, #570 ) ;
#742 = AXIS2_PLACEMENT_3D ( 'NONE', #343, #457, #91 ) ;
#743 = ORIENTED_EDGE ( 'NONE', *, *, #207, .F. ) ;
#744 = AXIS2_PLACEMENT_3D ( 'NONE', #94, #761, #459 ) ;
#745 = AXIS2_PLACEMENT_3D ( 'NONE', #468, #185, #773 ) ;
#746 = DIRECTION ( 'NONE',  ( 0.000000000000000000, 0.000000000000000000, 1.000000000000000000 ) ) ;
#747 = CARTESIAN_POINT ( 'NONE',  ( 6.400000000000000355, -4.212784989066894776E-15, 34.39999999999999858 ) ) ;
#748 = PRODUCT_CONTEXT ( 'NONE', #627, 'mechanical' ) ;
#749 = ORIENTED_EDGE ( 'NONE', *, *, #192, .F. ) ;
#750 = CARTESIAN_POINT ( 'NONE',  ( 2.855999999999997208, -4.286263797015736496E-15, 35.00000000000000000 ) ) ;
#751 = VERTEX_POINT ( 'NONE', #175 ) ;
#752 = EDGE_CURVE ( 'NONE', #34, #371, #48, .T. ) ;
#753 = ORIENTED_EDGE ( 'NONE', *, *, #765, .T. ) ;
#754 = DIRECTION ( 'NONE',  ( 0.000000000000000000, 0.000000000000000000, -1.000000000000000000 ) ) ;
#755 = EDGE_LOOP ( 'NONE', ( #782, #393 ) ) ;
#756 = TOROIDAL_SURFACE ( 'NONE', #414, 30.00000000000000000, 3.570000000000000284 ) ;
#757 = CARTESIAN_POINT ( 'NONE',  ( 6.400000000000000355, 0.000000000000000000, 0.000000000000000000 ) ) ;
#758 = PRODUCT_DEFINITION_FORMATION_WITH_SPECIFIED_SOURCE ( 'ANY', '', #475, .NOT_KNOWN. ) ;
#759 = CARTESIAN_POINT ( 'NONE',  ( 0.000000000000000000, 0.000000000000000000, 0.000000000000000000 ) ) ;
#760 = ADVANCED_FACE ( 'NONE', ( #621 ), #643, .T. ) ;
#761 = DIRECTION ( 'NONE',  ( 0.000000000000000000, -1.000000000000000000, 0.000000000000000000 ) ) ;
#762 = CARTESIAN_POINT ( 'NONE',  ( -6.399999999999999467, 0.000000000000000000, -24.99999999999999645 ) ) ;
#763 = DIRECTION ( 'NONE',  ( 1.000000000000000000, 0.000000000000000000, 0.000000000000000000 ) ) ;
#764 = DIRECTION ( 'NONE',  ( 0.000000000000000000, 1.224646799147352714E-16, -1.000000000000000000 ) ) ;
#765 = EDGE_CURVE ( 'NONE', #269, #399, #443, .T. ) ;
#766 = DIRECTION ( 'NONE',  ( -1.000000000000000000, 0.000000000000000000, 0.000000000000000000 ) ) ;
#767 = DIRECTION ( 'NONE',  ( 0.000000000000000000, -1.000000000000000000, 0.000000000000000000 ) ) ;
#768 = CIRCLE ( 'NONE', #22, 34.39999999999999858 ) ;
#769 = AXIS2_PLACEMENT_3D ( 'NONE', #249, #14, #310 ) ;
#770 = FACE_OUTER_BOUND ( 'NONE', #252, .T. ) ;
#771 = AXIS2_PLACEMENT_3D ( 'NONE', #413, #776, #662 ) ;
#772 = CARTESIAN_POINT ( 'NONE',  ( 0.000000000000000000, 0.000000000000000000, 0.000000000000000000 ) ) ;
#773 = DIRECTION ( 'NONE',  ( 0.000000000000000000, 0.000000000000000000, -1.000000000000000000 ) ) ;
#774 = EDGE_CURVE ( 'NONE', #237, #610, #679, .T. ) ;
#775 = SURFACE_STYLE_FILL_AREA ( #595 ) ;
#776 = DIRECTION ( 'NONE',  ( 1.000000000000000000, 0.000000000000000000, 0.000000000000000000 ) ) ;
#777 = DIRECTION ( 'NONE',  ( 0.000000000000000000, 0.000000000000000000, -1.000000000000000000 ) ) ;
#778 = EDGE_LOOP ( 'NONE', ( #210, #147 ) ) ;
#779 = DIRECTION ( 'NONE',  ( 0.000000000000000000, 0.000000000000000000, -1.000000000000000000 ) ) ;
#780 = AXIS2_PLACEMENT_3D ( 'NONE', #689, #624, #612 ) ;
#781 = DIRECTION ( 'NONE',  ( -1.000000000000000000, -0.000000000000000000, -0.000000000000000000 ) ) ;
#782 = ORIENTED_EDGE ( 'NONE', *, *, #104, .F. ) ;
#783 = DIRECTION ( 'NONE',  ( 0.000000000000000000, 0.000000000000000000, 1.000000000000000000 ) ) ;
ENDSEC;
END-ISO-10303-21;
