ISO-10303-21;
HEADER;
FILE_DESCRIPTION (( 'STEP AP214' ),
    '1' );
FILE_NAME ('angular contact ball bearing_68_iso.step',
    '2026-08-28T16:06:39',
    ( '' ),
    ( '' ),
    'SwSTEP 2.0',
    'SolidWorks 2024',
    '' );
FILE_SCHEMA (( 'AUTOMOTIVE_DESIGN' ));
ENDSEC;

DATA;
#1 = ORIENTED_EDGE ( 'NONE', *, *, #590, .T. ) ;
#2 = ADVANCED_FACE ( 'NONE', ( #342 ), #51, .T. ) ;
#3 = DIRECTION ( 'NONE',  ( -1.000000000000000000, -0.000000000000000000, -0.000000000000000000 ) ) ;
#4 = DIRECTION ( 'NONE',  ( 0.000000000000000000, 0.000000000000000000, -1.000000000000000000 ) ) ;
#5 = EDGE_LOOP ( 'NONE', ( #603, #719, #83, #612 ) ) ;
#6 = ADVANCED_FACE ( 'NONE', ( #410, #583 ), #648, .T. ) ;
#7 = CIRCLE ( 'NONE', #507, 0.5999999999999998668 ) ;
#8 = CARTESIAN_POINT ( 'NONE',  ( -7.000000000000000888, 0.000000000000000000, 0.000000000000000000 ) ) ;
#9 = DIRECTION ( 'NONE',  ( 1.000000000000000000, 0.000000000000000000, 0.000000000000000000 ) ) ;
#10 = ORIENTED_EDGE ( 'NONE', *, *, #363, .F. ) ;
#11 = TOROIDAL_SURFACE ( 'NONE', #730, 11.00000000000000000, 3.000000000000000444 ) ;
#12 = FACE_OUTER_BOUND ( 'NONE', #697, .T. ) ;
#13 = CARTESIAN_POINT ( 'NONE',  ( 0.000000000000000000, 1.347111479062088405E-15, -11.00000000000000000 ) ) ;
#14 = ORIENTED_EDGE ( 'NONE', *, *, #639, .T. ) ;
#15 = DIRECTION ( 'NONE',  ( -1.000000000000000000, -0.000000000000000000, -0.000000000000000000 ) ) ;
#16 = ORIENTED_EDGE ( 'NONE', *, *, #140, .F. ) ;
#17 = VECTOR ( 'NONE', #180, 1000.000000000000000 ) ;
#18 = APPLICATION_PROTOCOL_DEFINITION ( 'draft international standard', 'automotive_design', 1998, #305 ) ;
#19 = AXIS2_PLACEMENT_3D ( 'NONE', #217, #289, #755 ) ;
#20 = LINE ( 'NONE', #740, #739 ) ;
#21 = ORIENTED_EDGE ( 'NONE', *, *, #50, .T. ) ;
#22 = DIRECTION ( 'NONE',  ( 0.000000000000000000, 0.000000000000000000, 1.000000000000000000 ) ) ;
#23 = AXIS2_PLACEMENT_3D ( 'NONE', #59, #717, #357 ) ;
#24 = CARTESIAN_POINT ( 'NONE',  ( -0.3864906208434974455, 0.000000000000000000, 0.000000000000000000 ) ) ;
#25 = ORIENTED_EDGE ( 'NONE', *, *, #332, .T. ) ;
#26 = ADVANCED_FACE ( 'NONE', ( #698 ), #577, .T. ) ;
#27 = DIRECTION ( 'NONE',  ( 0.000000000000000000, 0.000000000000000000, -1.000000000000000000 ) ) ;
#28 = DIRECTION ( 'NONE',  ( 0.000000000000000000, 0.000000000000000000, -1.000000000000000000 ) ) ;
#29 = ORIENTED_EDGE ( 'NONE', *, *, #467, .T. ) ;
#30 = EDGE_CURVE ( 'NONE', #561, #599, #7, .T. ) ;
#31 = CIRCLE ( 'NONE', #143, 6.000000000000000000 ) ;
#32 = CARTESIAN_POINT ( 'NONE',  ( 0.3864906208434974455, 0.000000000000000000, 0.000000000000000000 ) ) ;
#33 = VECTOR ( 'NONE', #287, 1000.000000000000000 ) ;
#34 = AXIS2_PLACEMENT_3D ( 'NONE', #404, #347, #649 ) ;
#35 = CARTESIAN_POINT ( 'NONE',  ( -7.000000000000000888, 0.000000000000000000, -6.599999999999999645 ) ) ;
#36 = ADVANCED_FACE ( 'NONE', ( #159 ), #517, .T. ) ;
#37 = AXIS2_PLACEMENT_3D ( 'NONE', #510, #139, #27 ) ;
#38 = DIRECTION ( 'NONE',  ( 1.000000000000000000, 0.000000000000000000, 0.000000000000000000 ) ) ;
#39 = CIRCLE ( 'NONE', #435, 13.00000000000000000 ) ;
#40 = FACE_OUTER_BOUND ( 'NONE', #119, .T. ) ;
#41 = CARTESIAN_POINT ( 'NONE',  ( 6.399999999999999467, 0.000000000000000000, 0.000000000000000000 ) ) ;
#42 = CIRCLE ( 'NONE', #486, 16.00000000000000000 ) ;
#43 = DIRECTION ( 'NONE',  ( 1.000000000000000000, 0.000000000000000000, 0.000000000000000000 ) ) ;
#44 = VECTOR ( 'NONE', #152, 1000.000000000000000 ) ;
#45 = DIRECTION ( 'NONE',  ( 1.000000000000000000, 0.000000000000000000, 0.000000000000000000 ) ) ;
#46 = VERTEX_POINT ( 'NONE', #331 ) ;
#47 = CARTESIAN_POINT ( 'NONE',  ( -0.3864906208434974455, 0.000000000000000000, 0.000000000000000000 ) ) ;
#48 = AXIS2_PLACEMENT_3D ( 'NONE', #555, #149, #497 ) ;
#49 = ORIENTED_EDGE ( 'NONE', *, *, #643, .F. ) ;
#50 = EDGE_CURVE ( 'NONE', #240, #732, #118, .T. ) ;
#51 = CYLINDRICAL_SURFACE ( 'NONE', #92, 16.00000000000000000 ) ;
#52 =( LENGTH_UNIT ( ) NAMED_UNIT ( * ) SI_UNIT ( .MILLI., .METRE. ) );
#53 = ORIENTED_EDGE ( 'NONE', *, *, #501, .T. ) ;
#54 = EDGE_CURVE ( 'NONE', #311, #370, #373, .T. ) ;
#55 = DIRECTION ( 'NONE',  ( 1.000000000000000000, 0.000000000000000000, 0.000000000000000000 ) ) ;
#56 = DIRECTION ( 'NONE',  ( 1.000000000000000000, 0.000000000000000000, 0.000000000000000000 ) ) ;
#57 = CIRCLE ( 'NONE', #385, 16.00000000000000000 ) ;
#58 = ORIENTED_EDGE ( 'NONE', *, *, #177, .T. ) ;
#59 = CARTESIAN_POINT ( 'NONE',  ( -20.63749999999999929, 0.000000000000000000, 0.000000000000000000 ) ) ;
#60 = EDGE_CURVE ( 'NONE', #361, #759, #184, .T. ) ;
#61 = DIRECTION ( 'NONE',  ( 0.000000000000000000, 0.000000000000000000, -1.000000000000000000 ) ) ;
#62 = VERTEX_POINT ( 'NONE', #116 ) ;
#63 = AXIS2_PLACEMENT_3D ( 'NONE', #8, #652, #115 ) ;
#64 = CARTESIAN_POINT ( 'NONE',  ( -6.999999999999997335, 0.000000000000000000, 0.000000000000000000 ) ) ;
#65 = CARTESIAN_POINT ( 'NONE',  ( -20.63749999999999929, 1.102182119232617714E-15, 9.000000000000000000 ) ) ;
#66 = ORIENTED_EDGE ( 'NONE', *, *, #212, .T. ) ;
#67 = CARTESIAN_POINT ( 'NONE',  ( -6.399999999999998579, 1.885956070686923806E-15, 15.40000000000000036 ) ) ;
#68 = AXIS2_PLACEMENT_3D ( 'NONE', #161, #641, #223 ) ;
#69 = ORIENTED_EDGE ( 'NONE', *, *, #387, .T. ) ;
#70 = CIRCLE ( 'NONE', #168, 0.5999999999999998668 ) ;
#71 = CYLINDRICAL_SURFACE ( 'NONE', #274, 16.00000000000000000 ) ;
#72 = CYLINDRICAL_SURFACE ( 'NONE', #242, 6.000000000000000000 ) ;
#73 = EDGE_LOOP ( 'NONE', ( #664, #406, #417, #192 ) ) ;
#74 = EDGE_CURVE ( 'NONE', #46, #528, #295, .T. ) ;
#75 = DIRECTION ( 'NONE',  ( 0.000000000000000000, -1.224646799147353454E-16, 1.000000000000000000 ) ) ;
#76 = ORIENTED_EDGE ( 'NONE', *, *, #109, .T. ) ;
#77 = DIRECTION ( 'NONE',  ( 0.000000000000000000, 0.000000000000000000, -1.000000000000000000 ) ) ;
#78 = EDGE_LOOP ( 'NONE', ( #278, #196, #351, #512 ) ) ;
#79 = DIRECTION ( 'NONE',  ( 1.000000000000000000, 0.000000000000000000, 0.000000000000000000 ) ) ;
#80 = AXIS2_PLACEMENT_3D ( 'NONE', #210, #498, #261 ) ;
#81 = ADVANCED_FACE ( 'NONE', ( #358 ), #622, .T. ) ;
#82 = DIRECTION ( 'NONE',  ( 1.000000000000000000, 0.000000000000000000, 0.000000000000000000 ) ) ;
#83 = ORIENTED_EDGE ( 'NONE', *, *, #690, .T. ) ;
#84 = FACE_OUTER_BOUND ( 'NONE', #768, .T. ) ;
#85 = AXIS2_PLACEMENT_3D ( 'NONE', #661, #353, #124 ) ;
#86 = CARTESIAN_POINT ( 'NONE',  ( -20.63749999999999574, 1.959434878635765131E-15, 16.00000000000000000 ) ) ;
#87 = DIRECTION ( 'NONE',  ( 0.000000000000000000, 0.000000000000000000, 1.000000000000000000 ) ) ;
#88 = PRODUCT_DEFINITION ( 'UNKNOWN', '', #536, #154 ) ;
#89 = DIRECTION ( 'NONE',  ( 1.000000000000000000, 0.000000000000000000, 0.000000000000000000 ) ) ;
#90 = CYLINDRICAL_SURFACE ( 'NONE', #701, 12.99999999999999822 ) ;
#91 = EDGE_CURVE ( 'NONE', #732, #361, #230, .T. ) ;
#92 = AXIS2_PLACEMENT_3D ( 'NONE', #750, #163, #346 ) ;
#93 = DIRECTION ( 'NONE',  ( 0.000000000000000000, 0.000000000000000000, 1.000000000000000000 ) ) ;
#94 = PRODUCT_RELATED_PRODUCT_CATEGORY ( 'part', '', ( #462 ) ) ;
#95 = CARTESIAN_POINT ( 'NONE',  ( -6.999999999999997335, 1.922695474661344271E-15, 15.40000000000000036 ) ) ;
#96 =( GEOMETRIC_REPRESENTATION_CONTEXT ( 3 ) GLOBAL_UNCERTAINTY_ASSIGNED_CONTEXT ( ( #456 ) ) GLOBAL_UNIT_ASSIGNED_CONTEXT ( ( #132, #613, #728 ) ) REPRESENTATION_CONTEXT ( 'NONE', 'WORKASPACE' ) );
#97 = SURFACE_STYLE_USAGE ( .BOTH. , #355 ) ;
#98 = ORIENTED_EDGE ( 'NONE', *, *, #618, .F. ) ;
#99 = DIRECTION ( 'NONE',  ( -1.000000000000000000, 0.000000000000000000, -0.000000000000000000 ) ) ;
#100 = CARTESIAN_POINT ( 'NONE',  ( 6.999999999999999112, 1.922695474661344271E-15, 15.40000000000000036 ) ) ;
#101 = EDGE_LOOP ( 'NONE', ( #496, #216, #366, #764 ) ) ;
#102 = AXIS2_PLACEMENT_3D ( 'NONE', #294, #731, #202 ) ;
#103 = DIRECTION ( 'NONE',  ( 0.000000000000000000, 0.000000000000000000, -1.000000000000000000 ) ) ;
#104 = ADVANCED_FACE ( 'NONE', ( #513 ), #90, .F. ) ;
#105 = ORIENTED_EDGE ( 'NONE', *, *, #212, .F. ) ;
#106 = ORIENTED_EDGE ( 'NONE', *, *, #397, .T. ) ;
#107 = CARTESIAN_POINT ( 'NONE',  ( -2.236067977499790693, 1.102182119232617714E-15, 9.000000000000000000 ) ) ;
#108 = TOROIDAL_SURFACE ( 'NONE', #160, 6.599999999999999645, 0.5999999999999998668 ) ;
#109 = EDGE_CURVE ( 'NONE', #460, #370, #336, .T. ) ;
#110 = ORIENTED_EDGE ( 'NONE', *, *, #446, .T. ) ;
#111 = DIRECTION ( 'NONE',  ( 0.000000000000000000, 0.000000000000000000, -1.000000000000000000 ) ) ;
#112 = DIRECTION ( 'NONE',  ( 0.000000000000000000, 0.000000000000000000, -1.000000000000000000 ) ) ;
#113 = EDGE_LOOP ( 'NONE', ( #176, #379, #98, #500 ) ) ;
#114 = EDGE_CURVE ( 'NONE', #416, #544, #715, .T. ) ;
#115 = DIRECTION ( 'NONE',  ( 0.000000000000000000, 0.000000000000000000, -1.000000000000000000 ) ) ;
#116 = CARTESIAN_POINT ( 'NONE',  ( 7.000000000000002665, 9.827790563157505106E-16, 8.024999999999996803 ) ) ;
#117 = CARTESIAN_POINT ( 'NONE',  ( -6.999999999999997335, 0.000000000000000000, 0.000000000000000000 ) ) ;
#118 = CIRCLE ( 'NONE', #19, 6.599999999999999645 ) ;
#119 = EDGE_LOOP ( 'NONE', ( #448, #375 ) ) ;
#120 = CARTESIAN_POINT ( 'NONE',  ( -6.399999999999999467, 0.000000000000000000, -16.00000000000000000 ) ) ;
#121 = CARTESIAN_POINT ( 'NONE',  ( -7.000000000000000888, 1.102182119232617714E-15, 8.999999999999998224 ) ) ;
#122 = EDGE_LOOP ( 'NONE', ( #257, #134, #694, #535 ) ) ;
#123 = AXIS2_PLACEMENT_3D ( 'NONE', #67, #303, #422 ) ;
#124 = DIRECTION ( 'NONE',  ( 0.000000000000000000, 0.000000000000000000, -1.000000000000000000 ) ) ;
#125 = FACE_OUTER_BOUND ( 'NONE', #297, .T. ) ;
#126 = ORIENTED_EDGE ( 'NONE', *, *, #467, .F. ) ;
#127 = DIRECTION ( 'NONE',  ( 0.000000000000000000, 0.000000000000000000, -1.000000000000000000 ) ) ;
#128 = DIRECTION ( 'NONE',  ( 1.000000000000000000, 0.000000000000000000, 0.000000000000000000 ) ) ;
#129 = ORIENTED_EDGE ( 'NONE', *, *, #695, .F. ) ;
#130 = EDGE_CURVE ( 'NONE', #416, #514, #677, .T. ) ;
#131 = AXIS2_PLACEMENT_3D ( 'NONE', #394, #748, #571 ) ;
#132 =( LENGTH_UNIT ( ) NAMED_UNIT ( * ) SI_UNIT ( .MILLI., .METRE. ) );
#133 = CARTESIAN_POINT ( 'NONE',  ( -6.399999999999998579, 0.000000000000000000, 0.000000000000000000 ) ) ;
#134 = ORIENTED_EDGE ( 'NONE', *, *, #579, .T. ) ;
#135 = TOROIDAL_SURFACE ( 'NONE', #37, 15.40000000000000036, 0.5999999999999994227 ) ;
#136 = APPLICATION_PROTOCOL_DEFINITION ( 'draft international standard', 'automotive_design', 1998, #412 ) ;
#137 = DIRECTION ( 'NONE',  ( 1.000000000000000000, 0.000000000000000000, 0.000000000000000000 ) ) ;
#138 = ORIENTED_EDGE ( 'NONE', *, *, #317, .T. ) ;
#139 = DIRECTION ( 'NONE',  ( 1.000000000000000000, 0.000000000000000000, 0.000000000000000000 ) ) ;
#140 = EDGE_CURVE ( 'NONE', #460, #221, #656, .T. ) ;
#141 = CARTESIAN_POINT ( 'NONE',  ( -6.399999999999999467, 0.000000000000000000, 0.000000000000000000 ) ) ;
#142 = ORIENTED_EDGE ( 'NONE', *, *, #455, .F. ) ;
#143 = AXIS2_PLACEMENT_3D ( 'NONE', #411, #290, #282 ) ;
#144 = AXIS2_PLACEMENT_3D ( 'NONE', #556, #663, #490 ) ;
#145 = AXIS2_PLACEMENT_3D ( 'NONE', #174, #56, #578 ) ;
#146 = EDGE_CURVE ( 'NONE', #319, #221, #575, .T. ) ;
#147 = DIRECTION ( 'NONE',  ( 0.000000000000000000, -1.000000000000000000, 0.000000000000000000 ) ) ;
#148 = DIRECTION ( 'NONE',  ( 0.000000000000000000, 1.224646799147351728E-16, 1.000000000000000000 ) ) ;
#149 = DIRECTION ( 'NONE',  ( 1.000000000000000000, 0.000000000000000000, 0.000000000000000000 ) ) ;
#150 = CIRCLE ( 'NONE', #251, 8.024999999999996803 ) ;
#151 = DIRECTION ( 'NONE',  ( 0.000000000000000000, 0.000000000000000000, -1.000000000000000000 ) ) ;
#152 = DIRECTION ( 'NONE',  ( 1.000000000000000000, 0.000000000000000000, 0.000000000000000000 ) ) ;
#153 = ADVANCED_FACE ( 'NONE', ( #685 ), #268, .F. ) ;
#154 = PRODUCT_DEFINITION_CONTEXT ( 'detailed design', #305, 'design' ) ;
#155 = AXIS2_PLACEMENT_3D ( 'NONE', #377, #615, #235 ) ;
#156 = AXIS2_PLACEMENT_3D ( 'NONE', #532, #645, #87 ) ;
#157 = DIRECTION ( 'NONE',  ( 0.000000000000000000, 0.000000000000000000, -1.000000000000000000 ) ) ;
#158 =( NAMED_UNIT ( * ) PLANE_ANGLE_UNIT ( ) SI_UNIT ( $, .RADIAN. ) );
#159 = FACE_OUTER_BOUND ( 'NONE', #384, .T. ) ;
#160 = AXIS2_PLACEMENT_3D ( 'NONE', #558, #676, #679 ) ;
#161 = CARTESIAN_POINT ( 'NONE',  ( 0.000000000000000000, 0.000000000000000000, 0.000000000000000000 ) ) ;
#162 = EDGE_LOOP ( 'NONE', ( #315, #288 ) ) ;
#163 = DIRECTION ( 'NONE',  ( 1.000000000000000000, 0.000000000000000000, 0.000000000000000000 ) ) ;
#164 = DIRECTION ( 'NONE',  ( 1.000000000000000000, 0.000000000000000000, 0.000000000000000000 ) ) ;
#165 = CIRCLE ( 'NONE', #668, 0.5999999999999998668 ) ;
#166 = EDGE_LOOP ( 'NONE', ( #327, #49 ) ) ;
#167 = EDGE_CURVE ( 'NONE', #414, #523, #20, .T. ) ;
#168 = AXIS2_PLACEMENT_3D ( 'NONE', #447, #147, #681 ) ;
#169 =( NAMED_UNIT ( * ) SI_UNIT ( $, .STERADIAN. ) SOLID_ANGLE_UNIT ( ) );
#170 = STYLED_ITEM ( 'NONE', ( #226 ), #276 ) ;
#171 = ORIENTED_EDGE ( 'NONE', *, *, #716, .F. ) ;
#172 = UNCERTAINTY_MEASURE_WITH_UNIT (LENGTH_MEASURE( 1.000000000000000082E-05 ), #52, 'distance_accuracy_value', 'NONE');
#173 = ORIENTED_EDGE ( 'NONE', *, *, #630, .F. ) ;
#174 = CARTESIAN_POINT ( 'NONE',  ( 6.999999999999997335, 15.40000000000000036, 0.000000000000000000 ) ) ;
#175 = CIRCLE ( 'NONE', #745, 8.999999999999998224 ) ;
#176 = ORIENTED_EDGE ( 'NONE', *, *, #760, .F. ) ;
#177 = EDGE_CURVE ( 'NONE', #561, #199, #409, .T. ) ;
#178 = CARTESIAN_POINT ( 'NONE',  ( -6.400000000000001243, 7.347880794884119736E-16, 6.000000000000000000 ) ) ;
#179 = DIRECTION ( 'NONE',  ( 0.000000000000000000, 0.000000000000000000, -1.000000000000000000 ) ) ;
#180 = DIRECTION ( 'NONE',  ( 1.000000000000000000, 0.000000000000000000, 0.000000000000000000 ) ) ;
#181 = ORIENTED_EDGE ( 'NONE', *, *, #446, .F. ) ;
#182 = DIRECTION ( 'NONE',  ( 1.000000000000000000, 0.000000000000000000, 0.000000000000000000 ) ) ;
#183 = LINE ( 'NONE', #436, #309 ) ;
#184 = CIRCLE ( 'NONE', #530, 6.000000000000000000 ) ;
#185 = EDGE_LOOP ( 'NONE', ( #761, #356, #110, #229 ) ) ;
#186 = CARTESIAN_POINT ( 'NONE',  ( -20.63749999999999574, 1.711443901808426299E-15, 13.97500000000000142 ) ) ;
#187 = DIRECTION ( 'NONE',  ( 1.000000000000000000, 0.000000000000000000, 0.000000000000000000 ) ) ;
#188 = ORIENTED_EDGE ( 'NONE', *, *, #146, .F. ) ;
#189 = LINE ( 'NONE', #186, #756 ) ;
#190 = EDGE_CURVE ( 'NONE', #479, #416, #324, .T. ) ;
#191 = CARTESIAN_POINT ( 'NONE',  ( 0.3864906208434974455, 1.287409947603654902E-15, -8.024999999999996803 ) ) ;
#192 = ORIENTED_EDGE ( 'NONE', *, *, #312, .T. ) ;
#193 = DIRECTION ( 'NONE',  ( 1.000000000000000000, 0.000000000000000000, 0.000000000000000000 ) ) ;
#194 = CARTESIAN_POINT ( 'NONE',  ( 6.400000000000001243, 0.000000000000000000, 0.000000000000000000 ) ) ;
#195 = EDGE_CURVE ( 'NONE', #495, #492, #619, .T. ) ;
#196 = ORIENTED_EDGE ( 'NONE', *, *, #501, .F. ) ;
#197 = AXIS2_PLACEMENT_3D ( 'NONE', #725, #318, #424 ) ;
#198 = AXIS2_PLACEMENT_3D ( 'NONE', #477, #55, #111 ) ;
#199 = VERTEX_POINT ( 'NONE', #392 ) ;
#200 = ADVANCED_FACE ( 'NONE', ( #629 ), #270, .T. ) ;
#201 = CARTESIAN_POINT ( 'NONE',  ( 7.000000000000001776, 8.082668874372531019E-16, 6.599999999999999645 ) ) ;
#202 = DIRECTION ( 'NONE',  ( 0.000000000000000000, 0.000000000000000000, -1.000000000000000000 ) ) ;
#203 = VERTEX_POINT ( 'NONE', #35 ) ;
#204 = EDGE_CURVE ( 'NONE', #528, #319, #57, .T. ) ;
#205 = FACE_OUTER_BOUND ( 'NONE', #675, .T. ) ;
#206 = CARTESIAN_POINT ( 'NONE',  ( 7.000000000000001776, 0.000000000000000000, -6.599999999999999645 ) ) ;
#207 = EDGE_LOOP ( 'NONE', ( #655, #14, #504, #589 ) ) ;
#208 = AXIS2_PLACEMENT_3D ( 'NONE', #24, #265, #503 ) ;
#209 = PRESENTATION_LAYER_ASSIGNMENT (  '', '', ( #170 ) ) ;
#210 = CARTESIAN_POINT ( 'NONE',  ( -6.400000000000001243, 0.000000000000000000, 0.000000000000000000 ) ) ;
#211 = CARTESIAN_POINT ( 'NONE',  ( 6.399999999999999467, 0.000000000000000000, -6.000000000000000000 ) ) ;
#212 = EDGE_CURVE ( 'NONE', #319, #528, #42, .T. ) ;
#213 = DIRECTION ( 'NONE',  ( 1.000000000000000000, 0.000000000000000000, 0.000000000000000000 ) ) ;
#214 = ORIENTED_EDGE ( 'NONE', *, *, #550, .F. ) ;
#215 = DIRECTION ( 'NONE',  ( 0.000000000000000000, 0.000000000000000000, -1.000000000000000000 ) ) ;
#216 = ORIENTED_EDGE ( 'NONE', *, *, #283, .T. ) ;
#217 = CARTESIAN_POINT ( 'NONE',  ( 7.000000000000002665, 0.000000000000000000, 0.000000000000000000 ) ) ;
#218 = DIRECTION ( 'NONE',  ( 0.000000000000000000, 0.000000000000000000, -1.000000000000000000 ) ) ;
#219 = EDGE_CURVE ( 'NONE', #515, #46, #581, .T. ) ;
#220 = DIRECTION ( 'NONE',  ( 1.000000000000000000, 0.000000000000000000, 0.000000000000000000 ) ) ;
#221 = VERTEX_POINT ( 'NONE', #442 ) ;
#222 = CIRCLE ( 'NONE', #301, 3.000000000000000888 ) ;
#223 = DIRECTION ( 'NONE',  ( 0.000000000000000000, 0.000000000000000000, 1.000000000000000000 ) ) ;
#224 = EDGE_CURVE ( 'NONE', #62, #523, #680, .T. ) ;
#225 = ORIENTED_EDGE ( 'NONE', *, *, #219, .F. ) ;
#226 = PRESENTATION_STYLE_ASSIGNMENT (( #97 ) ) ;
#227 = ORIENTED_EDGE ( 'NONE', *, *, #559, .F. ) ;
#228 = CIRCLE ( 'NONE', #632, 12.99999999999999822 ) ;
#229 = ORIENTED_EDGE ( 'NONE', *, *, #60, .F. ) ;
#230 = CIRCLE ( 'NONE', #423, 0.5999999999999998668 ) ;
#231 = EDGE_CURVE ( 'NONE', #723, #492, #546, .T. ) ;
#232 = ORIENTED_EDGE ( 'NONE', *, *, #54, .F. ) ;
#233 = CYLINDRICAL_SURFACE ( 'NONE', #23, 9.000000000000000000 ) ;
#234 = ORIENTED_EDGE ( 'NONE', *, *, #505, .F. ) ;
#235 = DIRECTION ( 'NONE',  ( 0.000000000000000000, 0.000000000000000000, -1.000000000000000000 ) ) ;
#236 = ORIENTED_EDGE ( 'NONE', *, *, #376, .T. ) ;
#237 = CARTESIAN_POINT ( 'NONE',  ( 0.000000000000000000, 0.000000000000000000, 0.000000000000000000 ) ) ;
#238 = CARTESIAN_POINT ( 'NONE',  ( -6.399999999999998579, 0.000000000000000000, 0.000000000000000000 ) ) ;
#239 = CARTESIAN_POINT ( 'NONE',  ( 6.399999999999998579, 1.885956070686923806E-15, 15.40000000000000036 ) ) ;
#240 = VERTEX_POINT ( 'NONE', #206 ) ;
#241 = CARTESIAN_POINT ( 'NONE',  ( 7.000000000000002665, 0.000000000000000000, 0.000000000000000000 ) ) ;
#242 = AXIS2_PLACEMENT_3D ( 'NONE', #670, #254, #722 ) ;
#243 = CARTESIAN_POINT ( 'NONE',  ( -20.63749999999999929, 0.000000000000000000, 0.000000000000000000 ) ) ;
#244 = AXIS2_PLACEMENT_3D ( 'NONE', #238, #709, #179 ) ;
#245 = MECHANICAL_DESIGN_GEOMETRIC_PRESENTATION_REPRESENTATION (  '', ( #170 ), #508 ) ;
#246 = EDGE_LOOP ( 'NONE', ( #340, #58, #624, #433 ) ) ;
#247 = EDGE_CURVE ( 'NONE', #199, #203, #70, .T. ) ;
#248 = DIRECTION ( 'NONE',  ( 0.000000000000000000, 0.000000000000000000, -1.000000000000000000 ) ) ;
#249 = CARTESIAN_POINT ( 'NONE',  ( 2.236067977499792025, 0.000000000000000000, 0.000000000000000000 ) ) ;
#250 = ORIENTED_EDGE ( 'NONE', *, *, #579, .F. ) ;
#251 = AXIS2_PLACEMENT_3D ( 'NONE', #32, #15, #617 ) ;
#252 = DIRECTION ( 'NONE',  ( 0.000000000000000000, 0.000000000000000000, -1.000000000000000000 ) ) ;
#253 = ADVANCED_FACE ( 'NONE', ( #699 ), #610, .T. ) ;
#254 = DIRECTION ( 'NONE',  ( 1.000000000000000000, 0.000000000000000000, 0.000000000000000000 ) ) ;
#255 = ORIENTED_EDGE ( 'NONE', *, *, #493, .T. ) ;
#256 = ADVANCED_FACE ( 'NONE', ( #339, #524 ), #296, .T. ) ;
#257 = ORIENTED_EDGE ( 'NONE', *, *, #630, .T. ) ;
#258 = AXIS2_PLACEMENT_3D ( 'NONE', #133, #605, #368 ) ;
#259 = AXIS2_PLACEMENT_3D ( 'NONE', #273, #337, #734 ) ;
#260 = SHAPE_DEFINITION_REPRESENTATION ( #341, #401 ) ;
#261 = DIRECTION ( 'NONE',  ( 0.000000000000000000, 0.000000000000000000, -1.000000000000000000 ) ) ;
#262 = ORIENTED_EDGE ( 'NONE', *, *, #363, .T. ) ;
#263 = VECTOR ( 'NONE', #485, 1000.000000000000000 ) ;
#264 = DIRECTION ( 'NONE',  ( 0.000000000000000000, 0.000000000000000000, -1.000000000000000000 ) ) ;
#265 = DIRECTION ( 'NONE',  ( -1.000000000000000000, -0.000000000000000000, -0.000000000000000000 ) ) ;
#266 = ORIENTED_EDGE ( 'NONE', *, *, #54, .T. ) ;
#267 = DIRECTION ( 'NONE',  ( 0.000000000000000000, 0.000000000000000000, -1.000000000000000000 ) ) ;
#268 = CYLINDRICAL_SURFACE ( 'NONE', #459, 13.97500000000000142 ) ;
#269 = AXIS2_PLACEMENT_3D ( 'NONE', #117, #9, #4 ) ;
#270 = TOROIDAL_SURFACE ( 'NONE', #131, 11.00000000000000000, 3.000000000000000444 ) ;
#271 = CIRCLE ( 'NONE', #374, 13.97500000000000142 ) ;
#272 = EDGE_CURVE ( 'NONE', #528, #460, #534, .T. ) ;
#273 = CARTESIAN_POINT ( 'NONE',  ( 6.399999999999999467, 0.000000000000000000, 0.000000000000000000 ) ) ;
#274 = AXIS2_PLACEMENT_3D ( 'NONE', #551, #79, #264 ) ;
#275 = CARTESIAN_POINT ( 'NONE',  ( 0.000000000000000000, 0.000000000000000000, 11.00000000000000000 ) ) ;
#276 = MANIFOLD_SOLID_BREP ( 'OuterRace', #437 ) ;
#277 = DIRECTION ( 'NONE',  ( 1.000000000000000000, 0.000000000000000000, 0.000000000000000000 ) ) ;
#278 = ORIENTED_EDGE ( 'NONE', *, *, #639, .F. ) ;
#279 = ADVANCED_FACE ( 'NONE', ( #398, #704 ), #516, .T. ) ;
#280 = AXIS2_PLACEMENT_3D ( 'NONE', #623, #567, #93 ) ;
#281 = DIRECTION ( 'NONE',  ( 1.000000000000000000, 0.000000000000000000, 0.000000000000000000 ) ) ;
#282 = DIRECTION ( 'NONE',  ( 0.000000000000000000, 0.000000000000000000, -1.000000000000000000 ) ) ;
#283 = EDGE_CURVE ( 'NONE', #492, #723, #271, .T. ) ;
#284 = CARTESIAN_POINT ( 'NONE',  ( -6.999999999999997335, 0.000000000000000000, -13.97499999999999964 ) ) ;
#285 = ORIENTED_EDGE ( 'NONE', *, *, #662, .F. ) ;
#286 = CIRCLE ( 'NONE', #564, 3.000000000000000888 ) ;
#287 = DIRECTION ( 'NONE',  ( 1.000000000000000000, 0.000000000000000000, 0.000000000000000000 ) ) ;
#288 = ORIENTED_EDGE ( 'NONE', *, *, #690, .F. ) ;
#289 = DIRECTION ( 'NONE',  ( 1.000000000000000000, 0.000000000000000000, 0.000000000000000000 ) ) ;
#290 = DIRECTION ( 'NONE',  ( 1.000000000000000000, 0.000000000000000000, 0.000000000000000000 ) ) ;
#291 = ORIENTED_EDGE ( 'NONE', *, *, #332, .F. ) ;
#292 = DIRECTION ( 'NONE',  ( 0.000000000000000000, 0.000000000000000000, -1.000000000000000000 ) ) ;
#293 = ADVANCED_FACE ( 'NONE', ( #689 ), #636, .F. ) ;
#294 = CARTESIAN_POINT ( 'NONE',  ( -6.999999999999997335, 0.000000000000000000, 0.000000000000000000 ) ) ;
#295 = CIRCLE ( 'NONE', #753, 0.5999999999999998668 ) ;
#296 = PLANE ( 'NONE',  #34 ) ;
#297 = EDGE_LOOP ( 'NONE', ( #703, #262, #488, #644 ) ) ;
#298 = CARTESIAN_POINT ( 'NONE',  ( -20.63749999999999574, 0.000000000000000000, 0.000000000000000000 ) ) ;
#299 = CARTESIAN_POINT ( 'NONE',  ( -6.399999999999998579, 0.000000000000000000, -15.40000000000000036 ) ) ;
#300 = DIRECTION ( 'NONE',  ( 1.000000000000000000, 0.000000000000000000, 0.000000000000000000 ) ) ;
#301 = AXIS2_PLACEMENT_3D ( 'NONE', #489, #591, #724 ) ;
#302 = ORIENTED_EDGE ( 'NONE', *, *, #705, .T. ) ;
#303 = DIRECTION ( 'NONE',  ( 0.000000000000000000, 1.000000000000000000, -1.224646799147353207E-16 ) ) ;
#304 = CARTESIAN_POINT ( 'NONE',  ( 0.3864906208434974455, 0.000000000000000000, 8.024999999999996803 ) ) ;
#305 = APPLICATION_CONTEXT ( 'automotive_design' ) ;
#306 = ORIENTED_EDGE ( 'NONE', *, *, #140, .T. ) ;
#307 = ADVANCED_FACE ( 'NONE', ( #407 ), #444, .T. ) ;
#308 = DIRECTION ( 'NONE',  ( 1.000000000000000000, 0.000000000000000000, 0.000000000000000000 ) ) ;
#309 = VECTOR ( 'NONE', #300, 1000.000000000000000 ) ;
#310 = FACE_OUTER_BOUND ( 'NONE', #122, .T. ) ;
#311 = VERTEX_POINT ( 'NONE', #100 ) ;
#312 = EDGE_CURVE ( 'NONE', #549, #514, #39, .T. ) ;
#313 = FACE_OUTER_BOUND ( 'NONE', #729, .T. ) ;
#314 = DIRECTION ( 'NONE',  ( 0.000000000000000000, 0.000000000000000000, -1.000000000000000000 ) ) ;
#315 = ORIENTED_EDGE ( 'NONE', *, *, #312, .F. ) ;
#316 = CIRCLE ( 'NONE', #63, 8.999999999999998224 ) ;
#317 = EDGE_CURVE ( 'NONE', #199, #561, #31, .T. ) ;
#318 = DIRECTION ( 'NONE',  ( 1.000000000000000000, 0.000000000000000000, 0.000000000000000000 ) ) ;
#319 = VERTEX_POINT ( 'NONE', #519 ) ;
#320 = PRODUCT_CONTEXT ( 'NONE', #412, 'mechanical' ) ;
#321 = DIRECTION ( 'NONE',  ( 1.000000000000000000, 0.000000000000000000, 0.000000000000000000 ) ) ;
#322 = ORIENTED_EDGE ( 'NONE', *, *, #493, .F. ) ;
#323 = CIRCLE ( 'NONE', #144, 16.00000000000000000 ) ;
#324 = CIRCLE ( 'NONE', #386, 3.000000000000000888 ) ;
#325 = LINE ( 'NONE', #502, #600 ) ;
#326 = CARTESIAN_POINT ( 'NONE',  ( -20.63749999999999574, 0.000000000000000000, 0.000000000000000000 ) ) ;
#327 = ORIENTED_EDGE ( 'NONE', *, *, #50, .F. ) ;
#328 = AXIS2_PLACEMENT_3D ( 'NONE', #545, #769, #765 ) ;
#329 = DIRECTION ( 'NONE',  ( 0.000000000000000000, 0.000000000000000000, -1.000000000000000000 ) ) ;
#330 = DIRECTION ( 'NONE',  ( 1.000000000000000000, 0.000000000000000000, 0.000000000000000000 ) ) ;
#331 = CARTESIAN_POINT ( 'NONE',  ( -6.999999999999997335, 0.000000000000000000, -15.40000000000000036 ) ) ;
#332 = EDGE_CURVE ( 'NONE', #587, #706, #466, .T. ) ;
#333 = DIRECTION ( 'NONE',  ( 1.000000000000000000, 0.000000000000000000, 0.000000000000000000 ) ) ;
#334 = DIRECTION ( 'NONE',  ( 0.000000000000000000, -1.000000000000000000, 0.000000000000000000 ) ) ;
#335 = VERTEX_POINT ( 'NONE', #107 ) ;
#336 = CIRCLE ( 'NONE', #634, 0.5999999999999998668 ) ;
#337 = DIRECTION ( 'NONE',  ( 1.000000000000000000, 0.000000000000000000, 0.000000000000000000 ) ) ;
#338 = ADVANCED_FACE ( 'NONE', ( #350 ), #529, .T. ) ;
#339 = FACE_BOUND ( 'NONE', #702, .T. ) ;
#340 = ORIENTED_EDGE ( 'NONE', *, *, #30, .F. ) ;
#341 = PRODUCT_DEFINITION_SHAPE ( 'NONE', 'NONE',  #88 ) ;
#342 = FACE_OUTER_BOUND ( 'NONE', #659, .T. ) ;
#343 = CARTESIAN_POINT ( 'NONE',  ( 6.999999999999999112, 0.000000000000000000, 0.000000000000000000 ) ) ;
#344 = AXIS2_PLACEMENT_3D ( 'NONE', #383, #82, #563 ) ;
#345 = DIRECTION ( 'NONE',  ( 1.000000000000000000, 0.000000000000000000, 0.000000000000000000 ) ) ;
#346 = DIRECTION ( 'NONE',  ( 0.000000000000000000, 0.000000000000000000, -1.000000000000000000 ) ) ;
#347 = DIRECTION ( 'NONE',  ( -1.000000000000000000, 0.000000000000000000, -0.000000000000000000 ) ) ;
#348 = ORIENTED_EDGE ( 'NONE', *, *, #114, .T. ) ;
#349 = AXIS2_PLACEMENT_3D ( 'NONE', #562, #453, #22 ) ;
#350 = FACE_OUTER_BOUND ( 'NONE', #185, .T. ) ;
#351 = ORIENTED_EDGE ( 'NONE', *, *, #195, .T. ) ;
#352 = ADVANCED_FACE ( 'NONE', ( #310 ), #470, .T. ) ;
#353 = DIRECTION ( 'NONE',  ( 1.000000000000000000, 0.000000000000000000, 0.000000000000000000 ) ) ;
#354 = EDGE_LOOP ( 'NONE', ( #126, #606, #25, #129 ) ) ;
#355 = SURFACE_SIDE_STYLE ('',( #588 ) ) ;
#356 = ORIENTED_EDGE ( 'NONE', *, *, #643, .T. ) ;
#357 = DIRECTION ( 'NONE',  ( 0.000000000000000000, 0.000000000000000000, -1.000000000000000000 ) ) ;
#358 = FACE_OUTER_BOUND ( 'NONE', #671, .T. ) ;
#359 = AXIS2_PLACEMENT_3D ( 'NONE', #766, #99, #468 ) ;
#360 = FACE_OUTER_BOUND ( 'NONE', #741, .T. ) ;
#361 = VERTEX_POINT ( 'NONE', #654 ) ;
#362 = CARTESIAN_POINT ( 'NONE',  ( -20.63749999999999929, 9.827790563157505106E-16, 8.024999999999996803 ) ) ;
#363 = EDGE_CURVE ( 'NONE', #561, #361, #183, .T. ) ;
#364 = LINE ( 'NONE', #65, #17 ) ;
#365 = AXIS2_PLACEMENT_3D ( 'NONE', #241, #193, #127 ) ;
#366 = ORIENTED_EDGE ( 'NONE', *, *, #533, .T. ) ;
#367 = FACE_OUTER_BOUND ( 'NONE', #354, .T. ) ;
#368 = DIRECTION ( 'NONE',  ( 0.000000000000000000, 0.000000000000000000, -1.000000000000000000 ) ) ;
#369 = EDGE_CURVE ( 'NONE', #735, #495, #408, .T. ) ;
#370 = VERTEX_POINT ( 'NONE', #428 ) ;
#371 = DIRECTION ( 'NONE',  ( 0.000000000000000000, 0.000000000000000000, 1.000000000000000000 ) ) ;
#372 = DIRECTION ( 'NONE',  ( 1.000000000000000000, 0.000000000000000000, 0.000000000000000000 ) ) ;
#373 = CIRCLE ( 'NONE', #595, 15.40000000000000036 ) ;
#374 = AXIS2_PLACEMENT_3D ( 'NONE', #47, #752, #218 ) ;
#375 = ORIENTED_EDGE ( 'NONE', *, *, #224, .T. ) ;
#376 = EDGE_CURVE ( 'NONE', #492, #706, #484, .T. ) ;
#377 = CARTESIAN_POINT ( 'NONE',  ( -20.63749999999999929, 0.000000000000000000, 0.000000000000000000 ) ) ;
#378 = AXIS2_PLACEMENT_3D ( 'NONE', #441, #742, #267 ) ;
#379 = ORIENTED_EDGE ( 'NONE', *, *, #559, .T. ) ;
#380 = CARTESIAN_POINT ( 'NONE',  ( 6.999999999999999112, 0.000000000000000000, 0.000000000000000000 ) ) ;
#381 = CARTESIAN_POINT ( 'NONE',  ( -20.63749999999999574, 0.000000000000000000, -13.97500000000000142 ) ) ;
#382 = ORIENTED_EDGE ( 'NONE', *, *, #272, .F. ) ;
#383 = CARTESIAN_POINT ( 'NONE',  ( 7.000000000000002665, 0.000000000000000000, 0.000000000000000000 ) ) ;
#384 = EDGE_LOOP ( 'NONE', ( #758, #682, #440, #348 ) ) ;
#385 = AXIS2_PLACEMENT_3D ( 'NONE', #141, #213, #215 ) ;
#386 = AXIS2_PLACEMENT_3D ( 'NONE', #275, #687, #151 ) ;
#387 = EDGE_CURVE ( 'NONE', #759, #361, #700, .T. ) ;
#388 = DIRECTION ( 'NONE',  ( 1.000000000000000000, 0.000000000000000000, 0.000000000000000000 ) ) ;
#389 = CARTESIAN_POINT ( 'NONE',  ( -6.400000000000001243, 8.082668874372531019E-16, 6.599999999999999645 ) ) ;
#390 = AXIS2_PLACEMENT_3D ( 'NONE', #754, #345, #157 ) ;
#391 = DIRECTION ( 'NONE',  ( 0.000000000000000000, 0.000000000000000000, 1.000000000000000000 ) ) ;
#392 = CARTESIAN_POINT ( 'NONE',  ( -6.400000000000001243, 0.000000000000000000, -6.000000000000000000 ) ) ;
#393 = ORIENTED_EDGE ( 'NONE', *, *, #167, .T. ) ;
#394 = CARTESIAN_POINT ( 'NONE',  ( 0.000000000000000000, 0.000000000000000000, 0.000000000000000000 ) ) ;
#395 = AXIS2_PLACEMENT_3D ( 'NONE', #13, #548, #75 ) ;
#396 = VECTOR ( 'NONE', #560, 1000.000000000000000 ) ;
#397 = EDGE_CURVE ( 'NONE', #544, #416, #228, .T. ) ;
#398 = FACE_OUTER_BOUND ( 'NONE', #451, .T. ) ;
#399 = AXIS2_PLACEMENT_3D ( 'NONE', #537, #431, #252 ) ;
#400 = EDGE_CURVE ( 'NONE', #221, #460, #323, .T. ) ;
#401 = ADVANCED_BREP_SHAPE_REPRESENTATION ( 'angular contact ball bearing_68_iso', ( #276, #511 ), #96 ) ;
#402 = CARTESIAN_POINT ( 'NONE',  ( -0.3864906208434974455, 1.711443901808426299E-15, -13.97500000000000142 ) ) ;
#403 = DIRECTION ( 'NONE',  ( 1.000000000000000000, 0.000000000000000000, 0.000000000000000000 ) ) ;
#404 = CARTESIAN_POINT ( 'NONE',  ( -6.999999999999997335, 13.97499999999999964, 0.000000000000000000 ) ) ;
#405 = DIRECTION ( 'NONE',  ( 0.000000000000000000, 0.000000000000000000, -1.000000000000000000 ) ) ;
#406 = ORIENTED_EDGE ( 'NONE', *, *, #397, .F. ) ;
#407 = FACE_OUTER_BOUND ( 'NONE', #101, .T. ) ;
#408 = CIRCLE ( 'NONE', #269, 13.97499999999999964 ) ;
#409 = CIRCLE ( 'NONE', #80, 6.000000000000000000 ) ;
#410 = FACE_BOUND ( 'NONE', #525, .T. ) ;
#411 = CARTESIAN_POINT ( 'NONE',  ( -6.400000000000001243, 0.000000000000000000, 0.000000000000000000 ) ) ;
#412 = APPLICATION_CONTEXT ( 'automotive_design' ) ;
#413 = ADVANCED_FACE ( 'NONE', ( #125 ), #72, .F. ) ;
#414 = VERTEX_POINT ( 'NONE', #191 ) ;
#415 = TOROIDAL_SURFACE ( 'NONE', #378, 15.40000000000000036, 0.5999999999999994227 ) ;
#416 = VERTEX_POINT ( 'NONE', #432 ) ;
#417 = ORIENTED_EDGE ( 'NONE', *, *, #427, .T. ) ;
#418 = CARTESIAN_POINT ( 'NONE',  ( 0.000000000000000000, 1.347111479062088405E-15, -11.00000000000000000 ) ) ;
#419 = CARTESIAN_POINT ( 'NONE',  ( 6.400000000000001243, 8.082668874372531019E-16, 6.599999999999999645 ) ) ;
#420 = ORIENTED_EDGE ( 'NONE', *, *, #387, .F. ) ;
#421 = ADVANCED_FACE ( 'NONE', ( #360 ), #598, .F. ) ;
#422 = DIRECTION ( 'NONE',  ( 0.000000000000000000, 1.224646799147353207E-16, 1.000000000000000000 ) ) ;
#423 = AXIS2_PLACEMENT_3D ( 'NONE', #419, #538, #744 ) ;
#424 = DIRECTION ( 'NONE',  ( 0.000000000000000000, 0.000000000000000000, -1.000000000000000000 ) ) ;
#425 = ORIENTED_EDGE ( 'NONE', *, *, #716, .T. ) ;
#426 = DIRECTION ( 'NONE',  ( 1.000000000000000000, 0.000000000000000000, 0.000000000000000000 ) ) ;
#427 = EDGE_CURVE ( 'NONE', #544, #549, #666, .T. ) ;
#428 = CARTESIAN_POINT ( 'NONE',  ( 6.999999999999999112, 0.000000000000000000, -15.40000000000000036 ) ) ;
#429 = CIRCLE ( 'NONE', #85, 6.599999999999999645 ) ;
#430 = ORIENTED_EDGE ( 'NONE', *, *, #231, .T. ) ;
#431 = DIRECTION ( 'NONE',  ( 1.000000000000000000, 0.000000000000000000, 0.000000000000000000 ) ) ;
#432 = CARTESIAN_POINT ( 'NONE',  ( 2.236067977499792025, 0.000000000000000000, 12.99999999999999822 ) ) ;
#433 = ORIENTED_EDGE ( 'NONE', *, *, #439, .F. ) ;
#434 = DIRECTION ( 'NONE',  ( 1.000000000000000000, 0.000000000000000000, 0.000000000000000000 ) ) ;
#435 = AXIS2_PLACEMENT_3D ( 'NONE', #343, #43, #103 ) ;
#436 = CARTESIAN_POINT ( 'NONE',  ( -20.63749999999999929, 7.347880794884119736E-16, 6.000000000000000000 ) ) ;
#437 = CLOSED_SHELL ( 'NONE', ( #726, #2, #352, #153, #293, #200, #737, #413, #566, #574, #26, #607, #36, #480, #651, #520, #338, #421, #253, #6, #307, #104, #672, #81, #684, #749, #279, #256 ) ) ;
#438 = VERTEX_POINT ( 'NONE', #121 ) ;
#439 = EDGE_CURVE ( 'NONE', #599, #203, #751, .T. ) ;
#440 = ORIENTED_EDGE ( 'NONE', *, *, #190, .T. ) ;
#441 = CARTESIAN_POINT ( 'NONE',  ( 6.399999999999998579, 0.000000000000000000, 0.000000000000000000 ) ) ;
#442 = CARTESIAN_POINT ( 'NONE',  ( 6.399999999999999467, 1.959434878635765131E-15, 16.00000000000000000 ) ) ;
#443 = EDGE_LOOP ( 'NONE', ( #21, #646, #420, #181 ) ) ;
#444 = TOROIDAL_SURFACE ( 'NONE', #68, 11.00000000000000000, 3.000000000000000444 ) ;
#445 = CARTESIAN_POINT ( 'NONE',  ( -6.999999999999997335, 1.711443901808426101E-15, 13.97499999999999964 ) ) ;
#446 = EDGE_CURVE ( 'NONE', #240, #759, #165, .T. ) ;
#447 = CARTESIAN_POINT ( 'NONE',  ( -6.400000000000001243, 0.000000000000000000, -6.599999999999999645 ) ) ;
#448 = ORIENTED_EDGE ( 'NONE', *, *, #618, .T. ) ;
#449 = VECTOR ( 'NONE', #388, 1000.000000000000000 ) ;
#450 = DIRECTION ( 'NONE',  ( 0.000000000000000000, 0.000000000000000000, -1.000000000000000000 ) ) ;
#451 = EDGE_LOOP ( 'NONE', ( #425, #266 ) ) ;
#452 = CIRCLE ( 'NONE', #491, 15.40000000000000036 ) ;
#453 = DIRECTION ( 'NONE',  ( -1.000000000000000000, -0.000000000000000000, -0.000000000000000000 ) ) ;
#454 = CARTESIAN_POINT ( 'NONE',  ( 6.399999999999998579, 0.000000000000000000, -15.40000000000000036 ) ) ;
#455 = EDGE_CURVE ( 'NONE', #221, #311, #608, .T. ) ;
#456 = UNCERTAINTY_MEASURE_WITH_UNIT (LENGTH_MEASURE( 1.000000000000000082E-05 ), #132, 'distance_accuracy_value', 'NONE');
#457 = FILL_AREA_STYLE_COLOUR ( '', #547 ) ;
#458 = AXIS2_PLACEMENT_3D ( 'NONE', #243, #187, #314 ) ;
#459 = AXIS2_PLACEMENT_3D ( 'NONE', #626, #38, #506 ) ;
#460 = VERTEX_POINT ( 'NONE', #713 ) ;
#461 = DIRECTION ( 'NONE',  ( 1.000000000000000000, 0.000000000000000000, 0.000000000000000000 ) ) ;
#462 = PRODUCT ( 'angular contact ball bearing_68_iso', 'angular contact ball bearing_68_iso', '', ( #320 ) ) ;
#463 = CIRCLE ( 'NONE', #123, 0.5999999999999998668 ) ;
#464 = FACE_BOUND ( 'NONE', #166, .T. ) ;
#465 = DIRECTION ( 'NONE',  ( 0.000000000000000000, 1.000000000000000000, -1.224646799147353207E-16 ) ) ;
#466 = LINE ( 'NONE', #762, #33 ) ;
#467 = EDGE_CURVE ( 'NONE', #438, #335, #364, .T. ) ;
#468 = DIRECTION ( 'NONE',  ( -0.000000000000000000, 0.000000000000000000, 1.000000000000000000 ) ) ;
#469 = ORIENTED_EDGE ( 'NONE', *, *, #400, .T. ) ;
#470 = TOROIDAL_SURFACE ( 'NONE', #258, 15.40000000000000036, 0.5999999999999994227 ) ;
#471 = VECTOR ( 'NONE', #767, 1000.000000000000000 ) ;
#472 = EDGE_LOOP ( 'NONE', ( #285, #234 ) ) ;
#473 = CARTESIAN_POINT ( 'NONE',  ( -20.63749999999999574, 0.000000000000000000, -16.00000000000000000 ) ) ;
#474 = ORIENTED_EDGE ( 'NONE', *, *, #662, .T. ) ;
#475 = AXIS2_PLACEMENT_3D ( 'NONE', #298, #182, #248 ) ;
#476 = CARTESIAN_POINT ( 'NONE',  ( -20.63749999999999929, 0.000000000000000000, 0.000000000000000000 ) ) ;
#477 = CARTESIAN_POINT ( 'NONE',  ( -20.63749999999999929, 0.000000000000000000, 0.000000000000000000 ) ) ;
#478 = CARTESIAN_POINT ( 'NONE',  ( -20.63749999999999574, 0.000000000000000000, -12.99999999999999822 ) ) ;
#479 = VERTEX_POINT ( 'NONE', #304 ) ;
#480 = ADVANCED_FACE ( 'NONE', ( #552 ), #542, .T. ) ;
#481 = CARTESIAN_POINT ( 'NONE',  ( 6.999999999999999112, 0.000000000000000000, -13.00000000000000000 ) ) ;
#482 = DIRECTION ( 'NONE',  ( 0.000000000000000000, 1.224646799147353207E-16, 1.000000000000000000 ) ) ;
#483 = ORIENTED_EDGE ( 'NONE', *, *, #190, .F. ) ;
#484 = CIRCLE ( 'NONE', #395, 3.000000000000000888 ) ;
#485 = DIRECTION ( 'NONE',  ( 1.000000000000000000, 0.000000000000000000, 0.000000000000000000 ) ) ;
#486 = AXIS2_PLACEMENT_3D ( 'NONE', #674, #137, #77 ) ;
#487 = DIRECTION ( 'NONE',  ( 0.000000000000000000, 0.000000000000000000, 1.000000000000000000 ) ) ;
#488 = ORIENTED_EDGE ( 'NONE', *, *, #60, .T. ) ;
#489 = CARTESIAN_POINT ( 'NONE',  ( 0.000000000000000000, 0.000000000000000000, 11.00000000000000000 ) ) ;
#490 = DIRECTION ( 'NONE',  ( 0.000000000000000000, 0.000000000000000000, -1.000000000000000000 ) ) ;
#491 = AXIS2_PLACEMENT_3D ( 'NONE', #628, #333, #621 ) ;
#492 = VERTEX_POINT ( 'NONE', #402 ) ;
#493 = EDGE_CURVE ( 'NONE', #203, #599, #763, .T. ) ;
#494 = CARTESIAN_POINT ( 'NONE',  ( -7.000000000000000888, 0.000000000000000000, 0.000000000000000000 ) ) ;
#495 = VERTEX_POINT ( 'NONE', #284 ) ;
#496 = ORIENTED_EDGE ( 'NONE', *, *, #376, .F. ) ;
#497 = DIRECTION ( 'NONE',  ( 0.000000000000000000, 0.000000000000000000, -1.000000000000000000 ) ) ;
#498 = DIRECTION ( 'NONE',  ( 1.000000000000000000, 0.000000000000000000, 0.000000000000000000 ) ) ;
#499 = CIRCLE ( 'NONE', #48, 9.000000000000000000 ) ;
#500 = ORIENTED_EDGE ( 'NONE', *, *, #167, .F. ) ;
#501 = EDGE_CURVE ( 'NONE', #495, #735, #553, .T. ) ;
#502 = CARTESIAN_POINT ( 'NONE',  ( -20.63749999999999929, 0.000000000000000000, -6.000000000000000000 ) ) ;
#503 = DIRECTION ( 'NONE',  ( 0.000000000000000000, 0.000000000000000000, -1.000000000000000000 ) ) ;
#504 = ORIENTED_EDGE ( 'NONE', *, *, #283, .F. ) ;
#505 = EDGE_CURVE ( 'NONE', #438, #587, #175, .T. ) ;
#506 = DIRECTION ( 'NONE',  ( 0.000000000000000000, 0.000000000000000000, -1.000000000000000000 ) ) ;
#507 = AXIS2_PLACEMENT_3D ( 'NONE', #389, #465, #148 ) ;
#508 =( GEOMETRIC_REPRESENTATION_CONTEXT ( 3 ) GLOBAL_UNCERTAINTY_ASSIGNED_CONTEXT ( ( #172 ) ) GLOBAL_UNIT_ASSIGNED_CONTEXT ( ( #52, #158, #169 ) ) REPRESENTATION_CONTEXT ( 'NONE', 'WORKASPACE' ) );
#509 = ORIENTED_EDGE ( 'NONE', *, *, #74, .T. ) ;
#510 = CARTESIAN_POINT ( 'NONE',  ( 6.399999999999998579, 0.000000000000000000, 0.000000000000000000 ) ) ;
#511 = AXIS2_PLACEMENT_3D ( 'NONE', #683, #391, #673 ) ;
#512 = ORIENTED_EDGE ( 'NONE', *, *, #231, .F. ) ;
#513 = FACE_OUTER_BOUND ( 'NONE', #73, .T. ) ;
#514 = VERTEX_POINT ( 'NONE', #635 ) ;
#515 = VERTEX_POINT ( 'NONE', #95 ) ;
#516 = PLANE ( 'NONE',  #145 ) ;
#517 = TOROIDAL_SURFACE ( 'NONE', #156, 11.00000000000000000, 3.000000000000000444 ) ;
#518 = ORIENTED_EDGE ( 'NONE', *, *, #760, .T. ) ;
#519 = CARTESIAN_POINT ( 'NONE',  ( -6.399999999999999467, 1.959434878635765131E-15, 16.00000000000000000 ) ) ;
#520 = ADVANCED_FACE ( 'NONE', ( #40, #464 ), #582, .T. ) ;
#521 = AXIS2_PLACEMENT_3D ( 'NONE', #476, #308, #292 ) ;
#522 = DIRECTION ( 'NONE',  ( 0.000000000000000000, 0.000000000000000000, -1.000000000000000000 ) ) ;
#523 = VERTEX_POINT ( 'NONE', #757 ) ;
#524 = FACE_OUTER_BOUND ( 'NONE', #650, .T. ) ;
#525 = EDGE_LOOP ( 'NONE', ( #255, #554 ) ) ;
#526 = ORIENTED_EDGE ( 'NONE', *, *, #533, .F. ) ;
#527 = FILL_AREA_STYLE ('',( #457 ) ) ;
#528 = VERTEX_POINT ( 'NONE', #120 ) ;
#529 = TOROIDAL_SURFACE ( 'NONE', #570, 6.599999999999999645, 0.5999999999999998668 ) ;
#530 = AXIS2_PLACEMENT_3D ( 'NONE', #41, #281, #653 ) ;
#531 = CARTESIAN_POINT ( 'NONE',  ( 2.236067977499792025, 1.592040838891559095E-15, -12.99999999999999822 ) ) ;
#532 = CARTESIAN_POINT ( 'NONE',  ( 0.000000000000000000, 0.000000000000000000, 0.000000000000000000 ) ) ;
#533 = EDGE_CURVE ( 'NONE', #723, #335, #222, .T. ) ;
#534 = LINE ( 'NONE', #473, #471 ) ;
#535 = ORIENTED_EDGE ( 'NONE', *, *, #74, .F. ) ;
#536 = PRODUCT_DEFINITION_FORMATION_WITH_SPECIFIED_SOURCE ( 'ANY', '', #462, .NOT_KNOWN. ) ;
#537 = CARTESIAN_POINT ( 'NONE',  ( -2.236067977499790693, 0.000000000000000000, 0.000000000000000000 ) ) ;
#538 = DIRECTION ( 'NONE',  ( 0.000000000000000000, 1.000000000000000000, -1.224646799147353207E-16 ) ) ;
#539 = CARTESIAN_POINT ( 'NONE',  ( 6.400000000000001243, 0.000000000000000000, -6.599999999999999645 ) ) ;
#540 = EDGE_LOOP ( 'NONE', ( #227, #620, #393, #711 ) ) ;
#541 = DIRECTION ( 'NONE',  ( 0.000000000000000000, -1.224646799147353454E-16, 1.000000000000000000 ) ) ;
#542 = CYLINDRICAL_SURFACE ( 'NONE', #458, 8.024999999999996803 ) ;
#543 = AXIS2_PLACEMENT_3D ( 'NONE', #584, #461, #692 ) ;
#544 = VERTEX_POINT ( 'NONE', #531 ) ;
#545 = CARTESIAN_POINT ( 'NONE',  ( 6.400000000000001243, 0.000000000000000000, 0.000000000000000000 ) ) ;
#546 = CIRCLE ( 'NONE', #208, 13.97500000000000142 ) ;
#547 = COLOUR_RGB ( '',0.7921568627450980005, 0.8196078431372548767, 0.9333333333333333481 ) ;
#548 = DIRECTION ( 'NONE',  ( -0.000000000000000000, 1.000000000000000000, 1.224646799147353207E-16 ) ) ;
#549 = VERTEX_POINT ( 'NONE', #481 ) ;
#550 = EDGE_CURVE ( 'NONE', #706, #335, #707, .T. ) ;
#551 = CARTESIAN_POINT ( 'NONE',  ( -20.63749999999999574, 0.000000000000000000, 0.000000000000000000 ) ) ;
#552 = FACE_OUTER_BOUND ( 'NONE', #540, .T. ) ;
#553 = CIRCLE ( 'NONE', #390, 13.97499999999999964 ) ;
#554 = ORIENTED_EDGE ( 'NONE', *, *, #439, .T. ) ;
#555 = CARTESIAN_POINT ( 'NONE',  ( -2.236067977499790693, 0.000000000000000000, 0.000000000000000000 ) ) ;
#556 = CARTESIAN_POINT ( 'NONE',  ( 6.399999999999999467, 0.000000000000000000, 0.000000000000000000 ) ) ;
#557 = ORIENTED_EDGE ( 'NONE', *, *, #219, .T. ) ;
#558 = CARTESIAN_POINT ( 'NONE',  ( -6.400000000000001243, 0.000000000000000000, 0.000000000000000000 ) ) ;
#559 = EDGE_CURVE ( 'NONE', #479, #62, #665, .T. ) ;
#560 = DIRECTION ( 'NONE',  ( 1.000000000000000000, 0.000000000000000000, 0.000000000000000000 ) ) ;
#561 = VERTEX_POINT ( 'NONE', #178 ) ;
#562 = CARTESIAN_POINT ( 'NONE',  ( 0.3864906208434974455, 0.000000000000000000, 0.000000000000000000 ) ) ;
#563 = DIRECTION ( 'NONE',  ( 0.000000000000000000, 0.000000000000000000, -1.000000000000000000 ) ) ;
#564 = AXIS2_PLACEMENT_3D ( 'NONE', #418, #601, #541 ) ;
#565 = EDGE_LOOP ( 'NONE', ( #430, #236, #667, #526 ) ) ;
#566 = ADVANCED_FACE ( 'NONE', ( #708 ), #614, .T. ) ;
#567 = DIRECTION ( 'NONE',  ( 1.000000000000000000, 0.000000000000000000, 0.000000000000000000 ) ) ;
#568 = ORIENTED_EDGE ( 'NONE', *, *, #272, .T. ) ;
#569 = CARTESIAN_POINT ( 'NONE',  ( -2.236067977499790693, 0.000000000000000000, -9.000000000000000000 ) ) ;
#570 = AXIS2_PLACEMENT_3D ( 'NONE', #194, #128, #61 ) ;
#571 = DIRECTION ( 'NONE',  ( 0.000000000000000000, 0.000000000000000000, 1.000000000000000000 ) ) ;
#572 = AXIS2_PLACEMENT_3D ( 'NONE', #576, #164, #112 ) ;
#573 = ORIENTED_EDGE ( 'NONE', *, *, #247, .F. ) ;
#574 = ADVANCED_FACE ( 'NONE', ( #313 ), #233, .T. ) ;
#575 = LINE ( 'NONE', #86, #449 ) ;
#576 = CARTESIAN_POINT ( 'NONE',  ( -6.400000000000001243, 0.000000000000000000, 0.000000000000000000 ) ) ;
#577 = CYLINDRICAL_SURFACE ( 'NONE', #198, 8.024999999999996803 ) ;
#578 = DIRECTION ( 'NONE',  ( 0.000000000000000000, 0.000000000000000000, -1.000000000000000000 ) ) ;
#579 = EDGE_CURVE ( 'NONE', #515, #319, #463, .T. ) ;
#580 = VECTOR ( 'NONE', #658, 1000.000000000000000 ) ;
#581 = CIRCLE ( 'NONE', #102, 15.40000000000000036 ) ;
#582 = PLANE ( 'NONE',  #693 ) ;
#583 = FACE_OUTER_BOUND ( 'NONE', #472, .T. ) ;
#584 = CARTESIAN_POINT ( 'NONE',  ( -20.63749999999999574, 0.000000000000000000, 0.000000000000000000 ) ) ;
#585 = ORIENTED_EDGE ( 'NONE', *, *, #369, .T. ) ;
#586 = AXIS2_PLACEMENT_3D ( 'NONE', #747, #277, #688 ) ;
#587 = VERTEX_POINT ( 'NONE', #721 ) ;
#588 = SURFACE_STYLE_FILL_AREA ( #527 ) ;
#589 = ORIENTED_EDGE ( 'NONE', *, *, #195, .F. ) ;
#590 = EDGE_CURVE ( 'NONE', #414, #544, #286, .T. ) ;
#591 = DIRECTION ( 'NONE',  ( 0.000000000000000000, -1.000000000000000000, 0.000000000000000000 ) ) ;
#592 = ORIENTED_EDGE ( 'NONE', *, *, #204, .T. ) ;
#593 = EDGE_LOOP ( 'NONE', ( #138, #642, #322, #573 ) ) ;
#594 = AXIS2_PLACEMENT_3D ( 'NONE', #239, #710, #482 ) ;
#595 = AXIS2_PLACEMENT_3D ( 'NONE', #691, #403, #640 ) ;
#596 = FACE_OUTER_BOUND ( 'NONE', #78, .T. ) ;
#597 = DIRECTION ( 'NONE',  ( 0.000000000000000000, 0.000000000000000000, -1.000000000000000000 ) ) ;
#598 = CYLINDRICAL_SURFACE ( 'NONE', #155, 6.000000000000000000 ) ;
#599 = VERTEX_POINT ( 'NONE', #657 ) ;
#600 = VECTOR ( 'NONE', #89, 1000.000000000000000 ) ;
#601 = DIRECTION ( 'NONE',  ( -0.000000000000000000, 1.000000000000000000, 1.224646799147353207E-16 ) ) ;
#602 = DIRECTION ( 'NONE',  ( 0.000000000000000000, 0.000000000000000000, -1.000000000000000000 ) ) ;
#603 = ORIENTED_EDGE ( 'NONE', *, *, #114, .F. ) ;
#604 = CYLINDRICAL_SURFACE ( 'NONE', #521, 9.000000000000000000 ) ;
#605 = DIRECTION ( 'NONE',  ( 1.000000000000000000, 0.000000000000000000, 0.000000000000000000 ) ) ;
#606 = ORIENTED_EDGE ( 'NONE', *, *, #505, .T. ) ;
#607 = ADVANCED_FACE ( 'NONE', ( #12 ), #11, .T. ) ;
#608 = CIRCLE ( 'NONE', #594, 0.5999999999999998668 ) ;
#609 = FACE_OUTER_BOUND ( 'NONE', #678, .T. ) ;
#610 = TOROIDAL_SURFACE ( 'NONE', #572, 6.599999999999999645, 0.5999999999999998668 ) ;
#611 = DIRECTION ( 'NONE',  ( 1.000000000000000000, 0.000000000000000000, 0.000000000000000000 ) ) ;
#612 = ORIENTED_EDGE ( 'NONE', *, *, #427, .F. ) ;
#613 =( NAMED_UNIT ( * ) PLANE_ANGLE_UNIT ( ) SI_UNIT ( $, .RADIAN. ) );
#614 = TOROIDAL_SURFACE ( 'NONE', #328, 6.599999999999999645, 0.5999999999999998668 ) ;
#615 = DIRECTION ( 'NONE',  ( 1.000000000000000000, 0.000000000000000000, 0.000000000000000000 ) ) ;
#616 = ORIENTED_EDGE ( 'NONE', *, *, #400, .F. ) ;
#617 = DIRECTION ( 'NONE',  ( 0.000000000000000000, 0.000000000000000000, 1.000000000000000000 ) ) ;
#618 = EDGE_CURVE ( 'NONE', #523, #62, #660, .T. ) ;
#619 = LINE ( 'NONE', #381, #44 ) ;
#620 = ORIENTED_EDGE ( 'NONE', *, *, #743, .F. ) ;
#621 = DIRECTION ( 'NONE',  ( 0.000000000000000000, 0.000000000000000000, -1.000000000000000000 ) ) ;
#622 = TOROIDAL_SURFACE ( 'NONE', #244, 15.40000000000000036, 0.5999999999999994227 ) ;
#623 = CARTESIAN_POINT ( 'NONE',  ( 2.236067977499792025, 0.000000000000000000, 0.000000000000000000 ) ) ;
#624 = ORIENTED_EDGE ( 'NONE', *, *, #247, .T. ) ;
#625 = DIRECTION ( 'NONE',  ( 1.000000000000000000, 0.000000000000000000, 0.000000000000000000 ) ) ;
#626 = CARTESIAN_POINT ( 'NONE',  ( -20.63749999999999574, 0.000000000000000000, 0.000000000000000000 ) ) ;
#627 = CIRCLE ( 'NONE', #720, 13.00000000000000000 ) ;
#628 = CARTESIAN_POINT ( 'NONE',  ( 6.999999999999999112, 0.000000000000000000, 0.000000000000000000 ) ) ;
#629 = FACE_OUTER_BOUND ( 'NONE', #565, .T. ) ;
#630 = EDGE_CURVE ( 'NONE', #46, #515, #647, .T. ) ;
#631 = ORIENTED_EDGE ( 'NONE', *, *, #455, .T. ) ;
#632 = AXIS2_PLACEMENT_3D ( 'NONE', #249, #611, #487 ) ;
#633 = CARTESIAN_POINT ( 'NONE',  ( -20.63749999999999574, 1.592040838891558898E-15, 12.99999999999999822 ) ) ;
#634 = AXIS2_PLACEMENT_3D ( 'NONE', #454, #334, #28 ) ;
#635 = CARTESIAN_POINT ( 'NONE',  ( 6.999999999999999112, 1.592040838891559293E-15, 13.00000000000000178 ) ) ;
#636 = CYLINDRICAL_SURFACE ( 'NONE', #543, 12.99999999999999822 ) ;
#637 = AXIS2_PLACEMENT_3D ( 'NONE', #64, #434, #669 ) ;
#638 = CARTESIAN_POINT ( 'NONE',  ( -7.000000000000000888, 0.000000000000000000, 0.000000000000000000 ) ) ;
#639 = EDGE_CURVE ( 'NONE', #735, #723, #189, .T. ) ;
#640 = DIRECTION ( 'NONE',  ( 0.000000000000000000, 0.000000000000000000, -1.000000000000000000 ) ) ;
#641 = DIRECTION ( 'NONE',  ( -1.000000000000000000, -0.000000000000000000, -0.000000000000000000 ) ) ;
#642 = ORIENTED_EDGE ( 'NONE', *, *, #30, .T. ) ;
#643 = EDGE_CURVE ( 'NONE', #732, #240, #429, .T. ) ;
#644 = ORIENTED_EDGE ( 'NONE', *, *, #705, .F. ) ;
#645 = DIRECTION ( 'NONE',  ( -1.000000000000000000, -0.000000000000000000, -0.000000000000000000 ) ) ;
#646 = ORIENTED_EDGE ( 'NONE', *, *, #91, .T. ) ;
#647 = CIRCLE ( 'NONE', #637, 15.40000000000000036 ) ;
#648 = PLANE ( 'NONE',  #359 ) ;
#649 = DIRECTION ( 'NONE',  ( -0.000000000000000000, 0.000000000000000000, 1.000000000000000000 ) ) ;
#650 = EDGE_LOOP ( 'NONE', ( #173, #225 ) ) ;
#651 = ADVANCED_FACE ( 'NONE', ( #367 ), #604, .T. ) ;
#652 = DIRECTION ( 'NONE',  ( 1.000000000000000000, 0.000000000000000000, 0.000000000000000000 ) ) ;
#653 = DIRECTION ( 'NONE',  ( 0.000000000000000000, 0.000000000000000000, -1.000000000000000000 ) ) ;
#654 = CARTESIAN_POINT ( 'NONE',  ( 6.399999999999999467, 7.715274834628325378E-16, 6.000000000000000000 ) ) ;
#655 = ORIENTED_EDGE ( 'NONE', *, *, #369, .F. ) ;
#656 = CIRCLE ( 'NONE', #259, 16.00000000000000000 ) ;
#657 = CARTESIAN_POINT ( 'NONE',  ( -7.000000000000000888, 8.082668874372531019E-16, 6.599999999999999645 ) ) ;
#658 = DIRECTION ( 'NONE',  ( 1.000000000000000000, 0.000000000000000000, 0.000000000000000000 ) ) ;
#659 = EDGE_LOOP ( 'NONE', ( #592, #727, #16, #382 ) ) ;
#660 = CIRCLE ( 'NONE', #365, 8.024999999999996803 ) ;
#661 = CARTESIAN_POINT ( 'NONE',  ( 7.000000000000002665, 0.000000000000000000, 0.000000000000000000 ) ) ;
#662 = EDGE_CURVE ( 'NONE', #587, #438, #316, .T. ) ;
#663 = DIRECTION ( 'NONE',  ( 1.000000000000000000, 0.000000000000000000, 0.000000000000000000 ) ) ;
#664 = ORIENTED_EDGE ( 'NONE', *, *, #130, .F. ) ;
#665 = LINE ( 'NONE', #362, #263 ) ;
#666 = LINE ( 'NONE', #478, #580 ) ;
#667 = ORIENTED_EDGE ( 'NONE', *, *, #550, .T. ) ;
#668 = AXIS2_PLACEMENT_3D ( 'NONE', #539, #718, #771 ) ;
#669 = DIRECTION ( 'NONE',  ( 0.000000000000000000, 0.000000000000000000, -1.000000000000000000 ) ) ;
#670 = CARTESIAN_POINT ( 'NONE',  ( -20.63749999999999929, 0.000000000000000000, 0.000000000000000000 ) ) ;
#671 = EDGE_LOOP ( 'NONE', ( #250, #557, #509, #105 ) ) ;
#672 = ADVANCED_FACE ( 'NONE', ( #596 ), #712, .F. ) ;
#673 = DIRECTION ( 'NONE',  ( 1.000000000000000000, 0.000000000000000000, 0.000000000000000000 ) ) ;
#674 = CARTESIAN_POINT ( 'NONE',  ( -6.399999999999999467, 0.000000000000000000, 0.000000000000000000 ) ) ;
#675 = EDGE_LOOP ( 'NONE', ( #142, #469, #76, #232 ) ) ;
#676 = DIRECTION ( 'NONE',  ( 1.000000000000000000, 0.000000000000000000, 0.000000000000000000 ) ) ;
#677 = LINE ( 'NONE', #633, #396 ) ;
#678 = EDGE_LOOP ( 'NONE', ( #188, #66, #568, #616 ) ) ;
#679 = DIRECTION ( 'NONE',  ( 0.000000000000000000, 0.000000000000000000, -1.000000000000000000 ) ) ;
#680 = CIRCLE ( 'NONE', #344, 8.024999999999996803 ) ;
#681 = DIRECTION ( 'NONE',  ( 0.000000000000000000, 0.000000000000000000, -1.000000000000000000 ) ) ;
#682 = ORIENTED_EDGE ( 'NONE', *, *, #743, .T. ) ;
#683 = CARTESIAN_POINT ( 'NONE',  ( 0.000000000000000000, 0.000000000000000000, 0.000000000000000000 ) ) ;
#684 = ADVANCED_FACE ( 'NONE', ( #609 ), #71, .T. ) ;
#685 = FACE_OUTER_BOUND ( 'NONE', #207, .T. ) ;
#686 = CIRCLE ( 'NONE', #349, 8.024999999999996803 ) ;
#687 = DIRECTION ( 'NONE',  ( 0.000000000000000000, -1.000000000000000000, 0.000000000000000000 ) ) ;
#688 = DIRECTION ( 'NONE',  ( 0.000000000000000000, 0.000000000000000000, -1.000000000000000000 ) ) ;
#689 = FACE_OUTER_BOUND ( 'NONE', #5, .T. ) ;
#690 = EDGE_CURVE ( 'NONE', #514, #549, #627, .T. ) ;
#691 = CARTESIAN_POINT ( 'NONE',  ( 6.999999999999999112, 0.000000000000000000, 0.000000000000000000 ) ) ;
#692 = DIRECTION ( 'NONE',  ( 0.000000000000000000, 0.000000000000000000, -1.000000000000000000 ) ) ;
#693 = AXIS2_PLACEMENT_3D ( 'NONE', #696, #45, #522 ) ;
#694 = ORIENTED_EDGE ( 'NONE', *, *, #204, .F. ) ;
#695 = EDGE_CURVE ( 'NONE', #335, #706, #499, .T. ) ;
#696 = CARTESIAN_POINT ( 'NONE',  ( 7.000000000000000888, 6.599999999999999645, 0.000000000000000000 ) ) ;
#697 = EDGE_LOOP ( 'NONE', ( #518, #1, #106, #483 ) ) ;
#698 = FACE_OUTER_BOUND ( 'NONE', #113, .T. ) ;
#699 = FACE_OUTER_BOUND ( 'NONE', #246, .T. ) ;
#700 = CIRCLE ( 'NONE', #197, 6.000000000000000000 ) ;
#701 = AXIS2_PLACEMENT_3D ( 'NONE', #326, #321, #450 ) ;
#702 = EDGE_LOOP ( 'NONE', ( #53, #585 ) ) ;
#703 = ORIENTED_EDGE ( 'NONE', *, *, #177, .F. ) ;
#704 = FACE_BOUND ( 'NONE', #162, .T. ) ;
#705 = EDGE_CURVE ( 'NONE', #199, #759, #325, .T. ) ;
#706 = VERTEX_POINT ( 'NONE', #569 ) ;
#707 = CIRCLE ( 'NONE', #399, 9.000000000000000000 ) ;
#708 = FACE_OUTER_BOUND ( 'NONE', #443, .T. ) ;
#709 = DIRECTION ( 'NONE',  ( 1.000000000000000000, 0.000000000000000000, 0.000000000000000000 ) ) ;
#710 = DIRECTION ( 'NONE',  ( 0.000000000000000000, 1.000000000000000000, -1.224646799147353207E-16 ) ) ;
#711 = ORIENTED_EDGE ( 'NONE', *, *, #224, .F. ) ;
#712 = CYLINDRICAL_SURFACE ( 'NONE', #475, 13.97500000000000142 ) ;
#713 = CARTESIAN_POINT ( 'NONE',  ( 6.399999999999999467, 0.000000000000000000, -16.00000000000000000 ) ) ;
#714 = ORIENTED_EDGE ( 'NONE', *, *, #317, .F. ) ;
#715 = CIRCLE ( 'NONE', #280, 12.99999999999999822 ) ;
#716 = EDGE_CURVE ( 'NONE', #370, #311, #452, .T. ) ;
#717 = DIRECTION ( 'NONE',  ( 1.000000000000000000, 0.000000000000000000, 0.000000000000000000 ) ) ;
#718 = DIRECTION ( 'NONE',  ( 0.000000000000000000, -1.000000000000000000, 0.000000000000000000 ) ) ;
#719 = ORIENTED_EDGE ( 'NONE', *, *, #130, .T. ) ;
#720 = AXIS2_PLACEMENT_3D ( 'NONE', #380, #625, #329 ) ;
#721 = CARTESIAN_POINT ( 'NONE',  ( -7.000000000000000888, 0.000000000000000000, -8.999999999999998224 ) ) ;
#722 = DIRECTION ( 'NONE',  ( 0.000000000000000000, 0.000000000000000000, -1.000000000000000000 ) ) ;
#723 = VERTEX_POINT ( 'NONE', #733 ) ;
#724 = DIRECTION ( 'NONE',  ( 0.000000000000000000, 0.000000000000000000, -1.000000000000000000 ) ) ;
#725 = CARTESIAN_POINT ( 'NONE',  ( 6.399999999999999467, 0.000000000000000000, 0.000000000000000000 ) ) ;
#726 = ADVANCED_FACE ( 'NONE', ( #84 ), #415, .T. ) ;
#727 = ORIENTED_EDGE ( 'NONE', *, *, #146, .T. ) ;
#728 =( NAMED_UNIT ( * ) SI_UNIT ( $, .STERADIAN. ) SOLID_ANGLE_UNIT ( ) );
#729 = EDGE_LOOP ( 'NONE', ( #474, #29, #214, #291 ) ) ;
#730 = AXIS2_PLACEMENT_3D ( 'NONE', #237, #3, #371 ) ;
#731 = DIRECTION ( 'NONE',  ( 1.000000000000000000, 0.000000000000000000, 0.000000000000000000 ) ) ;
#732 = VERTEX_POINT ( 'NONE', #201 ) ;
#733 = CARTESIAN_POINT ( 'NONE',  ( -0.3864906208434974455, 0.000000000000000000, 13.97500000000000142 ) ) ;
#734 = DIRECTION ( 'NONE',  ( 0.000000000000000000, 0.000000000000000000, -1.000000000000000000 ) ) ;
#735 = VERTEX_POINT ( 'NONE', #445 ) ;
#736 = FACE_OUTER_BOUND ( 'NONE', #593, .T. ) ;
#737 = ADVANCED_FACE ( 'NONE', ( #736 ), #108, .T. ) ;
#738 = AXIS2_PLACEMENT_3D ( 'NONE', #494, #372, #602 ) ;
#739 = VECTOR ( 'NONE', #330, 1000.000000000000000 ) ;
#740 = CARTESIAN_POINT ( 'NONE',  ( -20.63749999999999929, 0.000000000000000000, -8.024999999999996803 ) ) ;
#741 = EDGE_LOOP ( 'NONE', ( #10, #714, #302, #69 ) ) ;
#742 = DIRECTION ( 'NONE',  ( 1.000000000000000000, 0.000000000000000000, 0.000000000000000000 ) ) ;
#743 = EDGE_CURVE ( 'NONE', #414, #479, #150, .T. ) ;
#744 = DIRECTION ( 'NONE',  ( 0.000000000000000000, 1.224646799147351728E-16, 1.000000000000000000 ) ) ;
#745 = AXIS2_PLACEMENT_3D ( 'NONE', #638, #220, #405 ) ;
#746 = ORIENTED_EDGE ( 'NONE', *, *, #109, .F. ) ;
#747 = CARTESIAN_POINT ( 'NONE',  ( -7.000000000000000888, 0.000000000000000000, 0.000000000000000000 ) ) ;
#748 = DIRECTION ( 'NONE',  ( -1.000000000000000000, -0.000000000000000000, -0.000000000000000000 ) ) ;
#749 = ADVANCED_FACE ( 'NONE', ( #205 ), #135, .T. ) ;
#750 = CARTESIAN_POINT ( 'NONE',  ( -20.63749999999999574, 0.000000000000000000, 0.000000000000000000 ) ) ;
#751 = CIRCLE ( 'NONE', #738, 6.599999999999999645 ) ;
#752 = DIRECTION ( 'NONE',  ( -1.000000000000000000, -0.000000000000000000, -0.000000000000000000 ) ) ;
#753 = AXIS2_PLACEMENT_3D ( 'NONE', #299, #770, #597 ) ;
#754 = CARTESIAN_POINT ( 'NONE',  ( -6.999999999999997335, 0.000000000000000000, 0.000000000000000000 ) ) ;
#755 = DIRECTION ( 'NONE',  ( 0.000000000000000000, 0.000000000000000000, -1.000000000000000000 ) ) ;
#756 = VECTOR ( 'NONE', #426, 1000.000000000000000 ) ;
#757 = CARTESIAN_POINT ( 'NONE',  ( 7.000000000000002665, 0.000000000000000000, -8.024999999999996803 ) ) ;
#758 = ORIENTED_EDGE ( 'NONE', *, *, #590, .F. ) ;
#759 = VERTEX_POINT ( 'NONE', #211 ) ;
#760 = EDGE_CURVE ( 'NONE', #479, #414, #686, .T. ) ;
#761 = ORIENTED_EDGE ( 'NONE', *, *, #91, .F. ) ;
#762 = CARTESIAN_POINT ( 'NONE',  ( -20.63749999999999929, 0.000000000000000000, -9.000000000000000000 ) ) ;
#763 = CIRCLE ( 'NONE', #586, 6.599999999999999645 ) ;
#764 = ORIENTED_EDGE ( 'NONE', *, *, #695, .T. ) ;
#765 = DIRECTION ( 'NONE',  ( 0.000000000000000000, 0.000000000000000000, -1.000000000000000000 ) ) ;
#766 = CARTESIAN_POINT ( 'NONE',  ( -7.000000000000000888, 8.999999999999998224, 0.000000000000000000 ) ) ;
#767 = DIRECTION ( 'NONE',  ( 1.000000000000000000, 0.000000000000000000, 0.000000000000000000 ) ) ;
#768 = EDGE_LOOP ( 'NONE', ( #306, #631, #171, #746 ) ) ;
#769 = DIRECTION ( 'NONE',  ( 1.000000000000000000, 0.000000000000000000, 0.000000000000000000 ) ) ;
#770 = DIRECTION ( 'NONE',  ( 0.000000000000000000, -1.000000000000000000, 0.000000000000000000 ) ) ;
#771 = DIRECTION ( 'NONE',  ( 0.000000000000000000, 0.000000000000000000, -1.000000000000000000 ) ) ;
ENDSEC;
END-ISO-10303-21;
