ISO-10303-21;
HEADER;
FILE_DESCRIPTION (( 'STEP AP214' ),
    '1' );
FILE_NAME ('ButtomLid 2.step',
    '2026-08-28T16:08:42',
    ( '' ),
    ( '' ),
    'SwSTEP 2.0',
    'SolidWorks 2024',
    '' );
FILE_SCHEMA (( 'AUTOMOTIVE_DESIGN' ));
ENDSEC;

DATA;
#1 = FILL_AREA_STYLE_COLOUR ( '', #1219 ) ;
#2 = LINE ( 'NONE', #907, #1005 ) ;
#3 = ORIENTED_EDGE ( 'NONE', *, *, #880, .T. ) ;
#4 = DIRECTION ( 'NONE',  ( 0.000000000000000000, -1.000000000000000000, 0.000000000000000000 ) ) ;
#5 = DIRECTION ( 'NONE',  ( -0.5000000000000000000, 0.000000000000000000, -0.8660254037844385966 ) ) ;
#6 = CARTESIAN_POINT ( 'NONE',  ( 17.00000000000001776, 3.000000000000000000, -1.732050807568700224 ) ) ;
#7 = EDGE_CURVE ( 'NONE', #945, #680, #260, .T. ) ;
#8 = CARTESIAN_POINT ( 'NONE',  ( 0.000000000000000000, 10.00000000000000000, 0.000000000000000000 ) ) ;
#9 = CYLINDRICAL_SURFACE ( 'NONE', #331, 1.700000000000000844 ) ;
#10 = ORIENTED_EDGE ( 'NONE', *, *, #831, .F. ) ;
#11 = CIRCLE ( 'NONE', #120, 1.700000000000000178 ) ;
#12 = CARTESIAN_POINT ( 'NONE',  ( -20.00000000000001066, 3.000000000000000000, 3.464101615137683332 ) ) ;
#13 = AXIS2_PLACEMENT_3D ( 'NONE', #736, #147, #761 ) ;
#14 = VECTOR ( 'NONE', #957, 1000.000000000000000 ) ;
#15 = CARTESIAN_POINT ( 'NONE',  ( 3.673940397442059178E-15, 10.00000000000000000, 30.00000000000000000 ) ) ;
#16 = EDGE_CURVE ( 'NONE', #1296, #366, #11, .T. ) ;
#17 =( LENGTH_UNIT ( ) NAMED_UNIT ( * ) SI_UNIT ( .MILLI., .METRE. ) );
#18 = ORIENTED_EDGE ( 'NONE', *, *, #1026, .F. ) ;
#19 = PLANE ( 'NONE',  #950 ) ;
#20 = EDGE_LOOP ( 'NONE', ( #463, #743, #355, #1205, #971, #850 ) ) ;
#21 = PLANE ( 'NONE',  #580 ) ;
#22 = ADVANCED_FACE ( 'NONE', ( #891 ), #1298, .F. ) ;
#23 = LINE ( 'NONE', #127, #1171 ) ;
#24 = EDGE_LOOP ( 'NONE', ( #1264, #156, #53, #861 ) ) ;
#25 = EDGE_CURVE ( 'NONE', #258, #575, #2, .T. ) ;
#26 = ORIENTED_EDGE ( 'NONE', *, *, #883, .T. ) ;
#27 = LINE ( 'NONE', #531, #14 ) ;
#28 = DIRECTION ( 'NONE',  ( 1.000000000000000000, -0.000000000000000000, 3.491481338843133355E-15 ) ) ;
#29 = CARTESIAN_POINT ( 'NONE',  ( 20.00000000000000000, 10.00000000000000000, 2.094888803305880013E-13 ) ) ;
#30 = ORIENTED_EDGE ( 'NONE', *, *, #1210, .T. ) ;
#31 = EDGE_CURVE ( 'NONE', #951, #655, #702, .T. ) ;
#32 = AXIS2_PLACEMENT_3D ( 'NONE', #412, #109, #288 ) ;
#33 = EDGE_LOOP ( 'NONE', ( #649, #944 ) ) ;
#34 = DIRECTION ( 'NONE',  ( -0.000000000000000000, 1.000000000000000000, -0.000000000000000000 ) ) ;
#35 = DIRECTION ( 'NONE',  ( 0.000000000000000000, 1.000000000000000000, 0.000000000000000000 ) ) ;
#36 = STYLED_ITEM ( 'NONE', ( #633 ), #686 ) ;
#37 = AXIS2_PLACEMENT_3D ( 'NONE', #86, #490, #901 ) ;
#38 = FACE_BOUND ( 'NONE', #448, .T. ) ;
#39 = ORIENTED_EDGE ( 'NONE', *, *, #273, .T. ) ;
#40 = DIRECTION ( 'NONE',  ( -0.8660254037844333785, 0.000000000000000000, -0.5000000000000089928 ) ) ;
#41 = EDGE_LOOP ( 'NONE', ( #371, #1288, #276, #450 ) ) ;
#42 = DIRECTION ( 'NONE',  ( 0.8660254037844334896, 0.000000000000000000, 0.5000000000000089928 ) ) ;
#43 = FACE_OUTER_BOUND ( 'NONE', #269, .T. ) ;
#44 = ORIENTED_EDGE ( 'NONE', *, *, #772, .F. ) ;
#45 = LINE ( 'NONE', #665, #242 ) ;
#46 = ORIENTED_EDGE ( 'NONE', *, *, #929, .T. ) ;
#47 = CARTESIAN_POINT ( 'NONE',  ( 3.464101615137749501, 3.000000000000000000, -20.00000000000000000 ) ) ;
#48 = ORIENTED_EDGE ( 'NONE', *, *, #340, .T. ) ;
#49 = VERTEX_POINT ( 'NONE', #604 ) ;
#50 = CARTESIAN_POINT ( 'NONE',  ( -1.732050807568878303, 3.000000000000000000, -17.00000000000000000 ) ) ;
#51 = EDGE_CURVE ( 'NONE', #266, #68, #100, .T. ) ;
#52 = CARTESIAN_POINT ( 'NONE',  ( 3.464101615137749501, 0.000000000000000000, -20.00000000000000000 ) ) ;
#53 = ORIENTED_EDGE ( 'NONE', *, *, #690, .F. ) ;
#54 = DIRECTION ( 'NONE',  ( -0.8660254037844387076, 0.000000000000000000, -0.4999999999999999445 ) ) ;
#55 = VERTEX_POINT ( 'NONE', #89 ) ;
#56 = DIRECTION ( 'NONE',  ( 1.047444401652940007E-14, 0.000000000000000000, -1.000000000000000000 ) ) ;
#57 = VERTEX_POINT ( 'NONE', #817 ) ;
#58 = VERTEX_POINT ( 'NONE', #1122 ) ;
#59 = DIRECTION ( 'NONE',  ( -0.000000000000000000, -1.000000000000000000, -0.000000000000000000 ) ) ;
#60 = VECTOR ( 'NONE', #1082, 1000.000000000000000 ) ;
#61 = VECTOR ( 'NONE', #277, 1000.000000000000227 ) ;
#62 = CARTESIAN_POINT ( 'NONE',  ( -20.00000000000000000, 0.000000000000000000, -1.700000000000070566 ) ) ;
#63 = EDGE_CURVE ( 'NONE', #889, #680, #1319, .T. ) ;
#64 = VECTOR ( 'NONE', #214, 1000.000000000000000 ) ;
#65 = ORIENTED_EDGE ( 'NONE', *, *, #180, .F. ) ;
#66 = PLANE ( 'NONE',  #1112 ) ;
#67 = VECTOR ( 'NONE', #422, 1000.000000000000114 ) ;
#68 = VERTEX_POINT ( 'NONE', #294 ) ;
#69 = LINE ( 'NONE', #474, #1127 ) ;
#70 = ORIENTED_EDGE ( 'NONE', *, *, #16, .F. ) ;
#71 = DIRECTION ( 'NONE',  ( 1.000000000000000000, 0.000000000000000000, -0.000000000000000000 ) ) ;
#72 = DIRECTION ( 'NONE',  ( 0.000000000000000000, 1.000000000000000000, 0.000000000000000000 ) ) ;
#73 = ORIENTED_EDGE ( 'NONE', *, *, #131, .T. ) ;
#74 = EDGE_CURVE ( 'NONE', #68, #1101, #709, .T. ) ;
#75 = LINE ( 'NONE', #292, #549 ) ;
#76 = CARTESIAN_POINT ( 'NONE',  ( 0.000000000000000000, 10.00000000000000000, 20.00000000000000000 ) ) ;
#77 = EDGE_CURVE ( 'NONE', #1180, #803, #1126, .T. ) ;
#78 = ORIENTED_EDGE ( 'NONE', *, *, #110, .T. ) ;
#79 = CARTESIAN_POINT ( 'NONE',  ( 1.836970198721029589E-15, 10.00000000000000000, 15.00000000000000000 ) ) ;
#80 = CARTESIAN_POINT ( 'NONE',  ( 1.732050807568872974, 0.000000000000000000, -17.00000000000000000 ) ) ;
#81 = ORIENTED_EDGE ( 'NONE', *, *, #620, .T. ) ;
#82 = CARTESIAN_POINT ( 'NONE',  ( -1.732050807568872974, 3.000000000000000000, 17.00000000000000000 ) ) ;
#83 = ORIENTED_EDGE ( 'NONE', *, *, #391, .T. ) ;
#84 = EDGE_CURVE ( 'NONE', #1165, #58, #1020, .T. ) ;
#85 = LINE ( 'NONE', #1102, #1151 ) ;
#86 = CARTESIAN_POINT ( 'NONE',  ( 20.00000000000000000, 3.000000000000000000, 2.094888803305880013E-13 ) ) ;
#87 = CARTESIAN_POINT ( 'NONE',  ( 17.00000000000001776, 3.000000000000000000, -1.732050807568700224 ) ) ;
#88 = AXIS2_PLACEMENT_3D ( 'NONE', #574, #557, #1030 ) ;
#89 = CARTESIAN_POINT ( 'NONE',  ( 0.000000000000000000, 10.00000000000000000, -30.00000000000000000 ) ) ;
#90 = PRODUCT_DEFINITION_SHAPE ( 'NONE', 'NONE',  #1018 ) ;
#91 = SHAPE_DEFINITION_REPRESENTATION ( #90, #958 ) ;
#92 = ADVANCED_FACE ( 'NONE', ( #1312, #397 ), #501, .T. ) ;
#93 = FACE_OUTER_BOUND ( 'NONE', #871, .T. ) ;
#94 = CARTESIAN_POINT ( 'NONE',  ( 19.99999999999996447, 3.000000000000000000, 3.464101615137959111 ) ) ;
#95 = DIRECTION ( 'NONE',  ( 0.000000000000000000, 1.000000000000000000, 0.000000000000000000 ) ) ;
#96 = DIRECTION ( 'NONE',  ( -0.000000000000000000, -1.000000000000000000, -0.000000000000000000 ) ) ;
#97 = CARTESIAN_POINT ( 'NONE',  ( 3.464101615137753054, 0.000000000000000000, 20.00000000000000000 ) ) ;
#98 = EDGE_CURVE ( 'NONE', #1101, #993, #1212, .T. ) ;
#99 = CARTESIAN_POINT ( 'NONE',  ( 1.732050807568876527, 3.000000000000000000, -22.99999999999999289 ) ) ;
#100 = LINE ( 'NONE', #698, #928 ) ;
#101 = CARTESIAN_POINT ( 'NONE',  ( 20.00000000000000000, 10.00000000000000000, 1.700000000000210232 ) ) ;
#102 = DIRECTION ( 'NONE',  ( 0.000000000000000000, 1.000000000000000000, 0.000000000000000000 ) ) ;
#103 = CARTESIAN_POINT ( 'NONE',  ( 20.00000000000000000, 3.000000000000000000, 2.094888803305880013E-13 ) ) ;
#104 = CIRCLE ( 'NONE', #462, 30.00000000000000000 ) ;
#105 = CIRCLE ( 'NONE', #13, 1.700000000000000178 ) ;
#106 = AXIS2_PLACEMENT_3D ( 'NONE', #679, #1087, #390 ) ;
#107 = DIRECTION ( 'NONE',  ( -3.491481338843133750E-15, 0.000000000000000000, 1.000000000000000000 ) ) ;
#108 = DIRECTION ( 'NONE',  ( 0.000000000000000000, 0.000000000000000000, -1.000000000000000000 ) ) ;
#109 = DIRECTION ( 'NONE',  ( 0.000000000000000000, 1.000000000000000000, 0.000000000000000000 ) ) ;
#110 = EDGE_CURVE ( 'NONE', #524, #629, #353, .T. ) ;
#111 = EDGE_LOOP ( 'NONE', ( #83, #964, #1251, #1044 ) ) ;
#112 = DIRECTION ( 'NONE',  ( -0.000000000000000000, -1.000000000000000000, -0.000000000000000000 ) ) ;
#113 = CARTESIAN_POINT ( 'NONE',  ( -1.732050807568872974, 3.000000000000000000, 17.00000000000000000 ) ) ;
#114 = ORIENTED_EDGE ( 'NONE', *, *, #597, .T. ) ;
#115 = EDGE_CURVE ( 'NONE', #638, #951, #1322, .T. ) ;
#116 = LINE ( 'NONE', #516, #1006 ) ;
#117 = VERTEX_POINT ( 'NONE', #617 ) ;
#118 = DIRECTION ( 'NONE',  ( -0.000000000000000000, -1.000000000000000000, -0.000000000000000000 ) ) ;
#119 = CARTESIAN_POINT ( 'NONE',  ( 1.732050807568876527, 3.000000000000000000, -22.99999999999999289 ) ) ;
#120 = AXIS2_PLACEMENT_3D ( 'NONE', #76, #773, #479 ) ;
#121 = FACE_OUTER_BOUND ( 'NONE', #879, .T. ) ;
#122 = VECTOR ( 'NONE', #990, 1000.000000000000000 ) ;
#123 = EDGE_CURVE ( 'NONE', #582, #271, #632, .T. ) ;
#124 = VECTOR ( 'NONE', #919, 1000.000000000000000 ) ;
#125 = DIRECTION ( 'NONE',  ( 0.000000000000000000, 1.000000000000000000, -0.000000000000000000 ) ) ;
#126 = EDGE_CURVE ( 'NONE', #693, #117, #197, .T. ) ;
#127 = CARTESIAN_POINT ( 'NONE',  ( 1.732050807568878303, 0.000000000000000000, 17.00000000000000000 ) ) ;
#128 = ORIENTED_EDGE ( 'NONE', *, *, #159, .T. ) ;
#129 = CARTESIAN_POINT ( 'NONE',  ( 1.732050807568876527, 0.000000000000000000, -22.99999999999999289 ) ) ;
#130 = DIRECTION ( 'NONE',  ( -0.000000000000000000, -1.000000000000000000, -0.000000000000000000 ) ) ;
#131 = EDGE_CURVE ( 'NONE', #366, #1296, #897, .T. ) ;
#132 = ORIENTED_EDGE ( 'NONE', *, *, #126, .T. ) ;
#133 = ORIENTED_EDGE ( 'NONE', *, *, #807, .T. ) ;
#134 = VERTEX_POINT ( 'NONE', #6 ) ;
#135 = CARTESIAN_POINT ( 'NONE',  ( 0.000000000000000000, 3.000000000000000000, 0.000000000000000000 ) ) ;
#136 = DIRECTION ( 'NONE',  ( -0.000000000000000000, 1.000000000000000000, -0.000000000000000000 ) ) ;
#137 = ORIENTED_EDGE ( 'NONE', *, *, #1245, .T. ) ;
#138 = EDGE_LOOP ( 'NONE', ( #630, #363 ) ) ;
#139 = CIRCLE ( 'NONE', #1303, 1.700000000000000178 ) ;
#140 = ORIENTED_EDGE ( 'NONE', *, *, #800, .T. ) ;
#141 = FACE_OUTER_BOUND ( 'NONE', #755, .T. ) ;
#142 = PLANE ( 'NONE',  #722 ) ;
#143 = VECTOR ( 'NONE', #1070, 1000.000000000000000 ) ;
#144 = AXIS2_PLACEMENT_3D ( 'NONE', #184, #594, #995 ) ;
#145 = PLANE ( 'NONE',  #311 ) ;
#146 = ORIENTED_EDGE ( 'NONE', *, *, #746, .T. ) ;
#147 = DIRECTION ( 'NONE',  ( -0.000000000000000000, 1.000000000000000000, -0.000000000000000000 ) ) ;
#148 = ORIENTED_EDGE ( 'NONE', *, *, #703, .T. ) ;
#149 = EDGE_CURVE ( 'NONE', #754, #1153, #284, .T. ) ;
#150 = FACE_OUTER_BOUND ( 'NONE', #457, .T. ) ;
#151 = ORIENTED_EDGE ( 'NONE', *, *, #1318, .T. ) ;
#152 = DIRECTION ( 'NONE',  ( 0.000000000000000000, 0.000000000000000000, -1.000000000000000000 ) ) ;
#153 = DIRECTION ( 'NONE',  ( -0.8660254037844333785, 0.000000000000000000, -0.5000000000000089928 ) ) ;
#154 = ORIENTED_EDGE ( 'NONE', *, *, #637, .T. ) ;
#155 = CARTESIAN_POINT ( 'NONE',  ( 23.00000000000001066, 0.000000000000000000, -1.732050807568639827 ) ) ;
#156 = ORIENTED_EDGE ( 'NONE', *, *, #1019, .F. ) ;
#157 = DIRECTION ( 'NONE',  ( -0.000000000000000000, -1.000000000000000000, -0.000000000000000000 ) ) ;
#158 = ORIENTED_EDGE ( 'NONE', *, *, #800, .F. ) ;
#159 = EDGE_CURVE ( 'NONE', #643, #464, #404, .T. ) ;
#160 = ORIENTED_EDGE ( 'NONE', *, *, #999, .T. ) ;
#161 = FACE_OUTER_BOUND ( 'NONE', #626, .T. ) ;
#162 = ORIENTED_EDGE ( 'NONE', *, *, #210, .F. ) ;
#163 = DIRECTION ( 'NONE',  ( 0.8660254037844387076, -0.000000000000000000, 0.4999999999999998335 ) ) ;
#164 = ORIENTED_EDGE ( 'NONE', *, *, #1163, .F. ) ;
#165 = CARTESIAN_POINT ( 'NONE',  ( -17.00000000000000711, 3.000000000000000000, 1.732050807568818795 ) ) ;
#166 = EDGE_LOOP ( 'NONE', ( #731, #18, #221, #1068 ) ) ;
#167 = EDGE_CURVE ( 'NONE', #464, #977, #205, .T. ) ;
#168 = CIRCLE ( 'NONE', #418, 30.00000000000000000 ) ;
#169 = DIRECTION ( 'NONE',  ( 0.000000000000000000, 1.000000000000000000, 0.000000000000000000 ) ) ;
#170 = EDGE_CURVE ( 'NONE', #673, #889, #299, .T. ) ;
#171 = CIRCLE ( 'NONE', #616, 1.700000000000000178 ) ;
#172 = ORIENTED_EDGE ( 'NONE', *, *, #395, .T. ) ;
#173 = CARTESIAN_POINT ( 'NONE',  ( 1.732050807568872974, 3.000000000000000000, -17.00000000000000000 ) ) ;
#174 = VERTEX_POINT ( 'NONE', #481 ) ;
#175 = DIRECTION ( 'NONE',  ( 0.000000000000000000, -0.000000000000000000, 1.000000000000000000 ) ) ;
#176 = ORIENTED_EDGE ( 'NONE', *, *, #289, .T. ) ;
#177 = CARTESIAN_POINT ( 'NONE',  ( 22.99999999999997513, 3.000000000000000000, 1.732050807569117445 ) ) ;
#178 = FACE_OUTER_BOUND ( 'NONE', #1200, .T. ) ;
#179 = ORIENTED_EDGE ( 'NONE', *, *, #7, .F. ) ;
#180 = EDGE_CURVE ( 'NONE', #693, #1099, #835, .T. ) ;
#181 = CARTESIAN_POINT ( 'NONE',  ( 22.99999999999997513, 3.000000000000000000, 1.732050807569117445 ) ) ;
#182 = EDGE_LOOP ( 'NONE', ( #1266, #778, #1152, #26 ) ) ;
#183 = LINE ( 'NONE', #177, #1004 ) ;
#184 = CARTESIAN_POINT ( 'NONE',  ( 20.00000000000003553, 3.000000000000000000, -3.464101615137543444 ) ) ;
#185 = CARTESIAN_POINT ( 'NONE',  ( -1.732050807568880746, 0.000000000000000000, -22.99999999999999289 ) ) ;
#186 = EDGE_CURVE ( 'NONE', #1180, #1284, #435, .T. ) ;
#187 = DIRECTION ( 'NONE',  ( 0.000000000000000000, -1.000000000000000000, -0.000000000000000000 ) ) ;
#188 = CARTESIAN_POINT ( 'NONE',  ( -1.732050807568876527, 0.000000000000000000, 22.99999999999999289 ) ) ;
#189 = CLOSED_SHELL ( 'NONE', ( #307, #413, #1218, #300, #203, #1077, #954, #892, #676, #1324, #857, #905, #592, #737, #1064, #784, #760, #409, #867, #296, #405, #217, #348, #322, #281, #1252, #22, #372, #1124, #1192, #605, #1261, #710, #833, #434, #92, #486, #1118, #508, #1144, #1279, #917 ) ) ;
#190 = CARTESIAN_POINT ( 'NONE',  ( 20.00000000000000000, 10.00000000000000000, -1.699999999999791234 ) ) ;
#191 = VECTOR ( 'NONE', #1116, 1000.000000000000000 ) ;
#192 = DIRECTION ( 'NONE',  ( -0.000000000000000000, -1.000000000000000000, -0.000000000000000000 ) ) ;
#193 = CIRCLE ( 'NONE', #37, 1.700000000000000844 ) ;
#194 = EDGE_CURVE ( 'NONE', #255, #1067, #168, .T. ) ;
#195 = DIRECTION ( 'NONE',  ( -0.000000000000000000, -1.000000000000000000, -0.000000000000000000 ) ) ;
#196 = CARTESIAN_POINT ( 'NONE',  ( -23.00000000000000000, 3.000000000000000000, 1.732050807568800366 ) ) ;
#197 = LINE ( 'NONE', #1215, #523 ) ;
#198 = EDGE_CURVE ( 'NONE', #561, #266, #461, .T. ) ;
#199 = LINE ( 'NONE', #15, #385 ) ;
#200 = SURFACE_STYLE_USAGE ( .BOTH. , #733 ) ;
#201 = CARTESIAN_POINT ( 'NONE',  ( -22.99999999999998579, 0.000000000000000000, -1.732050807568956685 ) ) ;
#202 = LINE ( 'NONE', #613, #436 ) ;
#203 = ADVANCED_FACE ( 'NONE', ( #150 ), #337, .F. ) ;
#204 = DIRECTION ( 'NONE',  ( -1.000000000000000000, 0.000000000000000000, 0.000000000000000000 ) ) ;
#205 = CIRCLE ( 'NONE', #222, 1.700000000000000178 ) ;
#206 = VECTOR ( 'NONE', #233, 1000.000000000000114 ) ;
#207 = AXIS2_PLACEMENT_3D ( 'NONE', #1294, #466, #785 ) ;
#208 = DIRECTION ( 'NONE',  ( -1.000000000000000000, 0.000000000000000000, -1.047444401652940007E-14 ) ) ;
#209 = CARTESIAN_POINT ( 'NONE',  ( -22.99999999999998579, 3.000000000000000000, -1.732050807568956685 ) ) ;
#210 = EDGE_CURVE ( 'NONE', #338, #567, #241, .T. ) ;
#211 = DIRECTION ( 'NONE',  ( -0.8660254037844387076, 0.000000000000000000, -0.4999999999999998335 ) ) ;
#212 = ORIENTED_EDGE ( 'NONE', *, *, #1037, .F. ) ;
#213 = DIRECTION ( 'NONE',  ( 0.000000000000000000, 1.000000000000000000, 0.000000000000000000 ) ) ;
#214 = DIRECTION ( 'NONE',  ( 1.000000000000000000, 0.000000000000000000, 0.000000000000000000 ) ) ;
#215 = ORIENTED_EDGE ( 'NONE', *, *, #1052, .F. ) ;
#216 = DIRECTION ( 'NONE',  ( -0.5000000000000029976, 0.000000000000000000, 0.8660254037844369313 ) ) ;
#217 = ADVANCED_FACE ( 'NONE', ( #854, #560 ), #1094, .T. ) ;
#218 = ORIENTED_EDGE ( 'NONE', *, *, #1106, .T. ) ;
#219 = DIRECTION ( 'NONE',  ( -0.000000000000000000, 1.000000000000000000, -0.000000000000000000 ) ) ;
#220 = DIRECTION ( 'NONE',  ( 0.8660254037844369313, 0.000000000000000000, 0.5000000000000029976 ) ) ;
#221 = ORIENTED_EDGE ( 'NONE', *, *, #456, .T. ) ;
#222 = AXIS2_PLACEMENT_3D ( 'NONE', #666, #1003, #1223 ) ;
#223 = VECTOR ( 'NONE', #1304, 1000.000000000000000 ) ;
#224 = CIRCLE ( 'NONE', #873, 30.00000000000000000 ) ;
#225 = ORIENTED_EDGE ( 'NONE', *, *, #131, .F. ) ;
#226 = EDGE_CURVE ( 'NONE', #174, #55, #104, .T. ) ;
#227 = VECTOR ( 'NONE', #1295, 1000.000000000000000 ) ;
#228 = LINE ( 'NONE', #650, #635 ) ;
#229 = CARTESIAN_POINT ( 'NONE',  ( -1.732050807568876527, 3.000000000000000000, 22.99999999999999289 ) ) ;
#230 = ORIENTED_EDGE ( 'NONE', *, *, #571, .F. ) ;
#231 = ORIENTED_EDGE ( 'NONE', *, *, #1106, .F. ) ;
#232 = PLANE ( 'NONE',  #1063 ) ;
#233 = DIRECTION ( 'NONE',  ( -0.5000000000000001110, 0.000000000000000000, -0.8660254037844385966 ) ) ;
#234 = EDGE_LOOP ( 'NONE', ( #1240, #579, #545, #160, #962, #996 ) ) ;
#235 = ORIENTED_EDGE ( 'NONE', *, *, #289, .F. ) ;
#236 = CYLINDRICAL_SURFACE ( 'NONE', #1009, 1.700000000000000178 ) ;
#237 = DIRECTION ( 'NONE',  ( 0.000000000000000000, 0.000000000000000000, -1.000000000000000000 ) ) ;
#238 = EDGE_CURVE ( 'NONE', #839, #1196, #1075, .T. ) ;
#239 = CARTESIAN_POINT ( 'NONE',  ( -17.00000000000000711, 3.000000000000000000, 1.732050807568818795 ) ) ;
#240 = EDGE_LOOP ( 'NONE', ( #759, #369 ) ) ;
#241 = LINE ( 'NONE', #1066, #740 ) ;
#242 = VECTOR ( 'NONE', #860, 1000.000000000000000 ) ;
#243 = VERTEX_POINT ( 'NONE', #963 ) ;
#244 = ORIENTED_EDGE ( 'NONE', *, *, #921, .T. ) ;
#245 = DIRECTION ( 'NONE',  ( 0.000000000000000000, 1.000000000000000000, -0.000000000000000000 ) ) ;
#246 = AXIS2_PLACEMENT_3D ( 'NONE', #866, #748, #1150 ) ;
#247 = CIRCLE ( 'NONE', #420, 1.700000000000000844 ) ;
#248 = DIRECTION ( 'NONE',  ( -0.4999999999999998890, 0.000000000000000000, 0.8660254037844387076 ) ) ;
#249 = ORIENTED_EDGE ( 'NONE', *, *, #1111, .F. ) ;
#250 = CARTESIAN_POINT ( 'NONE',  ( -3.464101615137753054, 3.000000000000000000, -20.00000000000000000 ) ) ;
#251 = EDGE_CURVE ( 'NONE', #803, #1165, #674, .T. ) ;
#252 = ORIENTED_EDGE ( 'NONE', *, *, #115, .F. ) ;
#253 = DIRECTION ( 'NONE',  ( 0.000000000000000000, 1.000000000000000000, 0.000000000000000000 ) ) ;
#254 = ORIENTED_EDGE ( 'NONE', *, *, #1228, .T. ) ;
#255 = VERTEX_POINT ( 'NONE', #781 ) ;
#256 = CARTESIAN_POINT ( 'NONE',  ( -3.464101615137753054, 3.000000000000000000, -20.00000000000000000 ) ) ;
#257 = DIRECTION ( 'NONE',  ( 1.000000000000000000, 0.000000000000000000, 1.047444401652941269E-14 ) ) ;
#258 = VERTEX_POINT ( 'NONE', #1265 ) ;
#259 = DIRECTION ( 'NONE',  ( 0.8660254037844407060, 0.000000000000000000, -0.4999999999999965028 ) ) ;
#260 = LINE ( 'NONE', #1073, #762 ) ;
#261 = DIRECTION ( 'NONE',  ( 0.000000000000000000, 0.000000000000000000, 1.000000000000000000 ) ) ;
#262 = ORIENTED_EDGE ( 'NONE', *, *, #198, .T. ) ;
#263 = EDGE_CURVE ( 'NONE', #839, #673, #69, .T. ) ;
#264 =( NAMED_UNIT ( * ) PLANE_ANGLE_UNIT ( ) SI_UNIT ( $, .RADIAN. ) );
#265 = PLANE ( 'NONE',  #1113 ) ;
#266 = VERTEX_POINT ( 'NONE', #47 ) ;
#267 = CARTESIAN_POINT ( 'NONE',  ( 2.081899558550502252E-16, 3.000000000000000000, -21.69999999999999929 ) ) ;
#268 = CARTESIAN_POINT ( 'NONE',  ( -20.00000000000001066, 0.000000000000000000, 3.464101615137683332 ) ) ;
#269 = EDGE_LOOP ( 'NONE', ( #81, #780, #1031, #885 ) ) ;
#270 = DIRECTION ( 'NONE',  ( 1.000000000000000000, 0.000000000000000000, 3.491481338843133355E-15 ) ) ;
#271 = VERTEX_POINT ( 'NONE', #750 ) ;
#272 = DIRECTION ( 'NONE',  ( -0.000000000000000000, -1.000000000000000000, -0.000000000000000000 ) ) ;
#273 = EDGE_CURVE ( 'NONE', #134, #1092, #1283, .T. ) ;
#274 = VECTOR ( 'NONE', #1289, 1000.000000000000000 ) ;
#275 = CARTESIAN_POINT ( 'NONE',  ( -20.00000000000001066, 3.000000000000000000, 3.464101615137683332 ) ) ;
#276 = ORIENTED_EDGE ( 'NONE', *, *, #999, .F. ) ;
#277 = DIRECTION ( 'NONE',  ( -0.8660254037844369313, 0.000000000000000000, -0.5000000000000028866 ) ) ;
#278 = ORIENTED_EDGE ( 'NONE', *, *, #1138, .T. ) ;
#279 = APPLICATION_PROTOCOL_DEFINITION ( 'draft international standard', 'automotive_design', 1998, #517 ) ;
#280 = PLANE ( 'NONE',  #1201 ) ;
#281 = ADVANCED_FACE ( 'NONE', ( #451 ), #1190, .F. ) ;
#282 = EDGE_LOOP ( 'NONE', ( #483, #682, #855, #73 ) ) ;
#283 = CARTESIAN_POINT ( 'NONE',  ( 20.00000000000003553, 0.000000000000000000, -3.464101615137543888 ) ) ;
#284 = LINE ( 'NONE', #1016, #790 ) ;
#285 = FACE_OUTER_BOUND ( 'NONE', #1140, .T. ) ;
#286 = DIRECTION ( 'NONE',  ( -0.000000000000000000, -1.000000000000000000, -0.000000000000000000 ) ) ;
#287 = CARTESIAN_POINT ( 'NONE',  ( -1.732050807568880746, 0.000000000000000000, -22.99999999999999289 ) ) ;
#288 = DIRECTION ( 'NONE',  ( 0.000000000000000000, 0.000000000000000000, 1.000000000000000000 ) ) ;
#289 = EDGE_CURVE ( 'NONE', #49, #134, #1272, .T. ) ;
#290 = DIRECTION ( 'NONE',  ( 0.5000000000000000000, 0.000000000000000000, 0.8660254037844385966 ) ) ;
#291 = VECTOR ( 'NONE', #441, 1000.000000000000000 ) ;
#292 = CARTESIAN_POINT ( 'NONE',  ( 1.732050807568876527, 0.000000000000000000, -22.99999999999999289 ) ) ;
#293 = AXIS2_PLACEMENT_3D ( 'NONE', #173, #681, #590 ) ;
#294 = CARTESIAN_POINT ( 'NONE',  ( 1.732050807568872974, 3.000000000000000000, -17.00000000000000000 ) ) ;
#295 = CIRCLE ( 'NONE', #491, 1.700000000000000178 ) ;
#296 = ADVANCED_FACE ( 'NONE', ( #1159 ), #884, .F. ) ;
#297 = DIRECTION ( 'NONE',  ( 0.000000000000000000, -0.000000000000000000, -1.000000000000000000 ) ) ;
#298 = LINE ( 'NONE', #303, #64 ) ;
#299 = LINE ( 'NONE', #713, #576 ) ;
#300 = ADVANCED_FACE ( 'NONE', ( #453 ), #465, .F. ) ;
#301 = DIRECTION ( 'NONE',  ( 0.000000000000000000, 0.000000000000000000, -1.000000000000000000 ) ) ;
#302 = CARTESIAN_POINT ( 'NONE',  ( -1.732050807568878303, 0.000000000000000000, -17.00000000000000000 ) ) ;
#303 = CARTESIAN_POINT ( 'NONE',  ( -1.732050807568880746, 3.000000000000000000, -22.99999999999999289 ) ) ;
#304 = CARTESIAN_POINT ( 'NONE',  ( 0.000000000000000000, 3.000000000000000000, 0.000000000000000000 ) ) ;
#305 = ORIENTED_EDGE ( 'NONE', *, *, #149, .T. ) ;
#306 = DIRECTION ( 'NONE',  ( -0.000000000000000000, 1.000000000000000000, -0.000000000000000000 ) ) ;
#307 = ADVANCED_FACE ( 'NONE', ( #141 ), #1185, .F. ) ;
#308 = CARTESIAN_POINT ( 'NONE',  ( 20.00000000000003553, 3.000000000000000000, -3.464101615137543444 ) ) ;
#309 = ORIENTED_EDGE ( 'NONE', *, *, #443, .T. ) ;
#310 = VECTOR ( 'NONE', #56, 1000.000000000000000 ) ;
#311 = AXIS2_PLACEMENT_3D ( 'NONE', #943, #237, #758 ) ;
#312 = VECTOR ( 'NONE', #195, 1000.000000000000000 ) ;
#313 = CARTESIAN_POINT ( 'NONE',  ( -20.00000000000000000, 0.000000000000000000, 1.699999999999930900 ) ) ;
#314 = CARTESIAN_POINT ( 'NONE',  ( 1.732050807568872974, 3.000000000000000000, -17.00000000000000000 ) ) ;
#315 = LINE ( 'NONE', #715, #634 ) ;
#316 = EDGE_LOOP ( 'NONE', ( #1290, #1051 ) ) ;
#317 = CARTESIAN_POINT ( 'NONE',  ( 0.000000000000000000, 10.00000000000000000, 21.69999999999999929 ) ) ;
#318 = ORIENTED_EDGE ( 'NONE', *, *, #1013, .T. ) ;
#319 = CARTESIAN_POINT ( 'NONE',  ( -20.00000000000001066, 3.000000000000000000, 3.464101615137683332 ) ) ;
#320 = FACE_OUTER_BOUND ( 'NONE', #1299, .T. ) ;
#321 = ORIENTED_EDGE ( 'NONE', *, *, #7, .T. ) ;
#322 = ADVANCED_FACE ( 'NONE', ( #1315 ), #446, .F. ) ;
#323 = DIRECTION ( 'NONE',  ( -0.000000000000000000, 1.000000000000000000, -0.000000000000000000 ) ) ;
#324 = CARTESIAN_POINT ( 'NONE',  ( 23.00000000000001066, 3.000000000000000000, -1.732050807568639827 ) ) ;
#325 = ORIENTED_EDGE ( 'NONE', *, *, #721, .T. ) ;
#326 = FACE_OUTER_BOUND ( 'NONE', #328, .T. ) ;
#327 = DIRECTION ( 'NONE',  ( 0.4999999999999995559, 0.000000000000000000, 0.8660254037844389297 ) ) ;
#328 = EDGE_LOOP ( 'NONE', ( #642, #775, #522, #425 ) ) ;
#329 = ORIENTED_EDGE ( 'NONE', *, *, #793, .F. ) ;
#330 = ORIENTED_EDGE ( 'NONE', *, *, #74, .F. ) ;
#331 = AXIS2_PLACEMENT_3D ( 'NONE', #521, #1040, #712 ) ;
#332 = AXIS2_PLACEMENT_3D ( 'NONE', #1221, #618, #923 ) ;
#333 = DIRECTION ( 'NONE',  ( 0.8660254037844439257, 0.000000000000000000, -0.4999999999999910072 ) ) ;
#334 = LINE ( 'NONE', #968, #143 ) ;
#335 = VERTEX_POINT ( 'NONE', #267 ) ;
#336 = VERTEX_POINT ( 'NONE', #654 ) ;
#337 = CYLINDRICAL_SURFACE ( 'NONE', #460, 1.700000000000000178 ) ;
#338 = VERTEX_POINT ( 'NONE', #628 ) ;
#339 = CARTESIAN_POINT ( 'NONE',  ( 20.00000000000003553, 0.000000000000000000, -3.464101615137543444 ) ) ;
#340 = EDGE_CURVE ( 'NONE', #584, #629, #730, .T. ) ;
#341 = DIRECTION ( 'NONE',  ( 0.000000000000000000, 1.000000000000000000, 0.000000000000000000 ) ) ;
#342 = ORIENTED_EDGE ( 'NONE', *, *, #1183, .T. ) ;
#343 = CARTESIAN_POINT ( 'NONE',  ( 17.00000000000001776, 3.000000000000000000, -1.732050807568700224 ) ) ;
#344 = ORIENTED_EDGE ( 'NONE', *, *, #471, .T. ) ;
#345 = ORIENTED_EDGE ( 'NONE', *, *, #167, .T. ) ;
#346 = CARTESIAN_POINT ( 'NONE',  ( 0.000000000000000000, 0.000000000000000000, 0.000000000000000000 ) ) ;
#347 = FACE_BOUND ( 'NONE', #33, .T. ) ;
#348 = ADVANCED_FACE ( 'NONE', ( #672 ), #1280, .F. ) ;
#349 = EDGE_LOOP ( 'NONE', ( #1306, #231, #444, #981 ) ) ;
#350 = DIRECTION ( 'NONE',  ( 0.000000000000000000, 0.000000000000000000, -1.000000000000000000 ) ) ;
#351 = ORIENTED_EDGE ( 'NONE', *, *, #123, .T. ) ;
#352 = CARTESIAN_POINT ( 'NONE',  ( 0.000000000000000000, 0.000000000000000000, 0.000000000000000000 ) ) ;
#353 = CIRCLE ( 'NONE', #599, 1.700000000000000178 ) ;
#354 = ORIENTED_EDGE ( 'NONE', *, *, #194, .F. ) ;
#355 = ORIENTED_EDGE ( 'NONE', *, *, #929, .F. ) ;
#356 = PLANE ( 'NONE',  #1202 ) ;
#357 = AXIS2_PLACEMENT_3D ( 'NONE', #1181, #1062, #350 ) ;
#358 = VECTOR ( 'NONE', #769, 1000.000000000000000 ) ;
#359 = CARTESIAN_POINT ( 'NONE',  ( 0.000000000000000000, 0.000000000000000000, -15.00000000000000000 ) ) ;
#360 = ORIENTED_EDGE ( 'NONE', *, *, #63, .F. ) ;
#361 = EDGE_CURVE ( 'NONE', #58, #638, #1080, .T. ) ;
#362 = DIRECTION ( 'NONE',  ( 0.4999999999999965028, -0.000000000000000000, 0.8660254037844407060 ) ) ;
#363 = ORIENTED_EDGE ( 'NONE', *, *, #640, .T. ) ;
#364 = EDGE_CURVE ( 'NONE', #977, #464, #139, .T. ) ;
#365 = DIRECTION ( 'NONE',  ( 0.5000000000000001110, 0.000000000000000000, 0.8660254037844385966 ) ) ;
#366 = VERTEX_POINT ( 'NONE', #317 ) ;
#367 = DIRECTION ( 'NONE',  ( 0.000000000000000000, 0.000000000000000000, 1.000000000000000000 ) ) ;
#368 = DIRECTION ( 'NONE',  ( -0.8660254037844387076, 0.000000000000000000, 0.5000000000000001110 ) ) ;
#369 = ORIENTED_EDGE ( 'NONE', *, *, #1052, .T. ) ;
#370 = DIRECTION ( 'NONE',  ( -0.4999999999999905076, 0.000000000000000000, -0.8660254037844441477 ) ) ;
#371 = ORIENTED_EDGE ( 'NONE', *, *, #31, .T. ) ;
#372 = ADVANCED_FACE ( 'NONE', ( #121 ), #421, .F. ) ;
#373 = CARTESIAN_POINT ( 'NONE',  ( 0.000000000000000000, 10.00000000000000000, 0.000000000000000000 ) ) ;
#374 = ORIENTED_EDGE ( 'NONE', *, *, #1176, .T. ) ;
#375 = ORIENTED_EDGE ( 'NONE', *, *, #519, .T. ) ;
#376 = DIRECTION ( 'NONE',  ( 0.8660254037844441477, 0.000000000000000000, -0.4999999999999905076 ) ) ;
#377 = DIRECTION ( 'NONE',  ( -0.000000000000000000, 1.000000000000000000, -0.000000000000000000 ) ) ;
#378 = ORIENTED_EDGE ( 'NONE', *, *, #423, .F. ) ;
#379 = CARTESIAN_POINT ( 'NONE',  ( 20.00000000000000000, 3.000000000000000000, 1.700000000000210232 ) ) ;
#380 = CARTESIAN_POINT ( 'NONE',  ( -23.00000000000000000, 3.000000000000000000, 1.732050807568800366 ) ) ;
#381 = CARTESIAN_POINT ( 'NONE',  ( 0.000000000000000000, 0.000000000000000000, 0.000000000000000000 ) ) ;
#382 = VECTOR ( 'NONE', #1259, 1000.000000000000000 ) ;
#383 = MECHANICAL_DESIGN_GEOMETRIC_PRESENTATION_REPRESENTATION (  '', ( #36 ), #1128 ) ;
#384 = CYLINDRICAL_SURFACE ( 'NONE', #744, 1.700000000000000178 ) ;
#385 = VECTOR ( 'NONE', #118, 1000.000000000000000 ) ;
#386 = ORIENTED_EDGE ( 'NONE', *, *, #63, .T. ) ;
#387 = CARTESIAN_POINT ( 'NONE',  ( 17.00000000000001776, 3.000000000000000000, -1.732050807568700224 ) ) ;
#388 = EDGE_LOOP ( 'NONE', ( #1146, #318, #922, #437 ) ) ;
#389 = DIRECTION ( 'NONE',  ( 1.047444401652939849E-14, 0.000000000000000000, -1.000000000000000000 ) ) ;
#390 = DIRECTION ( 'NONE',  ( 0.000000000000000000, 0.000000000000000000, 1.000000000000000000 ) ) ;
#391 = EDGE_CURVE ( 'NONE', #243, #57, #45, .T. ) ;
#392 = FACE_OUTER_BOUND ( 'NONE', #1273, .T. ) ;
#393 = DIRECTION ( 'NONE',  ( -3.491481338843133355E-15, 0.000000000000000000, 1.000000000000000000 ) ) ;
#394 = FACE_OUTER_BOUND ( 'NONE', #625, .T. ) ;
#395 = EDGE_CURVE ( 'NONE', #335, #977, #834, .T. ) ;
#396 = CYLINDRICAL_SURFACE ( 'NONE', #872, 30.00000000000000000 ) ;
#397 = FACE_BOUND ( 'NONE', #452, .T. ) ;
#398 = LINE ( 'NONE', #520, #1022 ) ;
#399 = VECTOR ( 'NONE', #992, 1000.000000000000000 ) ;
#400 = UNCERTAINTY_MEASURE_WITH_UNIT (LENGTH_MEASURE( 1.000000000000000082E-05 ), #17, 'distance_accuracy_value', 'NONE');
#401 = AXIS2_PLACEMENT_3D ( 'NONE', #511, #102, #1131 ) ;
#402 = LINE ( 'NONE', #308, #614 ) ;
#403 = AXIS2_PLACEMENT_3D ( 'NONE', #893, #72, #476 ) ;
#404 = LINE ( 'NONE', #507, #1169 ) ;
#405 = ADVANCED_FACE ( 'NONE', ( #935 ), #66, .F. ) ;
#406 = DIRECTION ( 'NONE',  ( 0.000000000000000000, 1.000000000000000000, 0.000000000000000000 ) ) ;
#407 = DIRECTION ( 'NONE',  ( 1.000000000000000000, 0.000000000000000000, 0.000000000000000000 ) ) ;
#408 = CARTESIAN_POINT ( 'NONE',  ( -20.00000000000001066, 3.000000000000000000, 3.464101615137683332 ) ) ;
#409 = ADVANCED_FACE ( 'NONE', ( #1036 ), #19, .F. ) ;
#410 = LINE ( 'NONE', #302, #67 ) ;
#411 = CARTESIAN_POINT ( 'NONE',  ( 1.732050807568880746, 0.000000000000000000, 22.99999999999999289 ) ) ;
#412 = CARTESIAN_POINT ( 'NONE',  ( 0.000000000000000000, 10.00000000000000000, 20.00000000000000000 ) ) ;
#413 = ADVANCED_FACE ( 'NONE', ( #961 ), #1133, .T. ) ;
#414 = VERTEX_POINT ( 'NONE', #1270 ) ;
#415 = CARTESIAN_POINT ( 'NONE',  ( 20.00000000000000000, 0.000000000000000000, 2.094888803305880013E-13 ) ) ;
#416 = EDGE_LOOP ( 'NONE', ( #344, #556, #886, #375 ) ) ;
#417 = AXIS2_PLACEMENT_3D ( 'NONE', #994, #1178, #367 ) ;
#418 = AXIS2_PLACEMENT_3D ( 'NONE', #352, #550, #1291 ) ;
#419 = VECTOR ( 'NONE', #832, 1000.000000000000000 ) ;
#420 = AXIS2_PLACEMENT_3D ( 'NONE', #1038, #125, #438 ) ;
#421 = PLANE ( 'NONE',  #823 ) ;
#422 = DIRECTION ( 'NONE',  ( -0.4999999999999995559, 0.000000000000000000, -0.8660254037844389297 ) ) ;
#423 = EDGE_CURVE ( 'NONE', #643, #335, #105, .T. ) ;
#424 = DIRECTION ( 'NONE',  ( 3.491481338843133355E-15, 0.000000000000000000, -1.000000000000000000 ) ) ;
#425 = ORIENTED_EDGE ( 'NONE', *, *, #98, .T. ) ;
#426 = FACE_OUTER_BOUND ( 'NONE', #918, .T. ) ;
#427 = LINE ( 'NONE', #670, #600 ) ;
#428 = EDGE_LOOP ( 'NONE', ( #664, #534, #44, #254 ) ) ;
#429 = EDGE_CURVE ( 'NONE', #933, #1244, #980, .T. ) ;
#430 = DIRECTION ( 'NONE',  ( 0.8660254037844369313, 0.000000000000000000, 0.5000000000000029976 ) ) ;
#431 = PLANE ( 'NONE',  #912 ) ;
#432 = VECTOR ( 'NONE', #1105, 1000.000000000000227 ) ;
#433 = EDGE_LOOP ( 'NONE', ( #140, #553, #770, #745 ) ) ;
#434 = ADVANCED_FACE ( 'NONE', ( #458 ), #1173, .F. ) ;
#435 = LINE ( 'NONE', #1164, #60 ) ;
#436 = VECTOR ( 'NONE', #830, 1000.000000000000227 ) ;
#437 = ORIENTED_EDGE ( 'NONE', *, *, #456, .F. ) ;
#438 = DIRECTION ( 'NONE',  ( 0.000000000000000000, 0.000000000000000000, -1.000000000000000000 ) ) ;
#439 = FACE_BOUND ( 'NONE', #659, .T. ) ;
#440 = ORIENTED_EDGE ( 'NONE', *, *, #1119, .F. ) ;
#441 = DIRECTION ( 'NONE',  ( -1.000000000000000000, 0.000000000000000000, 0.000000000000000000 ) ) ;
#442 = ORIENTED_EDGE ( 'NONE', *, *, #1210, .F. ) ;
#443 = EDGE_CURVE ( 'NONE', #1099, #336, #869, .T. ) ;
#444 = ORIENTED_EDGE ( 'NONE', *, *, #721, .F. ) ;
#445 = LINE ( 'NONE', #747, #1256 ) ;
#446 = PLANE ( 'NONE',  #546 ) ;
#447 = CARTESIAN_POINT ( 'NONE',  ( 3.464101615137753054, 3.000000000000000000, 20.00000000000000000 ) ) ;
#448 = EDGE_LOOP ( 'NONE', ( #10, #329 ) ) ;
#449 = CARTESIAN_POINT ( 'NONE',  ( 0.000000000000000000, 10.00000000000000000, -20.00000000000000000 ) ) ;
#450 = ORIENTED_EDGE ( 'NONE', *, *, #115, .T. ) ;
#451 = FACE_OUTER_BOUND ( 'NONE', #969, .T. ) ;
#452 = EDGE_LOOP ( 'NONE', ( #351, #1079 ) ) ;
#453 = FACE_OUTER_BOUND ( 'NONE', #734, .T. ) ;
#454 = DIRECTION ( 'NONE',  ( -1.047444401652940007E-14, 0.000000000000000000, 1.000000000000000000 ) ) ;
#455 = CARTESIAN_POINT ( 'NONE',  ( 19.99999999999996447, 3.000000000000000000, 3.464101615137959111 ) ) ;
#456 = EDGE_CURVE ( 'NONE', #55, #255, #970, .T. ) ;
#457 = EDGE_LOOP ( 'NONE', ( #1071, #172, #1134, #685 ) ) ;
#458 = FACE_OUTER_BOUND ( 'NONE', #182, .T. ) ;
#459 = ORIENTED_EDGE ( 'NONE', *, *, #51, .T. ) ;
#460 = AXIS2_PLACEMENT_3D ( 'NONE', #1053, #648, #668 ) ;
#461 = LINE ( 'NONE', #657, #1276 ) ;
#462 = AXIS2_PLACEMENT_3D ( 'NONE', #373, #253, #261 ) ;
#463 = ORIENTED_EDGE ( 'NONE', *, *, #25, .F. ) ;
#464 = VERTEX_POINT ( 'NONE', #621 ) ;
#465 = CYLINDRICAL_SURFACE ( 'NONE', #911, 1.700000000000000844 ) ;
#466 = DIRECTION ( 'NONE',  ( 0.8660254037844387076, -0.000000000000000000, 0.4999999999999999445 ) ) ;
#467 = CIRCLE ( 'NONE', #656, 1.700000000000000178 ) ;
#468 = AXIS2_PLACEMENT_3D ( 'NONE', #415, #1120, #714 ) ;
#469 = CARTESIAN_POINT ( 'NONE',  ( -22.99999999999998579, 0.000000000000000000, -1.732050807568956685 ) ) ;
#470 = ORIENTED_EDGE ( 'NONE', *, *, #198, .F. ) ;
#471 = EDGE_CURVE ( 'NONE', #336, #338, #116, .T. ) ;
#472 = CARTESIAN_POINT ( 'NONE',  ( 0.000000000000000000, 10.00000000000000000, -30.00000000000000000 ) ) ;
#473 = ORIENTED_EDGE ( 'NONE', *, *, #940, .F. ) ;
#474 = CARTESIAN_POINT ( 'NONE',  ( 1.732050807568880746, 3.000000000000000000, 22.99999999999999289 ) ) ;
#475 = EDGE_LOOP ( 'NONE', ( #675, #1076, #691, #1260 ) ) ;
#476 = DIRECTION ( 'NONE',  ( 0.000000000000000000, -0.000000000000000000, 1.000000000000000000 ) ) ;
#477 = ORIENTED_EDGE ( 'NONE', *, *, #1026, .T. ) ;
#478 = PLANE ( 'NONE',  #684 ) ;
#479 = DIRECTION ( 'NONE',  ( 0.000000000000000000, 0.000000000000000000, 1.000000000000000000 ) ) ;
#480 = ORIENTED_EDGE ( 'NONE', *, *, #16, .T. ) ;
#481 = CARTESIAN_POINT ( 'NONE',  ( 3.673940397442059178E-15, 10.00000000000000000, 30.00000000000000000 ) ) ;
#482 = FACE_OUTER_BOUND ( 'NONE', #548, .T. ) ;
#483 = ORIENTED_EDGE ( 'NONE', *, *, #1138, .F. ) ;
#484 = CARTESIAN_POINT ( 'NONE',  ( -19.99999999999998934, 3.000000000000000000, -3.464101615137819223 ) ) ;
#485 = ORIENTED_EDGE ( 'NONE', *, *, #110, .F. ) ;
#486 = ADVANCED_FACE ( 'NONE', ( #1100 ), #478, .F. ) ;
#487 = APPLICATION_PROTOCOL_DEFINITION ( 'draft international standard', 'automotive_design', 1998, #541 ) ;
#488 = AXIS2_PLACEMENT_3D ( 'NONE', #304, #187, #493 ) ;
#489 = AXIS2_PLACEMENT_3D ( 'NONE', #1162, #130, #544 ) ;
#490 = DIRECTION ( 'NONE',  ( -0.000000000000000000, 1.000000000000000000, -0.000000000000000000 ) ) ;
#491 = AXIS2_PLACEMENT_3D ( 'NONE', #865, #35, #644 ) ;
#492 = CARTESIAN_POINT ( 'NONE',  ( 20.00000000000000000, 0.000000000000000000, 1.700000000000210232 ) ) ;
#493 = DIRECTION ( 'NONE',  ( -1.000000000000000000, 0.000000000000000000, -1.047444401652940007E-14 ) ) ;
#494 = EDGE_CURVE ( 'NONE', #956, #894, #708, .T. ) ;
#495 = DIRECTION ( 'NONE',  ( -0.000000000000000000, -1.000000000000000000, -0.000000000000000000 ) ) ;
#496 = DIRECTION ( 'NONE',  ( -0.000000000000000000, -1.000000000000000000, -0.000000000000000000 ) ) ;
#497 = DIRECTION ( 'NONE',  ( -1.000000000000000000, 0.000000000000000000, -3.491481338843133355E-15 ) ) ;
#498 = DIRECTION ( 'NONE',  ( -0.4999999999999998890, 0.000000000000000000, 0.8660254037844387076 ) ) ;
#499 =( NAMED_UNIT ( * ) PLANE_ANGLE_UNIT ( ) SI_UNIT ( $, .RADIAN. ) );
#500 = EDGE_CURVE ( 'NONE', #575, #1154, #1011, .T. ) ;
#501 = PLANE ( 'NONE',  #488 ) ;
#502 = DIRECTION ( 'NONE',  ( 0.8660254037844403729, 0.000000000000000000, -0.4999999999999970579 ) ) ;
#503 = VECTOR ( 'NONE', #528, 1000.000000000000000 ) ;
#504 = VECTOR ( 'NONE', #1090, 1000.000000000000114 ) ;
#505 =( NAMED_UNIT ( * ) SI_UNIT ( $, .STERADIAN. ) SOLID_ANGLE_UNIT ( ) );
#506 = VECTOR ( 'NONE', #563, 1000.000000000000000 ) ;
#507 = CARTESIAN_POINT ( 'NONE',  ( 0.000000000000000000, 0.000000000000000000, -18.30000000000000071 ) ) ;
#508 = ADVANCED_FACE ( 'NONE', ( #583 ), #1015, .F. ) ;
#509 = ORIENTED_EDGE ( 'NONE', *, *, #273, .F. ) ;
#510 = LINE ( 'NONE', #1017, #124 ) ;
#511 = CARTESIAN_POINT ( 'NONE',  ( 0.000000000000000000, 0.000000000000000000, 0.000000000000000000 ) ) ;
#512 = CARTESIAN_POINT ( 'NONE',  ( -1.732050807568878303, 3.000000000000000000, -17.00000000000000000 ) ) ;
#513 = VERTEX_POINT ( 'NONE', #190 ) ;
#514 = CARTESIAN_POINT ( 'NONE',  ( 3.673940397442059178E-15, 0.000000000000000000, 30.00000000000000000 ) ) ;
#515 = ORIENTED_EDGE ( 'NONE', *, *, #1156, .F. ) ;
#516 = CARTESIAN_POINT ( 'NONE',  ( 22.99999999999997513, 0.000000000000000000, 1.732050807569117445 ) ) ;
#517 = APPLICATION_CONTEXT ( 'automotive_design' ) ;
#518 = ORIENTED_EDGE ( 'NONE', *, *, #703, .F. ) ;
#519 = EDGE_CURVE ( 'NONE', #117, #336, #906, .T. ) ;
#520 = CARTESIAN_POINT ( 'NONE',  ( -22.99999999999998579, 3.000000000000000000, -1.732050807568956685 ) ) ;
#521 = CARTESIAN_POINT ( 'NONE',  ( -20.00000000000000000, 0.000000000000000000, -6.982962677686266711E-14 ) ) ;
#522 = ORIENTED_EDGE ( 'NONE', *, *, #807, .F. ) ;
#523 = VECTOR ( 'NONE', #609, 1000.000000000000000 ) ;
#524 = VERTEX_POINT ( 'NONE', #890 ) ;
#525 = AXIS2_PLACEMENT_3D ( 'NONE', #250, #211, #1072 ) ;
#526 = ORIENTED_EDGE ( 'NONE', *, *, #238, .F. ) ;
#527 = AXIS2_PLACEMENT_3D ( 'NONE', #555, #533, #1050 ) ;
#528 = DIRECTION ( 'NONE',  ( -0.000000000000000000, 1.000000000000000000, -0.000000000000000000 ) ) ;
#529 = VERTEX_POINT ( 'NONE', #1104 ) ;
#530 = ORIENTED_EDGE ( 'NONE', *, *, #361, .F. ) ;
#531 = CARTESIAN_POINT ( 'NONE',  ( 3.464101615137753054, 3.000000000000000000, 20.00000000000000000 ) ) ;
#532 = EDGE_CURVE ( 'NONE', #868, #338, #1211, .T. ) ;
#533 = DIRECTION ( 'NONE',  ( 0.000000000000000000, 0.000000000000000000, -1.000000000000000000 ) ) ;
#534 = ORIENTED_EDGE ( 'NONE', *, *, #263, .F. ) ;
#535 = VERTEX_POINT ( 'NONE', #1108 ) ;
#536 = FACE_OUTER_BOUND ( 'NONE', #1191, .T. ) ;
#537 = DIRECTION ( 'NONE',  ( 0.8660254037844389297, 0.000000000000000000, -0.4999999999999996114 ) ) ;
#538 = ORIENTED_EDGE ( 'NONE', *, *, #540, .T. ) ;
#539 = ORIENTED_EDGE ( 'NONE', *, *, #653, .T. ) ;
#540 = EDGE_CURVE ( 'NONE', #58, #1182, #1297, .T. ) ;
#541 = APPLICATION_CONTEXT ( 'automotive_design' ) ;
#542 = EDGE_LOOP ( 'NONE', ( #477, #882 ) ) ;
#543 = DIRECTION ( 'NONE',  ( -0.8660254037844389297, 0.000000000000000000, 0.4999999999999996114 ) ) ;
#544 = DIRECTION ( 'NONE',  ( 0.000000000000000000, 0.000000000000000000, -1.000000000000000000 ) ) ;
#545 = ORIENTED_EDGE ( 'NONE', *, *, #361, .T. ) ;
#546 = AXIS2_PLACEMENT_3D ( 'NONE', #1168, #28, #934 ) ;
#547 = EDGE_CURVE ( 'NONE', #582, #966, #1198, .T. ) ;
#548 = EDGE_LOOP ( 'NONE', ( #864, #378, #128, #345 ) ) ;
#549 = VECTOR ( 'NONE', #788, 1000.000000000000114 ) ;
#550 = DIRECTION ( 'NONE',  ( 0.000000000000000000, 1.000000000000000000, 0.000000000000000000 ) ) ;
#551 = AXIS2_PLACEMENT_3D ( 'NONE', #1027, #4, #297 ) ;
#552 = VERTEX_POINT ( 'NONE', #283 ) ;
#553 = ORIENTED_EDGE ( 'NONE', *, *, #1228, .F. ) ;
#554 = CARTESIAN_POINT ( 'NONE',  ( -1.732050807568876527, 3.000000000000000000, 22.99999999999999289 ) ) ;
#555 = CARTESIAN_POINT ( 'NONE',  ( -1.732050807568880746, 3.000000000000000000, -22.99999999999999289 ) ) ;
#556 = ORIENTED_EDGE ( 'NONE', *, *, #532, .F. ) ;
#557 = DIRECTION ( 'NONE',  ( -0.000000000000000000, 1.000000000000000000, -0.000000000000000000 ) ) ;
#558 = ORIENTED_EDGE ( 'NONE', *, *, #597, .F. ) ;
#559 = PRODUCT_RELATED_PRODUCT_CATEGORY ( 'part', '', ( #998 ) ) ;
#560 = FACE_BOUND ( 'NONE', #1083, .T. ) ;
#561 = VERTEX_POINT ( 'NONE', #99 ) ;
#562 = ORIENTED_EDGE ( 'NONE', *, *, #729, .F. ) ;
#563 = DIRECTION ( 'NONE',  ( 1.047444401652940007E-14, 0.000000000000000000, -1.000000000000000000 ) ) ;
#564 = CARTESIAN_POINT ( 'NONE',  ( -3.464101615137753054, 3.000000000000000000, -20.00000000000000000 ) ) ;
#565 = ORIENTED_EDGE ( 'NONE', *, *, #31, .F. ) ;
#566 = DIRECTION ( 'NONE',  ( -1.047444401652940007E-14, 0.000000000000000000, 1.000000000000000000 ) ) ;
#567 = VERTEX_POINT ( 'NONE', #779 ) ;
#568 = CARTESIAN_POINT ( 'NONE',  ( -19.99999999999998934, 3.000000000000000000, -3.464101615137819223 ) ) ;
#569 = ORIENTED_EDGE ( 'NONE', *, *, #1300, .T. ) ;
#570 = LINE ( 'NONE', #256, #1042 ) ;
#571 = EDGE_CURVE ( 'NONE', #134, #937, #796, .T. ) ;
#572 = LINE ( 'NONE', #1010, #1041 ) ;
#573 = VERTEX_POINT ( 'NONE', #484 ) ;
#574 = CARTESIAN_POINT ( 'NONE',  ( 0.000000000000000000, 3.000000000000000000, 20.00000000000000000 ) ) ;
#575 = VERTEX_POINT ( 'NONE', #185 ) ;
#576 = VECTOR ( 'NONE', #1057, 1000.000000000000000 ) ;
#577 = DIRECTION ( 'NONE',  ( -0.000000000000000000, -1.000000000000000000, -0.000000000000000000 ) ) ;
#578 = VECTOR ( 'NONE', #136, 1000.000000000000000 ) ;
#579 = ORIENTED_EDGE ( 'NONE', *, *, #84, .T. ) ;
#580 = AXIS2_PLACEMENT_3D ( 'NONE', #135, #639, #1045 ) ;
#581 = CARTESIAN_POINT ( 'NONE',  ( 19.99999999999996447, 3.000000000000000000, 3.464101615137959111 ) ) ;
#582 = VERTEX_POINT ( 'NONE', #379 ) ;
#583 = FACE_OUTER_BOUND ( 'NONE', #349, .T. ) ;
#584 = VERTEX_POINT ( 'NONE', #1206 ) ;
#585 = CARTESIAN_POINT ( 'NONE',  ( 1.732050807568880746, 3.000000000000000000, 22.99999999999999289 ) ) ;
#586 = ORIENTED_EDGE ( 'NONE', *, *, #1318, .F. ) ;
#587 = CARTESIAN_POINT ( 'NONE',  ( 3.464101615137749501, 3.000000000000000000, -20.00000000000000000 ) ) ;
#588 = CARTESIAN_POINT ( 'NONE',  ( -1.732050807568876527, 3.000000000000000000, 22.99999999999999289 ) ) ;
#589 = ORIENTED_EDGE ( 'NONE', *, *, #793, .T. ) ;
#590 = DIRECTION ( 'NONE',  ( 1.000000000000000000, 0.000000000000000000, -0.000000000000000000 ) ) ;
#591 = ORIENTED_EDGE ( 'NONE', *, *, #170, .T. ) ;
#592 = ADVANCED_FACE ( 'NONE', ( #1002 ), #396, .T. ) ;
#593 =( LENGTH_UNIT ( ) NAMED_UNIT ( * ) SI_UNIT ( .MILLI., .METRE. ) );
#594 = DIRECTION ( 'NONE',  ( 0.5000000000000088818, 0.000000000000000000, -0.8660254037844334896 ) ) ;
#595 = DIRECTION ( 'NONE',  ( 0.8660254037844334896, 0.000000000000000000, 0.5000000000000089928 ) ) ;
#596 = DIRECTION ( 'NONE',  ( -1.000000000000000000, 0.000000000000000000, -3.491481338843137300E-15 ) ) ;
#597 = EDGE_CURVE ( 'NONE', #57, #1182, #1188, .T. ) ;
#598 = PLANE ( 'NONE',  #207 ) ;
#599 = AXIS2_PLACEMENT_3D ( 'NONE', #1207, #95, #596 ) ;
#600 = VECTOR ( 'NONE', #741, 1000.000000000000114 ) ;
#601 = FACE_BOUND ( 'NONE', #1166, .T. ) ;
#602 = AXIS2_PLACEMENT_3D ( 'NONE', #927, #306, #1014 ) ;
#603 = DIRECTION ( 'NONE',  ( -0.8660254037844438146, 0.000000000000000000, 0.4999999999999910072 ) ) ;
#604 = CARTESIAN_POINT ( 'NONE',  ( 16.99999999999998224, 3.000000000000000000, 1.732050807569051054 ) ) ;
#605 = ADVANCED_FACE ( 'NONE', ( #392 ), #801, .F. ) ;
#606 = EDGE_CURVE ( 'NONE', #414, #841, #805, .T. ) ;
#607 = LINE ( 'NONE', #706, #952 ) ;
#608 = DIRECTION ( 'NONE',  ( -0.8660254037844440367, 0.000000000000000000, 0.4999999999999904521 ) ) ;
#609 = DIRECTION ( 'NONE',  ( -1.047444401652940007E-14, 0.000000000000000000, 1.000000000000000000 ) ) ;
#610 = PLANE ( 'NONE',  #551 ) ;
#611 = EDGE_CURVE ( 'NONE', #1154, #754, #75, .T. ) ;
#612 = CARTESIAN_POINT ( 'NONE',  ( 1.732050807568872974, 3.000000000000000000, -17.00000000000000000 ) ) ;
#613 = CARTESIAN_POINT ( 'NONE',  ( -3.464101615137749501, 3.000000000000000000, 20.00000000000000000 ) ) ;
#614 = VECTOR ( 'NONE', #1136, 1000.000000000000000 ) ;
#615 = CARTESIAN_POINT ( 'NONE',  ( 0.000000000000000000, 10.00000000000000000, 0.000000000000000000 ) ) ;
#616 = AXIS2_PLACEMENT_3D ( 'NONE', #29, #341, #257 ) ;
#617 = CARTESIAN_POINT ( 'NONE',  ( 22.99999999999997513, 3.000000000000000000, 1.732050807569117445 ) ) ;
#618 = DIRECTION ( 'NONE',  ( 0.000000000000000000, 1.000000000000000000, 0.000000000000000000 ) ) ;
#619 = CARTESIAN_POINT ( 'NONE',  ( -19.99999999999998934, 0.000000000000000000, -3.464101615137819223 ) ) ;
#620 = EDGE_CURVE ( 'NONE', #894, #1142, #997, .T. ) ;
#621 = CARTESIAN_POINT ( 'NONE',  ( 0.000000000000000000, 10.00000000000000000, -18.30000000000000071 ) ) ;
#622 = ORIENTED_EDGE ( 'NONE', *, *, #471, .F. ) ;
#623 = CARTESIAN_POINT ( 'NONE',  ( 23.00000000000001066, 0.000000000000000000, -1.732050807568639827 ) ) ;
#624 = DIRECTION ( 'NONE',  ( 0.8660254037844387076, 0.000000000000000000, -0.5000000000000001110 ) ) ;
#625 = EDGE_LOOP ( 'NONE', ( #354, #440 ) ) ;
#626 = EDGE_LOOP ( 'NONE', ( #828, #1000, #1274, #845 ) ) ;
#627 = EDGE_CURVE ( 'NONE', #818, #1269, #1199, .T. ) ;
#628 = CARTESIAN_POINT ( 'NONE',  ( 19.99999999999996447, 0.000000000000000000, 3.464101615137959111 ) ) ;
#629 = VERTEX_POINT ( 'NONE', #1226 ) ;
#630 = ORIENTED_EDGE ( 'NONE', *, *, #423, .T. ) ;
#631 = DIRECTION ( 'NONE',  ( 0.000000000000000000, 0.000000000000000000, 1.000000000000000000 ) ) ;
#632 = CIRCLE ( 'NONE', #1110, 1.700000000000000844 ) ;
#633 = PRESENTATION_STYLE_ASSIGNMENT (( #200 ) ) ;
#634 = VECTOR ( 'NONE', #1222, 1000.000000000000000 ) ;
#635 = VECTOR ( 'NONE', #837, 1000.000000000000000 ) ;
#636 = PRODUCT_DEFINITION_FORMATION_WITH_SPECIFIED_SOURCE ( 'ANY', '', #998, .NOT_KNOWN. ) ;
#637 = EDGE_CURVE ( 'NONE', #1293, #1269, #1125, .T. ) ;
#638 = VERTEX_POINT ( 'NONE', #209 ) ;
#639 = DIRECTION ( 'NONE',  ( 0.000000000000000000, -1.000000000000000000, 0.000000000000000000 ) ) ;
#640 = EDGE_CURVE ( 'NONE', #335, #643, #467, .T. ) ;
#641 = FACE_OUTER_BOUND ( 'NONE', #1302, .T. ) ;
#642 = ORIENTED_EDGE ( 'NONE', *, *, #1074, .T. ) ;
#643 = VERTEX_POINT ( 'NONE', #1321 ) ;
#644 = DIRECTION ( 'NONE',  ( -1.000000000000000000, 0.000000000000000000, -3.491481338843137300E-15 ) ) ;
#645 = PLANE ( 'NONE',  #527 ) ;
#646 = EDGE_CURVE ( 'NONE', #655, #1284, #1028, .T. ) ;
#647 = ORIENTED_EDGE ( 'NONE', *, *, #519, .F. ) ;
#648 = DIRECTION ( 'NONE',  ( -0.000000000000000000, 1.000000000000000000, -0.000000000000000000 ) ) ;
#649 = ORIENTED_EDGE ( 'NONE', *, *, #167, .F. ) ;
#650 = CARTESIAN_POINT ( 'NONE',  ( 0.000000000000000000, 10.00000000000000000, -15.00000000000000000 ) ) ;
#651 = LINE ( 'NONE', #753, #578 ) ;
#652 = ORIENTED_EDGE ( 'NONE', *, *, #1176, .F. ) ;
#653 = EDGE_CURVE ( 'NONE', #937, #552, #402, .T. ) ;
#654 = CARTESIAN_POINT ( 'NONE',  ( 22.99999999999997513, 0.000000000000000000, 1.732050807569117445 ) ) ;
#655 = VERTEX_POINT ( 'NONE', #816 ) ;
#656 = AXIS2_PLACEMENT_3D ( 'NONE', #1024, #826, #108 ) ;
#657 = CARTESIAN_POINT ( 'NONE',  ( 1.732050807568876527, 3.000000000000000000, -22.99999999999999289 ) ) ;
#658 = CIRCLE ( 'NONE', #1149, 30.00000000000000000 ) ;
#659 = EDGE_LOOP ( 'NONE', ( #225, #70 ) ) ;
#660 = ORIENTED_EDGE ( 'NONE', *, *, #646, .T. ) ;
#661 = AXIS2_PLACEMENT_3D ( 'NONE', #381, #792, #1203 ) ;
#662 = CARTESIAN_POINT ( 'NONE',  ( -23.00000000000000000, 0.000000000000000000, 1.732050807568800366 ) ) ;
#663 = LINE ( 'NONE', #959, #982 ) ;
#664 = ORIENTED_EDGE ( 'NONE', *, *, #1111, .T. ) ;
#665 = CARTESIAN_POINT ( 'NONE',  ( -17.00000000000000711, 0.000000000000000000, 1.732050807568818795 ) ) ;
#666 = CARTESIAN_POINT ( 'NONE',  ( 0.000000000000000000, 10.00000000000000000, -20.00000000000000000 ) ) ;
#667 = EDGE_CURVE ( 'NONE', #956, #414, #720, .T. ) ;
#668 = DIRECTION ( 'NONE',  ( 0.000000000000000000, 0.000000000000000000, 1.000000000000000000 ) ) ;
#669 = ORIENTED_EDGE ( 'NONE', *, *, #1086, .T. ) ;
#670 = CARTESIAN_POINT ( 'NONE',  ( -1.732050807568878303, 3.000000000000000000, -17.00000000000000000 ) ) ;
#671 = ORIENTED_EDGE ( 'NONE', *, *, #965, .T. ) ;
#672 = FACE_OUTER_BOUND ( 'NONE', #111, .T. ) ;
#673 = VERTEX_POINT ( 'NONE', #411 ) ;
#674 = LINE ( 'NONE', #165, #382 ) ;
#675 = ORIENTED_EDGE ( 'NONE', *, *, #1098, .T. ) ;
#676 = ADVANCED_FACE ( 'NONE', ( #1243 ), #9, .F. ) ;
#677 = CARTESIAN_POINT ( 'NONE',  ( 0.000000000000000000, 10.00000000000000000, 0.000000000000000000 ) ) ;
#678 =( NAMED_UNIT ( * ) SI_UNIT ( $, .STERADIAN. ) SOLID_ANGLE_UNIT ( ) );
#679 = CARTESIAN_POINT ( 'NONE',  ( 20.00000000000000000, 0.000000000000000000, 2.094888803305880013E-13 ) ) ;
#680 = VERTEX_POINT ( 'NONE', #821 ) ;
#681 = DIRECTION ( 'NONE',  ( 0.000000000000000000, -0.000000000000000000, 1.000000000000000000 ) ) ;
#682 = ORIENTED_EDGE ( 'NONE', *, *, #429, .F. ) ;
#683 = CARTESIAN_POINT ( 'NONE',  ( 1.732050807568880746, 3.000000000000000000, 22.99999999999999289 ) ) ;
#684 = AXIS2_PLACEMENT_3D ( 'NONE', #87, #370, #608 ) ;
#685 = ORIENTED_EDGE ( 'NONE', *, *, #159, .F. ) ;
#686 = MANIFOLD_SOLID_BREP ( 'CirPattern1', #189 ) ;
#687 = DIRECTION ( 'NONE',  ( -0.4999999999999970024, 0.000000000000000000, -0.8660254037844403729 ) ) ;
#688 = VECTOR ( 'NONE', #286, 1000.000000000000000 ) ;
#689 = FACE_BOUND ( 'NONE', #20, .T. ) ;
#690 = EDGE_CURVE ( 'NONE', #1187, #561, #298, .T. ) ;
#691 = ORIENTED_EDGE ( 'NONE', *, *, #77, .F. ) ;
#692 = CARTESIAN_POINT ( 'NONE',  ( 19.99999999999996447, 3.000000000000000000, 3.464101615137959111 ) ) ;
#693 = VERTEX_POINT ( 'NONE', #812 ) ;
#694 = DIRECTION ( 'NONE',  ( -0.8660254037844403729, 0.000000000000000000, 0.4999999999999970024 ) ) ;
#695 = FACE_BOUND ( 'NONE', #728, .T. ) ;
#696 = EDGE_CURVE ( 'NONE', #937, #693, #315, .T. ) ;
#697 = DIRECTION ( 'NONE',  ( -0.5000000000000089928, 0.000000000000000000, 0.8660254037844334896 ) ) ;
#698 = CARTESIAN_POINT ( 'NONE',  ( 3.464101615137749501, 3.000000000000000000, -20.00000000000000000 ) ) ;
#699 = DIRECTION ( 'NONE',  ( 1.000000000000000000, -0.000000000000000000, 1.047444401652939849E-14 ) ) ;
#700 = CARTESIAN_POINT ( 'NONE',  ( 0.000000000000000000, 10.00000000000000000, 0.000000000000000000 ) ) ;
#701 = DIRECTION ( 'NONE',  ( -0.000000000000000000, 1.000000000000000000, 0.000000000000000000 ) ) ;
#702 = LINE ( 'NONE', #201, #870 ) ;
#703 = EDGE_CURVE ( 'NONE', #1293, #797, #1305, .T. ) ;
#704 = AXIS2_PLACEMENT_3D ( 'NONE', #849, #774, #270 ) ;
#705 = AXIS2_PLACEMENT_3D ( 'NONE', #94, #697, #595 ) ;
#706 = CARTESIAN_POINT ( 'NONE',  ( 1.732050807568876527, 3.000000000000000000, -22.99999999999999289 ) ) ;
#707 = VECTOR ( 'NONE', #112, 1000.000000000000000 ) ;
#708 = LINE ( 'NONE', #82, #846 ) ;
#709 = LINE ( 'NONE', #612, #718 ) ;
#710 = ADVANCED_FACE ( 'NONE', ( #320 ), #1121, .F. ) ;
#711 = FACE_OUTER_BOUND ( 'NONE', #1189, .T. ) ;
#712 = DIRECTION ( 'NONE',  ( 0.000000000000000000, 0.000000000000000000, 1.000000000000000000 ) ) ;
#713 = CARTESIAN_POINT ( 'NONE',  ( 1.732050807568880746, 0.000000000000000000, 22.99999999999999289 ) ) ;
#714 = DIRECTION ( 'NONE',  ( 0.000000000000000000, 0.000000000000000000, 1.000000000000000000 ) ) ;
#715 = CARTESIAN_POINT ( 'NONE',  ( 20.00000000000003553, 3.000000000000000000, -3.464101615137543444 ) ) ;
#716 = DIRECTION ( 'NONE',  ( -0.000000000000000000, -1.000000000000000000, -0.000000000000000000 ) ) ;
#717 = FACE_OUTER_BOUND ( 'NONE', #763, .T. ) ;
#718 = VECTOR ( 'NONE', #204, 1000.000000000000000 ) ;
#719 = AXIS2_PLACEMENT_3D ( 'NONE', #119, #624, #5 ) ;
#720 = LINE ( 'NONE', #113, #825 ) ;
#721 = EDGE_CURVE ( 'NONE', #868, #49, #1033, .T. ) ;
#722 = AXIS2_PLACEMENT_3D ( 'NONE', #1248, #942, #333 ) ;
#723 = ORIENTED_EDGE ( 'NONE', *, *, #571, .T. ) ;
#724 = DIRECTION ( 'NONE',  ( 0.000000000000000000, 1.000000000000000000, 0.000000000000000000 ) ) ;
#725 = ORIENTED_EDGE ( 'NONE', *, *, #696, .F. ) ;
#726 = CARTESIAN_POINT ( 'NONE',  ( 17.00000000000001776, 0.000000000000000000, -1.732050807568700224 ) ) ;
#727 = SURFACE_STYLE_FILL_AREA ( #1237 ) ;
#728 = EDGE_LOOP ( 'NONE', ( #1029, #518 ) ) ;
#729 = EDGE_CURVE ( 'NONE', #933, #366, #651, .T. ) ;
#730 = LINE ( 'NONE', #313, #503 ) ;
#731 = ORIENTED_EDGE ( 'NONE', *, *, #1013, .F. ) ;
#732 = CARTESIAN_POINT ( 'NONE',  ( 0.000000000000000000, 0.000000000000000000, 20.00000000000000000 ) ) ;
#733 = SURFACE_SIDE_STYLE ('',( #727 ) ) ;
#734 = EDGE_LOOP ( 'NONE', ( #652, #3, #78, #1292 ) ) ;
#735 = ORIENTED_EDGE ( 'NONE', *, *, #620, .F. ) ;
#736 = CARTESIAN_POINT ( 'NONE',  ( 0.000000000000000000, 3.000000000000000000, -20.00000000000000000 ) ) ;
#737 = ADVANCED_FACE ( 'NONE', ( #641 ), #1046, .F. ) ;
#738 = VERTEX_POINT ( 'NONE', #564 ) ;
#739 = FACE_BOUND ( 'NONE', #138, .T. ) ;
#740 = VECTOR ( 'NONE', #40, 1000.000000000000227 ) ;
#741 = DIRECTION ( 'NONE',  ( -0.4999999999999995559, 0.000000000000000000, -0.8660254037844389297 ) ) ;
#742 = VECTOR ( 'NONE', #1233, 1000.000000000000000 ) ;
#743 = ORIENTED_EDGE ( 'NONE', *, *, #1074, .F. ) ;
#744 = AXIS2_PLACEMENT_3D ( 'NONE', #1103, #878, #799 ) ;
#745 = ORIENTED_EDGE ( 'NONE', *, *, #909, .T. ) ;
#746 = EDGE_CURVE ( 'NONE', #573, #655, #334, .T. ) ;
#747 = CARTESIAN_POINT ( 'NONE',  ( -23.00000000000000000, 0.000000000000000000, 1.732050807568800366 ) ) ;
#748 = DIRECTION ( 'NONE',  ( 0.000000000000000000, 1.000000000000000000, 0.000000000000000000 ) ) ;
#749 = ORIENTED_EDGE ( 'NONE', *, *, #1098, .F. ) ;
#750 = CARTESIAN_POINT ( 'NONE',  ( 20.00000000000000000, 3.000000000000000000, -1.699999999999791234 ) ) ;
#751 = ORIENTED_EDGE ( 'NONE', *, *, #1245, .F. ) ;
#752 = DIRECTION ( 'NONE',  ( 0.000000000000000000, 0.000000000000000000, 1.000000000000000000 ) ) ;
#753 = CARTESIAN_POINT ( 'NONE',  ( 0.000000000000000000, 0.000000000000000000, 21.69999999999999929 ) ) ;
#754 = VERTEX_POINT ( 'NONE', #52 ) ;
#755 = EDGE_LOOP ( 'NONE', ( #1081, #154, #1175, #515 ) ) ;
#756 = ORIENTED_EDGE ( 'NONE', *, *, #180, .T. ) ;
#757 = DIRECTION ( 'NONE',  ( 3.491481338843133355E-15, 0.000000000000000000, -1.000000000000000000 ) ) ;
#758 = DIRECTION ( 'NONE',  ( -1.000000000000000000, 0.000000000000000000, -0.000000000000000000 ) ) ;
#759 = ORIENTED_EDGE ( 'NONE', *, *, #627, .T. ) ;
#760 = ADVANCED_FACE ( 'NONE', ( #43 ), #145, .F. ) ;
#761 = DIRECTION ( 'NONE',  ( 0.000000000000000000, 0.000000000000000000, -1.000000000000000000 ) ) ;
#762 = VECTOR ( 'NONE', #991, 1000.000000000000000 ) ;
#763 = EDGE_LOOP ( 'NONE', ( #1095, #955, #898, #847, #669, #1034 ) ) ;
#764 = VECTOR ( 'NONE', #701, 1000.000000000000000 ) ;
#765 = VECTOR ( 'NONE', #430, 1000.000000000000114 ) ;
#766 = ORIENTED_EDGE ( 'NONE', *, *, #1019, .T. ) ;
#767 = AXIS2_PLACEMENT_3D ( 'NONE', #1085, #699, #389 ) ;
#768 = FACE_OUTER_BOUND ( 'NONE', #282, .T. ) ;
#769 = DIRECTION ( 'NONE',  ( -0.000000000000000000, 1.000000000000000000, 0.000000000000000000 ) ) ;
#770 = ORIENTED_EDGE ( 'NONE', *, *, #606, .F. ) ;
#771 = DIRECTION ( 'NONE',  ( -0.4999999999999999445, 0.000000000000000000, 0.8660254037844387076 ) ) ;
#772 = EDGE_CURVE ( 'NONE', #841, #839, #1170, .T. ) ;
#773 = DIRECTION ( 'NONE',  ( 0.000000000000000000, 1.000000000000000000, 0.000000000000000000 ) ) ;
#774 = DIRECTION ( 'NONE',  ( 0.000000000000000000, -1.000000000000000000, 0.000000000000000000 ) ) ;
#775 = ORIENTED_EDGE ( 'NONE', *, *, #883, .F. ) ;
#776 = CARTESIAN_POINT ( 'NONE',  ( -1.732050807568876527, 3.000000000000000000, 22.99999999999999289 ) ) ;
#777 = PLANE ( 'NONE',  #403 ) ;
#778 = ORIENTED_EDGE ( 'NONE', *, *, #989, .F. ) ;
#779 = CARTESIAN_POINT ( 'NONE',  ( 16.99999999999998224, 0.000000000000000000, 1.732050807569051054 ) ) ;
#780 = ORIENTED_EDGE ( 'NONE', *, *, #909, .F. ) ;
#781 = CARTESIAN_POINT ( 'NONE',  ( 0.000000000000000000, 0.000000000000000000, -30.00000000000000000 ) ) ;
#782 = ORIENTED_EDGE ( 'NONE', *, *, #126, .F. ) ;
#783 = ORIENTED_EDGE ( 'NONE', *, *, #880, .F. ) ;
#784 = ADVANCED_FACE ( 'NONE', ( #1263 ), #431, .F. ) ;
#785 = DIRECTION ( 'NONE',  ( 0.4999999999999999445, 0.000000000000000000, -0.8660254037844387076 ) ) ;
#786 = CARTESIAN_POINT ( 'NONE',  ( -1.732050807568872974, 3.000000000000000000, 17.00000000000000000 ) ) ;
#787 = ORIENTED_EDGE ( 'NONE', *, *, #494, .F. ) ;
#788 = DIRECTION ( 'NONE',  ( 0.5000000000000001110, 0.000000000000000000, 0.8660254037844385966 ) ) ;
#789 = ORIENTED_EDGE ( 'NONE', *, *, #1309, .T. ) ;
#790 = VECTOR ( 'NONE', #910, 1000.000000000000227 ) ;
#791 = PRESENTATION_LAYER_ASSIGNMENT (  '', '', ( #36 ) ) ;
#792 = DIRECTION ( 'NONE',  ( 0.000000000000000000, 0.000000000000000000, 1.000000000000000000 ) ) ;
#793 = EDGE_CURVE ( 'NONE', #513, #966, #1060, .T. ) ;
#794 = FACE_BOUND ( 'NONE', #1278, .T. ) ;
#795 = EDGE_LOOP ( 'NONE', ( #244, #787, #1065, #321 ) ) ;
#796 = LINE ( 'NONE', #387, #1021 ) ;
#797 = VERTEX_POINT ( 'NONE', #1157 ) ;
#798 = LINE ( 'NONE', #587, #984 ) ;
#799 = DIRECTION ( 'NONE',  ( 0.000000000000000000, 0.000000000000000000, 1.000000000000000000 ) ) ;
#800 = EDGE_CURVE ( 'NONE', #1142, #529, #23, .T. ) ;
#801 = PLANE ( 'NONE',  #293 ) ;
#802 = CARTESIAN_POINT ( 'NONE',  ( -1.732050807568876527, 0.000000000000000000, 22.99999999999999289 ) ) ;
#803 = VERTEX_POINT ( 'NONE', #1277 ) ;
#804 = DIRECTION ( 'NONE',  ( 0.4999999999999998890, 0.000000000000000000, -0.8660254037844385966 ) ) ;
#805 = LINE ( 'NONE', #1214, #504 ) ;
#806 = CARTESIAN_POINT ( 'NONE',  ( -22.99999999999998579, 3.000000000000000000, -1.732050807568956685 ) ) ;
#807 = EDGE_CURVE ( 'NONE', #1101, #738, #427, .T. ) ;
#808 = VECTOR ( 'NONE', #192, 1000.000000000000000 ) ;
#809 = VECTOR ( 'NONE', #566, 1000.000000000000000 ) ;
#810 = CARTESIAN_POINT ( 'NONE',  ( -1.732050807568878303, 0.000000000000000000, -17.00000000000000000 ) ) ;
#811 = VECTOR ( 'NONE', #1107, 1000.000000000000000 ) ;
#812 = CARTESIAN_POINT ( 'NONE',  ( 23.00000000000001066, 3.000000000000000000, -1.732050807568639827 ) ) ;
#813 = DIRECTION ( 'NONE',  ( -0.000000000000000000, 1.000000000000000000, -0.000000000000000000 ) ) ;
#814 = ORIENTED_EDGE ( 'NONE', *, *, #1007, .F. ) ;
#815 = FACE_BOUND ( 'NONE', #316, .T. ) ;
#816 = CARTESIAN_POINT ( 'NONE',  ( -19.99999999999998934, 0.000000000000000000, -3.464101615137819223 ) ) ;
#817 = CARTESIAN_POINT ( 'NONE',  ( -20.00000000000001066, 0.000000000000000000, 3.464101615137685553 ) ) ;
#818 = VERTEX_POINT ( 'NONE', #359 ) ;
#819 = EDGE_CURVE ( 'NONE', #271, #513, #858, .T. ) ;
#820 = FACE_OUTER_BOUND ( 'NONE', #1084, .T. ) ;
#821 = CARTESIAN_POINT ( 'NONE',  ( -3.464101615137749501, 0.000000000000000000, 20.00000000000000000 ) ) ;
#822 = DIRECTION ( 'NONE',  ( 0.000000000000000000, 0.000000000000000000, 1.000000000000000000 ) ) ;
#823 = AXIS2_PLACEMENT_3D ( 'NONE', #12, #216, #1145 ) ;
#824 = EDGE_CURVE ( 'NONE', #1196, #945, #1179, .T. ) ;
#825 = VECTOR ( 'NONE', #931, 1000.000000000000000 ) ;
#826 = DIRECTION ( 'NONE',  ( -0.000000000000000000, 1.000000000000000000, -0.000000000000000000 ) ) ;
#827 = VECTOR ( 'NONE', #107, 1000.000000000000000 ) ;
#828 = ORIENTED_EDGE ( 'NONE', *, *, #819, .F. ) ;
#829 = CARTESIAN_POINT ( 'NONE',  ( 3.464101615137753054, 3.000000000000000000, 20.00000000000000000 ) ) ;
#830 = DIRECTION ( 'NONE',  ( 0.4999999999999998890, 0.000000000000000000, -0.8660254037844385966 ) ) ;
#831 = EDGE_CURVE ( 'NONE', #966, #513, #171, .T. ) ;
#832 = DIRECTION ( 'NONE',  ( -0.000000000000000000, -1.000000000000000000, -0.000000000000000000 ) ) ;
#833 = ADVANCED_FACE ( 'NONE', ( #1249 ), #645, .F. ) ;
#834 = LINE ( 'NONE', #1239, #1255 ) ;
#835 = LINE ( 'NONE', #324, #399 ) ;
#836 = ORIENTED_EDGE ( 'NONE', *, *, #263, .T. ) ;
#837 = DIRECTION ( 'NONE',  ( -0.000000000000000000, -1.000000000000000000, -0.000000000000000000 ) ) ;
#838 = CARTESIAN_POINT ( 'NONE',  ( 3.464101615137753054, 3.000000000000000000, 20.00000000000000000 ) ) ;
#839 = VERTEX_POINT ( 'NONE', #948 ) ;
#840 = EDGE_CURVE ( 'NONE', #803, #243, #663, .T. ) ;
#841 = VERTEX_POINT ( 'NONE', #838 ) ;
#842 = EDGE_LOOP ( 'NONE', ( #569, #1047, #230, #39 ) ) ;
#843 = LINE ( 'NONE', #339, #932 ) ;
#844 = CARTESIAN_POINT ( 'NONE',  ( 1.732050807568878303, 3.000000000000000000, 17.00000000000000000 ) ) ;
#845 = ORIENTED_EDGE ( 'NONE', *, *, #831, .T. ) ;
#846 = VECTOR ( 'NONE', #496, 1000.000000000000000 ) ;
#847 = ORIENTED_EDGE ( 'NONE', *, *, #824, .T. ) ;
#848 = AXIS2_PLACEMENT_3D ( 'NONE', #1123, #213, #1032 ) ;
#849 = CARTESIAN_POINT ( 'NONE',  ( 0.000000000000000000, 3.000000000000000000, 0.000000000000000000 ) ) ;
#850 = ORIENTED_EDGE ( 'NONE', *, *, #500, .F. ) ;
#851 = CARTESIAN_POINT ( 'NONE',  ( -19.99999999999998934, 3.000000000000000000, -3.464101615137819223 ) ) ;
#852 = FACE_OUTER_BOUND ( 'NONE', #542, .T. ) ;
#853 = ORIENTED_EDGE ( 'NONE', *, *, #186, .F. ) ;
#854 = FACE_OUTER_BOUND ( 'NONE', #234, .T. ) ;
#855 = ORIENTED_EDGE ( 'NONE', *, *, #729, .T. ) ;
#856 = CARTESIAN_POINT ( 'NONE',  ( 1.732050807568878303, 0.000000000000000000, 17.00000000000000000 ) ) ;
#857 = ADVANCED_FACE ( 'NONE', ( #1268, #347, #38, #439, #852, #695 ), #280, .T. ) ;
#858 = LINE ( 'NONE', #1257, #358 ) ;
#859 = ORIENTED_EDGE ( 'NONE', *, *, #637, .F. ) ;
#860 = DIRECTION ( 'NONE',  ( -0.8660254037844405950, 0.000000000000000000, 0.4999999999999965028 ) ) ;
#861 = ORIENTED_EDGE ( 'NONE', *, *, #989, .T. ) ;
#862 = DIRECTION ( 'NONE',  ( -0.8660254037844369313, 0.000000000000000000, -0.5000000000000029976 ) ) ;
#863 = ORIENTED_EDGE ( 'NONE', *, *, #1007, .T. ) ;
#864 = ORIENTED_EDGE ( 'NONE', *, *, #395, .F. ) ;
#865 = CARTESIAN_POINT ( 'NONE',  ( -20.00000000000000000, 10.00000000000000000, -6.982962677686266711E-14 ) ) ;
#866 = CARTESIAN_POINT ( 'NONE',  ( 20.00000000000000000, 10.00000000000000000, 2.094888803305880013E-13 ) ) ;
#867 = ADVANCED_FACE ( 'NONE', ( #178 ), #265, .F. ) ;
#868 = VERTEX_POINT ( 'NONE', #581 ) ;
#869 = LINE ( 'NONE', #155, #809 ) ;
#870 = VECTOR ( 'NONE', #903, 999.9999999999998863 ) ;
#871 = EDGE_LOOP ( 'NONE', ( #137, #65, #725, #539 ) ) ;
#872 = AXIS2_PLACEMENT_3D ( 'NONE', #881, #902, #1311 ) ;
#873 = AXIS2_PLACEMENT_3D ( 'NONE', #346, #1049, #752 ) ;
#874 = ORIENTED_EDGE ( 'NONE', *, *, #1156, .T. ) ;
#875 = EDGE_LOOP ( 'NONE', ( #442, #485 ) ) ;
#876 = CARTESIAN_POINT ( 'NONE',  ( -20.00000000000000000, 0.000000000000000000, -6.982962677686266711E-14 ) ) ;
#877 = PLANE ( 'NONE',  #767 ) ;
#878 = DIRECTION ( 'NONE',  ( -0.000000000000000000, 1.000000000000000000, -0.000000000000000000 ) ) ;
#879 = EDGE_LOOP ( 'NONE', ( #114, #985, #1158, #671 ) ) ;
#880 = EDGE_CURVE ( 'NONE', #535, #524, #1097, .T. ) ;
#881 = CARTESIAN_POINT ( 'NONE',  ( 0.000000000000000000, 10.00000000000000000, 0.000000000000000000 ) ) ;
#882 = ORIENTED_EDGE ( 'NONE', *, *, #226, .T. ) ;
#883 = EDGE_CURVE ( 'NONE', #738, #258, #1310, .T. ) ;
#884 = PLANE ( 'NONE',  #1058 ) ;
#885 = ORIENTED_EDGE ( 'NONE', *, *, #494, .T. ) ;
#886 = ORIENTED_EDGE ( 'NONE', *, *, #1250, .F. ) ;
#887 = CARTESIAN_POINT ( 'NONE',  ( -16.99999999999999289, 0.000000000000000000, -1.732050807568932482 ) ) ;
#888 = CARTESIAN_POINT ( 'NONE',  ( -1.732050807568872974, 0.000000000000000000, 17.00000000000000000 ) ) ;
#889 = VERTEX_POINT ( 'NONE', #188 ) ;
#890 = CARTESIAN_POINT ( 'NONE',  ( -20.00000000000000000, 10.00000000000000000, -1.700000000000070566 ) ) ;
#891 = FACE_OUTER_BOUND ( 'NONE', #1160, .T. ) ;
#892 = ADVANCED_FACE ( 'NONE', ( #482 ), #384, .F. ) ;
#893 = CARTESIAN_POINT ( 'NONE',  ( 0.000000000000000000, 0.000000000000000000, 0.000000000000000000 ) ) ;
#894 = VERTEX_POINT ( 'NONE', #888 ) ;
#895 = CARTESIAN_POINT ( 'NONE',  ( -1.732050807568872974, 0.000000000000000000, 17.00000000000000000 ) ) ;
#896 = ORIENTED_EDGE ( 'NONE', *, *, #1314, .T. ) ;
#897 = CIRCLE ( 'NONE', #32, 1.700000000000000178 ) ;
#898 = ORIENTED_EDGE ( 'NONE', *, *, #238, .T. ) ;
#899 = DIRECTION ( 'NONE',  ( -0.8660254037844438146, 0.000000000000000000, 0.4999999999999910072 ) ) ;
#900 = CIRCLE ( 'NONE', #1326, 1.700000000000000844 ) ;
#901 = DIRECTION ( 'NONE',  ( 0.000000000000000000, 0.000000000000000000, -1.000000000000000000 ) ) ;
#902 = DIRECTION ( 'NONE',  ( -0.000000000000000000, -1.000000000000000000, -0.000000000000000000 ) ) ;
#903 = DIRECTION ( 'NONE',  ( 0.8660254037844403729, 0.000000000000000000, -0.4999999999999970579 ) ) ;
#904 = FACE_BOUND ( 'NONE', #240, .T. ) ;
#905 = ADVANCED_FACE ( 'NONE', ( #987, #689, #794, #601, #394, #904 ), #777, .F. ) ;
#906 = LINE ( 'NONE', #181, #122 ) ;
#907 = CARTESIAN_POINT ( 'NONE',  ( -3.464101615137753054, 0.000000000000000000, -20.00000000000000000 ) ) ;
#908 = CARTESIAN_POINT ( 'NONE',  ( -1.732050807568880746, 3.000000000000000000, -22.99999999999999289 ) ) ;
#909 = EDGE_CURVE ( 'NONE', #414, #1142, #572, .T. ) ;
#910 = DIRECTION ( 'NONE',  ( -0.4999999999999998890, 0.000000000000000000, 0.8660254037844385966 ) ) ;
#911 = AXIS2_PLACEMENT_3D ( 'NONE', #876, #34, #1285 ) ;
#912 = AXIS2_PLACEMENT_3D ( 'NONE', #844, #537, #1059 ) ;
#913 = VECTOR ( 'NONE', #377, 1000.000000000000000 ) ;
#914 = LINE ( 'NONE', #314, #707 ) ;
#915 = DIRECTION ( 'NONE',  ( 0.000000000000000000, 1.000000000000000000, 0.000000000000000000 ) ) ;
#916 = DIRECTION ( 'NONE',  ( -0.4999999999999998890, 0.000000000000000000, 0.8660254037844385966 ) ) ;
#917 = ADVANCED_FACE ( 'NONE', ( #93 ), #1313, .F. ) ;
#918 = EDGE_LOOP ( 'NONE', ( #133, #789, #1234, #262, #459, #1177 ) ) ;
#919 = DIRECTION ( 'NONE',  ( -0.000000000000000000, -1.000000000000000000, -0.000000000000000000 ) ) ;
#920 = DIRECTION ( 'NONE',  ( 0.000000000000000000, 0.000000000000000000, -1.000000000000000000 ) ) ;
#921 = EDGE_CURVE ( 'NONE', #680, #894, #1287, .T. ) ;
#922 = ORIENTED_EDGE ( 'NONE', *, *, #1119, .T. ) ;
#923 = DIRECTION ( 'NONE',  ( 0.000000000000000000, 0.000000000000000000, 1.000000000000000000 ) ) ;
#924 = DIRECTION ( 'NONE',  ( 0.000000000000000000, 0.000000000000000000, 1.000000000000000000 ) ) ;
#925 = ORIENTED_EDGE ( 'NONE', *, *, #824, .F. ) ;
#926 = DIRECTION ( 'NONE',  ( 0.4999999999999998335, 0.000000000000000000, -0.8660254037844387076 ) ) ;
#927 = CARTESIAN_POINT ( 'NONE',  ( 0.000000000000000000, 3.000000000000000000, 20.00000000000000000 ) ) ;
#928 = VECTOR ( 'NONE', #916, 1000.000000000000227 ) ;
#929 = EDGE_CURVE ( 'NONE', #1153, #993, #1078, .T. ) ;
#930 = AXIS2_PLACEMENT_3D ( 'NONE', #615, #915, #924 ) ;
#931 = DIRECTION ( 'NONE',  ( 1.000000000000000000, 0.000000000000000000, 0.000000000000000000 ) ) ;
#932 = VECTOR ( 'NONE', #42, 1000.000000000000000 ) ;
#933 = VERTEX_POINT ( 'NONE', #1204 ) ;
#934 = DIRECTION ( 'NONE',  ( 3.491481338843133355E-15, 0.000000000000000000, -1.000000000000000000 ) ) ;
#935 = FACE_OUTER_BOUND ( 'NONE', #428, .T. ) ;
#936 = EDGE_LOOP ( 'NONE', ( #558, #1137, #749, #1055, #565, #164 ) ) ;
#937 = VERTEX_POINT ( 'NONE', #1213 ) ;
#938 = LINE ( 'NONE', #851, #765 ) ;
#939 = DIRECTION ( 'NONE',  ( -0.000000000000000000, -1.000000000000000000, -0.000000000000000000 ) ) ;
#940 = EDGE_CURVE ( 'NONE', #271, #582, #193, .T. ) ;
#941 = ORIENTED_EDGE ( 'NONE', *, *, #547, .F. ) ;
#942 = DIRECTION ( 'NONE',  ( 0.4999999999999910072, -0.000000000000000000, 0.8660254037844439257 ) ) ;
#943 = CARTESIAN_POINT ( 'NONE',  ( -1.732050807568872974, 3.000000000000000000, 17.00000000000000000 ) ) ;
#944 = ORIENTED_EDGE ( 'NONE', *, *, #364, .F. ) ;
#945 = VERTEX_POINT ( 'NONE', #1209 ) ;
#946 = DIRECTION ( 'NONE',  ( 0.4999999999999995559, 0.000000000000000000, 0.8660254037844388186 ) ) ;
#947 = VECTOR ( 'NONE', #1227, 1000.000000000000114 ) ;
#948 = CARTESIAN_POINT ( 'NONE',  ( 1.732050807568880746, 3.000000000000000000, 22.99999999999999289 ) ) ;
#949 = ORIENTED_EDGE ( 'NONE', *, *, #1300, .F. ) ;
#950 = AXIS2_PLACEMENT_3D ( 'NONE', #1246, #54, #771 ) ;
#951 = VERTEX_POINT ( 'NONE', #469 ) ;
#952 = VECTOR ( 'NONE', #1320, 1000.000000000000000 ) ;
#953 = VECTOR ( 'NONE', #272, 1000.000000000000000 ) ;
#954 = ADVANCED_FACE ( 'NONE', ( #161 ), #1186, .F. ) ;
#955 = ORIENTED_EDGE ( 'NONE', *, *, #772, .T. ) ;
#956 = VERTEX_POINT ( 'NONE', #786 ) ;
#957 = DIRECTION ( 'NONE',  ( -0.000000000000000000, -1.000000000000000000, -0.000000000000000000 ) ) ;
#958 = ADVANCED_BREP_SHAPE_REPRESENTATION ( 'ButtomLid 2', ( #686, #661 ), #1114 ) ;
#959 = CARTESIAN_POINT ( 'NONE',  ( -17.00000000000000711, 3.000000000000000000, 1.732050807568818795 ) ) ;
#960 = ORIENTED_EDGE ( 'NONE', *, *, #1183, .F. ) ;
#961 = FACE_OUTER_BOUND ( 'NONE', #388, .T. ) ;
#962 = ORIENTED_EDGE ( 'NONE', *, *, #1238, .T. ) ;
#963 = CARTESIAN_POINT ( 'NONE',  ( -17.00000000000000711, 0.000000000000000000, 1.732050807568818795 ) ) ;
#964 = ORIENTED_EDGE ( 'NONE', *, *, #965, .F. ) ;
#965 = EDGE_CURVE ( 'NONE', #1165, #57, #1195, .T. ) ;
#966 = VERTEX_POINT ( 'NONE', #101 ) ;
#967 = CARTESIAN_POINT ( 'NONE',  ( -1.732050807568880746, 3.000000000000000000, -22.99999999999999289 ) ) ;
#968 = CARTESIAN_POINT ( 'NONE',  ( -19.99999999999998934, 3.000000000000000000, -3.464101615137819223 ) ) ;
#969 = EDGE_LOOP ( 'NONE', ( #660, #853, #1061, #146 ) ) ;
#970 = LINE ( 'NONE', #472, #742 ) ;
#971 = ORIENTED_EDGE ( 'NONE', *, *, #611, .F. ) ;
#972 = CARTESIAN_POINT ( 'NONE',  ( 16.99999999999998224, 3.000000000000000000, 1.732050807569051054 ) ) ;
#973 = EDGE_LOOP ( 'NONE', ( #305, #814, #1247, #151 ) ) ;
#974 = CARTESIAN_POINT ( 'NONE',  ( -22.99999999999998579, 3.000000000000000000, -1.732050807568956685 ) ) ;
#975 = DIRECTION ( 'NONE',  ( 0.000000000000000000, -0.000000000000000000, 1.000000000000000000 ) ) ;
#976 = EDGE_CURVE ( 'NONE', #797, #1293, #1281, .T. ) ;
#977 = VERTEX_POINT ( 'NONE', #1225 ) ;
#978 = VECTOR ( 'NONE', #1012, 1000.000000000000000 ) ;
#979 = DIRECTION ( 'NONE',  ( 0.000000000000000000, 0.000000000000000000, -1.000000000000000000 ) ) ;
#980 = CIRCLE ( 'NONE', #88, 1.700000000000000178 ) ;
#981 = ORIENTED_EDGE ( 'NONE', *, *, #532, .T. ) ;
#982 = VECTOR ( 'NONE', #939, 1000.000000000000000 ) ;
#983 = DIRECTION ( 'NONE',  ( 0.5000000000000029976, 0.000000000000000000, -0.8660254037844369313 ) ) ;
#984 = VECTOR ( 'NONE', #59, 1000.000000000000000 ) ;
#985 = ORIENTED_EDGE ( 'NONE', *, *, #540, .F. ) ;
#986 = DIRECTION ( 'NONE',  ( 0.4999999999999998890, 0.000000000000000000, -0.8660254037844387076 ) ) ;
#987 = FACE_BOUND ( 'NONE', #936, .T. ) ;
#988 = ORIENTED_EDGE ( 'NONE', *, *, #1224, .F. ) ;
#989 = EDGE_CURVE ( 'NONE', #1187, #575, #1327, .T. ) ;
#990 = DIRECTION ( 'NONE',  ( -0.000000000000000000, -1.000000000000000000, -0.000000000000000000 ) ) ;
#991 = DIRECTION ( 'NONE',  ( -0.000000000000000000, -1.000000000000000000, -0.000000000000000000 ) ) ;
#992 = DIRECTION ( 'NONE',  ( -0.000000000000000000, -1.000000000000000000, -0.000000000000000000 ) ) ;
#993 = VERTEX_POINT ( 'NONE', #810 ) ;
#994 = CARTESIAN_POINT ( 'NONE',  ( 0.000000000000000000, 0.000000000000000000, 20.00000000000000000 ) ) ;
#995 = DIRECTION ( 'NONE',  ( -0.8660254037844334896, 0.000000000000000000, -0.5000000000000088818 ) ) ;
#996 = ORIENTED_EDGE ( 'NONE', *, *, #77, .T. ) ;
#997 = LINE ( 'NONE', #895, #1039 ) ;
#998 = PRODUCT ( 'ButtomLid 2', 'ButtomLid 2', '', ( #1008 ) ) ;
#999 = EDGE_CURVE ( 'NONE', #638, #573, #398, .T. ) ;
#1000 = ORIENTED_EDGE ( 'NONE', *, *, #123, .F. ) ;
#1001 = CARTESIAN_POINT ( 'NONE',  ( -3.464101615137749501, 0.000000000000000000, 20.00000000000000000 ) ) ;
#1002 = FACE_OUTER_BOUND ( 'NONE', #166, .T. ) ;
#1003 = DIRECTION ( 'NONE',  ( 0.000000000000000000, 1.000000000000000000, 0.000000000000000000 ) ) ;
#1004 = VECTOR ( 'NONE', #899, 1000.000000000000114 ) ;
#1005 = VECTOR ( 'NONE', #1117, 1000.000000000000000 ) ;
#1006 = VECTOR ( 'NONE', #603, 1000.000000000000114 ) ;
#1007 = EDGE_CURVE ( 'NONE', #68, #1153, #914, .T. ) ;
#1008 = PRODUCT_CONTEXT ( 'NONE', #517, 'mechanical' ) ;
#1009 = AXIS2_PLACEMENT_3D ( 'NONE', #732, #219, #631 ) ;
#1010 = CARTESIAN_POINT ( 'NONE',  ( 1.732050807568878303, 3.000000000000000000, 17.00000000000000000 ) ) ;
#1011 = LINE ( 'NONE', #287, #223 ) ;
#1012 = DIRECTION ( 'NONE',  ( -3.491481338843133750E-15, 0.000000000000000000, 1.000000000000000000 ) ) ;
#1013 = EDGE_CURVE ( 'NONE', #174, #1067, #199, .T. ) ;
#1014 = DIRECTION ( 'NONE',  ( 0.000000000000000000, 0.000000000000000000, -1.000000000000000000 ) ) ;
#1015 = PLANE ( 'NONE',  #705 ) ;
#1016 = CARTESIAN_POINT ( 'NONE',  ( 3.464101615137749501, 0.000000000000000000, -20.00000000000000000 ) ) ;
#1017 = CARTESIAN_POINT ( 'NONE',  ( 16.99999999999998224, 3.000000000000000000, 1.732050807569051054 ) ) ;
#1018 = PRODUCT_DEFINITION ( 'UNKNOWN', '', #636, #1316 ) ;
#1019 = EDGE_CURVE ( 'NONE', #561, #1154, #607, .T. ) ;
#1020 = LINE ( 'NONE', #408, #432 ) ;
#1021 = VECTOR ( 'NONE', #1317, 999.9999999999998863 ) ;
#1022 = VECTOR ( 'NONE', #502, 999.9999999999998863 ) ;
#1023 = LINE ( 'NONE', #1135, #827 ) ;
#1024 = CARTESIAN_POINT ( 'NONE',  ( 0.000000000000000000, 3.000000000000000000, -20.00000000000000000 ) ) ;
#1025 = DIRECTION ( 'NONE',  ( -0.000000000000000000, 1.000000000000000000, -0.000000000000000000 ) ) ;
#1026 = EDGE_CURVE ( 'NONE', #55, #174, #658, .T. ) ;
#1027 = CARTESIAN_POINT ( 'NONE',  ( 0.000000000000000000, 3.000000000000000000, 0.000000000000000000 ) ) ;
#1028 = LINE ( 'NONE', #619, #1091 ) ;
#1029 = ORIENTED_EDGE ( 'NONE', *, *, #976, .F. ) ;
#1030 = DIRECTION ( 'NONE',  ( 0.000000000000000000, 0.000000000000000000, -1.000000000000000000 ) ) ;
#1031 = ORIENTED_EDGE ( 'NONE', *, *, #667, .F. ) ;
#1032 = DIRECTION ( 'NONE',  ( 0.000000000000000000, 0.000000000000000000, 1.000000000000000000 ) ) ;
#1033 = LINE ( 'NONE', #455, #1148 ) ;
#1034 = ORIENTED_EDGE ( 'NONE', *, *, #667, .T. ) ;
#1035 = ORIENTED_EDGE ( 'NONE', *, *, #611, .T. ) ;
#1036 = FACE_OUTER_BOUND ( 'NONE', #795, .T. ) ;
#1037 = EDGE_CURVE ( 'NONE', #1244, #933, #1235, .T. ) ;
#1038 = CARTESIAN_POINT ( 'NONE',  ( -20.00000000000000000, 3.000000000000000000, -6.982962677686266711E-14 ) ) ;
#1039 = VECTOR ( 'NONE', #407, 1000.000000000000000 ) ;
#1040 = DIRECTION ( 'NONE',  ( -0.000000000000000000, 1.000000000000000000, -0.000000000000000000 ) ) ;
#1041 = VECTOR ( 'NONE', #495, 1000.000000000000000 ) ;
#1042 = VECTOR ( 'NONE', #986, 1000.000000000000000 ) ;
#1043 = ORIENTED_EDGE ( 'NONE', *, *, #98, .F. ) ;
#1044 = ORIENTED_EDGE ( 'NONE', *, *, #840, .T. ) ;
#1045 = DIRECTION ( 'NONE',  ( -0.000000000000000000, 0.000000000000000000, 1.000000000000000000 ) ) ;
#1046 = CYLINDRICAL_SURFACE ( 'NONE', #489, 15.00000000000000000 ) ;
#1047 = ORIENTED_EDGE ( 'NONE', *, *, #653, .F. ) ;
#1048 = ORIENTED_EDGE ( 'NONE', *, *, #1314, .F. ) ;
#1049 = DIRECTION ( 'NONE',  ( 0.000000000000000000, 1.000000000000000000, 0.000000000000000000 ) ) ;
#1050 = DIRECTION ( 'NONE',  ( -1.000000000000000000, 0.000000000000000000, -0.000000000000000000 ) ) ;
#1051 = ORIENTED_EDGE ( 'NONE', *, *, #1037, .T. ) ;
#1052 = EDGE_CURVE ( 'NONE', #1269, #818, #1129, .T. ) ;
#1053 = CARTESIAN_POINT ( 'NONE',  ( 0.000000000000000000, 0.000000000000000000, -20.00000000000000000 ) ) ;
#1054 = ORIENTED_EDGE ( 'NONE', *, *, #696, .T. ) ;
#1055 = ORIENTED_EDGE ( 'NONE', *, *, #646, .F. ) ;
#1056 = CARTESIAN_POINT ( 'NONE',  ( -16.99999999999999289, 3.000000000000000000, -1.732050807568932482 ) ) ;
#1057 = DIRECTION ( 'NONE',  ( -1.000000000000000000, 0.000000000000000000, 0.000000000000000000 ) ) ;
#1058 = AXIS2_PLACEMENT_3D ( 'NONE', #683, #175, #71 ) ;
#1059 = DIRECTION ( 'NONE',  ( -0.4999999999999995559, 0.000000000000000000, -0.8660254037844388186 ) ) ;
#1060 = CIRCLE ( 'NONE', #246, 1.700000000000000178 ) ;
#1061 = ORIENTED_EDGE ( 'NONE', *, *, #1238, .F. ) ;
#1062 = DIRECTION ( 'NONE',  ( -0.000000000000000000, -1.000000000000000000, -0.000000000000000000 ) ) ;
#1063 = AXIS2_PLACEMENT_3D ( 'NONE', #50, #543, #946 ) ;
#1064 = ADVANCED_FACE ( 'NONE', ( #717, #815 ), #610, .T. ) ;
#1065 = ORIENTED_EDGE ( 'NONE', *, *, #1086, .F. ) ;
#1066 = CARTESIAN_POINT ( 'NONE',  ( 19.99999999999996447, 0.000000000000000000, 3.464101615137959111 ) ) ;
#1067 = VERTEX_POINT ( 'NONE', #514 ) ;
#1068 = ORIENTED_EDGE ( 'NONE', *, *, #194, .T. ) ;
#1069 = CARTESIAN_POINT ( 'NONE',  ( -20.00000000000000000, 3.000000000000000000, -6.982962677686266711E-14 ) ) ;
#1070 = DIRECTION ( 'NONE',  ( -0.000000000000000000, -1.000000000000000000, -0.000000000000000000 ) ) ;
#1071 = ORIENTED_EDGE ( 'NONE', *, *, #640, .F. ) ;
#1072 = DIRECTION ( 'NONE',  ( -0.4999999999999998335, 0.000000000000000000, 0.8660254037844387076 ) ) ;
#1073 = CARTESIAN_POINT ( 'NONE',  ( -3.464101615137749501, 3.000000000000000000, 20.00000000000000000 ) ) ;
#1074 = EDGE_CURVE ( 'NONE', #993, #258, #410, .T. ) ;
#1075 = LINE ( 'NONE', #585, #291 ) ;
#1076 = ORIENTED_EDGE ( 'NONE', *, *, #840, .F. ) ;
#1077 = ADVANCED_FACE ( 'NONE', ( #711 ), #1236, .F. ) ;
#1078 = LINE ( 'NONE', #80, #227 ) ;
#1079 = ORIENTED_EDGE ( 'NONE', *, *, #940, .T. ) ;
#1080 = LINE ( 'NONE', #1139, #1232 ) ;
#1081 = ORIENTED_EDGE ( 'NONE', *, *, #976, .T. ) ;
#1082 = DIRECTION ( 'NONE',  ( -0.000000000000000000, -1.000000000000000000, -0.000000000000000000 ) ) ;
#1083 = EDGE_LOOP ( 'NONE', ( #1271, #374 ) ) ;
#1084 = EDGE_LOOP ( 'NONE', ( #342, #509, #235, #218 ) ) ;
#1085 = CARTESIAN_POINT ( 'NONE',  ( 23.00000000000001066, 3.000000000000000000, -1.732050807568639827 ) ) ;
#1086 = EDGE_CURVE ( 'NONE', #945, #956, #202, .T. ) ;
#1087 = DIRECTION ( 'NONE',  ( -0.000000000000000000, 1.000000000000000000, 0.000000000000000000 ) ) ;
#1088 = ORIENTED_EDGE ( 'NONE', *, *, #819, .T. ) ;
#1089 = AXIS2_PLACEMENT_3D ( 'NONE', #677, #96, #301 ) ;
#1090 = DIRECTION ( 'NONE',  ( 0.4999999999999995559, 0.000000000000000000, 0.8660254037844389297 ) ) ;
#1091 = VECTOR ( 'NONE', #220, 1000.000000000000114 ) ;
#1092 = VERTEX_POINT ( 'NONE', #726 ) ;
#1093 = VECTOR ( 'NONE', #804, 1000.000000000000227 ) ;
#1094 = PLANE ( 'NONE',  #704 ) ;
#1095 = ORIENTED_EDGE ( 'NONE', *, *, #606, .T. ) ;
#1096 = CARTESIAN_POINT ( 'NONE',  ( 2.081899558550502252E-16, 10.00000000000000000, 18.30000000000000071 ) ) ;
#1097 = LINE ( 'NONE', #62, #913 ) ;
#1098 = EDGE_CURVE ( 'NONE', #1284, #243, #1023, .T. ) ;
#1099 = VERTEX_POINT ( 'NONE', #623 ) ;
#1100 = FACE_OUTER_BOUND ( 'NONE', #842, .T. ) ;
#1101 = VERTEX_POINT ( 'NONE', #1241 ) ;
#1102 = CARTESIAN_POINT ( 'NONE',  ( 17.00000000000001776, 0.000000000000000000, -1.732050807568700224 ) ) ;
#1103 = CARTESIAN_POINT ( 'NONE',  ( 0.000000000000000000, 0.000000000000000000, -20.00000000000000000 ) ) ;
#1104 = CARTESIAN_POINT ( 'NONE',  ( 3.464101615137753054, 0.000000000000000000, 19.99999999999999645 ) ) ;
#1105 = DIRECTION ( 'NONE',  ( -0.8660254037844369313, 0.000000000000000000, -0.5000000000000028866 ) ) ;
#1106 = EDGE_CURVE ( 'NONE', #49, #567, #510, .T. ) ;
#1107 = DIRECTION ( 'NONE',  ( -0.000000000000000000, -1.000000000000000000, -0.000000000000000000 ) ) ;
#1108 = CARTESIAN_POINT ( 'NONE',  ( -20.00000000000000000, 3.000000000000000000, -1.700000000000070566 ) ) ;
#1109 = CARTESIAN_POINT ( 'NONE',  ( -16.99999999999999289, 3.000000000000000000, -1.732050807568932482 ) ) ;
#1110 = AXIS2_PLACEMENT_3D ( 'NONE', #103, #1025, #920 ) ;
#1111 = EDGE_CURVE ( 'NONE', #529, #673, #1115, .T. ) ;
#1112 = AXIS2_PLACEMENT_3D ( 'NONE', #829, #163, #926 ) ;
#1113 = AXIS2_PLACEMENT_3D ( 'NONE', #588, #368, #290 ) ;
#1114 =( GEOMETRIC_REPRESENTATION_CONTEXT ( 3 ) GLOBAL_UNCERTAINTY_ASSIGNED_CONTEXT ( ( #1242 ) ) GLOBAL_UNIT_ASSIGNED_CONTEXT ( ( #593, #264, #678 ) ) REPRESENTATION_CONTEXT ( 'NONE', 'WORKASPACE' ) );
#1115 = LINE ( 'NONE', #97, #1220 ) ;
#1116 = DIRECTION ( 'NONE',  ( -0.000000000000000000, -1.000000000000000000, -0.000000000000000000 ) ) ;
#1117 = DIRECTION ( 'NONE',  ( 0.4999999999999998890, 0.000000000000000000, -0.8660254037844387076 ) ) ;
#1118 = ADVANCED_FACE ( 'NONE', ( #820 ), #1230, .F. ) ;
#1119 = EDGE_CURVE ( 'NONE', #1067, #255, #224, .T. ) ;
#1120 = DIRECTION ( 'NONE',  ( -0.000000000000000000, 1.000000000000000000, 0.000000000000000000 ) ) ;
#1121 = PLANE ( 'NONE',  #719 ) ;
#1122 = CARTESIAN_POINT ( 'NONE',  ( -23.00000000000000000, 3.000000000000000000, 1.732050807568800366 ) ) ;
#1123 = CARTESIAN_POINT ( 'NONE',  ( 0.000000000000000000, 10.00000000000000000, 0.000000000000000000 ) ) ;
#1124 = ADVANCED_FACE ( 'NONE', ( #426, #739 ), #21, .T. ) ;
#1125 = LINE ( 'NONE', #1231, #419 ) ;
#1126 = LINE ( 'NONE', #1109, #978 ) ;
#1127 = VECTOR ( 'NONE', #157, 1000.000000000000000 ) ;
#1128 =( GEOMETRIC_REPRESENTATION_CONTEXT ( 3 ) GLOBAL_UNCERTAINTY_ASSIGNED_CONTEXT ( ( #400 ) ) GLOBAL_UNIT_ASSIGNED_CONTEXT ( ( #17, #499, #505 ) ) REPRESENTATION_CONTEXT ( 'NONE', 'WORKASPACE' ) );
#1129 = CIRCLE ( 'NONE', #332, 15.00000000000000000 ) ;
#1130 = CARTESIAN_POINT ( 'NONE',  ( 16.99999999999998224, 3.000000000000000000, 1.732050807569051054 ) ) ;
#1131 = DIRECTION ( 'NONE',  ( 0.000000000000000000, 0.000000000000000000, 1.000000000000000000 ) ) ;
#1132 = ORIENTED_EDGE ( 'NONE', *, *, #1250, .T. ) ;
#1133 = CYLINDRICAL_SURFACE ( 'NONE', #357, 30.00000000000000000 ) ;
#1134 = ORIENTED_EDGE ( 'NONE', *, *, #364, .T. ) ;
#1135 = CARTESIAN_POINT ( 'NONE',  ( -16.99999999999999289, 0.000000000000000000, -1.732050807568932482 ) ) ;
#1136 = DIRECTION ( 'NONE',  ( -0.000000000000000000, -1.000000000000000000, -0.000000000000000000 ) ) ;
#1137 = ORIENTED_EDGE ( 'NONE', *, *, #391, .F. ) ;
#1138 = EDGE_CURVE ( 'NONE', #1244, #1296, #1267, .T. ) ;
#1139 = CARTESIAN_POINT ( 'NONE',  ( -23.00000000000000000, 3.000000000000000000, 1.732050807568800366 ) ) ;
#1140 = EDGE_LOOP ( 'NONE', ( #309, #647, #782, #756 ) ) ;
#1141 = CARTESIAN_POINT ( 'NONE',  ( 16.99999999999998224, 0.000000000000000000, 1.732050807569051054 ) ) ;
#1142 = VERTEX_POINT ( 'NONE', #856 ) ;
#1143 = ORIENTED_EDGE ( 'NONE', *, *, #1163, .T. ) ;
#1144 = ADVANCED_FACE ( 'NONE', ( #1254 ), #142, .F. ) ;
#1145 = DIRECTION ( 'NONE',  ( 0.8660254037844369313, 0.000000000000000000, 0.5000000000000029976 ) ) ;
#1146 = ORIENTED_EDGE ( 'NONE', *, *, #226, .F. ) ;
#1147 = CARTESIAN_POINT ( 'NONE',  ( 2.081899558550501266E-16, 0.000000000000000000, 18.30000000000000071 ) ) ;
#1148 = VECTOR ( 'NONE', #153, 1000.000000000000227 ) ;
#1149 = AXIS2_PLACEMENT_3D ( 'NONE', #8, #406, #822 ) ;
#1150 = DIRECTION ( 'NONE',  ( 1.000000000000000000, 0.000000000000000000, 1.047444401652941269E-14 ) ) ;
#1151 = VECTOR ( 'NONE', #376, 999.9999999999998863 ) ;
#1152 = ORIENTED_EDGE ( 'NONE', *, *, #1309, .F. ) ;
#1153 = VERTEX_POINT ( 'NONE', #1161 ) ;
#1154 = VERTEX_POINT ( 'NONE', #129 ) ;
#1155 = LINE ( 'NONE', #1141, #506 ) ;
#1156 = EDGE_CURVE ( 'NONE', #797, #818, #228, .T. ) ;
#1157 = CARTESIAN_POINT ( 'NONE',  ( 0.000000000000000000, 10.00000000000000000, -15.00000000000000000 ) ) ;
#1158 = ORIENTED_EDGE ( 'NONE', *, *, #84, .F. ) ;
#1159 = FACE_OUTER_BOUND ( 'NONE', #1193, .T. ) ;
#1160 = EDGE_LOOP ( 'NONE', ( #1143, #252, #530, #538 ) ) ;
#1161 = CARTESIAN_POINT ( 'NONE',  ( 1.732050807568872974, 0.000000000000000000, -17.00000000000000000 ) ) ;
#1162 = CARTESIAN_POINT ( 'NONE',  ( 0.000000000000000000, 10.00000000000000000, 0.000000000000000000 ) ) ;
#1163 = EDGE_CURVE ( 'NONE', #1182, #951, #445, .T. ) ;
#1164 = CARTESIAN_POINT ( 'NONE',  ( -16.99999999999999289, 3.000000000000000000, -1.732050807568932482 ) ) ;
#1165 = VERTEX_POINT ( 'NONE', #319 ) ;
#1166 = EDGE_LOOP ( 'NONE', ( #249, #158, #735, #1282, #360, #1184 ) ) ;
#1167 = DIRECTION ( 'NONE',  ( -0.000000000000000000, 1.000000000000000000, -0.000000000000000000 ) ) ;
#1168 = CARTESIAN_POINT ( 'NONE',  ( -16.99999999999999289, 3.000000000000000000, -1.732050807568932482 ) ) ;
#1169 = VECTOR ( 'NONE', #813, 1000.000000000000000 ) ;
#1170 = LINE ( 'NONE', #447, #1325 ) ;
#1171 = VECTOR ( 'NONE', #327, 1000.000000000000114 ) ;
#1172 = EDGE_LOOP ( 'NONE', ( #783, #988, #48, #30 ) ) ;
#1173 = PLANE ( 'NONE',  #525 ) ;
#1174 = VECTOR ( 'NONE', #1167, 1000.000000000000000 ) ;
#1175 = ORIENTED_EDGE ( 'NONE', *, *, #627, .F. ) ;
#1176 = EDGE_CURVE ( 'NONE', #535, #584, #900, .T. ) ;
#1177 = ORIENTED_EDGE ( 'NONE', *, *, #74, .T. ) ;
#1178 = DIRECTION ( 'NONE',  ( -0.000000000000000000, 1.000000000000000000, -0.000000000000000000 ) ) ;
#1179 = LINE ( 'NONE', #229, #206 ) ;
#1180 = VERTEX_POINT ( 'NONE', #1056 ) ;
#1181 = CARTESIAN_POINT ( 'NONE',  ( 0.000000000000000000, 10.00000000000000000, 0.000000000000000000 ) ) ;
#1182 = VERTEX_POINT ( 'NONE', #662 ) ;
#1183 = EDGE_CURVE ( 'NONE', #567, #1092, #1155, .T. ) ;
#1184 = ORIENTED_EDGE ( 'NONE', *, *, #170, .F. ) ;
#1185 = CYLINDRICAL_SURFACE ( 'NONE', #1089, 15.00000000000000000 ) ;
#1186 = CYLINDRICAL_SURFACE ( 'NONE', #106, 1.700000000000000844 ) ;
#1187 = VERTEX_POINT ( 'NONE', #967 ) ;
#1188 = LINE ( 'NONE', #268, #61 ) ;
#1189 = EDGE_LOOP ( 'NONE', ( #473, #1088, #589, #941 ) ) ;
#1190 = PLANE ( 'NONE',  #1216 ) ;
#1191 = EDGE_LOOP ( 'NONE', ( #212, #278, #480, #562 ) ) ;
#1192 = ADVANCED_FACE ( 'NONE', ( #326 ), #232, .F. ) ;
#1193 = EDGE_LOOP ( 'NONE', ( #591, #1048, #526, #836 ) ) ;
#1194 = FACE_OUTER_BOUND ( 'NONE', #41, .T. ) ;
#1195 = LINE ( 'NONE', #275, #688 ) ;
#1196 = VERTEX_POINT ( 'NONE', #554 ) ;
#1197 = VECTOR ( 'NONE', #716, 1000.000000000000000 ) ;
#1198 = LINE ( 'NONE', #492, #764 ) ;
#1199 = CIRCLE ( 'NONE', #401, 15.00000000000000000 ) ;
#1200 = EDGE_LOOP ( 'NONE', ( #386, #179, #925, #896 ) ) ;
#1201 = AXIS2_PLACEMENT_3D ( 'NONE', #700, #169, #975 ) ;
#1202 = AXIS2_PLACEMENT_3D ( 'NONE', #974, #687, #694 ) ;
#1203 = DIRECTION ( 'NONE',  ( 1.000000000000000000, 0.000000000000000000, 0.000000000000000000 ) ) ;
#1204 = CARTESIAN_POINT ( 'NONE',  ( 0.000000000000000000, 3.000000000000000000, 21.69999999999999929 ) ) ;
#1205 = ORIENTED_EDGE ( 'NONE', *, *, #149, .F. ) ;
#1206 = CARTESIAN_POINT ( 'NONE',  ( -20.00000000000000000, 3.000000000000000000, 1.699999999999930900 ) ) ;
#1207 = CARTESIAN_POINT ( 'NONE',  ( -20.00000000000000000, 10.00000000000000000, -6.982962677686266711E-14 ) ) ;
#1208 = LINE ( 'NONE', #776, #953 ) ;
#1209 = CARTESIAN_POINT ( 'NONE',  ( -3.464101615137749501, 3.000000000000000000, 20.00000000000000000 ) ) ;
#1210 = EDGE_CURVE ( 'NONE', #629, #524, #295, .T. ) ;
#1211 = LINE ( 'NONE', #692, #191 ) ;
#1212 = LINE ( 'NONE', #512, #808 ) ;
#1213 = CARTESIAN_POINT ( 'NONE',  ( 20.00000000000003553, 3.000000000000000000, -3.464101615137543444 ) ) ;
#1214 = CARTESIAN_POINT ( 'NONE',  ( 1.732050807568878303, 3.000000000000000000, 17.00000000000000000 ) ) ;
#1215 = CARTESIAN_POINT ( 'NONE',  ( 23.00000000000001066, 3.000000000000000000, -1.732050807568639827 ) ) ;
#1216 = AXIS2_PLACEMENT_3D ( 'NONE', #568, #983, #862 ) ;
#1217 = VECTOR ( 'NONE', #577, 1000.000000000000000 ) ;
#1218 = ADVANCED_FACE ( 'NONE', ( #536 ), #236, .F. ) ;
#1219 = COLOUR_RGB ( '',0.7921568627450980005, 0.8196078431372548767, 0.9333333333333333481 ) ;
#1220 = VECTOR ( 'NONE', #498, 1000.000000000000000 ) ;
#1221 = CARTESIAN_POINT ( 'NONE',  ( 0.000000000000000000, 0.000000000000000000, 0.000000000000000000 ) ) ;
#1222 = DIRECTION ( 'NONE',  ( 0.8660254037844334896, 0.000000000000000000, 0.5000000000000089928 ) ) ;
#1223 = DIRECTION ( 'NONE',  ( 0.000000000000000000, 0.000000000000000000, -1.000000000000000000 ) ) ;
#1224 = EDGE_CURVE ( 'NONE', #584, #535, #247, .T. ) ;
#1225 = CARTESIAN_POINT ( 'NONE',  ( 2.081899558550502252E-16, 10.00000000000000000, -21.69999999999999929 ) ) ;
#1226 = CARTESIAN_POINT ( 'NONE',  ( -20.00000000000000000, 10.00000000000000000, 1.699999999999930900 ) ) ;
#1227 = DIRECTION ( 'NONE',  ( -0.5000000000000001110, 0.000000000000000000, -0.8660254037844385966 ) ) ;
#1228 = EDGE_CURVE ( 'NONE', #841, #529, #27, .T. ) ;
#1229 = EDGE_LOOP ( 'NONE', ( #723, #1054, #132, #1132, #325, #176 ) ) ;
#1230 = PLANE ( 'NONE',  #1307 ) ;
#1231 = CARTESIAN_POINT ( 'NONE',  ( 1.836970198721029589E-15, 10.00000000000000000, 15.00000000000000000 ) ) ;
#1232 = VECTOR ( 'NONE', #424, 1000.000000000000000 ) ;
#1233 = DIRECTION ( 'NONE',  ( -0.000000000000000000, -1.000000000000000000, -0.000000000000000000 ) ) ;
#1234 = ORIENTED_EDGE ( 'NONE', *, *, #690, .T. ) ;
#1235 = CIRCLE ( 'NONE', #602, 1.700000000000000178 ) ;
#1236 = CYLINDRICAL_SURFACE ( 'NONE', #468, 1.700000000000000844 ) ;
#1237 = FILL_AREA_STYLE ('',( #1 ) ) ;
#1238 = EDGE_CURVE ( 'NONE', #573, #1180, #938, .T. ) ;
#1239 = CARTESIAN_POINT ( 'NONE',  ( 2.081899558550501266E-16, 0.000000000000000000, -21.69999999999999929 ) ) ;
#1240 = ORIENTED_EDGE ( 'NONE', *, *, #251, .T. ) ;
#1241 = CARTESIAN_POINT ( 'NONE',  ( -1.732050807568878303, 3.000000000000000000, -17.00000000000000000 ) ) ;
#1242 = UNCERTAINTY_MEASURE_WITH_UNIT (LENGTH_MEASURE( 1.000000000000000082E-05 ), #593, 'distance_accuracy_value', 'NONE');
#1243 = FACE_OUTER_BOUND ( 'NONE', #1172, .T. ) ;
#1244 = VERTEX_POINT ( 'NONE', #1262 ) ;
#1245 = EDGE_CURVE ( 'NONE', #552, #1099, #843, .T. ) ;
#1246 = CARTESIAN_POINT ( 'NONE',  ( -3.464101615137749501, 3.000000000000000000, 20.00000000000000000 ) ) ;
#1247 = ORIENTED_EDGE ( 'NONE', *, *, #51, .F. ) ;
#1248 = CARTESIAN_POINT ( 'NONE',  ( 22.99999999999997513, 3.000000000000000000, 1.732050807569117445 ) ) ;
#1249 = FACE_OUTER_BOUND ( 'NONE', #24, .T. ) ;
#1250 = EDGE_CURVE ( 'NONE', #117, #868, #183, .T. ) ;
#1251 = ORIENTED_EDGE ( 'NONE', *, *, #251, .F. ) ;
#1252 = ADVANCED_FACE ( 'NONE', ( #1194 ), #356, .F. ) ;
#1253 = AXIS2_PLACEMENT_3D ( 'NONE', #239, #362, #259 ) ;
#1254 = FACE_OUTER_BOUND ( 'NONE', #416, .T. ) ;
#1255 = VECTOR ( 'NONE', #323, 1000.000000000000000 ) ;
#1256 = VECTOR ( 'NONE', #757, 1000.000000000000000 ) ;
#1257 = CARTESIAN_POINT ( 'NONE',  ( 20.00000000000000000, 0.000000000000000000, -1.699999999999791234 ) ) ;
#1258 = ORIENTED_EDGE ( 'NONE', *, *, #443, .F. ) ;
#1259 = DIRECTION ( 'NONE',  ( -0.8660254037844405950, 0.000000000000000000, 0.4999999999999965028 ) ) ;
#1260 = ORIENTED_EDGE ( 'NONE', *, *, #186, .T. ) ;
#1261 = ADVANCED_FACE ( 'NONE', ( #1308 ), #598, .F. ) ;
#1262 = CARTESIAN_POINT ( 'NONE',  ( 2.081899558550502252E-16, 3.000000000000000000, 18.30000000000000071 ) ) ;
#1263 = FACE_OUTER_BOUND ( 'NONE', #433, .T. ) ;
#1264 = ORIENTED_EDGE ( 'NONE', *, *, #500, .T. ) ;
#1265 = CARTESIAN_POINT ( 'NONE',  ( -3.464101615137753054, 0.000000000000000000, -19.99999999999999645 ) ) ;
#1266 = ORIENTED_EDGE ( 'NONE', *, *, #25, .T. ) ;
#1267 = LINE ( 'NONE', #1147, #1174 ) ;
#1268 = FACE_BOUND ( 'NONE', #875, .T. ) ;
#1269 = VERTEX_POINT ( 'NONE', #1275 ) ;
#1270 = CARTESIAN_POINT ( 'NONE',  ( 1.732050807568878303, 3.000000000000000000, 17.00000000000000000 ) ) ;
#1271 = ORIENTED_EDGE ( 'NONE', *, *, #1224, .T. ) ;
#1272 = LINE ( 'NONE', #972, #310 ) ;
#1273 = EDGE_LOOP ( 'NONE', ( #46, #1043, #330, #863 ) ) ;
#1274 = ORIENTED_EDGE ( 'NONE', *, *, #547, .T. ) ;
#1275 = CARTESIAN_POINT ( 'NONE',  ( 1.836970198721029589E-15, 0.000000000000000000, 15.00000000000000000 ) ) ;
#1276 = VECTOR ( 'NONE', #365, 1000.000000000000114 ) ;
#1277 = CARTESIAN_POINT ( 'NONE',  ( -17.00000000000000711, 3.000000000000000000, 1.732050807568818795 ) ) ;
#1278 = EDGE_LOOP ( 'NONE', ( #751, #949, #960, #162, #622, #1258 ) ) ;
#1279 = ADVANCED_FACE ( 'NONE', ( #285 ), #877, .F. ) ;
#1280 = PLANE ( 'NONE',  #1253 ) ;
#1281 = CIRCLE ( 'NONE', #848, 15.00000000000000000 ) ;
#1282 = ORIENTED_EDGE ( 'NONE', *, *, #921, .F. ) ;
#1283 = LINE ( 'NONE', #343, #1217 ) ;
#1284 = VERTEX_POINT ( 'NONE', #887 ) ;
#1285 = DIRECTION ( 'NONE',  ( 0.000000000000000000, 0.000000000000000000, 1.000000000000000000 ) ) ;
#1286 = CYLINDRICAL_SURFACE ( 'NONE', #417, 1.700000000000000178 ) ;
#1287 = LINE ( 'NONE', #1001, #1093 ) ;
#1288 = ORIENTED_EDGE ( 'NONE', *, *, #746, .F. ) ;
#1289 = DIRECTION ( 'NONE',  ( -0.000000000000000000, -1.000000000000000000, -0.000000000000000000 ) ) ;
#1290 = ORIENTED_EDGE ( 'NONE', *, *, #429, .T. ) ;
#1291 = DIRECTION ( 'NONE',  ( 0.000000000000000000, 0.000000000000000000, 1.000000000000000000 ) ) ;
#1292 = ORIENTED_EDGE ( 'NONE', *, *, #340, .F. ) ;
#1293 = VERTEX_POINT ( 'NONE', #79 ) ;
#1294 = CARTESIAN_POINT ( 'NONE',  ( 3.464101615137749501, 3.000000000000000000, -20.00000000000000000 ) ) ;
#1295 = DIRECTION ( 'NONE',  ( -1.000000000000000000, 0.000000000000000000, 0.000000000000000000 ) ) ;
#1296 = VERTEX_POINT ( 'NONE', #1096 ) ;
#1297 = LINE ( 'NONE', #196, #274 ) ;
#1298 = PLANE ( 'NONE',  #1323 ) ;
#1299 = EDGE_LOOP ( 'NONE', ( #1035, #586, #470, #766 ) ) ;
#1300 = EDGE_CURVE ( 'NONE', #1092, #552, #85, .T. ) ;
#1301 = CARTESIAN_POINT ( 'NONE',  ( -3.464101615137753054, 3.000000000000000000, -20.00000000000000000 ) ) ;
#1302 = EDGE_LOOP ( 'NONE', ( #859, #148, #874, #215 ) ) ;
#1303 = AXIS2_PLACEMENT_3D ( 'NONE', #449, #724, #979 ) ;
#1304 = DIRECTION ( 'NONE',  ( 1.000000000000000000, 0.000000000000000000, 0.000000000000000000 ) ) ;
#1305 = CIRCLE ( 'NONE', #930, 15.00000000000000000 ) ;
#1306 = ORIENTED_EDGE ( 'NONE', *, *, #210, .T. ) ;
#1307 = AXIS2_PLACEMENT_3D ( 'NONE', #1130, #208, #454 ) ;
#1308 = FACE_OUTER_BOUND ( 'NONE', #973, .T. ) ;
#1309 = EDGE_CURVE ( 'NONE', #738, #1187, #570, .T. ) ;
#1310 = LINE ( 'NONE', #1301, #811 ) ;
#1311 = DIRECTION ( 'NONE',  ( 0.000000000000000000, 0.000000000000000000, -1.000000000000000000 ) ) ;
#1312 = FACE_OUTER_BOUND ( 'NONE', #1229, .T. ) ;
#1313 = PLANE ( 'NONE',  #144 ) ;
#1314 = EDGE_CURVE ( 'NONE', #1196, #889, #1208, .T. ) ;
#1315 = FACE_OUTER_BOUND ( 'NONE', #475, .T. ) ;
#1316 = PRODUCT_DEFINITION_CONTEXT ( 'detailed design', #541, 'design' ) ;
#1317 = DIRECTION ( 'NONE',  ( 0.8660254037844441477, 0.000000000000000000, -0.4999999999999905076 ) ) ;
#1318 = EDGE_CURVE ( 'NONE', #266, #754, #798, .T. ) ;
#1319 = LINE ( 'NONE', #802, #947 ) ;
#1320 = DIRECTION ( 'NONE',  ( -0.000000000000000000, -1.000000000000000000, -0.000000000000000000 ) ) ;
#1321 = CARTESIAN_POINT ( 'NONE',  ( 0.000000000000000000, 3.000000000000000000, -18.30000000000000071 ) ) ;
#1322 = LINE ( 'NONE', #806, #1197 ) ;
#1323 = AXIS2_PLACEMENT_3D ( 'NONE', #380, #497, #393 ) ;
#1324 = ADVANCED_FACE ( 'NONE', ( #768 ), #1286, .F. ) ;
#1325 = VECTOR ( 'NONE', #248, 1000.000000000000000 ) ;
#1326 = AXIS2_PLACEMENT_3D ( 'NONE', #1069, #245, #152 ) ;
#1327 = LINE ( 'NONE', #908, #312 ) ;
ENDSEC;
END-ISO-10303-21;
