ISO-10303-21;
HEADER;
FILE_DESCRIPTION (( 'STEP AP214' ),
    '1' );
FILE_NAME ('torque nut 01_iso.step',
    '2026-08-28T16:15:33',
    ( '' ),
    ( '' ),
    'SwSTEP 2.0',
    'SolidWorks 2024',
    '' );
FILE_SCHEMA (( 'AUTOMOTIVE_DESIGN' ));
ENDSEC;

DATA;
#1 = SHAPE_DEFINITION_REPRESENTATION ( #664, #615 ) ;
#2 = EDGE_CURVE ( 'NONE', #472, #618, #549, .T. ) ;
#3 = DIRECTION ( 'NONE',  ( -0.000000000000000000, 0.000000000000000000, -1.000000000000000000 ) ) ;
#4 = LINE ( 'NONE', #226, #442 ) ;
#5 = DIRECTION ( 'NONE',  ( 0.000000000000000000, 0.000000000000000000, 1.000000000000000000 ) ) ;
#6 = CARTESIAN_POINT ( 'NONE',  ( 5.000000000000000000, 2.419979747126331571, -4.588163366729713921 ) ) ;
#7 = VECTOR ( 'NONE', #233, 1000.000000000000000 ) ;
#8 = CARTESIAN_POINT ( 'NONE',  ( 2.500000000000004441, 4.330127018922192761, -4.900000000000000355 ) ) ;
#9 = DIRECTION ( 'NONE',  ( -0.000000000000000000, -0.000000000000000000, 1.000000000000000000 ) ) ;
#10 = EDGE_CURVE ( 'NONE', #814, #962, #859, .T. ) ;
#11 = CARTESIAN_POINT ( 'NONE',  ( 3.000000000000000888, 0.000000000000000000, -25.03750572909317285 ) ) ;
#12 = ORIENTED_EDGE ( 'NONE', *, *, #168, .T. ) ;
#13 = CARTESIAN_POINT ( 'NONE',  ( 0.000000000000000000, 0.000000000000000000, -4.874600000000000044 ) ) ;
#14 = APPLICATION_CONTEXT ( 'automotive_design' ) ;
#15 = AXIS2_PLACEMENT_3D ( 'NONE', #602, #689, #909 ) ;
#16 = CONICAL_SURFACE ( 'NONE', #60, 5.000000000000000888, 1.047197551196595411 ) ;
#17 = EDGE_LOOP ( 'NONE', ( #440, #943 ) ) ;
#18 = EDGE_CURVE ( 'NONE', #628, #894, #285, .T. ) ;
#19 = CARTESIAN_POINT ( 'NONE',  ( -5.000000000000000000, -2.886751345948134428, -4.453418012614792865 ) ) ;
#20 = CARTESIAN_POINT ( 'NONE',  ( -3.000000000000000888, 0.000000000000000000, -4.874600000000000044 ) ) ;
#21 = ORIENTED_EDGE ( 'NONE', *, *, #774, .T. ) ;
#22 = DIRECTION ( 'NONE',  ( -0.000000000000000000, -0.000000000000000000, 1.000000000000000000 ) ) ;
#23 = ORIENTED_EDGE ( 'NONE', *, *, #288, .T. ) ;
#24 = CARTESIAN_POINT ( 'NONE',  ( 0.000000000000000000, 0.000000000000000000, -4.874600000000000044 ) ) ;
#25 = ORIENTED_EDGE ( 'NONE', *, *, #378, .T. ) ;
#26 = DIRECTION ( 'NONE',  ( -0.000000000000000000, 0.000000000000000000, -1.000000000000000000 ) ) ;
#27 = CARTESIAN_POINT ( 'NONE',  ( 5.000000000000000000, -0.9724665692850879006, -4.858069561147902782 ) ) ;
#28 = ORIENTED_EDGE ( 'NONE', *, *, #670, .T. ) ;
#29 =( NAMED_UNIT ( * ) PLANE_ANGLE_UNIT ( ) SI_UNIT ( $, .RADIAN. ) );
#30 = AXIS2_PLACEMENT_3D ( 'NONE', #786, #918, #103 ) ;
#31 = DIRECTION ( 'NONE',  ( -0.000000000000000000, -0.000000000000000000, 1.000000000000000000 ) ) ;
#32 = AXIS2_PLACEMENT_3D ( 'NONE', #302, #451, #310 ) ;
#33 = ORIENTED_EDGE ( 'NONE', *, *, #611, .F. ) ;
#34 = ORIENTED_EDGE ( 'NONE', *, *, #970, .T. ) ;
#35 = AXIS2_PLACEMENT_3D ( 'NONE', #635, #945, #243 ) ;
#36 = CARTESIAN_POINT ( 'NONE',  ( -3.966666666666998964, 5.490499816177503101E-16, 3.099999999999999645 ) ) ;
#37 = CARTESIAN_POINT ( 'NONE',  ( -4.180704885107416224, -3.359771601077115477, -0.1983443223721618465 ) ) ;
#38 = ADVANCED_FACE ( 'NONE', ( #969 ), #427, .T. ) ;
#39 = DIRECTION ( 'NONE',  ( -1.000000000000000000, 0.000000000000000000, -0.000000000000000000 ) ) ;
#40 = CARTESIAN_POINT ( 'NONE',  ( 4.999999999999999112, 0.4881033300985042622, 4.230929571535228715E-16 ) ) ;
#41 = ORIENTED_EDGE ( 'NONE', *, *, #506, .F. ) ;
#42 = DIRECTION ( 'NONE',  ( -0.000000000000000000, -0.000000000000000000, 1.000000000000000000 ) ) ;
#43 = ORIENTED_EDGE ( 'NONE', *, *, #506, .T. ) ;
#44 = DIRECTION ( 'NONE',  ( -1.000000000000000000, -3.552713678800500929E-15, 0.000000000000000000 ) ) ;
#45 = DIRECTION ( 'NONE',  ( -0.000000000000000000, -0.000000000000000000, 1.000000000000000000 ) ) ;
#46 = DIRECTION ( 'NONE',  ( -0.000000000000000000, 0.000000000000000000, -1.000000000000000000 ) ) ;
#47 = EDGE_CURVE ( 'NONE', #618, #412, #842, .T. ) ;
#48 = CARTESIAN_POINT ( 'NONE',  ( 5.000000000000000000, 2.886751345948134428, -0.4465819873852080457 ) ) ;
#49 = ORIENTED_EDGE ( 'NONE', *, *, #18, .F. ) ;
#50 = VERTEX_POINT ( 'NONE', #278 ) ;
#51 = CARTESIAN_POINT ( 'NONE',  ( -2.500000000000004441, 4.330127018922191873, -4.900000000000000355 ) ) ;
#52 = CARTESIAN_POINT ( 'NONE',  ( 0.000000000000000000, 0.000000000000000000, -4.900000000000000355 ) ) ;
#53 = DIRECTION ( 'NONE',  ( 0.000000000000000000, 0.000000000000000000, 1.000000000000000000 ) ) ;
#54 = CARTESIAN_POINT ( 'NONE',  ( -3.556264818047238929, -3.720292241887096285, -0.08165819712377309081 ) ) ;
#55 = EDGE_LOOP ( 'NONE', ( #294, #110, #972, #257 ) ) ;
#56 = ADVANCED_FACE ( 'NONE', ( #425 ), #741, .T. ) ;
#57 = AXIS2_PLACEMENT_3D ( 'NONE', #528, #513, #441 ) ;
#58 = CARTESIAN_POINT ( 'NONE',  ( -4.276923104674409908E-16, 5.773502691896261751, -4.900000000000000355 ) ) ;
#59 = AXIS2_PLACEMENT_3D ( 'NONE', #539, #854, #169 ) ;
#60 = AXIS2_PLACEMENT_3D ( 'NONE', #186, #397, #101 ) ;
#61 = CARTESIAN_POINT ( 'NONE',  ( -2.500000000000004441, 4.330127018922191873, 0.000000000000000000 ) ) ;
#62 = VERTEX_POINT ( 'NONE', #586 ) ;
#63 = ORIENTED_EDGE ( 'NONE', *, *, #484, .F. ) ;
#64 = CARTESIAN_POINT ( 'NONE',  ( 0.000000000000000000, 0.000000000000000000, 2.066666666666999497 ) ) ;
#65 = ORIENTED_EDGE ( 'NONE', *, *, #445, .T. ) ;
#66 = CARTESIAN_POINT ( 'NONE',  ( -3.556264818047238929, -3.720292241887096285, -4.818341802876227931 ) ) ;
#67 = PLANE ( 'NONE',  #861 ) ;
#68 = UNCERTAINTY_MEASURE_WITH_UNIT (LENGTH_MEASURE( 1.000000000000000082E-05 ), #642, 'distance_accuracy_value', 'NONE');
#69 = EDGE_LOOP ( 'NONE', ( #568, #191, #280 ) ) ;
#70 = CARTESIAN_POINT ( 'NONE',  ( -2.712167343862822211, -4.207632145829752979, -4.900000000000000355 ) ) ;
#71 = CARTESIAN_POINT ( 'NONE',  ( 0.000000000000000000, 0.000000000000000000, 2.066666666666999497 ) ) ;
#72 = AXIS2_PLACEMENT_3D ( 'NONE', #857, #242, #541 ) ;
#73 = EDGE_CURVE ( 'NONE', #108, #424, #937, .T. ) ;
#74 = AXIS2_PLACEMENT_3D ( 'NONE', #794, #26, #248 ) ;
#75 = FACE_OUTER_BOUND ( 'NONE', #717, .T. ) ;
#76 = CARTESIAN_POINT ( 'NONE',  ( -2.500000000000000000, 3.061616997868383141E-16, -4.524496230895143967 ) ) ;
#77 = B_SPLINE_CURVE_WITH_KNOTS ( 'NONE', 3,
 ( #379, #846, #83, #307 ),
 .UNSPECIFIED., .F., .F.,
 ( 4, 4 ),
 ( 2.380735200987661302E-07, 0.002921158011986723334 ),
 .UNSPECIFIED. ) ;
#78 = ORIENTED_EDGE ( 'NONE', *, *, #2, .T. ) ;
#79 = DIRECTION ( 'NONE',  ( -1.000000000000000000, 0.000000000000000000, 0.000000000000000000 ) ) ;
#80 = DIRECTION ( 'NONE',  ( -1.000000000000000000, 0.000000000000000000, 0.000000000000000000 ) ) ;
#81 = PRODUCT_DEFINITION ( 'UNKNOWN', '', #162, #295 ) ;
#82 = EDGE_LOOP ( 'NONE', ( #23, #373, #662, #446, #355, #498 ) ) ;
#83 = CARTESIAN_POINT ( 'NONE',  ( -1.648146632869003980, -4.821944789745371551, -2.754529848635878294E-16 ) ) ;
#84 = EDGE_CURVE ( 'NONE', #50, #771, #198, .T. ) ;
#85 = PLANE ( 'NONE',  #305 ) ;
#86 = AXIS2_PLACEMENT_3D ( 'NONE', #977, #5, #981 ) ;
#87 = CARTESIAN_POINT ( 'NONE',  ( 0.000000000000000000, 0.000000000000000000, 0.000000000000000000 ) ) ;
#88 = AXIS2_PLACEMENT_3D ( 'NONE', #529, #439, #919 ) ;
#89 = ADVANCED_FACE ( 'NONE', ( #600 ), #438, .F. ) ;
#90 = DIRECTION ( 'NONE',  ( -0.000000000000000000, -0.000000000000000000, 1.000000000000000000 ) ) ;
#91 = DIRECTION ( 'NONE',  ( 0.000000000000000000, 0.000000000000000000, 1.000000000000000000 ) ) ;
#92 = DIRECTION ( 'NONE',  ( 1.000000000000000000, 0.000000000000000000, 0.000000000000000000 ) ) ;
#93 = CYLINDRICAL_SURFACE ( 'NONE', #372, 4.999999999999999112 ) ;
#94 = ORIENTED_EDGE ( 'NONE', *, *, #221, .T. ) ;
#95 = B_SPLINE_CURVE_WITH_KNOTS ( 'NONE', 3,
 ( #383, #678, #533, #144 ),
 .UNSPECIFIED., .F., .F.,
 ( 4, 4 ),
 ( 2.380735200838053843E-07, 0.002921158011986720298 ),
 .UNSPECIFIED. ) ;
#96 = AXIS2_PLACEMENT_3D ( 'NONE', #64, #973, #492 ) ;
#97 = VECTOR ( 'NONE', #788, 1000.000000000000000 ) ;
#98 = DIRECTION ( 'NONE',  ( -0.000000000000000000, -0.000000000000000000, 1.000000000000000000 ) ) ;
#99 = CARTESIAN_POINT ( 'NONE',  ( -5.000000000000000000, 0.000000000000000000, -4.900000000000000355 ) ) ;
#100 = EDGE_LOOP ( 'NONE', ( #43, #21, #259, #223, #260, #867 ) ) ;
#101 = DIRECTION ( 'NONE',  ( -1.000000000000000000, 0.000000000000000000, 0.000000000000000000 ) ) ;
#102 = CARTESIAN_POINT ( 'NONE',  ( 2.503857664561936813E-16, -5.773502691896267081, -4.900000000000000355 ) ) ;
#103 = DIRECTION ( 'NONE',  ( -1.000000000000000000, 0.000000000000000000, 0.000000000000000000 ) ) ;
#104 = CARTESIAN_POINT ( 'NONE',  ( 0.000000000000000000, 0.000000000000000000, -4.900000000000000355 ) ) ;
#105 = CARTESIAN_POINT ( 'NONE',  ( -3.000000000000000888, 3.673940397442060854E-16, -25.03750572909317285 ) ) ;
#106 = CARTESIAN_POINT ( 'NONE',  ( 1.443735181952766400, -4.939961795957303003, -0.08165819712377421491 ) ) ;
#107 = CARTESIAN_POINT ( 'NONE',  ( -5.000000000000000888, 0.9828435001097615142, -4.856909652965544666 ) ) ;
#108 = VERTEX_POINT ( 'NONE', #908 ) ;
#109 = APPLICATION_PROTOCOL_DEFINITION ( 'draft international standard', 'automotive_design', 1998, #137 ) ;
#110 = ORIENTED_EDGE ( 'NONE', *, *, #277, .T. ) ;
#111 = ADVANCED_FACE ( 'NONE', ( #833 ), #272, .T. ) ;
#112 = VERTEX_POINT ( 'NONE', #674 ) ;
#113 = DIRECTION ( 'NONE',  ( -0.000000000000000000, -0.000000000000000000, 1.000000000000000000 ) ) ;
#114 = CARTESIAN_POINT ( 'NONE',  ( -2.500000000000002220, -4.330127018922190985, 1.001543065824778275E-15 ) ) ;
#115 = VERTEX_POINT ( 'NONE', #382 ) ;
#116 = CARTESIAN_POINT ( 'NONE',  ( 5.000000000000000000, -0.9724665692850879006, -0.04193043885209660898 ) ) ;
#117 = VERTEX_POINT ( 'NONE', #829 ) ;
#118 = EDGE_CURVE ( 'NONE', #618, #935, #743, .T. ) ;
#119 = ORIENTED_EDGE ( 'NONE', *, *, #168, .F. ) ;
#120 = CARTESIAN_POINT ( 'NONE',  ( -5.000000000000000000, 0.000000000000000000, 1.001543065824778275E-15 ) ) ;
#121 = LINE ( 'NONE', #742, #911 ) ;
#122 = CARTESIAN_POINT ( 'NONE',  ( 5.000000000000000000, 1.947085426416881093, -0.1996207071196912375 ) ) ;
#123 = ORIENTED_EDGE ( 'NONE', *, *, #416, .F. ) ;
#124 = CARTESIAN_POINT ( 'NONE',  ( -2.500000000000003109, -4.330127018922192761, -4.900000000000000355 ) ) ;
#125 = ORIENTED_EDGE ( 'NONE', *, *, #622, .F. ) ;
#126 = B_SPLINE_CURVE_WITH_KNOTS ( 'NONE', 3,
 ( #197, #561, #184, #124 ),
 .UNSPECIFIED., .F., .F.,
 ( 4, 4 ),
 ( 2.380735200988032143E-07, 0.002921158011986723334 ),
 .UNSPECIFIED. ) ;
#127 = ORIENTED_EDGE ( 'NONE', *, *, #449, .T. ) ;
#128 = CARTESIAN_POINT ( 'NONE',  ( 0.000000000000000000, 0.000000000000000000, 0.000000000000000000 ) ) ;
#129 = CARTESIAN_POINT ( 'NONE',  ( -5.000000000000000000, -2.886751345948134428, -0.4465819873852080457 ) ) ;
#130 = CARTESIAN_POINT ( 'NONE',  ( -0.8192951148925889937, 5.300482436767277150, -0.1983443223721604864 ) ) ;
#131 = VERTEX_POINT ( 'NONE', #296 ) ;
#132 = ORIENTED_EDGE ( 'NONE', *, *, #304, .T. ) ;
#133 = CARTESIAN_POINT ( 'NONE',  ( -1.443735181952767510, 4.939961795957295898, -4.818341802876232371 ) ) ;
#134 = CARTESIAN_POINT ( 'NONE',  ( 0.4079457818577044703, -5.537975084925949254, -4.589399939901062986 ) ) ;
#135 = EDGE_CURVE ( 'NONE', #472, #361, #784, .T. ) ;
#136 = ORIENTED_EDGE ( 'NONE', *, *, #599, .F. ) ;
#137 = APPLICATION_CONTEXT ( 'automotive_design' ) ;
#138 = ORIENTED_EDGE ( 'NONE', *, *, #785, .T. ) ;
#139 = VERTEX_POINT ( 'NONE', #906 ) ;
#140 = AXIS2_PLACEMENT_3D ( 'NONE', #920, #164, #235 ) ;
#141 = STYLED_ITEM ( 'NONE', ( #645 ), #690 ) ;
#142 = CARTESIAN_POINT ( 'NONE',  ( 0.000000000000000000, 0.000000000000000000, -4.900000000000000355 ) ) ;
#143 = CARTESIAN_POINT ( 'NONE',  ( 1.648146632868996875, 4.821944789745368887, -4.900000000000003908 ) ) ;
#144 = CARTESIAN_POINT ( 'NONE',  ( 2.500000000000003553, 4.330127018922190985, 1.001543065824778275E-15 ) ) ;
#145 = EDGE_CURVE ( 'NONE', #673, #131, #303, .T. ) ;
#146 = EDGE_LOOP ( 'NONE', ( #388, #731, #360, #726, #738, #591 ) ) ;
#147 = CARTESIAN_POINT ( 'NONE',  ( -2.500000000000000000, 3.061616997868383141E-16, -4.900000000000000355 ) ) ;
#148 = CARTESIAN_POINT ( 'NONE',  ( 5.000000000000000888, 0.9828435001097617363, -4.856909652965544666 ) ) ;
#149 = EDGE_CURVE ( 'NONE', #628, #814, #831, .T. ) ;
#150 = CONICAL_SURFACE ( 'NONE', #745, 5.000000000000000888, 1.047197551196595411 ) ;
#151 = CARTESIAN_POINT ( 'NONE',  ( 5.000000000000000888, -2.886751345948133096, -0.4465819873852080457 ) ) ;
#152 = CIRCLE ( 'NONE', #509, 3.966666666666998964 ) ;
#153 = CARTESIAN_POINT ( 'NONE',  ( -3.346878500200759277, -3.841181488860386573, -4.848595712916170974 ) ) ;
#154 = DIRECTION ( 'NONE',  ( -0.000000000000000000, -0.000000000000000000, 1.000000000000000000 ) ) ;
#155 = DIRECTION ( 'NONE',  ( 1.000000000000000000, 0.000000000000000000, 0.000000000000000000 ) ) ;
#156 = EDGE_CURVE ( 'NONE', #62, #463, #719, .T. ) ;
#157 = DIRECTION ( 'NONE',  ( 0.000000000000000000, 0.000000000000000000, -1.000000000000000000 ) ) ;
#158 = FACE_OUTER_BOUND ( 'NONE', #724, .T. ) ;
#159 = DIRECTION ( 'NONE',  ( 1.000000000000000000, 0.000000000000000000, 0.000000000000000000 ) ) ;
#160 = CARTESIAN_POINT ( 'NONE',  ( 0.000000000000000000, 0.000000000000000000, 3.099999999999999645 ) ) ;
#161 = AXIS2_PLACEMENT_3D ( 'NONE', #876, #46, #352 ) ;
#162 = PRODUCT_DEFINITION_FORMATION_WITH_SPECIFIED_SOURCE ( 'ANY', '', #744, .NOT_KNOWN. ) ;
#163 = ORIENTED_EDGE ( 'NONE', *, *, #459, .F. ) ;
#164 = DIRECTION ( 'NONE',  ( -0.000000000000000000, -0.000000000000000000, 1.000000000000000000 ) ) ;
#165 = DIRECTION ( 'NONE',  ( 1.000000000000000000, 0.000000000000000000, 0.000000000000000000 ) ) ;
#166 = B_SPLINE_CURVE_WITH_KNOTS ( 'NONE', 3,
 ( #120, #940, #862, #180, #473, #734 ),
 .UNSPECIFIED., .F., .F.,
 ( 4, 2, 4 ),
 ( 0.008070708573309215428, 0.009531758523483282314, 0.01099280847365735093 ),
 .UNSPECIFIED. ) ;
#167 = ORIENTED_EDGE ( 'NONE', *, *, #362, .T. ) ;
#168 = EDGE_CURVE ( 'NONE', #412, #472, #381, .T. ) ;
#169 = DIRECTION ( 'NONE',  ( -1.000000000000000000, 0.000000000000000000, 0.000000000000000000 ) ) ;
#170 = CARTESIAN_POINT ( 'NONE',  ( 0.8192951148925858851, -5.300482436767286920, -0.1983443223721645943 ) ) ;
#171 = DIRECTION ( 'NONE',  ( 1.000000000000000000, 0.000000000000000000, 0.000000000000000000 ) ) ;
#172 = EDGE_CURVE ( 'NONE', #276, #290, #870, .T. ) ;
#173 = CARTESIAN_POINT ( 'NONE',  ( 0.000000000000000000, 0.000000000000000000, 0.000000000000000000 ) ) ;
#174 = AXIS2_PLACEMENT_3D ( 'NONE', #848, #770, #80 ) ;
#175 = CONICAL_SURFACE ( 'NONE', #431, 3.000000000000000888, 0.9599310885968804774 ) ;
#176 = FACE_OUTER_BOUND ( 'NONE', #895, .T. ) ;
#177 = PLANE ( 'NONE',  #632 ) ;
#178 = FACE_OUTER_BOUND ( 'NONE', #325, .T. ) ;
#179 = ORIENTED_EDGE ( 'NONE', *, *, #241, .T. ) ;
#180 = CARTESIAN_POINT ( 'NONE',  ( -5.000000000000000000, 1.947085426416874210, -0.1996207071196897664 ) ) ;
#181 = CARTESIAN_POINT ( 'NONE',  ( -3.351853367131007122, 3.838309248099016635, 3.355140537739085031E-15 ) ) ;
#182 = ADVANCED_FACE ( 'NONE', ( #75 ), #780, .T. ) ;
#183 = ORIENTED_EDGE ( 'NONE', *, *, #377, .T. ) ;
#184 = CARTESIAN_POINT ( 'NONE',  ( -1.648146632869003980, -4.821944789745371551, -4.900000000000000355 ) ) ;
#185 = EDGE_LOOP ( 'NONE', ( #563, #655, #132, #284 ) ) ;
#186 = CARTESIAN_POINT ( 'NONE',  ( 0.000000000000000000, 0.000000000000000000, 0.000000000000000000 ) ) ;
#187 = CARTESIAN_POINT ( 'NONE',  ( -4.182066831946703367, 3.358985280702821541, -0.1739375980333743299 ) ) ;
#188 = CARTESIAN_POINT ( 'NONE',  ( 0.000000000000000000, 3.571428571428570731, 3.099999999999999645 ) ) ;
#189 = VERTEX_POINT ( 'NONE', #229 ) ;
#190 = CARTESIAN_POINT ( 'NONE',  ( -5.000000000000000888, -1.936377641173860242, -4.702630826755077820 ) ) ;
#191 = ORIENTED_EDGE ( 'NONE', *, *, #705, .T. ) ;
#192 = EDGE_LOOP ( 'NONE', ( #25, #333, #63 ) ) ;
#193 = FACE_OUTER_BOUND ( 'NONE', #647, .T. ) ;
#194 = DIRECTION ( 'NONE',  ( 1.000000000000000000, 0.000000000000000000, 0.000000000000000000 ) ) ;
#195 = B_SPLINE_CURVE_WITH_KNOTS ( 'NONE', 3,
 ( #204, #494, #795, #422 ),
 .UNSPECIFIED., .F., .F.,
 ( 4, 4 ),
 ( 2.380735200819460411E-07, 0.002921158011986707288 ),
 .UNSPECIFIED. ) ;
#196 = ORIENTED_EDGE ( 'NONE', *, *, #10, .F. ) ;
#197 = CARTESIAN_POINT ( 'NONE',  ( -1.257674520083185143E-14, -5.773502691896260863, -4.453418012614792865 ) ) ;
#198 = CIRCLE ( 'NONE', #696, 1.033333333333000148 ) ;
#199 = VECTOR ( 'NONE', #955, 1000.000000000000000 ) ;
#200 = ORIENTED_EDGE ( 'NONE', *, *, #277, .F. ) ;
#201 = VERTEX_POINT ( 'NONE', #301 ) ;
#202 = VECTOR ( 'NONE', #53, 1000.000000000000000 ) ;
#203 = LINE ( 'NONE', #493, #202 ) ;
#204 = CARTESIAN_POINT ( 'NONE',  ( 5.000000000000000888, -2.886751345948133096, -4.453418012614792865 ) ) ;
#205 = DIRECTION ( 'NONE',  ( 0.000000000000000000, 0.000000000000000000, 1.000000000000000000 ) ) ;
#206 = ORIENTED_EDGE ( 'NONE', *, *, #145, .T. ) ;
#207 = CARTESIAN_POINT ( 'NONE',  ( 0.000000000000000000, 0.000000000000000000, 2.066666666666999497 ) ) ;
#208 = EDGE_LOOP ( 'NONE', ( #209, #481, #163 ) ) ;
#209 = ORIENTED_EDGE ( 'NONE', *, *, #512, .T. ) ;
#210 = EDGE_CURVE ( 'NONE', #357, #463, #77, .T. ) ;
#211 = DIRECTION ( 'NONE',  ( 0.000000000000000000, -0.000000000000000000, 1.000000000000000000 ) ) ;
#212 = ADVANCED_FACE ( 'NONE', ( #677 ), #695, .F. ) ;
#213 = ORIENTED_EDGE ( 'NONE', *, *, #526, .F. ) ;
#214 = ORIENTED_EDGE ( 'NONE', *, *, #670, .F. ) ;
#215 = CARTESIAN_POINT ( 'NONE',  ( -4.180704885107416224, -3.359771601077115477, -4.701655677627838870 ) ) ;
#216 = AXIS2_PLACEMENT_3D ( 'NONE', #597, #9, #300 ) ;
#217 = DIRECTION ( 'NONE',  ( -1.000000000000000000, 0.000000000000000000, 0.000000000000000000 ) ) ;
#218 = CIRCLE ( 'NONE', #334, 3.000000000000000888 ) ;
#219 = CARTESIAN_POINT ( 'NONE',  ( 0.000000000000000000, 0.000000000000000000, 0.000000000000000000 ) ) ;
#220 = DIRECTION ( 'NONE',  ( 1.000000000000000000, 0.000000000000000000, 0.000000000000000000 ) ) ;
#221 = EDGE_CURVE ( 'NONE', #667, #50, #603, .T. ) ;
#222 = DIRECTION ( 'NONE',  ( 0.000000000000000000, 0.000000000000000000, 1.000000000000000000 ) ) ;
#223 = ORIENTED_EDGE ( 'NONE', *, *, #288, .F. ) ;
#224 = CARTESIAN_POINT ( 'NONE',  ( 0.000000000000000000, 0.000000000000000000, 0.000000000000000000 ) ) ;
#225 = DIRECTION ( 'NONE',  ( 1.000000000000000000, 0.000000000000000000, 0.000000000000000000 ) ) ;
#226 = CARTESIAN_POINT ( 'NONE',  ( 5.000000000000000000, 2.886751345948126879, -4.900000000000000355 ) ) ;
#227 = AXIS2_PLACEMENT_3D ( 'NONE', #609, #291, #220 ) ;
#228 = ORIENTED_EDGE ( 'NONE', *, *, #145, .F. ) ;
#229 = CARTESIAN_POINT ( 'NONE',  ( 3.000000000000000888, 3.673940397442060854E-16, -4.874600000000000044 ) ) ;
#230 = PLANE ( 'NONE',  #88 ) ;
#231 = DIRECTION ( 'NONE',  ( -0.000000000000000000, -0.000000000000000000, 1.000000000000000000 ) ) ;
#232 = LINE ( 'NONE', #11, #629 ) ;
#233 = DIRECTION ( 'NONE',  ( -0.000000000000000000, -0.000000000000000000, 1.000000000000000000 ) ) ;
#234 = B_SPLINE_CURVE_WITH_KNOTS ( 'NONE', 3,
 ( #394, #318, #932, #856, #552, #863, #452, #765 ),
 .UNSPECIFIED., .F., .F.,
 ( 4, 2, 2, 4 ),
 ( 0.002921158011986720298, 0.003648658599403072252, 0.004376159186819424639, 0.005831160361652130281 ),
 .UNSPECIFIED. ) ;
#235 = DIRECTION ( 'NONE',  ( -1.000000000000000000, 0.000000000000000000, 0.000000000000000000 ) ) ;
#236 = AXIS2_PLACEMENT_3D ( 'NONE', #691, #90, #371 ) ;
#237 = VECTOR ( 'NONE', #205, 1000.000000000000000 ) ;
#238 = EDGE_CURVE ( 'NONE', #50, #667, #251, .T. ) ;
#239 = ORIENTED_EDGE ( 'NONE', *, *, #843, .F. ) ;
#240 = DIRECTION ( 'NONE',  ( -0.000000000000000000, -0.000000000000000000, 1.000000000000000000 ) ) ;
#241 = EDGE_CURVE ( 'NONE', #108, #667, #546, .T. ) ;
#242 = DIRECTION ( 'NONE',  ( -0.000000000000000000, -0.000000000000000000, 1.000000000000000000 ) ) ;
#243 = DIRECTION ( 'NONE',  ( 1.000000000000000000, 0.000000000000000000, 0.000000000000000000 ) ) ;
#244 = FACE_OUTER_BOUND ( 'NONE', #69, .T. ) ;
#245 = CARTESIAN_POINT ( 'NONE',  ( -3.571428571428571175, 4.373738568383404417E-16, 9.480888224575629408 ) ) ;
#246 = CARTESIAN_POINT ( 'NONE',  ( -4.999999999999999112, -2.417244626924488049, -4.588952927922133718 ) ) ;
#247 = VERTEX_POINT ( 'NONE', #386 ) ;
#248 = DIRECTION ( 'NONE',  ( -1.000000000000000000, 0.000000000000000000, 0.000000000000000000 ) ) ;
#249 = ADVANCED_FACE ( 'NONE', ( #309 ), #900, .T. ) ;
#250 = FACE_BOUND ( 'NONE', #791, .T. ) ;
#251 = CIRCLE ( 'NONE', #824, 4.999999999999999112 ) ;
#252 = CARTESIAN_POINT ( 'NONE',  ( 2.074714256722482109, -4.575665857285986071, -0.01055556052339343825 ) ) ;
#253 = AXIS2_PLACEMENT_3D ( 'NONE', #707, #22, #324 ) ;
#254 = ORIENTED_EDGE ( 'NONE', *, *, #156, .F. ) ;
#255 = DIRECTION ( 'NONE',  ( -1.000000000000000000, 0.000000000000000000, 0.000000000000000000 ) ) ;
#256 = CARTESIAN_POINT ( 'NONE',  ( -2.287832656137188003, 4.452621892014636096, 3.315851644184835446E-15 ) ) ;
#257 = ORIENTED_EDGE ( 'NONE', *, *, #694, .F. ) ;
#258 = CARTESIAN_POINT ( 'NONE',  ( -1.257674520083185143E-14, -5.773502691896260863, -4.453418012614792865 ) ) ;
#259 = ORIENTED_EDGE ( 'NONE', *, *, #736, .T. ) ;
#260 = ORIENTED_EDGE ( 'NONE', *, *, #830, .F. ) ;
#261 =( LENGTH_UNIT ( ) NAMED_UNIT ( * ) SI_UNIT ( .MILLI., .METRE. ) );
#262 = CARTESIAN_POINT ( 'NONE',  ( 3.966666666666998964, 0.000000000000000000, 3.099999999999999645 ) ) ;
#263 = CARTESIAN_POINT ( 'NONE',  ( -4.999999999999999112, 0.4881033300985032630, -4.900000000000000355 ) ) ;
#264 = EDGE_CURVE ( 'NONE', #418, #771, #330, .T. ) ;
#265 = ORIENTED_EDGE ( 'NONE', *, *, #2, .F. ) ;
#266 = CARTESIAN_POINT ( 'NONE',  ( 3.571428571428570731, 0.000000000000000000, 3.099999999999999645 ) ) ;
#267 = ORIENTED_EDGE ( 'NONE', *, *, #118, .F. ) ;
#268 = CARTESIAN_POINT ( 'NONE',  ( 0.000000000000000000, 0.000000000000000000, 0.000000000000000000 ) ) ;
#269 = ORIENTED_EDGE ( 'NONE', *, *, #709, .F. ) ;
#270 = DIRECTION ( 'NONE',  ( -0.000000000000000000, -0.000000000000000000, 1.000000000000000000 ) ) ;
#271 = CARTESIAN_POINT ( 'NONE',  ( -0.4079457818577096884, 5.537975084925939484, -0.3106000600989326510 ) ) ;
#272 = TOROIDAL_SURFACE ( 'NONE', #227, 3.966666666666998964, 1.033333333332999926 ) ;
#273 = ORIENTED_EDGE ( 'NONE', *, *, #622, .T. ) ;
#274 = CARTESIAN_POINT ( 'NONE',  ( 5.000000000000000000, -0.4878135028931861461, 5.573476792933295245E-16 ) ) ;
#275 = CIRCLE ( 'NONE', #826, 3.571428571428571619 ) ;
#276 = VERTEX_POINT ( 'NONE', #768 ) ;
#277 = EDGE_CURVE ( 'NONE', #391, #879, #532, .T. ) ;
#278 = CARTESIAN_POINT ( 'NONE',  ( -4.999999999999999112, 6.123233995736765296E-16, 2.066666666666666430 ) ) ;
#279 = FACE_OUTER_BOUND ( 'NONE', #208, .T. ) ;
#280 = ORIENTED_EDGE ( 'NONE', *, *, #462, .F. ) ;
#281 = DIRECTION ( 'NONE',  ( -0.8660254037844381525, -0.5000000000000008882, 0.000000000000000000 ) ) ;
#282 = CARTESIAN_POINT ( 'NONE',  ( 5.000000000000000888, 0.000000000000000000, -4.900000000000000355 ) ) ;
#283 = DIRECTION ( 'NONE',  ( 0.000000000000000000, 0.000000000000000000, -1.000000000000000000 ) ) ;
#284 = ORIENTED_EDGE ( 'NONE', *, *, #897, .T. ) ;
#285 = LINE ( 'NONE', #643, #574 ) ;
#286 = CARTESIAN_POINT ( 'NONE',  ( -5.000000000000000000, -2.886751345948134428, -4.900000000000000355 ) ) ;
#287 = FACE_OUTER_BOUND ( 'NONE', #946, .T. ) ;
#288 = EDGE_CURVE ( 'NONE', #112, #201, #534, .T. ) ;
#289 = B_SPLINE_CURVE_WITH_KNOTS ( 'NONE', 3,
 ( #573, #187, #181, #885 ),
 .UNSPECIFIED., .F., .F.,
 ( 4, 4 ),
 ( 2.380735200819460411E-07, 0.002921158011986710323 ),
 .UNSPECIFIED. ) ;
#290 = VERTEX_POINT ( 'NONE', #19 ) ;
#291 = DIRECTION ( 'NONE',  ( -0.000000000000000000, -0.000000000000000000, 1.000000000000000000 ) ) ;
#292 = AXIS2_PLACEMENT_3D ( 'NONE', #219, #980, #975 ) ;
#293 = EDGE_CURVE ( 'NONE', #117, #62, #845, .T. ) ;
#294 = ORIENTED_EDGE ( 'NONE', *, *, #434, .F. ) ;
#295 = PRODUCT_DEFINITION_CONTEXT ( 'detailed design', #14, 'design' ) ;
#296 = CARTESIAN_POINT ( 'NONE',  ( -3.000000000000000888, 3.673940397442060854E-16, -4.900000000000001243 ) ) ;
#297 = CARTESIAN_POINT ( 'NONE',  ( -5.000000000000000000, -2.886751345948134428, -0.4465819873852080457 ) ) ;
#298 = B_SPLINE_CURVE_WITH_KNOTS ( 'NONE', 3,
 ( #129, #342, #338, #638, #948, #875 ),
 .UNSPECIFIED., .F., .F.,
 ( 4, 2, 4 ),
 ( 0.005150343764683555127, 0.006610526168996384844, 0.008070708573309215428 ),
 .UNSPECIFIED. ) ;
#299 = DIRECTION ( 'NONE',  ( -0.000000000000000000, -0.000000000000000000, 1.000000000000000000 ) ) ;
#300 = DIRECTION ( 'NONE',  ( 1.000000000000000000, 0.000000000000000000, 0.000000000000000000 ) ) ;
#301 = CARTESIAN_POINT ( 'NONE',  ( -5.000000000000000000, 2.886751345948125991, -0.4465819873852056587 ) ) ;
#302 = CARTESIAN_POINT ( 'NONE',  ( 3.966666666666998964, 0.000000000000000000, 2.066666666666999497 ) ) ;
#303 = CIRCLE ( 'NONE', #57, 3.000000000000000888 ) ;
#304 = EDGE_CURVE ( 'NONE', #636, #962, #621, .T. ) ;
#305 = AXIS2_PLACEMENT_3D ( 'NONE', #652, #964, #818 ) ;
#306 = AXIS2_PLACEMENT_3D ( 'NONE', #104, #634, #625 ) ;
#307 = CARTESIAN_POINT ( 'NONE',  ( -2.500000000000002220, -4.330127018922190985, 1.001543065824778275E-15 ) ) ;
#308 = FACE_OUTER_BOUND ( 'NONE', #793, .T. ) ;
#309 = FACE_OUTER_BOUND ( 'NONE', #192, .T. ) ;
#310 = DIRECTION ( 'NONE',  ( 0.000000000000000000, 0.000000000000000000, -1.000000000000000000 ) ) ;
#311 = DIRECTION ( 'NONE',  ( 1.000000000000000000, 0.000000000000000000, 0.000000000000000000 ) ) ;
#312 = EDGE_CURVE ( 'NONE', #801, #391, #393, .T. ) ;
#313 = CIRCLE ( 'NONE', #577, 3.571428571428570731 ) ;
#314 = VECTOR ( 'NONE', #113, 1000.000000000000000 ) ;
#315 = B_SPLINE_CURVE_WITH_KNOTS ( 'NONE', 3,
 ( #583, #817, #148, #455, #6, #375 ),
 .UNSPECIFIED., .F., .F.,
 ( 4, 2, 4 ),
 ( 0.008070708573309213693, 0.009531758523483285783, 0.01099280847365735961 ),
 .UNSPECIFIED. ) ;
#316 = CARTESIAN_POINT ( 'NONE',  ( 0.000000000000000000, 0.000000000000000000, 3.099999999999999645 ) ) ;
#317 = ORIENTED_EDGE ( 'NONE', *, *, #73, .F. ) ;
#318 = CARTESIAN_POINT ( 'NONE',  ( 2.712167343862819102, 4.207632145829749426, 3.099011209687730220E-15 ) ) ;
#319 = DIRECTION ( 'NONE',  ( 0.000000000000000000, 0.000000000000000000, 1.000000000000000000 ) ) ;
#320 = FACE_OUTER_BOUND ( 'NONE', #100, .T. ) ;
#321 = ADVANCED_FACE ( 'NONE', ( #176 ), #470, .F. ) ;
#322 = EDGE_CURVE ( 'NONE', #62, #357, #890, .T. ) ;
#323 =( NAMED_UNIT ( * ) SI_UNIT ( $, .STERADIAN. ) SOLID_ANGLE_UNIT ( ) );
#324 = DIRECTION ( 'NONE',  ( -1.000000000000000000, 0.000000000000000000, 0.000000000000000000 ) ) ;
#325 = EDGE_LOOP ( 'NONE', ( #792, #12, #78 ) ) ;
#326 = DIRECTION ( 'NONE',  ( 1.000000000000000000, 0.000000000000000000, 0.000000000000000000 ) ) ;
#327 = ADVANCED_FACE ( 'NONE', ( #250, #869 ), #713, .F. ) ;
#328 = FILL_AREA_STYLE ('',( #810 ) ) ;
#329 = CARTESIAN_POINT ( 'NONE',  ( 4.999999999999999112, -2.417244626924485829, -4.588952927922133718 ) ) ;
#330 = CIRCLE ( 'NONE', #836, 3.966666666666998964 ) ;
#331 = CARTESIAN_POINT ( 'NONE',  ( 0.000000000000000000, 0.000000000000000000, -25.03750572909317285 ) ) ;
#332 = CONICAL_SURFACE ( 'NONE', #174, 3.000000000000000888, 0.9599310885968804774 ) ;
#333 = ORIENTED_EDGE ( 'NONE', *, *, #774, .F. ) ;
#334 = AXIS2_PLACEMENT_3D ( 'NONE', #24, #715, #326 ) ;
#335 = ADVANCED_FACE ( 'NONE', ( #950 ), #527, .T. ) ;
#336 = CARTESIAN_POINT ( 'NONE',  ( -5.000000000000000000, -2.886751345948134428, -4.453418012614792865 ) ) ;
#337 = CARTESIAN_POINT ( 'NONE',  ( -2.074714256722480776, 4.575665857285979854, -4.889444439476609894 ) ) ;
#338 = CARTESIAN_POINT ( 'NONE',  ( -5.000000000000000888, -1.936377641173859798, -0.1973691732449221747 ) ) ;
#339 = CARTESIAN_POINT ( 'NONE',  ( -4.592054218142292754, -3.122278952918454920, -0.3106000600989326510 ) ) ;
#340 = ORIENTED_EDGE ( 'NONE', *, *, #519, .F. ) ;
#341 = ORIENTED_EDGE ( 'NONE', *, *, #135, .T. ) ;
#342 = CARTESIAN_POINT ( 'NONE',  ( -4.999999999999999112, -2.417244626924488937, -0.3110470720778667486 ) ) ;
#343 = CARTESIAN_POINT ( 'NONE',  ( 0.000000000000000000, 0.000000000000000000, 2.066666666666999497 ) ) ;
#344 = B_SPLINE_CURVE_WITH_KNOTS ( 'NONE', 3,
 ( #723, #40, #566, #122, #417, #48 ),
 .UNSPECIFIED., .F., .F.,
 ( 4, 2, 4 ),
 ( 0.008070708573309215428, 0.009531758523483287518, 0.01099280847365735961 ),
 .UNSPECIFIED. ) ;
#345 = LINE ( 'NONE', #886, #237 ) ;
#346 = EDGE_CURVE ( 'NONE', #189, #894, #767, .T. ) ;
#347 = ORIENTED_EDGE ( 'NONE', *, *, #902, .T. ) ;
#348 = DIRECTION ( 'NONE',  ( 1.000000000000000000, 0.000000000000000000, 0.000000000000000000 ) ) ;
#349 = ORIENTED_EDGE ( 'NONE', *, *, #531, .T. ) ;
#350 = CARTESIAN_POINT ( 'NONE',  ( -0.4079457818577097994, 5.537975084925940372, -4.589399939901068315 ) ) ;
#351 = CARTESIAN_POINT ( 'NONE',  ( 3.571428571428571619, 0.000000000000000000, 2.066666666666999497 ) ) ;
#352 = DIRECTION ( 'NONE',  ( -1.000000000000000000, 0.000000000000000000, 0.000000000000000000 ) ) ;
#353 = PLANE ( 'NONE',  #489 ) ;
#354 = EDGE_CURVE ( 'NONE', #636, #628, #551, .T. ) ;
#355 = ORIENTED_EDGE ( 'NONE', *, *, #47, .F. ) ;
#356 = AXIS2_PLACEMENT_3D ( 'NONE', #448, #762, #380 ) ;
#357 = VERTEX_POINT ( 'NONE', #461 ) ;
#358 = CARTESIAN_POINT ( 'NONE',  ( -1.443735181952767732, 4.939961795957296786, -0.08165819712377063444 ) ) ;
#359 = ORIENTED_EDGE ( 'NONE', *, *, #312, .F. ) ;
#360 = ORIENTED_EDGE ( 'NONE', *, *, #221, .F. ) ;
#361 = VERTEX_POINT ( 'NONE', #775 ) ;
#362 = EDGE_CURVE ( 'NONE', #131, #673, #963, .T. ) ;
#363 = ORIENTED_EDGE ( 'NONE', *, *, #681, .F. ) ;
#364 = ORIENTED_EDGE ( 'NONE', *, *, #599, .T. ) ;
#365 = CARTESIAN_POINT ( 'NONE',  ( 0.8179331680532996307, 5.301268757141563981, -4.726062401966625082 ) ) ;
#366 = EDGE_CURVE ( 'NONE', #628, #636, #467, .T. ) ;
#367 = ORIENTED_EDGE ( 'NONE', *, *, #238, .F. ) ;
#368 = CLOSED_SHELL ( 'NONE', ( #543, #111, #608, #321, #559, #89, #212, #56, #567, #644, #335, #812, #930, #828, #631, #851, #864, #657, #910, #823, #249, #38, #182, #737, #501, #686, #921, #778, #595, #929, #327, #544, #850 ) ) ;
#369 = CARTESIAN_POINT ( 'NONE',  ( -4.592054218142292754, -3.122278952918454920, -4.589399939901067427 ) ) ;
#370 = VECTOR ( 'NONE', #91, 1000.000000000000000 ) ;
#371 = DIRECTION ( 'NONE',  ( 1.000000000000000000, 0.000000000000000000, 0.000000000000000000 ) ) ;
#372 = AXIS2_PLACEMENT_3D ( 'NONE', #697, #548, #716 ) ;
#373 = ORIENTED_EDGE ( 'NONE', *, *, #462, .T. ) ;
#374 = CARTESIAN_POINT ( 'NONE',  ( 0.000000000000000000, 0.000000000000000000, 0.000000000000000000 ) ) ;
#375 = CARTESIAN_POINT ( 'NONE',  ( 5.000000000000000000, 2.886751345948134428, -4.453418012614792865 ) ) ;
#376 = DIRECTION ( 'NONE',  ( -0.000000000000000000, -0.000000000000000000, 1.000000000000000000 ) ) ;
#377 = EDGE_CURVE ( 'NONE', #424, #247, #234, .T. ) ;
#378 = EDGE_CURVE ( 'NONE', #463, #947, #589, .T. ) ;
#379 = CARTESIAN_POINT ( 'NONE',  ( -1.257674520083185143E-14, -5.773502691896260863, -0.4465819873852080457 ) ) ;
#380 = DIRECTION ( 'NONE',  ( -1.000000000000000000, 0.000000000000000000, 0.000000000000000000 ) ) ;
#381 = B_SPLINE_CURVE_WITH_KNOTS ( 'NONE', 3,
 ( #914, #365, #143, #8 ),
 .UNSPECIFIED., .F., .F.,
 ( 4, 4 ),
 ( 2.380735200837824350E-07, 0.002921158011986720298 ),
 .UNSPECIFIED. ) ;
#382 = CARTESIAN_POINT ( 'NONE',  ( 5.000000000000000888, 0.000000000000000000, -4.900000000000000355 ) ) ;
#383 = CARTESIAN_POINT ( 'NONE',  ( 0.000000000000000000, 5.773502691896260863, -0.4465819873852080457 ) ) ;
#384 = AXIS2_PLACEMENT_3D ( 'NONE', #13, #240, #311 ) ;
#385 = AXIS2_PLACEMENT_3D ( 'NONE', #173, #406, #255 ) ;
#386 = CARTESIAN_POINT ( 'NONE',  ( 5.000000000000000000, 2.886751345948134428, -0.4465819873852080457 ) ) ;
#387 = FACE_OUTER_BOUND ( 'NONE', #684, .T. ) ;
#388 = ORIENTED_EDGE ( 'NONE', *, *, #705, .F. ) ;
#389 = EDGE_CURVE ( 'NONE', #967, #115, #763, .T. ) ;
#390 = DIRECTION ( 'NONE',  ( 0.000000000000000000, 0.000000000000000000, 1.000000000000000000 ) ) ;
#391 = VERTEX_POINT ( 'NONE', #487 ) ;
#392 = CARTESIAN_POINT ( 'NONE',  ( 2.500000000000003109, -4.330127018922190985, 1.001543065824778275E-15 ) ) ;
#393 = CIRCLE ( 'NONE', #72, 3.571428571428571619 ) ;
#394 = CARTESIAN_POINT ( 'NONE',  ( 2.500000000000003553, 4.330127018922190985, 1.001543065824778275E-15 ) ) ;
#395 = AXIS2_PLACEMENT_3D ( 'NONE', #444, #376, #679 ) ;
#396 = CARTESIAN_POINT ( 'NONE',  ( -3.351853367131005790, 3.838309248099017079, -4.900000000000003908 ) ) ;
#397 = DIRECTION ( 'NONE',  ( 0.000000000000000000, 0.000000000000000000, -1.000000000000000000 ) ) ;
#398 = DIRECTION ( 'NONE',  ( -0.000000000000000000, -0.000000000000000000, 1.000000000000000000 ) ) ;
#399 = CARTESIAN_POINT ( 'NONE',  ( 0.000000000000000000, 0.000000000000000000, -4.874600000000000044 ) ) ;
#400 = CARTESIAN_POINT ( 'NONE',  ( -2.074714256722481664, 4.575665857285980742, -0.01055556052338980748 ) ) ;
#401 = CARTESIAN_POINT ( 'NONE',  ( 0.4079457818577044703, -5.537975084925949254, -0.3106000600989376470 ) ) ;
#402 = EDGE_LOOP ( 'NONE', ( #317, #661, #807 ) ) ;
#403 = DIRECTION ( 'NONE',  ( -0.000000000000000000, -0.000000000000000000, 1.000000000000000000 ) ) ;
#404 = ORIENTED_EDGE ( 'NONE', *, *, #84, .F. ) ;
#405 = ORIENTED_EDGE ( 'NONE', *, *, #210, .T. ) ;
#406 = DIRECTION ( 'NONE',  ( 0.000000000000000000, 0.000000000000000000, -1.000000000000000000 ) ) ;
#407 = CARTESIAN_POINT ( 'NONE',  ( -2.712167343862822211, -4.207632145829752979, -3.144609816681589023E-16 ) ) ;
#408 = CARTESIAN_POINT ( 'NONE',  ( -5.000000000000000000, 2.886751345948134428, -4.453418012614792865 ) ) ;
#409 = CONICAL_SURFACE ( 'NONE', #456, 5.000000000000000888, 1.047197551196595411 ) ;
#410 = ORIENTED_EDGE ( 'NONE', *, *, #10, .T. ) ;
#411 = CARTESIAN_POINT ( 'NONE',  ( 5.000000000000000888, -2.886751345948133096, -4.453418012614792865 ) ) ;
#412 = VERTEX_POINT ( 'NONE', #819 ) ;
#413 = CARTESIAN_POINT ( 'NONE',  ( 0.000000000000000000, 0.000000000000000000, -4.900000000000000355 ) ) ;
#414 = CARTESIAN_POINT ( 'NONE',  ( 0.000000000000000000, 0.000000000000000000, -25.03750572909317285 ) ) ;
#415 = CARTESIAN_POINT ( 'NONE',  ( 5.000000000000000000, -0.4878135028931867012, -4.900000000000001243 ) ) ;
#416 = EDGE_CURVE ( 'NONE', #108, #62, #604, .T. ) ;
#417 = CARTESIAN_POINT ( 'NONE',  ( 5.000000000000000000, 2.419979747126330238, -0.3118366332702867116 ) ) ;
#418 = VERTEX_POINT ( 'NONE', #262 ) ;
#419 = ORIENTED_EDGE ( 'NONE', *, *, #304, .F. ) ;
#420 = DIRECTION ( 'NONE',  ( -0.000000000000000000, 0.000000000000000000, -1.000000000000000000 ) ) ;
#421 = DIRECTION ( 'NONE',  ( -0.000000000000000000, -0.000000000000000000, 1.000000000000000000 ) ) ;
#422 = CARTESIAN_POINT ( 'NONE',  ( 2.500000000000003997, -4.330127018922192761, -4.900000000000000355 ) ) ;
#423 = ORIENTED_EDGE ( 'NONE', *, *, #754, .F. ) ;
#424 = VERTEX_POINT ( 'NONE', #722 ) ;
#425 = FACE_OUTER_BOUND ( 'NONE', #82, .T. ) ;
#426 = DIRECTION ( 'NONE',  ( -1.000000000000000000, 0.000000000000000000, 0.000000000000000000 ) ) ;
#427 = CONICAL_SURFACE ( 'NONE', #683, 5.000000000000000888, 1.047197551196595411 ) ;
#428 = ORIENTED_EDGE ( 'NONE', *, *, #880, .F. ) ;
#429 = CIRCLE ( 'NONE', #606, 5.000000000000000888 ) ;
#430 = EDGE_CURVE ( 'NONE', #636, #189, #121, .T. ) ;
#431 = AXIS2_PLACEMENT_3D ( 'NONE', #399, #952, #944 ) ;
#432 = EDGE_LOOP ( 'NONE', ( #751, #760, #891, #495 ) ) ;
#433 = CARTESIAN_POINT ( 'NONE',  ( -2.500000000000000000, 3.061616997868383141E-16, 2.066666666666999497 ) ) ;
#434 = EDGE_CURVE ( 'NONE', #391, #801, #275, .T. ) ;
#435 = CARTESIAN_POINT ( 'NONE',  ( 4.592054218142290978, 3.122278952918448258, -4.589399939901070979 ) ) ;
#436 = UNCERTAINTY_MEASURE_WITH_UNIT (LENGTH_MEASURE( 1.000000000000000082E-05 ), #261, 'distance_accuracy_value', 'NONE');
#437 = ORIENTED_EDGE ( 'NONE', *, *, #264, .F. ) ;
#438 = CYLINDRICAL_SURFACE ( 'NONE', #86, 2.500000000000000000 ) ;
#439 = DIRECTION ( 'NONE',  ( 0.5000000000000007772, 0.8660254037844382635, -0.000000000000000000 ) ) ;
#440 = ORIENTED_EDGE ( 'NONE', *, *, #264, .T. ) ;
#441 = DIRECTION ( 'NONE',  ( -1.000000000000000000, 0.000000000000000000, 0.000000000000000000 ) ) ;
#442 = VECTOR ( 'NONE', #525, 1000.000000000000000 ) ;
#443 = CARTESIAN_POINT ( 'NONE',  ( 0.000000000000000000, 0.000000000000000000, -4.900000000000000355 ) ) ;
#444 = CARTESIAN_POINT ( 'NONE',  ( 0.000000000000000000, 0.000000000000000000, -4.900000000000000355 ) ) ;
#445 = EDGE_CURVE ( 'NONE', #131, #894, #868, .T. ) ;
#446 = ORIENTED_EDGE ( 'NONE', *, *, #844, .F. ) ;
#447 = DIRECTION ( 'NONE',  ( -1.000000000000000000, 0.000000000000000000, 0.000000000000000000 ) ) ;
#448 = CARTESIAN_POINT ( 'NONE',  ( 0.000000000000000000, 0.000000000000000000, -4.900000000000000355 ) ) ;
#449 = EDGE_CURVE ( 'NONE', #460, #979, #637, .T. ) ;
#450 = DIRECTION ( 'NONE',  ( -1.000000000000000000, 1.224646799147352468E-16, 0.000000000000000000 ) ) ;
#451 = DIRECTION ( 'NONE',  ( 0.000000000000000000, -1.000000000000000000, 0.000000000000000000 ) ) ;
#452 = CARTESIAN_POINT ( 'NONE',  ( 4.592054218142290978, 3.122278952918449146, -0.3106000600989297644 ) ) ;
#453 = CARTESIAN_POINT ( 'NONE',  ( 0.000000000000000000, 0.000000000000000000, 2.066666666666666430 ) ) ;
#454 = EDGE_CURVE ( 'NONE', #460, #115, #536, .T. ) ;
#455 = CARTESIAN_POINT ( 'NONE',  ( 5.000000000000000000, 1.947085426416881093, -4.700379292880308313 ) ) ;
#456 = AXIS2_PLACEMENT_3D ( 'NONE', #598, #283, #217 ) ;
#457 = CONICAL_SURFACE ( 'NONE', #35, 5.000000000000000888, 1.047197551196595411 ) ;
#458 = B_SPLINE_CURVE_WITH_KNOTS ( 'NONE', 3,
 ( #61, #256, #400, #971, #358, #130, #271, #660 ),
 .UNSPECIFIED., .F., .F.,
 ( 4, 2, 2, 4 ),
 ( 0.002921158011986710323, 0.003648658599403065746, 0.004376159186819421169, 0.005831160361652132015 ),
 .UNSPECIFIED. ) ;
#459 = EDGE_CURVE ( 'NONE', #488, #139, #458, .T. ) ;
#460 = VERTEX_POINT ( 'NONE', #653 ) ;
#461 = CARTESIAN_POINT ( 'NONE',  ( -1.257674520083185143E-14, -5.773502691896260863, -0.4465819873852080457 ) ) ;
#462 = EDGE_CURVE ( 'NONE', #201, #488, #289, .T. ) ;
#463 = VERTEX_POINT ( 'NONE', #587 ) ;
#464 = DIRECTION ( 'NONE',  ( -0.000000000000000000, -0.000000000000000000, 1.000000000000000000 ) ) ;
#465 = CARTESIAN_POINT ( 'NONE',  ( 0.000000000000000000, 0.000000000000000000, -4.900000000000000355 ) ) ;
#466 =( NAMED_UNIT ( * ) PLANE_ANGLE_UNIT ( ) SI_UNIT ( $, .RADIAN. ) );
#467 = CIRCLE ( 'NONE', #253, 2.500000000000000000 ) ;
#468 = CIRCLE ( 'NONE', #74, 5.000000000000000888 ) ;
#469 = EDGE_CURVE ( 'NONE', #967, #460, #195, .T. ) ;
#470 = CYLINDRICAL_SURFACE ( 'NONE', #700, 3.000000000000000888 ) ;
#471 = CARTESIAN_POINT ( 'NONE',  ( -5.000000000000000000, 2.886751345948134428, -4.453418012614792865 ) ) ;
#472 = VERTEX_POINT ( 'NONE', #639 ) ;
#473 = CARTESIAN_POINT ( 'NONE',  ( -5.000000000000000000, 2.419979747126322689, -0.3118366332702848243 ) ) ;
#474 = CARTESIAN_POINT ( 'NONE',  ( -2.925285743277526329, -4.084588180558410109, -0.01055556052339304621 ) ) ;
#475 = ORIENTED_EDGE ( 'NONE', *, *, #362, .F. ) ;
#476 = CARTESIAN_POINT ( 'NONE',  ( -5.000000000000000000, 0.000000000000000000, -4.900000000000000355 ) ) ;
#477 = ORIENTED_EDGE ( 'NONE', *, *, #970, .F. ) ;
#478 = LINE ( 'NONE', #550, #314 ) ;
#479 = CARTESIAN_POINT ( 'NONE',  ( 2.287832656137189780, -4.452621892014642313, -4.899999999999999467 ) ) ;
#480 = DIRECTION ( 'NONE',  ( 0.000000000000000000, 0.000000000000000000, -1.000000000000000000 ) ) ;
#481 = ORIENTED_EDGE ( 'NONE', *, *, #531, .F. ) ;
#482 = DIRECTION ( 'NONE',  ( 1.000000000000000000, 0.000000000000000000, 0.000000000000000000 ) ) ;
#483 = ORIENTED_EDGE ( 'NONE', *, *, #917, .T. ) ;
#484 = EDGE_CURVE ( 'NONE', #463, #538, #521, .T. ) ;
#485 = ORIENTED_EDGE ( 'NONE', *, *, #135, .F. ) ;
#486 = CARTESIAN_POINT ( 'NONE',  ( 0.000000000000000000, 0.000000000000000000, 3.099999999999999645 ) ) ;
#487 = CARTESIAN_POINT ( 'NONE',  ( -3.571428571428572063, 4.373738568383405403E-16, 2.066666666666999497 ) ) ;
#488 = VERTEX_POINT ( 'NONE', #966 ) ;
#489 = AXIS2_PLACEMENT_3D ( 'NONE', #934, #576, #790 ) ;
#490 = CARTESIAN_POINT ( 'NONE',  ( 4.999999999999999112, 0.000000000000000000, 1.001543065824778275E-15 ) ) ;
#491 = ORIENTED_EDGE ( 'NONE', *, *, #366, .T. ) ;
#492 = DIRECTION ( 'NONE',  ( 1.000000000000000000, 0.000000000000000000, 0.000000000000000000 ) ) ;
#493 = CARTESIAN_POINT ( 'NONE',  ( 5.000000000000000000, -2.886751345948133540, -4.900000000000000355 ) ) ;
#494 = CARTESIAN_POINT ( 'NONE',  ( 4.182066831946704255, -3.358985280702827758, -4.726062401966623305 ) ) ;
#495 = ORIENTED_EDGE ( 'NONE', *, *, #346, .F. ) ;
#496 = CARTESIAN_POINT ( 'NONE',  ( -4.182066831946700702, 3.358985280702822873, -4.726062401966625970 ) ) ;
#497 = ORIENTED_EDGE ( 'NONE', *, *, #613, .T. ) ;
#498 = ORIENTED_EDGE ( 'NONE', *, *, #917, .F. ) ;
#499 = DIRECTION ( 'NONE',  ( 0.000000000000000000, -0.000000000000000000, 1.000000000000000000 ) ) ;
#500 = CARTESIAN_POINT ( 'NONE',  ( 0.8192951148925858851, -5.300482436767286920, -4.701655677627835317 ) ) ;
#501 = ADVANCED_FACE ( 'NONE', ( #279 ), #409, .T. ) ;
#502 = EDGE_LOOP ( 'NONE', ( #866, #267, #265, #214, #581, #340 ) ) ;
#503 = ORIENTED_EDGE ( 'NONE', *, *, #149, .T. ) ;
#504 = DIRECTION ( 'NONE',  ( -0.5000000000000008882, 0.8660254037844381525, 0.000000000000000000 ) ) ;
#505 = DIRECTION ( 'NONE',  ( 0.8660254037844383745, -0.5000000000000006661, 0.000000000000000000 ) ) ;
#506 = EDGE_CURVE ( 'NONE', #290, #538, #892, .T. ) ;
#507 = AXIS2_PLACEMENT_3D ( 'NONE', #142, #750, #511 ) ;
#508 = AXIS2_PLACEMENT_3D ( 'NONE', #52, #499, #651 ) ;
#509 = AXIS2_PLACEMENT_3D ( 'NONE', #542, #540, #593 ) ;
#510 = ORIENTED_EDGE ( 'NONE', *, *, #897, .F. ) ;
#511 = DIRECTION ( 'NONE',  ( -1.000000000000000000, 1.776356839400250465E-15, 0.000000000000000000 ) ) ;
#512 = EDGE_CURVE ( 'NONE', #488, #424, #978, .T. ) ;
#513 = DIRECTION ( 'NONE',  ( 0.000000000000000000, -0.000000000000000000, 1.000000000000000000 ) ) ;
#514 = CARTESIAN_POINT ( 'NONE',  ( -2.500000000000004441, 4.330127018922191873, -4.900000000000000355 ) ) ;
#515 = CARTESIAN_POINT ( 'NONE',  ( -5.000000000000000000, -2.886751345948134428, -4.900000000000000355 ) ) ;
#516 = CARTESIAN_POINT ( 'NONE',  ( -5.000000000000000000, -2.886751345948134428, -4.453418012614792865 ) ) ;
#517 = FACE_OUTER_BOUND ( 'NONE', #55, .T. ) ;
#518 = B_SPLINE_CURVE_WITH_KNOTS ( 'NONE', 3,
 ( #336, #246, #190, #547, #787, #99 ),
 .UNSPECIFIED., .F., .F.,
 ( 4, 2, 4 ),
 ( 0.005150343764683555127, 0.006610526168996384844, 0.008070708573309215428 ),
 .UNSPECIFIED. ) ;
#519 = EDGE_CURVE ( 'NONE', #276, #460, #672, .T. ) ;
#520 = FACE_OUTER_BOUND ( 'NONE', #656, .T. ) ;
#521 = B_SPLINE_CURVE_WITH_KNOTS ( 'NONE', 3,
 ( #114, #407, #474, #735, #54, #37, #339, #949 ),
 .UNSPECIFIED., .F., .F.,
 ( 4, 2, 2, 4 ),
 ( 0.002921158011986723334, 0.003648658599403076155, 0.004376159186819428108, 0.005831160361652132883 ),
 .UNSPECIFIED. ) ;
#522 = VECTOR ( 'NONE', #222, 1000.000000000000000 ) ;
#523 = AXIS2_PLACEMENT_3D ( 'NONE', #87, #957, #712 ) ;
#524 = CARTESIAN_POINT ( 'NONE',  ( -2.925285743277526329, -4.084588180558410109, -4.889444439476607229 ) ) ;
#525 = DIRECTION ( 'NONE',  ( 0.000000000000000000, 0.000000000000000000, 1.000000000000000000 ) ) ;
#526 = EDGE_CURVE ( 'NONE', #115, #361, #315, .T. ) ;
#527 = PLANE ( 'NONE',  #849 ) ;
#528 = CARTESIAN_POINT ( 'NONE',  ( 0.000000000000000000, 0.000000000000000000, -4.900000000000001243 ) ) ;
#529 = CARTESIAN_POINT ( 'NONE',  ( 5.000000000000000000, 2.886751345948126879, -4.900000000000000355 ) ) ;
#530 = B_SPLINE_CURVE_WITH_KNOTS ( 'NONE', 3,
 ( #151, #783, #872, #116, #274, #490 ),
 .UNSPECIFIED., .F., .F.,
 ( 4, 2, 4 ),
 ( 0.005150343764683558596, 0.006610526168996386578, 0.008070708573309215428 ),
 .UNSPECIFIED. ) ;
#531 = EDGE_CURVE ( 'NONE', #139, #424, #95, .T. ) ;
#532 = LINE ( 'NONE', #245, #7 ) ;
#533 = CARTESIAN_POINT ( 'NONE',  ( 1.648146632868997319, 4.821944789745368887, 2.978655611493526854E-15 ) ) ;
#534 = LINE ( 'NONE', #772, #370 ) ;
#535 = AXIS2_PLACEMENT_3D ( 'NONE', #453, #624, #537 ) ;
#536 = CIRCLE ( 'NONE', #938, 5.000000000000000888 ) ;
#537 = DIRECTION ( 'NONE',  ( 1.000000000000000000, 0.000000000000000000, 0.000000000000000000 ) ) ;
#538 = VERTEX_POINT ( 'NONE', #297 ) ;
#539 = CARTESIAN_POINT ( 'NONE',  ( 0.000000000000000000, 0.000000000000000000, -4.900000000000001243 ) ) ;
#540 = DIRECTION ( 'NONE',  ( -0.000000000000000000, -0.000000000000000000, 1.000000000000000000 ) ) ;
#541 = DIRECTION ( 'NONE',  ( 1.000000000000000000, 0.000000000000000000, 0.000000000000000000 ) ) ;
#542 = CARTESIAN_POINT ( 'NONE',  ( 0.000000000000000000, 0.000000000000000000, 3.099999999999999645 ) ) ;
#543 = ADVANCED_FACE ( 'NONE', ( #907 ), #759, .T. ) ;
#544 = ADVANCED_FACE ( 'NONE', ( #308 ), #654, .T. ) ;
#545 = SURFACE_STYLE_USAGE ( .BOTH. , #931 ) ;
#546 = LINE ( 'NONE', #927, #755 ) ;
#547 = CARTESIAN_POINT ( 'NONE',  ( -5.000000000000000000, -0.9724665692850895660, -4.858069561147902782 ) ) ;
#548 = DIRECTION ( 'NONE',  ( -0.000000000000000000, -0.000000000000000000, 1.000000000000000000 ) ) ;
#549 = CIRCLE ( 'NONE', #766, 5.000000000000000888 ) ;
#550 = CARTESIAN_POINT ( 'NONE',  ( 3.571428571428571175, 0.000000000000000000, 9.480888224575629408 ) ) ;
#551 = CIRCLE ( 'NONE', #140, 2.500000000000000000 ) ;
#552 = CARTESIAN_POINT ( 'NONE',  ( 3.556264818047235376, 3.720292241887090068, -0.08165819712376996831 ) ) ;
#553 = AXIS2_PLACEMENT_3D ( 'NONE', #800, #31, #171 ) ;
#554 = EDGE_LOOP ( 'NONE', ( #269, #571, #254, #123, #179, #367 ) ) ;
#555 = CARTESIAN_POINT ( 'NONE',  ( -5.000000000000000000, 0.000000000000000000, 1.001543065824778275E-15 ) ) ;
#556 = CARTESIAN_POINT ( 'NONE',  ( 5.000000000000000888, -1.936377641173857578, -4.702630826755078708 ) ) ;
#557 = CARTESIAN_POINT ( 'NONE',  ( 1.653121499799246497, -4.819072548984012272, -0.05140428708383092821 ) ) ;
#558 = CARTESIAN_POINT ( 'NONE',  ( -5.000000000000000000, 1.947085426416880427, -4.700379292880308313 ) ) ;
#559 = ADVANCED_FACE ( 'NONE', ( #387 ), #332, .F. ) ;
#560 = ORIENTED_EDGE ( 'NONE', *, *, #430, .T. ) ;
#561 = CARTESIAN_POINT ( 'NONE',  ( -0.8179331680533088456, -5.301268757141565757, -4.726062401966622417 ) ) ;
#562 = ORIENTED_EDGE ( 'NONE', *, *, #416, .T. ) ;
#563 = ORIENTED_EDGE ( 'NONE', *, *, #149, .F. ) ;
#564 = LINE ( 'NONE', #956, #590 ) ;
#565 = DIRECTION ( 'NONE',  ( -0.000000000000000000, -0.000000000000000000, 1.000000000000000000 ) ) ;
#566 = CARTESIAN_POINT ( 'NONE',  ( 5.000000000000000888, 0.9828435001097621804, -0.04309034703445722286 ) ) ;
#567 = ADVANCED_FACE ( 'NONE', ( #158 ), #230, .T. ) ;
#568 = ORIENTED_EDGE ( 'NONE', *, *, #736, .F. ) ;
#569 = CARTESIAN_POINT ( 'NONE',  ( 0.000000000000000000, 0.000000000000000000, 9.480888224575629408 ) ) ;
#570 = DIRECTION ( 'NONE',  ( 0.000000000000000000, 0.000000000000000000, -1.000000000000000000 ) ) ;
#571 = ORIENTED_EDGE ( 'NONE', *, *, #378, .F. ) ;
#572 = CARTESIAN_POINT ( 'NONE',  ( 2.503857664561936813E-16, -5.773502691896267081, -4.900000000000000355 ) ) ;
#573 = CARTESIAN_POINT ( 'NONE',  ( -5.000000000000000000, 2.886751345948125991, -0.4465819873852056587 ) ) ;
#574 = VECTOR ( 'NONE', #588, 999.9999999999998863 ) ;
#575 = AXIS2_PLACEMENT_3D ( 'NONE', #465, #390, #159 ) ;
#576 = DIRECTION ( 'NONE',  ( 0.000000000000000000, 0.000000000000000000, -1.000000000000000000 ) ) ;
#577 = AXIS2_PLACEMENT_3D ( 'NONE', #160, #753, #607 ) ;
#578 = ORIENTED_EDGE ( 'NONE', *, *, #830, .T. ) ;
#579 = MECHANICAL_DESIGN_GEOMETRIC_PRESENTATION_REPRESENTATION (  '', ( #141 ), #806 ) ;
#580 = FACE_OUTER_BOUND ( 'NONE', #816, .T. ) ;
#581 = ORIENTED_EDGE ( 'NONE', *, *, #454, .F. ) ;
#582 = ORIENTED_EDGE ( 'NONE', *, *, #469, .T. ) ;
#583 = CARTESIAN_POINT ( 'NONE',  ( 5.000000000000000888, 0.000000000000000000, -4.900000000000000355 ) ) ;
#584 = CARTESIAN_POINT ( 'NONE',  ( 1.653121499799246497, -4.819072548984012272, -4.848595712916168310 ) ) ;
#585 = EDGE_LOOP ( 'NONE', ( #206, #167 ) ) ;
#586 = CARTESIAN_POINT ( 'NONE',  ( 2.500000000000003109, -4.330127018922190985, 1.001543065824778275E-15 ) ) ;
#587 = CARTESIAN_POINT ( 'NONE',  ( -2.500000000000002220, -4.330127018922190985, 1.001543065824778275E-15 ) ) ;
#588 = DIRECTION ( 'NONE',  ( -0.8191520442889913545, 0.000000000000000000, -0.5735764363510468256 ) ) ;
#589 = CIRCLE ( 'NONE', #523, 5.000000000000000888 ) ;
#590 = VECTOR ( 'NONE', #270, 1000.000000000000000 ) ;
#591 = ORIENTED_EDGE ( 'NONE', *, *, #512, .F. ) ;
#592 = CARTESIAN_POINT ( 'NONE',  ( 2.925285743277525441, 4.084588180558405668, -4.889444439476611670 ) ) ;
#593 = DIRECTION ( 'NONE',  ( 1.000000000000000000, 0.000000000000000000, 0.000000000000000000 ) ) ;
#594 = ORIENTED_EDGE ( 'NONE', *, *, #889, .T. ) ;
#595 = ADVANCED_FACE ( 'NONE', ( #675, #916 ), #610, .F. ) ;
#596 = CARTESIAN_POINT ( 'NONE',  ( 5.000000000000000000, 2.886751345948134428, -4.453418012614792865 ) ) ;
#597 = CARTESIAN_POINT ( 'NONE',  ( 0.000000000000000000, 0.000000000000000000, 9.480888224575629408 ) ) ;
#598 = CARTESIAN_POINT ( 'NONE',  ( 0.000000000000000000, 0.000000000000000000, 0.000000000000000000 ) ) ;
#599 = EDGE_CURVE ( 'NONE', #953, #879, #313, .T. ) ;
#600 = FACE_OUTER_BOUND ( 'NONE', #873, .T. ) ;
#601 = CARTESIAN_POINT ( 'NONE',  ( 0.000000000000000000, 0.000000000000000000, -4.900000000000000355 ) ) ;
#602 = CARTESIAN_POINT ( 'NONE',  ( 0.000000000000000000, 2.500000000000000000, 2.066666666666999497 ) ) ;
#603 = CIRCLE ( 'NONE', #535, 4.999999999999999112 ) ;
#604 = CIRCLE ( 'NONE', #161, 5.000000000000000888 ) ;
#605 = CARTESIAN_POINT ( 'NONE',  ( 2.712167343862818214, 4.207632145829747650, -4.900000000000003908 ) ) ;
#606 = AXIS2_PLACEMENT_3D ( 'NONE', #601, #154, #225 ) ;
#607 = DIRECTION ( 'NONE',  ( 1.000000000000000000, 0.000000000000000000, 0.000000000000000000 ) ) ;
#608 = ADVANCED_FACE ( 'NONE', ( #517 ), #834, .F. ) ;
#609 = CARTESIAN_POINT ( 'NONE',  ( 0.000000000000000000, 0.000000000000000000, 2.066666666666999497 ) ) ;
#610 = PLANE ( 'NONE',  #15 ) ;
#611 = EDGE_CURVE ( 'NONE', #673, #189, #232, .T. ) ;
#612 = DIRECTION ( 'NONE',  ( 1.000000000000000000, 0.000000000000000000, 0.000000000000000000 ) ) ;
#613 = EDGE_CURVE ( 'NONE', #667, #418, #901, .T. ) ;
#614 = FACE_OUTER_BOUND ( 'NONE', #714, .T. ) ;
#615 = ADVANCED_BREP_SHAPE_REPRESENTATION ( 'torque nut 01_iso', ( #690, #292 ), #839 ) ;
#616 = DIRECTION ( 'NONE',  ( 0.8660254037844382635, 0.5000000000000007772, 0.000000000000000000 ) ) ;
#617 = AXIS2_PLACEMENT_3D ( 'NONE', #224, #3, #79 ) ;
#618 = VERTEX_POINT ( 'NONE', #514 ) ;
#619 = VECTOR ( 'NONE', #319, 1000.000000000000000 ) ;
#620 = CONICAL_SURFACE ( 'NONE', #385, 5.000000000000000888, 1.047197551196595411 ) ;
#621 = LINE ( 'NONE', #925, #619 ) ;
#622 = EDGE_CURVE ( 'NONE', #361, #247, #4, .T. ) ;
#623 = FACE_OUTER_BOUND ( 'NONE', #887, .T. ) ;
#624 = DIRECTION ( 'NONE',  ( -0.000000000000000000, -0.000000000000000000, 1.000000000000000000 ) ) ;
#625 = DIRECTION ( 'NONE',  ( 1.000000000000000000, 0.000000000000000000, 0.000000000000000000 ) ) ;
#626 = CARTESIAN_POINT ( 'NONE',  ( 3.000000000000000888, 0.000000000000000000, -4.900000000000001243 ) ) ;
#627 = CARTESIAN_POINT ( 'NONE',  ( -1.257674520083185143E-14, -5.773502691896260863, -0.4465819873852080457 ) ) ;
#628 = VERTEX_POINT ( 'NONE', #76 ) ;
#629 = VECTOR ( 'NONE', #682, 1000.000000000000000 ) ;
#630 = CARTESIAN_POINT ( 'NONE',  ( 5.000000000000000888, -2.886751345948133096, -4.453418012614792865 ) ) ;
#631 = ADVANCED_FACE ( 'NONE', ( #614 ), #150, .T. ) ;
#632 = AXIS2_PLACEMENT_3D ( 'NONE', #928, #703, #858 ) ;
#633 = ORIENTED_EDGE ( 'NONE', *, *, #611, .T. ) ;
#634 = DIRECTION ( 'NONE',  ( -0.000000000000000000, -0.000000000000000000, 1.000000000000000000 ) ) ;
#635 = CARTESIAN_POINT ( 'NONE',  ( 0.000000000000000000, 0.000000000000000000, -4.900000000000000355 ) ) ;
#636 = VERTEX_POINT ( 'NONE', #915 ) ;
#637 = B_SPLINE_CURVE_WITH_KNOTS ( 'NONE', 3,
 ( #805, #479, #811, #584, #893, #500, #134, #789 ),
 .UNSPECIFIED., .F., .F.,
 ( 4, 2, 2, 4 ),
 ( 0.002921158011986707288, 0.003648658599403065313, 0.004376159186819422904, 0.005831160361652138954 ),
 .UNSPECIFIED. ) ;
#638 = CARTESIAN_POINT ( 'NONE',  ( -5.000000000000000000, -0.9724665692850894549, -0.04193043885209643551 ) ) ;
#639 = CARTESIAN_POINT ( 'NONE',  ( 2.500000000000004441, 4.330127018922192761, -4.900000000000000355 ) ) ;
#640 = EDGE_CURVE ( 'NONE', #935, #276, #781, .T. ) ;
#641 = ORIENTED_EDGE ( 'NONE', *, *, #172, .T. ) ;
#642 =( LENGTH_UNIT ( ) NAMED_UNIT ( * ) SI_UNIT ( .MILLI., .METRE. ) );
#643 = CARTESIAN_POINT ( 'NONE',  ( -3.000000000000000888, 0.000000000000000000, -4.874600000000000044 ) ) ;
#644 = ADVANCED_FACE ( 'NONE', ( #764 ), #85, .F. ) ;
#645 = PRESENTATION_STYLE_ASSIGNMENT (( #545 ) ) ;
#646 = CARTESIAN_POINT ( 'NONE',  ( 0.000000000000000000, 0.000000000000000000, -4.900000000000000355 ) ) ;
#647 = EDGE_LOOP ( 'NONE', ( #815, #228, #633, #877 ) ) ;
#648 = CYLINDRICAL_SURFACE ( 'NONE', #838, 3.571428571428571175 ) ;
#649 = ORIENTED_EDGE ( 'NONE', *, *, #640, .T. ) ;
#650 = CARTESIAN_POINT ( 'NONE',  ( 0.000000000000000000, 5.773502691896260863, -4.453418012614792865 ) ) ;
#651 = DIRECTION ( 'NONE',  ( -1.000000000000000000, 0.000000000000000000, 0.000000000000000000 ) ) ;
#652 = CARTESIAN_POINT ( 'NONE',  ( 5.000000000000000000, 2.886751345948126879, -4.900000000000000355 ) ) ;
#653 = CARTESIAN_POINT ( 'NONE',  ( 2.500000000000003997, -4.330127018922192761, -4.900000000000000355 ) ) ;
#654 = TOROIDAL_SURFACE ( 'NONE', #721, 3.966666666666998964, 1.033333333332999926 ) ;
#655 = ORIENTED_EDGE ( 'NONE', *, *, #354, .F. ) ;
#656 = EDGE_LOOP ( 'NONE', ( #968, #405, #740, #41, #777, #477 ) ) ;
#657 = ADVANCED_FACE ( 'NONE', ( #669 ), #922, .T. ) ;
#658 = EDGE_LOOP ( 'NONE', ( #773, #871, #699 ) ) ;
#659 = ORIENTED_EDGE ( 'NONE', *, *, #785, .F. ) ;
#660 = CARTESIAN_POINT ( 'NONE',  ( 0.000000000000000000, 5.773502691896260863, -0.4465819873852080457 ) ) ;
#661 = ORIENTED_EDGE ( 'NONE', *, *, #843, .T. ) ;
#662 = ORIENTED_EDGE ( 'NONE', *, *, #459, .T. ) ;
#663 = CARTESIAN_POINT ( 'NONE',  ( 4.999999999999999112, 0.000000000000000000, 2.066666666666666430 ) ) ;
#664 = PRODUCT_DEFINITION_SHAPE ( 'NONE', 'NONE',  #81 ) ;
#665 = CARTESIAN_POINT ( 'NONE',  ( 0.000000000000000000, 0.000000000000000000, -4.900000000000000355 ) ) ;
#666 = B_SPLINE_CURVE_WITH_KNOTS ( 'NONE', 3,
 ( #471, #496, #396, #878 ),
 .UNSPECIFIED., .F., .F.,
 ( 4, 4 ),
 ( 2.380735200861166196E-07, 0.002921158011986710757 ),
 .UNSPECIFIED. ) ;
#667 = VERTEX_POINT ( 'NONE', #663 ) ;
#668 = DIRECTION ( 'NONE',  ( 1.000000000000000000, 0.000000000000000000, 0.000000000000000000 ) ) ;
#669 = FACE_OUTER_BOUND ( 'NONE', #860, .T. ) ;
#670 = EDGE_CURVE ( 'NONE', #115, #472, #429, .T. ) ;
#671 = PRODUCT_CONTEXT ( 'NONE', #137, 'mechanical' ) ;
#672 = CIRCLE ( 'NONE', #508, 5.000000000000000888 ) ;
#673 = VERTEX_POINT ( 'NONE', #626 ) ;
#674 = CARTESIAN_POINT ( 'NONE',  ( -5.000000000000000000, 2.886751345948134428, -4.453418012614792865 ) ) ;
#675 = FACE_BOUND ( 'NONE', #749, .T. ) ;
#676 = ORIENTED_EDGE ( 'NONE', *, *, #889, .F. ) ;
#677 = FACE_OUTER_BOUND ( 'NONE', #185, .T. ) ;
#678 = CARTESIAN_POINT ( 'NONE',  ( 0.8179331680532996307, 5.301268757141563981, -0.1739375980333758009 ) ) ;
#679 = DIRECTION ( 'NONE',  ( 1.000000000000000000, 0.000000000000000000, 0.000000000000000000 ) ) ;
#680 = CARTESIAN_POINT ( 'NONE',  ( -3.966666666666998964, 4.857765636618241893E-16, 2.066666666666999497 ) ) ;
#681 = EDGE_CURVE ( 'NONE', #979, #357, #728, .T. ) ;
#682 = DIRECTION ( 'NONE',  ( -0.000000000000000000, -0.000000000000000000, 1.000000000000000000 ) ) ;
#683 = AXIS2_PLACEMENT_3D ( 'NONE', #268, #570, #718 ) ;
#684 = EDGE_LOOP ( 'NONE', ( #491, #560, #730, #49 ) ) ;
#685 = AXIS2_PLACEMENT_3D ( 'NONE', #188, #480, #39 ) ;
#686 = ADVANCED_FACE ( 'NONE', ( #244 ), #16, .T. ) ;
#687 = CARTESIAN_POINT ( 'NONE',  ( 3.556264818047235376, 3.720292241887089624, -4.818341802876231483 ) ) ;
#688 = PRESENTATION_LAYER_ASSIGNMENT (  '', '', ( #141 ) ) ;
#689 = DIRECTION ( 'NONE',  ( 0.000000000000000000, 0.000000000000000000, -1.000000000000000000 ) ) ;
#690 = MANIFOLD_SOLID_BREP ( 'TorqueElement', #368 ) ;
#691 = CARTESIAN_POINT ( 'NONE',  ( 0.000000000000000000, 0.000000000000000000, 9.480888224575629408 ) ) ;
#692 = DIRECTION ( 'NONE',  ( 0.5000000000000007772, -0.8660254037844382635, 0.000000000000000000 ) ) ;
#693 = ORIENTED_EDGE ( 'NONE', *, *, #293, .T. ) ;
#694 = EDGE_CURVE ( 'NONE', #801, #953, #478, .T. ) ;
#695 = CYLINDRICAL_SURFACE ( 'NONE', #575, 2.500000000000000000 ) ;
#696 = AXIS2_PLACEMENT_3D ( 'NONE', #680, #840, #450 ) ;
#697 = CARTESIAN_POINT ( 'NONE',  ( 0.000000000000000000, 0.000000000000000000, 9.480888224575629408 ) ) ;
#698 = AXIS2_PLACEMENT_3D ( 'NONE', #665, #974, #904 ) ;
#699 = ORIENTED_EDGE ( 'NONE', *, *, #322, .F. ) ;
#700 = AXIS2_PLACEMENT_3D ( 'NONE', #331, #464, #165 ) ;
#701 = CONICAL_SURFACE ( 'NONE', #306, 5.000000000000000888, 1.047197551196595411 ) ;
#702 = CARTESIAN_POINT ( 'NONE',  ( 5.000000000000000888, -2.886751345948133096, -0.4465819873852080457 ) ) ;
#703 = DIRECTION ( 'NONE',  ( -1.000000000000000000, 0.000000000000000000, 0.000000000000000000 ) ) ;
#704 = ORIENTED_EDGE ( 'NONE', *, *, #434, .T. ) ;
#705 = EDGE_CURVE ( 'NONE', #947, #488, #468, .T. ) ;
#706 = SURFACE_STYLE_FILL_AREA ( #328 ) ;
#707 = CARTESIAN_POINT ( 'NONE',  ( 0.000000000000000000, 0.000000000000000000, -4.524496230895143967 ) ) ;
#708 = CARTESIAN_POINT ( 'NONE',  ( 2.500000000000000000, 0.000000000000000000, 2.066666666666999497 ) ) ;
#709 = EDGE_CURVE ( 'NONE', #947, #50, #564, .T. ) ;
#710 = ORIENTED_EDGE ( 'NONE', *, *, #613, .F. ) ;
#711 = FACE_OUTER_BOUND ( 'NONE', #402, .T. ) ;
#712 = DIRECTION ( 'NONE',  ( -1.000000000000000000, 0.000000000000000000, 0.000000000000000000 ) ) ;
#713 = PLANE ( 'NONE',  #685 ) ;
#714 = EDGE_LOOP ( 'NONE', ( #483, #905, #578 ) ) ;
#715 = DIRECTION ( 'NONE',  ( -0.000000000000000000, -0.000000000000000000, 1.000000000000000000 ) ) ;
#716 = DIRECTION ( 'NONE',  ( 1.000000000000000000, 0.000000000000000000, 0.000000000000000000 ) ) ;
#717 = EDGE_LOOP ( 'NONE', ( #594, #562, #960 ) ) ;
#718 = DIRECTION ( 'NONE',  ( -1.000000000000000000, 0.000000000000000000, 0.000000000000000000 ) ) ;
#719 = CIRCLE ( 'NONE', #617, 5.000000000000000888 ) ;
#720 = DIRECTION ( 'NONE',  ( 1.000000000000000000, 0.000000000000000000, 0.000000000000000000 ) ) ;
#721 = AXIS2_PLACEMENT_3D ( 'NONE', #71, #832, #847 ) ;
#722 = CARTESIAN_POINT ( 'NONE',  ( 2.500000000000003553, 4.330127018922190985, 1.001543065824778275E-15 ) ) ;
#723 = CARTESIAN_POINT ( 'NONE',  ( 4.999999999999999112, 0.000000000000000000, 1.001543065824778275E-15 ) ) ;
#724 = EDGE_LOOP ( 'NONE', ( #898, #349, #183, #125, #485, #119 ) ) ;
#725 = FACE_OUTER_BOUND ( 'NONE', #432, .T. ) ;
#726 = ORIENTED_EDGE ( 'NONE', *, *, #241, .F. ) ;
#727 = DIRECTION ( 'NONE',  ( 0.000000000000000000, -0.000000000000000000, 1.000000000000000000 ) ) ;
#728 = LINE ( 'NONE', #572, #97 ) ;
#729 = DIRECTION ( 'NONE',  ( 0.8191520442889913545, 1.003171929053524254E-16, -0.5735764363510468256 ) ) ;
#730 = ORIENTED_EDGE ( 'NONE', *, *, #976, .F. ) ;
#731 = ORIENTED_EDGE ( 'NONE', *, *, #709, .T. ) ;
#732 = CARTESIAN_POINT ( 'NONE',  ( -0.8192951148925893268, 5.300482436767279815, -4.701655677627842422 ) ) ;
#733 = DIRECTION ( 'NONE',  ( -1.000000000000000000, 0.000000000000000000, 0.000000000000000000 ) ) ;
#734 = CARTESIAN_POINT ( 'NONE',  ( -5.000000000000000000, 2.886751345948125991, -0.4465819873852056587 ) ) ;
#735 = CARTESIAN_POINT ( 'NONE',  ( -3.346878500200759277, -3.841181488860386573, -0.05140428708382988043 ) ) ;
#736 = EDGE_CURVE ( 'NONE', #947, #201, #166, .T. ) ;
#737 = ADVANCED_FACE ( 'NONE', ( #711 ), #620, .T. ) ;
#738 = ORIENTED_EDGE ( 'NONE', *, *, #73, .T. ) ;
#739 = APPLICATION_PROTOCOL_DEFINITION ( 'draft international standard', 'automotive_design', 1998, #14 ) ;
#740 = ORIENTED_EDGE ( 'NONE', *, *, #484, .T. ) ;
#741 = PLANE ( 'NONE',  #961 ) ;
#742 = CARTESIAN_POINT ( 'NONE',  ( 3.000000000000000888, 3.673940397442060854E-16, -4.874600000000000044 ) ) ;
#743 = CIRCLE ( 'NONE', #507, 5.000000000000000888 ) ;
#744 = PRODUCT ( 'torque nut 01_iso', 'torque nut 01_iso', '', ( #671 ) ) ;
#745 = AXIS2_PLACEMENT_3D ( 'NONE', #443, #841, #155 ) ;
#746 = CONICAL_SURFACE ( 'NONE', #553, 5.000000000000000888, 1.047197551196595411 ) ;
#747 = ORIENTED_EDGE ( 'NONE', *, *, #389, .T. ) ;
#748 = ORIENTED_EDGE ( 'NONE', *, *, #84, .T. ) ;
#749 = EDGE_LOOP ( 'NONE', ( #510, #196 ) ) ;
#750 = DIRECTION ( 'NONE',  ( 0.000000000000000000, -0.000000000000000000, 1.000000000000000000 ) ) ;
#751 = ORIENTED_EDGE ( 'NONE', *, *, #430, .F. ) ;
#752 = CARTESIAN_POINT ( 'NONE',  ( -2.500000000000003109, -4.330127018922192761, -4.900000000000000355 ) ) ;
#753 = DIRECTION ( 'NONE',  ( -0.000000000000000000, -0.000000000000000000, 1.000000000000000000 ) ) ;
#754 = EDGE_CURVE ( 'NONE', #879, #953, #912, .T. ) ;
#755 = VECTOR ( 'NONE', #231, 1000.000000000000000 ) ;
#756 = AXIS2_PLACEMENT_3D ( 'NONE', #128, #420, #733 ) ;
#757 = CONICAL_SURFACE ( 'NONE', #395, 5.000000000000000888, 1.047197551196595411 ) ;
#758 = CARTESIAN_POINT ( 'NONE',  ( 2.500000000000004441, 4.330127018922192761, -4.900000000000000355 ) ) ;
#759 = CYLINDRICAL_SURFACE ( 'NONE', #216, 4.999999999999999112 ) ;
#760 = ORIENTED_EDGE ( 'NONE', *, *, #354, .T. ) ;
#761 = CARTESIAN_POINT ( 'NONE',  ( 3.346878500200757056, 3.841181488860380355, -4.848595712916173639 ) ) ;
#762 = DIRECTION ( 'NONE',  ( 0.000000000000000000, -0.000000000000000000, 1.000000000000000000 ) ) ;
#763 = B_SPLINE_CURVE_WITH_KNOTS ( 'NONE', 3,
 ( #630, #329, #556, #27, #415, #282 ),
 .UNSPECIFIED., .F., .F.,
 ( 4, 2, 4 ),
 ( 0.005150343764683555127, 0.006610526168996384844, 0.008070708573309213693 ),
 .UNSPECIFIED. ) ;
#764 = FACE_OUTER_BOUND ( 'NONE', #959, .T. ) ;
#765 = CARTESIAN_POINT ( 'NONE',  ( 5.000000000000000000, 2.886751345948134428, -0.4465819873852080457 ) ) ;
#766 = AXIS2_PLACEMENT_3D ( 'NONE', #413, #727, #44 ) ;
#767 = CIRCLE ( 'NONE', #384, 3.000000000000000888 ) ;
#768 = CARTESIAN_POINT ( 'NONE',  ( -2.500000000000003109, -4.330127018922192761, -4.900000000000000355 ) ) ;
#769 = COLOUR_RGB ( '',0.7921568627450980005, 0.8196078431372548767, 0.9333333333333333481 ) ;
#770 = DIRECTION ( 'NONE',  ( 0.000000000000000000, 0.000000000000000000, -1.000000000000000000 ) ) ;
#771 = VERTEX_POINT ( 'NONE', #36 ) ;
#772 = CARTESIAN_POINT ( 'NONE',  ( -5.000000000000000000, 2.886751345948125991, -4.900000000000000355 ) ) ;
#773 = ORIENTED_EDGE ( 'NONE', *, *, #156, .T. ) ;
#774 = EDGE_CURVE ( 'NONE', #538, #947, #298, .T. ) ;
#775 = CARTESIAN_POINT ( 'NONE',  ( 5.000000000000000000, 2.886751345948134428, -4.453418012614792865 ) ) ;
#776 = CARTESIAN_POINT ( 'NONE',  ( 4.182066831946704255, -3.358985280702827758, -0.1739375980333769944 ) ) ;
#777 = ORIENTED_EDGE ( 'NONE', *, *, #172, .F. ) ;
#778 = ADVANCED_FACE ( 'NONE', ( #193 ), #804, .F. ) ;
#779 = CARTESIAN_POINT ( 'NONE',  ( 0.000000000000000000, 0.000000000000000000, 2.066666666666666430 ) ) ;
#780 = CONICAL_SURFACE ( 'NONE', #882, 5.000000000000000888, 1.047197551196595411 ) ;
#781 = CIRCLE ( 'NONE', #356, 5.000000000000000888 ) ;
#782 = CIRCLE ( 'NONE', #923, 2.500000000000000000 ) ;
#783 = CARTESIAN_POINT ( 'NONE',  ( 4.999999999999999112, -2.417244626924485829, -0.3110470720778654719 ) ) ;
#784 = B_SPLINE_CURVE_WITH_KNOTS ( 'NONE', 3,
 ( #758, #605, #592, #761, #687, #903, #435, #596 ),
 .UNSPECIFIED., .F., .F.,
 ( 4, 2, 2, 4 ),
 ( 0.002921158011986720298, 0.003648658599403072685, 0.004376159186819424639, 0.005831160361652129413 ),
 .UNSPECIFIED. ) ;
#785 = EDGE_CURVE ( 'NONE', #967, #117, #203, .T. ) ;
#786 = CARTESIAN_POINT ( 'NONE',  ( 0.000000000000000000, 0.000000000000000000, 0.000000000000000000 ) ) ;
#787 = CARTESIAN_POINT ( 'NONE',  ( -5.000000000000000000, -0.4878135028931874784, -4.900000000000001243 ) ) ;
#788 = DIRECTION ( 'NONE',  ( 0.000000000000000000, 0.000000000000000000, 1.000000000000000000 ) ) ;
#789 = CARTESIAN_POINT ( 'NONE',  ( -1.257674520083185143E-14, -5.773502691896260863, -4.453418012614792865 ) ) ;
#790 = DIRECTION ( 'NONE',  ( -1.000000000000000000, 0.000000000000000000, 0.000000000000000000 ) ) ;
#791 = EDGE_LOOP ( 'NONE', ( #136, #423 ) ) ;
#792 = ORIENTED_EDGE ( 'NONE', *, *, #47, .T. ) ;
#793 = EDGE_LOOP ( 'NONE', ( #404, #888, #497, #428 ) ) ;
#794 = CARTESIAN_POINT ( 'NONE',  ( 0.000000000000000000, 0.000000000000000000, 0.000000000000000000 ) ) ;
#795 = CARTESIAN_POINT ( 'NONE',  ( 3.351853367131009342, -3.838309248099022408, -4.900000000000000355 ) ) ;
#796 = CARTESIAN_POINT ( 'NONE',  ( 2.500000000000003109, -4.330127018922190985, 1.001543065824778275E-15 ) ) ;
#797 = CARTESIAN_POINT ( 'NONE',  ( -5.000000000000000000, 2.419979747126329350, -4.588163366729713921 ) ) ;
#798 = EDGE_LOOP ( 'NONE', ( #200, #359, #954, #364 ) ) ;
#799 = FACE_OUTER_BOUND ( 'NONE', #798, .T. ) ;
#800 = CARTESIAN_POINT ( 'NONE',  ( 0.000000000000000000, 0.000000000000000000, -4.900000000000000355 ) ) ;
#801 = VERTEX_POINT ( 'NONE', #351 ) ;
#802 = EDGE_LOOP ( 'NONE', ( #138, #693, #951, #363, #853, #874 ) ) ;
#803 = AXIS2_PLACEMENT_3D ( 'NONE', #822, #299, #668 ) ;
#804 = CYLINDRICAL_SURFACE ( 'NONE', #965, 3.000000000000000888 ) ;
#805 = CARTESIAN_POINT ( 'NONE',  ( 2.500000000000003997, -4.330127018922192761, -4.900000000000000355 ) ) ;
#806 =( GEOMETRIC_REPRESENTATION_CONTEXT ( 3 ) GLOBAL_UNCERTAINTY_ASSIGNED_CONTEXT ( ( #436 ) ) GLOBAL_UNIT_ASSIGNED_CONTEXT ( ( #261, #466, #323 ) ) REPRESENTATION_CONTEXT ( 'NONE', 'WORKASPACE' ) );
#807 = ORIENTED_EDGE ( 'NONE', *, *, #377, .F. ) ;
#808 = EDGE_LOOP ( 'NONE', ( #855, #704 ) ) ;
#809 = CARTESIAN_POINT ( 'NONE',  ( -1.653121499799247385, 4.819072548984005167, -4.848595712916172751 ) ) ;
#810 = FILL_AREA_STYLE_COLOUR ( '', #769 ) ;
#811 = CARTESIAN_POINT ( 'NONE',  ( 2.074714256722482109, -4.575665857285986071, -4.889444439476607229 ) ) ;
#812 = ADVANCED_FACE ( 'NONE', ( #520 ), #67, .T. ) ;
#813 = FACE_OUTER_BOUND ( 'NONE', #554, .T. ) ;
#814 = VERTEX_POINT ( 'NONE', #433 ) ;
#815 = ORIENTED_EDGE ( 'NONE', *, *, #445, .F. ) ;
#816 = EDGE_LOOP ( 'NONE', ( #127, #34, #821 ) ) ;
#817 = CARTESIAN_POINT ( 'NONE',  ( 4.999999999999999112, 0.4881033300985040957, -4.900000000000000355 ) ) ;
#818 = DIRECTION ( 'NONE',  ( 0.000000000000000000, 0.000000000000000000, 1.000000000000000000 ) ) ;
#819 = CARTESIAN_POINT ( 'NONE',  ( 0.000000000000000000, 5.773502691896260863, -4.453418012614792865 ) ) ;
#820 = ORIENTED_EDGE ( 'NONE', *, *, #389, .F. ) ;
#821 = ORIENTED_EDGE ( 'NONE', *, *, #519, .T. ) ;
#822 = CARTESIAN_POINT ( 'NONE',  ( 0.000000000000000000, 0.000000000000000000, 0.000000000000000000 ) ) ;
#823 = ADVANCED_FACE ( 'NONE', ( #287 ), #757, .T. ) ;
#824 = AXIS2_PLACEMENT_3D ( 'NONE', #779, #398, #612 ) ;
#825 = PRODUCT_RELATED_PRODUCT_CATEGORY ( 'part', '', ( #744 ) ) ;
#826 = AXIS2_PLACEMENT_3D ( 'NONE', #343, #941, #194 ) ;
#827 = AXIS2_PLACEMENT_3D ( 'NONE', #486, #421, #720 ) ;
#828 = ADVANCED_FACE ( 'NONE', ( #924, #942 ), #353, .T. ) ;
#829 = CARTESIAN_POINT ( 'NONE',  ( 5.000000000000000888, -2.886751345948133096, -0.4465819873852080457 ) ) ;
#830 = EDGE_CURVE ( 'NONE', #935, #112, #899, .T. ) ;
#831 = LINE ( 'NONE', #147, #522 ) ;
#832 = DIRECTION ( 'NONE',  ( -0.000000000000000000, -0.000000000000000000, 1.000000000000000000 ) ) ;
#833 = FACE_OUTER_BOUND ( 'NONE', #837, .T. ) ;
#834 = CYLINDRICAL_SURFACE ( 'NONE', #236, 3.571428571428571175 ) ;
#835 = DIRECTION ( 'NONE',  ( -0.5000000000000006661, -0.8660254037844383745, 0.000000000000000000 ) ) ;
#836 = AXIS2_PLACEMENT_3D ( 'NONE', #316, #98, #92 ) ;
#837 = EDGE_LOOP ( 'NONE', ( #94, #748, #437, #710 ) ) ;
#838 = AXIS2_PLACEMENT_3D ( 'NONE', #569, #42, #348 ) ;
#839 =( GEOMETRIC_REPRESENTATION_CONTEXT ( 3 ) GLOBAL_UNCERTAINTY_ASSIGNED_CONTEXT ( ( #68 ) ) GLOBAL_UNIT_ASSIGNED_CONTEXT ( ( #642, #29, #936 ) ) REPRESENTATION_CONTEXT ( 'NONE', 'WORKASPACE' ) );
#840 = DIRECTION ( 'NONE',  ( 1.224646799147353207E-16, 1.000000000000000000, 0.000000000000000000 ) ) ;
#841 = DIRECTION ( 'NONE',  ( -0.000000000000000000, -0.000000000000000000, 1.000000000000000000 ) ) ;
#842 = B_SPLINE_CURVE_WITH_KNOTS ( 'NONE', 3,
 ( #51, #881, #337, #809, #133, #732, #350, #650 ),
 .UNSPECIFIED., .F., .F.,
 ( 4, 2, 2, 4 ),
 ( 0.002921158011986710757, 0.003648658599403066180, 0.004376159186819422037, 0.005831160361652131148 ),
 .UNSPECIFIED. ) ;
#843 = EDGE_CURVE ( 'NONE', #108, #247, #344, .T. ) ;
#844 = EDGE_CURVE ( 'NONE', #412, #139, #345, .T. ) ;
#845 = B_SPLINE_CURVE_WITH_KNOTS ( 'NONE', 3,
 ( #702, #776, #852, #392 ),
 .UNSPECIFIED., .F., .F.,
 ( 4, 4 ),
 ( 2.380735200819306092E-07, 0.002921158011986707288 ),
 .UNSPECIFIED. ) ;
#846 = CARTESIAN_POINT ( 'NONE',  ( -0.8179331680533087345, -5.301268757141565757, -0.1739375980333777438 ) ) ;
#847 = DIRECTION ( 'NONE',  ( 1.000000000000000000, 0.000000000000000000, 0.000000000000000000 ) ) ;
#848 = CARTESIAN_POINT ( 'NONE',  ( 0.000000000000000000, 0.000000000000000000, -4.874600000000000044 ) ) ;
#849 = AXIS2_PLACEMENT_3D ( 'NONE', #102, #692, #616 ) ;
#850 = ADVANCED_FACE ( 'NONE', ( #813 ), #93, .T. ) ;
#851 = ADVANCED_FACE ( 'NONE', ( #178 ), #746, .T. ) ;
#852 = CARTESIAN_POINT ( 'NONE',  ( 3.351853367131009342, -3.838309248099022408, -8.811667579607874555E-17 ) ) ;
#853 = ORIENTED_EDGE ( 'NONE', *, *, #449, .F. ) ;
#854 = DIRECTION ( 'NONE',  ( 0.000000000000000000, -0.000000000000000000, 1.000000000000000000 ) ) ;
#855 = ORIENTED_EDGE ( 'NONE', *, *, #312, .T. ) ;
#856 = CARTESIAN_POINT ( 'NONE',  ( 3.346878500200755280, 3.841181488860378135, -0.05140428708382656364 ) ) ;
#857 = CARTESIAN_POINT ( 'NONE',  ( 0.000000000000000000, 0.000000000000000000, 2.066666666666999497 ) ) ;
#858 = DIRECTION ( 'NONE',  ( 0.000000000000000000, 0.000000000000000000, 1.000000000000000000 ) ) ;
#859 = CIRCLE ( 'NONE', #96, 2.500000000000000000 ) ;
#860 = EDGE_LOOP ( 'NONE', ( #582, #913, #820 ) ) ;
#861 = AXIS2_PLACEMENT_3D ( 'NONE', #515, #835, #505 ) ;
#862 = CARTESIAN_POINT ( 'NONE',  ( -5.000000000000000888, 0.9828435001097582946, -0.04309034703445670939 ) ) ;
#863 = CARTESIAN_POINT ( 'NONE',  ( 4.180704885107411783, 3.359771601077109260, -0.1983443223721588489 ) ) ;
#864 = ADVANCED_FACE ( 'NONE', ( #623 ), #457, .T. ) ;
#865 = ORIENTED_EDGE ( 'NONE', *, *, #526, .T. ) ;
#866 = ORIENTED_EDGE ( 'NONE', *, *, #640, .F. ) ;
#867 = ORIENTED_EDGE ( 'NONE', *, *, #902, .F. ) ;
#868 = LINE ( 'NONE', #105, #884 ) ;
#869 = FACE_OUTER_BOUND ( 'NONE', #17, .T. ) ;
#870 = B_SPLINE_CURVE_WITH_KNOTS ( 'NONE', 3,
 ( #752, #70, #524, #153, #66, #215, #369, #516 ),
 .UNSPECIFIED., .F., .F.,
 ( 4, 2, 2, 4 ),
 ( 0.002921158011986723334, 0.003648658599403076155, 0.004376159186819428108, 0.005831160361652132883 ),
 .UNSPECIFIED. ) ;
#871 = ORIENTED_EDGE ( 'NONE', *, *, #210, .F. ) ;
#872 = CARTESIAN_POINT ( 'NONE',  ( 5.000000000000000888, -1.936377641173857800, -0.1973691732449220082 ) ) ;
#873 = EDGE_LOOP ( 'NONE', ( #939, #503, #410, #419 ) ) ;
#874 = ORIENTED_EDGE ( 'NONE', *, *, #469, .F. ) ;
#875 = CARTESIAN_POINT ( 'NONE',  ( -5.000000000000000000, 0.000000000000000000, 1.001543065824778275E-15 ) ) ;
#876 = CARTESIAN_POINT ( 'NONE',  ( 0.000000000000000000, 0.000000000000000000, 0.000000000000000000 ) ) ;
#877 = ORIENTED_EDGE ( 'NONE', *, *, #346, .T. ) ;
#878 = CARTESIAN_POINT ( 'NONE',  ( -2.500000000000004441, 4.330127018922191873, -4.900000000000000355 ) ) ;
#879 = VERTEX_POINT ( 'NONE', #926 ) ;
#880 = EDGE_CURVE ( 'NONE', #771, #418, #152, .T. ) ;
#881 = CARTESIAN_POINT ( 'NONE',  ( -2.287832656137188003, 4.452621892014636096, -4.900000000000004796 ) ) ;
#882 = AXIS2_PLACEMENT_3D ( 'NONE', #374, #157, #447 ) ;
#883 = DIRECTION ( 'NONE',  ( 1.000000000000000000, 0.000000000000000000, 0.000000000000000000 ) ) ;
#884 = VECTOR ( 'NONE', #565, 1000.000000000000000 ) ;
#885 = CARTESIAN_POINT ( 'NONE',  ( -2.500000000000004441, 4.330127018922191873, 0.000000000000000000 ) ) ;
#886 = CARTESIAN_POINT ( 'NONE',  ( -4.276923104674409908E-16, 5.773502691896261751, -4.900000000000000355 ) ) ;
#887 = EDGE_LOOP ( 'NONE', ( #341, #213, #28 ) ) ;
#888 = ORIENTED_EDGE ( 'NONE', *, *, #238, .T. ) ;
#889 = EDGE_CURVE ( 'NONE', #117, #108, #530, .T. ) ;
#890 = B_SPLINE_CURVE_WITH_KNOTS ( 'NONE', 3,
 ( #796, #933, #252, #557, #106, #170, #401, #627 ),
 .UNSPECIFIED., .F., .F.,
 ( 4, 2, 2, 4 ),
 ( 0.002921158011986707288, 0.003648658599403065313, 0.004376159186819422904, 0.005831160361652138954 ),
 .UNSPECIFIED. ) ;
#891 = ORIENTED_EDGE ( 'NONE', *, *, #18, .T. ) ;
#892 = LINE ( 'NONE', #286, #199 ) ;
#893 = CARTESIAN_POINT ( 'NONE',  ( 1.443735181952766400, -4.939961795957303003, -4.818341802876227931 ) ) ;
#894 = VERTEX_POINT ( 'NONE', #20 ) ;
#895 = EDGE_LOOP ( 'NONE', ( #475, #65, #896, #33 ) ) ;
#896 = ORIENTED_EDGE ( 'NONE', *, *, #976, .T. ) ;
#897 = EDGE_CURVE ( 'NONE', #962, #814, #782, .T. ) ;
#898 = ORIENTED_EDGE ( 'NONE', *, *, #844, .T. ) ;
#899 = B_SPLINE_CURVE_WITH_KNOTS ( 'NONE', 3,
 ( #958, #263, #107, #558, #797, #408 ),
 .UNSPECIFIED., .F., .F.,
 ( 4, 2, 4 ),
 ( 0.008070708573309215428, 0.009531758523483287518, 0.01099280847365735961 ),
 .UNSPECIFIED. ) ;
#900 = CONICAL_SURFACE ( 'NONE', #30, 5.000000000000000888, 1.047197551196595411 ) ;
#901 = CIRCLE ( 'NONE', #32, 1.033333333332999926 ) ;
#902 = EDGE_CURVE ( 'NONE', #290, #935, #518, .T. ) ;
#903 = CARTESIAN_POINT ( 'NONE',  ( 4.180704885107411783, 3.359771601077110592, -4.701655677627843311 ) ) ;
#904 = DIRECTION ( 'NONE',  ( 1.000000000000000000, 0.000000000000000000, 0.000000000000000000 ) ) ;
#905 = ORIENTED_EDGE ( 'NONE', *, *, #118, .T. ) ;
#906 = CARTESIAN_POINT ( 'NONE',  ( 0.000000000000000000, 5.773502691896260863, -0.4465819873852080457 ) ) ;
#907 = FACE_OUTER_BOUND ( 'NONE', #146, .T. ) ;
#908 = CARTESIAN_POINT ( 'NONE',  ( 4.999999999999999112, 0.000000000000000000, 1.001543065824778275E-15 ) ) ;
#909 = DIRECTION ( 'NONE',  ( -1.000000000000000000, 0.000000000000000000, -0.000000000000000000 ) ) ;
#910 = ADVANCED_FACE ( 'NONE', ( #580 ), #701, .T. ) ;
#911 = VECTOR ( 'NONE', #729, 999.9999999999998863 ) ;
#912 = CIRCLE ( 'NONE', #827, 3.571428571428570731 ) ;
#913 = ORIENTED_EDGE ( 'NONE', *, *, #454, .T. ) ;
#914 = CARTESIAN_POINT ( 'NONE',  ( 0.000000000000000000, 5.773502691896260863, -4.453418012614792865 ) ) ;
#915 = CARTESIAN_POINT ( 'NONE',  ( 2.500000000000000000, 0.000000000000000000, -4.524496230895143967 ) ) ;
#916 = FACE_OUTER_BOUND ( 'NONE', #808, .T. ) ;
#917 = EDGE_CURVE ( 'NONE', #112, #618, #666, .T. ) ;
#918 = DIRECTION ( 'NONE',  ( 0.000000000000000000, 0.000000000000000000, -1.000000000000000000 ) ) ;
#919 = DIRECTION ( 'NONE',  ( -0.8660254037844382635, 0.5000000000000007772, 0.000000000000000000 ) ) ;
#920 = CARTESIAN_POINT ( 'NONE',  ( 0.000000000000000000, 0.000000000000000000, -4.524496230895143967 ) ) ;
#921 = ADVANCED_FACE ( 'NONE', ( #725 ), #175, .F. ) ;
#922 = CONICAL_SURFACE ( 'NONE', #698, 5.000000000000000888, 1.047197551196595411 ) ;
#923 = AXIS2_PLACEMENT_3D ( 'NONE', #207, #403, #482 ) ;
#924 = FACE_BOUND ( 'NONE', #585, .T. ) ;
#925 = CARTESIAN_POINT ( 'NONE',  ( 2.500000000000000000, 0.000000000000000000, -4.900000000000000355 ) ) ;
#926 = CARTESIAN_POINT ( 'NONE',  ( -3.571428571428570731, 4.373738568383404417E-16, 3.099999999999999645 ) ) ;
#927 = CARTESIAN_POINT ( 'NONE',  ( 4.999999999999999112, 0.000000000000000000, 9.480888224575629408 ) ) ;
#928 = CARTESIAN_POINT ( 'NONE',  ( -5.000000000000000000, 2.886751345948125991, -4.900000000000000355 ) ) ;
#929 = ADVANCED_FACE ( 'NONE', ( #799 ), #648, .F. ) ;
#930 = ADVANCED_FACE ( 'NONE', ( #320 ), #177, .T. ) ;
#931 = SURFACE_SIDE_STYLE ('',( #706 ) ) ;
#932 = CARTESIAN_POINT ( 'NONE',  ( 2.925285743277524553, 4.084588180558405668, -0.01055556052338973809 ) ) ;
#933 = CARTESIAN_POINT ( 'NONE',  ( 2.287832656137189780, -4.452621892014642313, -5.050433948003763923E-17 ) ) ;
#934 = CARTESIAN_POINT ( 'NONE',  ( 0.000000000000000000, 5.773502691896261751, -4.900000000000000355 ) ) ;
#935 = VERTEX_POINT ( 'NONE', #476 ) ;
#936 =( NAMED_UNIT ( * ) SI_UNIT ( $, .STERADIAN. ) SOLID_ANGLE_UNIT ( ) );
#937 = CIRCLE ( 'NONE', #803, 5.000000000000000888 ) ;
#938 = AXIS2_PLACEMENT_3D ( 'NONE', #646, #211, #426 ) ;
#939 = ORIENTED_EDGE ( 'NONE', *, *, #366, .F. ) ;
#940 = CARTESIAN_POINT ( 'NONE',  ( -4.999999999999999112, 0.4881033300985022638, 4.573977915173219859E-16 ) ) ;
#941 = DIRECTION ( 'NONE',  ( -0.000000000000000000, -0.000000000000000000, 1.000000000000000000 ) ) ;
#942 = FACE_OUTER_BOUND ( 'NONE', #502, .T. ) ;
#943 = ORIENTED_EDGE ( 'NONE', *, *, #880, .T. ) ;
#944 = DIRECTION ( 'NONE',  ( -1.000000000000000000, 0.000000000000000000, 0.000000000000000000 ) ) ;
#945 = DIRECTION ( 'NONE',  ( -0.000000000000000000, -0.000000000000000000, 1.000000000000000000 ) ) ;
#946 = EDGE_LOOP ( 'NONE', ( #641, #347, #649 ) ) ;
#947 = VERTEX_POINT ( 'NONE', #555 ) ;
#948 = CARTESIAN_POINT ( 'NONE',  ( -5.000000000000000000, -0.4878135028931870898, 5.353248226647178143E-16 ) ) ;
#949 = CARTESIAN_POINT ( 'NONE',  ( -5.000000000000000000, -2.886751345948134428, -0.4465819873852080457 ) ) ;
#950 = FACE_OUTER_BOUND ( 'NONE', #802, .T. ) ;
#951 = ORIENTED_EDGE ( 'NONE', *, *, #322, .T. ) ;
#952 = DIRECTION ( 'NONE',  ( 0.000000000000000000, 0.000000000000000000, -1.000000000000000000 ) ) ;
#953 = VERTEX_POINT ( 'NONE', #266 ) ;
#954 = ORIENTED_EDGE ( 'NONE', *, *, #694, .T. ) ;
#955 = DIRECTION ( 'NONE',  ( 0.000000000000000000, 0.000000000000000000, 1.000000000000000000 ) ) ;
#956 = CARTESIAN_POINT ( 'NONE',  ( -4.999999999999999112, 6.123233995736765296E-16, 9.480888224575629408 ) ) ;
#957 = DIRECTION ( 'NONE',  ( -0.000000000000000000, 0.000000000000000000, -1.000000000000000000 ) ) ;
#958 = CARTESIAN_POINT ( 'NONE',  ( -5.000000000000000000, 0.000000000000000000, -4.900000000000000355 ) ) ;
#959 = EDGE_LOOP ( 'NONE', ( #676, #659, #747, #865, #273, #239 ) ) ;
#960 = ORIENTED_EDGE ( 'NONE', *, *, #293, .F. ) ;
#961 = AXIS2_PLACEMENT_3D ( 'NONE', #58, #504, #281 ) ;
#962 = VERTEX_POINT ( 'NONE', #708 ) ;
#963 = CIRCLE ( 'NONE', #59, 3.000000000000000888 ) ;
#964 = DIRECTION ( 'NONE',  ( -1.000000000000000000, 0.000000000000000000, 0.000000000000000000 ) ) ;
#965 = AXIS2_PLACEMENT_3D ( 'NONE', #414, #45, #883 ) ;
#966 = CARTESIAN_POINT ( 'NONE',  ( -2.500000000000004441, 4.330127018922191873, 0.000000000000000000 ) ) ;
#967 = VERTEX_POINT ( 'NONE', #411 ) ;
#968 = ORIENTED_EDGE ( 'NONE', *, *, #681, .T. ) ;
#969 = FACE_OUTER_BOUND ( 'NONE', #658, .T. ) ;
#970 = EDGE_CURVE ( 'NONE', #979, #276, #126, .T. ) ;
#971 = CARTESIAN_POINT ( 'NONE',  ( -1.653121499799248495, 4.819072548984006055, -0.05140428708382707018 ) ) ;
#972 = ORIENTED_EDGE ( 'NONE', *, *, #754, .T. ) ;
#973 = DIRECTION ( 'NONE',  ( -0.000000000000000000, -0.000000000000000000, 1.000000000000000000 ) ) ;
#974 = DIRECTION ( 'NONE',  ( -0.000000000000000000, -0.000000000000000000, 1.000000000000000000 ) ) ;
#975 = DIRECTION ( 'NONE',  ( 1.000000000000000000, 0.000000000000000000, 0.000000000000000000 ) ) ;
#976 = EDGE_CURVE ( 'NONE', #894, #189, #218, .T. ) ;
#977 = CARTESIAN_POINT ( 'NONE',  ( 0.000000000000000000, 0.000000000000000000, -4.900000000000000355 ) ) ;
#978 = CIRCLE ( 'NONE', #756, 5.000000000000000888 ) ;
#979 = VERTEX_POINT ( 'NONE', #258 ) ;
#980 = DIRECTION ( 'NONE',  ( 0.000000000000000000, 0.000000000000000000, 1.000000000000000000 ) ) ;
#981 = DIRECTION ( 'NONE',  ( 1.000000000000000000, 0.000000000000000000, 0.000000000000000000 ) ) ;
ENDSEC;
END-ISO-10303-21;
